<?xml version="1.0" standalone="no"?> <!DOCTYPE svg PUBLIC "-//W3C//DTD SVG 1.0//EN" "http://www.w3.org/TR/2001/REC-SVG-20010904/DTD/svg10.dtd" > <svg xmlns="http://www.w3.org/2000/svg" width="100%" height="100%">
<defs >
<font id="Effra_W_It" horiz-adv-x="538" ><font-face
    font-family="."
    units-per-em="1000"
    panose-1="2 11 6 3 2 2 3 9 2 4"
    ascent="955"
    descent="-251"
    alphabetic="0" />
<missing-glyph horiz-adv-x="500" d="M149 700H591L455 0H13L149 700ZM402 54L517 646H200L85 54H402Z" />
<glyph unicode="&#x0;" glyph-name="null" horiz-adv-x="0" />
<glyph unicode="&#x8;" glyph-name="null" horiz-adv-x="0" />
<glyph unicode="&#x9;" glyph-name="null" horiz-adv-x="166" />
<glyph unicode="&#xd;" glyph-name="null" horiz-adv-x="166" />
<glyph unicode="&#x1d;" glyph-name="null" horiz-adv-x="0" />
<glyph unicode=" " glyph-name="null" horiz-adv-x="166" />
<glyph unicode="!" glyph-name="null" horiz-adv-x="248" d="M169 667H265L171 192H80L169 667ZM55 109H163L142 0H34L55 109Z" />
<glyph unicode="&quot;" glyph-name="null" horiz-adv-x="342" d="M288 667H370L327 446H245L288 667ZM140 667H222L179 446H97L140 667Z" />
<glyph unicode="#" glyph-name="null" horiz-adv-x="697" d="M164 164H49L60 236H193L253 389H139L150 461H282L348 625H426L361 461H503L569 625H647L582 461H691L680 389H552L492 236H601L590 164H462L398 0H320L384 164H241L177 0H99L164 164ZM414 236L474
389H331L271 236H414Z" />
<glyph unicode="$" glyph-name="null" horiz-adv-x="545" d="M202 -14Q150 -8 97 15T6 88L63 142Q99 104 134 86T217 64L261 294Q231 306 205 321T160 357T131 401T120 457Q120 490 132 522T171 579T236 621T329 640L346 729H405L387 638Q417 633 441 623T484
600T514 574T534 551L475 501Q452 528 430 541T372 562L332 352Q363 338 390 322T436 286T466 239T477 181Q477 133 460 98T412 38T343 1T260 -15L244 -101H185L202 -14ZM385 170Q385 188 382 202T372 227T350 249T315 270L276 65Q328 70 356 97T385 170ZM208 468Q208
436 225 415T278 376L314 564Q294 562 275 557T241 540T217 512T208 468Z" />
<glyph unicode="%" glyph-name="null" horiz-adv-x="856" d="M639 630H728L247 0H158L639 630ZM815 217Q815 167 800 126T758 55T699 9T632 -8Q600 -8 577 3T538 32T515 75T507 127Q507 177 522 218T564 290T622 336T690 353Q722 353 745 342T784 313T807 270T815
217ZM583 130Q583 55 640 55Q658 55 675 67T707 100T730 150T739 215Q739 290 682 290Q664 290 647 278T615 245T592 195T583 130ZM385 511Q385 461 370 420T328 349T269 303T202 286Q170 286 147 297T108 326T85 369T77 421Q77 471 92 512T134 584T192 630T260
647Q292 647 315 636T354 607T377 564T385 511ZM153 424Q153 349 210 349Q228 349 245 361T277 394T300 444T309 509Q309 584 252 584Q234 584 217 572T185 539T162 489T153 424Z" />
<glyph unicode="&amp;" glyph-name="null" horiz-adv-x="612" d="M593 270L473 137L560 0H460L412 75Q380 46 354 28T304 1T258 -12T213 -16Q169 -16 136 -3T80 34T46 88T34 151Q34 227 82 281T217 384Q176 451 176 507Q176 552 190 585T229 640T288 673T361 684Q416
684 460 655T524 572L458 538Q436 581 412 595T356 609Q319 609 291 588T262 521Q262 489 276 460T308 401L433 202L537 320L593 270ZM225 66Q267 66 300 82T373 137L255 324Q199 294 163 257T126 167Q126 123 151 95T225 66Z" />
<glyph unicode="&apos;" glyph-name="null" horiz-adv-x="194" d="M140 667H222L179 446H97L140 667Z" />
<glyph unicode="(" glyph-name="null" horiz-adv-x="278" d="M103 -93Q93 -62 81 0T68 146Q68 243 88 331T138 492T201 620T259 706H347Q309 650 275 589T216 458T175 311T160 146Q160 112 162 77T169 11T179 -48T191 -93H103Z" />
<glyph unicode=")" glyph-name="null" horiz-adv-x="278" d="M223 706Q233 675 245 613T258 467Q258 369 238 281T188 121T125 -7T67 -93H-21Q17 -38 51 24T110 155T151 302T166 467Q166 501 164 536T157 602T147 661T135 706H223Z" />
<glyph unicode="*" glyph-name="null" horiz-adv-x="481" d="M118 459L239 524L118 588L153 649L270 575L264 714H335L330 575L446 649L481 588L360 524L481 459L446 398L330 472L335 334H264L270 472L153 398L118 459Z" />
<glyph unicode="+" glyph-name="null" horiz-adv-x="545" d="M106 359H264L295 517H372L341 359H497L482 283H326L296 125H219L249 283H91L106 359Z" />
<glyph unicode="," glyph-name="null" horiz-adv-x="244" d="M67 0H32L53 111H161L140 1L51 -117H-2L67 0Z" />
<glyph unicode="-" glyph-name="null" horiz-adv-x="421" d="M97 322H378L362 238H81L97 322Z" />
<glyph unicode="." glyph-name="null" horiz-adv-x="246" d="M54 112H163L141 0H32L54 112Z" />
<glyph unicode="/" glyph-name="null" horiz-adv-x="390" d="M375 685H465L74 -16H-17L375 685Z" />
<glyph unicode="0" glyph-name="null" horiz-adv-x="545" d="M356 648Q450 648 495 588T540 424Q540 382 533 334T510 237T470 143T411 63T334 7T236 -14Q142 -14 97 46T52 209Q52 251 59 300T83 397T123 491T181 571T258 627T356 648ZM244 69Q281 69 310 88T363
137T403 206T430 285T446 362T451 428Q451 488 424 527T348 566Q311 566 281 547T228 498T189 428T162 349T146 272T141 206Q141 146 168 108T244 69Z" />
<glyph unicode="1" glyph-name="null" horiz-adv-x="545" d="M126 78H237L328 536L188 465L158 530L355 633H436L326 78H437L422 0H111L126 78Z" />
<glyph unicode="2" glyph-name="null" horiz-adv-x="545" d="M49 59Q56 96 74 129T118 191T178 247T247 300Q287 329 320 351T377 393T414 436T427 488Q427 520 404 544T337 568Q286 568 253 546T193 491L131 536Q145 555 165 575T212 611T273 637T348 648Q391
648 423 636T478 604T511 558T522 501Q522 457 508 424T470 365T413 315T343 266Q310 243 280 223T223 182T178 137T150 79H446L431 0H39L49 59Z" />
<glyph unicode="3" glyph-name="null" horiz-adv-x="545" d="M263 305Q252 305 240 304T212 297L180 342L400 552H155L171 630H523L509 560L309 370Q350 365 378 349T425 310T451 259T459 203Q459 155 441 115T389 46T311 0T213 -17Q143 -17 99 5T26 53L72 118Q103
94 135 78T220 62Q251 62 278 72T326 100T358 143T370 198Q370 245 344 275T263 305Z" />
<glyph unicode="4" glyph-name="null" horiz-adv-x="545" d="M60 205L425 631H512L427 206H493L479 131H413L387 0H306L331 131H45L60 205ZM345 206L406 507L149 206H345Z" />
<glyph unicode="5" glyph-name="null" horiz-adv-x="545" d="M232 63Q303 63 341 106T379 216Q379 270 351 295T270 321Q236 321 212 314T162 294L125 330L220 630H523L508 552H276L223 378Q243 385 262 388T308 391Q347 391 377 378T427 341T458 286T469 221Q469
170 452 127T404 51T327 1T225 -17Q156 -17 112 4T40 52L85 117Q100 105 115 95T147 78T185 67T232 63Z" />
<glyph unicode="6" glyph-name="null" horiz-adv-x="545" d="M506 534Q486 548 461 557T401 566Q357 566 324 550T265 505T222 439T191 360Q218 380 250 391T323 403Q360 403 391 390T446 354T481 300T494 234Q494 173 476 127T428 48T356 0T267 -17Q217 -17 182
0T123 47T88 115T77 198Q77 247 85 299T112 401T157 496T220 574T302 627T405 647Q450 647 487 634T551 600L506 534ZM174 281Q169 262 167 241T164 197Q164 172 169 148T188 104T222 72T276 60Q303 60 327 70T369 100T397 150T408 221Q408 270 383 299T309 328Q263
328 230 315T174 281Z" />
<glyph unicode="7" glyph-name="null" horiz-adv-x="545" d="M92 0Q128 71 174 152T267 311T356 452T427 552H133L148 631H535L519 549Q501 526 475 487T417 401T354 299T290 192T233 89T188 0H92Z" />
<glyph unicode="8" glyph-name="null" horiz-adv-x="545" d="M292 305Q266 299 239 288T190 259T154 218T140 161Q140 141 147 123T168 91T204 69T255 60Q279 60 305 67T352 89T387 128T401 188Q401 225 372 257T292 305ZM321 380Q342 385 364 394T404 417T433
451T445 497Q445 513 440 527T423 553T394 572T352 579Q332 579 311 574T273 556T245 524T234 475Q234 445 257 419T321 380ZM394 341Q407 334 423 322T455 290T480 246T490 190Q490 153 475 117T431 51T357 3T255 -15Q199 -15 160 -1T96 37T60 90T49 148Q49 186
62 216T98 272T153 316T222 350Q211 357 199 368T176 394T159 429T152 473Q152 504 164 535T202 592T265 632T353 648Q401 648 434 636T488 603T518 558T528 508Q528 446 491 407T394 341Z" />
<glyph unicode="9" glyph-name="null" horiz-adv-x="545" d="M80 99Q100 85 130 75T195 65Q236 65 268 81T326 126T370 192T399 271Q371 251 337 239T269 227Q231 227 200 239T145 273T110 327T97 398Q97 463 117 510T171 587T245 632T327 647Q374 647 409 631T468
586T504 520T516 440Q516 363 497 283T437 135T335 26T190 -17Q145 -17 107 -5T43 28L80 99ZM418 349Q422 366 425 384T428 423Q428 449 424 475T407 522T373 556T317 570Q296 570 273 563T229 537T196 490T183 419Q183 363 207 333T284 302Q323 302 359 315T418
349Z" />
<glyph unicode=":" glyph-name="null" horiz-adv-x="246" d="M123 467H232L210 355H101L123 467ZM54 112H163L141 0H32L54 112Z" />
<glyph unicode=";" glyph-name="null" horiz-adv-x="244" d="M67 0H32L53 111H161L140 1L51 -117H-2L67 0ZM122 467H231L209 355H100L122 467Z" />
<glyph unicode="&lt;" glyph-name="null" horiz-adv-x="545" d="M114 349L497 538L529 473L203 317L462 163L420 97L103 291L114 349Z" />
<glyph unicode="=" glyph-name="null" horiz-adv-x="545" d="M123 441H514L499 365H108L123 441ZM347 524H738L723 448H332L347 524Z" />
<glyph unicode="&gt;" glyph-name="null" horiz-adv-x="545" d="M481 291L98 102L66 169L392 325L133 479L175 543L492 349L481 291Z" />
<glyph unicode="?" glyph-name="null" horiz-adv-x="486" d="M142 110H249L228 0H121L142 110ZM173 220Q183 274 212 316T298 393Q348 425 378 454T408 525Q408 561 384 582T314 603Q275 603 240 589T167 533L107 581Q148 631 202 657T320 684Q357 684 389 675T446
647T484 601T498 539Q498 504 489 478T462 429T421 388T367 350Q345 336 327 323T296 296T273 263T259 219L254 192H168L173 220Z" />
<glyph unicode="@" glyph-name="null" horiz-adv-x="912" d="M565 221Q551 223 531 225T472 228Q431 228 403 220T359 197T335 165T328 127Q328 90 347 74T409 58Q432 58 456 67T500 91T536 128T556 174L565 221ZM638 -16Q595 -16 568 2T534 56Q499 20 460 4T378
-13Q352 -13 328 -5T284 19T254 57T242 109Q242 152 258 186T303 245T375 283T471 296Q503 296 532 294T578 287L581 303Q584 315 584 327Q584 362 561 384T489 406Q438 406 407 391T352 361L316 419Q329 429 347 439T388 459T441 473T507 479Q578 479 622 441T666
336Q666 315 662 296L623 98Q622 94 622 86Q622 70 631 64T657 57Q687 57 715 77T765 134T800 222T814 335Q814 396 792 446T730 532T635 587T515 607Q437 607 367 584T244 516T159 404T128 249Q128 224 131 199T141 146T162 89T198 26L135 -10Q108 29 91 64T65
131T53 193T50 249Q50 346 85 426T184 562T334 650T525 681Q605 681 673 656T791 585T869 477T897 340Q897 273 881 209T831 95T750 15T638 -16Z" />
<glyph unicode="A" glyph-name="null" horiz-adv-x="615" d="M354 667H448L570 0H472L442 187H177L75 0H-25L354 667ZM429 266L381 563L219 266H429Z" />
<glyph unicode="B" glyph-name="null" horiz-adv-x="566" d="M167 667H375Q418 667 450 656T505 624T538 578T550 522Q550 483 538 455T507 408T466 376T422 354Q442 349 461 337T494 308T518 267T527 216Q527 156 504 115T443 48T354 11T248 0H38L167 667ZM319
387Q343 387 367 393T412 414T445 449T458 502Q458 527 450 543T427 569T393 582T350 586H240L202 387H319ZM275 82Q309 82 338 89T388 112T421 152T433 210Q433 239 424 258T398 288T359 303T310 308H186L143 82H275Z" />
<glyph unicode="C" glyph-name="null" horiz-adv-x="643" d="M611 107Q562 49 496 16T348 -17Q283 -17 232 4T143 64T87 156T67 275Q67 355 95 429T173 559T294 650T447 684Q534 684 590 647T679 545L607 499Q576 552 538 575T438 599Q377 599 327 573T240 503T185
402T165 283Q165 238 177 199T213 132T272 87T352 70Q416 70 464 96T549 168L611 107Z" />
<glyph unicode="D" glyph-name="null" horiz-adv-x="690" d="M167 667H373Q442 667 497 649T592 595T652 511T673 398Q673 310 644 237T562 112T432 30T259 0H38L167 667ZM273 86Q340 86 395 107T491 167T552 261T574 386Q574 477 520 529T350 581H243L146 86H273Z" />
<glyph unicode="E" glyph-name="null" horiz-adv-x="530" d="M167 667H570L554 582H242L204 387H439L423 303H187L145 86H480L464 0H38L167 667Z" />
<glyph unicode="F" glyph-name="null" horiz-adv-x="508" d="M167 667H569L552 581H241L202 376H439L423 292H185L129 0H38L167 667Z" />
<glyph unicode="G" glyph-name="null" horiz-adv-x="672" d="M357 70Q411 70 450 83T525 124L550 258H413L429 339H654L604 77Q555 30 489 7T353 -17Q288 -17 236 4T146 64T88 156T67 275Q67 355 95 429T175 559T296 650T450 684Q537 684 594 647T684 545L612
499Q581 552 542 575T441 599Q380 599 329 573T242 503T185 402T165 283Q165 237 177 198T214 131T275 86T357 70Z" />
<glyph unicode="H" glyph-name="null" horiz-adv-x="681" d="M167 667H259L205 387H556L610 667H702L573 0H481L539 303H188L130 0H38L167 667Z" />
<glyph unicode="I" glyph-name="null" horiz-adv-x="238" d="M167 667H259L130 0H38L167 667Z" />
<glyph unicode="J" glyph-name="null" horiz-adv-x="474" d="M54 130Q86 95 115 82T180 68Q205 68 226 73T265 93T295 133T316 198L407 667H499L405 180Q394 125 373 88T323 27T259 -7T184 -17Q124 -17 76 4T-4 69L54 130Z" />
<glyph unicode="K" glyph-name="null" horiz-adv-x="579" d="M167 667H258L199 364L526 667H636L344 391L529 0H426L272 330L176 246L129 0H38L167 667Z" />
<glyph unicode="L" glyph-name="null" horiz-adv-x="526" d="M167 667H259L146 83H479L463 0H38L167 667Z" />
<glyph unicode="M" glyph-name="null" horiz-adv-x="756" d="M189 667H276L397 317L664 667H754L654 0H564L642 512L399 197H354L237 512L117 0H30L189 667Z" />
<glyph unicode="N" glyph-name="null" horiz-adv-x="679" d="M167 667H260L507 139L610 667H700L571 0H479L231 529L128 0H38L167 667Z" />
<glyph unicode="O" glyph-name="null" horiz-adv-x="743" d="M165 281Q165 236 177 198T214 131T276 86T361 70Q422 70 472 97T559 169T614 269T634 382Q634 427 623 466T588 535T528 582T441 599Q376 599 325 571T238 498T184 396T165 281ZM448 684Q508 684 560
665T650 609T710 520T732 403Q732 321 705 245T629 111T511 18T359 -17Q293 -17 240 4T148 62T88 151T67 264Q67 348 94 424T172 558T292 650T448 684Z" />
<glyph unicode="P" glyph-name="null" horiz-adv-x="543" d="M167 667H364Q417 667 454 652T513 612T546 557T556 498Q556 436 535 392T477 318T392 276T291 262H179L129 0H38L167 667ZM306 342Q378 342 419 379T460 488Q460 533 433 560T351 588H243L195 342H306Z" />
<glyph unicode="Q" glyph-name="null" horiz-adv-x="743" d="M448 684Q508 684 560 665T650 609T710 520T732 403Q732 300 691 210T576 59L633 -36L566 -78L509 17Q475 1 438 -8T359 -17Q293 -17 240 4T148 62T88 151T67 264Q67 348 94 424T172 558T292 650T448
684ZM165 281Q165 236 177 198T214 131T276 86T361 70Q416 70 464 93L404 195L470 237L529 137Q579 183 606 248T634 382Q634 427 623 466T588 535T528 582T441 599Q376 599 325 571T238 498T184 396T165 281Z" />
<glyph unicode="R" glyph-name="null" horiz-adv-x="560" d="M179 273L127 0H38L167 667H366Q419 667 456 652T516 614T549 561T560 502Q560 456 548 421T515 359T464 315T400 287L491 0H393L312 273H179ZM240 588L194 353H309Q381 353 422 385T464 492Q464 537
436 562T353 588H240Z" />
<glyph unicode="S" glyph-name="null" horiz-adv-x="559" d="M85 153Q127 107 168 88T266 68Q327 68 368 100T409 189Q409 212 402 228T380 258T342 282T288 306Q254 320 224 337T172 375T137 423T124 485Q124 525 140 561T187 625T261 668T358 684Q427 684 474
658T554 586L489 531Q466 560 434 581T352 602Q288 602 254 574T220 499Q220 476 227 460T250 432T288 408T341 384Q377 369 406 353T458 315T492 265T504 199Q504 145 485 105T431 37T353 -3T258 -17Q229 -17 199 -12T138 6T78 40T22 95L85 153Z" />
<glyph unicode="T" glyph-name="null" horiz-adv-x="596" d="M330 585H101L117 667H667L651 585H423L310 0H217L330 585Z" />
<glyph unicode="U" glyph-name="null" horiz-adv-x="646" d="M162 667H254L178 277Q174 257 172 240T170 205Q170 143 201 107T309 71Q354 71 386 83T441 119T478 181T502 267L580 667H672L590 244Q578 184 556 136T499 54T415 2T301 -17Q245 -17 203 -2T132 42T90
108T76 191Q76 221 82 254L162 667Z" />
<glyph unicode="V" glyph-name="null" horiz-adv-x="609" d="M100 667H199L288 120L587 667H689L312 0H218L100 667Z" />
<glyph unicode="W" glyph-name="null" horiz-adv-x="843" d="M106 667H203L226 129L461 647H553L591 132L815 667H915L616 0H518L477 493L247 0H150L106 667Z" />
<glyph unicode="X" glyph-name="null" horiz-adv-x="574" d="M264 350L116 667H220L330 419L529 667H636L369 343L529 0H423L302 272L82 0H-26L264 350Z" />
<glyph unicode="Y" glyph-name="null" horiz-adv-x="554" d="M248 297L99 667H196L307 380L530 667H634L341 298L284 0H191L248 297Z" />
<glyph unicode="Z" glyph-name="null" horiz-adv-x="616" d="M27 84L517 584H143L159 667H651L635 582L145 83H544L528 0H11L27 84Z" />
<glyph unicode="[" glyph-name="null" horiz-adv-x="302" d="M177 706H379L363 627H249L126 -12H240L223 -93H21L177 706Z" />
<glyph unicode="\" glyph-name="null" horiz-adv-x="390" d="M206 685L325 -16H240L123 685H206Z" />
<glyph unicode="]" glyph-name="null" horiz-adv-x="302" d="M-13 -12H101L224 627H110L126 706H330L174 -93H-30L-13 -12Z" />
<glyph unicode="^" glyph-name="null" horiz-adv-x="527" d="M319 667H396L496 308H412L342 576L168 308H79L319 667Z" />
<glyph unicode="_" glyph-name="null" horiz-adv-x="500" d="M-55 -70H460L450 -121H-65L-55 -70Z" />
<glyph unicode="`" glyph-name="null" horiz-adv-x="429" d="M229 677H322L350 541H281L229 677Z" />
<glyph unicode="a" glyph-name="null" horiz-adv-x="479" d="M345 221Q331 223 311 225T252 228Q211 228 183 220T139 197T115 165T108 127Q108 90 127 74T189 58Q212 58 236 67T280 91T316 128T336 174L345 221ZM314 56Q279 20 240 4T158 -13Q131 -13 107 -5T63
20T33 59T22 111Q22 154 38 188T85 247T157 283T251 296Q283 296 312 294T358 287L361 303Q364 315 364 327Q364 362 341 384T269 406Q218 406 187 391T132 361L96 419Q109 429 127 439T168 459T221 473T287 479Q358 479 402 441T446 336Q446 315 442 296L402 92Q397
66 393 42T386 0H306L314 56Z" />
<glyph unicode="b" glyph-name="null" horiz-adv-x="529" d="M150 667H236L187 412Q196 422 210 433T242 454T285 470T340 476Q379 476 409 461T459 421T490 364T501 295Q501 226 479 169T417 72T322 9T200 -14Q145 -14 98 -3T25 22L150 667ZM120 75Q148 66 167
65T214 63Q260 63 297 79T359 125T397 194T411 279Q411 304 406 326T390 364T360 389T314 399Q280 399 253 388T206 357T174 313T156 262L120 75Z" />
<glyph unicode="c" glyph-name="null" horiz-adv-x="475" d="M428 64Q396 30 351 8T242 -14Q197 -14 161 1T99 42T61 104T47 181Q47 247 67 301T124 396T209 458T315 480Q433 480 480 374L415 338Q397 370 373 387T303 404Q271 404 241 389T188 347T151 282T137
195Q137 137 169 100T254 62Q296 62 324 77T380 118L428 64Z" />
<glyph unicode="d" glyph-name="null" horiz-adv-x="532" d="M422 369Q397 387 372 393T313 400Q280 400 249 385T192 340T151 270T135 177Q135 125 158 94T235 62Q269 62 296 76T342 111T374 156T390 200L422 369ZM362 57Q355 49 342 37T310 14T266 -6T211 -14Q178
-14 148 -2T95 32T59 88T45 163Q45 247 72 306T140 403T228 458T315 476Q360 476 385 469T437 445L480 667H567L457 101Q451 70 447 48T438 0H354L362 57Z" />
<glyph unicode="e" glyph-name="null" horiz-adv-x="517" d="M306 480Q355 480 389 465T446 423T478 361T488 285Q488 246 479 206H134Q133 201 133 197T133 191Q133 136 163 99T256 61Q301 61 333 75T397 121L446 69Q413 34 364 10T250 -14Q200 -14 163 1T100
42T61 105T48 183Q48 244 67 298T120 393T202 456T306 480ZM405 272Q405 277 405 281T406 290Q406 341 380 375T300 410Q243 410 203 374T145 272H405Z" />
<glyph unicode="f" glyph-name="null" horiz-adv-x="317" d="M134 393H53L67 465H148L155 503Q172 597 222 640T343 684Q373 684 405 672T461 631L408 577Q394 593 377 599T337 606Q298 606 276 581T241 495L235 465H362L348 393H221L145 0H58L134 393Z" />
<glyph unicode="g" glyph-name="null" horiz-adv-x="530" d="M432 -4Q412 -106 352 -159T188 -212Q146 -212 103 -203T18 -165L58 -94Q92 -116 125 -125T196 -134Q230 -134 255 -124T298 -96T328 -52T346 5L357 59Q352 53 340 43T309 22T267 4T213 -4Q137 -4 90
40T43 164Q43 231 64 288T123 387T216 452T337 476Q392 476 441 464T517 440L432 -4ZM421 388Q383 401 325 401Q283 401 248 385T187 339T147 269T133 180Q133 132 154 102T232 72Q264 72 290 83T335 111T366 151T383 196L421 388Z" />
<glyph unicode="h" glyph-name="null" horiz-adv-x="521" d="M110 0H24L153 667H237L184 395Q222 437 261 456T354 476Q414 476 451 438T488 336Q488 325 487 310T483 279L429 0H343L395 272Q400 297 400 314Q400 354 382 376T323 398Q291 398 263 384T212 346T175
289T152 221L110 0Z" />
<glyph unicode="i" glyph-name="null" horiz-adv-x="213" d="M146 649H243L223 548H126L146 649ZM118 465H205L115 0H28L118 465Z" />
<glyph unicode="j" glyph-name="null" horiz-adv-x="213" d="M-113 -101Q-96 -112 -84 -117T-54 -123Q-41 -123 -29 -119T-7 -100T12 -59T29 9L118 465H205L110 -21Q102 -59 92 -91T63 -148T19 -186T-47 -200Q-76 -200 -102 -192T-148 -166L-113 -101ZM146 649H243L223
548H126L146 649Z" />
<glyph unicode="k" glyph-name="null" horiz-adv-x="470" d="M154 667H240L164 274L388 465H493L286 286L421 0H328L219 233L144 170L111 0H25L154 667Z" />
<glyph unicode="l" glyph-name="null" horiz-adv-x="205" d="M154 667H240L111 0H25L154 667Z" />
<glyph unicode="m" glyph-name="null" horiz-adv-x="816" d="M95 364Q101 395 105 417T114 465H196L185 395Q223 437 262 456T350 476Q390 476 422 453T468 390Q509 435 551 455T650 476Q678 476 702 466T745 438T773 394T783 336Q783 325 782 310T778 279L724
0H638L690 272Q695 297 695 314Q695 354 676 376T619 398Q566 398 525 365T469 262L418 0H332L384 272Q389 297 389 314Q389 354 371 376T319 398Q289 398 262 384T213 345T176 289T153 220L111 0H25L95 364Z" />
<glyph unicode="n" glyph-name="null" horiz-adv-x="522" d="M95 364Q101 395 105 417T114 465H196L185 395Q223 437 262 456T355 476Q415 476 452 438T489 336Q489 325 488 310T484 279L430 0H344L396 272Q401 297 401 314Q401 354 383 376T324 398Q292 398 264
384T213 345T176 289T153 220L111 0H25L95 364Z" />
<glyph unicode="o" glyph-name="null" horiz-adv-x="549" d="M318 480Q364 480 401 466T464 426T505 362T520 278Q520 217 500 164T443 71T357 9T247 -14Q202 -14 166 0T103 41T62 105T47 187Q47 246 68 299T126 393T212 456T318 480ZM308 404Q276 404 245 389T190
346T150 282T135 201Q135 140 164 101T255 62Q288 62 319 77T376 118T416 182T432 265Q432 330 402 367T308 404Z" />
<glyph unicode="p" glyph-name="null" horiz-adv-x="541" d="M95 364Q101 395 105 417T114 465H196L185 395Q194 404 207 418T241 444T288 466T353 476Q390 476 419 462T470 423T502 367T513 301Q513 219 488 160T423 62T334 5T238 -14Q199 -14 172 -5T114 23L71
-200H-14L95 364ZM130 101Q151 82 177 72T237 62Q293 62 332 89T395 162Q406 185 414 216T423 281Q423 336 401 367T329 399Q297 399 268 386T216 349T176 292T152 219L130 101Z" />
<glyph unicode="q" glyph-name="null" horiz-adv-x="530" d="M353 46Q348 41 337 32T307 12T265 -6T212 -14Q174 -14 143 -2T90 34T55 90T43 162Q43 230 64 287T123 387T216 452T337 476Q392 476 441 464T517 440L393 -200H306L353 46ZM421 388Q396 396 374 398T325
401Q284 401 249 385T188 340T148 269T133 178Q133 154 138 133T154 96T184 71T231 62Q263 62 289 73T334 103T365 143T382 189L421 388Z" />
<glyph unicode="r" glyph-name="null" horiz-adv-x="349" d="M96 370Q102 399 106 420T114 465H196L184 391Q194 402 208 416T242 442T284 463T338 472Q355 472 368 470T392 463L360 379Q346 384 337 385T311 387Q282 387 257 375T211 343T177 296T157 240L111
0H25L96 370Z" />
<glyph unicode="s" glyph-name="null" horiz-adv-x="441" d="M59 114Q78 99 95 89T130 73T166 64T207 61Q251 61 275 78T300 127Q300 141 293 151T275 169T248 185T215 199Q195 208 172 218T130 244T97 282T84 338Q84 374 98 400T136 445T193 471T265 480Q283
480 304 477T347 465T389 443T428 410L376 359Q352 382 321 394T258 407Q217 407 195 393T172 352Q172 339 176 329T192 310T222 291T271 269Q294 259 316 248T355 221T382 187T392 140Q392 66 340 26T204 -14Q152 -14 103 1T12 52L59 114Z" />
<glyph unicode="t" glyph-name="null" horiz-adv-x="369" d="M138 393H58L72 465H153L182 617H268L239 465H370L356 393H224L179 156Q175 136 175 117Q175 62 222 62Q242 62 260 71T293 94L335 42Q307 16 275 2T211 -13Q151 -13 119 14T86 100Q86 119 91 147L138 393Z" />
<glyph unicode="u" glyph-name="null" horiz-adv-x="517" d="M439 101Q433 70 429 48T420 0H338L349 70Q311 28 272 9T180 -11Q120 -11 84 27T47 129Q47 140 48 155T52 186L106 465H192L140 193Q135 168 135 151Q135 111 152 89T211 67Q243 67 271 81T321 120T359
176T381 245L423 465H509L439 101Z" />
<glyph unicode="v" glyph-name="null" horiz-adv-x="482" d="M51 465H148L215 103L423 465H520L239 0H153L51 465Z" />
<glyph unicode="w" glyph-name="null" horiz-adv-x="693" d="M56 465H148L179 112L355 465H429L466 109L631 465H727L489 0H403L363 323L198 0H116L56 465Z" />
<glyph unicode="x" glyph-name="null" horiz-adv-x="468" d="M189 248L73 465H171L251 307L385 465H489L288 243L415 0H318L227 182L72 0H-34L189 248Z" />
<glyph unicode="y" glyph-name="null" horiz-adv-x="482" d="M-15 -119Q-4 -127 8 -133T41 -139Q56 -139 68 -133T92 -113T117 -77T149 -23L166 7L57 465H153L228 114L423 465H520L218 -52Q196 -89 177 -118T137 -169T95 -201T45 -213Q18 -213 -5 -207T-48 -181L-15
-119Z" />
<glyph unicode="z" glyph-name="null" horiz-adv-x="446" d="M20 71L334 393H92L106 465H458L444 393L125 72H385L371 0H7L20 71Z" />
<glyph unicode="{" glyph-name="null" horiz-adv-x="277" d="M111 204Q112 209 112 219Q112 245 97 263T51 284L62 341Q98 343 120 366T150 421L196 594Q208 639 223 664T265 706H352Q332 693 313 666T285 605L236 412Q225 370 201 346T147 313Q170 305 183 287T197
236Q197 231 197 225T195 213L169 23Q168 17 168 11T167 -1Q167 -28 174 -53T194 -93H109Q84 -58 84 -5Q84 13 87 34L111 204Z" />
<glyph unicode="|" glyph-name="null" horiz-adv-x="224" d="M195 833H277L84 -164H2L195 833Z" />
<glyph unicode="}" glyph-name="null" horiz-adv-x="277" d="M213 409Q212 404 212 394Q212 368 227 350T273 329L262 272Q226 270 204 247T174 192L128 19Q116 -26 101 -51T59 -93H-28Q-8 -80 11 -53T39 8L88 201Q99 243 123 267T177 300Q154 308 141 326T127
377Q127 382 127 388T129 400L155 590Q156 596 156 602T157 614Q157 641 150 666T130 706H215Q240 671 240 618Q240 600 237 579L213 409Z" />
<glyph unicode="~" glyph-name="null" horiz-adv-x="459" d="M326 324Q346 324 368 332T410 357L442 308Q410 278 379 262T315 245Q292 245 275 252T242 267T210 282T174 289Q154 289 132 281T90 256L58 305Q90 335 121 351T185 368Q207 368 225 361T258 346T290
331T326 324Z" />
<glyph unicode="&#xa0;" glyph-name="null" horiz-adv-x="166" />
<glyph unicode="&#xa1;" glyph-name="null" horiz-adv-x="248" d="M108 -202H12L106 273H197L108 -202ZM222 356H114L135 465H243L222 356Z" />
<glyph unicode="&#xa2;" glyph-name="null" horiz-adv-x="545" d="M476 145Q446 113 404 91T302 67L286 -19H227L244 71Q174 85 135 137T95 262Q95 324 113 376T164 468T241 531T339 560L356 649H415L397 558Q489 544 528 455L463 419Q449 444 431 460T383 482L317
143Q352 146 377 161T428 199L476 145ZM185 276Q185 231 205 198T260 150L324 482Q296 476 271 459T226 416T196 354T185 276Z" />
<glyph unicode="&#xa3;" glyph-name="null" horiz-adv-x="545" d="M496 518Q476 546 454 556T400 566Q349 566 319 536T275 438L260 363H453L439 290H246L206 84H492L476 0H99L156 290H85L99 363H170L188 452Q199 507 220 545T271 605T336 638T409 648Q510 648
562 566L496 518Z" />
<glyph unicode="&#xa4;" glyph-name="null" horiz-adv-x="545" d="M68 160L133 225Q117 248 109 275T100 334Q100 393 133 443L68 507L123 563L187 498Q211 515 239 525T299 535Q331 535 358 526T411 499L475 563L530 507L465 443Q481 419 490 392T499 334Q499
302 490 275T465 224L530 160L475 104L411 168Q361 133 299 133Q265 133 238 142T187 169L123 104L68 160ZM172 334Q172 308 182 285T209 244T249 216T299 205Q325 205 348 215T389 243T417 284T427 334Q427 360 417 383T390 424T349 452T299 463Q273 463 250 453T209
425T182 384T172 334Z" />
<glyph unicode="&#xa5;" glyph-name="null" horiz-adv-x="545" d="M70 186H220L236 272H86L98 333H214L106 631H201L295 350L495 631H597L373 333H487L475 272H322L306 186H459L447 125H294L270 0H184L208 125H58L70 186Z" />
<glyph unicode="&#xa6;" glyph-name="null" horiz-adv-x="224" d="M122 454L195 833H277L203 454H122ZM157 215L84 -164H2L75 215H157Z" />
<glyph unicode="&#xa7;" glyph-name="null" horiz-adv-x="444" d="M396 571Q375 591 353 599T304 608Q255 608 227 578T199 498Q199 480 204 465T221 432T253 394T302 346L424 231L367 169L232 291Q176 342 145 386T114 486Q114 532 129 569T170 631T230 670T303
684Q340 684 379 672T450 625L396 571ZM77 -99Q98 -119 120 -127T169 -136Q218 -136 246 -106T274 -26Q274 -8 269 7T252 40T220 78T171 126L49 241L106 303L241 181Q297 130 328 86T359 -14Q359 -60 344 -97T303 -159T243 -198T170 -212Q133 -212 94 -200T23 -153L77
-99Z" />
<glyph unicode="&#xa8;" glyph-name="null" horiz-adv-x="334" d="M305 651H394L376 560H287L305 651ZM140 651H231L213 560H122L140 651Z" />
<glyph unicode="&#xa9;" glyph-name="null" horiz-adv-x="777" d="M415 -14Q342 -14 279 13T169 87T95 198T68 335Q68 408 95 471T168 582T278 656T416 684Q489 684 552 657T661 582T735 472T762 335Q762 262 735 199T662 88T552 13T415 -14ZM415 51Q475 51 525
72T612 132T669 222T690 334Q690 394 670 445T613 535T526 596T416 618Q356 618 306 596T219 536T161 446T140 334Q140 274 160 223T218 133T305 73T415 51ZM572 226Q548 191 510 168T420 144Q378 144 343 158T283 198T245 259T231 335Q231 375 245 409T284 469T344
509T420 524Q471 524 509 501T572 442L520 405Q505 426 481 442T425 458Q371 458 339 424T306 334Q306 282 338 247T425 212Q459 212 483 228T521 267L572 226Z" />
<glyph unicode="&#xaa;" glyph-name="null" horiz-adv-x="366" d="M303 472Q294 474 277 475T242 477Q195 477 176 460T157 426Q157 407 166 396T204 385Q219 385 234 389T263 402T286 423T299 451L303 472ZM285 370Q267 351 238 340T184 328Q141 328 115 350T89
416Q89 441 101 461T133 497T182 520T244 528Q265 528 283 526T312 522L313 530Q313 533 313 536T314 542Q314 562 302 574T256 587Q223 587 200 579T161 560L134 608Q151 620 185 634T268 648Q319 648 349 625T379 556Q379 544 376 529L349 391Q346 376 344 365T339
336H280L285 370Z" />
<glyph unicode="&#xab;" glyph-name="null" horiz-adv-x="482" d="M319 243L450 431H535L405 240L463 45H383L319 243ZM232 243L363 431H448L318 240L376 45H296L232 243Z" />
<glyph unicode="&#xac;" glyph-name="null" horiz-adv-x="545" d="M106 360H497L456 147H380L406 282H91L106 360Z" />
<glyph unicode="&#xad;" glyph-name="null" horiz-adv-x="421" d="M97 322H378L362 238H81L97 322Z" />
<glyph unicode="&#xae;" glyph-name="null" horiz-adv-x="777" d="M415 -14Q342 -14 279 13T169 87T95 198T68 335Q68 408 95 471T168 582T278 656T416 684Q489 684 552 657T661 582T735 472T762 335Q762 262 735 199T662 88T552 13T415 -14ZM415 51Q475 51 525
72T612 132T669 222T690 334Q690 394 670 445T613 535T526 596T416 618Q356 618 306 596T219 536T161 446T140 334Q140 274 160 223T218 133T305 73T415 51ZM294 513H430Q463 513 486 504T525 479T548 446T555 409Q555 375 538 348T485 306L571 160H497L418 297H359V160H294V513ZM427
349Q458 349 473 364T488 405Q488 458 423 458H359V349H427Z" />
<glyph unicode="&#xaf;" glyph-name="null" horiz-adv-x="335" d="M146 637H386L372 565H132L146 637Z" />
<glyph unicode="&#xb0;" glyph-name="null" horiz-adv-x="319" d="M68 526Q68 555 78 579T107 622T150 650T204 660Q233 660 258 650T301 622T330 580T341 527Q341 498 331 474T302 431T258 403T205 393Q176 393 151 403T108 431T79 473T68 526ZM205 452Q237 452
257 473T278 527Q278 558 258 579T204 600Q173 600 153 579T132 526Q132 494 152 473T205 452Z" />
<glyph unicode="&#xb1;" glyph-name="null" horiz-adv-x="545" d="M106 359H264L295 517H372L341 359H497L482 283H326L296 125H219L249 283H91L106 359ZM52 77H443L428 1H37L52 77Z" />
<glyph unicode="&#xb2;" glyph-name="null" horiz-adv-x="360" d="M67 334Q73 369 100 401T186 467Q214 483 231 494T257 515T270 531T273 547Q273 564 261 573T231 583Q205 583 185 573T149 546L105 586Q125 609 159 628T242 647Q296 647 324 622T353 560Q353
539 348 523T330 493T298 466T250 435Q221 418 190 399T146 355H317L304 296H60L67 334Z" />
<glyph unicode="&#xb3;" glyph-name="null" horiz-adv-x="360" d="M150 477L261 577H127L140 637H360L348 583L250 498Q292 487 309 463T327 408Q327 353 286 320T176 286Q134 286 106 298T58 327L92 378Q112 364 132 355T181 346Q216 346 236 361T257 406Q257
433 241 444T202 456Q193 456 184 455T166 450L150 477Z" />
<glyph unicode="&#xb4;" glyph-name="null" horiz-adv-x="385" d="M301 677H396L298 541H227L301 677Z" />
<glyph unicode="&#xb5;" glyph-name="null" horiz-adv-x="520" d="M111 465H197L144 192Q142 180 141 169T139 148Q139 67 217 67Q249 67 277 81T327 121T364 179T387 251L428 465H514L445 109Q438 76 434 51T425 0H343L354 70Q344 58 329 44T293 18T249 -2T198
-10Q169 -10 149 -3T111 23L68 -200H-18L111 465Z" />
<glyph unicode="&#xb6;" glyph-name="null" horiz-adv-x="493" d="M294 305Q250 305 212 314T146 342T101 390T84 460Q84 514 107 553T169 618T258 655T364 667L294 305ZM432 667H521L368 -122H279L432 667ZM197 258Q211 253 227 252T258 250H283L211 -122H124L197 258Z" />
<glyph unicode="&#xb7;" glyph-name="null" horiz-adv-x="243" d="M115 380H224L202 268H93L115 380Z" />
<glyph unicode="&#xb8;" glyph-name="null" horiz-adv-x="540" d="M36 -156Q51 -162 69 -166T106 -170Q139 -170 156 -158T173 -126Q173 -109 161 -103T123 -96Q106 -96 89 -99T55 -109L72 -54Q88 -49 107 -45T157 -41Q197 -41 221 -62T245 -116Q245 -145 234
-165T205 -199T161 -219T108 -225Q66 -225 44 -219T17 -210L36 -156Z" />
<glyph unicode="&#xb9;" glyph-name="null" horiz-adv-x="360" d="M237 555L146 513L124 568L261 637H326L260 296H186L237 555Z" />
<glyph unicode="&#xba;" glyph-name="null" horiz-adv-x="376" d="M263 648Q293 648 317 639T360 612T388 570T398 515Q398 474 384 440T345 381T288 341T219 327Q160 327 123 364T85 460Q85 499 99 533T138 592T195 633T263 648ZM254 585Q236 585 219 577T187
554T165 518T156 472Q156 435 174 413T226 390Q245 390 263 398T295 420T318 456T327 503Q327 541 309 563T254 585Z" />
<glyph unicode="&#xbb;" glyph-name="null" horiz-adv-x="482" d="M389 233L258 45H173L303 236L245 431H325L389 233ZM476 233L345 45H260L390 236L332 431H412L476 233Z" />
<glyph unicode="&#xbc;" glyph-name="null" horiz-adv-x="892" d="M469 555L378 513L356 568L493 637H558L492 296H418L469 555ZM633 630H722L241 0H152L633 630ZM529 124L740 342H813L770 124H811L801 67H760L747 2H681L694 67H518L529 124ZM704 124L732 264L594
124H704Z" />
<glyph unicode="&#xbd;" glyph-name="null" horiz-adv-x="892" d="M469 555L378 513L356 568L493 637H558L492 296H418L469 555ZM617 630H706L225 0H136L617 630ZM537 39Q543 74 570 106T656 172Q684 188 701 199T727 220T740 236T743 252Q743 269 731 278T701
288Q675 288 655 278T619 251L575 291Q595 314 629 333T712 352Q766 352 794 327T823 265Q823 244 818 228T800 198T768 171T720 140Q691 123 660 104T616 60H787L774 1H530L537 39Z" />
<glyph unicode="&#xbe;" glyph-name="null" horiz-adv-x="892" d="M402 477L513 577H379L392 637H612L600 583L502 498Q544 487 561 463T579 408Q579 353 538 320T428 286Q386 286 358 298T310 327L344 378Q364 364 384 355T433 346Q468 346 488 361T509 406Q509
433 493 444T454 456Q445 456 436 455T418 450L402 477ZM657 630H746L265 0H176L657 630ZM529 124L740 342H813L770 124H811L801 67H760L747 2H681L694 67H518L529 124ZM704 124L732 264L594 124H704Z" />
<glyph unicode="&#xbf;" glyph-name="null" horiz-adv-x="486" d="M374 355H267L288 465H395L374 355ZM343 245Q333 191 304 149T218 72Q168 40 138 11T108 -60Q108 -96 132 -117T202 -138Q241 -138 276 -124T349 -68L409 -116Q368 -166 314 -192T196 -219Q159
-219 127 -210T70 -182T32 -136T18 -74Q18 -39 27 -13T54 36T95 77T149 115Q171 129 189 142T220 169T243 202T257 246L262 273H348L343 245Z" />
<glyph unicode="&#xc0;" glyph-name="null" horiz-adv-x="615" d="M354 667H448L570 0H472L442 187H177L75 0H-25L354 667ZM429 266L381 563L219 266H429ZM315 870H420L461 720H385L315 870Z" />
<glyph unicode="&#xc1;" glyph-name="null" horiz-adv-x="615" d="M354 667H448L570 0H472L442 187H177L75 0H-25L354 667ZM429 266L381 563L219 266H429ZM446 870H556L432 720H354L446 870Z" />
<glyph unicode="&#xc2;" glyph-name="null" horiz-adv-x="615" d="M354 667H448L570 0H472L442 187H177L75 0H-25L354 667ZM429 266L381 563L219 266H429ZM398 870H482L558 720H480L429 812L341 720H258L398 870Z" />
<glyph unicode="&#xc3;" glyph-name="null" horiz-adv-x="615" d="M354 667H448L570 0H472L442 187H177L75 0H-25L354 667ZM429 266L381 563L219 266H429ZM467 733Q445 733 430 740T400 756T372 772T340 779Q313 779 295 769T256 743L223 797Q245 817 276 836T348
855Q370 855 385 848T415 832T443 816T475 809Q504 809 522 819T559 845L592 791Q570 771 539 752T467 733Z" />
<glyph unicode="&#xc4;" glyph-name="null" horiz-adv-x="615" d="M354 667H448L570 0H472L442 187H177L75 0H-25L354 667ZM429 266L381 563L219 266H429ZM477 844H574L555 746H458L477 844ZM290 844H386L367 746H271L290 844Z" />
<glyph unicode="&#xc5;" glyph-name="null" horiz-adv-x="615" d="M291 748Q291 774 300 796T326 833T364 858T412 867Q437 867 459 859T498 834T523 797T533 750Q533 709 511 679T453 637L570 0H472L442 187H177L75 0H-25L344 649Q320 665 306 690T291 748ZM429
266L381 563L219 266H429ZM413 689Q439 689 454 706T470 750Q470 776 455 792T412 808Q386 808 371 792T355 748Q355 722 370 706T413 689Z" />
<glyph unicode="&#xc6;" glyph-name="null" horiz-adv-x="913" d="M456 181H219L77 0H-22L499 667H953L937 582H625L587 387H822L806 303H570L528 86H863L847 0H421L456 181ZM471 259L534 583L280 259H471Z" />
<glyph unicode="&#xc7;" glyph-name="null" horiz-adv-x="643" d="M611 107Q562 49 496 16T348 -17Q283 -17 232 4T143 64T87 156T67 275Q67 355 95 429T173 559T294 650T447 684Q534 684 590 647T679 545L607 499Q576 552 538 575T438 599Q377 599 327 573T240
503T185 402T165 283Q165 238 177 199T213 132T272 87T352 70Q416 70 464 96T549 168L611 107ZM212 -156Q227 -162 247 -166T286 -170Q315 -170 333 -158T351 -126Q351 -109 338 -103T303 -96Q268 -96 231 -109L248 -54Q264 -49 285 -45T337 -41Q377 -41 402 -62T428
-116Q428 -145 416 -165T385 -199T340 -219T288 -225Q246 -225 222 -219T193 -210L212 -156Z" />
<glyph unicode="&#xc8;" glyph-name="null" horiz-adv-x="530" d="M167 667H570L554 582H242L204 387H439L423 303H187L145 86H480L464 0H38L167 667ZM283 870H388L429 720H353L283 870Z" />
<glyph unicode="&#xc9;" glyph-name="null" horiz-adv-x="530" d="M167 667H570L554 582H242L204 387H439L423 303H187L145 86H480L464 0H38L167 667ZM411 870H521L397 720H319L411 870Z" />
<glyph unicode="&#xca;" glyph-name="null" horiz-adv-x="530" d="M167 667H570L554 582H242L204 387H439L423 303H187L145 86H480L464 0H38L167 667ZM365 870H449L525 720H447L396 812L308 720H225L365 870Z" />
<glyph unicode="&#xcb;" glyph-name="null" horiz-adv-x="530" d="M167 667H570L554 582H242L204 387H439L423 303H187L145 86H480L464 0H38L167 667ZM445 844H542L523 746H426L445 844ZM258 844H354L335 746H239L258 844Z" />
<glyph unicode="&#xcc;" glyph-name="null" horiz-adv-x="238" d="M167 667H259L130 0H38L167 667ZM385 870H490L531 720H455L385 870Z" />
<glyph unicode="&#xcd;" glyph-name="null" horiz-adv-x="238" d="M167 667H259L130 0H38L167 667ZM259 870H369L245 720H167L259 870Z" />
<glyph unicode="&#xce;" glyph-name="null" horiz-adv-x="238" d="M167 667H259L130 0H38L167 667ZM465 870H549L625 720H547L496 812L408 720H325L465 870Z" />
<glyph unicode="&#xcf;" glyph-name="null" horiz-adv-x="238" d="M167 667H259L130 0H38L167 667ZM544 844H641L622 746H525L544 844ZM357 844H453L434 746H338L357 844Z" />
<glyph unicode="&#xd0;" glyph-name="null" horiz-adv-x="700" d="M52 379H121L177 667H383Q452 667 507 649T602 595T662 511T683 398Q683 310 654 237T572 112T442 30T269 0H48L106 302H37L52 379ZM283 86Q350 86 405 107T501 167T562 261T584 386Q584 477 530
529T360 581H253L213 379H374L359 302H198L156 86H283Z" />
<glyph unicode="&#xd1;" glyph-name="null" horiz-adv-x="679" d="M167 667H260L507 139L610 667H700L571 0H479L231 529L128 0H38L167 667ZM500 733Q478 733 463 740T433 756T405 772T373 779Q346 779 328 769T289 743L256 797Q278 817 309 836T381 855Q403 855
418 848T448 832T476 816T508 809Q537 809 555 819T592 845L625 791Q603 771 572 752T500 733Z" />
<glyph unicode="&#xd2;" glyph-name="null" horiz-adv-x="743" d="M165 281Q165 236 177 198T214 131T276 86T361 70Q422 70 472 97T559 169T614 269T634 382Q634 427 623 466T588 535T528 582T441 599Q376 599 325 571T238 498T184 396T165 281ZM448 684Q508
684 560 665T650 609T710 520T732 403Q732 321 705 245T629 111T511 18T359 -17Q293 -17 240 4T148 62T88 151T67 264Q67 348 94 424T172 558T292 650T448 684ZM387 870H492L533 720H457L387 870Z" />
<glyph unicode="&#xd3;" glyph-name="null" horiz-adv-x="743" d="M165 281Q165 236 177 198T214 131T276 86T361 70Q422 70 472 97T559 169T614 269T634 382Q634 427 623 466T588 535T528 582T441 599Q376 599 325 571T238 498T184 396T165 281ZM448 684Q508
684 560 665T650 609T710 520T732 403Q732 321 705 245T629 111T511 18T359 -17Q293 -17 240 4T148 62T88 151T67 264Q67 348 94 424T172 558T292 650T448 684ZM492 870H602L478 720H400L492 870Z" />
<glyph unicode="&#xd4;" glyph-name="null" horiz-adv-x="743" d="M165 281Q165 236 177 198T214 131T276 86T361 70Q422 70 472 97T559 169T614 269T634 382Q634 427 623 466T588 535T528 582T441 599Q376 599 325 571T238 498T184 396T165 281ZM448 684Q508
684 560 665T650 609T710 520T732 403Q732 321 705 245T629 111T511 18T359 -17Q293 -17 240 4T148 62T88 151T67 264Q67 348 94 424T172 558T292 650T448 684ZM440 870H524L600 720H522L471 812L383 720H300L440 870Z" />
<glyph unicode="&#xd5;" glyph-name="null" horiz-adv-x="743" d="M165 281Q165 236 177 198T214 131T276 86T361 70Q422 70 472 97T559 169T614 269T634 382Q634 427 623 466T588 535T528 582T441 599Q376 599 325 571T238 498T184 396T165 281ZM448 684Q508
684 560 665T650 609T710 520T732 403Q732 321 705 245T629 111T511 18T359 -17Q293 -17 240 4T148 62T88 151T67 264Q67 348 94 424T172 558T292 650T448 684ZM527 733Q505 733 490 740T460 756T432 772T400 779Q373 779 355 769T316 743L283 797Q305 817 336
836T408 855Q430 855 445 848T475 832T503 816T535 809Q564 809 582 819T619 845L652 791Q630 771 599 752T527 733Z" />
<glyph unicode="&#xd6;" glyph-name="null" horiz-adv-x="743" d="M165 281Q165 236 177 198T214 131T276 86T361 70Q422 70 472 97T559 169T614 269T634 382Q634 427 623 466T588 535T528 582T441 599Q376 599 325 571T238 498T184 396T165 281ZM448 684Q508
684 560 665T650 609T710 520T732 403Q732 321 705 245T629 111T511 18T359 -17Q293 -17 240 4T148 62T88 151T67 264Q67 348 94 424T172 558T292 650T448 684ZM515 844H612L593 746H496L515 844ZM328 844H424L405 746H309L328 844Z" />
<glyph unicode="&#xd7;" glyph-name="null" horiz-adv-x="545" d="M157 444L217 492L308 373L447 495L493 443L351 318L441 198L381 150L290 269L151 147L105 199L247 324L157 444Z" />
<glyph unicode="&#xd8;" glyph-name="null" horiz-adv-x="743" d="M128 83Q99 119 83 164T67 264Q67 348 94 424T172 558T292 650T448 684Q541 684 612 638L689 726L744 680L666 591Q697 555 714 508T732 403Q732 321 705 245T629 111T511 18T359 -17Q306 -17
262 -4T181 34L100 -59L45 -13L128 83ZM634 382Q634 420 626 454T601 516L243 105Q266 88 295 79T361 70Q422 70 472 97T559 169T614 269T634 382ZM165 281Q165 211 194 159L552 568Q507 599 441 599Q376 599 325 571T238 498T184 396T165 281Z" />
<glyph unicode="&#xd9;" glyph-name="null" horiz-adv-x="646" d="M162 667H254L178 277Q174 257 172 240T170 205Q170 143 201 107T309 71Q354 71 386 83T441 119T478 181T502 267L580 667H672L590 244Q578 184 556 136T499 54T415 2T301 -17Q245 -17 203 -2T132
42T90 108T76 191Q76 221 82 254L162 667ZM331 870H436L477 720H401L331 870Z" />
<glyph unicode="&#xda;" glyph-name="null" horiz-adv-x="646" d="M162 667H254L178 277Q174 257 172 240T170 205Q170 143 201 107T309 71Q354 71 386 83T441 119T478 181T502 267L580 667H672L590 244Q578 184 556 136T499 54T415 2T301 -17Q245 -17 203 -2T132
42T90 108T76 191Q76 221 82 254L162 667ZM453 870H563L439 720H361L453 870Z" />
<glyph unicode="&#xdb;" glyph-name="null" horiz-adv-x="646" d="M162 667H254L178 277Q174 257 172 240T170 205Q170 143 201 107T309 71Q354 71 386 83T441 119T478 181T502 267L580 667H672L590 244Q578 184 556 136T499 54T415 2T301 -17Q245 -17 203 -2T132
42T90 108T76 191Q76 221 82 254L162 667ZM410 870H494L570 720H492L441 812L353 720H270L410 870Z" />
<glyph unicode="&#xdc;" glyph-name="null" horiz-adv-x="646" d="M162 667H254L178 277Q174 257 172 240T170 205Q170 143 201 107T309 71Q354 71 386 83T441 119T478 181T502 267L580 667H672L590 244Q578 184 556 136T499 54T415 2T301 -17Q245 -17 203 -2T132
42T90 108T76 191Q76 221 82 254L162 667ZM490 844H587L568 746H471L490 844ZM303 844H399L380 746H284L303 844Z" />
<glyph unicode="&#xdd;" glyph-name="null" horiz-adv-x="554" d="M248 297L99 667H196L307 380L530 667H634L341 298L284 0H191L248 297ZM408 870H518L394 720H316L408 870Z" />
<glyph unicode="&#xde;" glyph-name="null" horiz-adv-x="543" d="M348 545Q401 545 438 530T497 490T530 435T540 376Q540 314 519 270T461 196T376 154T275 140H163L136 0H48L177 667H265L241 545H348ZM290 222Q362 222 402 257T442 363Q442 408 415 435T333
463H225L179 222H290Z" />
<glyph unicode="&#xdf;" glyph-name="null" horiz-adv-x="553" d="M429 127Q429 144 422 156T402 178T375 195T344 209Q308 224 285 245T261 312Q261 335 269 354T289 390T318 422T349 451Q372 472 390 493T408 543Q408 571 387 589T326 607Q269 607 242 572T201
470L110 0H25L117 475Q138 583 191 633T339 683Q370 683 398 674T448 648T481 608T494 559Q494 531 488 511T471 474T447 445T418 419Q391 394 369 374T347 327Q347 316 350 308T362 294T386 280T424 262Q478 239 497 206T517 135Q517 105 505 78T471 30T418 -2T346
-14Q301 -14 262 -5T180 36L227 100Q245 86 261 78T291 66T319 62T344 61Q386 61 407 79T429 127Z" />
<glyph unicode="&#xe0;" glyph-name="null" horiz-adv-x="479" d="M345 221Q331 223 311 225T252 228Q211 228 183 220T139 197T115 165T108 127Q108 90 127 74T189 58Q212 58 236 67T280 91T316 128T336 174L345 221ZM314 56Q279 20 240 4T158 -13Q131 -13 107
-5T63 20T33 59T22 111Q22 154 38 188T85 247T157 283T251 296Q283 296 312 294T358 287L361 303Q364 315 364 327Q364 362 341 384T269 406Q218 406 187 391T132 361L96 419Q109 429 127 439T168 459T221 473T287 479Q358 479 402 441T446 336Q446 315 442 296L402
92Q397 66 393 42T386 0H306L314 56ZM474 677H567L595 541H526L474 677Z" />
<glyph unicode="&#xe1;" glyph-name="null" horiz-adv-x="479" d="M345 221Q331 223 311 225T252 228Q211 228 183 220T139 197T115 165T108 127Q108 90 127 74T189 58Q212 58 236 67T280 91T316 128T336 174L345 221ZM314 56Q279 20 240 4T158 -13Q131 -13 107
-5T63 20T33 59T22 111Q22 154 38 188T85 247T157 283T251 296Q283 296 312 294T358 287L361 303Q364 315 364 327Q364 362 341 384T269 406Q218 406 187 391T132 361L96 419Q109 429 127 439T168 459T221 473T287 479Q358 479 402 441T446 336Q446 315 442 296L402
92Q397 66 393 42T386 0H306L314 56ZM327 677H422L324 541H253L327 677Z" />
<glyph unicode="&#xe2;" glyph-name="null" horiz-adv-x="479" d="M345 221Q331 223 311 225T252 228Q211 228 183 220T139 197T115 165T108 127Q108 90 127 74T189 58Q212 58 236 67T280 91T316 128T336 174L345 221ZM314 56Q279 20 240 4T158 -13Q131 -13 107
-5T63 20T33 59T22 111Q22 154 38 188T85 247T157 283T251 296Q283 296 312 294T358 287L361 303Q364 315 364 327Q364 362 341 384T269 406Q218 406 187 391T132 361L96 419Q109 429 127 439T168 459T221 473T287 479Q358 479 402 441T446 336Q446 315 442 296L402
92Q397 66 393 42T386 0H306L314 56ZM275 676H356L424 539H345L307 622L231 539H152L275 676Z" />
<glyph unicode="&#xe3;" glyph-name="null" horiz-adv-x="479" d="M345 221Q331 223 311 225T252 228Q211 228 183 220T139 197T115 165T108 127Q108 90 127 74T189 58Q212 58 236 67T280 91T316 128T336 174L345 221ZM314 56Q279 20 240 4T158 -13Q131 -13 107
-5T63 20T33 59T22 111Q22 154 38 188T85 247T157 283T251 296Q283 296 312 294T358 287L361 303Q364 315 364 327Q364 362 341 384T269 406Q218 406 187 391T132 361L96 419Q109 429 127 439T168 459T221 473T287 479Q358 479 402 441T446 336Q446 315 442 296L402
92Q397 66 393 42T386 0H306L314 56ZM355 545Q334 545 320 552T292 567T266 582T235 589Q210 589 193 579T156 554L125 605Q145 624 175 641T243 659Q264 659 278 652T306 637T332 622T363 615Q388 615 406 625T442 650L473 599Q453 580 423 563T355 545Z" />
<glyph unicode="&#xe4;" glyph-name="null" horiz-adv-x="479" d="M345 221Q331 223 311 225T252 228Q211 228 183 220T139 197T115 165T108 127Q108 90 127 74T189 58Q212 58 236 67T280 91T316 128T336 174L345 221ZM314 56Q279 20 240 4T158 -13Q131 -13 107
-5T63 20T33 59T22 111Q22 154 38 188T85 247T157 283T251 296Q283 296 312 294T358 287L361 303Q364 315 364 327Q364 362 341 384T269 406Q218 406 187 391T132 361L96 419Q109 429 127 439T168 459T221 473T287 479Q358 479 402 441T446 336Q446 315 442 296L402
92Q397 66 393 42T386 0H306L314 56ZM353 651H442L424 560H335L353 651ZM188 651H279L261 560H170L188 651Z" />
<glyph unicode="&#xe5;" glyph-name="null" horiz-adv-x="479" d="M345 221Q331 223 311 225T252 228Q211 228 183 220T139 197T115 165T108 127Q108 90 127 74T189 58Q212 58 236 67T280 91T316 128T336 174L345 221ZM314 56Q279 20 240 4T158 -13Q131 -13 107
-5T63 20T33 59T22 111Q22 154 38 188T85 247T157 283T251 296Q283 296 312 294T358 287L361 303Q364 315 364 327Q364 362 341 384T269 406Q218 406 187 391T132 361L96 419Q109 429 127 439T168 459T221 473T287 479Q358 479 402 441T446 336Q446 315 442 296L402
92Q397 66 393 42T386 0H306L314 56ZM208 641Q208 664 216 683T239 717T273 740T316 748Q338 748 358 740T392 718T415 685T424 642Q424 619 416 599T393 565T359 543T317 535Q295 535 275 543T240 565T217 598T208 641ZM316 588Q337 588 352 603T367 641Q367 664
352 678T316 693Q295 693 281 679T266 641Q266 618 280 603T316 588Z" />
<glyph unicode="&#xe6;" glyph-name="null" horiz-adv-x="804" d="M357 83Q324 43 278 15T160 -13Q130 -13 103 -5T57 19T26 58T14 112Q14 153 30 185T75 239T147 274T241 286Q273 286 302 284T348 277L353 303Q356 315 356 327Q356 362 333 384T261 406Q210 406
179 391T124 361L88 419Q101 429 119 439T160 459T213 473T279 479Q330 479 365 459T419 403Q453 437 494 458T593 480Q642 480 676 465T733 423T765 361T775 285Q775 246 766 206H421Q420 201 420 197T420 191Q420 136 451 99T542 61Q566 61 584 64T619 74T651
93T684 121L733 69Q696 29 647 8T529 -14Q478 -14 434 7T357 83ZM335 211Q321 213 301 215T242 218Q201 218 174 210T130 190T107 161T100 127Q100 90 120 74T181 58Q204 58 228 67T273 91T308 128T328 174L335 211ZM692 272Q692 277 692 281T693 290Q693 341 667
375T587 410Q530 410 490 374T432 272H692Z" />
<glyph unicode="&#xe7;" glyph-name="null" horiz-adv-x="475" d="M428 64Q396 30 351 8T242 -14Q197 -14 161 1T99 42T61 104T47 181Q47 247 67 301T124 396T209 458T315 480Q433 480 480 374L415 338Q397 370 373 387T303 404Q271 404 241 389T188 347T151 282T137
195Q137 137 169 100T254 62Q296 62 324 77T380 118L428 64ZM108 -156Q123 -162 141 -166T178 -170Q211 -170 228 -158T245 -126Q245 -109 233 -103T195 -96Q178 -96 161 -99T127 -109L144 -54Q160 -49 179 -45T229 -41Q269 -41 293 -62T317 -116Q317 -145 306
-165T277 -199T233 -219T180 -225Q138 -225 116 -219T89 -210L108 -156Z" />
<glyph unicode="&#xe8;" glyph-name="null" horiz-adv-x="517" d="M306 480Q355 480 389 465T446 423T478 361T488 285Q488 246 479 206H134Q133 201 133 197T133 191Q133 136 163 99T256 61Q301 61 333 75T397 121L446 69Q413 34 364 10T250 -14Q200 -14 163
1T100 42T61 105T48 183Q48 244 67 298T120 393T202 456T306 480ZM405 272Q405 277 405 281T406 290Q406 341 380 375T300 410Q243 410 203 374T145 272H405ZM251 677H344L372 541H303L251 677Z" />
<glyph unicode="&#xe9;" glyph-name="null" horiz-adv-x="517" d="M306 480Q355 480 389 465T446 423T478 361T488 285Q488 246 479 206H134Q133 201 133 197T133 191Q133 136 163 99T256 61Q301 61 333 75T397 121L446 69Q413 34 364 10T250 -14Q200 -14 163
1T100 42T61 105T48 183Q48 244 67 298T120 393T202 456T306 480ZM405 272Q405 277 405 281T406 290Q406 341 380 375T300 410Q243 410 203 374T145 272H405ZM349 677H444L346 541H275L349 677Z" />
<glyph unicode="&#xea;" glyph-name="null" horiz-adv-x="517" d="M306 480Q355 480 389 465T446 423T478 361T488 285Q488 246 479 206H134Q133 201 133 197T133 191Q133 136 163 99T256 61Q301 61 333 75T397 121L446 69Q413 34 364 10T250 -14Q200 -14 163
1T100 42T61 105T48 183Q48 244 67 298T120 393T202 456T306 480ZM405 272Q405 277 405 281T406 290Q406 341 380 375T300 410Q243 410 203 374T145 272H405ZM297 676H378L446 539H367L329 622L253 539H174L297 676Z" />
<glyph unicode="&#xeb;" glyph-name="null" horiz-adv-x="517" d="M306 480Q355 480 389 465T446 423T478 361T488 285Q488 246 479 206H134Q133 201 133 197T133 191Q133 136 163 99T256 61Q301 61 333 75T397 121L446 69Q413 34 364 10T250 -14Q200 -14 163
1T100 42T61 105T48 183Q48 244 67 298T120 393T202 456T306 480ZM405 272Q405 277 405 281T406 290Q406 341 380 375T300 410Q243 410 203 374T145 272H405ZM375 651H464L446 560H357L375 651ZM210 651H301L283 560H192L210 651Z" />
<glyph unicode="&#xec;" glyph-name="null" horiz-adv-x="213" d="M118 465H205L115 0H28L118 465ZM97 677H190L218 541H149L97 677Z" />
<glyph unicode="&#xed;" glyph-name="null" horiz-adv-x="213" d="M118 465H205L115 0H28L118 465ZM461 677H556L458 541H387L461 677Z" />
<glyph unicode="&#xee;" glyph-name="null" horiz-adv-x="213" d="M118 465H205L115 0H28L118 465ZM411 676H492L560 539H481L443 622L367 539H288L411 676Z" />
<glyph unicode="&#xef;" glyph-name="null" horiz-adv-x="213" d="M118 465H205L115 0H28L118 465ZM484 651H573L555 560H466L484 651ZM319 651H410L392 560H301L319 651Z" />
<glyph unicode="&#xf0;" glyph-name="null" horiz-adv-x="523" d="M368 624Q407 599 433 567T474 497T496 421T503 342Q503 276 485 212T432 98T346 17T227 -14Q181 -14 145 0T85 41T47 105T34 187Q34 240 52 288T104 372T185 430T290 452Q320 452 349 444T408
422Q388 516 315 565L254 495L211 530L264 591Q228 604 184 609L201 678Q234 674 262 667T316 650L379 721L422 686L368 624ZM412 336Q384 357 351 366T285 376Q248 376 218 362T167 325T134 269T122 201Q122 171 128 146T147 102T182 73T235 62Q264 62 294 77T350
126T393 211T412 336Z" />
<glyph unicode="&#xf1;" glyph-name="null" horiz-adv-x="522" d="M95 364Q101 395 105 417T114 465H196L185 395Q223 437 262 456T355 476Q415 476 452 438T489 336Q489 325 488 310T484 279L430 0H344L396 272Q401 297 401 314Q401 354 383 376T324 398Q292
398 264 384T213 345T176 289T153 220L111 0H25L95 364ZM400 545Q379 545 365 552T337 567T311 582T280 589Q255 589 238 579T201 554L170 605Q190 624 220 641T288 659Q309 659 323 652T351 637T377 622T408 615Q433 615 451 625T487 650L518 599Q498 580 468
563T400 545Z" />
<glyph unicode="&#xf2;" glyph-name="null" horiz-adv-x="549" d="M318 480Q364 480 401 466T464 426T505 362T520 278Q520 217 500 164T443 71T357 9T247 -14Q202 -14 166 0T103 41T62 105T47 187Q47 246 68 299T126 393T212 456T318 480ZM308 404Q276 404 245
389T190 346T150 282T135 201Q135 140 164 101T255 62Q288 62 319 77T376 118T416 182T432 265Q432 330 402 367T308 404ZM262 677H355L383 541H314L262 677Z" />
<glyph unicode="&#xf3;" glyph-name="null" horiz-adv-x="549" d="M318 480Q364 480 401 466T464 426T505 362T520 278Q520 217 500 164T443 71T357 9T247 -14Q202 -14 166 0T103 41T62 105T47 187Q47 246 68 299T126 393T212 456T318 480ZM308 404Q276 404 245
389T190 346T150 282T135 201Q135 140 164 101T255 62Q288 62 319 77T376 118T416 182T432 265Q432 330 402 367T308 404ZM370 677H465L367 541H296L370 677Z" />
<glyph unicode="&#xf4;" glyph-name="null" horiz-adv-x="549" d="M318 480Q364 480 401 466T464 426T505 362T520 278Q520 217 500 164T443 71T357 9T247 -14Q202 -14 166 0T103 41T62 105T47 187Q47 246 68 299T126 393T212 456T318 480ZM308 404Q276 404 245
389T190 346T150 282T135 201Q135 140 164 101T255 62Q288 62 319 77T376 118T416 182T432 265Q432 330 402 367T308 404ZM314 676H395L463 539H384L346 622L270 539H191L314 676Z" />
<glyph unicode="&#xf5;" glyph-name="null" horiz-adv-x="549" d="M318 480Q364 480 401 466T464 426T505 362T520 278Q520 217 500 164T443 71T357 9T247 -14Q202 -14 166 0T103 41T62 105T47 187Q47 246 68 299T126 393T212 456T318 480ZM308 404Q276 404 245
389T190 346T150 282T135 201Q135 140 164 101T255 62Q288 62 319 77T376 118T416 182T432 265Q432 330 402 367T308 404ZM399 545Q378 545 364 552T336 567T310 582T279 589Q254 589 237 579T200 554L169 605Q189 624 219 641T287 659Q308 659 322 652T350 637T376
622T407 615Q432 615 450 625T486 650L517 599Q497 580 467 563T399 545Z" />
<glyph unicode="&#xf6;" glyph-name="null" horiz-adv-x="549" d="M318 480Q364 480 401 466T464 426T505 362T520 278Q520 217 500 164T443 71T357 9T247 -14Q202 -14 166 0T103 41T62 105T47 187Q47 246 68 299T126 393T212 456T318 480ZM308 404Q276 404 245
389T190 346T150 282T135 201Q135 140 164 101T255 62Q288 62 319 77T376 118T416 182T432 265Q432 330 402 367T308 404ZM390 651H479L461 560H372L390 651ZM225 651H316L298 560H207L225 651Z" />
<glyph unicode="&#xf7;" glyph-name="null" horiz-adv-x="545" d="M230 209H315L299 124H214L230 209ZM290 518H375L359 434H274L290 518ZM106 359H497L482 283H91L106 359Z" />
<glyph unicode="&#xf8;" glyph-name="null" horiz-adv-x="549" d="M318 480Q385 480 433 450L494 521L540 484L477 411Q497 385 508 352T520 278Q520 217 500 164T443 71T357 9T247 -14Q215 -14 186 -6T134 16L75 -53L29 -16L90 55Q47 107 47 187Q47 246 68 299T126
393T212 456T318 480ZM308 404Q276 404 245 389T190 346T150 282T135 201Q135 155 150 124L378 387Q349 404 308 404ZM432 265Q432 310 417 342L189 79Q215 62 255 62Q288 62 319 77T376 118T416 182T432 265Z" />
<glyph unicode="&#xf9;" glyph-name="null" horiz-adv-x="517" d="M439 101Q433 70 429 48T420 0H338L349 70Q311 28 272 9T180 -11Q120 -11 84 27T47 129Q47 140 48 155T52 186L106 465H192L140 193Q135 168 135 151Q135 111 152 89T211 67Q243 67 271 81T321
120T359 176T381 245L423 465H509L439 101ZM234 677H327L355 541H286L234 677Z" />
<glyph unicode="&#xfa;" glyph-name="null" horiz-adv-x="517" d="M439 101Q433 70 429 48T420 0H338L349 70Q311 28 272 9T180 -11Q120 -11 84 27T47 129Q47 140 48 155T52 186L106 465H192L140 193Q135 168 135 151Q135 111 152 89T211 67Q243 67 271 81T321
120T359 176T381 245L423 465H509L439 101ZM343 677H438L340 541H269L343 677Z" />
<glyph unicode="&#xfb;" glyph-name="null" horiz-adv-x="517" d="M439 101Q433 70 429 48T420 0H338L349 70Q311 28 272 9T180 -11Q120 -11 84 27T47 129Q47 140 48 155T52 186L106 465H192L140 193Q135 168 135 151Q135 111 152 89T211 67Q243 67 271 81T321
120T359 176T381 245L423 465H509L439 101ZM302 676H383L451 539H372L334 622L258 539H179L302 676Z" />
<glyph unicode="&#xfc;" glyph-name="null" horiz-adv-x="517" d="M439 101Q433 70 429 48T420 0H338L349 70Q311 28 272 9T180 -11Q120 -11 84 27T47 129Q47 140 48 155T52 186L106 465H192L140 193Q135 168 135 151Q135 111 152 89T211 67Q243 67 271 81T321
120T359 176T381 245L423 465H509L439 101ZM375 651H464L446 560H357L375 651ZM210 651H301L283 560H192L210 651Z" />
<glyph unicode="&#xfd;" glyph-name="null" horiz-adv-x="482" d="M-15 -119Q-4 -127 8 -133T41 -139Q56 -139 68 -133T92 -113T117 -77T149 -23L166 7L57 465H153L228 114L423 465H520L218 -52Q196 -89 177 -118T137 -169T95 -201T45 -213Q18 -213 -5 -207T-48
-181L-15 -119ZM319 677H414L316 541H245L319 677Z" />
<glyph unicode="&#xfe;" glyph-name="null" horiz-adv-x="541" d="M237 62Q293 62 332 89T395 162Q406 185 414 216T423 281Q423 336 402 367T329 399Q297 399 268 386T216 349T176 292T152 219L130 101Q151 82 177 72T237 62ZM238 -14Q199 -14 172 -5T114 23L71
-200H-14L154 668H238L185 395Q194 404 207 418T241 444T288 466T353 476Q390 476 419 462T470 423T502 367T513 301Q513 219 488 160T423 62T334 5T238 -14Z" />
<glyph unicode="&#xff;" glyph-name="null" horiz-adv-x="482" d="M-15 -119Q-4 -127 8 -133T41 -139Q56 -139 68 -133T92 -113T117 -77T149 -23L166 7L57 465H153L228 114L423 465H520L218 -52Q196 -89 177 -118T137 -169T95 -201T45 -213Q18 -213 -5 -207T-48
-181L-15 -119ZM351 651H440L422 560H333L351 651ZM186 651H277L259 560H168L186 651Z" />
<glyph unicode="&#x100;" glyph-name="null" horiz-adv-x="615" d="M354 667H448L570 0H472L442 187H177L75 0H-25L354 667ZM429 266L381 563L219 266H429ZM272 832H575L561 757H258L272 832Z" />
<glyph unicode="&#x101;" glyph-name="null" horiz-adv-x="479" d="M345 221Q331 223 311 225T252 228Q211 228 183 220T139 197T115 165T108 127Q108 90 127 74T189 58Q212 58 236 67T280 91T316 128T336 174L345 221ZM314 56Q279 20 240 4T158 -13Q131 -13 107
-5T63 20T33 59T22 111Q22 154 38 188T85 247T157 283T251 296Q283 296 312 294T358 287L361 303Q364 315 364 327Q364 362 341 384T269 406Q218 406 187 391T132 361L96 419Q109 429 127 439T168 459T221 473T287 479Q358 479 402 441T446 336Q446 315 442 296L402
92Q397 66 393 42T386 0H306L314 56ZM189 637H429L415 565H175L189 637Z" />
<glyph unicode="&#x102;" glyph-name="null" horiz-adv-x="615" d="M354 667H448L570 0H472L442 187H177L75 0H-25L354 667ZM429 266L381 563L219 266H429ZM361 854Q360 850 360 847T360 840Q360 816 373 802T416 787Q452 787 472 807T500 854H574Q569 829 556
806T523 764T474 734T411 722Q349 722 319 752T288 829Q288 835 288 841T290 854H361Z" />
<glyph unicode="&#x103;" glyph-name="null" horiz-adv-x="479" d="M345 221Q331 223 311 225T252 228Q211 228 183 220T139 197T115 165T108 127Q108 90 127 74T189 58Q212 58 236 67T280 91T316 128T336 174L345 221ZM314 56Q279 20 240 4T158 -13Q131 -13 107
-5T63 20T33 59T22 111Q22 154 38 188T85 247T157 283T251 296Q283 296 312 294T358 287L361 303Q364 315 364 327Q364 362 341 384T269 406Q218 406 187 391T132 361L96 419Q109 429 127 439T168 459T221 473T287 479Q358 479 402 441T446 336Q446 315 442 296L402
92Q397 66 393 42T386 0H306L314 56ZM250 669Q249 665 249 662T249 655Q249 602 302 602Q336 602 355 622T381 669H450Q445 645 433 622T402 581T356 552T297 541Q240 541 211 570T182 644Q182 650 182 656T184 669H250Z" />
<glyph unicode="&#x104;" glyph-name="null" horiz-adv-x="615" d="M472 0L442 187H177L75 0H-25L354 667H448L570 0Q540 -26 517 -53T493 -101Q493 -112 498 -119T517 -126Q535 -126 549 -121T575 -108L596 -166Q570 -183 542 -192T485 -201Q448 -201 426 -184T404
-134Q404 -99 429 -67T495 0H472ZM429 266L381 563L219 266H429Z" />
<glyph unicode="&#x105;" glyph-name="null" horiz-adv-x="479" d="M314 56Q279 20 240 4T158 -13Q131 -13 107 -5T63 20T33 59T22 111Q22 154 38 188T85 247T157 283T251 296Q283 296 312 294T358 287L361 303Q364 315 364 327Q364 362 341 384T269 406Q218 406
187 391T132 361L96 419Q109 429 127 439T168 459T221 473T287 479Q358 479 402 441T446 336Q446 315 442 296L402 92Q397 66 393 42T386 0Q356 -26 333 -53T309 -101Q309 -112 314 -118T333 -125Q351 -125 366 -119T392 -106L413 -163Q361 -195 306 -195Q270 -195
249 -179T227 -130Q227 -96 251 -66T316 0H306L314 56ZM345 221Q331 223 311 225T252 228Q211 228 183 220T139 197T115 165T108 127Q108 90 127 74T189 58Q212 58 236 67T280 91T316 128T336 174L345 221Z" />
<glyph unicode="&#x106;" glyph-name="null" horiz-adv-x="643" d="M611 107Q562 49 496 16T348 -17Q283 -17 232 4T143 64T87 156T67 275Q67 355 95 429T173 559T294 650T447 684Q534 684 590 647T679 545L607 499Q576 552 538 575T438 599Q377 599 327 573T240
503T185 402T165 283Q165 238 177 199T213 132T272 87T352 70Q416 70 464 96T549 168L611 107ZM492 870H602L478 720H400L492 870Z" />
<glyph unicode="&#x107;" glyph-name="null" horiz-adv-x="475" d="M428 64Q396 30 351 8T242 -14Q197 -14 161 1T99 42T61 104T47 181Q47 247 67 301T124 396T209 458T315 480Q433 480 480 374L415 338Q397 370 373 387T303 404Q271 404 241 389T188 347T151
282T137 195Q137 137 169 100T254 62Q296 62 324 77T380 118L428 64ZM354 677H449L351 541H280L354 677Z" />
<glyph unicode="&#x108;" glyph-name="null" horiz-adv-x="643" d="M611 107Q562 49 496 16T348 -17Q283 -17 232 4T143 64T87 156T67 275Q67 355 95 429T173 559T294 650T447 684Q534 684 590 647T679 545L607 499Q576 552 538 575T438 599Q377 599 327 573T240
503T185 402T165 283Q165 238 177 199T213 132T272 87T352 70Q416 70 464 96T549 168L611 107ZM440 870H524L600 720H522L471 812L383 720H300L440 870Z" />
<glyph unicode="&#x109;" glyph-name="null" horiz-adv-x="475" d="M428 64Q396 30 351 8T242 -14Q197 -14 161 1T99 42T61 104T47 181Q47 247 67 301T124 396T209 458T315 480Q433 480 480 374L415 338Q397 370 373 387T303 404Q271 404 241 389T188 347T151
282T137 195Q137 137 169 100T254 62Q296 62 324 77T380 118L428 64ZM311 676H392L460 539H381L343 622L267 539H188L311 676Z" />
<glyph unicode="&#x10a;" glyph-name="null" horiz-adv-x="643" d="M611 107Q562 49 496 16T348 -17Q283 -17 232 4T143 64T87 156T67 275Q67 355 95 429T173 559T294 650T447 684Q534 684 590 647T679 545L607 499Q576 552 538 575T438 599Q377 599 327 573T240
503T185 402T165 283Q165 238 177 199T213 132T272 87T352 70Q416 70 464 96T549 168L611 107ZM418 847H521L501 744H398L418 847Z" />
<glyph unicode="&#x10b;" glyph-name="null" horiz-adv-x="475" d="M428 64Q396 30 351 8T242 -14Q197 -14 161 1T99 42T61 104T47 181Q47 247 67 301T124 396T209 458T315 480Q433 480 480 374L415 338Q397 370 373 387T303 404Q271 404 241 389T188 347T151
282T137 195Q137 137 169 100T254 62Q296 62 324 77T380 118L428 64ZM296 654H392L373 557H277L296 654Z" />
<glyph unicode="&#x10c;" glyph-name="null" horiz-adv-x="643" d="M611 107Q562 49 496 16T348 -17Q283 -17 232 4T143 64T87 156T67 275Q67 355 95 429T173 559T294 650T447 684Q534 684 590 647T679 545L607 499Q576 552 538 575T438 599Q377 599 327 573T240
503T185 402T165 283Q165 238 177 199T213 132T272 87T352 70Q416 70 464 96T549 168L611 107ZM493 720H409L333 870H409L460 778L548 870H633L493 720Z" />
<glyph unicode="&#x10d;" glyph-name="null" horiz-adv-x="475" d="M428 64Q396 30 351 8T242 -14Q197 -14 161 1T99 42T61 104T47 181Q47 247 67 301T124 396T209 458T315 480Q433 480 480 374L415 338Q397 370 373 387T303 404Q271 404 241 389T188 347T151
282T137 195Q137 137 169 100T254 62Q296 62 324 77T380 118L428 64ZM367 539H286L218 676H297L335 593L411 676H490L367 539Z" />
<glyph unicode="&#x10e;" glyph-name="null" horiz-adv-x="690" d="M167 667H373Q442 667 497 649T592 595T652 511T673 398Q673 310 644 237T562 112T432 30T259 0H38L167 667ZM273 86Q340 86 395 107T491 167T552 261T574 386Q574 477 520 529T350 581H243L146
86H273ZM427 720H343L267 870H343L394 778L482 870H567L427 720Z" />
<glyph unicode="&#x10f;" glyph-name="null" horiz-adv-x="620" d="M422 369Q397 387 372 393T313 400Q280 400 249 385T192 340T151 270T135 177Q135 125 158 94T235 62Q269 62 296 76T342 111T374 156T390 200L422 369ZM362 57Q355 49 342 37T310 14T266 -6T211
-14Q178 -14 148 -2T95 32T59 88T45 163Q45 247 72 306T140 403T228 458T315 476Q360 476 385 469T437 445L480 667H567L457 101Q451 70 447 48T438 0H354L362 57ZM638 667H720L663 494H605L638 667Z" />
<glyph unicode="&#x110;" glyph-name="null" horiz-adv-x="700" d="M52 379H121L177 667H383Q452 667 507 649T602 595T662 511T683 398Q683 310 654 237T572 112T442 30T269 0H48L106 302H37L52 379ZM283 86Q350 86 405 107T501 167T562 261T584 386Q584 477
530 529T360 581H253L213 379H374L359 302H198L156 86H283Z" />
<glyph unicode="&#x111;" glyph-name="null" horiz-adv-x="537" d="M287 592H466L480 667H567L552 592H616L604 530H540L457 101Q451 70 447 48T438 0H354L362 57Q355 49 342 37T310 14T266 -6T211 -14Q178 -14 148 -2T95 32T59 88T45 163Q45 247 72 304T139 396T227
447T313 463Q358 463 383 456T435 432L454 530H275L287 592ZM420 356Q395 374 370 380T311 387Q278 387 247 374T191 334T151 268T135 177Q135 125 158 94T235 62Q269 62 296 76T342 111T374 156T390 200L420 356Z" />
<glyph unicode="&#x112;" glyph-name="null" horiz-adv-x="530" d="M167 667H570L554 582H242L204 387H439L423 303H187L145 86H480L464 0H38L167 667ZM240 832H543L529 757H226L240 832Z" />
<glyph unicode="&#x113;" glyph-name="null" horiz-adv-x="517" d="M306 480Q355 480 389 465T446 423T478 361T488 285Q488 246 479 206H134Q133 201 133 197T133 191Q133 136 163 99T256 61Q301 61 333 75T397 121L446 69Q413 34 364 10T250 -14Q200 -14 163
1T100 42T61 105T48 183Q48 244 67 298T120 393T202 456T306 480ZM405 272Q405 277 405 281T406 290Q406 341 380 375T300 410Q243 410 203 374T145 272H405ZM210 637H450L436 565H196L210 637Z" />
<glyph unicode="&#x114;" glyph-name="null" horiz-adv-x="530" d="M167 667H570L554 582H242L204 387H439L423 303H187L145 86H480L464 0H38L167 667ZM330 854Q329 850 329 847T329 840Q329 816 342 802T385 787Q421 787 441 807T469 854H543Q538 829 525 806T492
764T443 734T380 722Q318 722 288 752T257 829Q257 835 257 841T259 854H330Z" />
<glyph unicode="&#x115;" glyph-name="null" horiz-adv-x="517" d="M306 480Q355 480 389 465T446 423T478 361T488 285Q488 246 479 206H134Q133 201 133 197T133 191Q133 136 163 99T256 61Q301 61 333 75T397 121L446 69Q413 34 364 10T250 -14Q200 -14 163
1T100 42T61 105T48 183Q48 244 67 298T120 393T202 456T306 480ZM405 272Q405 277 405 281T406 290Q406 341 380 375T300 410Q243 410 203 374T145 272H405ZM273 669Q272 665 272 662T272 655Q272 602 325 602Q359 602 378 622T404 669H473Q468 645 456 622T425
581T379 552T320 541Q263 541 234 570T205 644Q205 650 205 656T207 669H273Z" />
<glyph unicode="&#x116;" glyph-name="null" horiz-adv-x="530" d="M167 667H570L554 582H242L204 387H439L423 303H187L145 86H480L464 0H38L167 667ZM352 847H455L435 744H332L352 847Z" />
<glyph unicode="&#x117;" glyph-name="null" horiz-adv-x="517" d="M306 480Q355 480 389 465T446 423T478 361T488 285Q488 246 479 206H134Q133 201 133 197T133 191Q133 136 163 99T256 61Q301 61 333 75T397 121L446 69Q413 34 364 10T250 -14Q200 -14 163
1T100 42T61 105T48 183Q48 244 67 298T120 393T202 456T306 480ZM405 272Q405 277 405 281T406 290Q406 341 380 375T300 410Q243 410 203 374T145 272H405ZM280 654H376L357 557H261L280 654Z" />
<glyph unicode="&#x118;" glyph-name="null" horiz-adv-x="530" d="M167 667H570L554 582H242L204 387H439L423 303H187L145 86H480L464 0H415Q385 -26 362 -53T338 -101Q338 -112 343 -119T362 -126Q380 -126 394 -121T420 -108L441 -166Q415 -183 387 -192T330
-201Q293 -201 271 -184T249 -134Q249 -99 274 -67T340 0H38L167 667Z" />
<glyph unicode="&#x119;" glyph-name="null" horiz-adv-x="517" d="M306 480Q355 480 389 465T446 423T478 361T488 285Q488 246 479 206H134Q133 201 133 197T133 191Q133 136 163 99T256 61Q301 61 333 75T397 121L446 69Q429 52 410 38T364 9Q351 2 334 -10T300
-37T273 -68T262 -101Q262 -112 267 -118T286 -125Q304 -125 319 -119T345 -106L366 -163Q314 -195 259 -195Q223 -195 202 -179T180 -130Q180 -99 201 -72T253 -14Q202 -14 164 1T100 42T61 105T48 183Q48 244 67 298T120 393T202 456T306 480ZM405 272Q405 277
405 281T406 290Q406 341 380 375T300 410Q243 410 203 374T145 272H405Z" />
<glyph unicode="&#x11a;" glyph-name="null" horiz-adv-x="530" d="M167 667H570L554 582H242L204 387H439L423 303H187L145 86H480L464 0H38L167 667ZM415 720H331L255 870H331L382 778L470 870H555L415 720Z" />
<glyph unicode="&#x11b;" glyph-name="null" horiz-adv-x="517" d="M306 480Q355 480 389 465T446 423T478 361T488 285Q488 246 479 206H134Q133 201 133 197T133 191Q133 136 163 99T256 61Q301 61 333 75T397 121L446 69Q413 34 364 10T250 -14Q200 -14 163
1T100 42T61 105T48 183Q48 244 67 298T120 393T202 456T306 480ZM405 272Q405 277 405 281T406 290Q406 341 380 375T300 410Q243 410 203 374T145 272H405ZM376 539H295L227 676H306L344 593L420 676H499L376 539Z" />
<glyph unicode="&#x11c;" glyph-name="null" horiz-adv-x="672" d="M357 70Q411 70 450 83T525 124L550 258H413L429 339H654L604 77Q555 30 489 7T353 -17Q288 -17 236 4T146 64T88 156T67 275Q67 355 95 429T175 559T296 650T450 684Q537 684 594 647T684 545L612
499Q581 552 542 575T441 599Q380 599 329 573T242 503T185 402T165 283Q165 237 177 198T214 131T275 86T357 70ZM438 870H522L598 720H520L469 812L381 720H298L438 870Z" />
<glyph unicode="&#x11d;" glyph-name="null" horiz-adv-x="530" d="M432 -4Q412 -106 352 -159T188 -212Q146 -212 103 -203T18 -165L58 -94Q92 -116 125 -125T196 -134Q230 -134 255 -124T298 -96T328 -52T346 5L357 59Q352 53 340 43T309 22T267 4T213 -4Q137
-4 90 40T43 164Q43 231 64 288T123 387T216 452T337 476Q392 476 441 464T517 440L432 -4ZM421 388Q383 401 325 401Q283 401 248 385T187 339T147 269T133 180Q133 132 154 102T232 72Q264 72 290 83T335 111T366 151T383 196L421 388ZM336 676H417L485 539H406L368
622L292 539H213L336 676Z" />
<glyph unicode="&#x11e;" glyph-name="null" horiz-adv-x="672" d="M357 70Q411 70 450 83T525 124L550 258H413L429 339H654L604 77Q555 30 489 7T353 -17Q288 -17 236 4T146 64T88 156T67 275Q67 355 95 429T175 559T296 650T450 684Q537 684 594 647T684 545L612
499Q581 552 542 575T441 599Q380 599 329 573T242 503T185 402T165 283Q165 237 177 198T214 131T275 86T357 70ZM406 854Q405 850 405 847T405 840Q405 816 418 802T461 787Q497 787 517 807T545 854H619Q614 829 601 806T568 764T519 734T456 722Q394 722 364
752T333 829Q333 835 333 841T335 854H406Z" />
<glyph unicode="&#x11f;" glyph-name="null" horiz-adv-x="530" d="M432 -4Q412 -106 352 -159T188 -212Q146 -212 103 -203T18 -165L58 -94Q92 -116 125 -125T196 -134Q230 -134 255 -124T298 -96T328 -52T346 5L357 59Q352 53 340 43T309 22T267 4T213 -4Q137
-4 90 40T43 164Q43 231 64 288T123 387T216 452T337 476Q392 476 441 464T517 440L432 -4ZM421 388Q383 401 325 401Q283 401 248 385T187 339T147 269T133 180Q133 132 154 102T232 72Q264 72 290 83T335 111T366 151T383 196L421 388ZM309 669Q308 665 308 662T308
655Q308 602 361 602Q395 602 414 622T440 669H509Q504 645 492 622T461 581T415 552T356 541Q299 541 270 570T241 644Q241 650 241 656T243 669H309Z" />
<glyph unicode="&#x120;" glyph-name="null" horiz-adv-x="672" d="M357 70Q411 70 450 83T525 124L550 258H413L429 339H654L604 77Q555 30 489 7T353 -17Q288 -17 236 4T146 64T88 156T67 275Q67 355 95 429T175 559T296 650T450 684Q537 684 594 647T684 545L612
499Q581 552 542 575T441 599Q380 599 329 573T242 503T185 402T165 283Q165 237 177 198T214 131T275 86T357 70ZM421 847H524L504 744H401L421 847Z" />
<glyph unicode="&#x121;" glyph-name="null" horiz-adv-x="530" d="M432 -4Q412 -106 352 -159T188 -212Q146 -212 103 -203T18 -165L58 -94Q92 -116 125 -125T196 -134Q230 -134 255 -124T298 -96T328 -52T346 5L357 59Q352 53 340 43T309 22T267 4T213 -4Q137
-4 90 40T43 164Q43 231 64 288T123 387T216 452T337 476Q392 476 441 464T517 440L432 -4ZM421 388Q383 401 325 401Q283 401 248 385T187 339T147 269T133 180Q133 132 154 102T232 72Q264 72 290 83T335 111T366 151T383 196L421 388ZM319 654H415L396 557H300L319
654Z" />
<glyph unicode="&#x122;" glyph-name="null" horiz-adv-x="672" d="M357 70Q411 70 450 83T525 124L550 258H413L429 339H654L604 77Q555 30 489 7T353 -17Q288 -17 236 4T146 64T88 156T67 275Q67 355 95 429T175 559T296 650T450 684Q537 684 594 647T684 545L612
499Q581 552 542 575T441 599Q380 599 329 573T242 503T185 402T165 283Q165 237 177 198T214 131T275 86T357 70ZM300 -56H403L294 -206H217L300 -56Z" />
<glyph unicode="&#x123;" glyph-name="null" horiz-adv-x="530" d="M432 -4Q412 -106 352 -159T188 -212Q146 -212 103 -203T18 -165L58 -94Q92 -116 125 -125T196 -134Q230 -134 255 -124T298 -96T328 -52T346 5L357 59Q352 53 340 43T309 22T267 4T213 -4Q137
-4 90 40T43 164Q43 231 64 288T123 387T216 452T337 476Q392 476 441 464T517 440L432 -4ZM421 388Q383 401 325 401Q283 401 248 385T187 339T147 269T133 180Q133 132 154 102T232 72Q264 72 290 83T335 111T366 151T383 196L421 388ZM389 541H294L392 677H463L389
541Z" />
<glyph unicode="&#x124;" glyph-name="null" horiz-adv-x="681" d="M167 667H259L205 387H556L610 667H702L573 0H481L539 303H188L130 0H38L167 667ZM425 870H509L585 720H507L456 812L368 720H285L425 870Z" />
<glyph unicode="&#x125;" glyph-name="null" horiz-adv-x="521" d="M110 0H24L153 667H237L184 395Q222 437 261 456T354 476Q414 476 451 438T488 336Q488 325 487 310T483 279L429 0H343L395 272Q400 297 400 314Q400 354 382 376T323 398Q291 398 263 384T212
346T175 289T152 221L110 0ZM301 870H385L461 720H383L332 812L244 720H161L301 870Z" />
<glyph unicode="&#x126;" glyph-name="null" horiz-adv-x="681" d="M82 561H146L167 667H259L238 561H589L610 667H702L681 561H757L743 493H668L573 0H481L539 303H188L130 0H38L133 493H68L82 561ZM556 387L576 493H225L205 387H556Z" />
<glyph unicode="&#x127;" glyph-name="null" horiz-adv-x="521" d="M74 592H138L153 667H237L222 592H403L391 530H210L182 383Q220 425 259 444T352 464Q412 464 449 426T486 324Q486 313 485 298T481 267L429 0H343L393 260Q398 285 398 302Q398 342 380 364T321
386Q289 386 261 372T210 334T173 277T150 209L110 0H24L126 530H62L74 592Z" />
<glyph unicode="&#x128;" glyph-name="null" horiz-adv-x="238" d="M167 667H259L130 0H38L167 667ZM547 733Q525 733 510 740T480 756T452 772T420 779Q393 779 375 769T336 743L303 797Q325 817 356 836T428 855Q450 855 465 848T495 832T523 816T555 809Q584
809 602 819T639 845L672 791Q650 771 619 752T547 733Z" />
<glyph unicode="&#x129;" glyph-name="null" horiz-adv-x="213" d="M118 465H205L115 0H28L118 465ZM481 545Q460 545 446 552T418 567T392 582T361 589Q336 589 319 579T282 554L251 605Q271 624 301 641T369 659Q390 659 404 652T432 637T458 622T489 615Q514
615 532 625T568 650L599 599Q579 580 549 563T481 545Z" />
<glyph unicode="&#x12a;" glyph-name="null" horiz-adv-x="238" d="M167 667H259L130 0H38L167 667ZM340 832H643L629 757H326L340 832Z" />
<glyph unicode="&#x12b;" glyph-name="null" horiz-adv-x="213" d="M118 465H205L115 0H28L118 465ZM322 637H562L548 565H308L322 637Z" />
<glyph unicode="&#x12c;" glyph-name="null" horiz-adv-x="238" d="M167 667H259L130 0H38L167 667ZM425 854Q424 850 424 847T424 840Q424 816 437 802T480 787Q516 787 536 807T564 854H638Q633 829 620 806T587 764T538 734T475 722Q413 722 383 752T352 829Q352
835 352 841T354 854H425Z" />
<glyph unicode="&#x12d;" glyph-name="null" horiz-adv-x="213" d="M118 465H205L115 0H28L118 465ZM384 669Q383 665 383 662T383 655Q383 602 436 602Q470 602 489 622T515 669H584Q579 645 567 622T536 581T490 552T431 541Q374 541 345 570T316 644Q316 650
316 656T318 669H384Z" />
<glyph unicode="&#x12e;" glyph-name="null" horiz-adv-x="238" d="M167 667H259L130 0Q100 -26 77 -53T53 -101Q53 -112 58 -119T77 -126Q95 -126 109 -121T135 -108L156 -166Q130 -183 102 -192T45 -201Q8 -201 -14 -184T-36 -134Q-36 -99 -11 -67T55 0H38L167 667Z" />
<glyph unicode="&#x12f;" glyph-name="null" horiz-adv-x="213" d="M118 465H205L115 0Q85 -26 62 -53T38 -101Q38 -112 43 -118T62 -125Q80 -125 95 -119T121 -106L142 -163Q90 -195 35 -195Q-1 -195 -22 -179T-44 -130Q-44 -96 -20 -66T45 0H28L118 465ZM146
649H243L223 548H126L146 649Z" />
<glyph unicode="&#x130;" glyph-name="null" horiz-adv-x="238" d="M167 667H259L130 0H38L167 667ZM192 847H295L275 744H172L192 847Z" />
<glyph unicode="&#x131;" glyph-name="null" horiz-adv-x="213" d="M118 465H205L115 0H28L118 465Z" />
<glyph unicode="&#x132;" glyph-name="null" horiz-adv-x="712" d="M167 667H259L130 0H38L167 667ZM292 130Q324 95 353 82T418 68Q443 68 464 73T503 93T533 133T554 198L645 667H737L643 180Q632 125 611 88T561 27T497 -7T422 -17Q362 -17 314 4T234 69L292 130Z" />
<glyph unicode="&#x133;" glyph-name="null" horiz-adv-x="426" d="M146 649H243L223 548H126L146 649ZM118 465H205L115 0H28L118 465ZM100 -101Q117 -112 129 -117T159 -123Q172 -123 184 -119T206 -100T225 -59T242 9L331 465H418L323 -21Q315 -59 305 -91T276
-148T232 -186T166 -200Q137 -200 111 -192T65 -166L100 -101ZM359 649H456L436 548H339L359 649Z" />
<glyph unicode="&#x134;" glyph-name="null" horiz-adv-x="474" d="M54 130Q86 95 115 82T180 68Q205 68 226 73T265 93T295 133T316 198L407 667H499L405 180Q394 125 373 88T323 27T259 -7T184 -17Q124 -17 76 4T-4 69L54 130ZM442 870H526L602 720H524L473
812L385 720H302L442 870Z" />
<glyph unicode="&#x135;" glyph-name="null" horiz-adv-x="213" d="M-113 -101Q-96 -112 -84 -117T-54 -123Q-41 -123 -29 -119T-7 -100T12 -59T29 9L118 465H205L110 -21Q102 -59 92 -91T63 -148T19 -186T-47 -200Q-76 -200 -102 -192T-148 -166L-113 -101ZM427
676H508L576 539H497L459 622L383 539H304L427 676Z" />
<glyph unicode="&#x136;" glyph-name="null" horiz-adv-x="579" d="M167 667H258L199 364L526 667H636L344 391L529 0H426L272 330L176 246L129 0H38L167 667ZM214 -56H317L208 -206H131L214 -56Z" />
<glyph unicode="&#x137;" glyph-name="null" horiz-adv-x="470" d="M154 667H240L164 274L388 465H493L286 286L421 0H328L219 233L144 170L111 0H25L154 667ZM159 -56H254L153 -197H82L159 -56Z" />
<glyph unicode="&#x138;" glyph-name="null" horiz-adv-x="476" d="M115 465H200L162 269L395 465H499L283 283L431 0H335L216 226L141 162L110 0H25L115 465Z" />
<glyph unicode="&#x139;" glyph-name="null" horiz-adv-x="526" d="M167 667H259L146 83H479L463 0H38L167 667ZM274 870H384L260 720H182L274 870Z" />
<glyph unicode="&#x13a;" glyph-name="null" horiz-adv-x="205" d="M154 667H240L111 0H25L154 667ZM252 870H362L238 720H160L252 870Z" />
<glyph unicode="&#x13b;" glyph-name="null" horiz-adv-x="526" d="M167 667H259L146 83H479L463 0H38L167 667ZM209 -56H312L203 -206H126L209 -56Z" />
<glyph unicode="&#x13c;" glyph-name="null" horiz-adv-x="205" d="M154 667H240L111 0H25L154 667ZM269 -56H364L263 -197H192L269 -56Z" />
<glyph unicode="&#x13d;" glyph-name="null" horiz-adv-x="526" d="M374 667H459L400 487H340L374 667ZM167 667H259L146 83H479L463 0H38L167 667Z" />
<glyph unicode="&#x13e;" glyph-name="null" horiz-adv-x="275" d="M154 667H240L111 0H25L154 667ZM301 667H383L326 494H268L301 667Z" />
<glyph unicode="&#x13f;" glyph-name="null" horiz-adv-x="526" d="M167 667H259L146 83H479L463 0H38L167 667ZM368 413H471L451 310H348L368 413Z" />
<glyph unicode="&#x140;" glyph-name="null" horiz-adv-x="333" d="M154 667H240L111 0H25L154 667ZM262 397H358L339 300H243L262 397Z" />
<glyph unicode="&#x141;" glyph-name="null" horiz-adv-x="526" d="M24 300L105 348L167 667H259L209 409L372 505L355 420L192 324L146 83H479L463 0H38L89 263L7 215L24 300Z" />
<glyph unicode="&#x142;" glyph-name="null" horiz-adv-x="245" d="M44 324L116 366L174 667H260L211 415L282 456L267 378L196 336L131 0H45L100 287L29 246L44 324Z" />
<glyph unicode="&#x143;" glyph-name="null" horiz-adv-x="679" d="M167 667H260L507 139L610 667H700L571 0H479L231 529L128 0H38L167 667ZM486 870H596L472 720H394L486 870Z" />
<glyph unicode="&#x144;" glyph-name="null" horiz-adv-x="522" d="M95 364Q101 395 105 417T114 465H196L185 395Q223 437 262 456T355 476Q415 476 452 438T489 336Q489 325 488 310T484 279L430 0H344L396 272Q401 297 401 314Q401 354 383 376T324 398Q292
398 264 384T213 345T176 289T153 220L111 0H25L95 364ZM368 677H463L365 541H294L368 677Z" />
<glyph unicode="&#x145;" glyph-name="null" horiz-adv-x="679" d="M167 667H260L507 139L610 667H700L571 0H479L231 529L128 0H38L167 667ZM253 -56H356L247 -206H170L253 -56Z" />
<glyph unicode="&#x146;" glyph-name="null" horiz-adv-x="522" d="M95 364Q101 395 105 417T114 465H196L185 395Q223 437 262 456T355 476Q415 476 452 438T489 336Q489 325 488 310T484 279L430 0H344L396 272Q401 297 401 314Q401 354 383 376T324 398Q292
398 264 384T213 345T176 289T153 220L111 0H25L95 364ZM180 -56H275L174 -197H103L180 -56Z" />
<glyph unicode="&#x147;" glyph-name="null" horiz-adv-x="679" d="M167 667H260L507 139L610 667H700L571 0H479L231 529L128 0H38L167 667ZM472 720H388L312 870H388L439 778L527 870H612L472 720Z" />
<glyph unicode="&#x148;" glyph-name="null" horiz-adv-x="522" d="M95 364Q101 395 105 417T114 465H196L185 395Q223 437 262 456T355 476Q415 476 452 438T489 336Q489 325 488 310T484 279L430 0H344L396 272Q401 297 401 314Q401 354 383 376T324 398Q292
398 264 384T213 345T176 289T153 220L111 0H25L95 364ZM381 539H300L232 676H311L349 593L425 676H504L381 539Z" />
<glyph unicode="&#x149;" glyph-name="null" horiz-adv-x="522" d="M95 364Q101 395 105 417T114 465H196L185 395Q223 437 262 456T355 476Q415 476 452 438T489 336Q489 325 488 310T484 279L430 0H344L396 272Q401 297 401 314Q401 354 383 376T324 398Q292
398 264 384T213 345T176 289T153 220L111 0H25L95 364ZM376 676H464L406 540H341L376 676Z" />
<glyph unicode="&#x14a;" glyph-name="null" horiz-adv-x="679" d="M167 667H260L507 139L610 667H700L568 -13Q560 -53 548 -87T517 -146T467 -185T394 -200Q354 -200 329 -189T287 -164L324 -95Q335 -104 352 -111T390 -119Q404 -119 417 -116T441 -101T462
-69T478 -13L480 -2L231 529L128 0H38L167 667Z" />
<glyph unicode="&#x14b;" glyph-name="null" horiz-adv-x="522" d="M426 -21Q419 -59 409 -91T380 -148T336 -186T270 -200Q241 -200 215 -192T169 -166L204 -101Q221 -112 233 -117T263 -123Q276 -123 288 -119T310 -100T329 -59T346 9L396 272Q401 297 401 314Q401
354 383 376T324 398Q292 398 264 384T213 345T176 289T153 220L111 0H25L95 364Q101 395 105 417T114 465H196L185 395Q223 437 262 456T355 476Q415 476 452 438T489 336Q489 325 488 310T484 279L426 -21Z" />
<glyph unicode="&#x14c;" glyph-name="null" horiz-adv-x="743" d="M165 281Q165 236 177 198T214 131T276 86T361 70Q422 70 472 97T559 169T614 269T634 382Q634 427 623 466T588 535T528 582T441 599Q376 599 325 571T238 498T184 396T165 281ZM448 684Q508
684 560 665T650 609T710 520T732 403Q732 321 705 245T629 111T511 18T359 -17Q293 -17 240 4T148 62T88 151T67 264Q67 348 94 424T172 558T292 650T448 684ZM316 832H619L605 757H302L316 832Z" />
<glyph unicode="&#x14d;" glyph-name="null" horiz-adv-x="549" d="M318 480Q364 480 401 466T464 426T505 362T520 278Q520 217 500 164T443 71T357 9T247 -14Q202 -14 166 0T103 41T62 105T47 187Q47 246 68 299T126 393T212 456T318 480ZM308 404Q276 404 245
389T190 346T150 282T135 201Q135 140 164 101T255 62Q288 62 319 77T376 118T416 182T432 265Q432 330 402 367T308 404ZM223 637H463L449 565H209L223 637Z" />
<glyph unicode="&#x14e;" glyph-name="null" horiz-adv-x="743" d="M165 281Q165 236 177 198T214 131T276 86T361 70Q422 70 472 97T559 169T614 269T634 382Q634 427 623 466T588 535T528 582T441 599Q376 599 325 571T238 498T184 396T165 281ZM448 684Q508
684 560 665T650 609T710 520T732 403Q732 321 705 245T629 111T511 18T359 -17Q293 -17 240 4T148 62T88 151T67 264Q67 348 94 424T172 558T292 650T448 684ZM424 854Q423 850 423 847T423 840Q423 816 436 802T479 787Q515 787 535 807T563 854H637Q632 829
619 806T586 764T537 734T474 722Q412 722 382 752T351 829Q351 835 351 841T353 854H424Z" />
<glyph unicode="&#x14f;" glyph-name="null" horiz-adv-x="549" d="M318 480Q364 480 401 466T464 426T505 362T520 278Q520 217 500 164T443 71T357 9T247 -14Q202 -14 166 0T103 41T62 105T47 187Q47 246 68 299T126 393T212 456T318 480ZM308 404Q276 404 245
389T190 346T150 282T135 201Q135 140 164 101T255 62Q288 62 319 77T376 118T416 182T432 265Q432 330 402 367T308 404ZM281 669Q280 665 280 662T280 655Q280 602 333 602Q367 602 386 622T412 669H481Q476 645 464 622T433 581T387 552T328 541Q271 541 242
570T213 644Q213 650 213 656T215 669H281Z" />
<glyph unicode="&#x150;" glyph-name="null" horiz-adv-x="743" d="M165 281Q165 236 177 198T214 131T276 86T361 70Q422 70 472 97T559 169T614 269T634 382Q634 427 623 466T588 535T528 582T441 599Q376 599 325 571T238 498T184 396T165 281ZM448 684Q508
684 560 665T650 609T710 520T732 403Q732 321 705 245T629 111T511 18T359 -17Q293 -17 240 4T148 62T88 151T67 264Q67 348 94 424T172 558T292 650T448 684ZM418 870H525L399 720H326L418 870ZM589 870H696L570 720H497L589 870Z" />
<glyph unicode="&#x151;" glyph-name="null" horiz-adv-x="549" d="M318 480Q364 480 401 466T464 426T505 362T520 278Q520 217 500 164T443 71T357 9T247 -14Q202 -14 166 0T103 41T62 105T47 187Q47 246 68 299T126 393T212 456T318 480ZM308 404Q276 404 245
389T190 346T150 282T135 201Q135 140 164 101T255 62Q288 62 319 77T376 118T416 182T432 265Q432 330 402 367T308 404ZM297 677H388L290 541H223L297 677ZM442 677H533L435 541H368L442 677Z" />
<glyph unicode="&#x152;" glyph-name="null" horiz-adv-x="1056" d="M581 78Q538 38 482 11T359 -17Q293 -17 240 4T148 62T88 151T67 264Q67 348 94 424T172 558T292 650T448 684Q529 684 583 651T674 561L695 667H1096L1080 582H768L730 387H965L949 303H714L708
276L671 86H1006L990 0H566L581 78ZM165 281Q165 236 177 198T214 131T276 86T361 70Q422 70 472 97T559 169T614 269T634 382Q634 427 623 466T588 535T528 582T441 599Q376 599 325 571T238 498T184 396T165 281Z" />
<glyph unicode="&#x153;" glyph-name="null" horiz-adv-x="894" d="M308 404Q276 404 245 389T190 346T150 282T135 201Q135 140 164 101T255 62Q288 62 319 77T376 118T416 182T432 265Q432 330 402 367T308 404ZM47 187Q47 246 68 299T126 393T212 456T318 480Q381
480 421 453T489 376Q531 427 575 453T683 480Q732 480 766 465T823 423T855 361T865 285Q865 246 856 206H512Q510 200 510 197V191Q510 136 541 99T632 61Q656 61 674 64T709 74T741 93T774 121L823 69Q786 29 737 8T619 -14Q554 -14 514 13T448 91Q410 40 357
13T247 -14Q202 -14 166 0T103 41T62 105T47 187ZM782 272Q782 277 782 281T783 290Q783 341 757 375T677 410Q620 410 580 374T522 272H782Z" />
<glyph unicode="&#x154;" glyph-name="null" horiz-adv-x="560" d="M179 273L127 0H38L167 667H366Q419 667 456 652T516 614T549 561T560 502Q560 456 548 421T515 359T464 315T400 287L491 0H393L312 273H179ZM240 588L194 353H309Q381 353 422 385T464 492Q464
537 436 562T353 588H240ZM390 870H500L376 720H298L390 870Z" />
<glyph unicode="&#x155;" glyph-name="null" horiz-adv-x="349" d="M96 370Q102 399 106 420T114 465H196L184 391Q194 402 208 416T242 442T284 463T338 472Q355 472 368 470T392 463L360 379Q346 384 337 385T311 387Q282 387 257 375T211 343T177 296T157 240L111
0H25L96 370ZM538 677H633L535 541H464L538 677Z" />
<glyph unicode="&#x156;" glyph-name="null" horiz-adv-x="560" d="M179 273L127 0H38L167 667H366Q419 667 456 652T516 614T549 561T560 502Q560 456 548 421T515 359T464 315T400 287L491 0H393L312 273H179ZM240 588L194 353H309Q381 353 422 385T464 492Q464
537 436 562T353 588H240ZM201 -56H304L195 -206H118L201 -56Z" />
<glyph unicode="&#x157;" glyph-name="null" horiz-adv-x="349" d="M96 370Q102 399 106 420T114 465H196L184 391Q194 402 208 416T242 442T284 463T338 472Q355 472 368 470T392 463L360 379Q346 384 337 385T311 387Q282 387 257 375T211 343T177 296T157 240L111
0H25L96 370ZM270 -56H365L264 -197H193L270 -56Z" />
<glyph unicode="&#x158;" glyph-name="null" horiz-adv-x="560" d="M179 273L127 0H38L167 667H366Q419 667 456 652T516 614T549 561T560 502Q560 456 548 421T515 359T464 315T400 287L491 0H393L312 273H179ZM240 588L194 353H309Q381 353 422 385T464 492Q464
537 436 562T353 588H240ZM391 720H307L231 870H307L358 778L446 870H531L391 720Z" />
<glyph unicode="&#x159;" glyph-name="null" horiz-adv-x="349" d="M96 370Q102 399 106 420T114 465H196L184 391Q194 402 208 416T242 442T284 463T338 472Q355 472 368 470T392 463L360 379Q346 384 337 385T311 387Q282 387 257 375T211 343T177 296T157 240L111
0H25L96 370ZM542 539H461L393 676H472L510 593L586 676H665L542 539Z" />
<glyph unicode="&#x15a;" glyph-name="null" horiz-adv-x="559" d="M85 153Q127 107 168 88T266 68Q327 68 368 100T409 189Q409 212 402 228T380 258T342 282T288 306Q254 320 224 337T172 375T137 423T124 485Q124 525 140 561T187 625T261 668T358 684Q427
684 474 658T554 586L489 531Q466 560 434 581T352 602Q288 602 254 574T220 499Q220 476 227 460T250 432T288 408T341 384Q377 369 406 353T458 315T492 265T504 199Q504 145 485 105T431 37T353 -3T258 -17Q229 -17 199 -12T138 6T78 40T22 95L85 153ZM408 870H518L394
720H316L408 870Z" />
<glyph unicode="&#x15b;" glyph-name="null" horiz-adv-x="441" d="M59 114Q78 99 95 89T130 73T166 64T207 61Q251 61 275 78T300 127Q300 141 293 151T275 169T248 185T215 199Q195 208 172 218T130 244T97 282T84 338Q84 374 98 400T136 445T193 471T265 480Q283
480 304 477T347 465T389 443T428 410L376 359Q352 382 321 394T258 407Q217 407 195 393T172 352Q172 339 176 329T192 310T222 291T271 269Q294 259 316 248T355 221T382 187T392 140Q392 66 340 26T204 -14Q152 -14 103 1T12 52L59 114ZM307 677H402L304 541H233L307
677Z" />
<glyph unicode="&#x15c;" glyph-name="null" horiz-adv-x="559" d="M85 153Q127 107 168 88T266 68Q327 68 368 100T409 189Q409 212 402 228T380 258T342 282T288 306Q254 320 224 337T172 375T137 423T124 485Q124 525 140 561T187 625T261 668T358 684Q427
684 474 658T554 586L489 531Q466 560 434 581T352 602Q288 602 254 574T220 499Q220 476 227 460T250 432T288 408T341 384Q377 369 406 353T458 315T492 265T504 199Q504 145 485 105T431 37T353 -3T258 -17Q229 -17 199 -12T138 6T78 40T22 95L85 153ZM359 870H443L519
720H441L390 812L302 720H219L359 870Z" />
<glyph unicode="&#x15d;" glyph-name="null" horiz-adv-x="441" d="M59 114Q78 99 95 89T130 73T166 64T207 61Q251 61 275 78T300 127Q300 141 293 151T275 169T248 185T215 199Q195 208 172 218T130 244T97 282T84 338Q84 374 98 400T136 445T193 471T265 480Q283
480 304 477T347 465T389 443T428 410L376 359Q352 382 321 394T258 407Q217 407 195 393T172 352Q172 339 176 329T192 310T222 291T271 269Q294 259 316 248T355 221T382 187T392 140Q392 66 340 26T204 -14Q152 -14 103 1T12 52L59 114ZM271 676H352L420 539H341L303
622L227 539H148L271 676Z" />
<glyph unicode="&#x15e;" glyph-name="null" horiz-adv-x="559" d="M85 153Q127 107 168 88T266 68Q327 68 368 100T409 189Q409 212 402 228T380 258T342 282T288 306Q254 320 224 337T172 375T137 423T124 485Q124 525 140 561T187 625T261 668T358 684Q427
684 474 658T554 586L489 531Q466 560 434 581T352 602Q288 602 254 574T220 499Q220 476 227 460T250 432T288 408T341 384Q377 369 406 353T458 315T492 265T504 199Q504 145 485 105T431 37T353 -3T258 -17Q229 -17 199 -12T138 6T78 40T22 95L85 153ZM116 -156Q131
-162 151 -166T190 -170Q219 -170 237 -158T255 -126Q255 -109 242 -103T207 -96Q172 -96 135 -109L152 -54Q168 -49 189 -45T241 -41Q281 -41 306 -62T332 -116Q332 -145 320 -165T289 -199T244 -219T192 -225Q150 -225 126 -219T97 -210L116 -156Z" />
<glyph unicode="&#x15f;" glyph-name="null" horiz-adv-x="441" d="M59 114Q78 99 95 89T130 73T166 64T207 61Q251 61 275 78T300 127Q300 141 293 151T275 169T248 185T215 199Q195 208 172 218T130 244T97 282T84 338Q84 374 98 400T136 445T193 471T265 480Q283
480 304 477T347 465T389 443T428 410L376 359Q352 382 321 394T258 407Q217 407 195 393T172 352Q172 339 176 329T192 310T222 291T271 269Q294 259 316 248T355 221T382 187T392 140Q392 66 340 26T204 -14Q152 -14 103 1T12 52L59 114ZM65 -156Q80 -162 98
-166T135 -170Q168 -170 185 -158T202 -126Q202 -109 190 -103T152 -96Q135 -96 118 -99T84 -109L101 -54Q117 -49 136 -45T186 -41Q226 -41 250 -62T274 -116Q274 -145 263 -165T234 -199T190 -219T137 -225Q95 -225 73 -219T46 -210L65 -156Z" />
<glyph unicode="&#x160;" glyph-name="null" horiz-adv-x="559" d="M85 153Q127 107 168 88T266 68Q327 68 368 100T409 189Q409 212 402 228T380 258T342 282T288 306Q254 320 224 337T172 375T137 423T124 485Q124 525 140 561T187 625T261 668T358 684Q427
684 474 658T554 586L489 531Q466 560 434 581T352 602Q288 602 254 574T220 499Q220 476 227 460T250 432T288 408T341 384Q377 369 406 353T458 315T492 265T504 199Q504 145 485 105T431 37T353 -3T258 -17Q229 -17 199 -12T138 6T78 40T22 95L85 153ZM413 720H329L253
870H329L380 778L468 870H553L413 720Z" />
<glyph unicode="&#x161;" glyph-name="null" horiz-adv-x="441" d="M59 114Q78 99 95 89T130 73T166 64T207 61Q251 61 275 78T300 127Q300 141 293 151T275 169T248 185T215 199Q195 208 172 218T130 244T97 282T84 338Q84 374 98 400T136 445T193 471T265 480Q283
480 304 477T347 465T389 443T428 410L376 359Q352 382 321 394T258 407Q217 407 195 393T172 352Q172 339 176 329T192 310T222 291T271 269Q294 259 316 248T355 221T382 187T392 140Q392 66 340 26T204 -14Q152 -14 103 1T12 52L59 114ZM324 539H243L175 676H254L292
593L368 676H447L324 539Z" />
<glyph unicode="&#x162;" glyph-name="null" horiz-adv-x="596" d="M330 585H101L117 667H667L651 585H423L310 0H217L330 585ZM134 -156Q149 -162 169 -166T208 -170Q237 -170 255 -158T273 -126Q273 -109 260 -103T225 -96Q190 -96 153 -109L170 -54Q186 -49
207 -45T259 -41Q299 -41 324 -62T350 -116Q350 -145 338 -165T307 -199T262 -219T210 -225Q168 -225 144 -219T115 -210L134 -156Z" />
<glyph unicode="&#x163;" glyph-name="null" horiz-adv-x="369" d="M138 393H58L72 465H153L182 617H268L239 465H370L356 393H224L179 156Q175 136 175 117Q175 62 222 62Q242 62 260 71T293 94L335 42Q307 16 275 2T211 -13Q151 -13 119 14T86 100Q86 119 91
147L138 393ZM58 -156Q73 -162 91 -166T128 -170Q161 -170 178 -158T195 -126Q195 -109 183 -103T145 -96Q128 -96 111 -99T77 -109L94 -54Q110 -49 129 -45T179 -41Q219 -41 243 -62T267 -116Q267 -145 256 -165T227 -199T183 -219T130 -225Q88 -225 66 -219T39
-210L58 -156Z" />
<glyph unicode="&#x164;" glyph-name="null" horiz-adv-x="596" d="M330 585H101L117 667H667L651 585H423L310 0H217L330 585ZM441 720H357L281 870H357L408 778L496 870H581L441 720Z" />
<glyph unicode="&#x165;" glyph-name="null" horiz-adv-x="369" d="M382 667H464L407 514H349L382 667ZM138 393H58L72 465H153L182 617H268L239 465H370L356 393H224L179 156Q175 136 175 117Q175 62 222 62Q242 62 260 71T293 94L335 42Q307 16 275 2T211 -13Q151
-13 119 14T86 100Q86 119 91 147L138 393Z" />
<glyph unicode="&#x166;" glyph-name="null" horiz-adv-x="596" d="M156 359H286L330 585H101L117 667H667L651 585H423L379 359H508L493 282H364L310 0H217L271 282H141L156 359Z" />
<glyph unicode="&#x167;" glyph-name="null" horiz-adv-x="369" d="M116 279L138 393H58L72 465H153L182 617H268L239 465H370L356 393H224L202 279H334L321 211H189L179 156Q175 136 175 117Q175 62 222 62Q242 62 260 71T293 94L335 42Q307 16 275 2T211 -13Q151
-13 119 14T86 100Q86 119 91 147L103 211H23L36 279H116Z" />
<glyph unicode="&#x168;" glyph-name="null" horiz-adv-x="646" d="M162 667H254L178 277Q174 257 172 240T170 205Q170 143 201 107T309 71Q354 71 386 83T441 119T478 181T502 267L580 667H672L590 244Q578 184 556 136T499 54T415 2T301 -17Q245 -17 203 -2T132
42T90 108T76 191Q76 221 82 254L162 667ZM485 733Q463 733 448 740T418 756T390 772T358 779Q331 779 313 769T274 743L241 797Q263 817 294 836T366 855Q388 855 403 848T433 832T461 816T493 809Q522 809 540 819T577 845L610 791Q588 771 557 752T485 733Z"
/>
<glyph unicode="&#x169;" glyph-name="null" horiz-adv-x="517" d="M439 101Q433 70 429 48T420 0H338L349 70Q311 28 272 9T180 -11Q120 -11 84 27T47 129Q47 140 48 155T52 186L106 465H192L140 193Q135 168 135 151Q135 111 152 89T211 67Q243 67 271 81T321
120T359 176T381 245L423 465H509L439 101ZM374 545Q353 545 339 552T311 567T285 582T254 589Q229 589 212 579T175 554L144 605Q164 624 194 641T262 659Q283 659 297 652T325 637T351 622T382 615Q407 615 425 625T461 650L492 599Q472 580 442 563T374 545Z"
/>
<glyph unicode="&#x16a;" glyph-name="null" horiz-adv-x="646" d="M162 667H254L178 277Q174 257 172 240T170 205Q170 143 201 107T309 71Q354 71 386 83T441 119T478 181T502 267L580 667H672L590 244Q578 184 556 136T499 54T415 2T301 -17Q245 -17 203 -2T132
42T90 108T76 191Q76 221 82 254L162 667ZM289 832H592L578 757H275L289 832Z" />
<glyph unicode="&#x16b;" glyph-name="null" horiz-adv-x="517" d="M439 101Q433 70 429 48T420 0H338L349 70Q311 28 272 9T180 -11Q120 -11 84 27T47 129Q47 140 48 155T52 186L106 465H192L140 193Q135 168 135 151Q135 111 152 89T211 67Q243 67 271 81T321
120T359 176T381 245L423 465H509L439 101ZM213 637H453L439 565H199L213 637Z" />
<glyph unicode="&#x16c;" glyph-name="null" horiz-adv-x="646" d="M162 667H254L178 277Q174 257 172 240T170 205Q170 143 201 107T309 71Q354 71 386 83T441 119T478 181T502 267L580 667H672L590 244Q578 184 556 136T499 54T415 2T301 -17Q245 -17 203 -2T132
42T90 108T76 191Q76 221 82 254L162 667ZM365 854Q364 850 364 847T364 840Q364 816 377 802T420 787Q456 787 476 807T504 854H578Q573 829 560 806T527 764T478 734T415 722Q353 722 323 752T292 829Q292 835 292 841T294 854H365Z" />
<glyph unicode="&#x16d;" glyph-name="null" horiz-adv-x="517" d="M439 101Q433 70 429 48T420 0H338L349 70Q311 28 272 9T180 -11Q120 -11 84 27T47 129Q47 140 48 155T52 186L106 465H192L140 193Q135 168 135 151Q135 111 152 89T211 67Q243 67 271 81T321
120T359 176T381 245L423 465H509L439 101ZM266 669Q265 665 265 662T265 655Q265 602 318 602Q352 602 371 622T397 669H466Q461 645 449 622T418 581T372 552T313 541Q256 541 227 570T198 644Q198 650 198 656T200 669H266Z" />
<glyph unicode="&#x16e;" glyph-name="null" horiz-adv-x="646" d="M162 667H254L178 277Q174 257 172 240T170 205Q170 143 201 107T309 71Q354 71 386 83T441 119T478 181T502 267L580 667H672L590 244Q578 184 556 136T499 54T415 2T301 -17Q245 -17 203 -2T132
42T90 108T76 191Q76 221 82 254L162 667ZM296 798Q296 824 305 846T331 883T369 908T417 917Q442 917 464 909T503 884T528 847T538 800Q538 774 529 752T503 714T465 689T418 680Q392 680 370 689T332 713T306 750T296 798ZM418 739Q444 739 459 756T475 800Q475
826 460 842T417 858Q391 858 376 842T360 798Q360 772 375 756T418 739Z" />
<glyph unicode="&#x16f;" glyph-name="null" horiz-adv-x="517" d="M439 101Q433 70 429 48T420 0H338L349 70Q311 28 272 9T180 -11Q120 -11 84 27T47 129Q47 140 48 155T52 186L106 465H192L140 193Q135 168 135 151Q135 111 152 89T211 67Q243 67 271 81T321
120T359 176T381 245L423 465H509L439 101ZM208 641Q208 664 216 683T239 717T273 740T316 748Q338 748 358 740T392 718T415 685T424 642Q424 619 416 599T393 565T359 543T317 535Q295 535 275 543T240 565T217 598T208 641ZM316 588Q337 588 352 603T367 641Q367
664 352 678T316 693Q295 693 281 679T266 641Q266 618 280 603T316 588Z" />
<glyph unicode="&#x170;" glyph-name="null" horiz-adv-x="646" d="M162 667H254L178 277Q174 257 172 240T170 205Q170 143 201 107T309 71Q354 71 386 83T441 119T478 181T502 267L580 667H672L590 244Q578 184 556 136T499 54T415 2T301 -17Q245 -17 203 -2T132
42T90 108T76 191Q76 221 82 254L162 667ZM385 870H492L366 720H293L385 870ZM556 870H663L537 720H464L556 870Z" />
<glyph unicode="&#x171;" glyph-name="null" horiz-adv-x="517" d="M439 101Q433 70 429 48T420 0H338L349 70Q311 28 272 9T180 -11Q120 -11 84 27T47 129Q47 140 48 155T52 186L106 465H192L140 193Q135 168 135 151Q135 111 152 89T211 67Q243 67 271 81T321
120T359 176T381 245L423 465H509L439 101ZM274 677H365L267 541H200L274 677ZM419 677H510L412 541H345L419 677Z" />
<glyph unicode="&#x172;" glyph-name="null" horiz-adv-x="646" d="M162 667H254L178 277Q174 257 172 240T170 205Q170 143 201 107T309 71Q354 71 386 83T441 119T478 181T502 267L580 667H672L590 244Q576 172 548 119T471 31Q453 19 430 3T385 -30T348 -65T333
-101Q333 -112 338 -119T357 -126Q375 -126 389 -121T415 -108L436 -166Q410 -183 382 -192T325 -201Q288 -201 266 -184T244 -134Q244 -103 263 -75T316 -17H301Q245 -17 203 -2T132 42T90 108T76 191Q76 221 82 254L162 667Z" />
<glyph unicode="&#x173;" glyph-name="null" horiz-adv-x="517" d="M338 0L349 70Q311 28 272 9T180 -11Q120 -11 84 27T47 129Q47 140 48 155T52 186L106 465H192L140 193Q135 168 135 151Q135 111 152 89T211 67Q243 67 271 81T321 120T359 176T381 245L423
465H509L439 101Q433 70 429 48T420 0Q390 -26 367 -53T343 -101Q343 -112 348 -118T367 -125Q385 -125 400 -119T426 -106L447 -163Q395 -195 340 -195Q304 -195 283 -179T261 -130Q261 -96 285 -66T350 0H338Z" />
<glyph unicode="&#x174;" glyph-name="null" horiz-adv-x="843" d="M106 667H203L226 129L461 647H553L591 132L815 667H915L616 0H518L477 493L247 0H150L106 667ZM499 870H583L659 720H581L530 812L442 720H359L499 870Z" />
<glyph unicode="&#x175;" glyph-name="null" horiz-adv-x="693" d="M56 465H148L179 112L355 465H429L466 109L631 465H727L489 0H403L363 323L198 0H116L56 465ZM379 676H460L528 539H449L411 622L335 539H256L379 676Z" />
<glyph unicode="&#x176;" glyph-name="null" horiz-adv-x="554" d="M248 297L99 667H196L307 380L530 667H634L341 298L284 0H191L248 297ZM355 870H439L515 720H437L386 812L298 720H215L355 870Z" />
<glyph unicode="&#x177;" glyph-name="null" horiz-adv-x="482" d="M-15 -119Q-4 -127 8 -133T41 -139Q56 -139 68 -133T92 -113T117 -77T149 -23L166 7L57 465H153L228 114L423 465H520L218 -52Q196 -89 177 -118T137 -169T95 -201T45 -213Q18 -213 -5 -207T-48
-181L-15 -119ZM276 676H357L425 539H346L308 622L232 539H153L276 676Z" />
<glyph unicode="&#x178;" glyph-name="null" horiz-adv-x="554" d="M248 297L99 667H196L307 380L530 667H634L341 298L284 0H191L248 297ZM435 844H532L513 746H416L435 844ZM248 844H344L325 746H229L248 844Z" />
<glyph unicode="&#x179;" glyph-name="null" horiz-adv-x="616" d="M27 84L517 584H143L159 667H651L635 582L145 83H544L528 0H11L27 84ZM440 870H550L426 720H348L440 870Z" />
<glyph unicode="&#x17a;" glyph-name="null" horiz-adv-x="446" d="M20 71L334 393H92L106 465H458L444 393L125 72H385L371 0H7L20 71ZM311 677H406L308 541H237L311 677Z" />
<glyph unicode="&#x17b;" glyph-name="null" horiz-adv-x="616" d="M27 84L517 584H143L159 667H651L635 582L145 83H544L528 0H11L27 84ZM380 847H483L463 744H360L380 847Z" />
<glyph unicode="&#x17c;" glyph-name="null" horiz-adv-x="446" d="M20 71L334 393H92L106 465H458L444 393L125 72H385L371 0H7L20 71ZM261 654H357L338 557H242L261 654Z" />
<glyph unicode="&#x17d;" glyph-name="null" horiz-adv-x="616" d="M27 84L517 584H143L159 667H651L635 582L145 83H544L528 0H11L27 84ZM445 720H361L285 870H361L412 778L500 870H585L445 720Z" />
<glyph unicode="&#x17e;" glyph-name="null" horiz-adv-x="446" d="M20 71L334 393H92L106 465H458L444 393L125 72H385L371 0H7L20 71ZM323 539H242L174 676H253L291 593L367 676H446L323 539Z" />
<glyph unicode="&#x17f;" glyph-name="null" horiz-adv-x="236" d="M122 503Q140 598 190 641T310 684Q340 684 374 672T431 631L378 577Q352 606 304 606Q265 606 243 581T208 495L112 0H25L122 503Z" />
<glyph unicode="&#x192;" glyph-name="null" horiz-adv-x="476" d="M199 -37Q157 -200 27 -200Q-10 -200 -39 -188T-92 -147L-40 -88Q-25 -105 -9 -112T27 -119Q48 -119 62 -112T86 -91T102 -61T114 -22L198 307H109L123 381H217L243 481Q264 562 311 603T425
644Q499 644 544 588L489 530Q474 550 458 556T422 562Q381 562 360 535T328 466L306 381H409L395 307H287L199 -37Z" />
<glyph unicode="&#x218;" glyph-name="null" horiz-adv-x="559" d="M85 153Q127 107 168 88T266 68Q327 68 368 100T409 189Q409 212 402 228T380 258T342 282T288 306Q254 320 224 337T172 375T137 423T124 485Q124 525 140 561T187 625T261 668T358 684Q427
684 474 658T554 586L489 531Q466 560 434 581T352 602Q288 602 254 574T220 499Q220 476 227 460T250 432T288 408T341 384Q377 369 406 353T458 315T492 265T504 199Q504 145 485 105T431 37T353 -3T258 -17Q229 -17 199 -12T138 6T78 40T22 95L85 153ZM191 -56H294L185
-206H108L191 -56Z" />
<glyph unicode="&#x219;" glyph-name="null" horiz-adv-x="441" d="M59 114Q78 99 95 89T130 73T166 64T207 61Q251 61 275 78T300 127Q300 141 293 151T275 169T248 185T215 199Q195 208 172 218T130 244T97 282T84 338Q84 374 98 400T136 445T193 471T265 480Q283
480 304 477T347 465T389 443T428 410L376 359Q352 382 321 394T258 407Q217 407 195 393T172 352Q172 339 176 329T192 310T222 291T271 269Q294 259 316 248T355 221T382 187T392 140Q392 66 340 26T204 -14Q152 -14 103 1T12 52L59 114ZM155 -56H250L149 -197H78L155
-56Z" />
<glyph unicode="&#x21a;" glyph-name="null" horiz-adv-x="596" d="M330 585H101L117 667H667L651 585H423L310 0H217L330 585ZM205 -56H308L199 -206H122L205 -56Z" />
<glyph unicode="&#x21b;" glyph-name="null" horiz-adv-x="369" d="M370 393H290L304 465H385L414 617H500L471 465H602L588 393H456L411 156Q407 136 407 117Q407 62 454 62Q474 62 492 71T525 94L567 42Q539 16 507 2T443 -13Q383 -13 351 14T318 100Q318 119
323 147L370 393ZM130 -56H225L124 -197H53L130 -56Z" />
<glyph unicode="&#x237;" glyph-name="null" horiz-adv-x="213" d="M-113 -101Q-96 -112 -84 -117T-54 -123Q-41 -123 -29 -119T-7 -100T12 -59T29 9L118 465H205L110 -21Q102 -59 92 -91T63 -148T19 -186T-47 -200Q-76 -200 -102 -192T-148 -166L-113 -101Z" />
<glyph unicode="&#x2bc;" glyph-name="null" horiz-adv-x="199" d="M174 676H262L204 540H139L174 676Z" />
<glyph unicode="&#x2c6;" glyph-name="null" horiz-adv-x="394" d="M261 676H342L410 539H331L293 622L217 539H138L261 676Z" />
<glyph unicode="&#x2c7;" glyph-name="null" horiz-adv-x="394" d="M315 539H234L166 676H245L283 593L359 676H438L315 539Z" />
<glyph unicode="&#x2c9;" glyph-name="null" horiz-adv-x="334" d="M394 637H634L620 565H380L394 637Z" />
<glyph unicode="&#x2d8;" glyph-name="null" horiz-adv-x="400" d="M247 669Q246 665 246 662T246 655Q246 602 299 602Q333 602 352 622T378 669H447Q442 645 430 622T399 581T353 552T294 541Q237 541 208 570T179 644Q179 650 179 656T181 669H247Z" />
<glyph unicode="&#x2d9;" glyph-name="null" horiz-adv-x="282" d="M195 654H291L272 557H176L195 654Z" />
<glyph unicode="&#x2da;" glyph-name="null" horiz-adv-x="316" d="M137 641Q137 664 145 683T168 717T202 740T245 748Q267 748 287 740T321 718T344 685T353 642Q353 619 345 599T322 565T288 543T246 535Q224 535 204 543T169 565T146 598T137 641ZM245 588Q266
588 281 603T296 641Q296 664 281 678T245 693Q224 693 210 679T195 641Q195 618 209 603T245 588Z" />
<glyph unicode="&#x2db;" glyph-name="null" horiz-adv-x="305" d="M171 0Q141 -26 118 -53T94 -101Q94 -112 99 -118T118 -125Q136 -125 151 -119T177 -106L198 -163Q146 -195 91 -195Q55 -195 34 -179T12 -130Q12 -96 36 -66T101 0H171Z" />
<glyph unicode="&#x2dc;" glyph-name="null" horiz-adv-x="401" d="M340 545Q319 545 305 552T277 567T251 582T220 589Q195 589 178 579T141 554L110 605Q130 624 160 641T228 659Q249 659 263 652T291 637T317 622T348 615Q373 615 391 625T427 650L458 599Q438
580 408 563T340 545Z" />
<glyph unicode="&#x2dd;" glyph-name="null" horiz-adv-x="392" d="M200 677H291L193 541H126L200 677ZM345 677H436L338 541H271L345 677Z" />
<glyph unicode="&#x384;" glyph-name="null" horiz-adv-x="326" d="M304 684L218 540H151L211 684H304Z" />
<glyph unicode="&#x385;" glyph-name="null" horiz-adv-x="495" d="M356 678L289 534H223L270 678H356ZM385 651H472L454 562H367L385 651ZM117 651H206L188 562H99L117 651Z" />
<glyph unicode="&#x386;" glyph-name="null" horiz-adv-x="615" d="M354 667H448L570 0H472L442 187H177L75 0H-25L354 667ZM429 266L381 563L219 266H429ZM506 667L424 523H351L407 667H506Z" />
<glyph unicode="&#x388;" glyph-name="null" horiz-adv-x="660" d="M297 667H700L684 582H372L334 387H569L553 303H317L275 86H610L594 0H168L297 667ZM479 667L397 523H324L380 667H479Z" />
<glyph unicode="&#x389;" glyph-name="null" horiz-adv-x="811" d="M297 667H389L335 387H686L740 667H832L703 0H611L669 303H318L260 0H168L297 667ZM479 667L397 523H324L380 667H479Z" />
<glyph unicode="&#x38a;" glyph-name="null" horiz-adv-x="368" d="M297 667H389L260 0H168L297 667ZM479 667L397 523H324L380 667H479Z" />
<glyph unicode="&#x38c;" glyph-name="null" horiz-adv-x="868" d="M290 281Q290 236 302 198T339 131T401 86T486 70Q547 70 597 97T684 169T739 269T759 382Q759 427 748 466T713 535T653 582T566 599Q501 599 450 571T363 498T309 396T290 281ZM573 684Q633
684 685 665T775 609T835 520T857 403Q857 321 830 245T754 111T636 18T484 -17Q418 -17 365 4T273 62T213 151T192 264Q192 348 219 424T297 558T417 650T573 684ZM477 667L395 523H322L378 667H477Z" />
<glyph unicode="&#x38e;" glyph-name="null" horiz-adv-x="742" d="M436 297L287 667H384L495 380L718 667H822L529 298L472 0H379L436 297ZM479 667L397 523H324L380 667H479Z" />
<glyph unicode="&#x38f;" glyph-name="null" horiz-adv-x="892" d="M539 0L555 82Q600 104 638 134T703 203T746 288T761 387Q761 432 750 470T713 538T650 583T558 600Q495 600 446 578T362 517T310 428T292 321Q292 247 323 190T418 82L403 0H134L150 82H301Q239
136 217 195T194 315Q194 388 221 455T297 573T414 654T566 684Q629 684 682 666T775 611T837 520T859 395Q859 286 810 209T681 82H824L808 0H539ZM477 667L395 523H322L378 667H477Z" />
<glyph unicode="&#x390;" glyph-name="null" horiz-adv-x="293" d="M203 465L141 145Q136 122 136 106Q136 83 146 73T177 63Q192 63 204 67T227 78L254 11Q237 1 214 -6T160 -14Q100 -14 74 16T47 92Q47 107 49 122T55 154L116 465H203ZM516 678L449 534H383L430
678H516ZM545 651H632L614 562H527L545 651ZM277 651H366L348 562H259L277 651Z" />
<glyph unicode="&#x391;" glyph-name="null" horiz-adv-x="615" d="M354 667H448L570 0H472L442 187H177L75 0H-25L354 667ZM429 266L381 563L219 266H429Z" />
<glyph unicode="&#x392;" glyph-name="null" horiz-adv-x="566" d="M167 667H375Q418 667 450 656T505 624T538 578T550 522Q550 483 538 455T507 408T466 376T422 354Q442 349 461 337T494 308T518 267T527 216Q527 156 504 115T443 48T354 11T248 0H38L167 667ZM319
387Q343 387 367 393T412 414T445 449T458 502Q458 527 450 543T427 569T393 582T350 586H240L202 387H319ZM275 82Q309 82 338 89T388 112T421 152T433 210Q433 239 424 258T398 288T359 303T310 308H186L143 82H275Z" />
<glyph unicode="&#x393;" glyph-name="null" horiz-adv-x="513" d="M584 667L567 580H242L130 0H38L167 667H584Z" />
<glyph unicode="&#x394;" glyph-name="null" horiz-adv-x="618" d="M450 667L570 83L555 0H-6L10 83L356 667H450ZM108 84H475L383 559L108 84Z" />
<glyph unicode="&#x395;" glyph-name="null" horiz-adv-x="530" d="M167 667H570L554 582H242L204 387H439L423 303H187L145 86H480L464 0H38L167 667Z" />
<glyph unicode="&#x396;" glyph-name="null" horiz-adv-x="616" d="M27 84L517 584H143L159 667H651L635 582L145 83H544L528 0H11L27 84Z" />
<glyph unicode="&#x397;" glyph-name="null" horiz-adv-x="681" d="M167 667H259L205 387H556L610 667H702L573 0H481L539 303H188L130 0H38L167 667Z" />
<glyph unicode="&#x398;" glyph-name="null" horiz-adv-x="743" d="M163 283Q163 236 175 197T212 129T273 84T358 67Q422 67 473 94T561 167T616 269T636 386Q636 430 625 469T589 537T529 584T441 602Q375 602 324 574T237 500T182 397T163 283ZM447 684Q507
684 559 665T650 610T710 519T732 394Q732 316 705 242T629 111T510 18T355 -17Q293 -17 241 2T150 59T89 151T67 275Q67 352 94 425T172 556T292 649T447 684ZM563 376L547 295H234L250 376H563Z" />
<glyph unicode="&#x399;" glyph-name="null" horiz-adv-x="238" d="M167 667H259L130 0H38L167 667Z" />
<glyph unicode="&#x39a;" glyph-name="null" horiz-adv-x="579" d="M167 667H258L199 364L526 667H636L344 391L529 0H426L272 330L176 246L129 0H38L167 667Z" />
<glyph unicode="&#x39b;" glyph-name="null" horiz-adv-x="612" d="M449 667L566 0H469L378 553L77 0H-23L350 667H449Z" />
<glyph unicode="&#x39c;" glyph-name="null" horiz-adv-x="756" d="M189 667H276L397 317L664 667H754L654 0H564L642 512L399 197H354L237 512L117 0H30L189 667Z" />
<glyph unicode="&#x39d;" glyph-name="null" horiz-adv-x="679" d="M167 667H260L507 139L610 667H700L571 0H479L231 529L128 0H38L167 667Z" />
<glyph unicode="&#x39e;" glyph-name="null" horiz-adv-x="529" d="M580 667L563 576H122L140 667H580ZM481 90L464 0H-3L14 90H481ZM491 385L474 295H103L120 385H491Z" />
<glyph unicode="&#x39f;" glyph-name="null" horiz-adv-x="743" d="M165 281Q165 236 177 198T214 131T276 86T361 70Q422 70 472 97T559 169T614 269T634 382Q634 427 623 466T588 535T528 582T441 599Q376 599 325 571T238 498T184 396T165 281ZM448 684Q508
684 560 665T650 609T710 520T732 403Q732 321 705 245T629 111T511 18T359 -17Q293 -17 240 4T148 62T88 151T67 264Q67 348 94 424T172 558T292 650T448 684Z" />
<glyph unicode="&#x3a0;" glyph-name="null" horiz-adv-x="668" d="M689 667L560 0H468L581 584H243L130 0H38L167 667H689Z" />
<glyph unicode="&#x3a1;" glyph-name="null" horiz-adv-x="543" d="M167 667H364Q417 667 454 652T513 612T546 557T556 498Q556 436 535 392T477 318T392 276T291 262H179L129 0H38L167 667ZM306 342Q378 342 419 379T460 488Q460 533 433 560T351 588H243L195 342H306Z" />
<glyph unicode="&#x3a3;" glyph-name="null" horiz-adv-x="574" d="M620 667L603 581H242L413 332L151 87H514L498 0H15L31 85L304 341L134 584L150 667H620Z" />
<glyph unicode="&#x3a4;" glyph-name="null" horiz-adv-x="596" d="M330 585H101L117 667H667L651 585H423L310 0H217L330 585Z" />
<glyph unicode="&#x3a5;" glyph-name="null" horiz-adv-x="554" d="M248 297L99 667H196L307 380L530 667H634L341 298L284 0H191L248 297Z" />
<glyph unicode="&#x3a6;" glyph-name="null" horiz-adv-x="760" d="M294 -35L310 50Q252 57 207 78T131 132T84 208T67 303Q67 370 93 428T167 529T279 599T422 629L437 705H522L506 626Q564 620 609 599T685 545T732 469T749 374Q749 307 723 249T649 147T537
77T394 47L378 -35H294ZM157 312Q157 238 199 189T326 130L407 551Q350 547 304 528T225 476T175 402T157 312ZM659 365Q659 438 617 488T491 547L409 126Q466 130 512 149T591 201T641 275T659 365Z" />
<glyph unicode="&#x3a7;" glyph-name="null" horiz-adv-x="574" d="M264 350L116 667H220L330 419L529 667H636L369 343L529 0H423L302 272L82 0H-26L264 350Z" />
<glyph unicode="&#x3a8;" glyph-name="null" horiz-adv-x="784" d="M248 667L214 493Q210 472 208 453T206 416Q206 383 213 356T239 310T287 280T364 265L442 667H533L456 265Q520 269 561 288T628 336T667 405T690 492L724 667H815L775 464Q764 409 746 360T691
273T594 211T440 183L404 0H313L349 185Q230 194 171 253T111 403Q111 416 113 432T118 465L157 667H248Z" />
<glyph unicode="&#x3a9;" glyph-name="null" horiz-adv-x="774" d="M428 0L444 82Q489 104 527 134T592 203T635 288T650 387Q650 432 639 470T602 538T539 583T447 600Q384 600 335 578T251 517T199 428T181 321Q181 247 212 190T307 82L292 0H23L39 82H190Q128
136 106 195T83 315Q83 388 110 455T186 573T303 654T455 684Q518 684 571 666T664 611T726 520T748 395Q748 286 699 209T570 82H713L697 0H428Z" />
<glyph unicode="&#x3aa;" glyph-name="null" horiz-adv-x="238" d="M167 667H259L130 0H38L167 667ZM544 844H641L622 746H525L544 844ZM357 844H453L434 746H338L357 844Z" />
<glyph unicode="&#x3ab;" glyph-name="null" horiz-adv-x="554" d="M248 297L99 667H196L307 380L530 667H634L341 298L284 0H191L248 297ZM435 844H532L513 746H416L435 844ZM248 844H344L325 746H229L248 844Z" />
<glyph unicode="&#x3ac;" glyph-name="null" horiz-adv-x="596" d="M417 273Q418 278 418 283T418 290Q418 340 389 372T308 404Q271 404 240 387T185 342T149 276T136 198Q136 131 169 97T253 62Q283 62 308 73T352 103T385 149T405 205L417 273ZM484 -15Q439
-15 416 7T387 57Q360 27 322 7T232 -14Q190 -14 156 1T98 42T60 106T47 189Q47 245 67 297T121 390T202 455T302 480Q354 480 389 457T444 399Q448 418 452 434T461 465H547Q540 443 536 423T528 389L474 116Q469 92 475 77T505 61Q515 61 523 64T539 70L560 2Q544
-6 524 -10T484 -15ZM444 684L358 540H291L351 684H444Z" />
<glyph unicode="&#x3ad;" glyph-name="null" horiz-adv-x="486" d="M361 274L347 200H252Q226 200 203 197T161 184T133 161T122 126Q122 106 131 94T154 74T187 64T226 61Q286 61 326 79T393 121L440 61Q404 30 351 8T222 -14Q180 -14 145 -6T84 18T44 57T29
113Q29 142 41 164T71 202T112 228T157 242Q124 255 104 279T84 338Q84 370 101 396T146 441T212 470T290 480Q350 480 395 460T476 407L427 348Q398 374 366 389T290 405Q270 405 250 402T214 390T188 369T177 335Q177 302 203 288T266 274H361ZM419 684L333 540H266L326
684H419Z" />
<glyph unicode="&#x3ae;" glyph-name="null" horiz-adv-x="522" d="M25 0L95 364Q101 395 105 417T114 465H196L185 395Q220 433 259 454T349 476Q417 476 453 438T489 334Q489 325 488 310T484 279L391 -200H305L396 272Q398 285 399 295T401 317Q401 354 384
376T325 398Q292 398 264 384T213 345T175 288T153 220L111 0H25ZM446 684L360 540H293L353 684H446Z" />
<glyph unicode="&#x3af;" glyph-name="null" horiz-adv-x="293" d="M203 465L141 145Q136 122 136 106Q136 83 146 73T177 63Q192 63 204 67T227 78L254 11Q237 1 214 -6T160 -14Q100 -14 74 16T47 92Q47 107 49 122T55 154L116 465H203ZM540 684L454 540H387L447
684H540Z" />
<glyph unicode="&#x3b0;" glyph-name="null" horiz-adv-x="516" d="M196 465L148 208Q142 179 142 155Q142 112 165 88T244 64Q304 64 334 97T379 209L428 465H514L462 196Q453 150 438 112T398 45T334 2T238 -14Q149 -14 103 25T56 142Q56 171 62 206L111 465H196ZM406
678L339 534H273L320 678H406ZM435 651H522L504 562H417L435 651ZM167 651H256L238 562H149L167 651Z" />
<glyph unicode="&#x3b1;" glyph-name="null" horiz-adv-x="596" d="M417 273Q418 278 418 283T418 290Q418 340 389 372T308 404Q271 404 240 387T185 342T149 276T136 198Q136 131 169 97T253 62Q283 62 308 73T352 103T385 149T405 205L417 273ZM484 -15Q439
-15 416 7T387 57Q360 27 322 7T232 -14Q190 -14 156 1T98 42T60 106T47 189Q47 245 67 297T121 390T202 455T302 480Q354 480 389 457T444 399Q448 418 452 434T461 465H547Q540 443 536 423T528 389L474 116Q469 92 475 77T505 61Q515 61 523 64T539 70L560 2Q544
-6 524 -10T484 -15Z" />
<glyph unicode="&#x3b2;" glyph-name="null" horiz-adv-x="549" d="M-14 -200L115 463Q136 572 193 628T341 684Q424 684 472 641T520 524Q520 464 488 420T397 358Q447 342 477 301T507 199Q507 154 490 115T440 48T364 3T265 -13Q217 -13 182 -2T116 24L72 -200H-14ZM267
63Q339 63 380 100T422 200Q422 254 389 286T284 318H257L272 393H299Q357 393 396 426T436 518Q436 564 410 587T339 611Q279 611 247 572T202 465L131 98Q153 86 189 75T267 63Z" />
<glyph unicode="&#x3b3;" glyph-name="null" horiz-adv-x="482" d="M61 465H158L225 103L433 465H530L249 0L211 -200H124L162 2L61 465Z" />
<glyph unicode="&#x3b4;" glyph-name="null" horiz-adv-x="549" d="M486 562Q464 580 436 597T362 614Q324 614 298 599T271 552Q271 520 300 498T373 447Q400 430 425 410T471 365T503 308T515 237Q515 189 496 144T443 63T360 7T252 -14Q206 -14 169 -1T104
37T62 98T47 180Q47 230 64 271T111 345T178 400T257 438Q229 460 210 485T190 549Q190 577 202 602T236 645T290 673T363 684Q406 684 451 670T538 619L486 562ZM427 239Q427 270 418 294T393 336T357 369T316 396Q224 366 180 312T135 188Q135 125 168 94T256
63Q294 63 325 77T379 115T414 171T427 239Z" />
<glyph unicode="&#x3b5;" glyph-name="null" horiz-adv-x="486" d="M361 274L347 200H252Q226 200 203 197T161 184T133 161T122 126Q122 106 131 94T154 74T187 64T226 61Q286 61 326 79T393 121L440 61Q404 30 351 8T222 -14Q180 -14 145 -6T84 18T44 57T29
113Q29 142 41 164T71 202T112 228T157 242Q124 255 104 279T84 338Q84 370 101 396T146 441T212 470T290 480Q350 480 395 460T476 407L427 348Q398 374 366 389T290 405Q270 405 250 402T214 390T188 369T177 335Q177 302 203 288T266 274H361Z" />
<glyph unicode="&#x3b6;" glyph-name="null" horiz-adv-x="429" d="M530 667L518 604Q460 568 393 527T269 437T173 331T135 205Q135 172 144 150T171 113T211 89T263 73L279 69Q335 55 366 28T397 -52Q397 -112 358 -147T252 -198L233 -132Q267 -122 287 -106T308
-60Q308 -36 291 -24T233 -2L217 2Q192 8 162 19T107 52T64 107T46 193Q46 260 76 318T153 425T260 516T380 594H145L159 667H530Z" />
<glyph unicode="&#x3b7;" glyph-name="null" horiz-adv-x="522" d="M25 0L95 364Q101 395 105 417T114 465H196L185 395Q220 433 259 454T349 476Q417 476 453 438T489 334Q489 325 488 310T484 279L391 -200H305L396 272Q398 285 399 295T401 317Q401 354 384
376T325 398Q292 398 264 384T213 345T175 288T153 220L111 0H25Z" />
<glyph unicode="&#x3b8;" glyph-name="null" horiz-adv-x="547" d="M363 684Q454 684 499 622T545 442Q545 396 538 344T515 242T475 145T417 63T340 7T244 -14Q153 -14 108 48T62 228Q62 274 69 326T92 428T132 525T190 607T267 663T363 684ZM250 62Q290 62 322
82T377 137T417 214T444 301H150Q146 277 145 256T144 216Q144 62 250 62ZM357 608Q317 608 286 588T231 535T191 460T164 375H457Q463 418 463 454Q463 608 357 608Z" />
<glyph unicode="&#x3b9;" glyph-name="null" horiz-adv-x="293" d="M203 465L141 145Q136 122 136 106Q136 83 146 73T177 63Q192 63 204 67T227 78L254 11Q237 1 214 -6T160 -14Q100 -14 74 16T47 92Q47 107 49 122T55 154L116 465H203Z" />
<glyph unicode="&#x3ba;" glyph-name="null" horiz-adv-x="476" d="M200 465L160 262L396 465H499L281 273L436 0H341L214 218L139 156L110 0H25L115 465H200Z" />
<glyph unicode="&#x3bb;" glyph-name="null" horiz-adv-x="485" d="M96 632Q122 653 148 665T210 677Q250 677 274 661T311 620T331 563T344 501L438 0H344L289 342L80 0H-17L268 454L255 533Q244 599 201 599Q183 599 167 590T139 569L96 632Z" />
<glyph unicode="&#x3bc;" glyph-name="null" horiz-adv-x="525" d="M201 465L150 202Q148 191 146 176T144 147Q144 66 223 66Q257 66 284 79T331 115T365 166T385 227L431 465H517L445 95Q444 92 442 81T437 56T432 27T427 0H346Q348 16 350 29T357 66Q346 54
332 40T298 15T257 -3T206 -11Q172 -11 151 0T116 29L72 -200H-14L115 465H201Z" />
<glyph unicode="&#x3bd;" glyph-name="null" horiz-adv-x="482" d="M61 465H158L225 103L433 465H530L249 0H163L61 465Z" />
<glyph unicode="&#x3be;" glyph-name="null" horiz-adv-x="454" d="M426 403L412 322H328Q286 322 251 314T189 288T148 245T133 184Q133 156 142 138T170 107T213 86T272 72L287 69Q344 58 375 30T407 -52Q407 -83 396 -107T366 -149T320 -179T264 -199L243 -132Q279
-121 298 -105T317 -61Q317 -37 300 -26T239 -3L222 1Q192 8 161 18T105 47T63 96T47 174Q47 219 62 253T101 313T157 353T220 374Q187 388 161 420T135 506Q135 549 153 582T202 638T272 672T356 684Q410 684 454 666T536 612L483 555Q454 581 426 595T355 609Q327
609 303 602T260 582T231 547T220 499Q220 473 230 455T256 425T295 408T342 403H426Z" />
<glyph unicode="&#x3bf;" glyph-name="null" horiz-adv-x="545" d="M320 480Q363 480 399 466T461 426T501 361T516 273Q516 215 496 163T440 72T355 9T247 -14Q202 -14 166 0T103 40T62 105T47 191Q47 249 68 301T126 393T213 456T320 480ZM313 404Q278 404 246
389T189 346T150 282T135 200Q135 140 164 101T250 62Q284 62 316 76T373 118T413 182T428 266Q428 331 398 367T313 404Z" />
<glyph unicode="&#x3c0;" glyph-name="null" horiz-adv-x="606" d="M621 465L606 392H507L459 146Q454 121 454 105Q454 81 464 72T491 63Q504 63 513 67T533 76L561 9Q541 -1 519 -7T471 -14Q420 -14 394 13T367 88Q367 104 369 120T375 154L421 392H245L169
0H83L158 392H57L72 465H621Z" />
<glyph unicode="&#x3c1;" glyph-name="null" horiz-adv-x="545" d="M-14 -200L72 244Q82 297 103 340T157 415T230 463T322 480Q370 480 406 464T467 421T504 355T516 273Q516 210 494 157T433 66T345 7T241 -13Q206 -12 173 -4T116 19L73 -200H-14ZM130 95Q137
89 150 84T178 74T210 66T240 63Q279 61 313 76T373 118T414 183T429 269Q429 330 401 366T316 402Q283 402 257 390T211 357T178 306T158 241L130 95Z" />
<glyph unicode="&#x3c2;" glyph-name="null" horiz-adv-x="471" d="M311 -63Q311 -44 301 -32T265 -12L242 -5Q206 6 171 20T109 57T64 114T47 201Q47 255 66 305T121 394T204 456T312 480Q380 480 420 450T480 374L415 338Q396 371 372 387T310 404Q271 404 239
388T185 346T150 284T137 210Q137 178 145 156T171 117T213 89T271 68L293 62Q312 57 331 49T366 28T392 -5T402 -54Q402 -86 391 -109T359 -150T313 -179T256 -198L236 -133Q267 -123 289 -109T311 -63Z" />
<glyph unicode="&#x3c3;" glyph-name="null" horiz-adv-x="580" d="M606 465L592 392H461Q482 364 496 329T510 248Q510 197 491 150T438 66T355 8T248 -14Q203 -14 166 -1T103 39T63 102T48 186Q48 242 68 292T127 381T221 442T344 465H606ZM255 63Q294 63 325
79T379 122T414 185T426 262Q426 294 416 328T380 392H337Q291 392 254 377T191 335T150 272T136 194Q136 131 167 97T255 63Z" />
<glyph unicode="&#x3c4;" glyph-name="null" horiz-adv-x="450" d="M465 465L451 392H277L230 146Q225 121 225 108Q225 87 237 75T276 63Q293 63 308 68T337 81L364 13Q345 2 319 -6T258 -14Q194 -14 166 17T138 94Q138 108 140 123T145 154L190 392H57L71 465H465Z" />
<glyph unicode="&#x3c5;" glyph-name="null" horiz-adv-x="516" d="M196 465L148 208Q142 179 142 155Q142 112 165 88T244 64Q304 64 334 97T379 209L428 465H514L462 196Q453 150 438 112T398 45T334 2T238 -14Q149 -14 103 25T56 142Q56 171 62 206L111 465H196Z" />
<glyph unicode="&#x3c6;" glyph-name="null" horiz-adv-x="679" d="M396 667H476L439 475Q541 465 598 409T656 266Q656 215 635 168T574 83T475 22T344 -6L307 -200H227L265 -3Q163 7 106 63T48 206Q48 257 69 304T130 389T228 450T360 478L396 667ZM573 258Q573
315 537 355T425 403L358 66Q407 70 447 86T515 128T558 187T573 258ZM131 214Q131 157 167 117T279 69L346 406Q296 402 257 386T189 344T146 285T131 214Z" />
<glyph unicode="&#x3c7;" glyph-name="null" horiz-adv-x="510" d="M42 450Q66 467 89 473T133 480Q160 480 179 471T212 446T234 411T248 374L290 226L468 465H565L316 139L379 -67Q388 -97 400 -117T441 -137Q461 -137 482 -124L508 -188Q490 -199 469 -205T423
-212Q397 -212 378 -204T346 -181T323 -146T306 -102L253 73L50 -200H-47L226 161L178 331Q170 361 156 382T118 403Q107 403 96 399T74 387L42 450Z" />
<glyph unicode="&#x3c8;" glyph-name="null" horiz-adv-x="692" d="M196 465L159 273Q155 253 153 232T150 194Q150 136 185 105T285 67L389 611H469L364 67Q414 69 448 81T506 117T543 180T568 272L606 465H690L651 263Q640 205 623 156T573 72T487 16T349 -7L312
-200H233L270 -5Q165 7 115 59T65 188Q65 205 67 224T73 264L112 465H196Z" />
<glyph unicode="&#x3c9;" glyph-name="null" horiz-adv-x="724" d="M261 446Q235 422 212 393T170 330T140 258T129 179Q129 119 151 90T211 61Q250 61 279 92T320 189L351 355H437L412 227Q407 204 404 182T401 142Q401 103 422 82T478 61Q513 61 537 80T577
130T599 198T606 273Q606 324 594 367T559 447L635 474Q660 434 676 383T692 266Q692 215 681 165T644 76T580 11T486 -14Q435 -14 400 9T347 81Q318 33 280 10T197 -14Q170 -14 142 -4T92 28T56 85T42 170Q42 214 53 256T83 338T129 411T185 474L261 446Z" />
<glyph unicode="&#x3ca;" glyph-name="null" horiz-adv-x="293" d="M203 465L141 145Q136 122 136 106Q136 83 146 73T177 63Q192 63 204 67T227 78L254 11Q237 1 214 -6T160 -14Q100 -14 74 16T47 92Q47 107 49 122T55 154L116 465H203ZM482 651H571L553 560H464L482
651ZM317 651H408L390 560H299L317 651Z" />
<glyph unicode="&#x3cb;" glyph-name="null" horiz-adv-x="516" d="M196 465L148 208Q142 179 142 155Q142 112 165 88T244 64Q304 64 334 97T379 209L428 465H514L462 196Q453 150 438 112T398 45T334 2T238 -14Q149 -14 103 25T56 142Q56 171 62 206L111 465H196ZM380
651H469L451 560H362L380 651ZM215 651H306L288 560H197L215 651Z" />
<glyph unicode="&#x3cc;" glyph-name="null" horiz-adv-x="545" d="M320 480Q363 480 399 466T461 426T501 361T516 273Q516 215 496 163T440 72T355 9T247 -14Q202 -14 166 0T103 40T62 105T47 191Q47 249 68 301T126 393T213 456T320 480ZM313 404Q278 404 246
389T189 346T150 282T135 200Q135 140 164 101T250 62Q284 62 316 76T373 118T413 182T428 266Q428 331 398 367T313 404ZM448 684L362 540H295L355 684H448Z" />
<glyph unicode="&#x3cd;" glyph-name="null" horiz-adv-x="516" d="M196 465L148 208Q142 179 142 155Q142 112 165 88T244 64Q304 64 334 97T379 209L428 465H514L462 196Q453 150 438 112T398 45T334 2T238 -14Q149 -14 103 25T56 142Q56 171 62 206L111 465H196ZM441
684L355 540H288L348 684H441Z" />
<glyph unicode="&#x3ce;" glyph-name="null" horiz-adv-x="724" d="M261 446Q235 422 212 393T170 330T140 258T129 179Q129 119 151 90T211 61Q250 61 279 92T320 189L351 355H437L412 227Q407 204 404 182T401 142Q401 103 422 82T478 61Q513 61 537 80T577
130T599 198T606 273Q606 324 594 367T559 447L635 474Q660 434 676 383T692 266Q692 215 681 165T644 76T580 11T486 -14Q435 -14 400 9T347 81Q318 33 280 10T197 -14Q170 -14 142 -4T92 28T56 85T42 170Q42 214 53 256T83 338T129 411T185 474L261 446ZM545
684L459 540H392L452 684H545Z" />
<glyph unicode="&#x400;" glyph-name="null" d="M167 667H570L554 582H242L204 387H439L423 303H187L145 86H480L464 0H38L167 667ZM291 870H396L437 720H361L291 870Z" />
<glyph unicode="&#x401;" glyph-name="null" d="M167 667H570L554 582H242L204 387H439L423 303H187L145 86H480L464 0H38L167 667ZM440 844H537L518 746H421L440 844ZM253 844H349L330 746H234L253 844Z" />
<glyph unicode="&#x402;" glyph-name="null" horiz-adv-x="747" d="M195 0L308 583H101L117 667H660L644 583H400L363 394Q395 408 428 415T497 423Q539 423 577 411T644 375T691 314T708 227Q708 171 687 127T629 53T545 8T446 -8Q415 -8 384 -2L403 76Q422 72
445 72Q477 72 507 81T561 108T599 155T614 220Q614 252 603 275T573 314T529 336T475 344Q440 344 407 335T348 313L287 0H195Z" />
<glyph unicode="&#x403;" glyph-name="null" horiz-adv-x="496" d="M167 667H567L552 583H243L131 0H38L167 667ZM420 870H530L406 720H328L420 870Z" />
<glyph unicode="&#x404;" glyph-name="null" horiz-adv-x="654" d="M605 491Q549 600 429 600Q379 600 337 583T263 536T208 468T174 386H506L489 303H163Q163 252 175 209T210 134T269 86T352 68Q415 68 464 97T552 172L611 111Q589 85 561 62T500 21T428 -6T346
-16Q286 -16 235 4T147 62T89 155T68 282Q68 363 95 436T171 564T287 651T434 684Q522 684 586 645T681 533L605 491Z" />
<glyph unicode="&#x405;" glyph-name="null" horiz-adv-x="559" d="M85 153Q127 107 168 88T266 68Q327 68 368 100T409 189Q409 212 402 228T380 258T342 282T288 306Q254 320 224 337T172 375T137 423T124 485Q124 525 140 561T187 625T261 668T358 684Q427
684 474 658T554 586L489 531Q466 560 434 581T352 602Q288 602 254 574T220 499Q220 476 227 460T250 432T288 408T341 384Q377 369 406 353T458 315T492 265T504 199Q504 145 485 105T431 37T353 -3T258 -17Q229 -17 199 -12T138 6T78 40T22 95L85 153Z" />
<glyph unicode="&#x406;" glyph-name="null" horiz-adv-x="238" d="M167 667H259L130 0H38L167 667Z" />
<glyph unicode="&#x407;" glyph-name="null" horiz-adv-x="238" d="M167 667H259L130 0H38L167 667ZM546 844H643L624 746H527L546 844ZM359 844H455L436 746H340L359 844Z" />
<glyph unicode="&#x408;" glyph-name="null" horiz-adv-x="474" d="M54 130Q86 95 115 82T180 68Q205 68 226 73T265 93T295 133T316 198L407 667H499L405 180Q394 125 373 88T323 27T259 -7T184 -17Q124 -17 76 4T-4 69L54 130Z" />
<glyph unicode="&#x409;" glyph-name="null" horiz-adv-x="989" d="M588 583H382Q349 427 314 316T236 133T142 29T27 -4Q8 -4 -11 -1L5 83Q9 83 12 83T20 82Q61 82 98 107T172 198T243 377T314 667H695L647 421H747Q844 421 897 371T950 233Q950 183 932 141T880
67T795 18T680 0H475L588 583ZM581 80H687Q763 80 809 119T855 228Q855 283 825 312T734 342H632L581 80Z" />
<glyph unicode="&#x40a;" glyph-name="null" horiz-adv-x="962" d="M167 667H258L207 405H529L580 667H671L621 405H727Q821 405 872 357T923 224Q923 176 906 135T855 64T774 17T663 0H451L513 321H191L129 0H38L167 667ZM557 80H672Q743 80 786 116T829 218Q829
270 801 297T716 325H605L557 80Z" />
<glyph unicode="&#x40b;" glyph-name="null" horiz-adv-x="751" d="M286 0H194L307 583H101L117 667H660L644 583H399L361 389Q391 403 426 411T496 419Q592 419 641 367T690 230Q690 200 684 167L653 0H561L593 169Q598 197 598 217Q598 270 569 302T469 335Q436
335 402 327T345 304L286 0Z" />
<glyph unicode="&#x40c;" glyph-name="null" horiz-adv-x="586" d="M130 0H38L167 667H259L205 389H261Q299 389 324 405T374 453L537 667H644L463 431Q436 395 413 377T359 347Q388 336 406 315T440 256L541 0H438L352 224Q337 265 315 284T254 303H189L130 0ZM441
870H551L427 720H349L441 870Z" />
<glyph unicode="&#x40d;" glyph-name="null" horiz-adv-x="679" d="M571 0H480L580 519L124 0H38L167 667H258L158 150L611 667H700L571 0ZM349 870H454L495 720H419L349 870Z" />
<glyph unicode="&#x40e;" glyph-name="null" horiz-adv-x="581" d="M253 178L104 667H200L313 272L564 667H665L319 138Q294 100 272 71T226 23T178 -7T122 -17Q88 -17 61 -6T13 23L56 91Q70 80 88 72T127 63Q153 63 177 81T227 138L253 178ZM344 854Q343 850
343 847T343 840Q343 816 356 802T399 787Q435 787 455 807T483 854H557Q552 829 539 806T506 764T457 734T394 722Q332 722 302 752T271 829Q271 835 271 841T273 854H344Z" />
<glyph unicode="&#x40f;" glyph-name="null" horiz-adv-x="667" d="M559 0H341L312 -154H228L257 0H38L167 667H259L147 85H483L596 667H688L559 0Z" />
<glyph unicode="&#x410;" glyph-name="null" horiz-adv-x="625" d="M354 667H448L570 0H472L442 187H177L75 0H-25L354 667ZM429 266L381 563L219 266H429Z" />
<glyph unicode="&#x411;" glyph-name="null" horiz-adv-x="564" d="M167 667H550L534 586H242L208 407H330Q424 407 475 359T526 225Q526 177 509 136T458 65T376 17T265 0H38L167 667ZM193 328L144 80H272Q344 80 387 117T431 220Q431 272 402 300T316 328H193Z" />
<glyph unicode="&#x412;" glyph-name="null" horiz-adv-x="560" d="M167 667H375Q418 667 450 656T505 624T538 578T550 522Q550 483 538 455T507 408T466 376T422 354Q442 349 461 337T494 308T518 267T527 216Q527 156 504 115T443 48T354 11T248 0H38L167 667ZM319
387Q343 387 367 393T412 414T445 449T458 502Q458 527 450 543T427 569T393 582T350 586H240L202 387H319ZM275 82Q309 82 338 89T388 112T421 152T433 210Q433 239 424 258T398 288T359 303T310 308H186L143 82H275Z" />
<glyph unicode="&#x413;" glyph-name="null" horiz-adv-x="496" d="M167 667H567L552 583H243L131 0H38L167 667Z" />
<glyph unicode="&#x414;" glyph-name="null" horiz-adv-x="693" d="M710 667L597 84H647L601 -154H517L547 0H77L47 -154H-37L8 84H55Q112 148 152 211T224 345T279 493T326 667H710ZM606 583H390Q368 497 345 426T294 295T234 183T162 84H507L606 583Z" />
<glyph unicode="&#x415;" glyph-name="null" d="M167 667H570L554 582H242L204 387H439L423 303H187L145 86H480L464 0H38L167 667Z" />
<glyph unicode="&#x416;" glyph-name="null" horiz-adv-x="840" d="M431 0H342L401 303H340Q311 303 286 285T233 224L85 0H-20L153 256Q182 299 206 319T259 348Q237 359 221 382T194 443L134 667H227L281 460Q300 388 359 388H416L471 667H560L505 388H558Q591
388 615 405T662 460L797 667H898L739 425Q701 368 648 348Q673 338 690 317T718 256L793 0H693L633 224Q622 265 603 284T552 303H490L431 0Z" />
<glyph unicode="&#x417;" glyph-name="null" horiz-adv-x="548" d="M216 387H314Q339 387 364 394T411 417T445 455T458 508Q458 556 426 580T344 604Q290 604 250 578T176 517L121 575Q138 595 161 614T214 649T279 674T353 684Q398 684 434 672T496 637T534
584T548 518Q548 454 508 407T404 343Q422 338 440 327T474 298T498 255T508 197Q508 150 489 111T435 44T357 0T261 -16Q217 -16 180 -5T112 24T61 64T26 110L94 162Q103 146 118 129T155 98T204 75T264 66Q297 66 324 75T372 102T403 144T415 199Q415 227 405
247T380 279T344 298T304 304H200L216 387Z" />
<glyph unicode="&#x418;" glyph-name="null" horiz-adv-x="679" d="M571 0H480L580 519L124 0H38L167 667H258L158 150L611 667H700L571 0Z" />
<glyph unicode="&#x419;" glyph-name="null" horiz-adv-x="679" d="M571 0H480L580 519L124 0H38L167 667H258L158 150L611 667H700L571 0ZM402 854Q401 850 401 847T401 840Q401 816 414 802T457 787Q493 787 513 807T541 854H615Q610 829 597 806T564 764T515
734T452 722Q390 722 360 752T329 829Q329 835 329 841T331 854H402Z" />
<glyph unicode="&#x41a;" glyph-name="null" horiz-adv-x="586" d="M130 0H38L167 667H259L205 389H261Q299 389 324 405T374 453L537 667H644L463 431Q436 395 413 377T359 347Q388 336 406 315T440 256L541 0H438L352 224Q337 265 315 284T254 303H189L130 0Z" />
<glyph unicode="&#x41b;" glyph-name="null" horiz-adv-x="688" d="M580 0H488L601 583H382Q349 427 314 316T236 133T142 29T27 -4Q8 -4 -11 -1L5 83Q9 83 12 83T20 82Q61 82 98 107T172 198T243 377T314 667H709L580 0Z" />
<glyph unicode="&#x41c;" glyph-name="null" horiz-adv-x="756" d="M189 667H276L397 317L664 667H754L654 0H564L642 512L399 197H354L237 512L117 0H30L189 667Z" />
<glyph unicode="&#x41d;" glyph-name="null" horiz-adv-x="681" d="M167 667H259L205 387H556L610 667H702L573 0H481L539 303H188L130 0H38L167 667Z" />
<glyph unicode="&#x41e;" glyph-name="null" horiz-adv-x="743" d="M165 281Q165 236 177 198T214 131T276 86T361 70Q422 70 472 97T559 169T614 269T634 382Q634 427 623 466T588 535T528 582T441 599Q376 599 325 571T238 498T184 396T165 281ZM448 684Q508
684 560 665T650 609T710 520T732 403Q732 321 705 245T629 111T511 18T359 -17Q293 -17 240 4T148 62T88 151T67 264Q67 348 94 424T172 558T292 650T448 684Z" />
<glyph unicode="&#x41f;" glyph-name="null" horiz-adv-x="672" d="M167 667H693L564 0H472L585 583H243L131 0H38L167 667Z" />
<glyph unicode="&#x420;" glyph-name="null" horiz-adv-x="543" d="M167 667H364Q417 667 454 652T513 612T546 557T556 498Q556 436 535 392T477 318T392 276T291 262H179L129 0H38L167 667ZM306 342Q378 342 419 379T460 488Q460 533 433 560T351 588H243L195 342H306Z" />
<glyph unicode="&#x421;" glyph-name="null" horiz-adv-x="653" d="M612 107Q563 49 497 16T349 -17Q284 -17 233 4T144 64T88 156T68 275Q68 355 96 429T174 559T295 650T448 684Q535 684 591 647T680 545L608 499Q577 552 539 575T439 599Q378 599 328 573T241
503T186 402T166 283Q166 238 178 199T214 132T273 87T353 70Q417 70 465 96T550 168L612 107Z" />
<glyph unicode="&#x422;" glyph-name="null" horiz-adv-x="596" d="M330 585H101L117 667H667L651 585H423L310 0H217L330 585Z" />
<glyph unicode="&#x423;" glyph-name="null" horiz-adv-x="581" d="M253 178L104 667H200L313 272L564 667H665L319 138Q294 100 272 71T226 23T178 -7T122 -17Q88 -17 61 -6T13 23L56 91Q70 80 88 72T127 63Q153 63 177 81T227 138L253 178Z" />
<glyph unicode="&#x424;" glyph-name="null" horiz-adv-x="766" d="M299 -35L315 50Q257 57 212 78T136 132T89 208T72 303Q72 370 98 428T172 529T284 599T427 629L442 705H527L511 626Q569 620 614 599T690 545T737 469T754 374Q754 307 728 249T654 147T542
77T399 47L383 -35H299ZM162 312Q162 238 204 189T331 130L412 551Q355 547 309 528T230 476T180 402T162 312ZM664 365Q664 438 622 488T496 547L414 126Q471 130 517 149T596 201T646 275T664 365Z" />
<glyph unicode="&#x425;" glyph-name="null" horiz-adv-x="586" d="M264 350L116 667H220L330 419L529 667H636L369 343L529 0H423L302 272L82 0H-26L264 350Z" />
<glyph unicode="&#x426;" glyph-name="null" horiz-adv-x="667" d="M571 85H625L579 -154H495L524 0H38L167 667H259L147 85H479L592 667H684L571 85Z" />
<glyph unicode="&#x427;" glyph-name="null" horiz-adv-x="596" d="M525 667H617L488 0H396L451 286Q421 273 386 265T313 257Q219 257 170 309T121 446Q121 476 127 509L157 667H249L218 507Q216 494 215 483T213 459Q213 407 243 374T342 341Q377 341 411 349T468
372L525 667Z" />
<glyph unicode="&#x428;" glyph-name="null" horiz-adv-x="1004" d="M896 0H38L167 667H259L146 85H437L550 667H642L529 85H820L933 667H1025L896 0Z" />
<glyph unicode="&#x429;" glyph-name="null" horiz-adv-x="1002" d="M960 85L914 -154H830L859 0H38L167 667H259L146 85H434L547 667H639L526 85H814L927 667H1019L906 85H960Z" />
<glyph unicode="&#x42a;" glyph-name="null" horiz-adv-x="653" d="M257 583H109L125 667H364L316 421H421Q518 421 571 371T624 233Q624 183 606 141T554 67T469 18T354 0H144L257 583ZM250 80H361Q437 80 483 119T529 228Q529 283 499 312T408 342H301L250 80Z" />
<glyph unicode="&#x42b;" glyph-name="null" horiz-adv-x="761" d="M690 667H782L653 0H561L690 667ZM167 667H258L210 421H309Q406 421 459 371T512 233Q512 183 494 141T442 67T357 18T242 0H38L167 667ZM144 80H249Q325 80 371 119T417 228Q417 283 387 312T296
342H195L144 80Z" />
<glyph unicode="&#x42c;" glyph-name="null" horiz-adv-x="561" d="M172 667H263L215 421H329Q426 421 479 371T532 233Q532 183 514 141T462 67T377 18T262 0H43L172 667ZM149 80H269Q345 80 391 119T437 228Q437 283 407 312T316 342H200L149 80Z" />
<glyph unicode="&#x42d;" glyph-name="null" horiz-adv-x="649" d="M280 68Q332 68 374 86T450 137T504 212T536 303H205L222 386H544Q543 426 533 464T501 533T445 581T361 600Q296 600 246 570T158 495L98 553Q143 610 211 647T365 684Q424 684 474 664T561
606T618 513T639 386Q639 305 612 232T537 104T422 17T275 -16Q187 -16 122 24T26 135L102 177Q131 121 175 95T280 68Z" />
<glyph unicode="&#x42e;" glyph-name="null" horiz-adv-x="992" d="M708 684Q767 684 817 664T903 607T960 515T981 391Q981 311 954 238T879 108T764 17T617 -17Q556 -17 506 3T419 61T363 152T343 271Q343 283 343 290T345 303H189L130 0H38L167 667H259L205
387H357Q373 449 405 503T482 597T585 661T708 684ZM436 285Q436 239 447 200T482 132T540 87T619 71Q677 71 725 97T809 166T863 266T883 385Q883 430 872 469T839 536T782 581T701 598Q642 598 594 572T510 502T456 402T436 285Z" />
<glyph unicode="&#x42f;" glyph-name="null" horiz-adv-x="564" d="M434 346L481 587H353Q322 587 296 579T250 554T219 513T208 458Q208 409 238 378T331 346H434ZM585 667L456 0H367L419 267H353Q333 267 318 263T290 248T263 222T235 184L106 0H4L153 210Q175
242 194 260T237 289Q211 296 189 310T151 346T125 393T115 452Q115 501 133 541T183 609T260 652T357 667H585Z" />
<glyph unicode="&#x430;" glyph-name="null" horiz-adv-x="489" d="M316 0L324 56Q289 20 250 4T171 -13Q143 -13 118 -5T73 19T43 61T32 120Q32 158 47 191T91 248T165 286T267 300Q293 300 322 298T369 291L373 313Q374 319 374 324T375 335Q375 373 349 392T276
412Q228 412 195 396T143 367L107 425Q119 435 137 445T179 465T231 479T290 485Q335 485 366 473T418 441T447 394T456 339Q456 331 455 322T452 300L412 93Q407 67 403 42T396 0H316ZM356 225Q342 227 321 229T272 232Q227 232 198 224T150 202T125 169T118 129Q118
95 135 77T193 58Q220 58 245 66T291 91T327 130T348 185L356 225Z" />
<glyph unicode="&#x431;" glyph-name="null" horiz-adv-x="561" d="M556 595L434 583Q377 577 335 563T263 523T211 461T173 375Q248 449 346 449Q386 449 419 436T477 397T514 336T528 254Q528 203 510 155T459 69T377 9T269 -14Q214 -14 175 4T112 52T76 124T64
211Q64 268 79 325Q99 404 128 462T198 560T295 623T425 654L547 667L556 595ZM272 59Q310 59 341 75T394 117T428 177T440 249Q440 309 409 342T321 376Q283 376 252 361T197 321T161 262T148 192Q148 165 155 141T178 99T216 70T272 59Z" />
<glyph unicode="&#x432;" glyph-name="null" horiz-adv-x="493" d="M159 273H289Q328 273 356 291T385 349Q385 404 317 404H184L159 273ZM25 0L116 471H338Q374 471 399 462T440 438T463 403T471 361Q471 315 443 284T373 242Q405 234 427 209T450 139Q450 105
436 79T398 36T341 9T268 0H25ZM119 67H265Q284 67 302 71T334 84T357 108T366 145Q366 181 342 195T279 209H146L119 67Z" />
<glyph unicode="&#x433;" glyph-name="null" horiz-adv-x="401" d="M412 394H187L111 0H25L116 471H427L412 394Z" />
<glyph unicode="&#x434;" glyph-name="null" horiz-adv-x="565" d="M543 471L466 74H516L477 -124H398L422 0H58L34 -124H-45L-6 74H42Q78 111 105 156T154 252T192 358T223 471H543ZM382 74L445 397H282Q254 285 220 208T142 74H382Z" />
<glyph unicode="&#x435;" glyph-name="null" horiz-adv-x="517" d="M133 212V202Q133 134 163 98T260 61Q301 61 333 75T397 121L446 69Q413 34 364 10T249 -14Q150 -14 99 42T48 193Q48 251 67 304T120 398T203 462T310 486Q358 486 392 471T447 428T478 366T488
292Q488 252 479 212H133ZM405 278Q406 283 406 288T406 299Q406 349 380 382T300 416Q245 416 203 378T143 278H405Z" />
<glyph unicode="&#x436;" glyph-name="null" horiz-adv-x="697" d="M270 0L309 202H264Q238 202 222 190T183 147L70 0H-25L107 171Q130 200 147 216T190 241Q166 254 153 275T130 323L79 471H160L209 336Q219 307 233 292T276 276H323L361 471H444L406 276H456Q483
276 501 292T544 340L642 471H728L605 305Q588 282 570 265T528 240Q550 231 562 213T586 169L651 0H562L504 154Q496 177 484 189T441 202H392L353 0H270Z" />
<glyph unicode="&#x437;" glyph-name="null" horiz-adv-x="444" d="M146 276H225Q276 276 311 294T347 352Q347 381 325 398T259 415Q211 415 177 397T111 353L69 408Q106 443 157 464T269 486Q346 486 389 452T432 364Q432 317 402 285T326 239Q360 228 381 202T402
133Q402 96 386 69T342 23T277 -4T199 -13Q133 -13 82 8T1 67L49 119Q74 91 112 75T200 59Q223 59 244 63T281 76T308 100T318 137Q318 174 291 189T215 205H132L146 276Z" />
<glyph unicode="&#x438;" glyph-name="null" horiz-adv-x="533" d="M355 0L423 351L103 0H25L116 471H199L132 124L449 471H529L438 0H355Z" />
<glyph unicode="&#x439;" glyph-name="null" horiz-adv-x="533" d="M355 0L423 351L103 0H25L116 471H199L132 124L449 471H529L438 0H355ZM290 662V654Q290 628 304 614T346 600Q407 600 425 662H488Q479 610 439 577T340 543Q286 543 257 570T227 640Q227 645
227 651T229 662H290Z" />
<glyph unicode="&#x43a;" glyph-name="null" horiz-adv-x="483" d="M25 0L116 471H202L164 277H221Q252 277 272 294T317 340L422 471H514L390 315Q367 287 348 270T300 243Q324 235 338 216T365 168L438 0H343L277 154Q268 175 257 189T215 203H150L111 0H25Z" />
<glyph unicode="&#x43b;" glyph-name="null" horiz-adv-x="562" d="M558 471L467 0H381L457 394H294Q268 287 242 212T185 90T116 20T26 -2Q18 -2 11 -2T-5 0L10 77H18Q55 77 83 99T136 168T182 290T230 471H558Z" />
<glyph unicode="&#x43c;" glyph-name="null" horiz-adv-x="604" d="M267 129L180 348L98 0H17L130 471H207L306 220L507 471H588L516 0H432L487 348L312 129H267Z" />
<glyph unicode="&#x43d;" glyph-name="null" horiz-adv-x="536" d="M532 471L441 0H355L394 202H150L111 0H25L116 471H202L165 278H409L446 471H532Z" />
<glyph unicode="&#x43e;" glyph-name="null" horiz-adv-x="549" d="M323 486Q367 486 403 472T465 431T505 365T520 277Q520 218 500 165T443 73T358 10T249 -14Q204 -14 167 0T103 41T62 106T47 193Q47 251 68 304T126 398T214 462T323 486ZM315 410Q279 410
247 394T189 351T150 285T135 202Q135 141 164 102T252 62Q286 62 318 77T376 119T417 185T432 270Q432 336 402 373T315 410Z" />
<glyph unicode="&#x43f;" glyph-name="null" horiz-adv-x="536" d="M532 471L441 0H355L431 394H187L111 0H25L116 471H532Z" />
<glyph unicode="&#x440;" glyph-name="null" horiz-adv-x="541" d="M-14 -200L96 370Q102 401 106 423T115 471H197L186 401Q193 410 207 424T242 452T290 476T350 486Q385 486 415 474T466 438T500 376T513 290Q513 224 491 168T431 72T342 9T234 -14Q199 -14
172 -5T114 23L71 -200H-14ZM130 101Q151 82 177 72T235 62Q278 62 313 79T372 127T410 199T423 287Q423 344 402 376T329 409Q297 409 268 396T216 358T177 300T153 225L130 101Z" />
<glyph unicode="&#x441;" glyph-name="null" horiz-adv-x="476" d="M428 64Q396 30 351 8T246 -14Q152 -14 100 41T47 194Q47 254 67 307T124 400T209 463T315 486Q435 486 481 380L414 343Q399 374 375 392T309 410Q270 410 239 393T185 348T150 282T137 203Q137
135 170 99T259 62Q294 62 324 77T380 118L428 64Z" />
<glyph unicode="&#x442;" glyph-name="null" horiz-adv-x="472" d="M498 471L483 394H320L244 0H158L234 394H71L86 471H498Z" />
<glyph unicode="&#x443;" glyph-name="null" horiz-adv-x="483" d="M-7 -119Q5 -128 20 -133T49 -139Q64 -139 76 -133T101 -112T126 -76T157 -23L174 7L66 471H162L236 114L432 471H529L215 -71Q195 -105 178 -131T141 -176T100 -203T48 -213Q24 -213 0 -204T-40
-181L-7 -119Z" />
<glyph unicode="&#x444;" glyph-name="null" horiz-adv-x="686" d="M396 667H476L439 478Q490 473 530 456T598 411T641 347T656 266Q656 213 635 165T574 80T475 19T344 -9L307 -200H227L265 -6Q214 -1 174 16T106 61T63 125T48 206Q48 258 69 306T130 392T228
453T360 481L396 667ZM573 258Q573 318 537 358T425 406L358 63Q407 67 447 83T515 126T558 185T573 258ZM131 214Q131 154 167 114T279 66L346 409Q296 405 257 389T189 346T146 287T131 214Z" />
<glyph unicode="&#x445;" glyph-name="null" horiz-adv-x="469" d="M199 251L84 471H182L261 310L396 471H500L298 246L425 0H328L237 185L82 0H-24L199 251Z" />
<glyph unicode="&#x446;" glyph-name="null" horiz-adv-x="547" d="M499 77L460 -124H381L405 0H25L116 471H202L126 77H363L439 471H525L449 77H499Z" />
<glyph unicode="&#x447;" glyph-name="null" horiz-adv-x="497" d="M493 471L402 0H316L352 188Q329 177 302 170T248 163Q211 163 180 173T127 202T92 249T79 313Q79 324 80 334T84 357L106 471H192L170 357Q167 340 167 327Q167 287 191 262T273 236Q299 236
323 243T366 261L407 471H493Z" />
<glyph unicode="&#x448;" glyph-name="null" horiz-adv-x="800" d="M25 0L116 471H202L126 77H337L413 471H499L423 77H634L710 471H796L705 0H25Z" />
<glyph unicode="&#x449;" glyph-name="null" horiz-adv-x="815" d="M767 77L728 -124H649L673 0H25L116 471H202L126 77H335L411 471H497L421 77H631L707 471H793L717 77H767Z" />
<glyph unicode="&#x44a;" glyph-name="null" horiz-adv-x="565" d="M294 471L264 314H376Q444 314 486 277T529 172Q529 134 515 102T475 48T414 13T336 0H119L195 394H71L86 471H294ZM217 70H342Q384 70 413 96T443 168Q443 200 424 222T360 244H250L217 70Z" />
<glyph unicode="&#x44b;" glyph-name="null" horiz-adv-x="662" d="M572 471H658L567 0H481L572 471ZM123 70H247Q289 70 318 96T348 168Q348 200 329 222T265 244H156L123 70ZM200 471L170 314H281Q349 314 391 277T434 172Q434 134 420 102T380 48T319 13T241
0H25L116 471H200Z" />
<glyph unicode="&#x44c;" glyph-name="null" horiz-adv-x="478" d="M123 70H255Q297 70 326 96T356 168Q356 200 337 222T273 244H156L123 70ZM200 471L170 314H289Q357 314 399 277T442 172Q442 134 428 102T388 48T327 13T249 0H25L116 471H200Z" />
<glyph unicode="&#x44d;" glyph-name="null" horiz-adv-x="478" d="M193 59Q226 59 252 70T300 100T335 146T358 202H150L165 275H368Q367 347 333 380T247 414Q206 414 173 396T113 352L68 407Q103 442 151 464T257 486Q300 486 336 473T397 433T437 367T452
277Q452 219 433 166T380 73T298 10T191 -14Q156 -14 128 -6T77 17T38 50T11 90L74 128Q91 97 120 78T193 59Z" />
<glyph unicode="&#x44e;" glyph-name="null" horiz-adv-x="751" d="M458 -14Q414 -14 379 0T318 42T278 107T264 194V202H151L112 0H25L117 471H203L166 278H275Q287 321 310 359T366 425T440 470T528 486Q572 486 607 472T668 430T708 365T722 278Q722 221 703
168T648 75T565 10T458 -14ZM519 409Q483 409 452 393T398 348T362 283T349 203Q349 139 379 101T464 63Q500 63 531 79T585 124T621 189T634 270Q634 333 605 371T519 409Z" />
<glyph unicode="&#x44f;" glyph-name="null" horiz-adv-x="490" d="M389 402H271Q224 402 196 378T168 312Q168 278 187 260T241 242H358L389 402ZM311 0L345 175H265Q238 175 221 164T181 121L95 0H-1L102 138Q120 162 134 176T169 198Q136 208 109 236T82 318Q82
353 95 381T134 430T195 460T274 471H486L395 0H311Z" />
<glyph unicode="&#x450;" glyph-name="null" horiz-adv-x="517" d="M133 212V202Q133 134 163 98T260 61Q301 61 333 75T397 121L446 69Q413 34 364 10T249 -14Q150 -14 99 42T48 193Q48 251 67 304T120 398T203 462T310 486Q358 486 392 471T447 428T478 366T488
292Q488 252 479 212H133ZM405 278Q406 283 406 288T406 299Q406 349 380 382T300 416Q245 416 203 378T143 278H405ZM244 681H337L365 545H296L244 681Z" />
<glyph unicode="&#x451;" glyph-name="null" horiz-adv-x="517" d="M133 212V202Q133 134 163 98T260 61Q301 61 333 75T397 121L446 69Q413 34 364 10T249 -14Q150 -14 99 42T48 193Q48 251 67 304T120 398T203 462T310 486Q358 486 392 471T447 428T478 366T488
292Q488 252 479 212H133ZM405 278Q406 283 406 288T406 299Q406 349 380 382T300 416Q245 416 203 378T143 278H405ZM374 657H463L445 566H356L374 657ZM209 657H300L282 566H191L209 657Z" />
<glyph unicode="&#x452;" glyph-name="null" horiz-adv-x="520" d="M128 533H63L75 595H140L154 667H238L224 595H404L392 533H212L184 389Q199 405 216 419T252 445T294 463T344 470Q383 470 411 455T457 414T483 351T492 271Q492 208 475 144T428 17T356 -102T264
-205L204 -148Q246 -109 282 -60T345 42T387 152T403 264Q403 326 382 359T314 392Q283 392 256 378T208 338T173 280T151 208L111 0H25L128 533Z" />
<glyph unicode="&#x453;" glyph-name="null" horiz-adv-x="401" d="M412 394H187L111 0H25L116 471H427L412 394ZM324 679H419L321 543H250L324 679Z" />
<glyph unicode="&#x454;" glyph-name="null" horiz-adv-x="482" d="M313 413Q282 413 255 402T207 373T169 329T143 275H350L336 202H131Q131 171 139 145T165 99T206 69T262 58Q297 58 331 73T392 116L435 60Q399 23 352 5T251 -14Q204 -14 167 1T103 43T62 109T47
196Q47 253 67 305T124 398T209 462T315 486Q349 486 377 478T427 455T464 422T487 382L422 344Q405 378 379 395T313 413Z" />
<glyph unicode="&#x455;" glyph-name="null" horiz-adv-x="441" d="M59 114Q92 88 125 75T201 61Q252 61 276 79T300 126Q300 151 280 166T215 202Q184 216 160 229T119 259T93 295T84 344Q84 380 98 406T137 451T192 477T259 486Q305 486 348 470T428 416L376
362Q352 385 322 399T254 413Q216 413 194 399T172 355Q172 341 177 331T195 312T225 294T271 272Q296 261 318 250T356 223T382 188T392 137Q392 67 340 27T200 -14Q152 -14 103 1T12 52L59 114Z" />
<glyph unicode="&#x456;" glyph-name="null" horiz-adv-x="207" d="M144 655H241L221 554H124L144 655ZM116 471H203L112 0H25L116 471Z" />
<glyph unicode="&#x457;" glyph-name="null" horiz-adv-x="207" d="M230 657H319L301 566H212L230 657ZM65 657H156L138 566H47L65 657ZM116 471H203L112 0H25L116 471Z" />
<glyph unicode="&#x458;" glyph-name="null" horiz-adv-x="206" d="M-116 -101Q-104 -110 -88 -116T-54 -123Q-42 -123 -31 -119T-11 -104T6 -73T20 -23L116 471H203L100 -54Q94 -83 84 -109T56 -156T14 -188T-46 -200Q-80 -200 -107 -190T-151 -166L-116 -101ZM144
655H241L221 554H124L144 655Z" />
<glyph unicode="&#x459;" glyph-name="null" horiz-adv-x="822" d="M552 471L522 314H633Q701 314 743 277T786 172Q786 134 772 102T732 48T671 13T593 0H377L453 394H294Q268 287 242 212T185 90T116 20T26 -2Q18 -2 11 -2T-5 0L10 77H18Q55 77 83 99T136 168T182
290T230 471H552ZM475 70H599Q641 70 670 96T700 168Q700 200 681 222T617 244H508L475 70Z" />
<glyph unicode="&#x45a;" glyph-name="null" horiz-adv-x="795" d="M392 222H152L109 0H25L116 471H200L167 298H406L440 471H524L491 298H614Q678 298 718 263T759 163Q759 127 746 97T708 46T650 12T576 0H349L392 222ZM446 69H584Q622 69 648 92T675 157Q675
186 657 205T600 225H476L446 69Z" />
<glyph unicode="&#x45b;" glyph-name="null" horiz-adv-x="522" d="M75 595H140L154 667H238L224 595H404L392 533H212L184 389Q219 427 258 448T348 470Q416 470 452 432T488 328Q488 319 487 304T483 273L430 0H344L395 266Q397 279 398 289T400 310Q400 347
383 369T323 392Q290 392 262 378T212 339T174 282T152 215L111 0H25L128 533H63L75 595Z" />
<glyph unicode="&#x45c;" glyph-name="null" horiz-adv-x="483" d="M25 0L116 471H202L164 277H221Q252 277 272 294T317 340L422 471H514L390 315Q367 287 348 270T300 243Q324 235 338 216T365 168L438 0H343L277 154Q268 175 257 189T215 203H150L111 0H25ZM356
683H451L353 547H282L356 683Z" />
<glyph unicode="&#x45d;" glyph-name="null" horiz-adv-x="533" d="M355 0L423 351L103 0H25L116 471H199L132 124L449 471H529L438 0H355ZM250 683H343L371 547H302L250 683Z" />
<glyph unicode="&#x45e;" glyph-name="null" horiz-adv-x="483" d="M-7 -119Q5 -128 20 -133T49 -139Q64 -139 76 -133T101 -112T126 -76T157 -23L174 7L66 471H162L236 114L432 471H529L215 -71Q195 -105 178 -131T141 -176T100 -203T48 -213Q24 -213 0 -204T-40
-181L-7 -119ZM250 664V656Q250 630 264 616T306 602Q367 602 385 664H448Q439 612 399 579T300 545Q246 545 217 572T187 642Q187 647 187 653T189 664H250Z" />
<glyph unicode="&#x45f;" glyph-name="null" horiz-adv-x="530" d="M25 0L116 471H202L126 77H364L440 471H526L435 0H270L246 -124H167L191 0H25Z" />
<glyph unicode="&#x462;" glyph-name="null" horiz-adv-x="696" d="M318 711H409L390 615H621L606 536H375L349 403H473Q566 403 616 356T667 223Q667 175 650 135T600 64T519 17T409 0H180L284 536H94L110 615H299L318 711ZM333 324L286 80H416Q487 80 529 116T572
218Q572 269 544 296T460 324H333Z" />
<glyph unicode="&#x463;" glyph-name="null" horiz-adv-x="588" d="M279 294H408Q472 294 512 259T552 161Q552 125 539 96T501 45T444 12T371 0H137L214 400H73L87 471H228L266 667H351L313 471H483L469 400H299L279 294ZM235 67H373Q412 67 439 91T466 158Q466
187 448 207T390 228H266L235 67Z" />
<glyph unicode="&#x472;" glyph-name="null" horiz-adv-x="743" d="M448 684Q508 684 560 665T651 610T711 519T733 394Q733 316 706 242T630 111T511 18T356 -17Q294 -17 242 2T151 59T90 151T68 275Q68 352 95 425T173 556T293 649T448 684ZM161 304V283Q161
236 174 197T212 129T274 84T359 67Q412 67 456 86T536 137T595 213T630 304H161ZM640 380V385Q640 429 628 468T592 537T531 584T442 602Q389 602 346 584T268 536T211 465T174 380H640Z" />
<glyph unicode="&#x473;" glyph-name="null" horiz-adv-x="549" d="M323 486Q367 486 403 472T465 431T505 365T520 277Q520 218 500 165T443 73T358 10T249 -14Q204 -14 167 0T103 41T62 106T47 193Q47 251 68 304T126 398T214 462T323 486ZM250 59Q279 59 307
69T359 98T401 144T429 205H129Q129 139 159 99T250 59ZM316 413Q286 413 258 403T206 373T165 328T138 269H438Q438 338 406 375T316 413Z" />
<glyph unicode="&#x474;" glyph-name="null" horiz-adv-x="684" d="M104 667H203L292 120L521 545Q556 610 600 642T707 674Q727 674 755 669L740 587Q733 588 727 588T713 589Q677 589 650 571T600 511L316 0H222L104 667Z" />
<glyph unicode="&#x475;" glyph-name="null" horiz-adv-x="542" d="M65 471H162L228 104L381 376Q409 426 444 451T530 476Q547 476 568 473L553 397Q547 398 542 398T531 399Q507 399 489 387T452 342L252 0H166L65 471Z" />
<glyph unicode="&#x48a;" glyph-name="null" horiz-adv-x="677" d="M474 0L574 519L124 0H38L167 667H258L158 150L605 667H694L581 84H635L629 54Q613 -28 577 -85T480 -181L435 -122Q470 -96 496 -67T536 0H474ZM399 854Q398 850 398 847T398 840Q398 816 411
802T454 787Q490 787 510 807T538 854H612Q607 829 594 806T561 764T512 734T449 722Q386 722 356 751T326 829Q326 835 326 841T328 854H399Z" />
<glyph unicode="&#x48b;" glyph-name="null" horiz-adv-x="551" d="M355 0L423 351L103 0H25L116 471H199L132 124L449 471H529L453 77H503L498 51Q485 -21 452 -68T370 -148L325 -94Q352 -74 373 -51T407 0H355ZM290 662V654Q290 628 304 614T346 600Q407 600
425 662H488Q479 610 439 577T340 543Q286 543 257 570T227 640Q227 645 227 651T229 662H290Z" />
<glyph unicode="&#x48c;" glyph-name="null" horiz-adv-x="564" d="M177 667H268L251 578H413L399 507H237L219 412H337Q432 412 483 363T535 229Q535 179 518 138T466 65T383 17T270 0H48L146 507H77L91 578H160L177 667ZM203 333L154 80H277Q352 80 396 118T441
223Q441 276 411 304T323 333H203Z" />
<glyph unicode="&#x48d;" glyph-name="null" horiz-adv-x="488" d="M214 487L202 423H365L353 365H190L176 294H308Q372 294 412 259T452 161Q452 125 439 96T401 45T344 12T271 0H35L106 365H42L54 423H118L130 487H214ZM132 67H271Q310 67 337 91T364 157Q364
187 346 207T288 227H163L132 67Z" />
<glyph unicode="&#x48e;" glyph-name="null" horiz-adv-x="545" d="M167 667H366Q417 667 453 653T513 615T547 557T558 487Q558 409 518 359T415 283L446 200L389 180L357 267Q341 265 326 264T293 262H180L129 0H38L167 667ZM194 338H310Q315 338 320 338T331
339L297 434L354 454L390 354Q425 371 444 403T464 481Q464 588 355 588H242L194 338Z" />
<glyph unicode="&#x48f;" glyph-name="null" horiz-adv-x="541" d="M-14 -200L96 370Q103 404 105 419T109 441T111 452T115 471H197L186 401Q193 410 207 424T242 452T290 476T350 486Q385 486 415 474T466 438T500 376T513 290Q513 199 474 130T370 23L397 -51L341
-70L316 -1Q296 -7 276 -10T234 -14Q199 -14 172 -5T114 23L71 -200H-14ZM130 98Q151 79 177 69T235 59Q265 59 292 68L252 181L308 200L344 97Q382 128 402 177T423 287Q423 344 402 376T329 409Q297 409 268 396T216 358T177 300T153 225L130 98Z" />
<glyph unicode="&#x490;" glyph-name="null" horiz-adv-x="502" d="M167 667H490L517 801H601L558 583H243L131 0H38L167 667Z" />
<glyph unicode="&#x491;" glyph-name="null" horiz-adv-x="408" d="M419 394H187L111 0H25L116 471H356L375 573H454L419 394Z" />
<glyph unicode="&#x492;" glyph-name="null" horiz-adv-x="506" d="M99 265H31L46 342H114L177 667H577L562 583H253L207 342H368L353 265H192L141 0H48L99 265Z" />
<glyph unicode="&#x493;" glyph-name="null" horiz-adv-x="415" d="M426 394H201L171 241H300L289 179H159L125 0H39L73 179H9L21 241H85L130 471H441L426 394Z" />
<glyph unicode="&#x494;" glyph-name="null" horiz-adv-x="616" d="M38 0L167 667H577L561 583H243L207 395Q236 407 267 414T332 422Q381 422 424 405T499 355T549 273T567 158Q567 76 539 8T463 -108T354 -184T224 -211Q200 -211 175 -208T124 -196L151 -113Q168
-118 186 -121T222 -125Q271 -125 316 -105T395 -49T450 39T471 152Q471 204 457 240T419 299T367 331T306 341Q276 341 247 333T191 313L131 0H38Z" />
<glyph unicode="&#x495;" glyph-name="null" horiz-adv-x="497" d="M446 394H187L162 264Q208 284 258 284Q298 284 333 270T394 230T435 165T450 76Q450 16 429 -34T371 -122T286 -179T183 -200Q139 -200 99 -187L125 -115Q139 -118 152 -120T181 -122Q221 -122
254 -107T312 -65T350 -3T364 73Q364 109 354 135T325 179T284 204T235 212Q189 212 148 190L111 0H25L115 471H461L446 394Z" />
<glyph unicode="&#x496;" glyph-name="null" horiz-adv-x="880" d="M428 0H339L398 303H340Q311 303 286 285T233 224L85 0H-20L153 256Q182 299 206 319T259 348Q237 359 221 382T194 443L134 667H227L281 460Q300 388 359 388H413L468 667H557L502 388H552Q585
388 609 405T656 460L791 667H892L733 425Q695 368 642 348Q667 338 684 317T712 256L763 84H825L779 -154H694L726 0H687L627 224Q616 265 597 284T546 303H487L428 0Z" />
<glyph unicode="&#x497;" glyph-name="null" horiz-adv-x="715" d="M267 0L306 202H264Q238 202 222 190T183 147L70 0H-25L107 171Q130 200 147 216T190 241Q166 254 153 275T130 323L79 471H160L209 336Q219 307 233 292T276 276H320L358 471H441L403 276H450Q477
276 495 292T538 340L636 471H722L599 305Q582 282 564 265T522 240Q544 231 556 213T580 169L615 77H677L638 -124H559L583 0H556L498 154Q490 177 478 189T435 202H389L350 0H267Z" />
<glyph unicode="&#x498;" glyph-name="null" horiz-adv-x="548" d="M216 387H314Q339 387 364 394T411 417T445 455T458 508Q458 556 426 580T344 604Q290 604 250 578T176 517L121 575Q138 595 161 614T214 649T279 674T353 684Q398 684 434 672T496 637T534
584T548 518Q548 454 508 407T404 343Q422 338 440 327T474 298T498 255T508 197Q508 150 489 111T435 44T357 0T261 -16Q217 -16 180 -5T112 24T61 64T26 110L94 162Q103 146 118 129T155 98T204 75T264 66Q297 66 324 75T372 102T403 144T415 199Q415 227 405
247T380 279T344 298T304 304H200L216 387ZM132 89Q147 83 167 79T206 75Q235 75 253 87T271 119Q271 136 258 142T223 149Q188 149 151 136L168 191Q184 196 205 200T257 204Q297 204 322 183T348 129Q348 100 336 80T305 46T260 26T208 20Q166 20 142 26T113
35L132 89Z" />
<glyph unicode="&#x499;" glyph-name="null" horiz-adv-x="444" d="M146 276H225Q276 276 311 294T347 352Q347 381 325 398T259 415Q211 415 177 397T111 353L69 408Q106 443 157 464T269 486Q346 486 389 452T432 364Q432 317 402 285T326 239Q360 228 381 202T402
133Q402 96 386 69T342 23T277 -4T199 -13Q133 -13 82 8T1 67L49 119Q74 91 112 75T200 59Q223 59 244 63T281 76T308 100T318 137Q318 174 291 189T215 205H132L146 276ZM73 92Q88 86 106 82T143 78Q176 78 193 90T210 122Q210 139 198 145T160 152Q143 152 126
149T92 139L109 194Q125 199 144 203T194 207Q234 207 258 186T282 132Q282 103 271 83T242 49T198 29T145 23Q103 23 81 29T54 38L73 92Z" />
<glyph unicode="&#x49a;" glyph-name="null" horiz-adv-x="621" d="M130 0H38L167 667H259L205 389H258Q296 389 321 405T371 453L534 667H641L460 431Q433 395 410 377T356 347Q385 336 403 315T437 256L505 84H565L520 -154H436L465 0H435L349 224Q334 265 312
284T251 303H189L130 0Z" />
<glyph unicode="&#x49b;" glyph-name="null" horiz-adv-x="504" d="M25 0L116 471H202L164 277H221Q252 277 272 294T317 340L422 471H514L390 315Q367 287 348 270T300 243Q324 235 338 216T365 168L404 77H466L427 -124H348L372 0H343L277 154Q268 175 257 189T215
203H150L111 0H25Z" />
<glyph unicode="&#x49c;" glyph-name="null" horiz-adv-x="606" d="M130 0H38L167 667H259L205 389H262L286 509H344L320 392Q340 397 358 409T399 453L557 667H664L488 431Q462 396 440 377T388 347Q416 336 433 315T465 256L561 0H458L377 224Q363 262 346 278T302
300L279 175H221L246 303H189L130 0Z" />
<glyph unicode="&#x49d;" glyph-name="null" horiz-adv-x="514" d="M25 0L116 471H202L164 277H217L236 377H290L271 278Q291 281 306 295T346 340L451 471H545L421 315Q400 288 379 270T330 242Q353 234 366 216T391 173L466 0H371L305 154Q294 179 285 189T256
202L237 99H182L202 203H150L111 0H25Z" />
<glyph unicode="&#x49e;" glyph-name="null" horiz-adv-x="591" d="M135 0H43L142 513H72L87 590H157L172 667H264L249 590H328L314 513H234L209 386H266Q304 386 329 402T379 451L542 667H649L468 429Q440 393 417 374T364 344Q393 333 412 312T445 254L546 0H443L357
222Q342 262 320 281T259 300H193L135 0Z" />
<glyph unicode="&#x49f;" glyph-name="null" horiz-adv-x="493" d="M51 415H115L126 471H212L201 415H261L250 357H190L174 274H231Q262 274 282 291T327 338L432 471H524L400 313Q377 284 358 267T310 240Q334 232 348 213T375 166L448 0H353L287 152Q278 172
267 186T225 200H160L121 0H35L104 357H40L51 415Z" />
<glyph unicode="&#x4a0;" glyph-name="null" horiz-adv-x="675" d="M229 0H137L250 583H101L117 667H358L304 389H350Q388 389 413 405T463 453L626 667H733L552 431Q525 395 502 377T448 347Q477 336 495 315T529 256L630 0H527L441 224Q426 265 404 284T343
303H288L229 0Z" />
<glyph unicode="&#x4a1;" glyph-name="null" horiz-adv-x="568" d="M115 0L191 394H71L87 471H292L254 277H306Q337 277 357 294T402 340L507 471H599L475 315Q452 287 433 270T385 243Q409 235 423 216T450 168L523 0H428L362 154Q353 175 342 189T300 203H240L201
0H115Z" />
<glyph unicode="&#x4a2;" glyph-name="null" horiz-adv-x="675" d="M167 667H259L205 387H546L600 667H692L580 86H634L588 -154H504L533 0H471L529 303H188L130 0H38L167 667Z" />
<glyph unicode="&#x4a3;" glyph-name="null" horiz-adv-x="554" d="M532 471L456 77H506L467 -124H388L412 0H355L394 202H150L111 0H25L116 471H202L165 278H409L446 471H532Z" />
<glyph unicode="&#x4a4;" glyph-name="null" horiz-adv-x="758" d="M167 667H259L205 387H536L590 667H829L813 583H666L553 0H461L519 303H188L130 0H38L167 667Z" />
<glyph unicode="&#x4a5;" glyph-name="null" horiz-adv-x="620" d="M646 471L632 394H512L436 0H350L389 202H150L111 0H25L116 471H202L165 278H404L441 471H646Z" />
<glyph unicode="&#x4a6;" glyph-name="null" horiz-adv-x="1034" d="M167 667H681L632 415Q692 439 749 439Q799 439 842 422T917 370T967 285T985 168Q985 86 957 17T882 -103T772 -182T640 -211Q589 -211 538 -196L566 -115Q602 -125 636 -125Q688 -125 734
-103T814 -43T869 49T889 164Q889 215 876 251T840 312T787 347T723 358Q671 358 616 333L552 0H460L573 583H243L131 0H38L167 667Z" />
<glyph unicode="&#x4a7;" glyph-name="null" horiz-adv-x="820" d="M523 471L485 276Q531 297 583 297Q623 297 658 283T718 242T759 175T774 84Q774 22 753 -30T694 -120T609 -179T505 -200Q461 -200 422 -187L446 -115Q461 -118 474 -120T503 -122Q543 -122
576 -106T634 -63T673 2T687 81Q687 118 677 145T648 190T607 216T559 225Q512 225 471 203L432 0H346L422 394H187L111 0H25L116 471H523Z" />
<glyph unicode="&#x4a8;" glyph-name="null" horiz-adv-x="738" d="M718 325Q718 283 706 243T671 167T619 101T552 47Q560 46 568 46T584 45Q610 45 634 50T681 64L697 6Q673 -5 644 -11T582 -17Q551 -17 524 -12T474 4Q419 -16 359 -16Q299 -16 246 5T154 66T91
162T68 290Q68 374 99 445T183 570T304 653T445 683Q478 683 511 677T576 657L546 581Q520 592 495 596T443 601Q387 601 336 578T245 514T183 417T159 292Q159 241 173 198T214 124T282 76T375 58Q380 58 386 58T397 59Q359 101 341 156T322 267Q322 319 339 364T387
443T457 496T543 515Q581 515 613 502T668 463T705 403T718 325ZM402 254Q402 197 421 152T478 78Q517 94 546 121T596 181T626 250T636 320Q636 378 609 410T537 442Q508 442 483 428T440 389T412 330T402 254Z" />
<glyph unicode="&#x4a9;" glyph-name="null" horiz-adv-x="550" d="M504 -2Q471 -14 430 -14Q387 -14 350 0Q330 -6 309 -10T264 -14Q217 -14 177 2T108 47T63 116T47 206Q47 264 68 315T127 404T214 464T319 486Q365 486 410 470L387 404Q355 416 323 416Q285
416 250 400T189 357T146 291T130 209Q130 176 139 148T166 97T212 63T276 50H283Q260 75 248 107T236 177Q236 211 247 241T279 295T328 332T390 346Q446 346 480 311T515 216Q515 163 486 116T409 37Q414 36 419 36T429 36Q458 36 493 47L504 -2ZM303 174Q303
139 315 111T348 65Q393 84 420 123T448 211Q448 249 431 268T387 287Q349 287 326 255T303 174Z" />
<glyph unicode="&#x4aa;" glyph-name="null" horiz-adv-x="653" d="M612 107Q563 49 497 16T349 -17Q284 -17 233 4T144 64T88 156T68 275Q68 355 96 429T174 559T295 650T448 684Q535 684 591 647T680 545L608 499Q577 552 539 575T439 599Q378 599 328 573T241
503T186 402T166 283Q166 238 178 199T214 132T273 87T353 70Q417 70 465 96T550 168L612 107ZM215 -167Q230 -173 250 -177T289 -181Q318 -181 336 -169T354 -137Q354 -120 341 -114T306 -107Q271 -107 234 -120L251 -65Q267 -60 288 -56T340 -52Q380 -52 405
-73T431 -127Q431 -156 419 -176T388 -210T343 -230T291 -236Q249 -236 225 -230T196 -221L215 -167Z" />
<glyph unicode="&#x4ab;" glyph-name="null" horiz-adv-x="476" d="M428 64Q396 30 351 8T246 -14Q152 -14 100 41T47 194Q47 254 67 307T124 400T209 463T315 486Q435 486 481 380L414 343Q399 374 375 392T309 410Q270 410 239 393T185 348T150 282T137 203Q137
135 170 99T259 62Q294 62 324 77T380 118L428 64ZM111 92Q126 86 144 82T181 78Q214 78 231 90T248 122Q248 139 236 145T198 152Q181 152 164 149T130 139L147 194Q163 199 182 203T232 207Q272 207 296 186T320 132Q320 103 309 83T280 49T236 29T183 23Q141
23 119 29T92 38L111 92Z" />
<glyph unicode="&#x4ac;" glyph-name="null" horiz-adv-x="596" d="M330 585H101L117 667H667L651 585H423L326 86H380L334 -154H250L279 0H217L330 585Z" />
<glyph unicode="&#x4ad;" glyph-name="null" horiz-adv-x="472" d="M498 471L483 394H320L259 77H309L270 -124H191L215 0H158L234 394H71L86 471H498Z" />
<glyph unicode="&#x4ae;" glyph-name="null" horiz-adv-x="555" d="M253 297L104 667H201L312 380L535 667H639L346 298L289 0H196L253 297Z" />
<glyph unicode="&#x4af;" glyph-name="null" horiz-adv-x="488" d="M65 471H162L228 103L437 471H534L254 10L213 -200H128L168 9L65 471Z" />
<glyph unicode="&#x4b0;" glyph-name="null" horiz-adv-x="567" d="M251 224H104L118 298H264L116 667H213L324 380L547 667H651L358 298H504L490 224H344L301 0H208L251 224Z" />
<glyph unicode="&#x4b1;" glyph-name="null" horiz-adv-x="486" d="M162 62L67 471H164L230 103L439 471H536L284 62H388L376 0H254L215 -200H130L168 0H46L58 62H162Z" />
<glyph unicode="&#x4b2;" glyph-name="null" horiz-adv-x="613" d="M264 350L116 667H220L330 419L529 667H636L369 343L490 84H558L512 -154H428L457 0H423L302 272L82 0H-26L264 350Z" />
<glyph unicode="&#x4b3;" glyph-name="null" horiz-adv-x="492" d="M189 251L74 471H172L251 310L386 471H490L288 246L375 77H444L405 -124H326L350 0H318L227 185L72 0H-34L189 251Z" />
<glyph unicode="&#x4b4;" glyph-name="null" horiz-adv-x="819" d="M295 583H105L121 667H585L569 583H387L290 84H631L744 667H836L723 84H777L731 -154H647L677 0H182L295 583Z" />
<glyph unicode="&#x4b5;" glyph-name="null" horiz-adv-x="664" d="M436 471L422 394H294L233 77H480L556 471H642L566 77H616L577 -124H498L522 0H132L208 394H71L87 471H436Z" />
<glyph unicode="&#x4b6;" glyph-name="null" horiz-adv-x="595" d="M520 667H612L499 85H553L508 -154H424L453 0H391L446 286Q417 273 383 265T311 257Q217 257 169 309T121 446Q121 476 127 509L157 667H249L218 507Q216 494 215 483T213 459Q213 407 242 374T340
341Q375 341 407 349T463 372L520 667Z" />
<glyph unicode="&#x4b7;" glyph-name="null" horiz-adv-x="510" d="M488 471L412 76H462L423 -124H344L368 0H311L347 188Q294 163 242 163Q208 163 179 172T127 201T93 248T80 313Q80 324 81 334T84 357L106 471H192L170 357Q167 342 167 327Q167 288 191 262T267
236Q296 236 320 243T361 261L402 471H488Z" />
<glyph unicode="&#x4b8;" glyph-name="null" horiz-adv-x="604" d="M533 667H625L496 0H404L459 286Q433 275 403 268T341 258L320 148H259L280 259Q202 269 162 319T121 446Q121 476 127 509L157 667H249L218 507Q216 495 215 481T213 455Q213 412 233 382T296
341L323 477H384L356 336Q391 338 422 348T476 372L533 667Z" />
<glyph unicode="&#x4b9;" glyph-name="null" horiz-adv-x="508" d="M504 471L413 0H327L363 188Q343 179 320 172T270 163L254 78H200L217 165Q156 173 118 212T80 315Q80 337 84 357L106 471H192L170 357Q168 348 167 339T166 322Q166 290 181 267T231 236L254
353H307L283 231Q314 233 336 241T377 261L418 471H504Z" />
<glyph unicode="&#x4ba;" glyph-name="null" horiz-adv-x="601" d="M130 0H38L167 667H259L208 403Q239 416 274 424T345 432Q444 432 493 380T543 243Q543 213 537 180L503 0H411L446 182Q451 210 451 230Q451 282 421 315T319 348Q284 348 250 340T191 317L130 0Z" />
<glyph unicode="&#x4bb;" glyph-name="null" horiz-adv-x="522" d="M111 0H25L154 667H238L186 401Q221 439 260 460T350 482Q418 482 454 444T490 340Q490 331 489 316T485 285L430 0H344L397 278Q399 291 400 301T402 322Q402 359 385 381T325 404Q292 404 264
390T214 351T176 294T154 227L111 0Z" />
<glyph unicode="&#x4bc;" glyph-name="null" horiz-adv-x="846" d="M189 515Q175 498 165 479T154 436Q154 413 168 398T225 382Q238 443 268 498T344 594T447 660T573 684Q639 684 688 662T771 601T820 511T837 401Q837 379 835 356T827 308H310V296Q310 246
322 204T357 131T416 83T500 65Q555 65 607 89T707 161L764 103Q717 50 650 18T498 -15Q425 -15 372 9T284 76T232 173T215 288V308Q154 309 117 341T79 429Q79 465 94 496T132 553L189 515ZM565 603Q518 603 478 587T406 541T352 471T319 382H746Q747 389 747
396T748 413Q748 450 737 484T704 544T647 587T565 603Z" />
<glyph unicode="&#x4bd;" glyph-name="null" horiz-adv-x="628" d="M244 212V202Q244 134 274 98T371 61Q412 61 444 75T508 121L557 69Q524 34 475 10T360 -14Q261 -14 210 42T159 193V212Q135 212 115 219T78 241T53 274T44 319Q44 347 56 374T90 425L140 393Q129
379 121 363T112 327Q112 278 170 278Q182 322 205 360T260 426T333 470T421 486Q469 486 503 471T558 428T589 366T599 292Q599 252 590 212H244ZM516 278Q517 283 517 288T517 299Q517 349 491 382T411 416Q356 416 314 378T254 278H516Z" />
<glyph unicode="&#x4be;" glyph-name="null" horiz-adv-x="846" d="M406 -154L434 -9Q378 1 337 28T268 96T228 185T215 288V308Q154 309 117 341T79 429Q79 465 94 496T132 553L189 515Q175 498 165 479T154 436Q154 413 168 398T225 382Q238 443 268 498T344
594T447 660T573 684Q639 684 688 662T771 601T820 511T837 401Q837 379 835 356T827 308H310V296Q310 245 322 203T357 129T416 80T500 62Q555 62 607 86T707 161L764 103Q719 53 657 22T517 -14L490 -154H406ZM565 603Q518 603 478 587T406 541T352 471T319 382H746Q747
389 747 396T748 413Q748 450 737 484T704 544T647 587T565 603Z" />
<glyph unicode="&#x4bf;" glyph-name="null" horiz-adv-x="629" d="M558 69Q527 37 483 16T381 -11L360 -124H281L302 -6Q233 10 197 63T160 193V212Q136 212 116 219T79 241T54 274T45 319Q45 347 57 374T91 425L141 393Q130 379 122 363T113 327Q113 278 171
278Q183 322 206 360T261 426T334 470T422 486Q470 486 504 471T559 428T590 366T600 292Q600 252 591 212H245V202Q245 134 275 98T372 61Q413 61 445 75T509 121L558 69ZM517 278Q518 283 518 288T518 299Q518 349 492 382T412 416Q357 416 315 378T255 278H517Z"
/>
<glyph unicode="&#x4c0;" glyph-name="null" horiz-adv-x="238" d="M167 667H259L130 0H38L167 667Z" />
<glyph unicode="&#x4c1;" glyph-name="null" horiz-adv-x="840" d="M431 0H342L401 303H340Q311 303 286 285T233 224L85 0H-20L153 256Q182 299 206 319T259 348Q237 359 221 382T194 443L134 667H227L281 460Q300 388 359 388H416L471 667H560L505 388H558Q591
388 615 405T662 460L797 667H898L739 425Q701 368 648 348Q673 338 690 317T718 256L793 0H693L633 224Q622 265 603 284T552 303H490L431 0ZM476 854Q475 850 475 847T475 840Q475 816 488 802T531 787Q567 787 587 807T615 854H689Q684 829 671 806T638 764T589
734T526 722Q464 722 434 752T403 829Q403 835 403 841T405 854H476Z" />
<glyph unicode="&#x4c2;" glyph-name="null" horiz-adv-x="697" d="M270 0L309 202H264Q238 202 222 190T183 147L70 0H-25L107 171Q130 200 147 216T190 241Q166 254 153 275T130 323L79 471H160L209 336Q219 307 233 292T276 276H323L361 471H444L406 276H456Q483
276 501 292T544 340L642 471H728L605 305Q588 282 570 265T528 240Q550 231 562 213T586 169L651 0H562L504 154Q496 177 484 189T441 202H392L353 0H270ZM364 662V654Q364 628 378 614T420 600Q481 600 499 662H562Q553 610 513 577T414 543Q360 543 331 570T301
640Q301 645 301 651T303 662H364Z" />
<glyph unicode="&#x4c3;" glyph-name="null" horiz-adv-x="602" d="M188 303L130 0H38L167 667H259L205 389H260Q298 389 325 407T383 466L535 667H644L471 442Q448 412 426 394T381 365Q417 358 448 340T501 292T537 223T550 131Q550 59 525 -3T455 -112T350
-184T221 -210Q173 -210 127 -197L154 -115Q188 -124 221 -124Q270 -124 312 -105T386 -53T436 27T454 129Q454 177 441 210T406 264T356 294T297 303H188Z" />
<glyph unicode="&#x4c4;" glyph-name="null" horiz-adv-x="506" d="M150 203L111 0H25L116 471H202L164 277H221Q252 277 273 295T317 340L422 471H515L391 315Q374 293 358 280T319 256Q378 243 416 196T455 67Q455 8 434 -41T376 -125T293 -180T192 -200Q150
-200 110 -188L135 -116Q149 -120 162 -121T187 -123Q225 -123 258 -109T315 -70T354 -9T368 67Q368 103 358 128T329 170T286 195T235 203H150Z" />
<glyph unicode="&#x4c5;" glyph-name="null" horiz-adv-x="689" d="M593 84H647L641 54Q625 -28 589 -85T492 -181L447 -122Q482 -96 508 -67T548 0H485L598 583H382Q349 427 314 316T236 133T142 29T27 -4Q8 -4 -11 -1L5 83Q9 83 12 83T20 82Q61 82 98 107T172
198T243 377T314 667H706L593 84Z" />
<glyph unicode="&#x4c6;" glyph-name="null" horiz-adv-x="580" d="M558 471L482 77H532L527 51Q514 -21 481 -68T399 -148L354 -94Q381 -74 402 -51T436 0H381L457 394H294Q268 287 242 212T185 90T116 20T26 -2Q18 -2 11 -2T-5 0L10 77H18Q55 77 83 99T136 168T182
290T230 471H558Z" />
<glyph unicode="&#x4c7;" glyph-name="null" horiz-adv-x="682" d="M167 667H259L205 387H556L610 667H702L567 -38Q560 -73 548 -102T517 -153T470 -187T404 -199Q368 -199 338 -189T290 -165L325 -100Q339 -109 356 -115T394 -122Q407 -122 419 -118T442 -101T462
-68T477 -14L539 303H188L130 0H38L167 667Z" />
<glyph unicode="&#x4c8;" glyph-name="null" horiz-adv-x="537" d="M532 471L432 -54Q426 -83 416 -109T388 -156T345 -188T285 -200Q251 -200 224 -190T180 -166L215 -101Q227 -110 243 -116T277 -123Q289 -123 300 -119T320 -104T337 -73T351 -23L394 202H150L111
0H25L116 471H202L165 278H409L446 471H532Z" />
<glyph unicode="&#x4c9;" glyph-name="null" horiz-adv-x="685" d="M167 667H259L205 387H556L610 667H702L589 84H643L637 54Q621 -28 585 -85T488 -181L443 -122Q478 -96 504 -67T544 0H481L539 303H188L130 0H38L167 667Z" />
<glyph unicode="&#x4ca;" glyph-name="null" horiz-adv-x="554" d="M532 471L456 77H506L501 51Q488 -21 455 -68T373 -148L328 -94Q355 -74 376 -51T410 0H355L394 202H150L111 0H25L116 471H202L165 278H409L446 471H532Z" />
<glyph unicode="&#x4cb;" glyph-name="null" horiz-adv-x="596" d="M525 667H617L488 0H427L397 -154H313L358 84H412L451 286Q421 273 386 265T313 257Q219 257 170 309T121 446Q121 476 127 509L157 667H249L218 507Q216 494 215 483T213 459Q213 407 243 374T342
341Q377 341 411 349T468 372L525 667Z" />
<glyph unicode="&#x4cc;" glyph-name="null" horiz-adv-x="496" d="M492 471L401 0H343L319 -124H240L279 72H329L352 191Q329 180 302 173T248 166Q211 166 180 176T127 205T92 252T79 316Q79 327 80 337T84 360L105 471H191L170 360Q167 343 167 330Q167 290
191 265T273 239Q299 239 323 246T366 264L406 471H492Z" />
<glyph unicode="&#x4cd;" glyph-name="null" horiz-adv-x="754" d="M189 667H276L395 317L660 667H750L663 84H717L711 54Q695 -28 659 -85T562 -181L517 -122Q552 -96 578 -67T618 0H560L638 512L397 197H352L237 512L117 0H30L189 667Z" />
<glyph unicode="&#x4ce;" glyph-name="null" horiz-adv-x="613" d="M264 129L180 348L98 0H17L130 471H207L303 220L501 471H582L522 77H572L565 38Q553 -26 521 -70T439 -148L394 -94Q422 -74 443 -51T476 0H426L481 348L309 129H264Z" />
<glyph unicode="&#x4cf;" glyph-name="null" horiz-adv-x="206" d="M154 667H240L111 0H25L154 667Z" />
<glyph unicode="&#x4d0;" glyph-name="null" horiz-adv-x="625" d="M354 667H448L570 0H472L442 187H177L75 0H-25L354 667ZM429 266L381 563L219 266H429ZM355 854Q354 850 354 847T354 840Q354 816 367 802T410 787Q446 787 466 807T494 854H568Q563 829 550
806T517 764T468 734T405 722Q343 722 313 752T282 829Q282 835 282 841T284 854H355Z" />
<glyph unicode="&#x4d1;" glyph-name="null" horiz-adv-x="489" d="M316 0L324 56Q289 20 250 4T171 -13Q143 -13 118 -5T73 19T43 61T32 120Q32 158 47 191T91 248T165 286T267 300Q293 300 322 298T369 291L373 313Q374 319 374 324T375 335Q375 373 349 392T276
412Q228 412 195 396T143 367L107 425Q119 435 137 445T179 465T231 479T290 485Q335 485 366 473T418 441T447 394T456 339Q456 331 455 322T452 300L412 93Q407 67 403 42T396 0H316ZM356 225Q342 227 321 229T272 232Q227 232 198 224T150 202T125 169T118 129Q118
95 135 77T193 58Q220 58 245 66T291 91T327 130T348 185L356 225ZM271 662V654Q271 628 285 614T327 600Q388 600 406 662H469Q460 610 420 577T321 543Q267 543 238 570T208 640Q208 645 208 651T210 662H271Z" />
<glyph unicode="&#x4d2;" glyph-name="null" horiz-adv-x="625" d="M354 667H448L570 0H472L442 187H177L75 0H-25L354 667ZM429 266L381 563L219 266H429ZM476 844H573L554 746H457L476 844ZM289 844H385L366 746H270L289 844Z" />
<glyph unicode="&#x4d3;" glyph-name="null" horiz-adv-x="489" d="M316 0L324 56Q289 20 250 4T171 -13Q143 -13 118 -5T73 19T43 61T32 120Q32 158 47 191T91 248T165 286T267 300Q293 300 322 298T369 291L373 313Q374 319 374 324T375 335Q375 373 349 392T276
412Q228 412 195 396T143 367L107 425Q119 435 137 445T179 465T231 479T290 485Q335 485 366 473T418 441T447 394T456 339Q456 331 455 322T452 300L412 93Q407 67 403 42T396 0H316ZM356 225Q342 227 321 229T272 232Q227 232 198 224T150 202T125 169T118 129Q118
95 135 77T193 58Q220 58 245 66T291 91T327 130T348 185L356 225ZM367 657H456L438 566H349L367 657ZM202 657H293L275 566H184L202 657Z" />
<glyph unicode="&#x4d4;" glyph-name="null" horiz-adv-x="913" d="M456 181H219L77 0H-22L499 667H953L937 582H625L587 387H822L806 303H570L528 86H863L847 0H421L456 181ZM471 259L534 583L280 259H471Z" />
<glyph unicode="&#x4d5;" glyph-name="null" horiz-adv-x="816" d="M106 425Q132 445 179 465T291 485Q348 485 382 466T437 409Q474 446 515 466T612 486Q660 486 694 471T751 429T783 366T793 289Q793 249 784 209H438V197Q438 168 445 143T467 100T508 72T568
61Q606 61 638 74T702 121L751 69Q714 29 665 8T551 -14Q501 -14 456 5T375 83Q360 64 341 47T297 17T245 -5T182 -13Q150 -13 123 -5T75 19T44 59T32 117Q32 162 52 194T104 248T179 279T267 289Q293 289 317 287T366 279L370 299Q374 319 374 333Q374 373 349
392T276 412Q251 412 230 407T193 395T164 381T142 367L106 425ZM264 221Q237 221 211 217T164 202T131 173T118 126Q118 90 138 74T193 58Q220 58 245 67T291 92T326 129T346 176L353 213Q334 216 311 218T264 221ZM710 275Q710 281 710 283T711 295Q711 346 685
381T603 416Q571 416 546 404T502 373T470 328T449 275H710Z" />
<glyph unicode="&#x4d6;" glyph-name="null" d="M167 667H570L554 582H242L204 387H439L423 303H187L145 86H480L464 0H38L167 667ZM333 854Q332 850 332 847T332 840Q332 816 345 802T388 787Q424 787 444 807T472 854H546Q541 829 528 806T495 764T446 734T383
722Q321 722 291 752T260 829Q260 835 260 841T262 854H333Z" />
<glyph unicode="&#x4d7;" glyph-name="null" horiz-adv-x="517" d="M133 212V202Q133 134 163 98T260 61Q301 61 333 75T397 121L446 69Q413 34 364 10T249 -14Q150 -14 99 42T48 193Q48 251 67 304T120 398T203 462T310 486Q358 486 392 471T447 428T478 366T488
292Q488 252 479 212H133ZM405 278Q406 283 406 288T406 299Q406 349 380 382T300 416Q245 416 203 378T143 278H405ZM279 662V654Q279 628 293 614T335 600Q396 600 414 662H477Q468 610 428 577T329 543Q275 543 246 570T216 640Q216 645 216 651T218 662H279Z"
/>
<glyph unicode="&#x4d8;" glyph-name="null" horiz-adv-x="712" d="M69 271Q69 321 81 372H600Q600 415 590 456T558 530T500 583T412 603Q302 603 211 506L154 565Q205 622 271 652T415 683Q479 683 531 661T621 599T678 503T698 377Q698 297 672 226T597 101T483
16T338 -15Q270 -15 220 7T136 69T86 160T69 271ZM342 65Q390 65 431 83T505 132T560 206T592 298H161Q158 277 158 258Q158 219 170 184T205 123T262 81T342 65Z" />
<glyph unicode="&#x4d9;" glyph-name="null" horiz-adv-x="521" d="M287 411Q245 411 215 394T158 351L109 403Q141 438 187 462T296 486Q391 486 441 429T492 271Q492 212 475 161T425 70T345 9T240 -14Q190 -14 155 2T96 46T63 110T52 186Q52 226 61 267H407Q405
411 287 411ZM134 178Q134 154 140 132T159 93T193 66T243 56Q300 56 342 94T400 201H135Q134 195 134 190T134 178Z" />
<glyph unicode="&#x4da;" glyph-name="null" horiz-adv-x="712" d="M69 271Q69 321 81 372H600Q600 415 590 456T558 530T500 583T412 603Q302 603 211 506L154 565Q205 622 271 652T415 683Q479 683 531 661T621 599T678 503T698 377Q698 297 672 226T597 101T483
16T338 -15Q270 -15 220 7T136 69T86 160T69 271ZM342 65Q390 65 431 83T505 132T560 206T592 298H161Q158 277 158 258Q158 219 170 184T205 123T262 81T342 65ZM521 844H618L599 746H502L521 844ZM334 844H430L411 746H315L334 844Z" />
<glyph unicode="&#x4db;" glyph-name="null" horiz-adv-x="521" d="M287 411Q245 411 215 394T158 351L109 403Q141 438 187 462T296 486Q391 486 441 429T492 271Q492 212 475 161T425 70T345 9T240 -14Q190 -14 155 2T96 46T63 110T52 186Q52 226 61 267H407Q405
411 287 411ZM134 178Q134 154 140 132T159 93T193 66T243 56Q300 56 342 94T400 201H135Q134 195 134 190T134 178ZM366 653H455L437 562H348L366 653ZM201 653H292L274 562H183L201 653Z" />
<glyph unicode="&#x4dc;" glyph-name="null" horiz-adv-x="840" d="M431 0H342L401 303H340Q311 303 286 285T233 224L85 0H-20L153 256Q182 299 206 319T259 348Q237 359 221 382T194 443L134 667H227L281 460Q300 388 359 388H416L471 667H560L505 388H558Q591
388 615 405T662 460L797 667H898L739 425Q701 368 648 348Q673 338 690 317T718 256L793 0H693L633 224Q622 265 603 284T552 303H490L431 0ZM590 844H687L668 746H571L590 844ZM403 844H499L480 746H384L403 844Z" />
<glyph unicode="&#x4dd;" glyph-name="null" horiz-adv-x="697" d="M270 0L309 202H264Q238 202 222 190T183 147L70 0H-25L107 171Q130 200 147 216T190 241Q166 254 153 275T130 323L79 471H160L209 336Q219 307 233 292T276 276H323L361 471H444L406 276H456Q483
276 501 292T544 340L642 471H728L605 305Q588 282 570 265T528 240Q550 231 562 213T586 169L651 0H562L504 154Q496 177 484 189T441 202H392L353 0H270ZM469 653H558L540 562H451L469 653ZM304 653H395L377 562H286L304 653Z" />
<glyph unicode="&#x4de;" glyph-name="null" horiz-adv-x="548" d="M216 387H314Q339 387 364 394T411 417T445 455T458 508Q458 556 426 580T344 604Q290 604 250 578T176 517L121 575Q138 595 161 614T214 649T279 674T353 684Q398 684 434 672T496 637T534
584T548 518Q548 454 508 407T404 343Q422 338 440 327T474 298T498 255T508 197Q508 150 489 111T435 44T357 0T261 -16Q217 -16 180 -5T112 24T61 64T26 110L94 162Q103 146 118 129T155 98T204 75T264 66Q297 66 324 75T372 102T403 144T415 199Q415 227 405
247T380 279T344 298T304 304H200L216 387ZM423 844H520L501 746H404L423 844ZM236 844H332L313 746H217L236 844Z" />
<glyph unicode="&#x4df;" glyph-name="null" horiz-adv-x="444" d="M146 276H225Q276 276 311 294T347 352Q347 381 325 398T259 415Q211 415 177 397T111 353L69 408Q106 443 157 464T269 486Q346 486 389 452T432 364Q432 317 402 285T326 239Q360 228 381 202T402
133Q402 96 386 69T342 23T277 -4T199 -13Q133 -13 82 8T1 67L49 119Q74 91 112 75T200 59Q223 59 244 63T281 76T308 100T318 137Q318 174 291 189T215 205H132L146 276ZM327 653H416L398 562H309L327 653ZM162 653H253L235 562H144L162 653Z" />
<glyph unicode="&#x4e0;" glyph-name="null" horiz-adv-x="520" d="M207 363L430 586H127L143 667H548L533 589L319 375Q392 369 438 324T484 200Q484 150 465 111T413 43T337 -1T245 -16Q200 -16 164 -4T99 26T51 67T19 110L87 162Q95 151 108 135T140 103T185
77T246 66Q278 66 304 75T350 102T380 144T391 199Q391 255 356 282T269 309Q246 309 227 305L207 363Z" />
<glyph unicode="&#x4e1;" glyph-name="null" horiz-adv-x="447" d="M140 177L355 398H78L92 471H459L444 399L241 188Q272 183 300 170T349 133T382 79T394 8Q394 -40 377 -80T328 -149T256 -195T166 -212Q104 -212 53 -185T-29 -108L32 -60Q55 -95 89 -116T168
-137Q200 -137 226 -126T271 -95T300 -49T310 7Q310 62 276 95T190 128Q174 128 159 125L140 177Z" />
<glyph unicode="&#x4e2;" glyph-name="null" horiz-adv-x="679" d="M571 0H480L580 519L124 0H38L167 667H258L158 150L611 667H700L571 0ZM301 832H604L590 757H287L301 832Z" />
<glyph unicode="&#x4e3;" glyph-name="null" horiz-adv-x="533" d="M355 0L423 351L103 0H25L116 471H199L132 124L449 471H529L438 0H355ZM231 639H471L457 567H217L231 639Z" />
<glyph unicode="&#x4e4;" glyph-name="null" horiz-adv-x="679" d="M571 0H480L580 519L124 0H38L167 667H258L158 150L611 667H700L571 0ZM505 844H602L583 746H486L505 844ZM318 844H414L395 746H299L318 844Z" />
<glyph unicode="&#x4e5;" glyph-name="null" horiz-adv-x="533" d="M355 0L423 351L103 0H25L116 471H199L132 124L449 471H529L438 0H355ZM390 653H479L461 562H372L390 653ZM225 653H316L298 562H207L225 653Z" />
<glyph unicode="&#x4e6;" glyph-name="null" horiz-adv-x="743" d="M165 281Q165 236 177 198T214 131T276 86T361 70Q422 70 472 97T559 169T614 269T634 382Q634 427 623 466T588 535T528 582T441 599Q376 599 325 571T238 498T184 396T165 281ZM448 684Q508
684 560 665T650 609T710 520T732 403Q732 321 705 245T629 111T511 18T359 -17Q293 -17 240 4T148 62T88 151T67 264Q67 348 94 424T172 558T292 650T448 684ZM543 844H640L621 746H524L543 844ZM356 844H452L433 746H337L356 844Z" />
<glyph unicode="&#x4e7;" glyph-name="null" horiz-adv-x="549" d="M323 486Q367 486 403 472T465 431T505 365T520 277Q520 218 500 165T443 73T358 10T249 -14Q204 -14 167 0T103 41T62 106T47 193Q47 251 68 304T126 398T214 462T323 486ZM315 410Q279 410
247 394T189 351T150 285T135 202Q135 141 164 102T252 62Q286 62 318 77T376 119T417 185T432 270Q432 336 402 373T315 410ZM394 653H483L465 562H376L394 653ZM229 653H320L302 562H211L229 653Z" />
<glyph unicode="&#x4e8;" glyph-name="null" horiz-adv-x="743" d="M448 684Q508 684 560 665T651 610T711 519T733 394Q733 316 706 242T630 111T511 18T356 -17Q294 -17 242 2T151 59T90 151T68 275Q68 352 95 425T173 556T293 649T448 684ZM161 304V283Q161
236 174 197T212 129T274 84T359 67Q412 67 456 86T536 137T595 213T630 304H161ZM640 380V385Q640 429 628 468T592 537T531 584T442 602Q389 602 346 584T268 536T211 465T174 380H640Z" />
<glyph unicode="&#x4e9;" glyph-name="null" horiz-adv-x="549" d="M323 486Q367 486 403 472T465 431T505 365T520 277Q520 218 500 165T443 73T358 10T249 -14Q204 -14 167 0T103 41T62 106T47 193Q47 251 68 304T126 398T214 462T323 486ZM250 59Q279 59 307
69T359 98T401 144T429 205H129Q129 139 159 99T250 59ZM316 413Q286 413 258 403T206 373T165 328T138 269H438Q438 338 406 375T316 413Z" />
<glyph unicode="&#x4ea;" glyph-name="null" horiz-adv-x="743" d="M448 684Q508 684 560 665T651 610T711 519T733 394Q733 316 706 242T630 111T511 18T356 -17Q294 -17 242 2T151 59T90 151T68 275Q68 352 95 425T173 556T293 649T448 684ZM161 304V283Q161
236 174 197T212 129T274 84T359 67Q412 67 456 86T536 137T595 213T630 304H161ZM640 380V385Q640 429 628 468T592 537T531 584T442 602Q389 602 346 584T268 536T211 465T174 380H640ZM535 844H632L613 746H516L535 844ZM348 844H444L425 746H329L348 844Z"
/>
<glyph unicode="&#x4eb;" glyph-name="null" horiz-adv-x="549" d="M323 486Q367 486 403 472T465 431T505 365T520 277Q520 218 500 165T443 73T358 10T249 -14Q204 -14 167 0T103 41T62 106T47 193Q47 251 68 304T126 398T214 462T323 486ZM250 59Q279 59 307
69T359 98T401 144T429 205H129Q129 139 159 99T250 59ZM316 413Q286 413 258 403T206 373T165 328T138 269H438Q438 338 406 375T316 413ZM394 653H483L465 562H376L394 653ZM229 653H320L302 562H211L229 653Z" />
<glyph unicode="&#x4ec;" glyph-name="null" horiz-adv-x="649" d="M280 68Q332 68 374 86T450 137T504 212T536 303H205L222 386H544Q543 426 533 464T501 533T445 581T361 600Q296 600 246 570T158 495L98 553Q143 610 211 647T365 684Q424 684 474 664T561
606T618 513T639 386Q639 305 612 232T537 104T422 17T275 -16Q187 -16 122 24T26 135L102 177Q131 121 175 95T280 68ZM471 844H568L549 746H452L471 844ZM284 844H380L361 746H265L284 844Z" />
<glyph unicode="&#x4ed;" glyph-name="null" horiz-adv-x="478" d="M193 59Q226 59 252 70T300 100T335 146T358 202H150L165 275H368Q367 347 333 380T247 414Q206 414 173 396T113 352L68 407Q103 442 151 464T257 486Q300 486 336 473T397 433T437 367T452
277Q452 219 433 166T380 73T298 10T191 -14Q156 -14 128 -6T77 17T38 50T11 90L74 128Q91 97 120 78T193 59ZM338 653H427L409 562H320L338 653ZM173 653H264L246 562H155L173 653Z" />
<glyph unicode="&#x4ee;" glyph-name="null" horiz-adv-x="581" d="M253 178L104 667H200L313 272L564 667H665L319 138Q294 100 272 71T226 23T178 -7T122 -17Q88 -17 61 -6T13 23L56 91Q70 80 88 72T127 63Q153 63 177 81T227 138L253 178ZM253 832H556L542
757H239L253 832Z" />
<glyph unicode="&#x4ef;" glyph-name="null" horiz-adv-x="483" d="M-7 -119Q5 -128 20 -133T49 -139Q64 -139 76 -133T101 -112T126 -76T157 -23L174 7L66 471H162L236 114L432 471H529L215 -71Q195 -105 178 -131T141 -176T100 -203T48 -213Q24 -213 0 -204T-40
-181L-7 -119ZM203 639H443L429 567H189L203 639Z" />
<glyph unicode="&#x4f0;" glyph-name="null" horiz-adv-x="581" d="M253 178L104 667H200L313 272L564 667H665L319 138Q294 100 272 71T226 23T178 -7T122 -17Q88 -17 61 -6T13 23L56 91Q70 80 88 72T127 63Q153 63 177 81T227 138L253 178ZM454 844H551L532
746H435L454 844ZM267 844H363L344 746H248L267 844Z" />
<glyph unicode="&#x4f1;" glyph-name="null" horiz-adv-x="483" d="M-7 -119Q5 -128 20 -133T49 -139Q64 -139 76 -133T101 -112T126 -76T157 -23L174 7L66 471H162L236 114L432 471H529L215 -71Q195 -105 178 -131T141 -176T100 -203T48 -213Q24 -213 0 -204T-40
-181L-7 -119ZM359 653H448L430 562H341L359 653ZM194 653H285L267 562H176L194 653Z" />
<glyph unicode="&#x4f2;" glyph-name="null" horiz-adv-x="581" d="M253 178L104 667H200L313 272L564 667H665L319 138Q294 100 272 71T226 23T178 -7T122 -17Q88 -17 61 -6T13 23L56 91Q70 80 88 72T127 63Q153 63 177 81T227 138L253 178ZM346 870H453L327
720H254L346 870ZM517 870H624L498 720H425L517 870Z" />
<glyph unicode="&#x4f3;" glyph-name="null" horiz-adv-x="483" d="M-7 -119Q5 -128 20 -133T49 -139Q64 -139 76 -133T101 -112T126 -76T157 -23L174 7L66 471H162L236 114L432 471H529L215 -71Q195 -105 178 -131T141 -176T100 -203T48 -213Q24 -213 0 -204T-40
-181L-7 -119ZM260 679H351L253 543H186L260 679ZM405 679H496L398 543H331L405 679Z" />
<glyph unicode="&#x4f4;" glyph-name="null" horiz-adv-x="596" d="M525 667H617L488 0H396L451 286Q421 273 386 265T313 257Q219 257 170 309T121 446Q121 476 127 509L157 667H249L218 507Q216 494 215 483T213 459Q213 407 243 374T342 341Q377 341 411 349T468
372L525 667ZM460 844H557L538 746H441L460 844ZM273 844H369L350 746H254L273 844Z" />
<glyph unicode="&#x4f5;" glyph-name="null" horiz-adv-x="497" d="M493 471L402 0H316L352 188Q329 177 302 170T248 163Q211 163 180 173T127 202T92 249T79 313Q79 324 80 334T84 357L106 471H192L170 357Q167 340 167 327Q167 287 191 262T273 236Q299 236
323 243T366 261L407 471H493ZM362 653H451L433 562H344L362 653ZM197 653H288L270 562H179L197 653Z" />
<glyph unicode="&#x4f6;" glyph-name="null" horiz-adv-x="496" d="M167 667H567L552 583H243L147 85H201L155 -154H71L100 0H38L167 667Z" />
<glyph unicode="&#x4f7;" glyph-name="null" horiz-adv-x="401" d="M412 394H187L126 77H176L138 -124H59L83 0H25L116 471H427L412 394Z" />
<glyph unicode="&#x4f8;" glyph-name="null" horiz-adv-x="761" d="M690 667H782L653 0H561L690 667ZM167 667H258L210 421H309Q406 421 459 371T512 233Q512 183 494 141T442 67T357 18T242 0H38L167 667ZM144 80H249Q325 80 371 119T417 228Q417 283 387 312T296
342H195L144 80ZM548 844H645L626 746H529L548 844ZM361 844H457L438 746H342L361 844Z" />
<glyph unicode="&#x4f9;" glyph-name="null" horiz-adv-x="662" d="M572 471H658L567 0H481L572 471ZM123 70H247Q289 70 318 96T348 168Q348 200 329 222T265 244H156L123 70ZM200 471L170 314H281Q349 314 391 277T434 172Q434 134 420 102T380 48T319 13T241
0H25L116 471H200ZM453 653H542L524 562H435L453 653ZM288 653H379L361 562H270L288 653Z" />
<glyph unicode="&#x1e80;" glyph-name="null" horiz-adv-x="843" d="M106 667H203L226 129L461 647H553L591 132L815 667H915L616 0H518L477 493L247 0H150L106 667ZM407 870H512L553 720H477L407 870Z" />
<glyph unicode="&#x1e81;" glyph-name="null" horiz-adv-x="693" d="M56 465H148L179 112L355 465H429L466 109L631 465H727L489 0H403L363 323L198 0H116L56 465ZM313 677H406L434 541H365L313 677Z" />
<glyph unicode="&#x1e82;" glyph-name="null" horiz-adv-x="843" d="M106 667H203L226 129L461 647H553L591 132L815 667H915L616 0H518L477 493L247 0H150L106 667ZM564 870H674L550 720H472L564 870Z" />
<glyph unicode="&#x1e83;" glyph-name="null" horiz-adv-x="693" d="M56 465H148L179 112L355 465H429L466 109L631 465H727L489 0H403L363 323L198 0H116L56 465ZM430 677H525L427 541H356L430 677Z" />
<glyph unicode="&#x1e84;" glyph-name="null" horiz-adv-x="843" d="M106 667H203L226 129L461 647H553L591 132L815 667H915L616 0H518L477 493L247 0H150L106 667ZM577 844H674L655 746H558L577 844ZM390 844H486L467 746H371L390 844Z" />
<glyph unicode="&#x1e85;" glyph-name="null" horiz-adv-x="693" d="M56 465H148L179 112L355 465H429L466 109L631 465H727L489 0H403L363 323L198 0H116L56 465ZM454 651H543L525 560H436L454 651ZM289 651H380L362 560H271L289 651Z" />
<glyph unicode="&#x1ef2;" glyph-name="null" horiz-adv-x="554" d="M248 297L99 667H196L307 380L530 667H634L341 298L284 0H191L248 297ZM263 870H368L409 720H333L263 870Z" />
<glyph unicode="&#x1ef3;" glyph-name="null" horiz-adv-x="482" d="M-15 -119Q-4 -127 8 -133T41 -139Q56 -139 68 -133T92 -113T117 -77T149 -23L166 7L57 465H153L228 114L423 465H520L218 -52Q196 -89 177 -118T137 -169T95 -201T45 -213Q18 -213 -5 -207T-48
-181L-15 -119ZM462 677H555L583 541H514L462 677Z" />
<glyph unicode="&#x2013;" glyph-name="null" horiz-adv-x="500" d="M26 323H526L510 237H10L26 323Z" />
<glyph unicode="&#x2014;" glyph-name="null" horiz-adv-x="1000" d="M26 323H1026L1010 237H10L26 323Z" />
<glyph unicode="&#x2015;" glyph-name="null" horiz-adv-x="1000" d="M26 323H1026L1010 237H10L26 323Z" />
<glyph unicode="&#x2018;" glyph-name="null" horiz-adv-x="229" d="M196 666H263L208 468H110L196 666Z" />
<glyph unicode="&#x2019;" glyph-name="null" horiz-adv-x="229" d="M175 666H272L187 468H120L175 666Z" />
<glyph unicode="&#x201a;" glyph-name="null" horiz-adv-x="238" d="M72 112H169L85 -85H18L72 112Z" />
<glyph unicode="&#x201c;" glyph-name="null" horiz-adv-x="392" d="M359 666H426L371 468H273L359 666ZM196 666H263L208 468H110L196 666Z" />
<glyph unicode="&#x201d;" glyph-name="null" horiz-adv-x="392" d="M338 666H435L350 468H283L338 666ZM175 666H272L187 468H120L175 666Z" />
<glyph unicode="&#x201e;" glyph-name="null" horiz-adv-x="401" d="M72 112H169L85 -85H18L72 112ZM235 112H332L248 -85H181L235 112Z" />
<glyph unicode="&#x2020;" glyph-name="null" horiz-adv-x="495" d="M248 402H102L116 474H262L299 667H384L347 474H494L480 402H333L231 -121H146L248 402Z" />
<glyph unicode="&#x2021;" glyph-name="null" horiz-adv-x="495" d="M183 72H37L51 144H197L248 402H102L116 474H262L299 667H384L347 474H494L480 402H333L282 144H429L415 72H268L231 -121H146L183 72Z" />
<glyph unicode="&#x2022;" glyph-name="null" horiz-adv-x="384" d="M99 325Q99 350 109 372T135 411T174 437T222 447Q247 447 269 438T308 412T334 373T344 325Q344 300 335 278T309 239T270 212T222 202Q197 202 175 212T136 238T109 277T99 325Z" />
<glyph unicode="&#x2026;" glyph-name="null" horiz-adv-x="738" d="M546 112H655L633 0H524L546 112ZM300 112H409L387 0H278L300 112ZM54 112H163L141 0H32L54 112Z" />
<glyph unicode="&#x2030;" glyph-name="null" horiz-adv-x="1218" d="M639 630H728L247 0H158L639 630ZM815 217Q815 167 800 126T758 55T699 9T632 -8Q600 -8 577 3T538 32T515 75T507 127Q507 177 522 218T564 290T622 336T690 353Q722 353 745 342T784 313T807
270T815 217ZM583 130Q583 55 640 55Q658 55 675 67T707 100T730 150T739 215Q739 290 682 290Q664 290 647 278T615 245T592 195T583 130ZM1177 217Q1177 167 1162 126T1120 55T1061 9T994 -8Q962 -8 939 3T900 32T877 75T869 127Q869 177 884 218T926 290T984
336T1052 353Q1084 353 1107 342T1146 313T1169 270T1177 217ZM945 130Q945 55 1002 55Q1020 55 1037 67T1069 100T1092 150T1101 215Q1101 290 1044 290Q1026 290 1009 278T977 245T954 195T945 130ZM385 511Q385 461 370 420T328 349T269 303T202 286Q170 286
147 297T108 326T85 369T77 421Q77 471 92 512T134 584T192 630T260 647Q292 647 315 636T354 607T377 564T385 511ZM153 424Q153 349 210 349Q228 349 245 361T277 394T300 444T309 509Q309 584 252 584Q234 584 217 572T185 539T162 489T153 424Z" />
<glyph unicode="&#x2039;" glyph-name="null" horiz-adv-x="312" d="M87 243L218 431H303L173 240L231 45H151L87 243Z" />
<glyph unicode="&#x203a;" glyph-name="null" horiz-adv-x="312" d="M244 233L113 45H28L158 236L100 431H180L244 233Z" />
<glyph unicode="&#x2044;" glyph-name="null" horiz-adv-x="155" d="M307 630H396L-85 0H-174L307 630Z" />
<glyph unicode="&#x2070;" glyph-name="null" horiz-adv-x="360" d="M379 511Q379 461 364 420T322 349T263 303T196 286Q164 286 141 297T102 326T79 369T71 421Q71 471 86 512T128 584T186 630T254 647Q286 647 309 636T348 607T371 564T379 511ZM147 424Q147
349 204 349Q222 349 239 361T271 394T294 444T303 509Q303 584 246 584Q228 584 211 572T179 539T156 489T147 424Z" />
<glyph unicode="&#x2074;" glyph-name="null" horiz-adv-x="360" d="M79 419L290 637H363L320 419H361L351 362H310L297 297H231L244 362H68L79 419ZM254 419L282 559L144 419H254Z" />
<glyph unicode="&#x2075;" glyph-name="null" horiz-adv-x="360" d="M189 343Q224 343 243 362T263 411Q263 434 249 446T210 458Q193 458 179 454T147 442L116 468L177 637H359L346 577H219L195 506Q204 508 213 509T230 510Q280 510 307 482T334 414Q334 357
294 321T184 284Q143 284 116 296T69 325L102 375Q122 360 142 352T189 343Z" />
<glyph unicode="&#x2076;" glyph-name="null" horiz-adv-x="360" d="M327 565Q313 575 298 581T264 587Q222 587 199 562T163 502Q177 509 195 514T232 519Q281 519 310 491T340 422Q340 389 329 364T299 321T254 295T199 286Q169 286 146 295T108 321T86 360T78
406Q78 445 88 487T120 565T179 624T268 647Q294 647 318 639T362 615L327 565ZM220 464Q175 464 150 446Q147 436 146 425T145 405Q145 382 158 363T203 343Q230 343 251 359T273 414Q273 437 258 450T220 464Z" />
<glyph unicode="&#x2077;" glyph-name="null" horiz-adv-x="360" d="M104 296Q123 332 147 371T195 448T243 519T285 577H111L123 637H375L363 574Q347 556 323 523T273 450T222 370T182 296H104Z" />
<glyph unicode="&#x2078;" glyph-name="null" horiz-adv-x="360" d="M273 398Q273 431 218 452Q204 449 190 444T165 430T147 411T139 385Q139 368 152 354T197 340Q226 340 249 353T273 398ZM192 550Q192 523 235 502Q245 504 257 509T278 521T294 538T301 560Q301
576 290 587T252 598Q230 598 211 588T192 550ZM364 566Q364 537 348 517T293 477Q325 455 332 437T340 399Q340 379 332 359T306 322T261 296T197 286Q162 286 138 294T100 316T79 345T72 378Q72 416 100 441T167 484Q154 494 141 510T128 549Q128 568 135 586T159
617T198 639T253 647Q284 647 305 640T340 621T358 595T364 566Z" />
<glyph unicode="&#x2079;" glyph-name="null" horiz-adv-x="360" d="M102 369Q116 359 138 353T178 346Q220 346 241 371T271 431Q257 424 239 419T202 414Q153 414 124 442T94 511Q94 544 105 569T135 612T180 638T235 647Q267 647 290 637T327 609T348 569T355
522Q355 484 347 442T317 366T261 309T174 286Q148 286 122 293T75 315L102 369ZM214 469Q258 469 284 487Q287 497 288 508T289 528Q289 551 276 570T231 590Q204 590 183 574T161 519Q161 496 176 483T214 469Z" />
<glyph unicode="&#x2080;" glyph-name="null" horiz-adv-x="360" d="M330 216Q330 166 315 125T273 54T214 8T147 -9Q115 -9 92 2T53 31T30 74T22 126Q22 176 37 217T79 289T137 335T205 352Q237 352 260 341T299 312T322 269T330 216ZM98 129Q98 54 155 54Q173
54 190 66T222 99T245 149T254 214Q254 289 197 289Q179 289 162 277T130 244T107 194T98 129Z" />
<glyph unicode="&#x2081;" glyph-name="null" horiz-adv-x="360" d="M187 260L96 218L74 273L211 342H276L210 1H136L187 260Z" />
<glyph unicode="&#x2082;" glyph-name="null" horiz-adv-x="360" d="M30 39Q36 74 63 106T149 172Q177 188 194 199T220 220T233 236T236 252Q236 269 224 278T194 288Q168 288 148 278T112 251L68 291Q88 314 122 333T205 352Q259 352 287 327T316 265Q316 244
311 228T293 198T261 171T213 140Q184 123 153 104T109 60H280L267 1H23L30 39Z" />
<glyph unicode="&#x2083;" glyph-name="null" horiz-adv-x="360" d="M106 182L217 282H83L96 342H316L304 288L206 203Q248 192 265 168T283 113Q283 58 242 25T132 -9Q90 -9 62 3T14 32L48 83Q68 69 88 60T137 51Q172 51 192 66T213 111Q213 138 197 149T158
161Q149 161 140 160T122 155L106 182Z" />
<glyph unicode="&#x2084;" glyph-name="null" horiz-adv-x="360" d="M13 124L224 342H297L254 124H295L285 67H244L231 2H165L178 67H2L13 124ZM188 124L216 264L78 124H188Z" />
<glyph unicode="&#x2085;" glyph-name="null" horiz-adv-x="360" d="M142 48Q177 48 196 67T216 116Q216 139 202 151T163 163Q146 163 132 159T100 147L69 173L130 342H312L299 282H172L148 211Q157 213 166 214T183 215Q233 215 260 187T287 119Q287 62 247
26T137 -11Q96 -11 69 1T22 30L55 80Q75 65 95 57T142 48Z" />
<glyph unicode="&#x2086;" glyph-name="null" horiz-adv-x="360" d="M283 270Q269 280 254 286T220 292Q178 292 155 267T119 207Q133 214 151 219T188 224Q237 224 266 196T296 127Q296 94 285 69T255 26T210 0T155 -9Q125 -9 102 0T64 26T42 65T34 111Q34 150
44 192T76 270T135 329T224 352Q250 352 274 344T318 320L283 270ZM176 169Q131 169 106 151Q103 141 102 130T101 110Q101 87 114 68T159 48Q186 48 207 64T229 119Q229 142 214 155T176 169Z" />
<glyph unicode="&#x2087;" glyph-name="null" horiz-adv-x="360" d="M59 1Q78 37 102 76T150 153T198 224T240 282H66L78 342H330L318 279Q302 261 278 228T228 155T177 75T137 1H59Z" />
<glyph unicode="&#x2088;" glyph-name="null" horiz-adv-x="360" d="M229 103Q229 136 174 157Q160 154 146 149T121 135T103 116T95 90Q95 73 108 59T153 45Q182 45 205 58T229 103ZM148 255Q148 228 191 207Q201 209 213 214T234 226T250 243T257 265Q257 281
246 292T208 303Q186 303 167 293T148 255ZM320 271Q320 242 304 222T249 182Q281 160 288 142T296 104Q296 84 288 64T262 27T217 1T153 -9Q118 -9 94 -1T56 21T35 50T28 83Q28 121 56 146T123 189Q110 199 97 215T84 254Q84 273 91 291T115 322T154 344T209 352Q240
352 261 345T296 326T314 300T320 271Z" />
<glyph unicode="&#x2089;" glyph-name="null" horiz-adv-x="360" d="M64 74Q78 64 100 58T140 51Q182 51 203 76T233 136Q219 129 201 124T164 119Q115 119 86 147T56 216Q56 249 67 274T97 317T142 343T197 352Q229 352 252 342T289 314T310 274T317 227Q317
189 309 147T279 71T223 14T136 -9Q110 -9 84 -2T37 20L64 74ZM176 174Q220 174 246 192Q249 202 250 213T251 233Q251 256 238 275T193 295Q166 295 145 279T123 224Q123 201 138 188T176 174Z" />
<glyph unicode="&#x20ac;" glyph-name="null" horiz-adv-x="545" d="M91 421H147Q164 471 191 513T254 585T333 631T425 648Q481 648 523 625T594 551L533 508Q509 543 483 556T416 569Q356 569 310 530T238 421H462L442 361H221Q217 340 215 318T212 273H433L413
213H214Q222 144 253 106T341 67Q383 67 411 81T467 122L514 66Q481 31 437 10T336 -11Q246 -11 189 45T122 213H42L62 273H121Q122 296 124 318T131 361H71L91 421Z" />
<glyph unicode="&#x20ae;" glyph-name="null" horiz-adv-x="545" d="M209 134L91 77L65 130L223 207L241 302L123 244L97 297L255 374L290 553H109L125 633H576L559 553H378L352 422L472 480L498 427L338 349L320 254L440 313L466 260L306 182L271 0H183L209 134Z" />
</font>
</defs>
</svg>
