<?xml version="1.0" standalone="no"?> <!DOCTYPE svg PUBLIC "-//W3C//DTD SVG 1.0//EN" "http://www.w3.org/TR/2001/REC-SVG-20010904/DTD/svg10.dtd" > <svg xmlns="http://www.w3.org/2000/svg" width="100%" height="100%">
<defs >
<font id="Effra_W_BdIt" horiz-adv-x="561" ><font-face
    font-family="."
    units-per-em="1000"
    panose-1="2 11 7 3 2 2 3 9 2 4"
    ascent="955"
    descent="-251"
    alphabetic="0" />
<missing-glyph horiz-adv-x="500" d="M136 700H578L442 0H0L136 700ZM389 54L504 646H187L72 54H389Z" />
<glyph unicode="&#x0;" glyph-name="null" horiz-adv-x="0" />
<glyph unicode="&#x8;" glyph-name="null" horiz-adv-x="0" />
<glyph unicode="&#x9;" glyph-name="null" horiz-adv-x="166" />
<glyph unicode="&#xd;" glyph-name="null" horiz-adv-x="166" />
<glyph unicode="&#x1d;" glyph-name="null" horiz-adv-x="0" />
<glyph unicode=" " glyph-name="null" horiz-adv-x="166" />
<glyph unicode="!" glyph-name="null" horiz-adv-x="284" d="M165 667H318L225 217H85L165 667ZM68 152H219L190 0H39L68 152Z" />
<glyph unicode="&quot;" glyph-name="null" horiz-adv-x="413" d="M140 667H268L219 418H91L140 667ZM333 667H461L412 418H284L333 667Z" />
<glyph unicode="#" glyph-name="null" horiz-adv-x="689" d="M133 144H41L61 248H175L223 369H132L153 474H265L328 629H440L379 474H496L558 629H672L610 474H700L679 369H568L520 248H608L588 144H478L420 0H307L363 144H247L189 0H76L133 144ZM405 248L453
369H336L288 248H405Z" />
<glyph unicode="$" glyph-name="null" horiz-adv-x="545" d="M363 177Q363 192 360 203T345 225T314 247T262 271Q187 302 149 341T110 441Q110 481 124 517T165 580T233 624T326 644L342 729H434L417 640Q470 629 505 605T566 551L475 467Q446 500 414 513T351
526Q309 526 282 512T255 462Q255 450 259 440T275 418T308 396T364 371Q445 339 478 296T512 192Q512 144 494 107T446 45T376 4T290 -15L272 -107H180L198 -11Q142 -3 96 18T11 81L98 176Q128 145 169 125T264 105Q310 105 336 123T363 177Z" />
<glyph unicode="%" glyph-name="null" horiz-adv-x="876" d="M652 630H776L292 0H167L652 630ZM419 510Q419 460 404 419T362 347T303 301T232 284Q199 284 174 294T133 323T108 367T99 420Q99 470 114 511T156 583T216 629T287 646Q353 646 386 607T419 510ZM201
424Q201 398 211 385T239 371Q252 371 266 380T291 406T310 449T317 507Q317 560 279 560Q265 560 252 552T227 526T208 483T201 424ZM847 216Q847 166 832 125T790 53T731 7T660 -10Q627 -10 602 0T561 29T536 73T527 126Q527 176 542 217T584 289T644 335T715
352Q781 352 814 313T847 216ZM629 130Q629 104 639 91T667 77Q680 77 694 86T719 112T738 155T745 213Q745 266 707 266Q693 266 680 258T655 232T636 189T629 130Z" />
<glyph unicode="&amp;" glyph-name="null" horiz-adv-x="645" d="M639 262L514 145L605 0H453L416 58Q364 17 322 1T234 -16Q186 -16 150 -1T90 39T54 96T41 164Q41 233 81 287T211 388Q195 417 187 446T178 501Q178 540 191 573T231 631T296 670T388 685Q446
685 494 657T571 557L467 502Q449 539 432 554T383 570Q356 570 335 552T314 502Q314 483 322 463T341 423L452 246L560 348L639 262ZM259 110Q285 110 306 122T355 158L268 297Q233 279 207 254T181 189Q181 157 201 134T259 110Z" />
<glyph unicode="&apos;" glyph-name="null" horiz-adv-x="220" d="M140 667H268L219 418H91L140 667Z" />
<glyph unicode="(" glyph-name="null" horiz-adv-x="321" d="M104 -93Q100 -82 95 -61T84 -11T75 56T71 136Q71 240 94 333T148 502T210 630T258 706H397Q357 647 323 581T265 443T227 294T213 136Q213 92 216 54T223 -13T233 -63T241 -93H104Z" />
<glyph unicode=")" glyph-name="null" horiz-adv-x="321" d="M279 706Q283 695 288 674T299 624T308 557T312 477Q312 408 301 343T273 220T235 111T193 20T154 -49T125 -93H-14Q26 -34 60 32T118 170T156 319T170 477Q170 521 167 559T159 626T150 676T142 706H279Z" />
<glyph unicode="*" glyph-name="null" horiz-adv-x="472" d="M117 478L221 526L117 574L171 667L262 604L252 714H360L352 603L442 665L496 572L393 527L496 479L442 386L351 449L360 338H252L263 447L171 385L117 478Z" />
<glyph unicode="+" glyph-name="null" horiz-adv-x="545" d="M129 375H262L289 518H404L376 375H512L489 262H354L327 121H213L240 262H106L129 375Z" />
<glyph unicode="," glyph-name="null" horiz-adv-x="272" d="M86 0H31L62 158H221L190 1L81 -143H-2L86 0Z" />
<glyph unicode="-" glyph-name="null" horiz-adv-x="430" d="M103 347H408L382 212H77L103 347Z" />
<glyph unicode="." glyph-name="null" horiz-adv-x="272" d="M64 157H220L190 0H34L64 157Z" />
<glyph unicode="/" glyph-name="null" horiz-adv-x="436" d="M383 685H519L129 -16H-10L383 685Z" />
<glyph unicode="0" glyph-name="null" horiz-adv-x="545" d="M365 648Q413 648 450 632T512 586T551 514T565 421Q565 379 558 331T536 233T497 140T438 60T357 5T253 -16Q206 -16 170 0T108 46T69 118T56 211Q56 251 63 298T85 395T124 489T182 570T262 626T365
648ZM270 113Q311 113 341 144T390 220T418 317T427 408Q427 462 407 490T352 518Q324 518 302 504T262 466T232 412T211 349T199 284T195 224Q195 170 215 142T270 113Z" />
<glyph unicode="1" glyph-name="null" horiz-adv-x="545" d="M124 121H233L302 470L192 413L142 517L350 630H471L371 121H478L455 0H101L124 121Z" />
<glyph unicode="2" glyph-name="null" horiz-adv-x="545" d="M54 74Q62 116 79 150T122 212T181 266T253 318Q283 337 310 354T358 387T391 422T403 463Q403 490 385 507T334 524Q296 524 266 506T206 452L111 526Q130 551 154 573T208 612T275 638T357 648Q403
648 439 635T499 599T537 549T550 489Q550 449 540 419T511 363T462 315T392 267Q368 252 342 236T291 203T248 167T220 126H481L456 0H40L54 74Z" />
<glyph unicode="3" glyph-name="null" horiz-adv-x="545" d="M268 293Q250 293 236 290T208 282L174 342L363 507H137L161 629H551L530 526L363 376Q427 360 461 314T495 206Q495 158 477 117T427 47T348 0T244 -17Q168 -17 115 5T22 65L99 167Q135 137 166 122T240
107Q291 107 322 134T353 207Q353 241 333 267T268 293Z" />
<glyph unicode="4" glyph-name="null" horiz-adv-x="545" d="M58 221L403 630H546L468 231H530L507 116H446L423 0H293L315 116H36L58 221ZM337 228L381 453L193 228H337Z" />
<glyph unicode="5" glyph-name="null" horiz-adv-x="545" d="M243 106Q294 106 324 136T354 221Q354 266 329 285T263 304Q237 304 216 299T174 283L123 329L220 629H550L526 505H296L262 399Q279 403 294 405T327 407Q367 407 398 394T452 356T485 298T496 225Q496
173 479 129T429 52T350 2T246 -17Q171 -17 122 4T35 60L110 159Q128 144 143 134T173 118T205 109T243 106Z" />
<glyph unicode="6" glyph-name="null" horiz-adv-x="545" d="M503 491Q481 508 458 517T399 526Q370 526 346 515T301 485T265 440T239 383Q264 396 294 404T354 413Q393 413 424 399T478 361T511 304T523 233Q523 171 504 125T453 47T378 -1T285 -17Q230 -17
191 2T126 52T88 125T75 212Q75 284 95 361T157 502T261 607T409 648Q461 648 502 634T573 593L503 491ZM215 267Q211 251 209 236T207 206Q207 187 211 169T226 137T253 114T293 105Q312 105 330 111T362 132T384 168T393 220Q393 257 372 279T314 301Q280 301
256 292T215 267Z" />
<glyph unicode="7" glyph-name="null" horiz-adv-x="545" d="M82 0Q112 61 153 133T236 276T320 406T391 504H121L145 630H564L540 512Q494 452 451 387T368 255T293 124T229 0H82Z" />
<glyph unicode="8" glyph-name="null" horiz-adv-x="545" d="M306 285Q286 280 266 271T231 248T206 216T196 173Q196 145 217 122T280 98Q298 98 317 103T351 119T377 148T387 192Q387 218 369 243T306 285ZM341 385Q359 389 376 396T407 414T429 442T438 481Q438
504 419 525T365 547Q349 547 333 543T303 529T280 503T271 464Q271 441 288 420T341 385ZM445 334Q463 322 478 308T504 277T522 239T528 189Q528 151 513 115T465 49T385 2T272 -16Q211 -16 169 0T99 41T60 98T48 160Q48 197 59 225T91 276T140 316T200 350Q172
376 159 404T145 470Q145 503 159 535T202 592T272 632T367 648Q422 648 460 634T522 598T556 550T567 498Q567 441 536 403T445 334Z" />
<glyph unicode="9" glyph-name="null" horiz-adv-x="545" d="M107 143Q134 123 161 115T224 106Q282 106 319 144T370 246Q345 233 318 226T264 218Q182 218 137 266T92 394Q92 456 111 503T163 583T239 631T329 648Q383 648 422 630T486 580T524 508T537 421Q537
373 530 322T506 222T465 130T404 55T321 3T215 -16Q114 -16 46 37L107 143ZM399 364Q403 378 405 392T407 422Q407 441 403 460T388 493T361 516T321 525Q304 525 286 520T254 501T230 467T221 414Q221 375 242 353T301 330Q331 330 356 339T399 364Z" />
<glyph unicode=":" glyph-name="null" horiz-adv-x="272" d="M64 157H220L190 0H34L64 157ZM125 469H281L251 312H95L125 469Z" />
<glyph unicode=";" glyph-name="null" horiz-adv-x="272" d="M86 0H31L62 158H221L190 1L81 -143H-2L86 0ZM125 469H281L251 312H95L125 469Z" />
<glyph unicode="&lt;" glyph-name="null" horiz-adv-x="545" d="M121 361L492 548L534 443L265 316L484 191L416 86L104 275L121 361Z" />
<glyph unicode="=" glyph-name="null" horiz-adv-x="545" d="M143 462H526L503 349H120L143 462ZM365 536H748L725 423H342L365 536Z" />
<glyph unicode="&gt;" glyph-name="null" horiz-adv-x="545" d="M496 274L125 87L83 195L352 322L133 447L201 549L513 360L496 274Z" />
<glyph unicode="?" glyph-name="null" horiz-adv-x="513" d="M190 249Q200 303 228 336T295 396Q313 408 328 419T356 443T375 468T382 496Q382 525 364 540T310 555Q239 555 179 492L95 582Q146 636 203 660T332 685Q372 685 408 675T470 644T512 592T528 520Q528
468 505 431T439 361Q419 346 399 332T363 302T335 270T319 231L316 217H184L190 249ZM162 152H313L284 0H133L162 152Z" />
<glyph unicode="@" glyph-name="null" horiz-adv-x="921" d="M550 207Q540 209 526 210T492 212Q438 212 414 192T389 140Q389 87 442 87Q457 87 472 92T502 107T527 133T543 171L550 207ZM647 -15Q604 -15 577 -2T535 43Q510 17 472 1T392 -15Q364 -15 339 -6T295
20T265 62T253 119Q253 200 312 248T481 297Q507 297 528 295T566 290L568 300Q570 306 570 315Q570 344 548 360T489 376Q445 376 416 365T360 338L311 424Q344 447 397 465T519 484Q559 484 592 474T650 442T687 390T701 319Q701 309 700 298T696 272L666 119Q665
114 665 111T664 105Q664 82 685 82Q703 82 719 95Q813 165 813 336Q813 393 792 440T733 520T641 572T523 590Q435 590 368 566T254 497T184 391T160 257Q160 205 176 146T226 32L138 -18Q89 59 74 125T58 254Q58 345 88 423T179 560T328 651T533 684Q615 684
686 658T808 587T889 478T919 341Q919 274 902 210T850 96T764 16T647 -15Z" />
<glyph unicode="A" glyph-name="null" horiz-adv-x="652" d="M348 667H510L614 0H462L443 153H215L137 0H-20L348 667ZM431 270L401 526L271 270H431Z" />
<glyph unicode="B" glyph-name="null" horiz-adv-x="586" d="M168 667H396Q450 667 486 653T545 617T577 567T587 510Q587 475 576 449T548 404T510 373T471 354Q486 349 503 338T535 308T559 267T569 215Q569 156 549 115T492 49T402 12T284 0H39L168 667ZM338
400Q357 400 376 404T409 418T432 445T441 488Q441 522 421 536T363 550H286L257 400H338ZM305 116Q328 116 349 121T386 137T411 168T421 216Q421 254 402 272T339 290H236L202 116H305Z" />
<glyph unicode="C" glyph-name="null" horiz-adv-x="664" d="M648 117Q620 86 591 62T527 20T453 -7T365 -17Q300 -17 246 4T153 63T93 156T71 279Q71 361 99 434T177 563T298 652T452 685Q555 685 620 641T715 519L593 453Q567 503 534 525T444 548Q394 548 354
527T285 470T241 388T226 293Q226 259 236 229T265 175T312 139T378 125Q409 125 433 131T478 148T517 176T554 215L648 117Z" />
<glyph unicode="D" glyph-name="null" horiz-adv-x="690" d="M168 667H395Q460 667 515 649T610 595T673 509T696 395Q696 308 668 236T589 111T463 29T296 0H39L168 667ZM317 132Q369 132 410 151T481 203T525 280T541 377Q541 450 501 493T378 536H287L210 132H317Z" />
<glyph unicode="E" glyph-name="null" horiz-adv-x="551" d="M168 667H606L580 537H287L262 404H490L465 278H237L208 131H523L498 0H39L168 667Z" />
<glyph unicode="F" glyph-name="null" horiz-adv-x="519" d="M168 667H599L572 536H288L258 382H475L450 255H233L184 0H39L168 667Z" />
<glyph unicode="G" glyph-name="null" horiz-adv-x="694" d="M376 120Q423 120 453 128T516 158L533 251H413L437 368H690L632 72Q581 30 513 7T368 -16Q303 -16 249 4T155 63T93 156T71 277Q71 360 99 434T178 564T298 652T450 685Q551 685 613 645T708 532L588
463Q563 508 530 528T441 548Q392 548 353 527T285 470T242 388T226 294Q226 259 235 228T263 172T310 134T376 120Z" />
<glyph unicode="H" glyph-name="null" horiz-adv-x="691" d="M168 667H313L264 410H536L586 667H731L602 0H457L510 275H237L184 0H39L168 667Z" />
<glyph unicode="I" glyph-name="null" horiz-adv-x="273" d="M168 667H313L183 0H38L168 667Z" />
<glyph unicode="J" glyph-name="null" horiz-adv-x="505" d="M94 172Q120 141 147 127T207 113Q250 113 276 138T313 221L400 667H545L453 194Q432 85 373 34T217 -18Q150 -18 97 4T2 76L94 172Z" />
<glyph unicode="K" glyph-name="null" horiz-adv-x="638" d="M168 667H313L261 401L524 667H701L428 394L596 0H429L307 293L226 217L184 0H39L168 667Z" />
<glyph unicode="L" glyph-name="null" horiz-adv-x="541" d="M168 667H313L210 132H516L491 0H39L168 667Z" />
<glyph unicode="M" glyph-name="null" horiz-adv-x="778" d="M182 667H323L418 351L651 667H797L697 0H547L613 424L427 176H350L263 426L165 0H23L182 667Z" />
<glyph unicode="N" glyph-name="null" horiz-adv-x="680" d="M168 667H295L495 243L577 667H720L591 0H481L265 432L182 0H39L168 667Z" />
<glyph unicode="O" glyph-name="null" horiz-adv-x="743" d="M225 293Q225 258 234 227T263 173T311 137T378 124Q427 124 467 145T535 202T579 283T594 375Q594 410 585 441T557 495T510 532T442 546Q392 546 352 524T283 467T240 386T225 293ZM455 685Q518 685
572 665T665 607T727 516T749 396Q749 314 722 239T646 107T525 17T366 -17Q302 -17 248 4T155 63T93 154T71 272Q71 354 99 429T178 561T299 651T455 685Z" />
<glyph unicode="P" glyph-name="null" horiz-adv-x="567" d="M168 667H396Q441 667 477 652T538 612T576 552T590 480Q590 417 568 371T508 295T420 251T316 236H226L180 0H39L168 667ZM324 356Q374 356 407 382T440 467Q440 503 419 524T357 546H286L249 356H324Z" />
<glyph unicode="Q" glyph-name="null" horiz-adv-x="743" d="M455 685Q518 685 572 665T665 607T727 516T749 396Q749 296 711 209T600 64L653 -24L564 -77L511 11Q444 -17 366 -17Q302 -17 248 4T155 63T93 154T71 272Q71 354 99 429T178 561T299 651T455 685ZM225
293Q225 258 234 227T263 173T311 137T378 124Q409 124 438 133L382 228L471 280L525 190Q558 226 576 274T594 375Q594 410 585 441T557 495T510 532T442 546Q392 546 352 524T283 467T240 386T225 293Z" />
<glyph unicode="R" glyph-name="null" horiz-adv-x="593" d="M227 244L180 0H39L168 667H400Q445 667 481 653T541 613T579 554T593 482Q593 439 582 404T550 341T502 294T444 264L539 0H383L303 244H227ZM285 546L251 364H330Q379 364 412 388T445 469Q445 504
424 525T363 546H285Z" />
<glyph unicode="S" glyph-name="null" horiz-adv-x="567" d="M105 190Q143 153 183 134T275 114Q324 114 350 136T376 190Q376 206 371 218T354 242T321 265T268 289Q190 320 150 364T109 480Q109 521 125 558T174 624T254 668T363 685Q437 685 493 659T589 585L496
499Q467 531 433 547T356 563Q306 563 284 543T261 491Q261 476 266 465T284 442T320 420T377 394Q462 360 500 315T538 206Q538 151 518 109T463 39T379 -3T275 -17Q200 -17 131 7T10 87L105 190Z" />
<glyph unicode="T" glyph-name="null" horiz-adv-x="592" d="M302 536H93L119 667H679L653 536H446L343 0H198L302 536Z" />
<glyph unicode="U" glyph-name="null" horiz-adv-x="663" d="M162 667H308L232 276Q230 263 228 251T226 227Q226 181 251 153T332 125Q365 125 388 135T428 163T455 208T472 268L550 667H697L617 251Q603 178 575 127T507 44T418 -3T313 -18Q259 -18 215 -3T141
40T94 108T77 197Q77 226 83 258L162 667Z" />
<glyph unicode="V" glyph-name="null" horiz-adv-x="646" d="M107 667H264L326 180L574 667H735L368 0H214L107 667Z" />
<glyph unicode="W" glyph-name="null" horiz-adv-x="883" d="M114 667H266L269 185L467 650H609L632 186L812 667H970L678 0H523L496 442L300 0H147L114 667Z" />
<glyph unicode="X" glyph-name="null" horiz-adv-x="632" d="M264 351L115 667H282L371 463L526 667H693L433 345L602 0H430L328 228L151 0H-17L264 351Z" />
<glyph unicode="Y" glyph-name="null" horiz-adv-x="599" d="M247 277L99 667H257L344 413L529 667H695L394 279L340 0H194L247 277Z" />
<glyph unicode="Z" glyph-name="null" horiz-adv-x="606" d="M31 122L450 536H127L152 667H663L640 546L222 130H566L541 0H7L31 122Z" />
<glyph unicode="[" glyph-name="null" horiz-adv-x="342" d="M180 706H421L398 591H286L176 23H288L265 -93H24L180 706Z" />
<glyph unicode="\" glyph-name="null" horiz-adv-x="436" d="M131 685H258L376 -16H247L131 685Z" />
<glyph unicode="]" glyph-name="null" horiz-adv-x="342" d="M5 23H117L227 591H115L138 706H379L223 -93H-18L5 23Z" />
<glyph unicode="^" glyph-name="null" horiz-adv-x="542" d="M315 667H434L532 300H395L346 511L214 300H75L315 667Z" />
<glyph unicode="_" glyph-name="null" horiz-adv-x="500" d="M-33 -66H463L452 -120H-44L-33 -66Z" />
<glyph unicode="`" glyph-name="null" horiz-adv-x="425" d="M222 682H359L382 540H282L222 682Z" />
<glyph unicode="a" glyph-name="null" horiz-adv-x="501" d="M328 206Q318 208 303 210T268 212Q214 212 188 192T161 141Q161 115 176 102T217 89Q232 89 248 93T279 108T305 133T321 171L328 206ZM297 44Q268 13 234 0T161 -14Q134 -14 110 -5T67 21T38 64T27
121Q27 161 43 194T89 251T161 288T258 301Q283 301 301 300T345 295L347 305Q348 310 348 314T349 322Q349 353 324 364T265 376Q221 376 192 365T136 338L87 424Q120 447 173 466T295 485Q383 485 430 443T478 321Q478 310 477 297T473 272L420 0H292L297 44Z"
/>
<glyph unicode="b" glyph-name="null" horiz-adv-x="549" d="M157 667H295L249 431Q278 457 307 468T380 479Q413 479 442 465T492 426T526 366T539 289Q539 217 515 161T449 65T353 5T240 -16Q125 -16 33 27L157 667ZM187 111Q204 105 218 104T249 102Q282 102
309 114T354 149T383 203T393 271Q393 309 376 333T320 357Q275 357 250 328T215 253L187 111Z" />
<glyph unicode="c" glyph-name="null" horiz-adv-x="483" d="M453 66Q415 31 368 8T251 -16Q206 -16 168 -1T103 41T61 106T46 189Q46 250 66 304T124 398T212 462T323 485Q395 485 438 453T505 361L395 304Q380 333 362 347T311 361Q287 361 265 350T226 319T198
271T187 206Q187 158 213 133T275 108Q307 108 332 122T379 156L453 66Z" />
<glyph unicode="d" glyph-name="null" horiz-adv-x="551" d="M398 344Q382 353 363 356T326 359Q300 359 275 348T230 316T198 265T186 198Q186 156 205 132T264 107Q285 107 303 115T335 138T358 172T372 212L398 344ZM343 47Q289 -13 208 -13Q176 -13 147 -1T95
36T59 95T45 176Q45 253 70 310T135 404T224 460T323 479Q352 479 376 474T421 461L460 667H598L469 0H337L343 47Z" />
<glyph unicode="e" glyph-name="null" horiz-adv-x="525" d="M314 485Q363 485 399 468T460 424T495 360T507 286Q507 261 504 239T495 192H185Q185 149 215 122T291 95Q327 95 358 107T417 138L472 47Q430 18 381 1T272 -16Q227 -16 187 -4T116 35T67 100T49
195Q49 259 69 312T124 404T208 464T314 485ZM378 282Q380 288 380 293T380 301Q380 335 359 355T303 375Q264 375 235 353T192 282H378Z" />
<glyph unicode="f" glyph-name="null" horiz-adv-x="345" d="M126 358H53L75 469H148L153 495Q171 589 219 637T355 685Q402 685 435 671T496 631L426 544Q414 555 400 562T363 569Q338 569 320 553T294 503L286 469H392L370 358H264L195 0H57L126 358Z" />
<glyph unicode="g" glyph-name="null" horiz-adv-x="543" d="M466 26Q441 -100 375 -156T197 -212Q149 -212 102 -200T17 -160L72 -58Q101 -77 133 -87T200 -98Q308 -98 329 15L335 47Q312 29 282 16T206 2Q165 2 135 17T84 57T54 116T44 185Q44 248 65 302T126
395T221 457T345 479Q401 479 451 468T546 436L466 26ZM393 351Q367 362 330 362Q300 362 273 350T226 316T195 264T183 197Q183 162 202 140T261 118Q306 118 332 145T367 216L393 351Z" />
<glyph unicode="h" glyph-name="null" horiz-adv-x="545" d="M158 667H294L246 423Q278 454 313 467T391 480Q457 480 491 441T526 336Q526 324 525 312T522 288L466 0H327L378 263Q381 276 381 291Q381 321 368 339T322 358Q299 358 281 349T249 323T226 286T212
242L165 0H28L158 667Z" />
<glyph unicode="i" glyph-name="null" horiz-adv-x="252" d="M152 666H300L275 539H127L152 666ZM119 469H257L166 0H28L119 469Z" />
<glyph unicode="j" glyph-name="null" horiz-adv-x="258" d="M-105 -58Q-88 -70 -73 -74T-41 -79Q-12 -79 7 -60T37 16L125 469H263L174 13Q164 -37 150 -76T112 -143T55 -185T-27 -200Q-69 -200 -102 -191T-164 -159L-105 -58ZM158 666H306L281 539H133L158 666Z" />
<glyph unicode="k" glyph-name="null" horiz-adv-x="513" d="M158 667H294L226 318L391 469H551L355 288L478 0H333L249 202L195 154L165 0H28L158 667Z" />
<glyph unicode="l" glyph-name="null" horiz-adv-x="252" d="M157 667H295L166 0H28L157 667Z" />
<glyph unicode="m" glyph-name="null" horiz-adv-x="837" d="M28 0L119 469H252L246 417Q283 455 318 467T397 480Q434 480 460 465T506 415Q543 450 580 465T672 480Q738 480 778 441T818 336Q818 324 817 312T814 288L758 0H619L670 263Q673 276 673 291Q673
321 660 339T617 358Q594 358 576 349T544 323T521 286T507 242L460 0H324L375 263Q378 276 378 291Q378 321 365 339T322 358Q299 358 281 349T249 323T226 286T212 242L165 0H28Z" />
<glyph unicode="n" glyph-name="null" horiz-adv-x="545" d="M119 469H251L245 418Q277 452 311 466T391 480Q457 480 491 441T526 336Q526 324 525 312T522 288L466 0H327L378 263Q381 278 381 292Q381 322 367 340T322 358Q299 358 281 349T249 323T226 286T212
242L165 0H28L119 469Z" />
<glyph unicode="o" glyph-name="null" horiz-adv-x="545" d="M326 485Q370 485 408 470T474 426T518 360T534 276Q534 214 514 161T456 69T368 7T255 -16Q211 -16 173 -1T107 43T62 109T46 193Q46 254 68 307T129 400T218 462T326 485ZM307 363Q283 363 261 352T220
321T192 273T181 212Q181 164 203 135T271 106Q295 106 317 117T358 148T387 195T398 257Q398 305 376 334T307 363Z" />
<glyph unicode="p" glyph-name="null" horiz-adv-x="554" d="M119 469H251L246 418Q272 447 305 462T384 478Q417 478 446 464T496 425T530 365T543 288Q543 211 520 155T457 60T366 4T260 -15Q237 -15 215 -11T166 6L126 -200H-11L119 469ZM188 119Q203 110 220
107T256 103Q289 103 315 117T360 154T389 208T399 272Q399 311 380 334T326 357Q284 357 254 328T212 244L188 119Z" />
<glyph unicode="q" glyph-name="null" horiz-adv-x="550" d="M335 32Q312 14 282 1T207 -13Q172 -13 142 0T91 38T57 98T45 176Q45 249 69 305T134 400T230 459T349 479Q374 479 402 476T456 466T507 452T552 435L429 -200H290L335 32ZM396 348Q379 355 363 357T330
359Q301 359 275 348T229 317T198 266T186 199Q186 159 205 133T264 107Q306 107 333 136T369 208L396 348Z" />
<glyph unicode="r" glyph-name="null" horiz-adv-x="383" d="M119 469H251L244 410Q269 439 302 458T378 478Q395 478 409 475T438 467L394 342Q379 348 368 349T342 351Q288 351 254 314T208 219L166 0H28L119 469Z" />
<glyph unicode="s" glyph-name="null" horiz-adv-x="453" d="M73 144Q108 118 139 106T212 94Q277 94 277 135Q277 145 273 152T258 165T231 179T191 197Q171 206 152 217T117 245T93 282T83 331Q83 370 98 399T140 447T202 475T277 485Q325 485 370 469T457 416L385
334Q332 378 275 378Q246 378 232 367T218 342Q218 331 221 324T235 309T263 293T312 270Q360 247 388 218T416 143Q416 102 401 72T359 23T296 -6T219 -16Q159 -16 107 -1T8 53L73 144Z" />
<glyph unicode="t" glyph-name="null" horiz-adv-x="399" d="M122 358H52L73 469H143L170 611H310L282 469H399L378 358H261L224 169Q221 155 221 143Q221 123 231 111T264 99Q284 99 298 105T330 125L386 38Q351 9 312 -4T232 -17Q79 -17 79 117Q79 131 81 145T86
177L122 358Z" />
<glyph unicode="u" glyph-name="null" horiz-adv-x="541" d="M460 0H328L334 51Q302 17 268 3T188 -11Q122 -11 88 28T54 134Q54 145 55 157T58 181L114 469H252L201 206Q198 192 198 178Q198 150 210 131T257 111Q280 111 298 120T330 146T353 183T367 227L414
469H551L460 0Z" />
<glyph unicode="v" glyph-name="null" horiz-adv-x="516" d="M54 469H203L250 156L408 469H563L281 0H155L54 469Z" />
<glyph unicode="w" glyph-name="null" horiz-adv-x="737" d="M57 469H196L217 163L362 469H474L503 163L639 469H785L538 0H416L381 264L243 0H123L57 469Z" />
<glyph unicode="x" glyph-name="null" horiz-adv-x="499" d="M190 243L72 469H222L285 337L392 469H549L347 239L469 0H319L250 143L134 0H-24L190 243Z" />
<glyph unicode="y" glyph-name="null" horiz-adv-x="527" d="M7 -76Q38 -98 66 -98Q92 -98 110 -78T151 -20L167 8L52 469H205L260 166L415 469H570L290 -12Q265 -54 242 -90T193 -154T138 -196T73 -212Q38 -212 9 -206T-51 -173L7 -76Z" />
<glyph unicode="z" glyph-name="null" horiz-adv-x="479" d="M29 95L305 356H90L113 469H502L483 371L211 111H436L414 0H11L29 95Z" />
<glyph unicode="{" glyph-name="null" horiz-adv-x="299" d="M108 192Q109 195 109 208Q109 233 96 249T51 267L67 348Q104 349 123 371T151 424L196 587Q208 632 224 660T266 706H393Q372 689 353 658T323 584L274 404Q268 383 257 367T232 340T203 321T172 309Q195
301 216 279T237 219Q237 214 237 209T236 198L214 19Q213 14 213 9T213 -2Q213 -28 220 -53T238 -93H112Q86 -64 86 -12Q86 7 89 30L108 192Z" />
<glyph unicode="|" glyph-name="null" horiz-adv-x="260" d="M199 833H328L135 -164H6L199 833Z" />
<glyph unicode="}" glyph-name="null" horiz-adv-x="299" d="M257 421Q256 418 256 405Q256 380 269 364T314 346L298 265Q261 264 242 242T214 189L169 26Q157 -19 141 -47T99 -93H-28Q-7 -76 12 -45T42 29L91 209Q97 230 108 246T133 273T162 292T193 304Q170
312 149 334T128 394Q128 399 128 404T129 415L151 594Q152 599 152 604T152 615Q152 641 145 666T127 706H253Q279 677 279 625Q279 605 276 583L257 421Z" />
<glyph unicode="~" glyph-name="null" horiz-adv-x="482" d="M338 348Q362 348 384 358T426 388L479 290Q414 219 339 219Q318 219 301 225T266 238T233 252T197 259Q172 259 151 249T109 219L56 317Q89 353 123 370T196 387Q217 387 235 381T269 368T302 354T338 348Z" />
<glyph unicode="&#xa0;" glyph-name="null" horiz-adv-x="166" />
<glyph unicode="&#xa1;" glyph-name="null" horiz-adv-x="284" d="M155 -198H2L95 252H235L155 -198ZM252 317H101L130 469H281L252 317Z" />
<glyph unicode="&#xa2;" glyph-name="null" horiz-adv-x="545" d="M504 144Q471 114 433 92T341 64L325 -19H240L256 66Q220 73 191 90T141 134T109 194T97 267Q97 326 116 378T169 469T250 533T353 562L370 649H455L436 555Q481 543 509 514T556 439L446 382Q431
411 413 425T362 439Q338 439 316 428T277 397T249 349T238 284Q238 236 264 211T326 186Q358 186 383 200T430 234L504 144Z" />
<glyph unicode="&#xa3;" glyph-name="null" horiz-adv-x="545" d="M497 470Q480 496 462 506T416 516Q374 516 352 493T321 423L309 364H480L462 269H291L264 132H518L492 0H94L147 269H78L95 364H165L181 448Q191 502 213 540T267 602T338 637T420 648Q484 648
528 623T604 544L497 470Z" />
<glyph unicode="&#xa4;" glyph-name="null" horiz-adv-x="545" d="M57 156L124 226Q99 270 99 324Q99 371 122 417L57 485L138 568L205 498Q226 510 247 516T296 522Q352 522 396 494L467 568L549 485L474 408Q484 388 489 368T495 324Q495 299 490 277T473 234L549
156L467 74L392 150Q370 138 347 132T296 125Q247 125 209 147L138 74L57 156ZM209 324Q209 288 234 262T296 236Q333 236 358 262T383 324Q383 359 358 385T296 411Q259 411 234 385T209 324Z" />
<glyph unicode="&#xa5;" glyph-name="null" horiz-adv-x="545" d="M75 189H202L216 260H89L104 341H190L102 630H245L309 372L470 630H622L419 341H507L491 260H361L347 189H477L462 108H332L311 0H166L186 108H59L75 189Z" />
<glyph unicode="&#xa6;" glyph-name="null" horiz-adv-x="260" d="M126 454L199 833H328L254 454H126ZM208 215L135 -164H6L79 215H208Z" />
<glyph unicode="&#xa7;" glyph-name="null" horiz-adv-x="463" d="M405 519Q384 540 367 548T328 556Q299 556 279 538T259 489Q259 471 268 451T305 408L452 287L363 185L203 312Q156 349 135 391T114 478Q114 520 128 557T170 623T238 668T331 685Q382 685 421
668T496 608L405 519ZM94 -46Q115 -68 131 -75T170 -83Q199 -83 219 -65T239 -16Q239 2 230 21T193 64L46 186L135 288L295 161Q343 123 363 82T384 -5Q384 -48 370 -85T329 -151T261 -195T167 -212Q116 -212 77 -195T3 -135L94 -46Z" />
<glyph unicode="&#xa8;" glyph-name="null" horiz-adv-x="399" d="M338 666H456L434 555H316L338 666ZM152 666H271L249 555H130L152 666Z" />
<glyph unicode="&#xa9;" glyph-name="null" horiz-adv-x="774" d="M420 -14Q347 -14 284 13T175 87T101 198T74 335Q74 408 101 471T174 582T284 656T421 684Q494 684 557 657T666 582T740 472T767 335Q767 262 740 199T666 88T556 13T420 -14ZM420 67Q475 67
522 87T605 144T659 229T679 335Q679 391 660 440T606 525T524 582T421 603Q365 603 318 582T235 525T181 440T161 335Q161 278 180 229T235 144T317 88T420 67ZM581 230Q555 195 516 170T424 145Q381 145 346 159T286 199T247 260T233 337Q233 377 247 411T286
472T347 513T424 528Q476 528 515 503T581 442L511 389Q499 409 479 424T429 440Q384 440 358 411T331 336Q331 293 357 264T429 234Q460 234 480 250T512 285L581 230Z" />
<glyph unicode="&#xaa;" glyph-name="null" horiz-adv-x="373" d="M291 458Q276 461 252 461Q219 461 202 449T185 419Q185 386 221 386Q240 386 261 398T287 439L291 458ZM274 350Q258 332 232 322T183 312Q141 312 116 337T90 407Q90 458 132 489T245 520Q276
520 302 517L303 522Q304 527 304 534Q304 553 290 562T251 571Q222 571 202 565T164 547L130 607Q152 623 188 635T271 648Q328 648 362 621T397 540Q397 532 396 524T393 507L369 380Q366 365 364 352T359 322H271L274 350Z" />
<glyph unicode="&#xab;" glyph-name="null" horiz-adv-x="565" d="M85 246L220 438H360L223 241L282 42H147L85 246ZM303 246L438 438H578L441 241L500 42H365L303 246Z" />
<glyph unicode="&#xac;" glyph-name="null" horiz-adv-x="545" d="M126 376H509L459 121H346L373 262H103L126 376Z" />
<glyph unicode="&#xad;" glyph-name="null" horiz-adv-x="430" d="M103 347H408L382 212H77L103 347Z" />
<glyph unicode="&#xae;" glyph-name="null" horiz-adv-x="774" d="M287 512H431Q466 512 491 502T531 476T554 442T562 406Q562 377 546 350T500 307L584 164H486L412 293H373V164H287V512ZM428 363Q453 363 463 373T473 401Q473 439 427 439H373V363H428ZM420
-14Q347 -14 284 13T175 87T101 198T74 335Q74 408 101 471T174 582T284 656T421 684Q494 684 557 657T666 582T740 472T767 335Q767 262 740 199T666 88T556 13T420 -14ZM420 67Q475 67 522 87T605 144T659 229T679 335Q679 391 660 440T606 525T524 582T421 603Q365
603 318 582T235 525T181 440T161 335Q161 278 180 229T235 144T317 88T420 67Z" />
<glyph unicode="&#xaf;" glyph-name="null" horiz-adv-x="400" d="M169 653H434L414 553H149L169 653Z" />
<glyph unicode="&#xb0;" glyph-name="null" horiz-adv-x="355" d="M84 524Q84 555 95 581T125 626T171 655T228 666Q258 666 284 656T330 626T361 581T373 524Q373 494 362 468T331 423T285 394T228 383Q198 383 172 393T126 423T95 468T84 524ZM228 467Q254 467
268 484T283 524Q283 548 269 564T228 581Q204 581 189 565T174 524Q174 501 189 484T228 467Z" />
<glyph unicode="&#xb1;" glyph-name="null" horiz-adv-x="545" d="M83 113H466L443 0H60L83 113ZM129 375H263L290 518H405L377 375H514L491 262H355L333 144H218L241 262H106L129 375Z" />
<glyph unicode="&#xb2;" glyph-name="null" horiz-adv-x="360" d="M82 345Q89 383 115 411T189 468Q227 490 247 504T267 534Q267 559 238 559Q196 559 157 526L109 590Q140 616 176 631T255 646Q309 646 341 622T374 553Q374 509 346 481T276 428Q256 417 236
405T203 379H346L329 294H73L82 345Z" />
<glyph unicode="&#xb3;" glyph-name="null" horiz-adv-x="360" d="M152 479L254 555H128L144 637H378L363 571L272 499Q347 473 347 407Q347 353 306 319T196 284Q148 284 118 294T61 327L107 398Q130 381 152 375T195 369Q224 369 238 380T253 409Q253 429 241
436T209 444Q189 444 173 438L152 479Z" />
<glyph unicode="&#xb4;" glyph-name="null" horiz-adv-x="413" d="M274 682H411L305 540H203L274 682Z" />
<glyph unicode="&#xb5;" glyph-name="null" horiz-adv-x="545" d="M114 469H252L202 211Q200 203 199 194T198 176Q198 146 213 129T257 111Q281 111 299 121T331 147T354 185T367 227L414 469H551L460 0H328L334 51Q314 25 285 9T214 -7Q185 -7 160 8L120 -200H-16L114
469Z" />
<glyph unicode="&#xb6;" glyph-name="null" horiz-adv-x="540" d="M449 667H581L428 -122H296L449 667ZM178 250Q199 244 230 242T284 239H308L239 -122H106L178 250ZM319 296H296Q252 296 213 305T145 334T100 384T83 455Q83 510 106 550T169 616T260 654T368
667H391L319 296Z" />
<glyph unicode="&#xb7;" glyph-name="null" horiz-adv-x="271" d="M110 398H266L236 241H80L110 398Z" />
<glyph unicode="&#xb8;" glyph-name="null" horiz-adv-x="456" d="M55 -144Q72 -150 88 -154T123 -158Q182 -158 182 -124Q182 -109 168 -105T137 -100Q105 -100 68 -113L95 -46Q134 -34 180 -34Q219 -34 247 -55T275 -113Q275 -145 262 -168T228 -205T181 -225T130
-232Q68 -232 29 -215L55 -144Z" />
<glyph unicode="&#xb9;" glyph-name="null" horiz-adv-x="360" d="M225 531L154 497L120 572L256 637H348L282 294H179L225 531Z" />
<glyph unicode="&#xba;" glyph-name="null" horiz-adv-x="399" d="M290 648Q319 648 345 638T390 610T420 565T431 508Q431 467 417 432T377 370T317 328T243 313Q214 313 188 323T143 352T112 397T101 455Q101 496 116 531T158 593T218 633T290 648ZM277 558Q262
558 248 551T223 532T206 504T199 468Q199 441 213 422T255 403Q270 403 284 410T309 429T327 458T334 495Q334 522 319 540T277 558Z" />
<glyph unicode="&#xbb;" glyph-name="null" horiz-adv-x="565" d="M515 234L380 42H240L377 239L318 438H453L515 234ZM297 234L162 42H22L159 239L100 438H235L297 234Z" />
<glyph unicode="&#xbc;" glyph-name="null" horiz-adv-x="900" d="M462 531L391 497L357 572L493 637H585L519 294H416L462 531ZM648 630H772L288 0H163L648 630ZM558 137L748 344H857L816 134H852L838 61H802L790 1H697L709 61H543L558 137ZM723 133L746 253L637
133H723Z" />
<glyph unicode="&#xbd;" glyph-name="null" horiz-adv-x="925" d="M462 531L391 497L357 572L493 637H585L519 294H416L462 531ZM622 630H746L262 0H137L622 630ZM580 52Q587 90 613 118T687 175Q725 197 745 211T765 241Q765 266 736 266Q694 266 655 233L607
297Q638 323 674 338T753 353Q807 353 839 329T872 260Q872 216 844 188T774 135Q754 124 734 112T701 86H844L827 1H571L580 52Z" />
<glyph unicode="&#xbe;" glyph-name="null" horiz-adv-x="925" d="M172 479L274 555H148L164 637H398L383 571L292 499Q367 473 367 407Q367 353 326 319T216 284Q168 284 138 294T81 327L127 398Q150 381 172 375T215 369Q244 369 258 380T273 409Q273 429 261
436T229 444Q209 444 193 438L172 479ZM689 630H813L329 0H204L689 630ZM583 137L773 344H882L841 134H877L863 61H827L815 1H722L734 61H568L583 137ZM748 133L771 253L662 133H748Z" />
<glyph unicode="&#xbf;" glyph-name="null" horiz-adv-x="513" d="M366 220Q356 166 328 133T261 73Q243 61 228 50T200 26T181 1T174 -27Q174 -56 192 -71T246 -86Q317 -86 377 -23L461 -113Q410 -167 353 -191T224 -216Q183 -216 148 -206T86 -175T44 -123T28
-51Q28 1 51 38T117 108Q137 123 157 137T193 167T221 199T237 238L240 252H372L366 220ZM394 317H243L272 469H423L394 317Z" />
<glyph unicode="&#xc0;" glyph-name="null" horiz-adv-x="652" d="M348 667H510L614 0H462L443 153H215L137 0H-20L348 667ZM431 270L401 526L271 270H431ZM304 873H457L500 717H390L304 873Z" />
<glyph unicode="&#xc1;" glyph-name="null" horiz-adv-x="652" d="M348 667H510L614 0H462L443 153H215L137 0H-20L348 667ZM431 270L401 526L271 270H431ZM459 873H614L475 717H365L459 873Z" />
<glyph unicode="&#xc2;" glyph-name="null" horiz-adv-x="652" d="M348 667H510L614 0H462L443 153H215L137 0H-20L348 667ZM431 270L401 526L271 270H431ZM406 873H518L598 717H483L448 793L382 717H264L406 873Z" />
<glyph unicode="&#xc3;" glyph-name="null" horiz-adv-x="652" d="M348 667H510L614 0H462L443 153H215L137 0H-20L348 667ZM431 270L401 526L271 270H431ZM497 720Q476 720 460 726T430 740T402 754T369 761Q340 761 323 752T285 725L239 801Q265 824 297 845T372
866Q392 866 408 860T438 846T467 832T499 825Q528 825 545 834T583 860L628 785Q616 774 603 763T573 742T537 726T497 720Z" />
<glyph unicode="&#xc4;" glyph-name="null" horiz-adv-x="659" d="M348 667H510L614 0H462L443 153H215L137 0H-20L348 667ZM431 270L401 526L271 270H431ZM497 855H621L599 736H474L497 855ZM289 855H413L390 736H266L289 855Z" />
<glyph unicode="&#xc5;" glyph-name="null" horiz-adv-x="652" d="M299 762Q299 790 309 814T338 855T380 882T433 892Q460 892 484 883T527 856T556 814T567 762Q567 728 552 701T512 655L614 0H462L443 153H215L137 0H-20L345 662Q324 679 312 705T299 762ZM431
270L401 526L271 270H431ZM433 712Q455 712 468 726T481 762Q481 785 468 798T433 812Q410 812 397 798T384 762Q384 740 397 726T433 712Z" />
<glyph unicode="&#xc6;" glyph-name="null" horiz-adv-x="927" d="M462 156H253L138 0H-23L474 667H982L956 537H675L650 404H866L841 278H625L596 131H899L874 0H432L462 156ZM535 535H522L329 270H484L535 535Z" />
<glyph unicode="&#xc7;" glyph-name="null" horiz-adv-x="664" d="M648 117Q620 86 591 62T527 20T453 -7T365 -17Q300 -17 246 4T153 63T93 156T71 279Q71 361 99 434T177 563T298 652T452 685Q555 685 620 641T715 519L593 453Q567 503 534 525T444 548Q394
548 354 527T285 470T241 388T226 293Q226 259 236 229T265 175T312 139T378 125Q409 125 433 131T478 148T517 176T554 215L648 117ZM226 -142Q244 -148 260 -152T296 -156Q355 -156 355 -126Q355 -111 342 -107T310 -103Q275 -103 239 -115L267 -47Q287 -41 308
-39T354 -36Q394 -36 422 -57T451 -115Q451 -147 438 -169T403 -204T356 -224T303 -230Q239 -230 199 -213L226 -142Z" />
<glyph unicode="&#xc8;" glyph-name="null" horiz-adv-x="551" d="M168 667H606L580 537H287L262 404H490L465 278H237L208 131H523L498 0H39L168 667ZM276 873H429L472 717H362L276 873Z" />
<glyph unicode="&#xc9;" glyph-name="null" horiz-adv-x="551" d="M168 667H606L580 537H287L262 404H490L465 278H237L208 131H523L498 0H39L168 667ZM415 873H570L431 717H321L415 873Z" />
<glyph unicode="&#xca;" glyph-name="null" horiz-adv-x="551" d="M168 667H606L580 537H287L262 404H490L465 278H237L208 131H523L498 0H39L168 667ZM369 873H481L561 717H446L411 793L345 717H227L369 873Z" />
<glyph unicode="&#xcb;" glyph-name="null" horiz-adv-x="551" d="M168 667H606L580 537H287L262 404H490L465 278H237L208 131H523L498 0H39L168 667ZM461 855H585L563 736H438L461 855ZM253 855H377L354 736H230L253 855Z" />
<glyph unicode="&#xcc;" glyph-name="null" horiz-adv-x="273" d="M168 667H313L183 0H38L168 667ZM382 873H535L578 717H468L382 873Z" />
<glyph unicode="&#xcd;" glyph-name="null" horiz-adv-x="273" d="M168 667H313L183 0H38L168 667ZM523 873H678L539 717H429L523 873Z" />
<glyph unicode="&#xce;" glyph-name="null" horiz-adv-x="273" d="M168 667H313L183 0H38L168 667ZM473 873H585L665 717H550L515 793L449 717H331L473 873Z" />
<glyph unicode="&#xcf;" glyph-name="null" horiz-adv-x="273" d="M168 667H313L183 0H38L168 667ZM567 855H691L669 736H544L567 855ZM359 855H483L460 736H336L359 855Z" />
<glyph unicode="&#xd0;" glyph-name="null" horiz-adv-x="705" d="M110 289H49L67 383H128L183 667H410Q475 667 530 649T625 595T688 509T711 395Q711 308 683 236T604 111T478 29T311 0H54L110 289ZM332 132Q384 132 425 151T496 203T540 280T556 377Q556 450
516 493T393 536H302L273 383H398L380 289H255L225 132H332Z" />
<glyph unicode="&#xd1;" glyph-name="null" horiz-adv-x="680" d="M168 667H295L495 243L577 667H720L591 0H481L265 432L182 0H39L168 667ZM506 720Q485 720 469 726T439 740T411 754T378 761Q349 761 332 752T294 725L248 801Q274 824 306 845T381 866Q401 866
417 860T447 846T476 832T508 825Q537 825 554 834T592 860L637 785Q625 774 612 763T582 742T546 726T506 720Z" />
<glyph unicode="&#xd2;" glyph-name="null" horiz-adv-x="743" d="M225 293Q225 258 234 227T263 173T311 137T378 124Q427 124 467 145T535 202T579 283T594 375Q594 410 585 441T557 495T510 532T442 546Q392 546 352 524T283 467T240 386T225 293ZM455 685Q518
685 572 665T665 607T727 516T749 396Q749 314 722 239T646 107T525 17T366 -17Q302 -17 248 4T155 63T93 154T71 272Q71 354 99 429T178 561T299 651T455 685ZM353 873H506L549 717H439L353 873Z" />
<glyph unicode="&#xd3;" glyph-name="null" horiz-adv-x="743" d="M225 293Q225 258 234 227T263 173T311 137T378 124Q427 124 467 145T535 202T579 283T594 375Q594 410 585 441T557 495T510 532T442 546Q392 546 352 524T283 467T240 386T225 293ZM455 685Q518
685 572 665T665 607T727 516T749 396Q749 314 722 239T646 107T525 17T366 -17Q302 -17 248 4T155 63T93 154T71 272Q71 354 99 429T178 561T299 651T455 685ZM491 873H646L507 717H397L491 873Z" />
<glyph unicode="&#xd4;" glyph-name="null" horiz-adv-x="743" d="M225 293Q225 258 234 227T263 173T311 137T378 124Q427 124 467 145T535 202T579 283T594 375Q594 410 585 441T557 495T510 532T442 546Q392 546 352 524T283 467T240 386T225 293ZM455 685Q518
685 572 665T665 607T727 516T749 396Q749 314 722 239T646 107T525 17T366 -17Q302 -17 248 4T155 63T93 154T71 272Q71 354 99 429T178 561T299 651T455 685ZM445 873H557L637 717H522L487 793L421 717H303L445 873Z" />
<glyph unicode="&#xd5;" glyph-name="null" horiz-adv-x="743" d="M225 293Q225 258 234 227T263 173T311 137T378 124Q427 124 467 145T535 202T579 283T594 375Q594 410 585 441T557 495T510 532T442 546Q392 546 352 524T283 467T240 386T225 293ZM455 685Q518
685 572 665T665 607T727 516T749 396Q749 314 722 239T646 107T525 17T366 -17Q302 -17 248 4T155 63T93 154T71 272Q71 354 99 429T178 561T299 651T455 685ZM550 720Q529 720 513 726T483 740T455 754T422 761Q393 761 376 752T338 725L292 801Q318 824 350
845T425 866Q445 866 461 860T491 846T520 832T552 825Q581 825 598 834T636 860L681 785Q669 774 656 763T626 742T590 726T550 720Z" />
<glyph unicode="&#xd6;" glyph-name="null" horiz-adv-x="743" d="M225 293Q225 258 234 227T263 173T311 137T378 124Q427 124 467 145T535 202T579 283T594 375Q594 410 585 441T557 495T510 532T442 546Q392 546 352 524T283 467T240 386T225 293ZM455 685Q518
685 572 665T665 607T727 516T749 396Q749 314 722 239T646 107T525 17T366 -17Q302 -17 248 4T155 63T93 154T71 272Q71 354 99 429T178 561T299 651T455 685ZM537 855H661L639 736H514L537 855ZM329 855H453L430 736H306L329 855Z" />
<glyph unicode="&#xd7;" glyph-name="null" horiz-adv-x="545" d="M384 313L474 193L381 116L291 234L150 114L83 198L226 320L134 443L227 520L319 399L459 519L526 435L384 313Z" />
<glyph unicode="&#xd8;" glyph-name="null" horiz-adv-x="743" d="M455 685Q503 685 545 674T622 640L693 723L758 671L685 586Q715 549 732 501T749 396Q749 314 722 239T646 107T525 17T366 -17Q320 -17 279 -6T204 25L129 -63L64 -11L140 78Q107 115 89 164T71
272Q71 354 99 429T178 561T299 651T455 685ZM225 293Q225 267 229 244T245 200L523 525Q506 535 486 540T442 546Q392 546 352 524T283 467T240 386T225 293ZM594 375Q594 421 577 461L303 141Q335 124 378 124Q427 124 467 145T535 202T579 283T594 375Z" />
<glyph unicode="&#xd9;" glyph-name="null" horiz-adv-x="663" d="M162 667H308L232 276Q230 263 228 251T226 227Q226 181 251 153T332 125Q365 125 388 135T428 163T455 208T472 268L550 667H697L617 251Q603 178 575 127T507 44T418 -3T313 -18Q259 -18 215
-3T141 40T94 108T77 197Q77 226 83 258L162 667ZM313 873H466L509 717H399L313 873Z" />
<glyph unicode="&#xda;" glyph-name="null" horiz-adv-x="663" d="M162 667H308L232 276Q230 263 228 251T226 227Q226 181 251 153T332 125Q365 125 388 135T428 163T455 208T472 268L550 667H697L617 251Q603 178 575 127T507 44T418 -3T313 -18Q259 -18 215
-3T141 40T94 108T77 197Q77 226 83 258L162 667ZM454 873H609L470 717H360L454 873Z" />
<glyph unicode="&#xdb;" glyph-name="null" horiz-adv-x="663" d="M162 667H308L232 276Q230 263 228 251T226 227Q226 181 251 153T332 125Q365 125 388 135T428 163T455 208T472 268L550 667H697L617 251Q603 178 575 127T507 44T418 -3T313 -18Q259 -18 215
-3T141 40T94 108T77 197Q77 226 83 258L162 667ZM405 873H517L597 717H482L447 793L381 717H263L405 873Z" />
<glyph unicode="&#xdc;" glyph-name="null" horiz-adv-x="663" d="M162 667H308L232 276Q230 263 228 251T226 227Q226 181 251 153T332 125Q365 125 388 135T428 163T455 208T472 268L550 667H697L617 251Q603 178 575 127T507 44T418 -3T313 -18Q259 -18 215
-3T141 40T94 108T77 197Q77 226 83 258L162 667ZM503 855H627L605 736H480L503 855ZM295 855H419L396 736H272L295 855Z" />
<glyph unicode="&#xdd;" glyph-name="null" horiz-adv-x="599" d="M247 277L99 667H257L344 413L529 667H695L394 279L340 0H194L247 277ZM421 873H576L437 717H327L421 873Z" />
<glyph unicode="&#xde;" glyph-name="null" horiz-adv-x="567" d="M168 667H309L288 557H375Q420 557 456 542T517 502T555 442T569 370Q569 307 547 261T487 185T399 141T295 126H205L180 0H39L168 667ZM303 246Q353 246 386 272T419 357Q419 393 398 414T336
436H265L228 246H303Z" />
<glyph unicode="&#xdf;" glyph-name="null" horiz-adv-x="602" d="M444 144Q444 167 426 181T383 210Q345 232 327 254T309 308Q309 346 328 376T380 439Q400 459 412 477T424 515Q424 541 407 556T362 571Q312 571 290 542T259 463L169 0H28L118 464Q140 576
201 630T372 684Q414 684 449 673T509 641T548 592T562 530Q562 488 544 458T504 406T464 367T446 332Q446 322 449 315T460 301T480 286T510 266Q552 236 565 206T579 144Q579 105 564 75T523 26T461 -4T384 -14Q339 -14 299 -2T223 36L289 132Q315 114 333 106T380
97Q412 97 428 109T444 144Z" />
<glyph unicode="&#xe0;" glyph-name="null" horiz-adv-x="501" d="M328 206Q318 208 303 210T268 212Q214 212 188 192T161 141Q161 115 176 102T217 89Q232 89 248 93T279 108T305 133T321 171L328 206ZM297 44Q268 13 234 0T161 -14Q134 -14 110 -5T67 21T38
64T27 121Q27 161 43 194T89 251T161 288T258 301Q283 301 301 300T345 295L347 305Q348 310 348 314T349 322Q349 353 324 364T265 376Q221 376 192 365T136 338L87 424Q120 447 173 466T295 485Q383 485 430 443T478 321Q478 310 477 297T473 272L420 0H292L297
44ZM470 682H607L630 540H530L470 682Z" />
<glyph unicode="&#xe1;" glyph-name="null" horiz-adv-x="501" d="M328 206Q318 208 303 210T268 212Q214 212 188 192T161 141Q161 115 176 102T217 89Q232 89 248 93T279 108T305 133T321 171L328 206ZM297 44Q268 13 234 0T161 -14Q134 -14 110 -5T67 21T38
64T27 121Q27 161 43 194T89 251T161 288T258 301Q283 301 301 300T345 295L347 305Q348 310 348 314T349 322Q349 353 324 364T265 376Q221 376 192 365T136 338L87 424Q120 447 173 466T295 485Q383 485 430 443T478 321Q478 310 477 297T473 272L420 0H292L297
44ZM325 682H462L356 540H254L325 682Z" />
<glyph unicode="&#xe2;" glyph-name="null" horiz-adv-x="501" d="M328 206Q318 208 303 210T268 212Q214 212 188 192T161 141Q161 115 176 102T217 89Q232 89 248 93T279 108T305 133T321 171L328 206ZM297 44Q268 13 234 0T161 -14Q134 -14 110 -5T67 21T38
64T27 121Q27 161 43 194T89 251T161 288T258 301Q283 301 301 300T345 295L347 305Q348 310 348 314T349 322Q349 353 324 364T265 376Q221 376 192 365T136 338L87 424Q120 447 173 466T295 485Q383 485 430 443T478 321Q478 310 477 297T473 272L420 0H292L297
44ZM275 682H389L462 540H349L318 608L259 540H146L275 682Z" />
<glyph unicode="&#xe3;" glyph-name="null" horiz-adv-x="501" d="M328 206Q318 208 303 210T268 212Q214 212 188 192T161 141Q161 115 176 102T217 89Q232 89 248 93T279 108T305 133T321 171L328 206ZM297 44Q268 13 234 0T161 -14Q134 -14 110 -5T67 21T38
64T27 121Q27 161 43 194T89 251T161 288T258 301Q283 301 301 300T345 295L347 305Q348 310 348 314T349 322Q349 353 324 364T265 376Q221 376 192 365T136 338L87 424Q120 447 173 466T295 485Q383 485 430 443T478 321Q478 310 477 297T473 272L420 0H292L297
44ZM378 536Q357 536 342 542T313 557T285 571T254 578Q226 578 208 568T170 541L127 616Q152 639 182 659T255 679Q275 679 290 673T320 659T347 645T378 638Q405 638 423 647T462 674L506 600Q494 589 481 578T452 558T418 542T378 536Z" />
<glyph unicode="&#xe4;" glyph-name="null" horiz-adv-x="501" d="M328 206Q318 208 303 210T268 212Q214 212 188 192T161 141Q161 115 176 102T217 89Q232 89 248 93T279 108T305 133T321 171L328 206ZM297 44Q268 13 234 0T161 -14Q134 -14 110 -5T67 21T38
64T27 121Q27 161 43 194T89 251T161 288T258 301Q283 301 301 300T345 295L347 305Q348 310 348 314T349 322Q349 353 324 364T265 376Q221 376 192 365T136 338L87 424Q120 447 173 466T295 485Q383 485 430 443T478 321Q478 310 477 297T473 272L420 0H292L297
44ZM364 666H482L460 555H342L364 666ZM178 666H297L275 555H156L178 666Z" />
<glyph unicode="&#xe5;" glyph-name="null" horiz-adv-x="501" d="M328 206Q318 208 303 210T268 212Q214 212 188 192T161 141Q161 115 176 102T217 89Q232 89 248 93T279 108T305 133T321 171L328 206ZM297 44Q268 13 234 0T161 -14Q134 -14 110 -5T67 21T38
64T27 121Q27 161 43 194T89 251T161 288T258 301Q283 301 301 300T345 295L347 305Q348 310 348 314T349 322Q349 353 324 364T265 376Q221 376 192 365T136 338L87 424Q120 447 173 466T295 485Q383 485 430 443T478 321Q478 310 477 297T473 272L420 0H292L297
44ZM207 646Q207 671 216 692T242 728T280 752T326 761Q350 761 372 753T410 729T435 692T445 646Q445 621 436 600T410 564T372 539T326 530Q302 530 280 539T242 563T217 600T207 646ZM326 603Q343 603 355 615T367 646Q367 663 355 675T326 688Q309 688 297
677T285 646Q285 628 297 616T326 603Z" />
<glyph unicode="&#xe6;" glyph-name="null" horiz-adv-x="810" d="M599 485Q648 485 684 468T745 424T780 360T792 286Q792 261 789 239T780 192H470Q470 149 500 122T576 95Q612 95 643 107T702 138L757 47Q715 18 666 1T557 -16Q537 -16 515 -12T469 1T422 27T377
68Q342 30 297 8T187 -14Q109 -14 68 21T27 121Q27 161 43 194T89 251T161 288T258 301Q283 301 301 300T345 295L347 305Q348 310 348 314T349 322Q349 353 324 364T265 376Q221 376 192 365T136 338L87 424Q120 447 173 466T295 485Q324 485 345 481T383 469T412
450T437 424Q472 452 507 468T599 485ZM328 206Q318 208 303 210T268 212Q214 212 188 192T161 141Q161 115 176 102T217 89Q232 89 248 93T279 108T305 133T321 171L328 206ZM663 282Q665 288 665 293T665 301Q665 335 644 355T588 375Q549 375 520 353T477 282H663Z"
/>
<glyph unicode="&#xe7;" glyph-name="null" horiz-adv-x="483" d="M453 66Q415 31 368 8T251 -16Q206 -16 168 -1T103 41T61 106T46 189Q46 250 66 304T124 398T212 462T323 485Q395 485 438 453T505 361L395 304Q380 333 362 347T311 361Q287 361 265 350T226
319T198 271T187 206Q187 158 213 133T275 108Q307 108 332 122T379 156L453 66ZM120 -144Q137 -150 153 -154T188 -158Q247 -158 247 -124Q247 -109 233 -105T202 -100Q170 -100 133 -113L160 -46Q199 -34 245 -34Q284 -34 312 -55T340 -113Q340 -145 327 -168T293
-205T246 -225T195 -232Q133 -232 94 -215L120 -144Z" />
<glyph unicode="&#xe8;" glyph-name="null" horiz-adv-x="525" d="M314 485Q363 485 399 468T460 424T495 360T507 286Q507 261 504 239T495 192H185Q185 149 215 122T291 95Q327 95 358 107T417 138L472 47Q430 18 381 1T272 -16Q227 -16 187 -4T116 35T67 100T49
195Q49 259 69 312T124 404T208 464T314 485ZM378 282Q380 288 380 293T380 301Q380 335 359 355T303 375Q264 375 235 353T192 282H378ZM226 682H363L386 540H286L226 682Z" />
<glyph unicode="&#xe9;" glyph-name="null" horiz-adv-x="525" d="M314 485Q363 485 399 468T460 424T495 360T507 286Q507 261 504 239T495 192H185Q185 149 215 122T291 95Q327 95 358 107T417 138L472 47Q430 18 381 1T272 -16Q227 -16 187 -4T116 35T67 100T49
195Q49 259 69 312T124 404T208 464T314 485ZM378 282Q380 288 380 293T380 301Q380 335 359 355T303 375Q264 375 235 353T192 282H378ZM331 682H468L362 540H260L331 682Z" />
<glyph unicode="&#xea;" glyph-name="null" horiz-adv-x="525" d="M314 485Q363 485 399 468T460 424T495 360T507 286Q507 261 504 239T495 192H185Q185 149 215 122T291 95Q327 95 358 107T417 138L472 47Q430 18 381 1T272 -16Q227 -16 187 -4T116 35T67 100T49
195Q49 259 69 312T124 404T208 464T314 485ZM378 282Q380 288 380 293T380 301Q380 335 359 355T303 375Q264 375 235 353T192 282H378ZM287 682H401L474 540H361L330 608L271 540H158L287 682Z" />
<glyph unicode="&#xeb;" glyph-name="null" horiz-adv-x="525" d="M314 485Q363 485 399 468T460 424T495 360T507 286Q507 261 504 239T495 192H185Q185 149 215 122T291 95Q327 95 358 107T417 138L472 47Q430 18 381 1T272 -16Q227 -16 187 -4T116 35T67 100T49
195Q49 259 69 312T124 404T208 464T314 485ZM378 282Q380 288 380 293T380 301Q380 335 359 355T303 375Q264 375 235 353T192 282H378ZM378 666H496L474 555H356L378 666ZM192 666H311L289 555H170L192 666Z" />
<glyph unicode="&#xec;" glyph-name="null" horiz-adv-x="252" d="M119 469H257L166 0H28L119 469ZM360 682H497L520 540H420L360 682Z" />
<glyph unicode="&#xed;" glyph-name="null" horiz-adv-x="252" d="M119 469H257L166 0H28L119 469ZM465 682H602L496 540H394L465 682Z" />
<glyph unicode="&#xee;" glyph-name="null" horiz-adv-x="252" d="M119 469H257L166 0H28L119 469ZM424 682H538L611 540H498L467 608L408 540H295L424 682Z" />
<glyph unicode="&#xef;" glyph-name="null" horiz-adv-x="252" d="M119 469H257L166 0H28L119 469ZM512 666H630L608 555H490L512 666ZM326 666H445L423 555H304L326 666Z" />
<glyph unicode="&#xf0;" glyph-name="null" horiz-adv-x="537" d="M393 624Q434 599 461 567T505 498T529 423T536 346Q536 263 514 196T453 82T361 10T244 -16Q199 -16 161 -1T96 40T54 102T39 177Q39 236 57 285T110 371T192 427T301 447Q324 447 347 443T397
428Q388 466 367 491T316 537L262 474L207 518L250 569Q234 574 217 578T183 585L214 680Q280 672 326 655L380 720L436 676L393 624ZM394 309Q376 322 352 328T305 335Q279 335 256 326T216 300T189 259T178 204Q178 164 197 136T258 108Q315 108 353 160T394
309Z" />
<glyph unicode="&#xf1;" glyph-name="null" horiz-adv-x="545" d="M119 469H251L245 418Q277 452 311 466T391 480Q457 480 491 441T526 336Q526 324 525 312T522 288L466 0H327L378 263Q381 278 381 292Q381 322 367 340T322 358Q299 358 281 349T249 323T226
286T212 242L165 0H28L119 469ZM409 536Q388 536 373 542T344 557T316 571T285 578Q257 578 239 568T201 541L158 616Q183 639 213 659T286 679Q306 679 321 673T351 659T378 645T409 638Q436 638 454 647T493 674L537 600Q525 589 512 578T483 558T449 542T409
536Z" />
<glyph unicode="&#xf2;" glyph-name="null" horiz-adv-x="545" d="M326 485Q370 485 408 470T474 426T518 360T534 276Q534 214 514 161T456 69T368 7T255 -16Q211 -16 173 -1T107 43T62 109T46 193Q46 254 68 307T129 400T218 462T326 485ZM307 363Q283 363 261
352T220 321T192 273T181 212Q181 164 203 135T271 106Q295 106 317 117T358 148T387 195T398 257Q398 305 376 334T307 363ZM236 682H373L396 540H296L236 682Z" />
<glyph unicode="&#xf3;" glyph-name="null" horiz-adv-x="545" d="M326 485Q370 485 408 470T474 426T518 360T534 276Q534 214 514 161T456 69T368 7T255 -16Q211 -16 173 -1T107 43T62 109T46 193Q46 254 68 307T129 400T218 462T326 485ZM307 363Q283 363 261
352T220 321T192 273T181 212Q181 164 203 135T271 106Q295 106 317 117T358 148T387 195T398 257Q398 305 376 334T307 363ZM352 682H489L383 540H281L352 682Z" />
<glyph unicode="&#xf4;" glyph-name="null" horiz-adv-x="545" d="M326 485Q370 485 408 470T474 426T518 360T534 276Q534 214 514 161T456 69T368 7T255 -16Q211 -16 173 -1T107 43T62 109T46 193Q46 254 68 307T129 400T218 462T326 485ZM307 363Q283 363 261
352T220 321T192 273T181 212Q181 164 203 135T271 106Q295 106 317 117T358 148T387 195T398 257Q398 305 376 334T307 363ZM307 682H421L494 540H381L350 608L291 540H178L307 682Z" />
<glyph unicode="&#xf5;" glyph-name="null" horiz-adv-x="545" d="M326 485Q370 485 408 470T474 426T518 360T534 276Q534 214 514 161T456 69T368 7T255 -16Q211 -16 173 -1T107 43T62 109T46 193Q46 254 68 307T129 400T218 462T326 485ZM307 363Q283 363 261
352T220 321T192 273T181 212Q181 164 203 135T271 106Q295 106 317 117T358 148T387 195T398 257Q398 305 376 334T307 363ZM408 536Q387 536 372 542T343 557T315 571T284 578Q256 578 238 568T200 541L157 616Q182 639 212 659T285 679Q305 679 320 673T350
659T377 645T408 638Q435 638 453 647T492 674L536 600Q524 589 511 578T482 558T448 542T408 536Z" />
<glyph unicode="&#xf6;" glyph-name="null" horiz-adv-x="545" d="M326 485Q370 485 408 470T474 426T518 360T534 276Q534 214 514 161T456 69T368 7T255 -16Q211 -16 173 -1T107 43T62 109T46 193Q46 254 68 307T129 400T218 462T326 485ZM307 363Q283 363 261
352T220 321T192 273T181 212Q181 164 203 135T271 106Q295 106 317 117T358 148T387 195T398 257Q398 305 376 334T307 363ZM399 666H517L495 555H377L399 666ZM213 666H332L310 555H191L213 666Z" />
<glyph unicode="&#xf7;" glyph-name="null" horiz-adv-x="545" d="M227 206H349L326 90H204L227 206ZM293 548H415L392 432H270L293 548ZM129 375H512L489 262H106L129 375Z" />
<glyph unicode="&#xf8;" glyph-name="null" horiz-adv-x="545" d="M326 485Q387 485 436 456L491 520L541 477L486 413Q509 386 521 352T534 276Q534 214 514 161T456 69T368 7T255 -16Q223 -16 195 -8T143 14L85 -53L35 -11L93 57Q71 84 59 118T46 193Q46 254
68 307T129 400T218 462T326 485ZM398 257Q398 285 391 303L229 114Q248 106 271 106Q295 106 317 117T358 148T387 195T398 257ZM307 363Q283 363 261 352T220 321T192 273T181 212Q181 187 187 166L349 354Q331 363 307 363Z" />
<glyph unicode="&#xf9;" glyph-name="null" horiz-adv-x="541" d="M460 0H328L334 51Q302 17 268 3T188 -11Q122 -11 88 28T54 134Q54 145 55 157T58 181L114 469H252L201 206Q198 192 198 178Q198 150 210 131T257 111Q280 111 298 120T330 146T353 183T367 227L414
469H551L460 0ZM246 682H383L406 540H306L246 682Z" />
<glyph unicode="&#xfa;" glyph-name="null" horiz-adv-x="541" d="M460 0H328L334 51Q302 17 268 3T188 -11Q122 -11 88 28T54 134Q54 145 55 157T58 181L114 469H252L201 206Q198 192 198 178Q198 150 210 131T257 111Q280 111 298 120T330 146T353 183T367 227L414
469H551L460 0ZM347 682H484L378 540H276L347 682Z" />
<glyph unicode="&#xfb;" glyph-name="null" horiz-adv-x="541" d="M460 0H328L334 51Q302 17 268 3T188 -11Q122 -11 88 28T54 134Q54 145 55 157T58 181L114 469H252L201 206Q198 192 198 178Q198 150 210 131T257 111Q280 111 298 120T330 146T353 183T367 227L414
469H551L460 0ZM310 682H424L497 540H384L353 608L294 540H181L310 682Z" />
<glyph unicode="&#xfc;" glyph-name="null" horiz-adv-x="541" d="M460 0H328L334 51Q302 17 268 3T188 -11Q122 -11 88 28T54 134Q54 145 55 157T58 181L114 469H252L201 206Q198 192 198 178Q198 150 210 131T257 111Q280 111 298 120T330 146T353 183T367 227L414
469H551L460 0ZM398 666H516L494 555H376L398 666ZM212 666H331L309 555H190L212 666Z" />
<glyph unicode="&#xfd;" glyph-name="null" horiz-adv-x="527" d="M7 -76Q38 -98 66 -98Q92 -98 110 -78T151 -20L167 8L52 469H205L260 166L415 469H570L290 -12Q265 -54 242 -90T193 -154T138 -196T73 -212Q38 -212 9 -206T-51 -173L7 -76ZM331 682H468L362
540H260L331 682Z" />
<glyph unicode="&#xfe;" glyph-name="null" horiz-adv-x="554" d="M158 667H294L246 422Q272 448 305 463T384 478Q417 478 446 464T496 425T530 365T543 288Q543 211 520 155T457 60T366 4T260 -15Q237 -15 215 -11T166 6L126 -200H-11L158 667ZM188 119Q203
110 220 107T256 103Q289 103 315 117T360 154T389 208T399 272Q399 311 380 334T326 357Q284 357 254 328T212 244L188 119Z" />
<glyph unicode="&#xff;" glyph-name="null" horiz-adv-x="527" d="M7 -76Q38 -98 66 -98Q92 -98 110 -78T151 -20L167 8L52 469H205L260 166L415 469H570L290 -12Q265 -54 242 -90T193 -154T138 -196T73 -212Q38 -212 9 -206T-51 -173L7 -76ZM372 666H490L468
555H350L372 666ZM186 666H305L283 555H164L186 666Z" />
<glyph unicode="&#x100;" glyph-name="null" horiz-adv-x="652" d="M348 667H510L614 0H462L443 153H215L137 0H-20L348 667ZM431 270L401 526L271 270H431ZM304 846H609L589 743H284L304 846Z" />
<glyph unicode="&#x101;" glyph-name="null" horiz-adv-x="501" d="M328 206Q318 208 303 210T268 212Q214 212 188 192T161 141Q161 115 176 102T217 89Q232 89 248 93T279 108T305 133T321 171L328 206ZM297 44Q268 13 234 0T161 -14Q134 -14 110 -5T67 21T38
64T27 121Q27 161 43 194T89 251T161 288T258 301Q283 301 301 300T345 295L347 305Q348 310 348 314T349 322Q349 353 324 364T265 376Q221 376 192 365T136 338L87 424Q120 447 173 466T295 485Q383 485 430 443T478 321Q478 310 477 297T473 272L420 0H292L297
44ZM200 653H465L445 553H180L200 653Z" />
<glyph unicode="&#x102;" glyph-name="null" horiz-adv-x="652" d="M348 667H510L614 0H462L443 153H215L137 0H-20L348 667ZM431 270L401 526L271 270H431ZM401 863Q400 860 400 848Q400 829 413 817T449 804Q478 804 492 820T515 863H614Q603 796 556 755T438
714Q410 714 386 722T343 745T315 782T304 832Q304 840 304 847T306 863H401Z" />
<glyph unicode="&#x103;" glyph-name="null" horiz-adv-x="501" d="M328 206Q318 208 303 210T268 212Q214 212 188 192T161 141Q161 115 176 102T217 89Q232 89 248 93T279 108T305 133T321 171L328 206ZM297 44Q268 13 234 0T161 -14Q134 -14 110 -5T67 21T38
64T27 121Q27 161 43 194T89 251T161 288T258 301Q283 301 301 300T345 295L347 305Q348 310 348 314T349 322Q349 353 324 364T265 376Q221 376 192 365T136 338L87 424Q120 447 173 466T295 485Q383 485 430 443T478 321Q478 310 477 297T473 272L420 0H292L297
44ZM285 682Q284 677 284 670Q284 650 294 638T324 625Q347 625 361 640T381 682H481Q467 613 424 577T315 540Q258 540 222 568T186 652Q186 660 186 667T189 682H285Z" />
<glyph unicode="&#x104;" glyph-name="null" horiz-adv-x="652" d="M462 0L443 153H215L137 0H-20L348 667H510L614 0Q604 -9 592 -20T570 -43T552 -67T545 -88Q545 -99 551 -103T567 -107Q581 -107 595 -102T618 -91L643 -168Q620 -182 590 -192T524 -203Q489
-203 464 -186T438 -132Q438 -96 462 -63T521 0H462ZM431 270L401 526L271 270H431Z" />
<glyph unicode="&#x105;" glyph-name="null" horiz-adv-x="501" d="M297 44Q268 13 234 0T161 -14Q134 -14 110 -5T67 21T38 64T27 121Q27 161 43 194T89 251T161 288T258 301Q283 301 301 300T345 295L347 305Q348 310 348 314T349 322Q349 353 324 364T265 376Q221
376 192 365T136 338L87 424Q120 447 173 466T295 485Q383 485 430 443T478 321Q478 310 477 297T473 272L420 0Q410 -9 398 -20T376 -43T358 -66T351 -87Q351 -97 357 -101T372 -105Q386 -105 400 -99T424 -88L449 -164Q427 -177 397 -187T332 -197Q297 -197 272
-180T246 -126Q246 -91 267 -63T329 0H292L297 44ZM328 206Q318 208 303 210T268 212Q214 212 188 192T161 141Q161 115 176 102T217 89Q232 89 248 93T279 108T305 133T321 171L328 206Z" />
<glyph unicode="&#x106;" glyph-name="null" horiz-adv-x="664" d="M648 117Q620 86 591 62T527 20T453 -7T365 -17Q300 -17 246 4T153 63T93 156T71 279Q71 361 99 434T177 563T298 652T452 685Q555 685 620 641T715 519L593 453Q567 503 534 525T444 548Q394
548 354 527T285 470T241 388T226 293Q226 259 236 229T265 175T312 139T378 125Q409 125 433 131T478 148T517 176T554 215L648 117ZM487 873H642L503 717H393L487 873Z" />
<glyph unicode="&#x107;" glyph-name="null" horiz-adv-x="483" d="M453 66Q415 31 368 8T251 -16Q206 -16 168 -1T103 41T61 106T46 189Q46 250 66 304T124 398T212 462T323 485Q395 485 438 453T505 361L395 304Q380 333 362 347T311 361Q287 361 265 350T226
319T198 271T187 206Q187 158 213 133T275 108Q307 108 332 122T379 156L453 66ZM344 682H481L375 540H273L344 682Z" />
<glyph unicode="&#x108;" glyph-name="null" horiz-adv-x="664" d="M648 117Q620 86 591 62T527 20T453 -7T365 -17Q300 -17 246 4T153 63T93 156T71 279Q71 361 99 434T177 563T298 652T452 685Q555 685 620 641T715 519L593 453Q567 503 534 525T444 548Q394
548 354 527T285 470T241 388T226 293Q226 259 236 229T265 175T312 139T378 125Q409 125 433 131T478 148T517 176T554 215L648 117ZM441 873H553L633 717H518L483 793L417 717H299L441 873Z" />
<glyph unicode="&#x109;" glyph-name="null" horiz-adv-x="483" d="M453 66Q415 31 368 8T251 -16Q206 -16 168 -1T103 41T61 106T46 189Q46 250 66 304T124 398T212 462T323 485Q395 485 438 453T505 361L395 304Q380 333 362 347T311 361Q287 361 265 350T226
319T198 271T187 206Q187 158 213 133T275 108Q307 108 332 122T379 156L453 66ZM303 682H417L490 540H377L346 608L287 540H174L303 682Z" />
<glyph unicode="&#x10a;" glyph-name="null" horiz-adv-x="664" d="M648 117Q620 86 591 62T527 20T453 -7T365 -17Q300 -17 246 4T153 63T93 156T71 279Q71 361 99 434T177 563T298 652T452 685Q555 685 620 641T715 519L593 453Q567 503 534 525T444 548Q394
548 354 527T285 470T241 388T226 293Q226 259 236 229T265 175T312 139T378 125Q409 125 433 131T478 148T517 176T554 215L648 117ZM421 858H552L528 732H396L421 858Z" />
<glyph unicode="&#x10b;" glyph-name="null" horiz-adv-x="483" d="M453 66Q415 31 368 8T251 -16Q206 -16 168 -1T103 41T61 106T46 189Q46 250 66 304T124 398T212 462T323 485Q395 485 438 453T505 361L395 304Q380 333 362 347T311 361Q287 361 265 350T226
319T198 271T187 206Q187 158 213 133T275 108Q307 108 332 122T379 156L453 66ZM292 670H417L393 551H268L292 670Z" />
<glyph unicode="&#x10c;" glyph-name="null" horiz-adv-x="664" d="M648 117Q620 86 591 62T527 20T453 -7T365 -17Q300 -17 246 4T153 63T93 156T71 279Q71 361 99 434T177 563T298 652T452 685Q555 685 620 641T715 519L593 453Q567 503 534 525T444 548Q394
548 354 527T285 470T241 388T226 293Q226 259 236 229T265 175T312 139T378 125Q409 125 433 131T478 148T517 176T554 215L648 117ZM518 717H406L326 873H440L476 797L541 873H660L518 717Z" />
<glyph unicode="&#x10d;" glyph-name="null" horiz-adv-x="483" d="M453 66Q415 31 368 8T251 -16Q206 -16 168 -1T103 41T61 106T46 189Q46 250 66 304T124 398T212 462T323 485Q395 485 438 453T505 361L395 304Q380 333 362 347T311 361Q287 361 265 350T226
319T198 271T187 206Q187 158 213 133T275 108Q307 108 332 122T379 156L453 66ZM386 540H271L199 682H311L342 614L401 682H515L386 540Z" />
<glyph unicode="&#x10e;" glyph-name="null" horiz-adv-x="690" d="M168 667H395Q460 667 515 649T610 595T673 509T696 395Q696 308 668 236T589 111T463 29T296 0H39L168 667ZM317 132Q369 132 410 151T481 203T525 280T541 377Q541 450 501 493T378 536H287L210
132H317ZM443 717H331L251 873H365L401 797L466 873H585L443 717Z" />
<glyph unicode="&#x10f;" glyph-name="null" horiz-adv-x="669" d="M398 344Q382 353 363 356T326 359Q300 359 275 348T230 316T198 265T186 198Q186 156 205 132T264 107Q285 107 303 115T335 138T358 172T372 212L398 344ZM343 47Q289 -13 208 -13Q176 -13
147 -1T95 36T59 95T45 176Q45 253 70 310T135 404T224 460T323 479Q352 479 376 474T421 461L460 667H598L469 0H337L343 47ZM659 667H779L711 498H626L659 667Z" />
<glyph unicode="&#x110;" glyph-name="null" horiz-adv-x="705" d="M110 289H49L67 383H128L183 667H410Q475 667 530 649T625 595T688 509T711 395Q711 308 683 236T604 111T478 29T311 0H54L110 289ZM332 132Q384 132 425 151T496 203T540 280T556 377Q556 450
516 493T393 536H302L273 383H398L380 289H255L225 132H332Z" />
<glyph unicode="&#x111;" glyph-name="null" horiz-adv-x="551" d="M343 47Q289 -13 208 -13Q176 -13 147 -1T95 36T59 95T45 176Q45 246 69 299T133 389T221 444T319 463Q348 463 372 458T417 445L432 523H278L294 602H447L460 667H598L585 602H639L623 523H570L469
0H337L343 47ZM394 328Q378 337 359 340T322 343Q296 343 272 333T228 303T198 257T186 198Q186 156 205 132T264 107Q285 107 303 115T335 138T358 172T372 212L394 328Z" />
<glyph unicode="&#x112;" glyph-name="null" horiz-adv-x="551" d="M168 667H606L580 537H287L262 404H490L465 278H237L208 131H523L498 0H39L168 667ZM262 846H567L547 743H242L262 846Z" />
<glyph unicode="&#x113;" glyph-name="null" horiz-adv-x="525" d="M314 485Q363 485 399 468T460 424T495 360T507 286Q507 261 504 239T495 192H185Q185 149 215 122T291 95Q327 95 358 107T417 138L472 47Q430 18 381 1T272 -16Q227 -16 187 -4T116 35T67 100T49
195Q49 259 69 312T124 404T208 464T314 485ZM378 282Q380 288 380 293T380 301Q380 335 359 355T303 375Q264 375 235 353T192 282H378ZM210 653H475L455 553H190L210 653Z" />
<glyph unicode="&#x114;" glyph-name="null" horiz-adv-x="551" d="M168 667H606L580 537H287L262 404H490L465 278H237L208 131H523L498 0H39L168 667ZM360 863Q359 860 359 848Q359 829 372 817T408 804Q437 804 451 820T474 863H573Q562 796 515 755T397 714Q369
714 345 722T302 745T274 782T263 832Q263 840 263 847T265 863H360Z" />
<glyph unicode="&#x115;" glyph-name="null" horiz-adv-x="525" d="M314 485Q363 485 399 468T460 424T495 360T507 286Q507 261 504 239T495 192H185Q185 149 215 122T291 95Q327 95 358 107T417 138L472 47Q430 18 381 1T272 -16Q227 -16 187 -4T116 35T67 100T49
195Q49 259 69 312T124 404T208 464T314 485ZM378 282Q380 288 380 293T380 301Q380 335 359 355T303 375Q264 375 235 353T192 282H378ZM292 682Q291 677 291 670Q291 650 301 638T331 625Q354 625 368 640T388 682H488Q474 613 431 577T322 540Q265 540 229 568T193
652Q193 660 193 667T196 682H292Z" />
<glyph unicode="&#x116;" glyph-name="null" horiz-adv-x="551" d="M168 667H606L580 537H287L262 404H490L465 278H237L208 131H523L498 0H39L168 667ZM355 858H486L462 732H330L355 858Z" />
<glyph unicode="&#x117;" glyph-name="null" horiz-adv-x="525" d="M314 485Q363 485 399 468T460 424T495 360T507 286Q507 261 504 239T495 192H185Q185 149 215 122T291 95Q327 95 358 107T417 138L472 47Q430 18 381 1T272 -16Q227 -16 187 -4T116 35T67 100T49
195Q49 259 69 312T124 404T208 464T314 485ZM378 282Q380 288 380 293T380 301Q380 335 359 355T303 375Q264 375 235 353T192 282H378ZM283 670H408L384 551H259L283 670Z" />
<glyph unicode="&#x118;" glyph-name="null" horiz-adv-x="551" d="M168 667H606L580 537H287L262 404H490L465 278H237L208 131H523L498 0H458Q448 -9 436 -20T414 -43T396 -67T389 -88Q389 -99 395 -103T411 -107Q425 -107 439 -102T462 -91L487 -168Q464 -182
434 -192T368 -203Q333 -203 308 -186T282 -132Q282 -96 306 -63T365 0H39L168 667Z" />
<glyph unicode="&#x119;" glyph-name="null" horiz-adv-x="525" d="M314 485Q363 485 399 468T460 424T495 360T507 286Q507 261 504 239T495 192H185Q185 149 215 122T291 95Q327 95 358 107T417 138L472 47Q450 32 433 23T401 5Q390 -2 377 -14T351 -39T331
-65T323 -87Q323 -97 329 -101T344 -105Q358 -105 372 -99T396 -88L421 -164Q399 -177 369 -187T304 -197Q269 -197 244 -180T218 -126Q218 -94 234 -70T283 -16H272Q227 -16 187 -4T116 35T67 100T49 195Q49 259 69 312T124 404T208 464T314 485ZM378 282Q380
288 380 293T380 301Q380 335 359 355T303 375Q264 375 235 353T192 282H378Z" />
<glyph unicode="&#x11a;" glyph-name="null" horiz-adv-x="551" d="M168 667H606L580 537H287L262 404H490L465 278H237L208 131H523L498 0H39L168 667ZM447 717H335L255 873H369L405 797L470 873H589L447 717Z" />
<glyph unicode="&#x11b;" glyph-name="null" horiz-adv-x="525" d="M314 485Q363 485 399 468T460 424T495 360T507 286Q507 261 504 239T495 192H185Q185 149 215 122T291 95Q327 95 358 107T417 138L472 47Q430 18 381 1T272 -16Q227 -16 187 -4T116 35T67 100T49
195Q49 259 69 312T124 404T208 464T314 485ZM378 282Q380 288 380 293T380 301Q380 335 359 355T303 375Q264 375 235 353T192 282H378ZM379 540H264L192 682H304L335 614L394 682H508L379 540Z" />
<glyph unicode="&#x11c;" glyph-name="null" horiz-adv-x="694" d="M376 120Q423 120 453 128T516 158L533 251H413L437 368H690L632 72Q581 30 513 7T368 -16Q303 -16 249 4T155 63T93 156T71 277Q71 360 99 434T178 564T298 652T450 685Q551 685 613 645T708
532L588 463Q563 508 530 528T441 548Q392 548 353 527T285 470T242 388T226 294Q226 259 235 228T263 172T310 134T376 120ZM431 873H543L623 717H508L473 793L407 717H289L431 873Z" />
<glyph unicode="&#x11d;" glyph-name="null" horiz-adv-x="543" d="M466 26Q441 -100 375 -156T197 -212Q149 -212 102 -200T17 -160L72 -58Q101 -77 133 -87T200 -98Q308 -98 329 15L335 47Q312 29 282 16T206 2Q165 2 135 17T84 57T54 116T44 185Q44 248 65
302T126 395T221 457T345 479Q401 479 451 468T546 436L466 26ZM393 351Q367 362 330 362Q300 362 273 350T226 316T195 264T183 197Q183 162 202 140T261 118Q306 118 332 145T367 216L393 351ZM323 682H437L510 540H397L366 608L307 540H194L323 682Z" />
<glyph unicode="&#x11e;" glyph-name="null" horiz-adv-x="694" d="M376 120Q423 120 453 128T516 158L533 251H413L437 368H690L632 72Q581 30 513 7T368 -16Q303 -16 249 4T155 63T93 156T71 277Q71 360 99 434T178 564T298 652T450 685Q551 685 613 645T708
532L588 463Q563 508 530 528T441 548Q392 548 353 527T285 470T242 388T226 294Q226 259 235 228T263 172T310 134T376 120ZM425 863Q424 860 424 848Q424 829 437 817T473 804Q502 804 516 820T539 863H638Q627 796 580 755T462 714Q434 714 410 722T367 745T339
782T328 832Q328 840 328 847T330 863H425Z" />
<glyph unicode="&#x11f;" glyph-name="null" horiz-adv-x="543" d="M466 26Q441 -100 375 -156T197 -212Q149 -212 102 -200T17 -160L72 -58Q101 -77 133 -87T200 -98Q308 -98 329 15L335 47Q312 29 282 16T206 2Q165 2 135 17T84 57T54 116T44 185Q44 248 65
302T126 395T221 457T345 479Q401 479 451 468T546 436L466 26ZM393 351Q367 362 330 362Q300 362 273 350T226 316T195 264T183 197Q183 162 202 140T261 118Q306 118 332 145T367 216L393 351ZM331 682Q330 677 330 670Q330 650 340 638T370 625Q393 625 407
640T427 682H527Q513 613 470 577T361 540Q304 540 268 568T232 652Q232 660 232 667T235 682H331Z" />
<glyph unicode="&#x120;" glyph-name="null" horiz-adv-x="694" d="M376 120Q423 120 453 128T516 158L533 251H413L437 368H690L632 72Q581 30 513 7T368 -16Q303 -16 249 4T155 63T93 156T71 277Q71 360 99 434T178 564T298 652T450 685Q551 685 613 645T708
532L588 463Q563 508 530 528T441 548Q392 548 353 527T285 470T242 388T226 294Q226 259 235 228T263 172T310 134T376 120ZM417 858H548L524 732H392L417 858Z" />
<glyph unicode="&#x121;" glyph-name="null" horiz-adv-x="543" d="M466 26Q441 -100 375 -156T197 -212Q149 -212 102 -200T17 -160L72 -58Q101 -77 133 -87T200 -98Q308 -98 329 15L335 47Q312 29 282 16T206 2Q165 2 135 17T84 57T54 116T44 185Q44 248 65
302T126 395T221 457T345 479Q401 479 451 468T546 436L466 26ZM393 351Q367 362 330 362Q300 362 273 350T226 316T195 264T183 197Q183 162 202 140T261 118Q306 118 332 145T367 216L393 351ZM320 670H445L421 551H296L320 670Z" />
<glyph unicode="&#x122;" glyph-name="null" horiz-adv-x="694" d="M376 120Q423 120 453 128T516 158L533 251H413L437 368H690L632 72Q581 30 513 7T368 -16Q303 -16 249 4T155 63T93 156T71 277Q71 360 99 434T178 564T298 652T450 685Q551 685 613 645T708
532L588 463Q563 508 530 528T441 548Q392 548 353 527T285 470T242 388T226 294Q226 259 235 228T263 172T310 134T376 120ZM285 -51H433L314 -209H205L285 -51Z" />
<glyph unicode="&#x123;" glyph-name="null" horiz-adv-x="543" d="M466 26Q441 -100 375 -156T197 -212Q149 -212 102 -200T17 -160L72 -58Q101 -77 133 -87T200 -98Q308 -98 329 15L335 47Q312 29 282 16T206 2Q165 2 135 17T84 57T54 116T44 185Q44 248 65
302T126 395T221 457T345 479Q401 479 451 468T546 436L466 26ZM393 351Q367 362 330 362Q300 362 273 350T226 316T195 264T183 197Q183 162 202 140T261 118Q306 118 332 145T367 216L393 351ZM412 540H274L381 682H483L412 540Z" />
<glyph unicode="&#x124;" glyph-name="null" horiz-adv-x="691" d="M168 667H313L264 410H536L586 667H731L602 0H457L510 275H237L184 0H39L168 667ZM422 873H534L614 717H499L464 793L398 717H280L422 873Z" />
<glyph unicode="&#x125;" glyph-name="null" horiz-adv-x="545" d="M158 667H294L246 423Q278 454 313 467T391 480Q457 480 491 441T526 336Q526 324 525 312T522 288L466 0H327L378 263Q381 276 381 291Q381 321 368 339T322 358Q299 358 281 349T249 323T226
286T212 242L165 0H28L158 667ZM297 873H409L489 717H374L339 793L273 717H155L297 873Z" />
<glyph unicode="&#x126;" glyph-name="null" horiz-adv-x="711" d="M143 487H82L99 573H159L178 667H323L304 573H577L596 667H741L722 573H789L772 487H706L612 0H467L517 260H244L194 0H49L143 487ZM542 395L560 487H288L270 395H542Z" />
<glyph unicode="&#x127;" glyph-name="null" horiz-adv-x="545" d="M145 602L158 667H294L281 602H432L416 523H265L243 408Q275 439 310 452T388 465Q454 465 488 426T523 321Q523 309 522 297T519 273L466 0H327L375 248Q378 261 378 276Q378 306 365 324T319
343Q296 343 278 334T246 308T223 271T209 227L165 0H28L130 523H71L87 602H145Z" />
<glyph unicode="&#x128;" glyph-name="null" horiz-adv-x="273" d="M168 667H313L183 0H38L168 667ZM577 720Q556 720 540 726T510 740T482 754T449 761Q420 761 403 752T365 725L319 801Q345 824 377 845T452 866Q472 866 488 860T518 846T547 832T579 825Q608
825 625 834T663 860L708 785Q696 774 683 763T653 742T617 726T577 720Z" />
<glyph unicode="&#x129;" glyph-name="null" horiz-adv-x="252" d="M119 469H257L166 0H28L119 469ZM515 536Q494 536 479 542T450 557T422 571T391 578Q363 578 345 568T307 541L264 616Q289 639 319 659T392 679Q412 679 427 673T457 659T484 645T515 638Q542
638 560 647T599 674L643 600Q631 589 618 578T589 558T555 542T515 536Z" />
<glyph unicode="&#x12a;" glyph-name="null" horiz-adv-x="273" d="M168 667H313L183 0H38L168 667ZM373 846H678L658 743H353L373 846Z" />
<glyph unicode="&#x12b;" glyph-name="null" horiz-adv-x="252" d="M119 469H257L166 0H28L119 469ZM345 653H610L590 553H325L345 653Z" />
<glyph unicode="&#x12c;" glyph-name="null" horiz-adv-x="273" d="M168 667H313L183 0H38L168 667ZM464 863Q463 860 463 848Q463 829 476 817T512 804Q541 804 555 820T578 863H677Q666 796 619 755T501 714Q473 714 449 722T406 745T378 782T367 832Q367 840
367 847T369 863H464Z" />
<glyph unicode="&#x12d;" glyph-name="null" horiz-adv-x="252" d="M119 469H257L166 0H28L119 469ZM431 682Q430 677 430 670Q430 650 440 638T470 625Q493 625 507 640T527 682H627Q613 613 570 577T461 540Q404 540 368 568T332 652Q332 660 332 667T335 682H431Z" />
<glyph unicode="&#x12e;" glyph-name="null" horiz-adv-x="273" d="M168 667H313L183 0Q173 -9 161 -20T139 -43T121 -67T114 -88Q114 -99 120 -103T136 -107Q150 -107 164 -102T187 -91L212 -168Q189 -182 159 -192T93 -203Q58 -203 33 -186T7 -132Q7 -96 31
-63T90 0H38L168 667Z" />
<glyph unicode="&#x12f;" glyph-name="null" horiz-adv-x="252" d="M119 469H257L166 0Q156 -9 144 -20T122 -43T104 -66T97 -87Q97 -97 103 -101T118 -105Q132 -105 146 -99T170 -88L195 -164Q173 -177 143 -187T78 -197Q43 -197 18 -180T-8 -126Q-8 -91 13 -63T75
0H28L119 469ZM152 666H300L275 539H127L152 666Z" />
<glyph unicode="&#x130;" glyph-name="null" horiz-adv-x="273" d="M168 667H313L183 0H38L168 667ZM467 858H598L574 732H442L467 858Z" />
<glyph unicode="&#x131;" glyph-name="null" horiz-adv-x="252" d="M119 469H257L166 0H28L119 469Z" />
<glyph unicode="&#x132;" glyph-name="null" horiz-adv-x="779" d="M168 667H313L183 0H38L168 667ZM368 172Q394 141 421 127T481 113Q524 113 550 138T587 221L674 667H819L727 194Q706 85 647 34T491 -18Q424 -18 371 4T276 76L368 172Z" />
<glyph unicode="&#x133;" glyph-name="null" horiz-adv-x="517" d="M152 666H300L275 539H127L152 666ZM119 469H257L166 0H28L119 469ZM154 -58Q171 -70 186 -74T218 -79Q247 -79 266 -60T296 16L384 469H522L433 13Q423 -37 409 -76T371 -143T314 -185T232 -200Q190
-200 157 -191T95 -159L154 -58ZM417 666H565L540 539H392L417 666Z" />
<glyph unicode="&#x134;" glyph-name="null" horiz-adv-x="505" d="M94 172Q120 141 147 127T207 113Q250 113 276 138T313 221L400 667H545L453 194Q432 85 373 34T217 -18Q150 -18 97 4T2 76L94 172ZM451 873H563L643 717H528L493 793L427 717H309L451 873Z" />
<glyph unicode="&#x135;" glyph-name="null" horiz-adv-x="258" d="M-105 -58Q-88 -70 -73 -74T-41 -79Q-12 -79 7 -60T37 16L125 469H263L174 13Q164 -37 150 -76T112 -143T55 -185T-27 -200Q-69 -200 -102 -191T-164 -159L-105 -58ZM430 682H544L617 540H504L473
608L414 540H301L430 682Z" />
<glyph unicode="&#x136;" glyph-name="null" horiz-adv-x="638" d="M168 667H313L261 401L524 667H701L428 394L596 0H429L307 293L226 217L184 0H39L168 667ZM224 -51H372L253 -209H144L224 -51Z" />
<glyph unicode="&#x137;" glyph-name="null" horiz-adv-x="513" d="M158 667H294L226 318L391 469H551L355 288L478 0H333L249 202L195 154L165 0H28L158 667ZM168 -51H305L197 -193H96L168 -51Z" />
<glyph unicode="&#x138;" glyph-name="null" horiz-adv-x="517" d="M120 469H255L225 314L394 469H555L354 284L484 0H334L243 195L194 152L165 0H28L120 469Z" />
<glyph unicode="&#x139;" glyph-name="null" horiz-adv-x="541" d="M168 667H313L210 132H516L491 0H39L168 667ZM542 873H697L558 717H448L542 873Z" />
<glyph unicode="&#x13a;" glyph-name="null" horiz-adv-x="252" d="M157 667H295L166 0H28L157 667ZM523 873H678L539 717H429L523 873Z" />
<glyph unicode="&#x13b;" glyph-name="null" horiz-adv-x="541" d="M168 667H313L210 132H516L491 0H39L168 667ZM192 -51H340L221 -209H112L192 -51Z" />
<glyph unicode="&#x13c;" glyph-name="null" horiz-adv-x="252" d="M157 667H295L166 0H28L157 667ZM280 -51H417L309 -193H208L280 -51Z" />
<glyph unicode="&#x13d;" glyph-name="null" horiz-adv-x="541" d="M430 667H557L483 483H394L430 667ZM168 667H313L210 132H516L491 0H39L168 667Z" />
<glyph unicode="&#x13e;" glyph-name="null" horiz-adv-x="362" d="M157 667H295L166 0H28L157 667ZM352 667H472L404 498H319L352 667Z" />
<glyph unicode="&#x13f;" glyph-name="null" horiz-adv-x="541" d="M168 667H313L210 132H516L491 0H39L168 667ZM420 453H551L527 327H395L420 453Z" />
<glyph unicode="&#x140;" glyph-name="null" horiz-adv-x="430" d="M157 667H295L166 0H28L157 667ZM341 417H466L442 298H317L341 417Z" />
<glyph unicode="&#x141;" glyph-name="null" horiz-adv-x="551" d="M120 370L178 667H323L282 453L410 519L390 416L262 350L220 132H526L501 0H49L100 267L30 231L50 334L120 370Z" />
<glyph unicode="&#x142;" glyph-name="null" horiz-adv-x="279" d="M94 264L24 226L45 329L114 366L172 667H310L268 450L341 490L320 387L248 348L181 0H43L94 264Z" />
<glyph unicode="&#x143;" glyph-name="null" horiz-adv-x="680" d="M168 667H295L495 243L577 667H720L591 0H481L265 432L182 0H39L168 667ZM473 873H628L489 717H379L473 873Z" />
<glyph unicode="&#x144;" glyph-name="null" horiz-adv-x="545" d="M119 469H251L245 418Q277 452 311 466T391 480Q457 480 491 441T526 336Q526 324 525 312T522 288L466 0H327L378 263Q381 278 381 292Q381 322 367 340T322 358Q299 358 281 349T249 323T226
286T212 242L165 0H28L119 469ZM354 682H491L385 540H283L354 682Z" />
<glyph unicode="&#x145;" glyph-name="null" horiz-adv-x="680" d="M168 667H295L495 243L577 667H720L591 0H481L265 432L182 0H39L168 667ZM252 -51H400L281 -209H172L252 -51Z" />
<glyph unicode="&#x146;" glyph-name="null" horiz-adv-x="545" d="M119 469H251L245 418Q277 452 311 466T391 480Q457 480 491 441T526 336Q526 324 525 312T522 288L466 0H327L378 263Q381 278 381 292Q381 322 367 340T322 358Q299 358 281 349T249 323T226
286T212 242L165 0H28L119 469ZM169 -51H306L198 -193H97L169 -51Z" />
<glyph unicode="&#x147;" glyph-name="null" horiz-adv-x="680" d="M168 667H295L495 243L577 667H720L591 0H481L265 432L182 0H39L168 667ZM493 717H381L301 873H415L451 797L516 873H635L493 717Z" />
<glyph unicode="&#x148;" glyph-name="null" horiz-adv-x="545" d="M119 469H251L245 418Q277 452 311 466T391 480Q457 480 491 441T526 336Q526 324 525 312T522 288L466 0H327L378 263Q381 278 381 292Q381 322 367 340T322 358Q299 358 281 349T249 323T226
286T212 242L165 0H28L119 469ZM398 540H283L211 682H323L354 614L413 682H527L398 540Z" />
<glyph unicode="&#x149;" glyph-name="null" horiz-adv-x="545" d="M119 469H251L245 418Q277 452 311 466T391 480Q457 480 491 441T526 336Q526 324 525 312T522 288L466 0H327L378 263Q381 278 381 292Q381 322 367 340T322 358Q299 358 281 349T249 323T226
286T212 242L165 0H28L119 469ZM376 682H495L428 533H340L376 682Z" />
<glyph unicode="&#x14a;" glyph-name="null" horiz-adv-x="680" d="M309 -55Q327 -67 342 -72T374 -77Q404 -77 424 -57T456 20L460 42L265 432L182 0H39L168 667H295L495 243L577 667H720L591 0Q582 -47 567 -84T527 -147T469 -186T389 -200Q346 -200 312 -191T249
-158L309 -55Z" />
<glyph unicode="&#x14b;" glyph-name="null" horiz-adv-x="545" d="M189 -58Q206 -70 221 -74T253 -79Q279 -79 299 -62T327 0L378 263Q381 278 381 292Q381 322 367 340T322 358Q299 358 281 349T249 323T226 286T212 242L165 0H28L119 469H251L245 418Q277 452
311 466T391 480Q457 480 491 441T526 336Q526 324 525 312T522 288L465 -3Q456 -50 441 -87T403 -149T347 -187T267 -200Q225 -200 192 -191T130 -159L189 -58Z" />
<glyph unicode="&#x14c;" glyph-name="null" horiz-adv-x="743" d="M225 293Q225 258 234 227T263 173T311 137T378 124Q427 124 467 145T535 202T579 283T594 375Q594 410 585 441T557 495T510 532T442 546Q392 546 352 524T283 467T240 386T225 293ZM455 685Q518
685 572 665T665 607T727 516T749 396Q749 314 722 239T646 107T525 17T366 -17Q302 -17 248 4T155 63T93 154T71 272Q71 354 99 429T178 561T299 651T455 685ZM335 846H640L620 743H315L335 846Z" />
<glyph unicode="&#x14d;" glyph-name="null" horiz-adv-x="545" d="M326 485Q370 485 408 470T474 426T518 360T534 276Q534 214 514 161T456 69T368 7T255 -16Q211 -16 173 -1T107 43T62 109T46 193Q46 254 68 307T129 400T218 462T326 485ZM307 363Q283 363
261 352T220 321T192 273T181 212Q181 164 203 135T271 106Q295 106 317 117T358 148T387 195T398 257Q398 305 376 334T307 363ZM223 653H488L468 553H203L223 653Z" />
<glyph unicode="&#x14e;" glyph-name="null" horiz-adv-x="743" d="M225 293Q225 258 234 227T263 173T311 137T378 124Q427 124 467 145T535 202T579 283T594 375Q594 410 585 441T557 495T510 532T442 546Q392 546 352 524T283 467T240 386T225 293ZM455 685Q518
685 572 665T665 607T727 516T749 396Q749 314 722 239T646 107T525 17T366 -17Q302 -17 248 4T155 63T93 154T71 272Q71 354 99 429T178 561T299 651T455 685ZM442 863Q441 860 441 848Q441 829 454 817T490 804Q519 804 533 820T556 863H655Q644 796 597 755T479
714Q451 714 427 722T384 745T356 782T345 832Q345 840 345 847T347 863H442Z" />
<glyph unicode="&#x14f;" glyph-name="null" horiz-adv-x="545" d="M326 485Q370 485 408 470T474 426T518 360T534 276Q534 214 514 161T456 69T368 7T255 -16Q211 -16 173 -1T107 43T62 109T46 193Q46 254 68 307T129 400T218 462T326 485ZM307 363Q283 363
261 352T220 321T192 273T181 212Q181 164 203 135T271 106Q295 106 317 117T358 148T387 195T398 257Q398 305 376 334T307 363ZM301 682Q300 677 300 670Q300 650 310 638T340 625Q363 625 377 640T397 682H497Q483 613 440 577T331 540Q274 540 238 568T202
652Q202 660 202 667T205 682H301Z" />
<glyph unicode="&#x150;" glyph-name="null" horiz-adv-x="743" d="M225 293Q225 258 234 227T263 173T311 137T378 124Q427 124 467 145T535 202T579 283T594 375Q594 410 585 441T557 495T510 532T442 546Q392 546 352 524T283 467T240 386T225 293ZM455 685Q518
685 572 665T665 607T727 516T749 396Q749 314 722 239T646 107T525 17T366 -17Q302 -17 248 4T155 63T93 154T71 272Q71 354 99 429T178 561T299 651T455 685ZM405 873H547L412 717H311L405 873ZM593 873H735L600 717H500L593 873Z" />
<glyph unicode="&#x151;" glyph-name="null" horiz-adv-x="545" d="M326 485Q370 485 408 470T474 426T518 360T534 276Q534 214 514 161T456 69T368 7T255 -16Q211 -16 173 -1T107 43T62 109T46 193Q46 254 68 307T129 400T218 462T326 485ZM307 363Q283 363
261 352T220 321T192 273T181 212Q181 164 203 135T271 106Q295 106 317 117T358 148T387 195T398 257Q398 305 376 334T307 363ZM274 682H398L298 540H205L274 682ZM440 682H564L464 540H371L440 682Z" />
<glyph unicode="&#x152;" glyph-name="null" horiz-adv-x="1015" d="M445 685Q517 685 563 660T642 585L658 667H1070L1044 537H761L736 404H954L929 278H711L682 131H987L962 0H529L543 72Q508 30 457 7T333 -17Q289 -17 243 2T158 58T96 149T71 272Q71 354 99
429T178 561T297 651T445 685ZM225 293Q225 258 234 227T263 173T311 137T378 124Q427 124 467 145T535 202T579 283T594 375Q594 410 585 441T557 495T510 532T442 546Q392 546 352 524T283 467T240 386T225 293Z" />
<glyph unicode="&#x153;" glyph-name="null" horiz-adv-x="864" d="M653 485Q702 485 738 468T799 424T834 360T846 286Q846 261 843 239T834 192H524Q524 149 554 122T630 95Q666 95 697 107T756 138L811 47Q769 18 720 1T611 -16Q545 -16 502 6T436 63Q407 31
366 8T255 -16Q211 -16 173 -1T107 43T62 109T46 193Q46 254 68 307T129 400T218 462T326 485Q385 485 422 462T479 408Q506 439 548 462T653 485ZM307 363Q283 363 261 352T220 321T192 273T181 212Q181 164 203 135T271 106Q295 106 317 117T358 148T387 195T398
257Q398 305 376 334T307 363ZM717 282Q719 288 719 293T719 301Q719 335 698 355T642 375Q603 375 574 353T531 282H717Z" />
<glyph unicode="&#x154;" glyph-name="null" horiz-adv-x="593" d="M227 244L180 0H39L168 667H400Q445 667 481 653T541 613T579 554T593 482Q593 439 582 404T550 341T502 294T444 264L539 0H383L303 244H227ZM285 546L251 364H330Q379 364 412 388T445 469Q445
504 424 525T363 546H285ZM372 873H527L388 717H278L372 873Z" />
<glyph unicode="&#x155;" glyph-name="null" horiz-adv-x="383" d="M119 469H251L244 410Q269 439 302 458T378 478Q395 478 409 475T438 467L394 342Q379 348 368 349T342 351Q288 351 254 314T208 219L166 0H28L119 469ZM285 682H422L316 540H214L285 682Z" />
<glyph unicode="&#x156;" glyph-name="null" horiz-adv-x="593" d="M227 244L180 0H39L168 667H400Q445 667 481 653T541 613T579 554T593 482Q593 439 582 404T550 341T502 294T444 264L539 0H383L303 244H227ZM285 546L251 364H330Q379 364 412 388T445 469Q445
504 424 525T363 546H285ZM206 -51H354L235 -209H126L206 -51Z" />
<glyph unicode="&#x157;" glyph-name="null" horiz-adv-x="383" d="M119 469H251L244 410Q269 439 302 458T378 478Q395 478 409 475T438 467L394 342Q379 348 368 349T342 351Q288 351 254 314T208 219L166 0H28L119 469ZM280 -51H417L309 -193H208L280 -51Z" />
<glyph unicode="&#x158;" glyph-name="null" horiz-adv-x="593" d="M227 244L180 0H39L168 667H400Q445 667 481 653T541 613T579 554T593 482Q593 439 582 404T550 341T502 294T444 264L539 0H383L303 244H227ZM285 546L251 364H330Q379 364 412 388T445 469Q445
504 424 525T363 546H285ZM406 717H294L214 873H328L364 797L429 873H548L406 717Z" />
<glyph unicode="&#x159;" glyph-name="null" horiz-adv-x="383" d="M119 469H251L244 410Q269 439 302 458T378 478Q395 478 409 475T438 467L394 342Q379 348 368 349T342 351Q288 351 254 314T208 219L166 0H28L119 469ZM589 540H474L402 682H514L545 614L604
682H718L589 540Z" />
<glyph unicode="&#x15a;" glyph-name="null" horiz-adv-x="567" d="M105 190Q143 153 183 134T275 114Q324 114 350 136T376 190Q376 206 371 218T354 242T321 265T268 289Q190 320 150 364T109 480Q109 521 125 558T174 624T254 668T363 685Q437 685 493 659T589
585L496 499Q467 531 433 547T356 563Q306 563 284 543T261 491Q261 476 266 465T284 442T320 420T377 394Q462 360 500 315T538 206Q538 151 518 109T463 39T379 -3T275 -17Q200 -17 131 7T10 87L105 190ZM398 873H553L414 717H304L398 873Z" />
<glyph unicode="&#x15b;" glyph-name="null" horiz-adv-x="453" d="M73 144Q108 118 139 106T212 94Q277 94 277 135Q277 145 273 152T258 165T231 179T191 197Q171 206 152 217T117 245T93 282T83 331Q83 370 98 399T140 447T202 475T277 485Q325 485 370 469T457
416L385 334Q332 378 275 378Q246 378 232 367T218 342Q218 331 221 324T235 309T263 293T312 270Q360 247 388 218T416 143Q416 102 401 72T359 23T296 -6T219 -16Q159 -16 107 -1T8 53L73 144ZM303 682H440L334 540H232L303 682Z" />
<glyph unicode="&#x15c;" glyph-name="null" horiz-adv-x="567" d="M105 190Q143 153 183 134T275 114Q324 114 350 136T376 190Q376 206 371 218T354 242T321 265T268 289Q190 320 150 364T109 480Q109 521 125 558T174 624T254 668T363 685Q437 685 493 659T589
585L496 499Q467 531 433 547T356 563Q306 563 284 543T261 491Q261 476 266 465T284 442T320 420T377 394Q462 360 500 315T538 206Q538 151 518 109T463 39T379 -3T275 -17Q200 -17 131 7T10 87L105 190ZM356 873H468L548 717H433L398 793L332 717H214L356 873Z"
/>
<glyph unicode="&#x15d;" glyph-name="null" horiz-adv-x="453" d="M73 144Q108 118 139 106T212 94Q277 94 277 135Q277 145 273 152T258 165T231 179T191 197Q171 206 152 217T117 245T93 282T83 331Q83 370 98 399T140 447T202 475T277 485Q325 485 370 469T457
416L385 334Q332 378 275 378Q246 378 232 367T218 342Q218 331 221 324T235 309T263 293T312 270Q360 247 388 218T416 143Q416 102 401 72T359 23T296 -6T219 -16Q159 -16 107 -1T8 53L73 144ZM272 682H386L459 540H346L315 608L256 540H143L272 682Z" />
<glyph unicode="&#x15e;" glyph-name="null" horiz-adv-x="567" d="M105 190Q143 153 183 134T275 114Q324 114 350 136T376 190Q376 206 371 218T354 242T321 265T268 289Q190 320 150 364T109 480Q109 521 125 558T174 624T254 668T363 685Q437 685 493 659T589
585L496 499Q467 531 433 547T356 563Q306 563 284 543T261 491Q261 476 266 465T284 442T320 420T377 394Q462 360 500 315T538 206Q538 151 518 109T463 39T379 -3T275 -17Q200 -17 131 7T10 87L105 190ZM132 -142Q150 -148 166 -152T202 -156Q261 -156 261 -126Q261
-111 248 -107T216 -103Q181 -103 145 -115L173 -47Q193 -41 214 -39T260 -36Q300 -36 328 -57T357 -115Q357 -147 344 -169T309 -204T262 -224T209 -230Q145 -230 105 -213L132 -142Z" />
<glyph unicode="&#x15f;" glyph-name="null" horiz-adv-x="453" d="M73 144Q108 118 139 106T212 94Q277 94 277 135Q277 145 273 152T258 165T231 179T191 197Q171 206 152 217T117 245T93 282T83 331Q83 370 98 399T140 447T202 475T277 485Q325 485 370 469T457
416L385 334Q332 378 275 378Q246 378 232 367T218 342Q218 331 221 324T235 309T263 293T312 270Q360 247 388 218T416 143Q416 102 401 72T359 23T296 -6T219 -16Q159 -16 107 -1T8 53L73 144ZM69 -144Q86 -150 102 -154T137 -158Q196 -158 196 -124Q196 -109
182 -105T151 -100Q119 -100 82 -113L109 -46Q148 -34 194 -34Q233 -34 261 -55T289 -113Q289 -145 276 -168T242 -205T195 -225T144 -232Q82 -232 43 -215L69 -144Z" />
<glyph unicode="&#x160;" glyph-name="null" horiz-adv-x="567" d="M105 190Q143 153 183 134T275 114Q324 114 350 136T376 190Q376 206 371 218T354 242T321 265T268 289Q190 320 150 364T109 480Q109 521 125 558T174 624T254 668T363 685Q437 685 493 659T589
585L496 499Q467 531 433 547T356 563Q306 563 284 543T261 491Q261 476 266 465T284 442T320 420T377 394Q462 360 500 315T538 206Q538 151 518 109T463 39T379 -3T275 -17Q200 -17 131 7T10 87L105 190ZM438 717H326L246 873H360L396 797L461 873H580L438 717Z"
/>
<glyph unicode="&#x161;" glyph-name="null" horiz-adv-x="453" d="M73 144Q108 118 139 106T212 94Q277 94 277 135Q277 145 273 152T258 165T231 179T191 197Q171 206 152 217T117 245T93 282T83 331Q83 370 98 399T140 447T202 475T277 485Q325 485 370 469T457
416L385 334Q332 378 275 378Q246 378 232 367T218 342Q218 331 221 324T235 309T263 293T312 270Q360 247 388 218T416 143Q416 102 401 72T359 23T296 -6T219 -16Q159 -16 107 -1T8 53L73 144ZM354 540H239L167 682H279L310 614L369 682H483L354 540Z" />
<glyph unicode="&#x162;" glyph-name="null" horiz-adv-x="592" d="M302 536H93L119 667H679L653 536H446L343 0H198L302 536ZM137 -142Q155 -148 171 -152T207 -156Q266 -156 266 -126Q266 -111 253 -107T221 -103Q186 -103 150 -115L178 -47Q198 -41 219 -39T265
-36Q305 -36 333 -57T362 -115Q362 -147 349 -169T314 -204T267 -224T214 -230Q150 -230 110 -213L137 -142Z" />
<glyph unicode="&#x163;" glyph-name="null" horiz-adv-x="399" d="M122 358H52L73 469H143L170 611H310L282 469H399L378 358H261L224 169Q221 155 221 143Q221 123 231 111T264 99Q284 99 298 105T330 125L386 38Q351 9 312 -4T232 -17Q79 -17 79 117Q79 131
81 145T86 177L122 358ZM68 103Q85 97 101 93T136 89Q195 89 195 123Q195 138 181 142T150 147Q118 147 81 134L108 201Q147 213 193 213Q232 213 260 192T288 134Q288 102 275 79T241 42T194 22T143 15Q81 15 42 32L68 103Z" />
<glyph unicode="&#x164;" glyph-name="null" horiz-adv-x="592" d="M302 536H93L119 667H679L653 536H446L343 0H198L302 536ZM451 717H339L259 873H373L409 797L474 873H593L451 717Z" />
<glyph unicode="&#x165;" glyph-name="null" horiz-adv-x="399" d="M407 667H523L456 515H374L407 667ZM122 358H52L73 469H143L170 611H310L282 469H399L378 358H261L224 169Q221 155 221 143Q221 123 231 111T264 99Q284 99 298 105T330 125L386 38Q351 9 312
-4T232 -17Q79 -17 79 117Q79 131 81 145T86 177L122 358Z" />
<glyph unicode="&#x166;" glyph-name="null" horiz-adv-x="592" d="M153 347H265L302 536H93L119 667H679L653 536H446L409 347H522L503 252H391L343 0H198L247 252H134L153 347Z" />
<glyph unicode="&#x167;" glyph-name="null" horiz-adv-x="399" d="M90 199H20L36 282H107L122 358H52L73 469H143L170 611H310L282 469H399L378 358H261L246 282H362L346 199H230L224 169Q221 155 221 143Q221 123 231 111T264 99Q284 99 298 105T330 125L386
38Q351 9 312 -4T232 -17Q79 -17 79 117Q79 131 81 145T86 177L90 199Z" />
<glyph unicode="&#x168;" glyph-name="null" horiz-adv-x="663" d="M162 667H308L232 276Q230 263 228 251T226 227Q226 181 251 153T332 125Q365 125 388 135T428 163T455 208T472 268L550 667H697L617 251Q603 178 575 127T507 44T418 -3T313 -18Q259 -18 215
-3T141 40T94 108T77 197Q77 226 83 258L162 667ZM507 720Q486 720 470 726T440 740T412 754T379 761Q350 761 333 752T295 725L249 801Q275 824 307 845T382 866Q402 866 418 860T448 846T477 832T509 825Q538 825 555 834T593 860L638 785Q626 774 613 763T583
742T547 726T507 720Z" />
<glyph unicode="&#x169;" glyph-name="null" horiz-adv-x="541" d="M460 0H328L334 51Q302 17 268 3T188 -11Q122 -11 88 28T54 134Q54 145 55 157T58 181L114 469H252L201 206Q198 192 198 178Q198 150 210 131T257 111Q280 111 298 120T330 146T353 183T367
227L414 469H551L460 0ZM402 536Q381 536 366 542T337 557T309 571T278 578Q250 578 232 568T194 541L151 616Q176 639 206 659T279 679Q299 679 314 673T344 659T371 645T402 638Q429 638 447 647T486 674L530 600Q518 589 505 578T476 558T442 542T402 536Z"
/>
<glyph unicode="&#x16a;" glyph-name="null" horiz-adv-x="663" d="M162 667H308L232 276Q230 263 228 251T226 227Q226 181 251 153T332 125Q365 125 388 135T428 163T455 208T472 268L550 667H697L617 251Q603 178 575 127T507 44T418 -3T313 -18Q259 -18 215
-3T141 40T94 108T77 197Q77 226 83 258L162 667ZM303 846H608L588 743H283L303 846Z" />
<glyph unicode="&#x16b;" glyph-name="null" horiz-adv-x="541" d="M460 0H328L334 51Q302 17 268 3T188 -11Q122 -11 88 28T54 134Q54 145 55 157T58 181L114 469H252L201 206Q198 192 198 178Q198 150 210 131T257 111Q280 111 298 120T330 146T353 183T367
227L414 469H551L460 0ZM229 653H494L474 553H209L229 653Z" />
<glyph unicode="&#x16c;" glyph-name="null" horiz-adv-x="663" d="M162 667H308L232 276Q230 263 228 251T226 227Q226 181 251 153T332 125Q365 125 388 135T428 163T455 208T472 268L550 667H697L617 251Q603 178 575 127T507 44T418 -3T313 -18Q259 -18 215
-3T141 40T94 108T77 197Q77 226 83 258L162 667ZM394 863Q393 860 393 848Q393 829 406 817T442 804Q471 804 485 820T508 863H607Q596 796 549 755T431 714Q403 714 379 722T336 745T308 782T297 832Q297 840 297 847T299 863H394Z" />
<glyph unicode="&#x16d;" glyph-name="null" horiz-adv-x="541" d="M460 0H328L334 51Q302 17 268 3T188 -11Q122 -11 88 28T54 134Q54 145 55 157T58 181L114 469H252L201 206Q198 192 198 178Q198 150 210 131T257 111Q280 111 298 120T330 146T353 183T367
227L414 469H551L460 0ZM312 682Q311 677 311 670Q311 650 321 638T351 625Q374 625 388 640T408 682H508Q494 613 451 577T342 540Q285 540 249 568T213 652Q213 660 213 667T216 682H312Z" />
<glyph unicode="&#x16e;" glyph-name="null" horiz-adv-x="663" d="M162 667H308L232 276Q230 263 228 251T226 227Q226 181 251 153T332 125Q365 125 388 135T428 163T455 208T472 268L550 667H697L617 251Q603 178 575 127T507 44T418 -3T313 -18Q259 -18 215
-3T141 40T94 108T77 197Q77 226 83 258L162 667ZM303 812Q303 840 313 864T342 905T384 932T437 942Q464 942 488 933T531 906T560 864T571 812Q571 784 561 760T532 719T489 691T437 681Q409 681 385 691T342 718T314 760T303 812ZM437 762Q459 762 472 776T485
812Q485 835 472 848T437 862Q414 862 401 848T388 812Q388 790 401 776T437 762Z" />
<glyph unicode="&#x16f;" glyph-name="null" horiz-adv-x="541" d="M460 0H328L334 51Q302 17 268 3T188 -11Q122 -11 88 28T54 134Q54 145 55 157T58 181L114 469H252L201 206Q198 192 198 178Q198 150 210 131T257 111Q280 111 298 120T330 146T353 183T367
227L414 469H551L460 0ZM231 646Q231 671 240 692T266 728T304 752T350 761Q374 761 396 753T434 729T459 692T469 646Q469 621 460 600T434 564T396 539T350 530Q326 530 304 539T266 563T241 600T231 646ZM350 603Q367 603 379 615T391 646Q391 663 379 675T350
688Q333 688 321 677T309 646Q309 628 321 616T350 603Z" />
<glyph unicode="&#x170;" glyph-name="null" horiz-adv-x="663" d="M162 667H308L232 276Q230 263 228 251T226 227Q226 181 251 153T332 125Q365 125 388 135T428 163T455 208T472 268L550 667H697L617 251Q603 178 575 127T507 44T418 -3T313 -18Q259 -18 215
-3T141 40T94 108T77 197Q77 226 83 258L162 667ZM377 873H519L384 717H283L377 873ZM565 873H707L572 717H472L565 873Z" />
<glyph unicode="&#x171;" glyph-name="null" horiz-adv-x="541" d="M460 0H328L334 51Q302 17 268 3T188 -11Q122 -11 88 28T54 134Q54 145 55 157T58 181L114 469H252L201 206Q198 192 198 178Q198 150 210 131T257 111Q280 111 298 120T330 146T353 183T367
227L414 469H551L460 0ZM278 682H402L302 540H209L278 682ZM444 682H568L468 540H375L444 682Z" />
<glyph unicode="&#x172;" glyph-name="null" horiz-adv-x="663" d="M162 667H308L232 276Q230 263 228 251T226 227Q226 181 251 153T332 125Q365 125 388 135T428 163T455 208T472 268L550 667H697L617 251Q596 144 546 84T426 0Q416 -9 405 -20T383 -43T365
-67T358 -88Q358 -99 364 -103T380 -107Q394 -107 408 -102T431 -91L456 -168Q433 -182 403 -192T337 -203Q302 -203 277 -186T251 -132Q251 -101 269 -73T314 -18Q260 -18 216 -3T141 40T94 108T77 197Q77 226 83 258L162 667Z" />
<glyph unicode="&#x173;" glyph-name="null" horiz-adv-x="541" d="M328 0L334 51Q302 17 268 3T188 -11Q122 -11 88 28T54 134Q54 145 55 157T58 181L114 469H252L201 206Q198 192 198 178Q198 150 210 131T257 111Q280 111 298 120T330 146T353 183T367 227L414
469H551L460 0Q450 -9 438 -20T416 -43T398 -66T391 -87Q391 -97 397 -101T412 -105Q426 -105 440 -99T464 -88L489 -164Q467 -177 437 -187T372 -197Q337 -197 312 -180T286 -126Q286 -91 307 -63T369 0H328Z" />
<glyph unicode="&#x174;" glyph-name="null" horiz-adv-x="883" d="M114 667H266L269 185L467 650H609L632 186L812 667H970L678 0H523L496 442L300 0H147L114 667ZM516 873H628L708 717H593L558 793L492 717H374L516 873Z" />
<glyph unicode="&#x175;" glyph-name="null" horiz-adv-x="737" d="M57 469H196L217 163L362 469H474L503 163L639 469H785L538 0H416L381 264L243 0H123L57 469ZM392 682H506L579 540H466L435 608L376 540H263L392 682Z" />
<glyph unicode="&#x176;" glyph-name="null" horiz-adv-x="599" d="M247 277L99 667H257L344 413L529 667H695L394 279L340 0H194L247 277ZM363 873H475L555 717H440L405 793L339 717H221L363 873Z" />
<glyph unicode="&#x177;" glyph-name="null" horiz-adv-x="527" d="M7 -76Q38 -98 66 -98Q92 -98 110 -78T151 -20L167 8L52 469H205L260 166L415 469H570L290 -12Q265 -54 242 -90T193 -154T138 -196T73 -212Q38 -212 9 -206T-51 -173L7 -76ZM285 682H399L472
540H359L328 608L269 540H156L285 682Z" />
<glyph unicode="&#x178;" glyph-name="null" horiz-adv-x="599" d="M247 277L99 667H257L344 413L529 667H695L394 279L340 0H194L247 277ZM456 855H580L558 736H433L456 855ZM248 855H372L349 736H225L248 855Z" />
<glyph unicode="&#x179;" glyph-name="null" horiz-adv-x="606" d="M31 122L450 536H127L152 667H663L640 546L222 130H566L541 0H7L31 122ZM423 873H578L439 717H329L423 873Z" />
<glyph unicode="&#x17a;" glyph-name="null" horiz-adv-x="479" d="M29 95L305 356H90L113 469H502L483 371L211 111H436L414 0H11L29 95ZM322 682H459L353 540H251L322 682Z" />
<glyph unicode="&#x17b;" glyph-name="null" horiz-adv-x="606" d="M31 122L450 536H127L152 667H663L640 546L222 130H566L541 0H7L31 122ZM371 858H502L478 732H346L371 858Z" />
<glyph unicode="&#x17c;" glyph-name="null" horiz-adv-x="479" d="M29 95L305 356H90L113 469H502L483 371L211 111H436L414 0H11L29 95ZM273 670H398L374 551H249L273 670Z" />
<glyph unicode="&#x17d;" glyph-name="null" horiz-adv-x="606" d="M31 122L450 536H127L152 667H663L640 546L222 130H566L541 0H7L31 122ZM462 717H350L270 873H384L420 797L485 873H604L462 717Z" />
<glyph unicode="&#x17e;" glyph-name="null" horiz-adv-x="479" d="M29 95L305 356H90L113 469H502L483 371L211 111H436L414 0H11L29 95ZM373 540H258L186 682H298L329 614L388 682H502L373 540Z" />
<glyph unicode="&#x17f;" glyph-name="null" horiz-adv-x="252" d="M124 495Q142 589 191 637T335 685Q411 685 467 631L397 544Q383 557 370 563T334 569Q309 569 290 551T262 494L166 0H28L124 495Z" />
<glyph unicode="&#x192;" glyph-name="null" horiz-adv-x="545" d="M272 -14Q246 -115 196 -157T69 -199Q22 -199 -12 -187T-81 -142L-4 -49Q13 -66 28 -70T60 -75Q89 -75 107 -55T136 7L204 277H130L151 389H232L251 461Q279 562 329 605T456 648Q503 648 537
634T607 588L529 497Q512 515 498 519T465 523Q436 523 417 502T387 440L374 389H481L460 277H346L272 -14Z" />
<glyph unicode="&#x218;" glyph-name="null" horiz-adv-x="567" d="M105 190Q143 153 183 134T275 114Q324 114 350 136T376 190Q376 206 371 218T354 242T321 265T268 289Q190 320 150 364T109 480Q109 521 125 558T174 624T254 668T363 685Q437 685 493 659T589
585L496 499Q467 531 433 547T356 563Q306 563 284 543T261 491Q261 476 266 465T284 442T320 420T377 394Q462 360 500 315T538 206Q538 151 518 109T463 39T379 -3T275 -17Q200 -17 131 7T10 87L105 190ZM188 -51H336L217 -209H108L188 -51Z" />
<glyph unicode="&#x219;" glyph-name="null" horiz-adv-x="453" d="M73 144Q108 118 139 106T212 94Q277 94 277 135Q277 145 273 152T258 165T231 179T191 197Q171 206 152 217T117 245T93 282T83 331Q83 370 98 399T140 447T202 475T277 485Q325 485 370 469T457
416L385 334Q332 378 275 378Q246 378 232 367T218 342Q218 331 221 324T235 309T263 293T312 270Q360 247 388 218T416 143Q416 102 401 72T359 23T296 -6T219 -16Q159 -16 107 -1T8 53L73 144ZM141 -51H278L170 -193H69L141 -51Z" />
<glyph unicode="&#x21a;" glyph-name="null" horiz-adv-x="592" d="M302 536H93L119 667H679L653 536H446L343 0H198L302 536ZM187 -51H335L216 -209H107L187 -51Z" />
<glyph unicode="&#x21b;" glyph-name="null" horiz-adv-x="399" d="M122 358H52L73 469H143L170 611H310L282 469H399L378 358H261L224 169Q221 155 221 143Q221 123 231 111T264 99Q284 99 298 105T330 125L386 38Q351 9 312 -4T232 -17Q79 -17 79 117Q79 131
81 145T86 177L122 358ZM142 -51H279L171 -193H70L142 -51Z" />
<glyph unicode="&#x237;" glyph-name="null" horiz-adv-x="258" d="M-105 -58Q-88 -70 -73 -74T-41 -79Q-12 -79 7 -60T37 16L125 469H263L174 13Q164 -37 150 -76T112 -143T55 -185T-27 -200Q-69 -200 -102 -191T-164 -159L-105 -58Z" />
<glyph unicode="&#x2bc;" glyph-name="null" horiz-adv-x="133" d="M131 682H250L183 533H95L131 682Z" />
<glyph unicode="&#x2c6;" glyph-name="null" horiz-adv-x="416" d="M258 682H372L445 540H332L301 608L242 540H129L258 682Z" />
<glyph unicode="&#x2c7;" glyph-name="null" horiz-adv-x="416" d="M345 540H230L158 682H270L301 614L360 682H474L345 540Z" />
<glyph unicode="&#x2c9;" glyph-name="null" horiz-adv-x="400" d="M169 653H434L414 553H149L169 653Z" />
<glyph unicode="&#x2d8;" glyph-name="null" horiz-adv-x="417" d="M268 682Q267 677 267 670Q267 650 277 638T307 625Q330 625 344 640T364 682H464Q450 613 407 577T298 540Q241 540 205 568T169 652Q169 660 169 667T172 682H268Z" />
<glyph unicode="&#x2d9;" glyph-name="null" horiz-adv-x="385" d="M235 670H360L336 551H211L235 670Z" />
<glyph unicode="&#x2da;" glyph-name="null" horiz-adv-x="394" d="M174 646Q174 671 183 692T209 728T247 752T293 761Q317 761 339 753T377 729T402 692T412 646Q412 621 403 600T377 564T339 539T293 530Q269 530 247 539T209 563T184 600T174 646ZM293 603Q310
603 322 615T334 646Q334 663 322 675T293 688Q276 688 264 677T252 646Q252 628 264 616T293 603Z" />
<glyph unicode="&#x2db;" glyph-name="null" horiz-adv-x="391" d="M220 0Q210 -9 198 -20T176 -43T158 -66T151 -87Q151 -97 157 -101T172 -105Q186 -105 200 -99T224 -88L249 -164Q227 -177 197 -187T132 -197Q97 -197 72 -180T46 -126Q46 -91 67 -63T129 0H220Z" />
<glyph unicode="&#x2dc;" glyph-name="null" horiz-adv-x="418" d="M359 536Q338 536 323 542T294 557T266 571T235 578Q207 578 189 568T151 541L108 616Q133 639 163 659T236 679Q256 679 271 673T301 659T328 645T359 638Q386 638 404 647T443 674L487 600Q475
589 462 578T433 558T399 542T359 536Z" />
<glyph unicode="&#x2dd;" glyph-name="null" horiz-adv-x="415" d="M188 682H312L212 540H119L188 682ZM354 682H478L378 540H285L354 682Z" />
<glyph unicode="&#x384;" glyph-name="null" horiz-adv-x="394" d="M392 693L300 540H203L259 693H392Z" />
<glyph unicode="&#x385;" glyph-name="null" horiz-adv-x="534" d="M447 687L372 534H279L327 687H447ZM590 666L568 554H452L473 666H590ZM267 666L245 554H129L150 666H267Z" />
<glyph unicode="&#x386;" glyph-name="null" horiz-adv-x="652" d="M348 667H510L614 0H462L443 153H215L137 0H-20L348 667ZM431 270L401 526L271 270H431ZM515 667L431 515H325L373 667H515Z" />
<glyph unicode="&#x388;" glyph-name="null" horiz-adv-x="722" d="M339 667H777L751 537H458L433 404H661L636 278H408L379 131H694L669 0H210L339 667ZM528 667L444 515H338L386 667H528Z" />
<glyph unicode="&#x389;" glyph-name="null" horiz-adv-x="862" d="M339 667H484L435 410H707L757 667H902L773 0H628L681 275H408L355 0H210L339 667ZM528 667L444 515H338L386 667H528Z" />
<glyph unicode="&#x38a;" glyph-name="null" horiz-adv-x="444" d="M339 667H484L354 0H209L339 667ZM528 667L444 515H338L386 667H528Z" />
<glyph unicode="&#x38c;" glyph-name="null" horiz-adv-x="903" d="M385 293Q385 258 394 227T423 173T471 137T538 124Q587 124 627 145T695 202T739 283T754 375Q754 410 745 441T717 495T670 532T602 546Q552 546 512 524T443 467T400 386T385 293ZM615 685Q678
685 732 665T825 607T887 516T909 396Q909 314 882 239T806 107T685 17T526 -17Q462 -17 408 4T315 63T253 154T231 272Q231 354 259 429T338 561T459 651T615 685ZM528 667L444 515H338L386 667H528Z" />
<glyph unicode="&#x38e;" glyph-name="null" horiz-adv-x="822" d="M470 277L322 667H480L567 413L752 667H918L617 279L563 0H417L470 277ZM528 667L444 515H338L386 667H528Z" />
<glyph unicode="&#x38f;" glyph-name="null" horiz-adv-x="900" d="M577 131Q616 149 646 175T698 235T729 305T740 381Q740 415 732 445T704 498T656 534T585 548Q536 548 498 530T434 479T393 404T379 313Q379 258 398 214T466 131L442 0H160L185 130H316Q271
178 254 227T236 330Q236 402 262 466T337 579T451 656T597 685Q666 685 721 663T814 603T873 514T894 403Q894 329 859 258T740 130H863L838 0H552L577 131ZM528 667L444 515H338L386 667H528Z" />
<glyph unicode="&#x390;" glyph-name="null" horiz-adv-x="348" d="M254 469L197 174Q195 165 194 156T193 139Q193 118 203 109T232 99Q255 99 281 112L319 12Q298 1 267 -8T198 -17Q160 -17 133 -7T87 21T61 63T52 116Q52 133 54 150T61 186L116 469H254ZM308
687L233 534H140L188 687H308ZM451 666L429 554H313L334 666H451ZM128 666L106 554H-10L11 666H128Z" />
<glyph unicode="&#x391;" glyph-name="null" horiz-adv-x="652" d="M348 667H510L614 0H462L443 153H215L137 0H-20L348 667ZM431 270L401 526L271 270H431Z" />
<glyph unicode="&#x392;" glyph-name="null" horiz-adv-x="586" d="M168 667H396Q450 667 486 653T545 617T577 567T587 510Q587 475 576 449T548 404T510 373T471 354Q486 349 503 338T535 308T559 267T569 215Q569 156 549 115T492 49T402 12T284 0H39L168 667ZM338
400Q357 400 376 404T409 418T432 445T441 488Q441 522 421 536T363 550H286L257 400H338ZM305 116Q328 116 349 121T386 137T411 168T421 216Q421 254 402 272T339 290H236L202 116H305Z" />
<glyph unicode="&#x393;" glyph-name="null" horiz-adv-x="516" d="M599 667L573 534H286L184 0H39L168 667H599Z" />
<glyph unicode="&#x394;" glyph-name="null" horiz-adv-x="661" d="M508 667L625 124L602 0H10L33 124L362 667H508ZM189 132H476L404 515L189 132Z" />
<glyph unicode="&#x395;" glyph-name="null" horiz-adv-x="551" d="M168 667H606L580 537H287L262 404H490L465 278H237L208 131H523L498 0H39L168 667Z" />
<glyph unicode="&#x396;" glyph-name="null" horiz-adv-x="606" d="M31 122L450 536H127L152 667H663L640 546L222 130H566L541 0H7L31 122Z" />
<glyph unicode="&#x397;" glyph-name="null" horiz-adv-x="691" d="M168 667H313L264 410H536L586 667H731L602 0H457L510 275H237L184 0H39L168 667Z" />
<glyph unicode="&#x398;" glyph-name="null" horiz-adv-x="743" d="M455 685Q518 685 572 665T665 607T727 514T749 387Q749 310 722 238T646 109T526 18T368 -17Q303 -17 249 3T155 62T93 155T71 280Q71 358 99 431T178 560T299 651T455 685ZM219 293Q219 256
229 224T258 169T308 132T377 118Q428 118 469 140T539 198T584 281T600 375Q600 412 591 444T562 500T513 538T443 552Q391 552 350 530T279 470T235 387T219 293ZM541 392L517 278H272L295 392H541Z" />
<glyph unicode="&#x399;" glyph-name="null" horiz-adv-x="273" d="M168 667H313L183 0H38L168 667Z" />
<glyph unicode="&#x39a;" glyph-name="null" horiz-adv-x="638" d="M168 667H313L261 401L524 667H701L428 394L596 0H429L307 293L226 217L184 0H39L168 667Z" />
<glyph unicode="&#x39b;" glyph-name="null" horiz-adv-x="644" d="M501 667L606 0H444L384 481L142 0H-20L342 667H501Z" />
<glyph unicode="&#x39c;" glyph-name="null" horiz-adv-x="778" d="M182 667H323L418 351L651 667H797L697 0H547L613 424L427 176H350L263 426L165 0H23L182 667Z" />
<glyph unicode="&#x39d;" glyph-name="null" horiz-adv-x="680" d="M168 667H295L495 243L577 667H720L591 0H481L265 432L182 0H39L168 667Z" />
<glyph unicode="&#x39e;" glyph-name="null" horiz-adv-x="558" d="M619 667L593 531H121L148 667H619ZM526 135L500 0H8L34 135H526ZM530 402L505 272H108L134 402H530Z" />
<glyph unicode="&#x39f;" glyph-name="null" horiz-adv-x="743" d="M225 293Q225 258 234 227T263 173T311 137T378 124Q427 124 467 145T535 202T579 283T594 375Q594 410 585 441T557 495T510 532T442 546Q392 546 352 524T283 467T240 386T225 293ZM455 685Q518
685 572 665T665 607T727 516T749 396Q749 314 722 239T646 107T525 17T366 -17Q302 -17 248 4T155 63T93 154T71 272Q71 354 99 429T178 561T299 651T455 685Z" />
<glyph unicode="&#x3a0;" glyph-name="null" horiz-adv-x="683" d="M723 667L594 0H449L552 535H287L184 0H39L168 667H723Z" />
<glyph unicode="&#x3a1;" glyph-name="null" horiz-adv-x="567" d="M168 667H396Q441 667 477 652T538 612T576 552T590 480Q590 417 568 371T508 295T420 251T316 236H226L180 0H39L168 667ZM324 356Q374 356 407 382T440 467Q440 503 419 524T357 546H286L249 356H324Z" />
<glyph unicode="&#x3a3;" glyph-name="null" horiz-adv-x="568" d="M632 667L606 535H304L438 341L218 133H537L511 0H15L39 127L268 345L128 544L152 667H632Z" />
<glyph unicode="&#x3a4;" glyph-name="null" horiz-adv-x="592" d="M302 536H93L119 667H679L653 536H446L343 0H198L302 536Z" />
<glyph unicode="&#x3a5;" glyph-name="null" horiz-adv-x="599" d="M247 277L99 667H257L344 413L529 667H695L394 279L340 0H194L247 277Z" />
<glyph unicode="&#x3a6;" glyph-name="null" horiz-adv-x="786" d="M294 -28L309 52Q198 68 135 135T71 309Q71 376 97 433T170 532T281 601T422 633L436 703H569L554 626Q666 610 729 543T792 369Q792 301 766 244T693 145T581 77T440 45L426 -28H294ZM652 358Q652
417 620 455T530 504L465 169Q556 181 604 233T652 358ZM211 320Q211 261 243 223T333 174L398 509Q307 497 259 445T211 320Z" />
<glyph unicode="&#x3a7;" glyph-name="null" horiz-adv-x="632" d="M264 351L115 667H282L371 463L526 667H693L433 345L602 0H430L328 228L151 0H-17L264 351Z" />
<glyph unicode="&#x3a8;" glyph-name="null" horiz-adv-x="838" d="M303 667L270 493Q266 472 264 453T261 416Q261 393 266 373T285 336T320 309T378 295L450 667H591L520 295Q571 299 603 315T655 358T686 419T705 492L739 667H879L839 457Q828 400 808 350T750
261T651 198T496 169L462 0H321L354 173Q296 179 252 197T177 244T131 311T115 393Q115 410 117 426T122 458L162 667H303Z" />
<glyph unicode="&#x3a9;" glyph-name="null" horiz-adv-x="757" d="M434 131Q473 149 503 175T555 235T586 305T597 381Q597 415 589 445T561 498T513 534T442 548Q393 548 355 530T291 479T250 404T236 313Q236 258 255 214T323 131L299 0H17L42 130H173Q128
178 111 227T93 330Q93 402 119 466T194 579T308 656T454 685Q523 685 578 663T671 603T730 514T751 403Q751 329 716 258T597 130H720L695 0H409L434 131Z" />
<glyph unicode="&#x3aa;" glyph-name="null" horiz-adv-x="273" d="M168 667H313L183 0H38L168 667ZM567 855H691L669 736H544L567 855ZM359 855H483L460 736H336L359 855Z" />
<glyph unicode="&#x3ab;" glyph-name="null" horiz-adv-x="599" d="M247 277L99 667H257L344 413L529 667H695L394 279L340 0H194L247 277ZM457 855H581L559 736H434L457 855ZM249 855H373L350 736H226L249 855Z" />
<glyph unicode="&#x3ac;" glyph-name="null" horiz-adv-x="617" d="M389 246Q392 264 392 280Q392 321 372 342T313 363Q287 363 264 351T224 318T197 269T187 207Q187 157 210 132T271 106Q315 106 345 135T383 212L389 246ZM490 -17Q445 -17 414 0T368 54Q345
28 309 6T221 -16Q181 -16 149 -1T95 41T60 107T47 191Q47 251 67 304T121 397T200 461T296 485Q344 485 375 466T423 421L440 469H571L508 147Q506 137 506 128Q506 114 513 106T536 97Q544 97 551 99T567 104L594 4Q572 -5 545 -11T490 -17ZM471 693L379 540H282L338
693H471Z" />
<glyph unicode="&#x3ad;" glyph-name="null" horiz-adv-x="525" d="M388 289L369 186H267Q233 186 207 177T180 140Q180 113 207 104T267 94Q322 94 363 110T431 145L488 56Q450 27 393 6T249 -16Q153 -16 95 16T37 113Q37 140 47 161T73 197T111 223T155 240Q124
253 108 275T91 331Q91 367 109 395T159 444T231 474T317 485Q380 485 430 466T518 417L455 331Q431 349 399 362T319 376Q282 376 255 365T227 328Q227 306 245 298T290 289H388ZM471 693L379 540H282L338 693H471Z" />
<glyph unicode="&#x3ae;" glyph-name="null" horiz-adv-x="545" d="M119 469H251L245 418Q277 453 313 466T387 480Q459 480 492 441T526 334Q526 324 525 312T522 288L427 -200H288L378 263Q381 278 381 292Q381 322 367 340T321 358Q297 358 279 348T247 322T225
284T212 242L165 0H28L119 469ZM488 693L396 540H299L355 693H488Z" />
<glyph unicode="&#x3af;" glyph-name="null" horiz-adv-x="348" d="M254 469L197 174Q195 165 194 156T193 139Q193 118 203 109T232 99Q255 99 281 112L319 12Q298 1 267 -8T198 -17Q160 -17 133 -7T87 21T61 63T52 116Q52 133 54 150T61 186L116 469H254ZM588
693L496 540H399L455 693H588Z" />
<glyph unicode="&#x3b0;" glyph-name="null" horiz-adv-x="547" d="M258 469L210 214Q207 197 207 182Q207 153 221 132T274 110Q319 110 341 138T373 215L422 469H559L508 201Q499 156 482 117T437 48T366 2T265 -15Q221 -15 185 -5T122 27T82 82T67 160Q67 187
73 222L120 469H258ZM449 687L374 534H281L329 687H449ZM592 666L570 554H454L475 666H592ZM269 666L247 554H131L152 666H269Z" />
<glyph unicode="&#x3b1;" glyph-name="null" horiz-adv-x="617" d="M389 246Q392 264 392 280Q392 321 372 342T313 363Q287 363 264 351T224 318T197 269T187 207Q187 157 210 132T271 106Q315 106 345 135T383 212L389 246ZM490 -17Q445 -17 414 0T368 54Q345
28 309 6T221 -16Q181 -16 149 -1T95 41T60 107T47 191Q47 251 67 304T121 397T200 461T296 485Q344 485 375 466T423 421L440 469H571L508 147Q506 137 506 128Q506 114 513 106T536 97Q544 97 551 99T567 104L594 4Q572 -5 545 -11T490 -17Z" />
<glyph unicode="&#x3b2;" glyph-name="null" horiz-adv-x="579" d="M-11 -200L112 437Q135 557 202 621T374 685Q419 685 456 673T519 639T559 585T574 515Q574 461 545 418T454 354Q502 335 528 296T555 201Q555 153 536 114T483 47T403 3T302 -13Q261 -13 228
-5T169 15L127 -200H-11ZM303 103Q360 103 391 131T423 206Q423 245 397 268T312 291H291L313 404H335Q380 404 411 427T443 498Q443 534 423 553T367 573Q321 573 293 540T252 442L191 128Q213 117 243 110T303 103Z" />
<glyph unicode="&#x3b3;" glyph-name="null" horiz-adv-x="519" d="M71 469H220L267 158L425 469H580L307 14L265 -201H127L169 15L71 469Z" />
<glyph unicode="&#x3b4;" glyph-name="null" horiz-adv-x="552" d="M240 423Q217 443 201 470T185 534Q185 563 197 590T233 638T293 672T379 685Q425 685 470 670T563 614L492 531Q469 551 443 564T380 578Q354 578 334 569T313 533Q313 507 336 487T401 438Q427
420 451 400T493 354T523 299T534 232Q534 185 516 141T462 62T378 6T267 -15Q218 -15 178 -1T108 38T62 101T46 183Q46 227 61 265T102 335T163 388T240 423ZM313 359Q254 339 222 297T189 201Q189 158 210 133T273 108Q298 108 320 118T358 145T384 187T393 239Q393
286 370 312T313 359Z" />
<glyph unicode="&#x3b5;" glyph-name="null" horiz-adv-x="513" d="M388 289L369 186H267Q233 186 207 177T180 140Q180 113 207 104T267 94Q322 94 363 110T431 145L488 56Q450 27 393 6T249 -16Q153 -16 95 16T37 113Q37 140 47 161T73 197T111 223T155 240Q124
253 108 275T91 331Q91 367 109 395T159 444T231 474T317 485Q380 485 430 466T518 417L455 331Q431 349 399 362T319 376Q282 376 255 365T227 328Q227 306 245 298T290 289H388Z" />
<glyph unicode="&#x3b6;" glyph-name="null" horiz-adv-x="472" d="M567 667L548 572Q497 540 435 503T317 421T224 325T186 214Q186 189 193 172T214 144T249 124T297 110L314 106Q375 92 407 59T440 -31Q440 -99 392 -145T250 -209L221 -110Q259 -101 280 -88T302
-50Q302 -27 283 -18T222 3L206 7Q174 15 145 28T94 62T59 115T46 191Q46 256 73 309T142 407T238 487T345 555H134L157 667H567Z" />
<glyph unicode="&#x3b7;" glyph-name="null" horiz-adv-x="545" d="M119 469H251L245 418Q277 453 313 466T387 480Q459 480 492 441T526 334Q526 324 525 312T522 288L427 -200H288L378 263Q381 278 381 292Q381 322 367 340T321 358Q297 358 279 348T247 322T225
284T212 242L165 0H28L119 469Z" />
<glyph unicode="&#x3b8;" glyph-name="null" horiz-adv-x="555" d="M380 685Q474 685 521 619T568 438Q568 364 549 284T490 137T393 27T256 -16Q161 -16 114 50T67 230Q67 279 76 332T102 436T146 532T207 611T285 665T380 685ZM271 106Q299 106 322 120T363
159T396 216T419 283H197Q194 253 194 227Q194 160 212 133T271 106ZM366 563Q337 563 313 549T271 510T238 455T215 389H437Q440 416 440 442Q440 505 423 534T366 563Z" />
<glyph unicode="&#x3b9;" glyph-name="null" horiz-adv-x="348" d="M254 469L197 174Q195 165 194 156T193 139Q193 118 203 109T232 99Q255 99 281 112L319 12Q298 1 267 -8T198 -17Q160 -17 133 -7T87 21T61 63T52 116Q52 133 54 150T61 186L116 469H254Z" />
<glyph unicode="&#x3ba;" glyph-name="null" horiz-adv-x="517" d="M255 469L224 312L394 469H555L351 279L484 0H334L241 189L193 146L165 0H28L120 469H255Z" />
<glyph unicode="&#x3bb;" glyph-name="null" horiz-adv-x="525" d="M93 629Q123 652 159 666T238 681Q284 681 313 663T359 615T386 544T405 459L493 0H346L304 282L139 0H-15L274 454L265 506Q259 539 246 550T216 562Q187 562 155 536L93 629Z" />
<glyph unicode="&#x3bc;" glyph-name="null" horiz-adv-x="543" d="M257 469L206 207Q204 199 204 192T203 173Q203 144 216 128T261 111Q285 111 303 120T335 146T358 183T372 227L419 469H556L465 0H333L339 51Q319 25 291 9T221 -7Q208 -7 193 -3T168 10L127
-200H-11L119 469H257Z" />
<glyph unicode="&#x3bd;" glyph-name="null" horiz-adv-x="518" d="M71 469H220L267 156L425 469H580L298 0H172L71 469Z" />
<glyph unicode="&#x3be;" glyph-name="null" horiz-adv-x="486" d="M449 412L427 295H329Q299 295 272 291T225 275T193 246T181 198Q181 180 186 167T206 144T246 126T310 109L324 106Q387 92 420 59T453 -31Q453 -101 403 -146T263 -209L234 -110Q269 -102 291
-89T314 -51Q314 -31 296 -21T234 0L216 4Q186 11 156 22T101 54T62 106T46 184Q46 225 58 257T92 312T140 351T198 373Q167 393 150 423T132 498Q132 543 151 578T202 636T277 672T368 685Q431 685 481 665T574 606L499 515Q472 539 442 553T372 568Q351 568 332
563T298 548T275 522T266 484Q266 445 291 429T352 412H449Z" />
<glyph unicode="&#x3bf;" glyph-name="null" horiz-adv-x="541" d="M324 485Q368 485 406 471T471 429T514 362T530 272Q530 214 510 162T452 71T365 8T256 -16Q211 -16 173 -2T106 40T62 107T46 197Q46 257 68 309T128 401T216 462T324 485ZM309 363Q284 363
261 352T220 320T192 272T181 212Q181 167 203 137T267 106Q291 106 314 117T354 148T383 196T394 257Q394 304 372 333T309 363Z" />
<glyph unicode="&#x3c0;" glyph-name="null" horiz-adv-x="648" d="M667 469L646 357H552L515 171Q513 163 512 154T511 137Q511 120 518 111T545 102Q556 102 565 104T584 112L621 12Q598 1 571 -6T510 -14Q473 -14 448 -4T406 23T382 63T374 114Q374 132 376
150T382 186L415 357H297L228 0H91L160 357H65L87 469H667Z" />
<glyph unicode="&#x3c1;" glyph-name="null" horiz-adv-x="554" d="M-11 -200L76 250Q86 304 108 347T164 421T241 468T336 485Q388 485 427 469T492 425T531 357T544 270Q544 206 522 154T461 65T371 8T263 -13Q234 -13 210 -8T164 6L126 -200H-11ZM188 120Q201
113 222 108T264 103Q294 103 320 114T365 147T396 197T407 264Q407 314 386 339T326 364Q279 364 251 331T212 243L188 120Z" />
<glyph unicode="&#x3c2;" glyph-name="null" horiz-adv-x="478" d="M276 -51Q276 -34 266 -24T230 -6L193 6Q169 14 143 29T96 70T61 129T47 208Q47 261 67 311T125 399T213 461T326 485Q389 485 434 456T505 361L395 304Q381 329 365 345T315 361Q288 361 265
350T224 319T198 274T188 221Q188 196 195 178T215 146T242 123T272 108L308 95Q332 86 352 75T388 49T412 12T421 -37Q421 -170 231 -208L203 -110Q232 -103 254 -90T276 -51Z" />
<glyph unicode="&#x3c3;" glyph-name="null" horiz-adv-x="572" d="M611 469L589 352H488Q501 329 509 300T518 236Q518 186 499 141T444 60T361 5T256 -16Q211 -16 173 -2T106 38T63 103T47 192Q47 250 69 300T131 388T229 447T358 469H611ZM267 105Q295 105
317 117T355 151T379 200T388 262Q388 284 384 307T366 352H332Q298 352 270 340T223 308T192 261T181 202Q181 157 203 131T267 105Z" />
<glyph unicode="&#x3c4;" glyph-name="null" horiz-adv-x="489" d="M519 469L498 357H327L292 174Q290 165 289 157T288 140Q288 99 335 99Q362 99 397 116L436 16Q410 3 377 -7T301 -17Q260 -17 231 -7T184 21T157 63T148 116Q148 133 150 150T157 186L189 357H65L86
469H519Z" />
<glyph unicode="&#x3c5;" glyph-name="null" horiz-adv-x="547" d="M258 469L210 214Q207 197 207 182Q207 153 221 132T274 110Q319 110 341 138T373 215L422 469H559L508 201Q499 156 482 117T437 48T366 2T265 -15Q221 -15 185 -5T122 27T82 82T67 160Q67 187
73 222L120 469H258Z" />
<glyph unicode="&#x3c6;" glyph-name="null" horiz-adv-x="710" d="M226 -200L263 -4Q214 2 174 19T106 65T63 130T47 211Q47 263 68 310T130 395T228 455T360 485L395 667H517L481 480Q528 475 568 458T637 414T682 349T698 265Q698 212 677 165T615 81T516 20T385
-9L348 -200H226ZM569 255Q569 302 541 332T459 368L407 104Q488 115 528 157T569 255ZM176 221Q176 174 203 144T285 108L338 371Q257 361 217 319T176 221Z" />
<glyph unicode="&#x3c7;" glyph-name="null" horiz-adv-x="573" d="M44 443Q73 463 103 472T165 482Q201 482 226 471T268 443T295 403T312 359L339 271L478 469H633L382 133L428 -24Q438 -57 451 -77T492 -97Q511 -97 532 -86L574 -183Q556 -193 531 -202T467
-212Q401 -212 367 -178T312 -77L282 25L118 -200H-37L238 165L203 289Q194 321 182 344T140 367Q128 367 117 363T93 350L44 443Z" />
<glyph unicode="&#x3c8;" glyph-name="null" horiz-adv-x="733" d="M253 469L215 273Q212 256 210 242T208 213Q208 171 229 144T301 109L396 605H520L425 108Q460 111 485 123T527 155T555 205T574 273L612 469H745L706 268Q694 209 675 160T621 74T533 17T401
-8L364 -200H241L278 -4Q174 10 125 66T75 202Q75 216 76 234T81 269L120 469H253Z" />
<glyph unicode="&#x3c9;" glyph-name="null" horiz-adv-x="753" d="M294 444Q245 389 215 325T185 198Q185 150 201 131T243 111Q275 111 294 137T321 208L350 361H485L458 221Q456 207 454 194T452 169Q452 144 464 128T504 111Q531 111 549 126T580 167T597
223T602 284Q602 333 591 370T561 443L685 477Q706 441 722 392T738 275Q738 216 724 163T681 71T612 8T517 -15Q498 -15 477 -11T436 3T399 33T369 85Q351 56 331 37T290 6T249 -10T209 -15Q180 -15 151 -5T99 28T61 87T46 178Q46 260 80 337T170 477L294 444Z"
/>
<glyph unicode="&#x3ca;" glyph-name="null" horiz-adv-x="348" d="M254 469L197 174Q195 165 194 156T193 139Q193 118 203 109T232 99Q255 99 281 112L319 12Q298 1 267 -8T198 -17Q160 -17 133 -7T87 21T61 63T52 116Q52 133 54 150T61 186L116 469H254ZM509
666H627L605 555H487L509 666ZM323 666H442L420 555H301L323 666Z" />
<glyph unicode="&#x3cb;" glyph-name="null" horiz-adv-x="547" d="M258 469L210 214Q207 197 207 182Q207 153 221 132T274 110Q319 110 341 138T373 215L422 469H559L508 201Q499 156 482 117T437 48T366 2T265 -15Q221 -15 185 -5T122 27T82 82T67 160Q67 187
73 222L120 469H258ZM404 666H522L500 555H382L404 666ZM218 666H337L315 555H196L218 666Z" />
<glyph unicode="&#x3cc;" glyph-name="null" horiz-adv-x="541" d="M324 485Q368 485 406 471T471 429T514 362T530 272Q530 214 510 162T452 71T365 8T256 -16Q211 -16 173 -2T106 40T62 107T46 197Q46 257 68 309T128 401T216 462T324 485ZM309 363Q284 363
261 352T220 320T192 272T181 212Q181 167 203 137T267 106Q291 106 314 117T354 148T383 196T394 257Q394 304 372 333T309 363ZM470 693L378 540H281L337 693H470Z" />
<glyph unicode="&#x3cd;" glyph-name="null" horiz-adv-x="547" d="M258 469L210 214Q207 197 207 182Q207 153 221 132T274 110Q319 110 341 138T373 215L422 469H559L508 201Q499 156 482 117T437 48T366 2T265 -15Q221 -15 185 -5T122 27T82 82T67 160Q67 187
73 222L120 469H258ZM482 693L390 540H293L349 693H482Z" />
<glyph unicode="&#x3ce;" glyph-name="null" horiz-adv-x="753" d="M294 444Q245 389 215 325T185 198Q185 150 201 131T243 111Q275 111 294 137T321 208L350 361H485L458 221Q456 207 454 194T452 169Q452 144 464 128T504 111Q531 111 549 126T580 167T597
223T602 284Q602 333 591 370T561 443L685 477Q706 441 722 392T738 275Q738 216 724 163T681 71T612 8T517 -15Q498 -15 477 -11T436 3T399 33T369 85Q351 56 331 37T290 6T249 -10T209 -15Q180 -15 151 -5T99 28T61 87T46 178Q46 260 80 337T170 477L294 444ZM577
693L485 540H388L444 693H577Z" />
<glyph unicode="&#x400;" glyph-name="null" d="M168 667H606L580 537H287L262 404H490L465 278H237L208 131H523L498 0H39L168 667ZM280 873H433L476 717H366L280 873Z" />
<glyph unicode="&#x401;" glyph-name="null" d="M168 667H606L580 537H287L262 404H490L465 278H237L208 131H523L498 0H39L168 667ZM463 855H587L565 736H440L463 855ZM255 855H379L356 736H232L255 855Z" />
<glyph unicode="&#x402;" glyph-name="null" horiz-adv-x="740" d="M181 0L284 533H104L130 667H672L646 533H428L402 395Q428 405 458 411T519 418Q559 418 597 406T665 370T713 309T731 222Q731 167 710 125T652 53T569 8T471 -8Q438 -8 407 -2L433 117Q448
114 464 114Q485 114 506 119T543 137T570 167T581 211Q581 234 572 250T549 276T516 290T478 295Q452 295 427 289T379 274L326 0H181Z" />
<glyph unicode="&#x403;" glyph-name="null" horiz-adv-x="515" d="M168 667H595L569 533H287L184 0H39L168 667ZM428 873H583L444 717H334L428 873Z" />
<glyph unicode="&#x404;" glyph-name="null" horiz-adv-x="660" d="M596 450Q573 500 535 527T438 554Q400 554 368 543T310 511T266 463T235 403H508L483 276H218Q223 205 262 160T375 115Q432 115 477 142T557 211L646 116Q623 89 594 65T529 23T452 -5T364
-16Q301 -16 247 4T154 62T93 156T71 284Q71 365 99 438T177 565T297 652T449 685Q548 685 616 640T714 516L596 450Z" />
<glyph unicode="&#x405;" glyph-name="null" horiz-adv-x="562" d="M105 190Q143 153 183 134T275 114Q324 114 350 136T376 190Q376 206 371 218T354 242T321 265T268 289Q190 320 150 364T109 480Q109 521 125 558T174 624T254 668T363 685Q437 685 493 659T589
585L496 499Q467 531 433 547T356 563Q306 563 284 543T261 491Q261 476 266 465T284 442T320 420T377 394Q462 360 500 315T538 206Q538 151 518 109T463 39T379 -3T275 -17Q200 -17 131 7T10 87L105 190Z" />
<glyph unicode="&#x406;" glyph-name="null" horiz-adv-x="273" d="M169 667H314L184 0H39L169 667Z" />
<glyph unicode="&#x407;" glyph-name="null" horiz-adv-x="273" d="M169 667H314L184 0H39L169 667ZM571 855H695L673 736H548L571 855ZM363 855H487L464 736H340L363 855Z" />
<glyph unicode="&#x408;" glyph-name="null" horiz-adv-x="491" d="M346 172Q372 141 399 127T459 113Q502 113 528 138T565 221L652 667H797L705 194Q684 85 625 34T469 -18Q402 -18 349 4T254 76L346 172Z" />
<glyph unicode="&#x409;" glyph-name="null" horiz-adv-x="973" d="M727 667L684 444H749Q849 444 906 390T964 243Q964 189 945 145T889 68T803 18T691 0H456L559 533H419Q393 420 363 322T292 151T194 35T57 -7Q30 -7 0 -1L25 130Q30 129 34 129T43 129Q89 129
124 159T190 255T249 422T310 667H727ZM661 324L621 121H694Q753 121 785 153T817 234Q817 275 794 299T723 324H661Z" />
<glyph unicode="&#x40a;" glyph-name="null" horiz-adv-x="951" d="M563 667H705L659 428H735Q832 428 887 377T942 234Q942 182 923 139T870 65T787 17T679 0H434L491 293H238L181 0H39L168 667H310L264 428H517L563 667ZM635 307L598 117H679Q734 117 764 147T794
223Q794 261 773 284T706 307H635Z" />
<glyph unicode="&#x40b;" glyph-name="null" horiz-adv-x="754" d="M181 0L284 533H104L130 667H672L646 533H428L401 391Q426 400 456 406T519 413Q565 413 602 399T665 360T705 298T719 219Q719 190 713 157L681 0H536L566 149Q571 174 571 193Q571 236 547
260T465 284Q439 284 417 279T377 266L326 0H181Z" />
<glyph unicode="&#x40c;" glyph-name="null" horiz-adv-x="641" d="M184 0H39L168 667H313L263 411H298Q335 411 359 429T409 482L537 667H704L551 451Q519 406 491 384T425 347Q459 334 481 309T518 243L606 0H440L374 196Q362 233 346 254T290 275H237L184 0ZM463
873H618L479 717H369L463 873Z" />
<glyph unicode="&#x40d;" glyph-name="null" horiz-adv-x="679" d="M590 0H447L530 428L165 0H39L168 667H311L230 247L586 667H719L590 0ZM334 873H487L530 717H420L334 873Z" />
<glyph unicode="&#x40e;" glyph-name="null" horiz-adv-x="620" d="M266 667L348 323L558 667H715L371 136Q343 92 317 63T263 17T208 -8T150 -16Q105 -16 73 -3T17 30L83 137Q97 126 115 118T158 109Q177 109 200 120T254 173L115 667H266ZM388 863Q387 860 387
848Q387 829 400 817T436 804Q465 804 479 820T502 863H601Q590 796 543 755T425 714Q397 714 373 722T330 745T302 782T291 832Q291 840 291 847T293 863H388Z" />
<glyph unicode="&#x40f;" glyph-name="null" horiz-adv-x="677" d="M588 0H378L349 -154H220L249 0H39L168 667H313L209 131H468L572 667H717L588 0Z" />
<glyph unicode="&#x410;" glyph-name="null" horiz-adv-x="649" d="M350 667H512L616 0H464L445 153H217L139 0H-18L350 667ZM433 270L403 526L273 270H433Z" />
<glyph unicode="&#x411;" glyph-name="null" horiz-adv-x="577" d="M168 667H586L562 543H286L262 419H354Q449 419 503 368T557 229Q557 178 539 136T486 64T405 17T300 0H39L168 667ZM239 299L204 121H303Q354 121 382 149T411 220Q411 255 391 277T328 299H239Z" />
<glyph unicode="&#x412;" glyph-name="null" horiz-adv-x="586" d="M168 667H396Q450 667 486 653T545 617T577 567T587 510Q587 475 576 449T548 404T510 373T471 354Q486 349 503 338T535 308T559 267T569 215Q569 156 549 115T492 49T402 12T284 0H39L168 667ZM338
400Q357 400 376 404T409 418T432 445T441 488Q441 522 421 536T363 550H286L257 400H338ZM305 116Q328 116 349 121T386 137T411 168T421 216Q421 254 402 272T339 290H236L202 116H305Z" />
<glyph unicode="&#x413;" glyph-name="null" horiz-adv-x="515" d="M168 667H595L569 533H287L184 0H39L168 667Z" />
<glyph unicode="&#x414;" glyph-name="null" horiz-adv-x="708" d="M728 667L623 127H687L632 -154H503L534 0H120L90 -154H-39L15 127H72Q115 179 150 236T213 360T265 501T309 667H728ZM565 540H413Q380 413 337 311T230 127H485L565 540Z" />
<glyph unicode="&#x415;" glyph-name="null" d="M168 667H606L580 537H287L262 404H490L465 278H237L208 131H523L498 0H39L168 667Z" />
<glyph unicode="&#x416;" glyph-name="null" horiz-adv-x="901" d="M496 0H354L408 277H373Q344 277 322 256T277 196L155 0H-15L145 244Q177 293 205 315T262 348Q239 361 221 387T191 459L141 667H291L331 484Q339 447 355 428T401 409H433L483 667H625L575
409H598Q628 409 650 428T696 484L807 667H970L830 444Q806 406 779 383T723 348Q749 337 769 312T800 244L866 0H702L658 196Q650 233 637 255T591 277H550L496 0Z" />
<glyph unicode="&#x417;" glyph-name="null" horiz-adv-x="537" d="M217 407H312Q330 407 349 412T383 426T407 451T417 488Q417 521 393 538T329 556Q282 556 244 535T177 485L101 575Q153 631 219 657T351 684Q398 684 437 671T503 635T546 581T561 511Q561
479 550 452T521 403T479 365T427 339Q469 323 495 287T522 195Q522 147 502 109T446 42T364 -1T262 -16Q179 -16 114 17T11 107L104 194Q129 162 168 137T262 112Q314 112 345 136T377 205Q377 243 354 260T300 278H191L217 407Z" />
<glyph unicode="&#x418;" glyph-name="null" horiz-adv-x="679" d="M590 0H447L530 428L165 0H39L168 667H311L230 247L586 667H719L590 0Z" />
<glyph unicode="&#x419;" glyph-name="null" horiz-adv-x="679" d="M590 0H447L530 428L165 0H39L168 667H311L230 247L586 667H719L590 0ZM428 863Q427 860 427 848Q427 829 440 817T476 804Q505 804 519 820T542 863H641Q630 796 583 755T465 714Q437 714 413
722T370 745T342 782T331 832Q331 840 331 847T333 863H428Z" />
<glyph unicode="&#x41a;" glyph-name="null" horiz-adv-x="641" d="M184 0H39L168 667H313L263 411H298Q335 411 359 429T409 482L537 667H704L551 451Q519 406 491 384T425 347Q459 334 481 309T518 243L606 0H440L374 196Q362 233 346 254T290 275H237L184 0Z" />
<glyph unicode="&#x41b;" glyph-name="null" horiz-adv-x="704" d="M744 667L615 0H470L573 533H419Q393 420 363 322T292 151T194 35T57 -7Q30 -7 0 -1L25 130Q30 129 34 129T43 129Q89 129 124 159T190 255T249 422T310 667H744Z" />
<glyph unicode="&#x41c;" glyph-name="null" horiz-adv-x="770" d="M182 667H323L418 351L651 667H797L697 0H547L613 424L427 176H350L263 426L165 0H23L182 667Z" />
<glyph unicode="&#x41d;" glyph-name="null" horiz-adv-x="691" d="M168 667H313L264 410H536L586 667H731L602 0H457L510 275H237L184 0H39L168 667Z" />
<glyph unicode="&#x41e;" glyph-name="null" horiz-adv-x="743" d="M225 293Q225 258 234 227T263 173T311 137T378 124Q427 124 467 145T535 202T579 283T594 375Q594 410 585 441T557 495T510 532T442 546Q392 546 352 524T283 467T240 386T225 293ZM455 685Q518
685 572 665T665 607T727 516T749 396Q749 314 722 239T646 107T525 17T366 -17Q302 -17 248 4T155 63T93 154T71 272Q71 354 99 429T178 561T299 651T455 685Z" />
<glyph unicode="&#x41f;" glyph-name="null" horiz-adv-x="684" d="M168 667H724L595 0H450L553 533H287L184 0H39L168 667Z" />
<glyph unicode="&#x420;" glyph-name="null" horiz-adv-x="554" d="M168 667H396Q441 667 477 652T538 612T576 552T590 480Q590 417 568 371T508 295T420 251T316 236H226L180 0H39L168 667ZM324 356Q374 356 407 382T440 467Q440 503 419 524T357 546H286L249 356H324Z" />
<glyph unicode="&#x421;" glyph-name="null" horiz-adv-x="664" d="M648 117Q620 86 591 62T527 20T453 -7T365 -17Q300 -17 246 4T153 63T93 156T71 279Q71 361 99 434T177 563T298 652T452 685Q555 685 620 641T715 519L593 453Q567 503 534 525T444 548Q394
548 354 527T285 470T241 388T226 293Q226 259 236 229T265 175T312 139T378 125Q409 125 433 131T478 148T517 176T554 215L648 117Z" />
<glyph unicode="&#x422;" glyph-name="null" horiz-adv-x="610" d="M313 536H104L130 667H690L664 536H457L354 0H209L313 536Z" />
<glyph unicode="&#x423;" glyph-name="null" horiz-adv-x="620" d="M266 667L348 323L558 667H715L371 136Q343 92 317 63T263 17T208 -8T150 -16Q105 -16 73 -3T17 30L83 137Q97 126 115 118T158 109Q177 109 200 120T254 173L115 667H266Z" />
<glyph unicode="&#x424;" glyph-name="null" horiz-adv-x="786" d="M294 -28L309 52Q198 68 135 135T71 309Q71 376 97 433T170 532T281 601T422 633L436 703H569L554 626Q666 610 729 543T792 369Q792 301 766 244T693 145T581 77T440 45L426 -28H294ZM652 358Q652
417 620 455T530 504L465 169Q556 181 604 233T652 358ZM211 320Q211 261 243 223T333 174L398 509Q307 497 259 445T211 320Z" />
<glyph unicode="&#x425;" glyph-name="null" horiz-adv-x="632" d="M264 351L115 667H282L371 463L526 667H693L433 345L602 0H430L328 228L151 0H-17L264 351Z" />
<glyph unicode="&#x426;" glyph-name="null" horiz-adv-x="691" d="M607 134H671L616 -154H487L517 0H39L168 667H313L210 134H462L565 667H710L607 134Z" />
<glyph unicode="&#x427;" glyph-name="null" horiz-adv-x="619" d="M659 667L530 0H385L435 258Q410 248 379 242T316 235Q271 235 235 249T173 288T133 349T119 429Q119 458 125 491L159 667H304L272 499Q267 474 267 455Q267 412 291 388T371 364Q421 364 459
383L514 667H659Z" />
<glyph unicode="&#x428;" glyph-name="null" horiz-adv-x="1013" d="M924 0H39L168 667H313L210 134H435L538 667H683L580 134H805L908 667H1053L924 0Z" />
<glyph unicode="&#x429;" glyph-name="null" horiz-adv-x="1024" d="M1004 134L949 -154H820L850 0H39L168 667H313L210 134H430L533 667H678L575 134H795L898 667H1043L940 134H1004Z" />
<glyph unicode="&#x42a;" glyph-name="null" horiz-adv-x="659" d="M239 536H100L125 667H407L364 444H435Q535 444 592 390T650 243Q650 189 631 145T575 68T489 18T377 0H136L239 536ZM341 324L301 121H380Q439 121 471 153T503 234Q503 275 480 299T409 324H341Z" />
<glyph unicode="&#x42b;" glyph-name="null" horiz-adv-x="816" d="M168 667H310L267 444H330Q430 444 487 390T545 243Q545 189 526 145T470 68T384 18T272 0H39L168 667ZM244 324L204 121H275Q334 121 366 153T398 234Q398 275 375 299T304 324H244ZM711 667H856L727
0H582L711 667Z" />
<glyph unicode="&#x42c;" glyph-name="null" horiz-adv-x="569" d="M168 667H310L267 444H345Q445 444 502 390T560 243Q560 189 541 145T485 68T399 18T287 0H39L168 667ZM244 324L204 121H290Q349 121 381 153T413 234Q413 275 390 299T319 324H244Z" />
<glyph unicode="&#x42d;" glyph-name="null" horiz-adv-x="659" d="M298 115Q375 115 427 160T503 275H229L254 403H516Q513 436 502 463T471 511T424 542T363 554Q306 554 262 527T181 457L91 550Q140 608 210 646T372 685Q435 685 489 665T582 607T643 513T665
385Q665 304 637 232T559 104T439 17T286 -16Q189 -16 120 29T22 153L140 219Q163 170 202 143T298 115Z" />
<glyph unicode="&#x42e;" glyph-name="null" horiz-adv-x="1007" d="M640 -17Q577 -17 525 3T435 62T376 154T355 275H237L184 0H39L168 667H314L264 409H376Q395 466 428 516T507 603T610 663T732 685Q793 685 844 666T933 609T992 517T1013 392Q1013 314 987
241T911 110T793 18T640 -17ZM715 548Q667 548 628 526T560 468T517 385T501 291Q501 255 510 225T537 171T582 135T647 122Q695 122 734 144T802 202T845 284T861 378Q861 413 852 444T825 498T780 534T715 548Z" />
<glyph unicode="&#x42f;" glyph-name="null" horiz-adv-x="582" d="M493 0H350L396 239H374Q355 239 341 234T315 219T289 192T260 151L156 0H-3L130 187Q155 222 175 241T225 274Q204 282 185 296T150 332T125 380T115 440Q115 490 134 532T186 604T265 650T364
667H622L493 0ZM420 359L456 546H365Q317 546 289 518T260 445Q260 406 282 383T352 359H420Z" />
<glyph unicode="&#x430;" glyph-name="null" horiz-adv-x="505" d="M337 206Q327 208 312 210T279 212Q222 212 196 192T170 139Q170 113 185 100T226 87Q242 87 259 92T290 107T315 133T330 170L337 206ZM301 0L306 44Q277 12 243 -2T173 -16Q113 -16 75 20T36
122Q36 203 98 252T273 301Q292 301 310 300T354 295L357 311Q358 315 358 318T358 325Q358 356 334 369T270 382Q230 382 201 371T145 344L96 430Q129 453 182 472T300 491Q392 491 439 448T487 327Q487 313 486 299T481 266L429 0H301Z" />
<glyph unicode="&#x431;" glyph-name="null" horiz-adv-x="552" d="M562 554L421 536Q335 525 285 487T212 373Q279 436 360 436Q399 436 431 423T487 384T524 323T538 242Q538 192 521 146T470 63T390 6T282 -16Q227 -16 186 2T118 54T77 132T63 230Q63 274 73
323Q103 471 189 553T408 652L547 670L562 554ZM285 97Q311 97 332 108T368 138T391 181T400 232Q400 277 377 301T315 326Q289 326 268 315T231 286T208 244T199 194Q199 151 221 124T285 97Z" />
<glyph unicode="&#x432;" glyph-name="null" horiz-adv-x="515" d="M210 282H306Q337 282 353 297T370 340Q370 380 322 380H229L210 282ZM28 0L121 475H364Q400 475 426 466T470 441T496 405T504 362Q504 339 497 320T477 285T448 260T414 243Q444 234 465 209T487
145Q487 76 435 38T295 0H28ZM174 95H288Q320 95 337 110T355 154Q355 178 341 187T303 197H194L174 95Z" />
<glyph unicode="&#x433;" glyph-name="null" horiz-adv-x="403" d="M422 356H236L166 0H28L121 475H445L422 356Z" />
<glyph unicode="&#x434;" glyph-name="null" horiz-adv-x="588" d="M575 475L504 110H562L517 -124H395L419 0H108L84 -124H-38L7 110H58Q120 182 157 273T220 475H575ZM371 110L421 365H314Q303 324 292 289T267 224T237 165T202 110H371Z" />
<glyph unicode="&#x435;" glyph-name="null" horiz-adv-x="525" d="M291 95Q327 95 358 107T417 138L472 47Q430 18 381 1T274 -16Q228 -16 187 -4T116 34T67 102T49 203Q49 265 69 317T124 408T208 469T313 491Q363 491 399 475T460 430T495 364T507 287Q507
243 495 195H185Q190 147 215 121T291 95ZM379 285Q380 290 380 293T380 301Q380 341 358 361T302 381Q262 381 233 356T191 285H379Z" />
<glyph unicode="&#x436;" glyph-name="null" horiz-adv-x="759" d="M418 0H284L320 181H289Q265 181 251 168T216 123L132 0H-16L92 152Q118 189 140 210T193 242Q168 256 154 276T129 334L91 475H219L252 354Q260 326 271 311T309 296H342L377 475H511L476 296H508Q532
296 547 310T584 358L661 475H797L692 319Q669 285 649 266T604 239Q633 227 648 206T675 151L724 0H583L545 129Q538 153 528 167T491 181H454L418 0Z" />
<glyph unicode="&#x437;" glyph-name="null" horiz-adv-x="462" d="M161 293H254Q286 293 306 305T326 344Q326 387 265 387Q217 387 182 370T120 331L67 413Q106 447 161 469T283 491Q366 491 414 457T462 364Q462 321 436 289T369 238Q398 224 416 198T435 137Q435
99 417 71T369 23T298 -6T214 -16Q145 -16 89 6T0 61L65 145Q89 124 126 108T212 91Q249 91 275 103T301 145Q301 169 284 179T237 189H141L161 293Z" />
<glyph unicode="&#x438;" glyph-name="null" horiz-adv-x="555" d="M346 0L402 286L146 0H28L121 475H252L198 199L445 475H570L477 0H346Z" />
<glyph unicode="&#x439;" glyph-name="null" horiz-adv-x="555" d="M346 0L402 286L146 0H28L121 475H252L198 199L445 475H570L477 0H346ZM330 679V671Q330 648 342 635T378 621Q404 621 417 637T435 679H533Q523 616 480 577T369 538Q341 538 317 545T274 567T246
603T236 653Q236 661 236 667T238 679H330Z" />
<glyph unicode="&#x43a;" glyph-name="null" horiz-adv-x="530" d="M164 0H28L121 475H257L222 296H255Q284 296 302 312T341 358L424 475H568L462 327Q437 292 413 273T359 243Q390 233 408 211T439 152L495 0H346L301 129Q294 150 284 166T246 182H200L164 0Z" />
<glyph unicode="&#x43b;" glyph-name="null" horiz-adv-x="576" d="M591 475L498 0H360L430 356H326Q305 268 281 201T225 89T150 20T49 -3Q38 -3 26 -2T0 1L23 120Q28 119 31 119T37 119Q70 119 95 137T143 198T184 308T225 475H591Z" />
<glyph unicode="&#x43c;" glyph-name="null" horiz-adv-x="627" d="M272 109L214 284L146 0H21L138 475H257L330 247L497 475H628L554 0H422L467 284L339 109H272Z" />
<glyph unicode="&#x43d;" glyph-name="null" horiz-adv-x="556" d="M571 475L478 0H340L375 179H201L166 0H28L121 475H259L224 298H398L433 475H571Z" />
<glyph unicode="&#x43e;" glyph-name="null" horiz-adv-x="546" d="M328 491Q372 491 410 476T477 433T521 364T537 273Q537 216 517 164T460 71T373 8T263 -16Q216 -16 177 -1T109 43T65 112T49 201Q49 259 71 312T132 404T220 467T328 491ZM313 369Q287 369
264 358T223 326T195 277T184 214Q184 165 206 136T271 106Q296 106 319 117T361 148T390 197T401 261Q401 309 379 339T313 369Z" />
<glyph unicode="&#x43f;" glyph-name="null" horiz-adv-x="552" d="M567 475L474 0H336L406 356H236L166 0H28L121 475H567Z" />
<glyph unicode="&#x440;" glyph-name="null" horiz-adv-x="552" d="M120 475H252L247 424Q301 491 380 491Q414 491 444 478T496 438T530 373T543 283Q543 212 520 157T457 63T366 5T260 -15Q237 -15 215 -11T166 6L126 -200H-11L120 475ZM188 119Q203 110 220
107T253 103Q287 103 314 117T360 156T389 212T399 276Q399 370 326 370Q284 370 254 337T212 244L188 119Z" />
<glyph unicode="&#x441;" glyph-name="null" horiz-adv-x="486" d="M456 66Q419 31 371 8T259 -16Q212 -16 173 -2T107 40T64 108T49 198Q49 257 69 310T127 403T215 467T328 491Q398 491 441 459T508 367L398 310Q384 337 366 352T317 367Q290 367 267 355T227
322T200 273T190 213Q190 157 216 133T280 108Q310 108 335 122T382 156L456 66Z" />
<glyph unicode="&#x442;" glyph-name="null" horiz-adv-x="484" d="M526 475L503 356H355L285 0H147L217 356H69L92 475H526Z" />
<glyph unicode="&#x443;" glyph-name="null" horiz-adv-x="538" d="M30 -76Q61 -98 89 -98Q115 -98 133 -78T174 -20L190 8L76 475H229L283 166L439 475H594L281 -68Q239 -140 193 -176T89 -212Q57 -212 27 -202T-28 -173L30 -76Z" />
<glyph unicode="&#x444;" glyph-name="null" horiz-adv-x="709" d="M228 -200L265 -7Q216 -1 176 16T108 62T65 128T49 211Q49 265 70 312T132 397T230 458T362 488L397 667H519L483 483Q530 478 570 461T639 416T684 350T700 265Q700 211 679 163T617 78T518
17T387 -12L350 -200H228ZM571 256Q571 304 543 335T461 371L409 101Q490 112 530 154T571 256ZM178 220Q178 172 205 141T287 105L340 374Q259 364 219 322T178 220Z" />
<glyph unicode="&#x445;" glyph-name="null" horiz-adv-x="505" d="M195 246L78 475H228L290 341L398 475H555L352 242L474 0H324L255 145L139 0H-19L195 246Z" />
<glyph unicode="&#x446;" glyph-name="null" horiz-adv-x="569" d="M545 119L498 -124H376L400 0H28L121 475H259L189 119H349L419 475H557L487 119H545Z" />
<glyph unicode="&#x447;" glyph-name="null" horiz-adv-x="523" d="M538 475L445 0H307L338 161Q293 144 250 144Q211 144 180 156T126 190T93 241T81 306Q81 318 82 330T86 354L110 475H248L225 355Q223 345 223 339T222 326Q222 297 239 278T296 258Q314 258
330 261T360 271L400 475H538Z" />
<glyph unicode="&#x448;" glyph-name="null" horiz-adv-x="818" d="M28 0L121 475H259L189 119H338L408 475H546L476 119H625L695 475H833L740 0H28Z" />
<glyph unicode="&#x449;" glyph-name="null" horiz-adv-x="839" d="M815 119L768 -124H646L670 0H28L121 475H259L189 119H335L405 475H543L473 119H619L689 475H827L757 119H815Z" />
<glyph unicode="&#x44a;" glyph-name="null" horiz-adv-x="583" d="M345 475L318 335H402Q437 335 467 326T518 297T552 250T564 184Q564 140 548 106T503 49T436 13T355 0H119L188 356H69L92 475H345ZM272 103H351Q386 103 407 123T429 177Q429 203 415 217T372
232H297L272 103Z" />
<glyph unicode="&#x44b;" glyph-name="null" horiz-adv-x="715" d="M592 475H730L637 0H499L592 475ZM181 103H251Q286 103 307 123T329 177Q329 203 315 217T272 232H206L181 103ZM254 475L227 335H302Q337 335 367 326T418 297T452 250T464 184Q464 140 448
106T403 49T336 13T255 0H28L121 475H254Z" />
<glyph unicode="&#x44c;" glyph-name="null" horiz-adv-x="494" d="M181 103H262Q297 103 318 123T340 177Q340 203 326 217T283 232H206L181 103ZM254 475L227 335H313Q348 335 378 326T429 297T463 250T475 184Q475 140 459 106T414 49T347 13T266 0H28L121 475H254Z" />
<glyph unicode="&#x44d;" glyph-name="null" horiz-adv-x="474" d="M69 419Q103 451 150 471T255 491Q302 491 340 476T407 434T450 366T465 275Q465 216 445 164T388 71T302 8T193 -16Q155 -16 125 -7T72 16T32 46T7 78L87 149Q104 125 131 109T195 93Q243 93
275 119T323 187H155L176 290H337Q332 338 307 361T240 385Q205 385 178 371T128 336L69 419Z" />
<glyph unicode="&#x44e;" glyph-name="null" horiz-adv-x="775" d="M497 -16Q453 -16 417 -2T354 38T311 100T292 180H201L166 0H28L121 475H259L224 298H309Q323 338 347 373T403 434T476 475T562 491Q607 491 644 476T709 433T751 364T766 275Q766 216 746 163T689
71T604 8T497 -16ZM508 106Q532 106 554 117T594 149T622 198T632 261Q632 309 611 339T548 370Q523 370 501 359T462 326T435 276T425 213Q425 166 445 136T508 106Z" />
<glyph unicode="&#x44f;" glyph-name="null" horiz-adv-x="502" d="M363 373H287Q255 373 235 356T214 306Q214 282 228 267T271 252H339L363 373ZM290 0L320 154H280Q261 154 249 144T219 110L143 0H-10L82 121Q104 151 121 166T165 191Q130 203 105 233T79 312Q79
350 94 380T136 431T199 463T279 475H517L424 0H290Z" />
<glyph unicode="&#x450;" glyph-name="null" horiz-adv-x="525" d="M291 95Q327 95 358 107T417 138L472 47Q430 18 381 1T274 -16Q228 -16 187 -4T116 34T67 102T49 203Q49 265 69 317T124 408T208 469T313 491Q363 491 399 475T460 430T495 364T507 287Q507
243 495 195H185Q190 147 215 121T291 95ZM379 285Q380 290 380 293T380 301Q380 341 358 361T302 381Q262 381 233 356T191 285H379ZM475 683H612L635 541H535L475 683Z" />
<glyph unicode="&#x451;" glyph-name="null" horiz-adv-x="525" d="M291 95Q327 95 358 107T417 138L472 47Q430 18 381 1T274 -16Q228 -16 187 -4T116 34T67 102T49 203Q49 265 69 317T124 408T208 469T313 491Q363 491 399 475T460 430T495 364T507 287Q507
243 495 195H185Q190 147 215 121T291 95ZM379 285Q380 290 380 293T380 301Q380 341 358 361T302 381Q262 381 233 356T191 285H379ZM387 672H505L483 561H365L387 672ZM201 672H320L298 561H179L201 672Z" />
<glyph unicode="&#x452;" glyph-name="null" horiz-adv-x="546" d="M130 523H71L87 602H145L158 667H294L281 602H432L416 523H265L244 412Q275 441 308 456T381 471Q420 471 448 456T495 415T522 351T531 270Q531 206 514 142T467 17T395 -99T304 -203L203 -114Q238
-79 271 -36T330 54T371 152T387 253Q387 301 371 324T319 348Q296 348 278 339T247 315T225 281T212 241L165 0H28L130 523Z" />
<glyph unicode="&#x453;" glyph-name="null" horiz-adv-x="403" d="M422 356H236L166 0H28L121 475H445L422 356ZM318 687H455L349 545H247L318 687Z" />
<glyph unicode="&#x454;" glyph-name="null" horiz-adv-x="482" d="M423 326Q406 352 380 367T319 382Q271 382 239 356T191 290H360L340 187H177Q182 139 210 115T281 90Q313 90 342 103T392 136L449 52Q416 21 369 3T266 -16Q217 -16 177 0T109 44T65 113T49
203Q49 261 70 313T129 405T217 468T323 491Q358 491 387 483T439 461T478 430T504 397L423 326Z" />
<glyph unicode="&#x455;" glyph-name="null" horiz-adv-x="448" d="M73 144Q99 124 137 109T217 94Q249 94 263 104T277 133Q277 141 274 147T261 161T235 177T191 200Q169 211 150 223T115 251T92 288T83 337Q83 375 98 403T139 451T201 481T276 491Q325 491
370 475T457 422L385 340Q332 384 275 384Q248 384 233 374T218 344Q218 336 221 330T235 316T263 298T312 273Q335 261 354 248T387 220T408 184T416 138Q416 102 401 73T360 25T296 -5T215 -16Q148 -16 96 4T8 53L73 144Z" />
<glyph unicode="&#x456;" glyph-name="null" horiz-adv-x="264" d="M160 667H308L283 540H135L160 667ZM130 475H268L176 0H38L130 475Z" />
<glyph unicode="&#x457;" glyph-name="null" horiz-adv-x="264" d="M264 666H382L360 555H242L264 666ZM78 666H197L175 555H56L78 666ZM130 475H268L176 0H38L130 475Z" />
<glyph unicode="&#x458;" glyph-name="null" horiz-adv-x="263" d="M-101 -58Q-88 -66 -71 -72T-33 -79Q-6 -79 11 -62T37 -1L130 475H268L170 -25Q163 -60 150 -92T115 -148T60 -186T-18 -200Q-61 -200 -99 -188T-160 -159L-101 -58ZM160 666H308L283 539H135L160 666Z" />
<glyph unicode="&#x459;" glyph-name="null" horiz-adv-x="811" d="M579 475L552 335H630Q665 335 695 326T746 297T780 250T792 184Q792 140 776 106T731 49T664 13T583 0H353L423 356H326Q305 268 281 201T225 89T150 20T49 -3Q38 -3 26 -2T0 1L23 120Q28 119
31 119T37 119Q70 119 95 137T143 198T184 308T225 475H579ZM506 103H579Q614 103 635 123T657 177Q657 203 643 217T600 232H531L506 103Z" />
<glyph unicode="&#x45a;" glyph-name="null" horiz-adv-x="786" d="M254 475L224 319H391L422 475H555L524 319H613Q680 319 723 283T767 175Q767 134 752 102T709 47T646 12T568 0H329L368 200H200L161 0H28L121 475H254ZM481 99H567Q597 99 616 116T635 163Q635
186 622 198T585 211H503L481 99Z" />
<glyph unicode="&#x45b;" glyph-name="null" horiz-adv-x="542" d="M145 602L158 667H294L281 602H432L416 523H265L244 411Q276 442 311 455T389 468Q425 468 450 457T492 425T516 379T524 323Q524 312 523 299T518 266L466 0H327L376 251Q378 259 379 266T380
282Q380 310 366 328T320 346Q297 346 279 337T247 311T224 274T210 230L165 0H28L130 523H71L87 602H145Z" />
<glyph unicode="&#x45c;" glyph-name="null" horiz-adv-x="530" d="M164 0H28L121 475H257L222 296H255Q284 296 302 312T341 358L424 475H568L462 327Q437 292 413 273T359 243Q390 233 408 211T439 152L495 0H346L301 129Q294 150 284 166T246 182H200L164 0ZM365
688H502L396 546H294L365 688Z" />
<glyph unicode="&#x45d;" glyph-name="null" horiz-adv-x="555" d="M346 0L402 286L146 0H28L121 475H252L198 199L445 475H570L477 0H346ZM252 688H389L412 546H312L252 688Z" />
<glyph unicode="&#x45e;" glyph-name="null" horiz-adv-x="538" d="M30 -76Q61 -98 89 -98Q115 -98 133 -78T174 -20L190 8L76 475H229L283 166L439 475H594L281 -68Q239 -140 193 -176T89 -212Q57 -212 27 -202T-28 -173L30 -76ZM322 684V676Q322 653 334 640T370
626Q396 626 409 642T427 684H525Q515 621 472 582T361 543Q333 543 309 550T266 572T238 608T228 658Q228 666 228 672T230 684H322Z" />
<glyph unicode="&#x45f;" glyph-name="null" horiz-adv-x="547" d="M28 0L121 475H259L189 119H354L424 475H562L469 0H309L285 -124H163L187 0H28Z" />
<glyph unicode="&#x462;" glyph-name="null" horiz-adv-x="701" d="M275 512H99L122 630H298L314 715H456L440 630H651L629 512H417L397 410H493Q586 410 639 361T692 224Q692 174 674 133T622 63T543 17T440 0H175L275 512ZM374 291L341 120H442Q492 120 519
146T546 215Q546 250 526 270T466 291H374Z" />
<glyph unicode="&#x463;" glyph-name="null" horiz-adv-x="583" d="M313 298H420Q483 298 523 264T564 164Q564 125 550 95T510 43T450 11T378 0H122L193 369H69L90 475H214L251 667H384L347 475H500L479 369H326L313 298ZM273 94H361Q391 94 410 111T429 158Q429
181 416 193T379 206H295L273 94Z" />
<glyph unicode="&#x472;" glyph-name="null" horiz-adv-x="743" d="M455 685Q518 685 572 665T665 607T727 514T749 387Q749 310 722 238T646 109T526 18T368 -17Q303 -17 249 3T155 62T93 155T71 280Q71 358 99 431T178 560T299 651T455 685ZM376 109Q416 109
451 123T513 161T561 217T593 285H212Q213 247 223 215T254 160T305 123T376 109ZM444 561Q405 561 372 548T311 513T264 462T231 398H606Q603 432 592 462T561 514T511 548T444 561Z" />
<glyph unicode="&#x473;" glyph-name="null" horiz-adv-x="546" d="M328 491Q372 491 410 476T477 433T521 364T537 273Q537 216 517 164T460 71T373 8T263 -16Q216 -16 177 -1T109 43T65 112T49 201Q49 259 71 312T132 404T220 467T328 491ZM315 382Q271 382
235 355T183 282H414Q411 327 385 354T315 382ZM268 93Q310 93 347 119T402 193H172Q174 146 199 120T268 93Z" />
<glyph unicode="&#x474;" glyph-name="null" horiz-adv-x="706" d="M115 667H272L335 176L504 515Q542 591 593 633T725 676Q753 676 786 670L761 542Q746 545 734 545Q697 545 672 523T626 463L376 0H222L115 667Z" />
<glyph unicode="&#x475;" glyph-name="null" horiz-adv-x="558" d="M77 475H226L270 167L381 374Q407 423 447 452T546 481Q559 481 572 480T600 476L576 358Q564 361 554 361Q532 361 517 348T485 309L303 0H177L77 475Z" />
<glyph unicode="&#x48a;" glyph-name="null" horiz-adv-x="700" d="M447 0L530 428L165 0H39L168 667H311L230 247L586 667H719L615 131H679L669 78Q650 -17 611 -84T506 -202L427 -120Q460 -91 485 -62T525 0H447ZM428 863Q427 861 427 848Q427 829 440 817T476
804Q505 804 519 820T542 863H641Q630 796 583 755T465 714Q437 714 413 722T370 745T342 782T331 832Q331 840 331 847T333 863H428Z" />
<glyph unicode="&#x48b;" glyph-name="null" horiz-adv-x="582" d="M346 0L402 286L146 0H28L121 475H252L198 199L445 475H570L500 119H558L549 71Q541 27 528 -7T497 -69T457 -121T406 -167L330 -88Q354 -67 373 -46T407 0H346ZM330 679V672Q330 652 342 640T379
628Q403 628 416 642T435 679H533Q522 616 480 581T370 545Q342 545 318 552T275 573T247 607T236 656Q236 662 236 667T238 679H330Z" />
<glyph unicode="&#x48c;" glyph-name="null" horiz-adv-x="578" d="M178 667H320L306 597H467L449 508H289L274 430H361Q458 430 513 378T569 235Q569 183 550 140T496 65T413 17T305 0H49L147 508H86L103 597H164L178 667ZM251 311L214 119H306Q362 119 392 149T422
226Q422 264 400 287T333 311H251Z" />
<glyph unicode="&#x48d;" glyph-name="null" horiz-adv-x="503" d="M269 495L259 443H412L397 364H244L232 303H338Q402 303 443 269T484 166Q484 127 469 96T429 44T369 12T295 0H38L109 364H51L67 443H125L135 495H269ZM191 95H277Q307 95 326 113T345 160Q345
183 333 195T295 208H213L191 95Z" />
<glyph unicode="&#x48e;" glyph-name="null" horiz-adv-x="554" d="M168 667H396Q440 667 476 653T537 613T576 551T590 470Q590 391 550 339T446 260L472 188L400 162L372 240Q358 238 344 237T316 236H226L180 0H39L168 667ZM333 347L305 426L377 452L406 370Q424
384 434 406T445 458Q445 502 423 524T358 546H285L247 347H333Z" />
<glyph unicode="&#x48f;" glyph-name="null" horiz-adv-x="554" d="M120 475H252L247 424Q301 491 380 491Q414 491 444 478T496 438T530 373T543 283Q543 187 502 121T398 20L421 -45L350 -70L327 -7Q292 -15 260 -15Q237 -15 215 -11T166 6L126 -200H-11L120
475ZM188 115Q225 96 260 96Q275 96 290 99L259 187L330 212L355 139Q379 165 392 200T406 274Q406 321 387 345T330 370Q287 370 255 337T212 244L188 115Z" />
<glyph unicode="&#x490;" glyph-name="null" horiz-adv-x="521" d="M168 667H472L498 798H627L575 533H287L184 0H39L168 667Z" />
<glyph unicode="&#x491;" glyph-name="null" horiz-adv-x="415" d="M476 571L434 356H236L166 0H28L121 475H335L354 571H476Z" />
<glyph unicode="&#x492;" glyph-name="null" horiz-adv-x="514" d="M396 330L377 235H228L183 0H38L84 235H23L41 330H102L167 667H594L568 533H286L247 330H396Z" />
<glyph unicode="&#x493;" glyph-name="null" horiz-adv-x="413" d="M432 356H246L222 234H327L312 153H206L176 0H38L68 153H10L26 234H84L131 475H455L432 356Z" />
<glyph unicode="&#x494;" glyph-name="null" horiz-adv-x="635" d="M168 667H613L588 536H288L259 387Q282 396 309 402T368 409Q419 409 462 391T536 339T585 256T603 146Q603 65 575 -1T501 -114T393 -186T266 -212Q240 -212 214 -208T162 -196L207 -69Q237
-77 266 -77Q306 -77 340 -61T398 -17T436 51T450 135Q450 175 439 203T410 249T369 275T320 283Q298 283 277 278T235 263L184 0H39L168 667Z" />
<glyph unicode="&#x495;" glyph-name="null" horiz-adv-x="515" d="M469 356H236L217 260Q251 274 290 274Q330 274 365 260T425 219T465 154T480 66Q480 6 460 -44T403 -130T319 -187T214 -208Q170 -208 128 -195L168 -81Q189 -87 209 -87Q239 -87 263 -76T305
-44T332 3T342 60Q342 88 334 107T312 139T281 156T246 162Q220 162 196 151L166 0H28L121 475H492L469 356Z" />
<glyph unicode="&#x496;" glyph-name="null" horiz-adv-x="904" d="M491 0H349L403 277H373Q344 277 322 256T277 196L155 0H-15L145 244Q177 293 205 315T262 348Q239 361 221 387T191 459L141 667H291L331 484Q339 447 355 428T401 409H428L478 667H620L570
409H588Q618 409 640 428T686 484L797 667H960L820 444Q796 406 769 383T713 348Q739 337 759 312T790 244L820 131H888L834 -154H705L734 0H692L648 196Q640 233 627 255T581 277H545L491 0Z" />
<glyph unicode="&#x497;" glyph-name="null" horiz-adv-x="775" d="M413 0H279L315 181H289Q265 181 251 168T216 123L132 0H-16L92 152Q118 189 140 210T193 242Q168 256 154 276T129 334L91 475H219L252 354Q260 326 271 311T309 296H337L372 475H506L471 296H498Q522
296 537 310T574 358L651 475H787L682 319Q659 285 639 266T594 239Q623 227 638 206T665 151L675 119H752L705 -124H583L607 0H573L535 129Q528 153 518 167T481 181H449L413 0Z" />
<glyph unicode="&#x498;" glyph-name="null" horiz-adv-x="537" d="M217 407H312Q330 407 349 412T383 426T407 451T417 488Q417 521 393 538T329 556Q282 556 244 535T177 485L101 575Q153 631 219 657T351 684Q398 684 437 671T503 635T546 581T561 511Q561
479 550 452T521 403T479 365T427 339Q469 323 495 287T522 195Q522 147 502 109T446 42T364 -1T262 -16Q179 -16 114 17T11 107L104 194Q129 162 168 137T262 112Q314 112 345 136T377 205Q377 243 354 260T300 278H191L217 407ZM123 105Q141 99 157 95T193 91Q252
91 252 121Q252 136 239 140T207 144Q172 144 136 132L164 200Q184 206 205 208T251 211Q291 211 319 190T348 132Q348 100 335 78T300 43T253 23T200 17Q136 17 96 34L123 105Z" />
<glyph unicode="&#x499;" glyph-name="null" horiz-adv-x="457" d="M413 293H506Q538 293 558 305T578 344Q578 387 517 387Q469 387 434 370T372 331L319 413Q358 447 413 469T535 491Q618 491 666 457T714 364Q714 321 688 289T621 238Q650 224 668 198T687
137Q687 99 669 71T621 23T550 -6T466 -16Q397 -16 341 6T252 61L317 145Q341 124 378 108T464 91Q501 91 527 103T553 145Q553 169 536 179T489 189H393L413 293ZM75 105Q92 99 108 95T143 91Q202 91 202 125Q202 140 188 144T157 149Q125 149 88 136L115 203Q154
215 200 215Q239 215 267 194T295 136Q295 104 282 81T248 44T201 24T150 17Q88 17 49 34L75 105Z" />
<glyph unicode="&#x49a;" glyph-name="null" horiz-adv-x="640" d="M184 0H39L168 667H313L263 411H289Q326 411 350 429T400 482L528 667H695L542 451Q510 406 482 384T416 347Q450 334 472 309T509 243L549 131H624L569 -154H440L469 0H431L365 196Q353 233
337 254T281 275H237L184 0Z" />
<glyph unicode="&#x49b;" glyph-name="null" horiz-adv-x="541" d="M160 0H24L117 475H253L218 296H251Q280 296 298 312T337 358L420 475H564L458 327Q433 292 409 273T355 243Q386 233 404 211T435 152L447 119H523L476 -124H354L378 0H342L297 129Q290 150
280 166T242 182H196L160 0Z" />
<glyph unicode="&#x49c;" glyph-name="null" horiz-adv-x="672" d="M184 0H39L168 667H313L263 411H314L335 518H414L395 418Q409 425 422 440T452 482L569 667H735L595 451Q565 405 537 383T472 347Q504 334 526 310T561 243L637 0H471L416 196Q407 230 397 249T366
273L345 166H266L288 275H237L184 0Z" />
<glyph unicode="&#x49d;" glyph-name="null" horiz-adv-x="574" d="M160 0H24L117 475H253L218 296H261L278 386H345L329 300Q343 305 354 318T384 358L467 475H612L506 327Q459 261 404 242Q433 231 450 210T480 156L537 0H388L343 129Q335 153 328 166T305 181L287
86H220L238 182H196L160 0Z" />
<glyph unicode="&#x49e;" glyph-name="null" horiz-adv-x="641" d="M184 0H39L137 509H76L94 603H155L168 667H313L300 603H377L359 509H282L262 403H298Q335 403 359 421T409 476L537 667H704L551 446Q535 423 521 406T491 376T460 355T425 339Q459 326 481 302T518
237L606 0H440L374 190Q362 226 346 246T290 267H236L184 0Z" />
<glyph unicode="&#x49f;" glyph-name="null" horiz-adv-x="540" d="M174 0H38L107 355H49L65 434H123L131 475H267L259 434H311L296 355H243L231 291H264Q293 291 311 308T351 355L434 475H578L471 324Q446 288 422 268T368 238Q399 228 417 206T449 149L505 0H356L311
125Q303 146 293 161T255 177H209L174 0Z" />
<glyph unicode="&#x4a0;" glyph-name="null" horiz-adv-x="733" d="M286 0H141L244 533H104L129 667H415L365 411H390Q427 411 451 429T501 482L629 667H796L643 451Q611 406 583 384T517 347Q551 334 573 309T610 243L698 0H532L466 196Q454 233 438 254T382
275H339L286 0Z" />
<glyph unicode="&#x4a1;" glyph-name="null" horiz-adv-x="612" d="M251 0H115L184 354H69L93 475H344L309 296H337Q366 296 384 312T423 358L506 475H650L544 327Q519 292 495 273T441 243Q472 233 490 211T521 152L577 0H428L383 129Q376 150 366 166T328 182H287L251
0Z" />
<glyph unicode="&#x4a2;" glyph-name="null" horiz-adv-x="702" d="M168 667H313L264 410H526L576 667H721L617 131H681L626 -154H497L526 0H447L500 275H237L184 0H39L168 667Z" />
<glyph unicode="&#x4a3;" glyph-name="null" horiz-adv-x="583" d="M571 475L501 118H559L512 -124H390L414 0H340L375 179H201L166 0H28L121 475H259L224 298H398L433 475H571Z" />
<glyph unicode="&#x4a4;" glyph-name="null" horiz-adv-x="777" d="M168 667H313L264 410H523L573 667H857L831 533H692L589 0H444L497 275H237L184 0H39L168 667Z" />
<glyph unicode="&#x4a5;" glyph-name="null" horiz-adv-x="638" d="M680 475L657 356H542L473 0H335L370 179H201L166 0H28L121 475H259L224 298H393L428 475H680Z" />
<glyph unicode="&#x4a6;" glyph-name="null" horiz-adv-x="1040" d="M168 667H714L663 406Q686 415 713 422T773 429Q824 429 867 411T941 357T990 271T1008 156Q1008 74 980 7T906 -109T799 -185T672 -212Q646 -212 620 -208T567 -196L612 -69Q642 -77 671 -77Q711
-77 745 -60T803 -13T841 58T855 146Q855 189 844 218T815 267T774 294T725 303Q703 303 681 298T639 283L585 0H440L543 533H287L184 0H39L168 667Z" />
<glyph unicode="&#x4a7;" glyph-name="null" horiz-adv-x="820" d="M557 475L518 279Q551 291 590 291Q631 291 666 277T727 235T768 167T783 76Q783 14 762 -38T705 -128T619 -187T513 -208Q492 -208 470 -205T426 -195L466 -81Q487 -87 508 -87Q538 -87 563
-75T606 -41T635 9T645 71Q645 101 637 122T614 155T583 174T547 180Q533 180 521 178T497 170L464 0H326L396 356H236L166 0H28L121 475H557Z" />
<glyph unicode="&#x4a8;" glyph-name="null" horiz-adv-x="754" d="M732 307Q732 269 721 234T691 169T647 114T592 69H607Q651 69 705 88L726 5Q701 -5 670 -10T606 -16Q547 -16 493 5Q464 -5 435 -10T373 -16Q311 -16 257 5T161 67T95 165T71 294Q71 375 102
445T185 568T308 651T456 682Q488 682 522 677T590 658L545 541Q501 556 458 556Q408 556 363 537T284 483T230 400T210 295Q210 251 222 214T256 151T311 109T382 92Q357 125 344 166T330 255Q330 309 347 353T393 428T463 477T548 494Q588 494 621 481T679 444T718
385T732 307ZM449 244Q449 207 459 174T492 116Q545 143 577 191T610 297Q610 339 592 362T542 385Q521 385 504 374T474 344T456 300T449 244Z" />
<glyph unicode="&#x4a9;" glyph-name="null" horiz-adv-x="563" d="M174 214Q174 158 202 122T284 80Q255 124 255 176Q255 206 266 234T296 284T343 319T405 332Q434 332 457 323T498 296T524 256T534 206Q534 163 513 125T455 57H469Q492 57 519 65L529 -7Q494
-16 461 -16Q413 -16 374 0Q328 -16 281 -16Q232 -16 190 0T116 47T66 119T47 215Q47 275 70 325T133 413T224 470T332 491Q381 491 426 475L390 372Q363 382 333 382Q301 382 273 370T222 337T187 284T174 214ZM347 172Q347 127 374 97Q404 114 423 141T442 200Q442
225 431 238T401 251Q375 251 361 228T347 172Z" />
<glyph unicode="&#x4aa;" glyph-name="null" horiz-adv-x="664" d="M648 117Q620 86 591 62T527 20T453 -7T365 -17Q300 -17 246 4T153 63T93 156T71 279Q71 361 99 434T177 563T298 652T452 685Q555 685 620 641T715 519L593 453Q567 503 534 525T444 548Q394
548 354 527T285 470T241 388T226 293Q226 259 236 229T265 175T312 139T378 125Q409 125 433 131T478 148T517 176T554 215L648 117ZM223 -151Q241 -157 257 -161T293 -165Q352 -165 352 -135Q352 -120 339 -116T307 -112Q272 -112 236 -124L264 -56Q284 -50 305
-48T351 -45Q391 -45 419 -66T448 -124Q448 -156 435 -178T400 -213T353 -233T300 -239Q236 -239 196 -222L223 -151Z" />
<glyph unicode="&#x4ab;" glyph-name="null" horiz-adv-x="486" d="M456 66Q419 31 371 8T259 -16Q212 -16 173 -2T107 40T64 108T49 198Q49 257 69 310T127 403T215 467T328 491Q398 491 441 459T508 367L398 310Q384 337 366 352T317 367Q290 367 267 355T227
322T200 273T190 213Q190 157 216 133T280 108Q310 108 335 122T382 156L456 66ZM119 105Q136 99 152 95T187 91Q246 91 246 125Q246 140 232 144T201 149Q169 149 132 136L159 203Q198 215 244 215Q283 215 311 194T339 136Q339 104 326 81T292 44T245 24T194
17Q132 17 93 34L119 105Z" />
<glyph unicode="&#x4ac;" glyph-name="null" horiz-adv-x="610" d="M313 536H104L130 667H690L664 536H457L380 135H444L389 -154H260L289 0H209L313 536Z" />
<glyph unicode="&#x4ad;" glyph-name="null" horiz-adv-x="484" d="M526 475L503 356H355L308 118H366L319 -124H197L221 0H147L217 356H69L92 475H526Z" />
<glyph unicode="&#x4ae;" glyph-name="null" horiz-adv-x="616" d="M263 277L115 667H273L360 413L545 667H711L410 279L356 0H210L263 277Z" />
<glyph unicode="&#x4af;" glyph-name="null" horiz-adv-x="529" d="M77 475H226L272 156L431 475H586L310 12L268 -200H131L173 19L77 475Z" />
<glyph unicode="&#x4b0;" glyph-name="null" horiz-adv-x="618" d="M249 195H115L133 287H265L117 667H275L362 413L547 667H713L413 287H547L529 195H395L358 0H212L249 195Z" />
<glyph unicode="&#x4b1;" glyph-name="null" horiz-adv-x="530" d="M167 81L77 475H226L272 156L431 475H586L344 81H443L427 0H307L268 -200H131L169 0H49L65 81H167Z" />
<glyph unicode="&#x4b2;" glyph-name="null" horiz-adv-x="641" d="M430 0L328 228L151 0H-17L264 351L115 667H282L371 463L526 667H693L433 345L535 136H626L570 -154H441L470 0H430Z" />
<glyph unicode="&#x4b3;" glyph-name="null" horiz-adv-x="520" d="M190 246L73 475H223L285 341L393 475H550L347 242L409 119H497L450 -124H328L352 0H319L250 145L134 0H-24L190 246Z" />
<glyph unicode="&#x4b4;" glyph-name="null" horiz-adv-x="838" d="M281 533H104L130 667H603L577 533H426L348 131H608L712 667H857L753 131H817L762 -154H633L663 0H178L281 533Z" />
<glyph unicode="&#x4b5;" glyph-name="null" horiz-adv-x="676" d="M445 475L422 356H328L281 119H456L526 475H664L594 119H652L604 -124H482L506 0H120L190 356H69L92 475H445Z" />
<glyph unicode="&#x4b6;" glyph-name="null" horiz-adv-x="641" d="M652 667L549 136H613L557 -154H428L457 0H378L428 258Q404 248 374 242T312 235Q268 235 232 249T171 288T133 349T119 429Q119 458 125 491L159 667H304L272 499Q267 474 267 455Q267 412 291
388T368 364Q416 364 452 383L507 667H652Z" />
<glyph unicode="&#x4b7;" glyph-name="null" horiz-adv-x="545" d="M533 475L463 119H521L474 -124H352L376 0H302L333 161Q290 144 247 144Q208 144 178 156T126 190T93 241T81 306Q81 318 82 330T86 354L110 475H248L225 355Q223 345 223 339T222 326Q222 297
239 278T294 258Q326 258 355 271L395 475H533Z" />
<glyph unicode="&#x4b8;" glyph-name="null" horiz-adv-x="631" d="M671 667L542 0H397L447 258Q431 252 413 247T374 239L355 139H276L294 236Q215 244 167 295T119 429Q119 458 125 491L159 667H304L273 505Q270 491 268 478T266 450Q266 423 277 401T319 367L342
483H421L397 360Q439 364 471 383L526 667H671Z" />
<glyph unicode="&#x4b9;" glyph-name="null" horiz-adv-x="540" d="M346 363L325 254Q354 258 380 272L420 475H555L462 0H327L358 162Q344 157 331 153T304 147L289 70H223L238 145Q166 151 124 193T81 307Q81 318 82 330T86 354L110 475H245L222 355Q220 346
219 338T218 322Q218 298 227 282T260 258L281 363H346Z" />
<glyph unicode="&#x4ba;" glyph-name="null" horiz-adv-x="623" d="M39 0L168 667H313L267 429Q293 439 324 445T388 452Q434 452 471 438T534 399T574 337T588 258Q588 229 582 196L544 0H399L435 188Q440 213 440 232Q440 275 416 299T334 323Q283 323 243 304L184
0H39Z" />
<glyph unicode="&#x4bb;" glyph-name="null" horiz-adv-x="542" d="M158 667H294L248 434Q280 465 315 478T393 491Q429 491 454 480T496 448T521 402T529 346Q529 335 528 323T524 299L466 0H327L380 274Q383 289 383 304Q383 332 369 350T324 369Q301 369 283
360T251 334T228 297T214 253L165 0H28L158 667Z" />
<glyph unicode="&#x4bc;" glyph-name="null" horiz-adv-x="863" d="M384 285Q389 204 429 157T544 109Q601 109 643 135T714 197L801 112Q759 57 693 21T534 -15Q461 -15 406 9T313 74T256 169T235 285Q201 285 173 295T123 323T91 368T79 427Q79 466 95 500T136
563L222 515Q209 499 200 481T191 443Q191 425 202 410T246 394Q260 452 290 504T365 597T468 660T597 684Q665 684 716 662T800 601T851 511T868 400Q868 343 853 285H384ZM584 562Q548 562 518 549T463 514T422 461T396 394H726Q727 399 727 405T727 416Q727
479 689 520T584 562Z" />
<glyph unicode="&#x4bd;" glyph-name="null" horiz-adv-x="652" d="M181 195Q153 195 129 204T88 229T60 267T50 316Q50 345 61 374T97 430L169 387Q159 375 151 361T143 330Q143 310 155 299T191 285Q202 331 225 369T281 434T355 476T442 491Q491 491 527 475T587
430T622 364T634 287Q634 243 622 195H317Q322 147 346 121T421 95Q456 95 486 107T544 138L599 47Q557 18 509 1T403 -16Q359 -16 319 -5T249 32T201 98T181 195ZM506 285Q507 290 507 293T507 301Q507 341 486 361T431 381Q392 381 364 356T323 285H506Z" />
<glyph unicode="&#x4be;" glyph-name="null" horiz-adv-x="863" d="M384 285Q389 203 429 155T544 106Q601 106 643 133T714 197L801 112Q763 61 704 27T565 -13L539 -154H409L438 -2Q388 12 351 40T289 105T250 189T235 285Q201 285 173 295T123 323T91 368T79
427Q79 466 95 500T136 563L222 515Q209 499 200 481T191 443Q191 425 202 410T246 394Q260 452 290 504T365 597T468 660T597 684Q665 684 716 662T800 601T851 511T868 400Q868 343 853 285H384ZM584 562Q548 562 518 549T463 514T422 461T396 394H726Q727 399
727 405T727 416Q727 479 689 520T584 562Z" />
<glyph unicode="&#x4bf;" glyph-name="null" horiz-adv-x="646" d="M311 195Q316 145 340 119T415 92Q450 92 480 105T538 138L593 47Q558 22 518 7T430 -14L409 -124H287L310 -3Q252 15 215 62T175 195Q147 195 123 204T82 229T54 267T44 316Q44 345 55 374T91
430L163 387Q153 375 145 361T137 330Q137 310 149 299T185 285Q196 331 219 369T275 434T349 476T436 491Q485 491 521 475T581 430T616 364T628 287Q628 243 616 195H311ZM425 381Q386 381 358 356T317 285H500Q501 290 501 293T501 301Q501 341 480 361T425
381Z" />
<glyph unicode="&#x4c0;" glyph-name="null" horiz-adv-x="273" d="M169 667H314L184 0H39L169 667Z" />
<glyph unicode="&#x4c1;" glyph-name="null" horiz-adv-x="901" d="M496 0H354L408 277H373Q344 277 322 256T277 196L155 0H-15L145 244Q177 293 205 315T262 348Q239 361 221 387T191 459L141 667H291L331 484Q339 447 355 428T401 409H433L483 667H625L575
409H598Q628 409 650 428T696 484L807 667H970L830 444Q806 406 779 383T723 348Q749 337 769 312T800 244L866 0H702L658 196Q650 233 637 255T591 277H550L496 0ZM525 863Q524 860 524 848Q524 829 537 817T573 804Q602 804 616 820T639 863H738Q727 796 680
755T562 714Q534 714 510 722T467 745T439 782T428 832Q428 840 428 847T430 863H525Z" />
<glyph unicode="&#x4c2;" glyph-name="null" horiz-adv-x="759" d="M418 0H284L320 181H289Q265 181 251 168T216 123L132 0H-16L92 152Q118 189 140 210T193 242Q168 256 154 276T129 334L91 475H219L252 354Q260 326 271 311T309 296H342L377 475H511L476 296H508Q532
296 547 310T584 358L661 475H797L692 319Q669 285 649 266T604 239Q633 227 648 206T675 151L724 0H583L545 129Q538 153 528 167T491 181H454L418 0ZM423 679V671Q423 648 435 635T471 621Q497 621 510 637T528 679H626Q616 616 573 577T462 538Q434 538 410
545T367 567T339 603T329 653Q329 661 329 667T331 679H423Z" />
<glyph unicode="&#x4c3;" glyph-name="null" horiz-adv-x="632" d="M237 275L184 0H39L168 667H313L263 411H297Q334 411 360 429T416 492L537 667H704L557 460Q532 425 508 405T451 371Q518 349 559 289T601 136Q601 61 575 -2T505 -112T401 -185T274 -212Q223
-212 169 -195L213 -71Q243 -80 272 -80Q310 -80 342 -65T399 -22T436 44T450 128Q450 167 440 195T411 241T370 267T320 275H237Z" />
<glyph unicode="&#x4c4;" glyph-name="null" horiz-adv-x="536" d="M162 0H26L119 475H255L220 296H253Q282 296 300 312T339 358L422 475H566L460 327Q442 301 422 287T376 263Q431 246 466 197T501 69Q501 9 481 -41T424 -129T341 -187T239 -208Q195 -208 152
-193L192 -81Q213 -87 233 -87Q262 -87 286 -75T328 -41T356 10T366 72Q366 102 358 123T335 157T301 176T259 182H198L162 0Z" />
<glyph unicode="&#x4c5;" glyph-name="null" horiz-adv-x="718" d="M737 667L633 131H697L687 78Q668 -17 629 -84T524 -202L445 -120Q478 -91 503 -62T543 0H463L566 533H419Q393 420 363 322T292 151T194 35T57 -7Q30 -7 0 -1L25 130Q30 129 34 129T43 129Q89
129 124 159T190 255T249 422T310 667H737Z" />
<glyph unicode="&#x4c6;" glyph-name="null" horiz-adv-x="600" d="M588 475L518 119H576L567 71Q559 27 546 -7T515 -69T475 -121T424 -167L348 -88Q372 -67 391 -46T425 0H357L427 356H326Q305 268 281 201T225 89T150 20T49 -3Q38 -3 26 -2T0 1L23 120Q28 119
31 119T37 119Q70 119 95 137T143 198T184 308T225 475H588Z" />
<glyph unicode="&#x4c7;" glyph-name="null" horiz-adv-x="691" d="M731 667L597 -25Q590 -60 577 -92T541 -148T485 -186T405 -200Q361 -200 323 -188T260 -159L319 -58Q332 -66 349 -72T387 -79Q414 -79 431 -62T457 -1L510 275H237L184 0H39L168 667H313L264
410H536L586 667H731Z" />
<glyph unicode="&#x4c8;" glyph-name="null" horiz-adv-x="556" d="M571 475L473 -25Q466 -60 453 -92T418 -148T363 -186T285 -200Q242 -200 204 -188T143 -159L202 -58Q215 -66 232 -72T270 -79Q297 -79 314 -62T340 -1L375 179H201L166 0H28L121 475H259L224
298H398L433 475H571Z" />
<glyph unicode="&#x4c9;" glyph-name="null" horiz-adv-x="702" d="M168 667H313L264 410H526L576 667H721L617 131H681L671 78Q652 -17 613 -84T508 -202L429 -120Q462 -91 487 -62T527 0H447L500 275H237L184 0H39L168 667Z" />
<glyph unicode="&#x4ca;" glyph-name="null" horiz-adv-x="583" d="M340 0L375 179H201L166 0H28L121 475H259L224 298H398L433 475H571L501 119H559L550 71Q542 27 529 -7T498 -69T458 -121T407 -167L331 -88Q355 -67 374 -46T408 0H340Z" />
<glyph unicode="&#x4cb;" glyph-name="null" horiz-adv-x="619" d="M344 121H408L435 258Q410 248 379 242T316 235Q271 235 235 249T173 288T133 349T119 429Q119 458 125 491L159 667H304L272 499Q267 474 267 455Q267 412 291 388T371 364Q421 364 459 383L514
667H659L530 0H450L420 -154H291L344 121Z" />
<glyph unicode="&#x4cc;" glyph-name="null" horiz-adv-x="522" d="M537 475L444 0H369L345 -124H223L263 77H321L338 168Q293 151 250 151Q211 151 180 163T126 197T93 248T81 313Q81 325 82 337T86 361L109 475H247L225 362Q223 352 223 346T222 333Q222 304
239 285T296 265Q314 265 330 268T360 278L399 475H537Z" />
<glyph unicode="&#x4cd;" glyph-name="null" horiz-adv-x="791" d="M182 667H323L413 351L641 667H787L706 131H770L760 78Q741 -17 702 -84T597 -202L518 -120Q551 -91 576 -62T616 0H537L603 424L422 176H345L263 426L165 0H23L182 667Z" />
<glyph unicode="&#x4ce;" glyph-name="null" horiz-adv-x="648" d="M269 109L214 284L146 0H21L138 475H257L327 247L491 475H622L566 119H624L615 71Q607 27 594 -7T563 -69T523 -121T472 -167L396 -88Q420 -67 439 -46T473 0H416L461 284L336 109H269Z" />
<glyph unicode="&#x4cf;" glyph-name="null" horiz-adv-x="244" d="M157 667H295L166 0H28L157 667Z" />
<glyph unicode="&#x4d0;" glyph-name="null" horiz-adv-x="649" d="M350 667H512L616 0H464L445 153H217L139 0H-18L350 667ZM433 270L403 526L273 270H433ZM404 863Q403 860 403 848Q403 829 416 817T452 804Q481 804 495 820T518 863H617Q606 796 559 755T441
714Q413 714 389 722T346 745T318 782T307 832Q307 840 307 847T309 863H404Z" />
<glyph unicode="&#x4d1;" glyph-name="null" horiz-adv-x="505" d="M337 206Q327 208 312 210T279 212Q222 212 196 192T170 139Q170 113 185 100T226 87Q242 87 259 92T290 107T315 133T330 170L337 206ZM301 0L306 44Q277 12 243 -2T173 -16Q113 -16 75 20T36
122Q36 203 98 252T273 301Q292 301 310 300T354 295L357 311Q358 315 358 318T358 325Q358 356 334 369T270 382Q230 382 201 371T145 344L96 430Q129 453 182 472T300 491Q392 491 439 448T487 327Q487 313 486 299T481 266L429 0H301ZM298 681V673Q298 650 310
637T346 623Q372 623 385 639T403 681H501Q491 618 448 579T337 540Q309 540 285 547T242 569T214 605T204 655Q204 663 204 669T206 681H298Z" />
<glyph unicode="&#x4d2;" glyph-name="null" horiz-adv-x="649" d="M350 667H512L616 0H464L445 153H217L139 0H-18L350 667ZM433 270L403 526L273 270H433ZM503 855H627L605 736H480L503 855ZM295 855H419L396 736H272L295 855Z" />
<glyph unicode="&#x4d3;" glyph-name="null" horiz-adv-x="505" d="M337 206Q327 208 312 210T279 212Q222 212 196 192T170 139Q170 113 185 100T226 87Q242 87 259 92T290 107T315 133T330 170L337 206ZM301 0L306 44Q277 12 243 -2T173 -16Q113 -16 75 20T36
122Q36 203 98 252T273 301Q292 301 310 300T354 295L357 311Q358 315 358 318T358 325Q358 356 334 369T270 382Q230 382 201 371T145 344L96 430Q129 453 182 472T300 491Q392 491 439 448T487 327Q487 313 486 299T481 266L429 0H301ZM382 672H500L478 561H360L382
672ZM196 672H315L293 561H174L196 672Z" />
<glyph unicode="&#x4d4;" glyph-name="null" horiz-adv-x="937" d="M462 156H253L138 0H-23L474 667H982L956 537H675L650 404H866L841 278H625L596 131H899L874 0H432L462 156ZM535 535H522L329 270H484L535 535Z" />
<glyph unicode="&#x4d5;" glyph-name="null" horiz-adv-x="819" d="M357 310Q358 315 358 318T359 327Q359 358 334 370T271 382Q229 382 200 371T145 344L96 430Q129 453 181 472T298 491Q359 491 392 474T446 430Q478 456 514 473T605 491Q657 491 694 474T755
429T790 363T801 286Q801 243 789 195H478Q483 147 509 121T585 95Q621 95 652 107T711 138L766 47Q724 18 675 1T574 -16Q518 -16 467 5T386 68Q351 30 306 8T197 -14Q117 -14 77 21T36 122Q36 204 97 254T269 304Q292 304 313 302T354 298L357 310ZM279 215Q222
215 196 194T170 141Q170 115 185 102T226 89Q241 89 257 93T288 108T314 134T330 173L337 208Q327 211 312 213T279 215ZM672 285Q674 290 674 298Q674 336 655 358T597 381Q556 381 527 356T485 285H672Z" />
<glyph unicode="&#x4d6;" glyph-name="null" horiz-adv-x="551" d="M168 667H606L580 537H287L262 404H490L465 278H237L208 131H523L498 0H39L168 667ZM360 863Q359 860 359 848Q359 829 372 817T408 804Q437 804 451 820T474 863H573Q562 796 515 755T397 714Q369
714 345 722T302 745T274 782T263 832Q263 840 263 847T265 863H360Z" />
<glyph unicode="&#x4d7;" glyph-name="null" horiz-adv-x="525" d="M291 95Q327 95 358 107T417 138L472 47Q430 18 381 1T274 -16Q228 -16 187 -4T116 34T67 102T49 203Q49 265 69 317T124 408T208 469T313 491Q363 491 399 475T460 430T495 364T507 287Q507
243 495 195H185Q190 147 215 121T291 95ZM379 285Q380 290 380 293T380 301Q380 341 358 361T302 381Q262 381 233 356T191 285H379ZM290 679V671Q290 648 302 635T338 621Q364 621 377 637T395 679H493Q483 616 440 577T329 538Q301 538 277 545T234 567T206
603T196 653Q196 661 196 667T198 679H290Z" />
<glyph unicode="&#x4d8;" glyph-name="null" horiz-adv-x="713" d="M77 273Q77 329 92 391H569Q566 428 555 459T524 512T476 547T412 560Q355 560 313 533T241 471L153 556Q198 611 266 647T422 684Q488 684 543 662T637 598T697 500T719 372Q719 296 694 226T621
102T506 16T356 -16Q287 -16 235 6T148 68T95 159T77 273ZM363 107Q400 107 432 120T489 156T533 211T560 282H218Q217 275 217 268T216 252Q216 220 226 194T255 148T301 118T363 107Z" />
<glyph unicode="&#x4d9;" glyph-name="null" horiz-adv-x="518" d="M50 190Q50 213 53 236T62 283H371Q361 378 274 378Q242 378 212 367T156 336L103 429Q143 458 190 474T289 491Q335 491 375 477T445 435T492 364T509 264Q509 204 490 153T436 64T353 5T248
-16Q195 -16 158 1T96 47T61 113T50 190ZM255 93Q299 93 327 120T366 194H177Q176 189 176 185T176 178Q176 136 196 115T255 93Z" />
<glyph unicode="&#x4da;" glyph-name="null" horiz-adv-x="713" d="M77 273Q77 329 92 391H569Q566 428 555 459T524 512T476 547T412 560Q355 560 313 533T241 471L153 556Q198 611 266 647T422 684Q488 684 543 662T637 598T697 500T719 372Q719 296 694 226T621
102T506 16T356 -16Q287 -16 235 6T148 68T95 159T77 273ZM363 107Q400 107 432 120T489 156T533 211T560 282H218Q217 275 217 268T216 252Q216 220 226 194T255 148T301 118T363 107ZM524 855H648L626 736H501L524 855ZM316 855H440L417 736H293L316 855Z" />
<glyph unicode="&#x4db;" glyph-name="null" horiz-adv-x="518" d="M50 190Q50 213 53 236T62 283H371Q361 378 274 378Q242 378 212 367T156 336L103 429Q143 458 190 474T289 491Q335 491 375 477T445 435T492 364T509 264Q509 204 490 153T436 64T353 5T248
-16Q195 -16 158 1T96 47T61 113T50 190ZM255 93Q299 93 327 120T366 194H177Q176 189 176 185T176 178Q176 136 196 115T255 93ZM377 671H495L473 560H355L377 671ZM191 671H310L288 560H169L191 671Z" />
<glyph unicode="&#x4dc;" glyph-name="null" horiz-adv-x="901" d="M496 0H354L408 277H373Q344 277 322 256T277 196L155 0H-15L145 244Q177 293 205 315T262 348Q239 361 221 387T191 459L141 667H291L331 484Q339 447 355 428T401 409H433L483 667H625L575
409H598Q628 409 650 428T696 484L807 667H970L830 444Q806 406 779 383T723 348Q749 337 769 312T800 244L866 0H702L658 196Q650 233 637 255T591 277H550L496 0ZM631 855H755L733 736H608L631 855ZM423 855H547L524 736H400L423 855Z" />
<glyph unicode="&#x4dd;" glyph-name="null" horiz-adv-x="759" d="M418 0H284L320 181H289Q265 181 251 168T216 123L132 0H-16L92 152Q118 189 140 210T193 242Q168 256 154 276T129 334L91 475H219L252 354Q260 326 271 311T309 296H342L377 475H511L476 296H508Q532
296 547 310T584 358L661 475H797L692 319Q669 285 649 266T604 239Q633 227 648 206T675 151L724 0H583L545 129Q538 153 528 167T491 181H454L418 0ZM513 671H631L609 560H491L513 671ZM327 671H446L424 560H305L327 671Z" />
<glyph unicode="&#x4de;" glyph-name="null" horiz-adv-x="537" d="M217 407H312Q330 407 349 412T383 426T407 451T417 488Q417 521 393 538T329 556Q282 556 244 535T177 485L101 575Q153 631 219 657T351 684Q398 684 437 671T503 635T546 581T561 511Q561
479 550 452T521 403T479 365T427 339Q469 323 495 287T522 195Q522 147 502 109T446 42T364 -1T262 -16Q179 -16 114 17T11 107L104 194Q129 162 168 137T262 112Q314 112 345 136T377 205Q377 243 354 260T300 278H191L217 407ZM431 855H555L533 736H408L431
855ZM223 855H347L324 736H200L223 855Z" />
<glyph unicode="&#x4df;" glyph-name="null" horiz-adv-x="462" d="M161 293H254Q286 293 306 305T326 344Q326 387 265 387Q217 387 182 370T120 331L67 413Q106 447 161 469T283 491Q366 491 414 457T462 364Q462 321 436 289T369 238Q398 224 416 198T435 137Q435
99 417 71T369 23T298 -6T214 -16Q145 -16 89 6T0 61L65 145Q89 124 126 108T212 91Q249 91 275 103T301 145Q301 169 284 179T237 189H141L161 293ZM350 671H468L446 560H328L350 671ZM164 671H283L261 560H142L164 671Z" />
<glyph unicode="&#x4e0;" glyph-name="null" horiz-adv-x="522" d="M197 365L387 542H114L138 667H571L549 550L368 379Q437 365 473 316T509 203Q509 149 488 109T432 40T352 -2T256 -16Q174 -16 112 17T11 106L105 194Q116 180 131 166T164 139T205 120T254
112Q303 112 333 136T363 204Q363 239 341 261T272 283Q261 283 251 282T228 279L197 365Z" />
<glyph unicode="&#x4e1;" glyph-name="null" horiz-adv-x="465" d="M137 179L323 363H75L96 475H489L468 371L289 192Q316 185 340 170T382 133T412 80T423 11Q423 -37 405 -78T353 -148T276 -195T179 -212Q110 -212 54 -183T-35 -97L58 -24Q78 -54 109 -75T186
-96Q234 -96 264 -66T294 14Q294 60 264 83T193 106Q186 106 180 106T166 104L137 179Z" />
<glyph unicode="&#x4e2;" glyph-name="null" horiz-adv-x="679" d="M590 0H447L530 428L165 0H39L168 667H311L230 247L586 667H719L590 0ZM328 846H633L613 743H308L328 846Z" />
<glyph unicode="&#x4e3;" glyph-name="null" horiz-adv-x="555" d="M346 0L402 286L146 0H28L121 475H252L198 199L445 475H570L477 0H346ZM255 658H520L500 558H235L255 658Z" />
<glyph unicode="&#x4e4;" glyph-name="null" horiz-adv-x="679" d="M590 0H447L530 428L165 0H39L168 667H311L230 247L586 667H719L590 0ZM523 855H647L625 736H500L523 855ZM315 855H439L416 736H292L315 855Z" />
<glyph unicode="&#x4e5;" glyph-name="null" horiz-adv-x="555" d="M346 0L402 286L146 0H28L121 475H252L198 199L445 475H570L477 0H346ZM417 671H535L513 560H395L417 671ZM231 671H350L328 560H209L231 671Z" />
<glyph unicode="&#x4e6;" glyph-name="null" horiz-adv-x="743" d="M225 293Q225 258 234 227T263 173T311 137T378 124Q427 124 467 145T535 202T579 283T594 375Q594 410 585 441T557 495T510 532T442 546Q392 546 352 524T283 467T240 386T225 293ZM455 685Q518
685 572 665T665 607T727 516T749 396Q749 314 722 239T646 107T525 17T366 -17Q302 -17 248 4T155 63T93 154T71 272Q71 354 99 429T178 561T299 651T455 685ZM542 855H666L644 736H519L542 855ZM334 855H458L435 736H311L334 855Z" />
<glyph unicode="&#x4e7;" glyph-name="null" horiz-adv-x="546" d="M328 491Q372 491 410 476T477 433T521 364T537 273Q537 216 517 164T460 71T373 8T263 -16Q216 -16 177 -1T109 43T65 112T49 201Q49 259 71 312T132 404T220 467T328 491ZM313 369Q287 369
264 358T223 326T195 277T184 214Q184 165 206 136T271 106Q296 106 319 117T361 148T390 197T401 261Q401 309 379 339T313 369ZM403 671H521L499 560H381L403 671ZM217 671H336L314 560H195L217 671Z" />
<glyph unicode="&#x4e8;" glyph-name="null" horiz-adv-x="743" d="M455 685Q518 685 572 665T665 607T727 514T749 387Q749 310 722 238T646 109T526 18T368 -17Q303 -17 249 3T155 62T93 155T71 280Q71 358 99 431T178 560T299 651T455 685ZM376 109Q416 109
451 123T513 161T561 217T593 285H212Q213 247 223 215T254 160T305 123T376 109ZM444 561Q405 561 372 548T311 513T264 462T231 398H606Q603 432 592 462T561 514T511 548T444 561Z" />
<glyph unicode="&#x4e9;" glyph-name="null" horiz-adv-x="546" d="M328 491Q372 491 410 476T477 433T521 364T537 273Q537 216 517 164T460 71T373 8T263 -16Q216 -16 177 -1T109 43T65 112T49 201Q49 259 71 312T132 404T220 467T328 491ZM315 382Q271 382
235 355T183 282H414Q411 327 385 354T315 382ZM268 93Q310 93 347 119T402 193H172Q174 146 199 120T268 93Z" />
<glyph unicode="&#x4ea;" glyph-name="null" horiz-adv-x="743" d="M455 685Q518 685 572 665T665 607T727 514T749 387Q749 310 722 238T646 109T526 18T368 -17Q303 -17 249 3T155 62T93 155T71 280Q71 358 99 431T178 560T299 651T455 685ZM376 109Q416 109
451 123T513 161T561 217T593 285H212Q213 247 223 215T254 160T305 123T376 109ZM444 561Q405 561 372 548T311 513T264 462T231 398H606Q603 432 592 462T561 514T511 548T444 561ZM538 855H662L640 736H515L538 855ZM330 855H454L431 736H307L330 855Z" />
<glyph unicode="&#x4eb;" glyph-name="null" horiz-adv-x="546" d="M328 491Q372 491 410 476T477 433T521 364T537 273Q537 216 517 164T460 71T373 8T263 -16Q216 -16 177 -1T109 43T65 112T49 201Q49 259 71 312T132 404T220 467T328 491ZM315 382Q271 382
235 355T183 282H414Q411 327 385 354T315 382ZM268 93Q310 93 347 119T402 193H172Q174 146 199 120T268 93ZM403 671H521L499 560H381L403 671ZM217 671H336L314 560H195L217 671Z" />
<glyph unicode="&#x4ec;" glyph-name="null" horiz-adv-x="659" d="M298 115Q375 115 427 160T503 275H229L254 403H516Q513 436 502 463T471 511T424 542T363 554Q306 554 262 527T181 457L91 550Q140 608 210 646T372 685Q435 685 489 665T582 607T643 513T665
385Q665 304 637 232T559 104T439 17T286 -16Q189 -16 120 29T22 153L140 219Q163 170 202 143T298 115ZM468 855H592L570 736H445L468 855ZM260 855H384L361 736H237L260 855Z" />
<glyph unicode="&#x4ed;" glyph-name="null" horiz-adv-x="474" d="M69 419Q103 451 150 471T255 491Q302 491 340 476T407 434T450 366T465 275Q465 216 445 164T388 71T302 8T193 -16Q155 -16 125 -7T72 16T32 46T7 78L87 149Q104 125 131 109T195 93Q243 93
275 119T323 187H155L176 290H337Q332 338 307 361T240 385Q205 385 178 371T128 336L69 419ZM348 671H466L444 560H326L348 671ZM162 671H281L259 560H140L162 671Z" />
<glyph unicode="&#x4ee;" glyph-name="null" horiz-adv-x="620" d="M266 667L348 323L558 667H715L371 136Q343 92 317 63T263 17T208 -8T150 -16Q105 -16 73 -3T17 30L83 137Q97 126 115 118T158 109Q177 109 200 120T254 173L115 667H266ZM295 846H600L580 743H275L295
846Z" />
<glyph unicode="&#x4ef;" glyph-name="null" horiz-adv-x="538" d="M30 -76Q61 -98 89 -98Q115 -98 133 -78T174 -20L190 8L76 475H229L283 166L439 475H594L281 -68Q239 -140 193 -176T89 -212Q57 -212 27 -202T-28 -173L30 -76ZM230 658H495L475 558H210L230 658Z" />
<glyph unicode="&#x4f0;" glyph-name="null" horiz-adv-x="620" d="M266 667L348 323L558 667H715L371 136Q343 92 317 63T263 17T208 -8T150 -16Q105 -16 73 -3T17 30L83 137Q97 126 115 118T158 109Q177 109 200 120T254 173L115 667H266ZM487 855H611L589 736H464L487
855ZM279 855H403L380 736H256L279 855Z" />
<glyph unicode="&#x4f1;" glyph-name="null" horiz-adv-x="538" d="M30 -76Q61 -98 89 -98Q115 -98 133 -78T174 -20L190 8L76 475H229L283 166L439 475H594L281 -68Q239 -140 193 -176T89 -212Q57 -212 27 -202T-28 -173L30 -76ZM401 671H519L497 560H379L401
671ZM215 671H334L312 560H193L215 671Z" />
<glyph unicode="&#x4f2;" glyph-name="null" horiz-adv-x="620" d="M266 667L348 323L558 667H715L371 136Q343 92 317 63T263 17T208 -8T150 -16Q105 -16 73 -3T17 30L83 137Q97 126 115 118T158 109Q177 109 200 120T254 173L115 667H266ZM359 873H501L366 717H265L359
873ZM547 873H689L554 717H454L547 873Z" />
<glyph unicode="&#x4f3;" glyph-name="null" horiz-adv-x="538" d="M30 -76Q61 -98 89 -98Q115 -98 133 -78T174 -20L190 8L76 475H229L283 166L439 475H594L281 -68Q239 -140 193 -176T89 -212Q57 -212 27 -202T-28 -173L30 -76ZM272 687H396L296 545H203L272
687ZM438 687H562L462 545H369L438 687Z" />
<glyph unicode="&#x4f4;" glyph-name="null" horiz-adv-x="619" d="M659 667L530 0H385L435 258Q410 248 379 242T316 235Q271 235 235 249T173 288T133 349T119 429Q119 458 125 491L159 667H304L272 499Q267 474 267 455Q267 412 291 388T371 364Q421 364 459
383L514 667H659ZM486 855H610L588 736H463L486 855ZM278 855H402L379 736H255L278 855Z" />
<glyph unicode="&#x4f5;" glyph-name="null" horiz-adv-x="523" d="M538 475L445 0H307L338 161Q293 144 250 144Q211 144 180 156T126 190T93 241T81 306Q81 318 82 330T86 354L110 475H248L225 355Q223 345 223 339T222 326Q222 297 239 278T296 258Q314 258
330 261T360 271L400 475H538ZM397 671H515L493 560H375L397 671ZM211 671H330L308 560H189L211 671Z" />
<glyph unicode="&#x4f6;" glyph-name="null" horiz-adv-x="496" d="M149 667H576L550 533H268L190 131H254L200 -154H71L100 0H20L149 667Z" />
<glyph unicode="&#x4f7;" glyph-name="null" horiz-adv-x="392" d="M235 119L188 -124H65L89 0H17L110 475H434L410 356H224L177 119H235Z" />
<glyph unicode="&#x4f8;" glyph-name="null" horiz-adv-x="816" d="M168 667H310L267 444H330Q430 444 487 390T545 243Q545 189 526 145T470 68T384 18T272 0H39L168 667ZM244 324L204 121H275Q334 121 366 153T398 234Q398 275 375 299T304 324H244ZM711 667H856L727
0H582L711 667ZM591 855H715L693 736H568L591 855ZM383 855H507L484 736H360L383 855Z" />
<glyph unicode="&#x4f9;" glyph-name="null" horiz-adv-x="715" d="M592 475H730L637 0H499L592 475ZM181 103H251Q286 103 307 123T329 177Q329 203 315 217T272 232H206L181 103ZM254 475L227 335H302Q337 335 367 326T418 297T452 250T464 184Q464 140 448
106T403 49T336 13T255 0H28L121 475H254ZM496 671H614L592 560H474L496 671ZM310 671H429L407 560H288L310 671Z" />
<glyph unicode="&#x1e80;" glyph-name="null" horiz-adv-x="883" d="M114 667H266L269 185L467 650H609L632 186L812 667H970L678 0H523L496 442L300 0H147L114 667ZM415 873H568L611 717H501L415 873Z" />
<glyph unicode="&#x1e81;" glyph-name="null" horiz-adv-x="737" d="M57 469H196L217 163L362 469H474L503 163L639 469H785L538 0H416L381 264L243 0H123L57 469ZM317 682H454L477 540H377L317 682Z" />
<glyph unicode="&#x1e82;" glyph-name="null" horiz-adv-x="883" d="M114 667H266L269 185L467 650H609L632 186L812 667H970L678 0H523L496 442L300 0H147L114 667ZM567 873H722L583 717H473L567 873Z" />
<glyph unicode="&#x1e83;" glyph-name="null" horiz-adv-x="737" d="M57 469H196L217 163L362 469H474L503 163L639 469H785L538 0H416L381 264L243 0H123L57 469ZM431 682H568L462 540H360L431 682Z" />
<glyph unicode="&#x1e84;" glyph-name="null" horiz-adv-x="883" d="M114 667H266L269 185L467 650H609L632 186L812 667H970L678 0H523L496 442L300 0H147L114 667ZM609 855H733L711 736H586L609 855ZM401 855H525L502 736H378L401 855Z" />
<glyph unicode="&#x1e85;" glyph-name="null" horiz-adv-x="737" d="M57 469H196L217 163L362 469H474L503 163L639 469H785L538 0H416L381 264L243 0H123L57 469ZM480 666H598L576 555H458L480 666ZM294 666H413L391 555H272L294 666Z" />
<glyph unicode="&#x1ef2;" glyph-name="null" horiz-adv-x="599" d="M247 277L99 667H257L344 413L529 667H695L394 279L340 0H194L247 277ZM259 873H412L455 717H345L259 873Z" />
<glyph unicode="&#x1ef3;" glyph-name="null" horiz-adv-x="527" d="M7 -76Q38 -98 66 -98Q92 -98 110 -78T151 -20L167 8L52 469H205L260 166L415 469H570L290 -12Q265 -54 242 -90T193 -154T138 -196T73 -212Q38 -212 9 -206T-51 -173L7 -76ZM465 682H602L625
540H525L465 682Z" />
<glyph unicode="&#x2013;" glyph-name="null" horiz-adv-x="500" d="M40 347H540L514 212H14L40 347Z" />
<glyph unicode="&#x2014;" glyph-name="null" horiz-adv-x="1000" d="M40 347H1040L1014 212H14L40 347Z" />
<glyph unicode="&#x2015;" glyph-name="null" horiz-adv-x="1000" d="M40 347H1040L1014 212H14L40 347Z" />
<glyph unicode="&#x2018;" glyph-name="null" horiz-adv-x="270" d="M222 666H324L260 437H110L222 666Z" />
<glyph unicode="&#x2019;" glyph-name="null" horiz-adv-x="270" d="M216 437H114L178 666H328L216 437Z" />
<glyph unicode="&#x201a;" glyph-name="null" horiz-adv-x="282" d="M122 -76H20L84 153H234L122 -76Z" />
<glyph unicode="&#x201c;" glyph-name="null" horiz-adv-x="472" d="M222 666H324L260 437H110L222 666ZM424 666H526L462 437H312L424 666Z" />
<glyph unicode="&#x201d;" glyph-name="null" horiz-adv-x="472" d="M216 437H114L178 666H328L216 437ZM418 437H316L380 666H530L418 437Z" />
<glyph unicode="&#x201e;" glyph-name="null" horiz-adv-x="485" d="M122 -76H20L84 153H234L122 -76ZM325 -76H223L287 153H437L325 -76Z" />
<glyph unicode="&#x2020;" glyph-name="null" horiz-adv-x="525" d="M238 363H100L123 482H261L297 667H431L395 482H534L511 363H372L278 -121H144L238 363Z" />
<glyph unicode="&#x2021;" glyph-name="null" horiz-adv-x="524" d="M180 63H41L64 182H203L238 363H99L122 482H261L297 667H430L394 482H533L510 363H371L336 182H475L452 63H313L277 -121H144L180 63Z" />
<glyph unicode="&#x2022;" glyph-name="null" horiz-adv-x="414" d="M103 337Q103 367 114 392T144 437T188 467T244 478Q273 478 299 467T344 437T374 393T385 337Q385 307 374 282T344 237T299 206T244 195Q214 195 189 206T144 236T114 281T103 337Z" />
<glyph unicode="&#x2026;" glyph-name="null" horiz-adv-x="823" d="M64 157H220L190 0H34L64 157ZM340 157H496L466 0H310L340 157ZM615 157H771L741 0H585L615 157Z" />
<glyph unicode="&#x2030;" glyph-name="null" horiz-adv-x="1240" d="M652 630H776L292 0H167L652 630ZM419 510Q419 460 404 419T362 347T303 301T232 284Q199 284 174 294T133 323T108 367T99 420Q99 470 114 511T156 583T216 629T287 646Q353 646 386 607T419
510ZM201 424Q201 398 211 385T239 371Q252 371 266 380T291 406T310 449T317 507Q317 560 279 560Q265 560 252 552T227 526T208 483T201 424ZM847 216Q847 166 832 125T790 53T731 7T660 -10Q627 -10 602 0T561 29T536 73T527 126Q527 176 542 217T584 289T644
335T715 352Q781 352 814 313T847 216ZM629 130Q629 104 639 91T667 77Q680 77 694 86T719 112T738 155T745 213Q745 266 707 266Q693 266 680 258T655 232T636 189T629 130ZM1211 216Q1211 166 1196 125T1154 53T1095 7T1024 -10Q991 -10 966 0T925 29T900 73T891
126Q891 176 906 217T948 289T1008 335T1079 352Q1145 352 1178 313T1211 216ZM993 130Q993 104 1003 91T1031 77Q1044 77 1058 86T1083 112T1102 155T1109 213Q1109 266 1071 266Q1057 266 1044 258T1019 232T1000 189T993 130Z" />
<glyph unicode="&#x2039;" glyph-name="null" horiz-adv-x="347" d="M85 246L220 438H360L223 241L282 42H147L85 246Z" />
<glyph unicode="&#x203a;" glyph-name="null" horiz-adv-x="347" d="M297 234L162 42H22L159 239L100 438H235L297 234Z" />
<glyph unicode="&#x2044;" glyph-name="null" horiz-adv-x="205" d="M317 630H441L-43 0H-168L317 630Z" />
<glyph unicode="&#x2070;" glyph-name="null" horiz-adv-x="360" d="M393 510Q393 460 378 419T336 347T277 301T206 284Q173 284 148 294T107 323T82 367T73 420Q73 470 88 511T130 583T190 629T261 646Q327 646 360 607T393 510ZM175 424Q175 398 185 385T213
371Q226 371 240 380T265 406T284 449T291 507Q291 560 253 560Q239 560 226 552T201 526T182 483T175 424Z" />
<glyph unicode="&#x2074;" glyph-name="null" horiz-adv-x="360" d="M85 430L275 637H384L343 427H379L365 354H329L317 294H224L236 354H70L85 430ZM250 426L273 546L164 426H250Z" />
<glyph unicode="&#x2075;" glyph-name="null" horiz-adv-x="360" d="M201 368Q227 368 242 379T257 410Q257 441 212 441Q199 441 185 439T156 430L115 464L178 637H375L356 554H233L216 507Q222 509 229 510T244 511Q295 511 324 486T354 416Q354 356 312 320T198
283Q155 283 124 296T65 332L119 400Q142 383 161 376T201 368Z" />
<glyph unicode="&#x2076;" glyph-name="null" horiz-adv-x="360" d="M340 544Q323 555 310 558T278 562Q242 562 224 544T196 499Q211 506 227 510T264 514Q310 514 338 488T366 419Q366 385 354 360T322 318T275 293T218 284Q183 284 158 295T117 326T94 369T87
421Q87 459 98 499T134 571T196 625T284 646Q344 646 390 612L340 544ZM236 441Q221 441 207 437T182 427Q180 422 180 418T180 408Q180 394 191 380T225 365Q246 365 262 373T279 408Q279 422 268 431T236 441Z" />
<glyph unicode="&#x2077;" glyph-name="null" horiz-adv-x="360" d="M96 295Q133 364 177 429T266 552H110L127 637H393L378 559Q334 505 287 435T206 295H96Z" />
<glyph unicode="&#x2078;" glyph-name="null" horiz-adv-x="360" d="M274 403Q274 414 265 423T234 442Q211 436 193 425T174 392Q174 379 184 369T218 359Q241 359 257 369T274 403ZM218 539Q218 520 246 505Q265 510 280 519T295 548Q295 559 288 566T261 574Q241
574 230 565T218 539ZM389 561Q389 532 376 513T327 474Q353 454 359 437T365 401Q365 378 355 357T325 320T276 294T209 284Q172 284 147 292T105 315T82 346T74 381Q74 418 98 442T160 484Q147 495 138 510T129 545Q129 588 164 617T265 646Q298 646 321 638T360
618T382 591T389 561Z" />
<glyph unicode="&#x2079;" glyph-name="null" horiz-adv-x="360" d="M110 390Q129 377 149 373T189 368Q224 368 242 387T264 432Q249 425 233 421T197 417Q149 417 122 445T94 518Q94 550 106 574T139 614T186 638T240 646Q274 646 298 635T339 604T364 560T372
508Q372 470 363 431T331 359T273 305T183 284Q153 284 125 292T74 317L110 390ZM226 489Q241 489 255 493T280 503Q282 508 282 512T282 522Q282 536 271 550T237 565Q216 565 200 557T183 522Q183 508 194 499T226 489Z" />
<glyph unicode="&#x2080;" glyph-name="null" horiz-adv-x="360" d="M346 217Q346 167 331 126T289 54T230 8T159 -9Q126 -9 101 1T60 30T35 74T26 127Q26 177 41 218T83 290T143 336T214 353Q280 353 313 314T346 217ZM128 131Q128 105 138 92T166 78Q179 78
193 87T218 113T237 156T244 214Q244 267 206 267Q192 267 179 259T154 233T135 190T128 131Z" />
<glyph unicode="&#x2081;" glyph-name="null" horiz-adv-x="360" d="M182 238L111 204L77 279L213 344H305L239 1H136L182 238Z" />
<glyph unicode="&#x2082;" glyph-name="null" horiz-adv-x="360" d="M49 52Q56 90 82 118T156 175Q194 197 214 211T234 241Q234 266 205 266Q163 266 124 233L76 297Q107 323 143 338T222 353Q276 353 308 329T341 260Q341 216 313 188T243 135Q223 124 203 112T170
86H313L296 1H40L49 52Z" />
<glyph unicode="&#x2083;" glyph-name="null" horiz-adv-x="360" d="M115 186L217 262H91L107 344H341L326 278L235 206Q310 180 310 114Q310 60 269 26T159 -9Q111 -9 81 1T24 34L70 105Q93 88 115 82T158 76Q187 76 201 87T216 116Q216 136 204 143T172 151Q152
151 136 145L115 186Z" />
<glyph unicode="&#x2084;" glyph-name="null" horiz-adv-x="360" d="M30 137L220 344H329L288 134H324L310 61H274L262 1H169L181 61H15L30 137ZM195 133L218 253L109 133H195Z" />
<glyph unicode="&#x2085;" glyph-name="null" horiz-adv-x="360" d="M161 75Q187 75 202 86T217 117Q217 148 172 148Q159 148 145 146T116 137L75 171L138 344H335L316 261H193L176 214Q182 216 189 217T204 218Q255 218 284 193T314 123Q314 63 272 27T158 -10Q115
-10 84 3T25 39L79 107Q102 90 121 83T161 75Z" />
<glyph unicode="&#x2086;" glyph-name="null" horiz-adv-x="360" d="M300 251Q283 262 270 265T238 269Q202 269 184 251T156 206Q171 213 187 217T224 221Q270 221 298 195T326 126Q326 92 314 67T282 25T235 0T178 -9Q143 -9 118 2T77 33T54 76T47 128Q47 166
58 206T94 278T156 332T244 353Q304 353 350 319L300 251ZM196 148Q181 148 167 144T142 134Q140 129 140 125T140 115Q140 101 151 87T185 72Q206 72 222 80T239 115Q239 129 228 138T196 148Z" />
<glyph unicode="&#x2087;" glyph-name="null" horiz-adv-x="360" d="M61 2Q98 71 142 136T231 259H75L92 344H358L343 266Q299 212 252 142T171 2H61Z" />
<glyph unicode="&#x2088;" glyph-name="null" horiz-adv-x="360" d="M223 110Q223 121 214 130T183 149Q160 143 142 132T123 99Q123 86 133 76T167 66Q190 66 206 76T223 110ZM167 246Q167 227 195 212Q214 217 229 226T244 255Q244 266 237 273T210 281Q190
281 179 272T167 246ZM338 268Q338 239 325 220T276 181Q302 161 308 144T314 108Q314 85 304 64T274 27T225 1T158 -9Q121 -9 96 -1T54 22T31 53T23 88Q23 125 47 149T109 191Q96 202 87 217T78 252Q78 295 113 324T214 353Q247 353 270 345T309 325T331 298T338
268Z" />
<glyph unicode="&#x2089;" glyph-name="null" horiz-adv-x="360" d="M73 97Q92 84 112 80T152 75Q187 75 205 94T227 139Q212 132 196 128T160 124Q112 124 85 152T57 225Q57 257 69 281T102 321T149 345T203 353Q237 353 261 342T302 311T327 267T335 215Q335
177 326 138T294 66T236 12T146 -9Q116 -9 88 -1T37 24L73 97ZM189 196Q204 196 218 200T243 210Q245 215 245 219T245 229Q245 243 234 257T200 272Q179 272 163 264T146 229Q146 215 157 206T189 196Z" />
<glyph unicode="&#x20ac;" glyph-name="null" horiz-adv-x="545" d="M276 202Q282 175 293 158T317 131T344 117T373 113Q408 113 433 123T484 157L558 68Q516 25 466 6T355 -14Q318 -14 281 -4T212 31T158 97T128 202H41L66 281H126Q127 298 129 315T134 350H68L93
429H154Q169 474 194 514T253 584T333 631T434 648Q562 648 621 543L520 470Q501 498 480 509T423 521Q408 521 392 517T359 502T327 473T300 429H462L437 350H277Q274 334 273 317T270 281H434L409 202H276Z" />
<glyph unicode="&#x20ae;" glyph-name="null" horiz-adv-x="545" d="M209 189L222 254L129 214L98 286L240 348L271 505H111L135 630H590L566 505H406L388 412L478 451L509 379L370 318L357 253L447 292L478 220L339 159L308 0H173L191 95L98 55L67 127L209 189Z" />
<glyph unicode="&#x20b4;" glyph-name="null" horiz-adv-x="545" d="M69 155Q69 184 76 207T98 249L66 256L80 329L168 311Q194 328 222 339T283 362L94 400L108 473L389 417Q400 428 407 441T414 472Q414 490 407 502T389 520T365 530T338 533Q309 533 281 521T225
490L172 584Q207 610 256 629T359 648Q396 648 430 638T490 607T531 556T547 485Q547 457 540 434T519 392L549 386L535 313L449 330Q423 314 394 303T333 279L521 242L507 169L229 224Q217 212 210 198T203 166Q203 147 210 134T230 113T258 102T291 98Q328 98
362 112T423 147L481 56Q439 24 388 5T276 -15Q232 -15 195 -4T129 28T85 82T69 155Z" />
<glyph unicode="&#x20b8;" glyph-name="null" horiz-adv-x="545" d="M243 326H80L103 444H564L541 326H378L314 0H179L243 326ZM116 512L139 630H600L578 512H116Z" />
<glyph unicode="&#x20b9;" glyph-name="null" horiz-adv-x="545" d="M449 531Q457 516 463 500T474 463H561L530 364H472Q457 297 405 252T272 199L468 0H295L87 210L103 293H197Q305 293 336 364H117L136 463H343Q335 496 309 513T233 531H149L168 630H592L561 531H449Z" />
<glyph unicode="&#x20ba;" glyph-name="null" horiz-adv-x="545" d="M427 297L547 265Q526 190 493 140T414 58T313 14T191 0H79L123 226L59 199L30 269L140 316L153 381L89 354L60 424L171 471L202 630H336L317 533L412 573L441 503L299 443L286 377L382 418L411
348L269 288L238 128Q303 128 351 168T427 297Z" />
<glyph unicode="&#x2113;" glyph-name="null" horiz-adv-x="467" d="M144 437Q144 508 153 556T181 634T226 677T288 690Q339 690 372 653T405 546Q405 455 357 374T221 210V190Q221 149 227 124T243 84T268 65T300 59Q332 59 361 75T407 115L447 77Q420 37 382
14T291 -9Q221 -9 183 30T145 158Q132 148 121 140T96 123Q91 134 85 145T71 167Q90 180 108 194T144 225V437ZM221 289Q275 349 306 412T338 545Q338 593 322 612T284 632Q258 632 240 599T221 490V289Z" />
<glyph unicode="&#x2116;" glyph-name="null" horiz-adv-x="1047" d="M168 667H300L478 246L559 667H702L573 0H447L265 428L182 0H39L168 667ZM716 277H1023L1008 198H701L716 277ZM937 673Q967 673 992 663T1037 635T1068 590T1079 530Q1079 491 1065 457T1025
396T966 354T894 338Q864 338 838 348T792 376T761 422T749 482Q749 522 764 556T806 617T866 658T937 673ZM926 583Q895 583 871 558T847 494Q847 466 861 447T902 428Q917 428 931 435T957 454T975 483T982 519Q982 547 967 565T926 583Z" />
<glyph unicode="&#x2122;" glyph-name="null" horiz-adv-x="859" d="M520 667H610L671 497L802 667H893L834 284H738L774 509L674 377H623L575 506L525 284H431L520 667ZM230 575H109L127 667H470L452 575H333L277 284H173L230 575Z" />
<glyph unicode="&#x2126;" glyph-name="null" horiz-adv-x="757" d="M434 131Q473 149 503 175T555 235T586 305T597 381Q597 415 589 445T561 498T513 534T442 548Q393 548 355 530T291 479T250 404T236 313Q236 258 255 214T323 131L299 0H17L42 130H173Q128
178 111 227T93 330Q93 402 119 466T194 579T308 656T454 685Q523 685 578 663T671 603T730 514T751 403Q751 329 716 258T597 130H720L695 0H409L434 131Z" />
<glyph unicode="&#x212e;" glyph-name="null" horiz-adv-x="888" d="M232 138Q232 125 241 116Q289 65 351 37T486 9Q565 9 631 41T745 128H802Q776 96 742 71T666 27T579 -1T485 -11Q402 -11 329 17T202 94T117 208T85 349Q85 424 116 489T202 604T329 681T485
710Q568 710 641 682T769 604T855 490T887 349V339H237Q232 339 232 335V138ZM735 358Q739 358 739 365V562Q739 575 730 586Q682 634 620 661T486 688Q414 688 352 659T242 582Q237 578 235 572T232 558V365Q232 358 237 358H735Z" />
<glyph unicode="&#x2153;" glyph-name="null" horiz-adv-x="925" d="M462 531L391 497L357 572L493 637H585L519 294H416L462 531ZM626 630H750L266 0H141L626 630ZM650 186L752 262H626L642 344H876L861 278L770 206Q845 180 845 114Q845 60 804 26T694 -9Q646
-9 616 1T559 34L605 105Q628 88 650 82T693 76Q722 76 736 87T751 116Q751 136 739 143T707 151Q687 151 671 145L650 186Z" />
<glyph unicode="&#x2154;" glyph-name="null" horiz-adv-x="925" d="M102 345Q109 383 135 411T209 468Q247 490 267 504T287 534Q287 559 258 559Q216 559 177 526L129 590Q160 616 196 631T275 646Q329 646 361 622T394 553Q394 509 366 481T296 428Q276 417
256 405T223 379H366L349 294H93L102 345ZM669 630H793L309 0H184L669 630ZM650 186L752 262H626L642 344H876L861 278L770 206Q845 180 845 114Q845 60 804 26T694 -9Q646 -9 616 1T559 34L605 105Q628 88 650 82T693 76Q722 76 736 87T751 116Q751 136 739 143T707
151Q687 151 671 145L650 186Z" />
</font>
</defs>
</svg>
