<?xml version="1.0" standalone="no"?> <!DOCTYPE svg PUBLIC "-//W3C//DTD SVG 1.0//EN" "http://www.w3.org/TR/2001/REC-SVG-20010904/DTD/svg10.dtd" > <svg xmlns="http://www.w3.org/2000/svg" width="100%" height="100%">
<defs >
<font id="Effra_W_Lt" horiz-adv-x="540" ><font-face
    font-family="."
    units-per-em="1000"
    panose-1="2 11 4 3 2 2 3 2 2 4"
    ascent="955"
    descent="-251"
    alphabetic="0" />
<missing-glyph horiz-adv-x="500" d="M50 0V750H450V0H50ZM400 50V700H100V50H400Z" />
<glyph unicode="&#x0;" glyph-name="null" horiz-adv-x="0" />
<glyph unicode="&#x8;" glyph-name="null" horiz-adv-x="0" />
<glyph unicode="&#x9;" glyph-name="null" horiz-adv-x="181" />
<glyph unicode="&#xd;" glyph-name="null" horiz-adv-x="181" />
<glyph unicode="&#x1d;" glyph-name="null" horiz-adv-x="0" />
<glyph unicode=" " glyph-name="null" horiz-adv-x="181" />
<glyph unicode="!" glyph-name="null" horiz-adv-x="224" d="M86 667H138L134 166H90L86 667ZM80 65H143V0H80V65Z" />
<glyph unicode="&quot;" glyph-name="null" horiz-adv-x="327" d="M82 667H127V463H82V667ZM212 667H257V463H212V667Z" />
<glyph unicode="#" glyph-name="null" horiz-adv-x="770" d="M220 186H61V224H231L276 396H121V434H287L337 621H380L330 434H519L569 621H612L562 434H709V396H551L506 224H649V186H495L445 0H402L452 186H263L213 0H170L220 186ZM463 224L508 396H319L274 224H463Z" />
<glyph unicode="$" glyph-name="null" horiz-adv-x="545" d="M93 117Q124 79 164 55T269 29V314Q256 317 246 321Q201 334 171 349T122 385T96 430T88 488Q88 519 99 547T133 596T190 630T269 646V729H310V646Q344 643 369 634T414 613T446 586T469 558L437 530Q429
540 418 551T392 573T357 591T310 602V351Q346 340 379 325T436 288T476 235T491 158Q491 121 478 91T441 39T384 4T310 -14V-92H269V-16Q226 -15 193 -6T134 18T90 49T59 84L93 117ZM310 30Q379 37 411 70T443 161Q443 188 436 208T414 245T373 275T310 302V30ZM269
602Q233 600 208 591T166 566T143 532T135 493Q135 469 139 451T158 417T198 389T269 361V602Z" />
<glyph unicode="%" glyph-name="null" horiz-adv-x="840" d="M597 630H648L242 0H191L597 630ZM190 326Q209 326 227 333T261 358T285 402T294 469Q294 509 285 536T261 579T228 603T190 610Q172 610 154 603T120 580T96 536T87 469Q87 429 96 402T120 358T153
334T190 326ZM190 288Q125 288 83 335T41 469Q41 556 83 602T190 648Q223 648 250 637T298 602T329 546T340 469Q340 382 298 335T190 288ZM649 32Q668 32 686 39T720 64T744 108T753 175Q753 215 744 242T720 285T687 309T649 316Q631 316 613 309T579 286T555
242T546 175Q546 135 555 108T579 64T612 40T649 32ZM649 -6Q584 -6 542 41T500 175Q500 262 542 308T649 354Q682 354 709 343T757 308T788 252T799 175Q799 88 757 41T649 -6Z" />
<glyph unicode="&amp;" glyph-name="null" horiz-adv-x="631" d="M460 93Q441 71 420 52T374 17T318 -7T252 -16Q206 -16 170 -3T108 35T69 91T55 161Q55 233 96 284T202 376L174 411Q152 438 138 470T123 542Q123 568 133 593T163 639T212 671T279 683Q340 683
376 658T438 576L403 555Q377 607 348 624T281 641Q254 641 234 633T200 611T179 579T172 543Q172 509 189 477T241 405L459 163L548 283L584 257L489 130L606 0H546L460 93ZM232 343Q170 305 139 265T107 163Q107 135 117 111T146 68T192 40T255 29Q285 29 310
37T357 58T396 89T430 126L232 343Z" />
<glyph unicode="&apos;" glyph-name="null" horiz-adv-x="177" d="M66 667H111V463H66V667Z" />
<glyph unicode="(" glyph-name="null" horiz-adv-x="280" d="M182 -93Q168 -72 149 -35T113 55T83 170T71 307Q71 380 83 443T112 558T149 647T182 706H225Q210 676 192 639T159 553T134 444T123 307Q123 231 133 171T159 61T192 -25T225 -93H182Z" />
<glyph unicode=")" glyph-name="null" horiz-adv-x="280" d="M55 -93Q70 -63 88 -26T121 61T146 170T157 307Q157 383 147 443T121 552T88 638T55 706H98Q112 685 131 648T167 559T197 444T209 307Q209 234 197 171T168 55T131 -34T98 -93H55Z" />
<glyph unicode="*" glyph-name="null" horiz-adv-x="502" d="M71 438L220 518L71 598L92 635L236 545L230 714H272L266 545L410 635L431 598L282 518L431 438L410 401L266 491L272 322H230L236 491L92 401L71 438Z" />
<glyph unicode="+" glyph-name="null" horiz-adv-x="545" d="M72 343H250V516H295V343H473V298H297V124H251V298H72V343Z" />
<glyph unicode="," glyph-name="null" horiz-adv-x="219" d="M100 0H76V69H142V0L98 -78H68L100 0Z" />
<glyph unicode="-" glyph-name="null" horiz-adv-x="437" d="M81 304H356V259H81V304Z" />
<glyph unicode="." glyph-name="null" horiz-adv-x="219" d="M75 70H143V0H75V70Z" />
<glyph unicode="/" glyph-name="null" horiz-adv-x="375" d="M296 685H345L79 -16H30L296 685Z" />
<glyph unicode="0" glyph-name="null" horiz-adv-x="545" d="M271 34Q359 34 405 109T452 320Q452 456 406 529T271 603Q185 603 139 530T92 320Q92 184 138 109T271 34ZM272 -12Q218 -12 175 11T103 77T57 181T41 320Q41 397 57 458T102 561T175 625T272 648Q326
648 369 626T441 561T487 458T503 320Q503 243 487 182T442 77T369 11T272 -12Z" />
<glyph unicode="1" glyph-name="null" horiz-adv-x="545" d="M157 44H276V588L132 510L112 546L276 638H324V44H443V0H157V44Z" />
<glyph unicode="2" glyph-name="null" horiz-adv-x="545" d="M78 44Q78 97 108 138T183 217Q200 232 218 246T255 276Q286 301 313 326T361 376T394 429T406 486Q406 510 398 531T374 568T332 593T273 603Q239 603 215 595T172 575T141 549T118 521L82 546Q91
561 106 578T145 611T199 637T272 648Q318 648 353 635T411 600T446 549T458 485Q458 446 445 414T409 355T358 302T298 252Q272 231 250 214T209 179Q171 146 151 116T131 45H468V0H78V44Z" />
<glyph unicode="3" glyph-name="null" horiz-adv-x="545" d="M86 88Q96 80 109 70T142 51T187 36T248 29Q325 29 369 70T413 182Q413 220 402 247T370 291T324 316T266 324Q242 324 227 321T194 312L175 345L378 588H101V632H439V589L243 362Q251 364 259 365T276
366Q316 366 350 354T409 318T448 260T462 182Q462 132 445 95T398 33T329 -4T244 -16Q203 -16 173 -9T120 9T82 31T56 50L86 88Z" />
<glyph unicode="4" glyph-name="null" horiz-adv-x="545" d="M62 190L366 632H416V190H489V146H416V0H369V146H62V190ZM369 190V563L112 190H369Z" />
<glyph unicode="5" glyph-name="null" horiz-adv-x="545" d="M88 86Q116 65 153 47T244 29Q283 29 314 40T368 72T402 121T414 185Q414 211 408 238T385 287T340 324T266 339Q216 339 186 328T131 301L107 319L160 632H441V587H196L159 357Q175 365 202 374T272
384Q314 384 349 373T411 337T451 275T466 185Q466 143 451 106T408 42T338 0T243 -16Q178 -16 134 4T59 48L88 86Z" />
<glyph unicode="6" glyph-name="null" horiz-adv-x="545" d="M430 567Q416 578 390 589T326 601Q274 601 237 579T176 520T140 435T124 334Q135 344 151 354T188 374T235 388T294 394Q388 394 436 340T485 186Q485 134 467 96T421 33T358 -4T290 -16Q232 -16 191
4T125 63T87 154T75 275Q75 459 141 552T330 646Q375 646 407 632T455 604L430 567ZM124 281Q123 276 123 268T123 249Q123 207 131 168T159 97T210 48T287 29Q312 29 338 38T386 67T422 115T437 185Q437 218 431 247T409 299T363 334T286 347Q235 347 195 330T124
281Z" />
<glyph unicode="7" glyph-name="null" horiz-adv-x="545" d="M155 0Q181 77 216 162T287 328T357 477T416 587H76V632H471V588Q455 561 433 518T385 424T334 315T285 202T241 94T209 0H155Z" />
<glyph unicode="8" glyph-name="null" horiz-adv-x="545" d="M213 337Q186 350 164 364T125 396T99 437T90 493Q90 526 102 554T137 603T194 636T272 648Q316 648 350 636T407 604T442 558T454 501Q454 478 448 455T426 411T386 372T325 338Q328 337 353 327T409
296T463 240T487 156Q487 126 476 96T438 40T371 0T272 -16Q213 -16 173 -1T106 40T69 95T57 156Q57 193 72 222T111 273T161 310T213 337ZM265 315Q232 304 204 289T154 254T120 210T108 159Q108 123 123 99T161 58T214 35T272 28Q301 28 330 35T382 58T420 98T435
159Q435 186 421 210T383 253T329 288T265 315ZM272 359Q335 381 370 414T406 501Q406 546 371 575T272 604Q208 604 173 574T138 493Q138 402 272 359Z" />
<glyph unicode="9" glyph-name="null" horiz-adv-x="545" d="M110 65Q124 54 150 43T214 31Q266 31 303 53T364 112T400 197T416 298Q405 288 389 278T352 258T305 244T246 238Q152 238 104 292T55 446Q55 498 73 536T119 599T182 636T250 648Q308 648 349 628T415
569T453 478T465 357Q465 173 399 80T210 -14Q165 -14 133 0T85 28L110 65ZM416 351Q417 356 417 364T417 383Q417 425 409 464T381 535T330 584T253 603Q228 603 202 594T154 565T118 517T103 447Q103 414 109 385T131 333T177 298T254 285Q305 285 345 302T416
351Z" />
<glyph unicode=":" glyph-name="null" horiz-adv-x="219" d="M75 72H143V2H75V72ZM75 464H143V394H75V464Z" />
<glyph unicode=";" glyph-name="null" horiz-adv-x="219" d="M100 0H76V69H142V0L98 -78H68L100 0ZM75 464H143V394H75V464Z" />
<glyph unicode="&lt;" glyph-name="null" horiz-adv-x="545" d="M73 339L452 529L473 488L134 320L473 152L453 111L73 301V339Z" />
<glyph unicode="=" glyph-name="null" horiz-adv-x="545" d="M72 425H473V380H72V425ZM72 509H473V464H72V509Z" />
<glyph unicode="&gt;" glyph-name="null" horiz-adv-x="545" d="M72 152L411 320L72 488L92 529L472 339V301L93 111L72 152Z" />
<glyph unicode="?" glyph-name="null" horiz-adv-x="496" d="M194 204Q194 242 204 270T230 319T267 356T309 388Q327 401 343 414T372 444T392 481T400 528Q400 581 357 609T246 638Q190 638 150 618T76 557L44 588Q75 626 126 654T246 683Q295 683 333 671T396
638T435 588T449 525Q449 494 440 471T415 427T376 388T326 349Q308 336 292 322T264 291T245 251T238 199V166H194V204ZM185 65H248V0H185V65Z" />
<glyph unicode="@" glyph-name="null" horiz-adv-x="954" d="M185 -10Q163 9 140 38T99 106T68 190T56 290Q56 389 90 462T183 585T317 659T478 684Q570 684 647 659T781 585T868 464T900 298Q900 207 883 147T839 50T780 -1T718 -16Q703 -16 686 -13T653 -1T625
24T607 67Q589 43 567 28T523 3T481 -10T444 -14Q412 -14 382 -7T328 16T291 60T277 126Q277 159 288 188T324 240T386 275T479 288Q519 288 551 285T607 279V305Q607 374 571 400T466 427Q413 427 381 410T330 378L303 413Q313 422 329 432T366 452T414 467T469
473Q558 473 606 437T655 312V102Q655 78 660 64T674 41T695 29T721 26Q745 26 768 40T809 86T838 171T850 298Q850 383 822 447T744 554T626 618T478 640Q411 640 345 622T226 562T140 453T107 290Q107 234 118 191T146 116T182 60T218 21L185 -10ZM608 235Q583
239 555 242T478 245Q425 245 396 233T352 202T334 163T330 126Q330 81 360 57T444 32Q476 32 505 42T558 70T594 111T608 161V235Z" />
<glyph unicode="A" glyph-name="null" horiz-adv-x="634" d="M293 667H341L614 0H559L472 215H158L72 0H20L293 667ZM454 260L315 606L176 260H454Z" />
<glyph unicode="B" glyph-name="null" horiz-adv-x="581" d="M86 667H307Q356 667 391 654T448 618T480 566T490 503Q490 475 481 450T457 405T419 370T370 351Q396 347 424 337T475 308T513 257T528 180Q528 126 508 92T454 37T374 8T277 0H86V667ZM280 370Q307
370 335 377T387 400T425 440T440 500Q440 540 426 564T388 601T337 618T280 622H134V370H280ZM265 45Q303 45 341 48T409 65T459 106T478 180Q478 225 460 253T413 297T349 319T281 325H134V45H265Z" />
<glyph unicode="C" glyph-name="null" horiz-adv-x="672" d="M621 111Q615 101 599 80T553 38T480 0T378 -16Q306 -16 247 10T145 84T79 195T56 334Q56 407 79 470T144 581T246 656T378 683Q437 683 480 667T552 630T598 587T621 556L585 531Q579 539 566 556T528
592T467 624T380 638Q316 638 266 615T180 550T127 454T108 334Q108 270 127 215T181 118T267 53T383 29Q430 29 465 43T525 75T564 110T585 136L621 111Z" />
<glyph unicode="D" glyph-name="null" horiz-adv-x="697" d="M86 667H268Q350 667 418 648T536 588T613 484T641 334Q641 247 614 184T537 80T419 20T268 0H86V667ZM278 45Q349 45 406 62T505 116T568 206T590 334Q590 407 568 461T504 551T403 604T270 622H134V45H278Z" />
<glyph unicode="E" glyph-name="null" horiz-adv-x="557" d="M86 667H486V622H134V370H409V325H134V45H512V0H86V667Z" />
<glyph unicode="F" glyph-name="null" horiz-adv-x="522" d="M86 667H486V622H134V370H409V325H134V0H86V667Z" />
<glyph unicode="G" glyph-name="null" horiz-adv-x="717" d="M588 271H410V316H636V66Q619 51 595 37T540 10T469 -9T380 -16Q308 -16 248 9T146 81T80 192T56 334Q56 407 79 470T145 581T248 656T380 683Q439 683 481 667T553 630T598 587T621 556L585 531Q579
539 565 556T527 592T467 624T385 638Q320 638 269 615T182 550T127 454T108 334Q108 270 126 215T180 118T266 53T380 29Q457 29 506 46T588 86V271Z" />
<glyph unicode="H" glyph-name="null" horiz-adv-x="688" d="M86 667H134V370H554V667H602V0H554V325H134V0H86V667Z" />
<glyph unicode="I" glyph-name="null" horiz-adv-x="220" d="M86 667H134V0H86V667Z" />
<glyph unicode="J" glyph-name="null" horiz-adv-x="471" d="M57 101Q81 72 115 51T198 29Q231 29 257 38T303 68T332 122T342 205V667H390V197Q390 86 339 35T195 -16Q160 -16 133 -8T85 13T48 41T21 71L57 101Z" />
<glyph unicode="K" glyph-name="null" horiz-adv-x="575" d="M86 667H134V319L462 667H521L269 398L555 0H498L234 362L134 255V0H86V667Z" />
<glyph unicode="L" glyph-name="null" d="M86 667H134V45H512V0H86V667Z" />
<glyph unicode="M" glyph-name="null" horiz-adv-x="783" d="M108 667H160L392 271L629 667H675L705 0H657L634 592L404 210H373L149 591L126 0H78L108 667Z" />
<glyph unicode="N" glyph-name="null" horiz-adv-x="697" d="M86 667H136L564 72V667H611V0H561L133 587V0H86V667Z" />
<glyph unicode="O" glyph-name="null" horiz-adv-x="774" d="M387 -16Q315 -16 255 11T150 85T81 195T56 333Q56 406 81 470T150 581T254 656T387 683Q459 683 519 656T624 582T693 470T718 333Q718 259 693 196T624 85T520 11T387 -16ZM387 29Q450 29 502 52T590
117T647 214T667 333Q667 396 647 452T591 549T502 614T387 638Q324 638 272 614T184 549T127 452T107 333Q107 270 127 215T183 118T272 53T387 29Z" />
<glyph unicode="P" glyph-name="null" horiz-adv-x="579" d="M86 667H291Q356 667 400 653T472 612T511 551T523 475Q523 434 511 399T472 338T401 298T291 283H134V0H86V667ZM305 328Q389 328 430 365T471 475Q471 547 430 584T305 622H134V328H305Z" />
<glyph unicode="Q" glyph-name="null" horiz-adv-x="774" d="M552 27Q516 7 475 -4T387 -16Q315 -16 255 11T150 85T81 195T56 333Q56 406 81 470T150 581T254 656T387 683Q459 683 519 656T624 582T693 470T718 333Q718 245 684 173T589 53L676 -48L641 -77L552
27ZM429 172L464 201L560 88Q611 130 639 193T667 333Q667 396 647 452T591 549T502 614T387 638Q324 638 272 614T184 549T127 452T107 333Q107 270 127 215T183 118T272 53T387 29Q425 29 459 37T522 62L429 172Z" />
<glyph unicode="R" glyph-name="null" horiz-adv-x="596" d="M86 667H287Q352 667 397 653T470 614T510 554T523 478Q523 413 490 363T383 295L542 0H487L332 289H134V0H86V667ZM307 334Q472 334 472 478Q472 550 429 586T301 622H134V334H307Z" />
<glyph unicode="S" glyph-name="null" horiz-adv-x="564" d="M82 122Q116 81 163 55T279 29Q318 29 350 38T406 64T443 108T456 170Q456 207 442 233T403 276T349 305T287 325Q249 335 211 347T143 380T95 432T76 514Q76 548 90 579T130 633T195 669T283 683Q325
683 357 674T414 652T455 622T483 591L449 562Q440 574 426 587T392 612T345 631T281 639Q240 639 211 628T162 599T134 559T125 512Q125 476 141 453T185 414T245 388T313 369Q348 360 383 347T445 311T490 254T508 170Q508 127 490 93T442 34T369 -3T279 -16Q237
-16 201 -7T136 16T84 49T47 88L82 122Z" />
<glyph unicode="T" glyph-name="null" horiz-adv-x="616" d="M284 624H25V667H591V624H332V0H284V624Z" />
<glyph unicode="U" glyph-name="null" horiz-adv-x="672" d="M81 667H129V291Q129 234 138 186T170 103T234 49T336 29Q398 29 438 48T501 103T534 186T543 291V667H591V266Q591 207 579 156T537 66T458 6T336 -16Q263 -16 214 6T136 66T94 155T81 266V667Z" />
<glyph unicode="V" glyph-name="null" horiz-adv-x="630" d="M18 667H73L317 59L560 667H612L339 0H291L18 667Z" />
<glyph unicode="W" glyph-name="null" horiz-adv-x="874" d="M30 667H84L244 68L413 647H472L633 72L792 667H844L657 0H604L441 576L270 0H214L30 667Z" />
<glyph unicode="X" glyph-name="null" horiz-adv-x="588" d="M266 347L37 667H95L293 387L493 667H549L321 350L571 0H513L294 310L73 0H17L266 347Z" />
<glyph unicode="Y" glyph-name="null" d="M246 306L16 667H74L271 353L468 667H524L294 306V0H246V306Z" />
<glyph unicode="Z" glyph-name="null" horiz-adv-x="616" d="M49 44L498 622H71V667H560V623L111 45H567V0H49V44Z" />
<glyph unicode="[" glyph-name="null" horiz-adv-x="292" d="M86 706H262V663H133V-50H262V-93H86V706Z" />
<glyph unicode="\" glyph-name="null" horiz-adv-x="375" d="M30 685H79L345 -16H296L30 685Z" />
<glyph unicode="]" glyph-name="null" horiz-adv-x="292" d="M30 -50H159V663H30V706H206V-93H30V-50Z" />
<glyph unicode="^" glyph-name="null" horiz-adv-x="528" d="M247 667H282L465 308H415L263 613L112 308H64L247 667Z" />
<glyph unicode="_" glyph-name="null" horiz-adv-x="500" d="M0 -77H500V-122H0V-77Z" />
<glyph unicode="`" glyph-name="null" horiz-adv-x="362" d="M122 670H180L240 542H198L122 670Z" />
<glyph unicode="a" glyph-name="null" horiz-adv-x="492" d="M380 235Q359 240 328 243T247 247Q196 247 166 235T121 204T101 164T96 125Q96 75 129 52T215 29Q249 29 279 41T331 73T367 118T380 170V235ZM384 0Q383 9 383 20Q382 30 382 44T382 77Q364 51 343
34T298 6T252 -8T210 -12Q181 -12 152 -6T100 15T63 57T48 125Q48 158 59 187T94 238T156 272T248 285Q290 285 323 282T379 275V301Q379 339 370 364T343 404T299 425T239 431Q182 431 149 415T97 383L73 414Q92 432 134 452T238 472Q327 472 375 434T424 308V96Q424
76 424 59T425 28Q426 12 427 0H384Z" />
<glyph unicode="b" glyph-name="null" horiz-adv-x="536" d="M69 667H114V378Q123 393 136 409T170 440T217 463T283 472Q336 472 375 454T439 403T477 326T490 229Q490 171 471 126T417 51T336 4T235 -12Q185 -12 141 -4T69 17V667ZM113 48Q125 44 154 37T236
30Q280 30 317 42T383 80T426 142T442 230Q442 270 433 306T405 370T354 413T278 429Q236 429 205 411T154 366T123 307T113 245V48Z" />
<glyph unicode="c" glyph-name="null" horiz-adv-x="495" d="M459 68Q430 33 384 11T277 -12Q227 -12 185 6T111 57T63 134T46 230Q46 281 63 325T112 402T185 453T277 472Q338 472 380 451T453 391L419 365Q396 395 362 412T277 430Q237 430 204 414T146 371T108
308T94 230Q94 189 108 153T146 89T204 46T277 30Q327 30 365 48T427 96L459 68Z" />
<glyph unicode="d" glyph-name="null" horiz-adv-x="538" d="M425 0Q424 13 424 26Q423 37 423 51T423 80Q408 54 383 34Q362 17 330 3T253 -12Q200 -12 161 6T97 57T59 132T46 226Q46 282 63 327T112 405T187 454T283 472Q312 472 336 465T381 450Q403 440 423
428V667H467V96Q467 76 467 59T468 28Q468 12 469 0H425ZM423 379Q408 393 388 404Q371 414 344 422T282 430Q246 430 213 419T153 382T110 318T94 225Q94 186 103 151T131 89T182 46T258 30Q300 30 331 45T382 84T413 132T423 178V379Z" />
<glyph unicode="e" glyph-name="null" horiz-adv-x="534" d="M468 69Q438 31 387 10T281 -12Q230 -12 187 5T112 55T64 131T46 230Q46 280 62 324T108 401T178 453T268 472Q315 472 355 456T425 407T471 328T488 218H96Q97 179 111 145T149 85T206 45T281 30Q302
30 324 34T368 48T406 69T436 96L468 69ZM439 257Q430 342 385 386T268 430Q231 430 201 417T148 380T113 325T97 257H439Z" />
<glyph unicode="f" glyph-name="null" horiz-adv-x="315" d="M107 418H15V460H107V513Q107 595 143 639T249 683Q294 683 323 668T373 630L344 602Q323 623 302 632T253 642Q231 642 213 636T181 614T160 569T152 495V460H304V418H152V0H107V418Z" />
<glyph unicode="g" glyph-name="null" horiz-adv-x="534" d="M423 409Q408 415 390 419Q374 423 352 426T300 430Q258 430 221 417T156 377T111 313T94 225Q94 186 103 151T131 89T182 46T258 30Q302 30 333 46T384 86T413 135T423 178V409ZM110 -125Q126 -138
160 -153T250 -169Q300 -169 333 -156T386 -119T414 -63T422 7V77Q406 51 381 32Q360 15 329 2T253 -12Q200 -12 161 6T97 57T59 132T46 226Q46 282 65 327T119 405T200 454T301 472Q351 472 395 462T467 440V10Q467 -41 455 -82T417 -152T349 -196T248 -212Q215
-212 188 -207T141 -193T107 -175T84 -159L110 -125Z" />
<glyph unicode="h" glyph-name="null" horiz-adv-x="532" d="M69 667H114V368Q122 383 136 401T173 435T224 461T291 472Q340 472 373 458T428 418T458 354T467 270V0H422V255Q422 306 413 340T387 394T344 422T285 430Q241 430 209 412T156 366T125 304T114 237V0H69V667Z"
/>
<glyph unicode="i" glyph-name="null" horiz-adv-x="187" d="M71 460H116V0H71V460ZM62 622H125V556H62V622Z" />
<glyph unicode="j" glyph-name="null" horiz-adv-x="187" d="M-71 -131Q-54 -146 -39 -153T-4 -160Q11 -160 24 -155T48 -135T65 -93T71 -21V460H116V-14Q116 -58 111 -92T93 -151T55 -187T-6 -200Q-35 -200 -58 -189T-95 -164L-71 -131ZM62 622H125V556H62V622Z" />
<glyph unicode="k" glyph-name="null" horiz-adv-x="454" d="M69 667H114V230L350 460H409L233 289L444 0H390L201 257L114 173V0H69V667Z" />
<glyph unicode="l" glyph-name="null" horiz-adv-x="183" d="M69 667H114V0H69V667Z" />
<glyph unicode="m" glyph-name="null" horiz-adv-x="847" d="M71 363Q71 382 71 395T71 419T71 439T69 460H111Q112 449 112 440T113 421T114 397T114 364Q122 379 136 398T171 433T221 461T288 472Q355 472 390 444T439 363V364Q446 378 461 396T500 432T553
460T620 472Q666 472 697 458T747 418T774 354T782 270V0H737V255Q737 306 729 340T705 394T667 422T614 430Q580 430 550 416T498 379T462 327T449 265V0H404V255Q404 306 396 340T373 394T335 422T282 430Q241 430 210 412T158 366T127 304T116 237V0H71V363Z"
/>
<glyph unicode="n" glyph-name="null" horiz-adv-x="534" d="M71 363Q71 382 71 395T71 419T71 439T69 460H111Q112 449 112 440T113 421T114 397T114 364Q122 379 136 398T172 433T224 461T293 472Q342 472 375 458T430 418T460 354T469 270V0H424V255Q424 306
415 340T389 394T346 422T287 430Q243 430 211 412T158 366T127 304T116 237V0H71V363Z" />
<glyph unicode="o" glyph-name="null" horiz-adv-x="566" d="M283 -12Q234 -12 191 7T116 59T65 136T46 230Q46 280 64 324T115 401T191 453T283 472Q332 472 375 453T450 401T501 324T520 230Q520 180 502 136T451 59T375 7T283 -12ZM283 29Q323 29 358 45T418
88T458 151T473 230Q473 270 458 306T418 371T357 415T283 431Q242 431 208 415T148 372T108 309T93 230Q93 189 108 153T148 89T209 45T283 29Z" />
<glyph unicode="p" glyph-name="null" horiz-adv-x="538" d="M71 363Q71 382 71 395T71 419T71 439T69 460H111Q112 449 112 441T113 423T114 403T115 375Q120 384 131 400T162 432T213 460T285 472Q338 472 377 453T441 401T479 324T492 227Q492 173 475 129T426
54T352 5T259 -12Q210 -12 175 1T115 29V-200H71V363ZM115 80Q122 75 134 67T164 50T205 36T259 30Q297 30 331 43T390 81T429 142T444 227Q444 267 435 304T407 369T356 413T280 430Q250 430 226 421T182 397T149 361T127 318Q120 300 118 275T115 224V80Z" />
<glyph unicode="q" glyph-name="null" horiz-adv-x="536" d="M422 77Q406 51 382 32Q362 15 330 2T253 -12Q200 -12 161 6T97 57T59 132T46 226Q46 282 65 327T119 405T200 454T301 472Q351 472 395 462T467 440V-200H422V77ZM423 409Q408 415 390 419Q374 423
352 426T300 430Q258 430 221 417T156 377T111 313T94 225Q94 186 103 151T131 89T182 46T258 30Q303 30 334 47T385 88T414 137T423 178V409Z" />
<glyph unicode="r" glyph-name="null" horiz-adv-x="337" d="M71 363Q71 382 71 395T71 419T71 439T69 460H111Q112 449 112 439T113 418T114 392T114 359Q122 374 135 392T170 427T219 454T284 465Q306 465 322 458L309 415Q302 418 293 419T275 420Q239 420
210 404T160 362T128 303T116 235V0H71V363Z" />
<glyph unicode="s" glyph-name="null" horiz-adv-x="462" d="M70 90Q99 61 136 46T225 30Q253 30 278 35T322 51T352 78T363 116Q363 141 353 157T324 183T275 201T207 218Q175 225 149 234T103 258T73 293T62 347Q62 378 76 401T113 441T167 464T231 472Q285
472 326 452T394 401L363 373Q339 399 308 415T232 431Q210 431 188 428T148 415T119 389T108 345Q108 323 120 308T153 283T199 267T251 254Q279 248 307 239T359 216T397 179T412 122Q412 87 396 62T354 21T295 -4T229 -12Q164 -12 119 7T41 58L70 90Z" />
<glyph unicode="t" glyph-name="null" horiz-adv-x="355" d="M110 418H18V460H110V612H155V460H307V418H155V152Q155 111 161 87T178 50T205 33T238 29Q263 29 281 38T317 69L345 42Q325 16 300 2T233 -12Q206 -12 183 -6T144 18T119 65T110 141V418Z" />
<glyph unicode="u" glyph-name="null" horiz-adv-x="528" d="M65 460H110V205Q110 154 118 120T144 66T186 38T244 30Q287 30 319 48T371 94T402 156T412 223V460H457V97Q457 77 457 64T457 41T457 21T459 0H417Q416 11 416 20T415 39T414 63T414 96Q406 81 392
62T357 27T307 -1T238 -12Q189 -12 156 2T103 42T74 106T65 190V460Z" />
<glyph unicode="v" glyph-name="null" horiz-adv-x="463" d="M10 460H61L234 55L406 460H453L253 0H211L10 460Z" />
<glyph unicode="w" glyph-name="null" horiz-adv-x="680" d="M15 460H65L193 59L325 460H368L497 52L619 460H665L518 0H469L342 392L213 0H170L15 460Z" />
<glyph unicode="x" glyph-name="null" horiz-adv-x="456" d="M197 246L34 460H90L228 279L362 460H412L253 246L441 0H385L222 213L65 0H15L197 246Z" />
<glyph unicode="y" glyph-name="null" horiz-adv-x="462" d="M45 -149Q54 -158 69 -165T105 -172Q135 -172 151 -151T183 -91L221 6L16 460H67L244 61L397 460H446L220 -109Q214 -124 205 -142T183 -175T150 -201T105 -212Q76 -212 57 -204T22 -181L45 -149Z" />
<glyph unicode="z" glyph-name="null" horiz-adv-x="481" d="M61 42L369 420H73V460H423V418L113 41H430V0H61V42Z" />
<glyph unicode="{" glyph-name="null" horiz-adv-x="266" d="M175 -93Q152 -74 141 -45T126 28L112 199Q110 230 90 257T31 289V325Q69 330 89 357T112 415L126 585Q130 629 141 658T175 706H226Q208 688 193 662T175 596L162 416Q158 365 136 341T85 307Q114
298 136 274T162 200L175 17Q178 -23 193 -49T226 -93H175Z" />
<glyph unicode="|" glyph-name="null" horiz-adv-x="215" d="M86 833H129V-164H86V833Z" />
<glyph unicode="}" glyph-name="null" horiz-adv-x="266" d="M40 -93Q58 -75 73 -49T91 17L104 200Q108 249 130 273T181 307Q152 316 130 340T104 416L91 596Q88 636 73 662T40 706H91Q114 687 125 658T140 585L154 415Q156 384 176 357T235 325V289Q197 284
177 257T154 199L140 28Q136 -16 125 -45T91 -93H40Z" />
<glyph unicode="~" glyph-name="null" horiz-adv-x="444" d="M48 294Q51 297 58 306T78 325T109 343T151 351Q177 351 194 344T231 325Q245 317 261 310T297 303Q323 303 342 317T369 342L395 311Q392 306 385 298T365 282T336 267T297 260Q269 260 252 267T215
286Q201 294 184 301T150 309Q136 309 124 305T103 294T88 280T77 267L48 294Z" />
<glyph unicode="&#xa0;" glyph-name="null" horiz-adv-x="181" />
<glyph unicode="&#xa1;" glyph-name="null" horiz-adv-x="224" d="M138 -207H86L90 294H134L138 -207ZM144 395H81V460H144V395Z" />
<glyph unicode="&#xa2;" glyph-name="null" horiz-adv-x="545" d="M276 71Q231 75 193 95T128 148T86 222T71 314Q71 362 86 404T129 479T194 531T276 557V649H317V558Q372 556 410 535T478 478L444 452Q422 480 392 497T317 516V112Q362 115 396 132T452 178L483
149Q456 116 414 95T317 70V-19H276V71ZM276 515Q241 510 212 493T163 448T131 387T119 314Q119 276 130 242T163 182T213 137T276 114V515Z" />
<glyph unicode="&#xa3;" glyph-name="null" horiz-adv-x="545" d="M143 315H74V360H143V448Q143 475 148 509T172 574T227 626T326 648Q359 648 385 639T429 617T459 595T472 582L443 550Q438 556 428 565T404 584T369 599T324 605Q284 605 259 592T218 557T198
503T192 436V360H402V315H192V45H504V0H143V315Z" />
<glyph unicode="&#xa4;" glyph-name="null" horiz-adv-x="545" d="M45 154L114 221Q94 247 84 277T73 343Q73 377 83 407T113 464L45 531L79 566L147 499Q173 520 205 532T274 544Q309 544 341 532T399 500L467 566L501 531L433 465Q453 439 464 409T475 343Q475
308 464 277T433 220L501 154L467 118L399 185Q373 165 341 154T274 142Q201 142 148 186L79 118L45 154ZM118 343Q118 311 130 283T164 233T213 200T274 187Q306 187 334 199T384 233T417 282T430 343Q430 375 418 403T384 453T335 486T274 499Q242 499 214 487T164
453T131 404T118 343Z" />
<glyph unicode="&#xa5;" glyph-name="null" horiz-adv-x="545" d="M70 181H253V275L248 282H70V322H222L35 631H91L274 322L458 631H512L326 322H471V282H301L297 275V181H471V141H297V0H253V141H70V181Z" />
<glyph unicode="&#xa6;" glyph-name="null" horiz-adv-x="215" d="M86 833H129V454H86V833ZM86 215H129V-164H86V215Z" />
<glyph unicode="&#xa7;" glyph-name="null" horiz-adv-x="481" d="M217 306Q193 321 168 339T123 381T91 434T78 502Q78 540 93 573T133 631T192 670T262 684Q289 684 311 679T350 667T380 652T398 639L372 600Q343 621 316 630T261 640Q228 640 203 628T161 595T136
551T127 504Q127 473 138 450T165 408T199 377T232 355L414 238L388 198L217 306ZM121 -129Q153 -150 179 -159T243 -169Q279 -169 304 -157T346 -124T369 -80T377 -33Q377 -2 366 21T339 63T305 94T272 116L90 233L116 273L287 165Q311 150 336 132T381 90T413
37T426 -31Q426 -69 413 -102T375 -160T316 -199T242 -213Q187 -213 151 -196T96 -165L121 -129Z" />
<glyph unicode="&#xa8;" glyph-name="null" horiz-adv-x="350" d="M219 628H279V565H219V628ZM71 628H131V565H71V628Z" />
<glyph unicode="&#xa9;" glyph-name="null" horiz-adv-x="808" d="M561 223Q536 185 496 163T407 140Q366 140 332 154T272 194T234 254T220 330Q220 370 234 405T274 465T333 505T407 520Q456 520 496 498T561 438L526 414Q506 442 474 460T407 478Q377 478 352
467T308 435T278 388T267 330Q267 300 277 274T305 227T349 195T407 183Q446 183 477 202T529 250L561 223ZM404 27Q469 27 523 51T617 116T679 214T701 333Q701 396 679 452T618 549T524 615T404 639Q339 639 285 615T190 550T128 452T106 333Q106 270 128 214T190
117T284 51T404 27ZM56 334Q56 407 83 470T157 581T267 656T405 683Q478 683 541 656T651 582T725 471T752 334Q752 261 725 198T652 87T542 12T405 -15Q331 -15 268 12T157 86T83 197T56 334Z" />
<glyph unicode="&#xaa;" glyph-name="null" horiz-adv-x="384" d="M280 499Q266 501 246 502T200 504Q169 504 150 497T121 480T108 459T104 437Q104 412 122 400T172 387Q191 387 210 392T244 408T270 433T280 465V499ZM72 607Q86 620 116 634T188 648Q248 648
284 625T320 547V423Q320 399 320 385T322 359H283Q282 369 282 375T281 393Q257 370 224 361T165 351Q146 351 127 355T93 368T69 394T59 437Q59 481 93 510T200 539Q223 539 243 537T278 533V542Q278 582 253 596T189 610Q154 610 131 599T96 578L72 607Z" />
<glyph unicode="&#xab;" glyph-name="null" horiz-adv-x="450" d="M77 234L183 426H232L127 234L232 42H183L77 234ZM225 234L331 426H380L275 234L380 42H331L225 234Z" />
<glyph unicode="&#xac;" glyph-name="null" horiz-adv-x="545" d="M72 346H473V182H428V301H72V346Z" />
<glyph unicode="&#xad;" glyph-name="null" horiz-adv-x="437" d="M81 304H356V259H81V304Z" />
<glyph unicode="&#xae;" glyph-name="null" horiz-adv-x="808" d="M296 515H418Q479 515 508 485T537 411Q537 372 518 344T459 302L549 150H500L413 297H339V150H296V515ZM417 334Q454 334 473 354T493 410Q493 478 407 478H339V334H417ZM404 27Q469 27 523 51T617
116T679 214T701 333Q701 396 679 452T618 549T524 615T404 639Q339 639 285 615T190 550T128 452T106 333Q106 270 128 214T190 117T284 51T404 27ZM56 334Q56 407 83 470T157 581T267 656T405 683Q478 683 541 656T651 582T725 471T752 334Q752 261 725 198T652
87T542 12T405 -15Q331 -15 268 12T157 86T83 197T56 334Z" />
<glyph unicode="&#xaf;" glyph-name="null" horiz-adv-x="353" d="M60 619H293V577H60V619Z" />
<glyph unicode="&#xb0;" glyph-name="null" horiz-adv-x="323" d="M31 519Q31 547 41 570T68 611T110 638T161 648Q189 648 213 639T254 612T282 571T292 520Q292 492 282 469T255 428T213 401T162 391Q134 391 110 400T69 427T41 468T31 519ZM162 431Q180 431
195 438T223 457T242 486T249 520Q249 538 242 553T223 581T195 600T161 607Q143 607 128 600T100 581T81 553T74 519Q74 501 81 485T100 457T128 438T162 431Z" />
<glyph unicode="&#xb1;" glyph-name="null" horiz-adv-x="545" d="M72 343H250V516H295V343H473V298H297V124H251V298H72V343ZM72 46H473V1H72V46Z" />
<glyph unicode="&#xb2;" glyph-name="null" horiz-adv-x="360" d="M49 336Q49 354 57 369T80 397T113 422T150 445Q168 456 185 467T215 490T237 515T246 545Q246 578 223 593T168 608Q138 608 113 594T73 559L43 586Q60 608 93 628T172 648Q203 648 226 640T264
617T286 585T293 548Q293 523 283 504T256 468T219 439T178 415Q147 397 123 380T98 338H296V298H49V336Z" />
<glyph unicode="&#xb3;" glyph-name="null" horiz-adv-x="360" d="M64 352Q81 339 102 332T150 325Q192 325 219 344T246 398Q246 418 239 431T221 453T196 465T165 469Q156 469 146 468T127 464L115 487L222 604H67V638H277V610L171 499Q175 500 179 500T189
501Q236 501 263 471T290 401Q290 351 253 320T151 288Q119 288 93 296T42 319L64 352Z" />
<glyph unicode="&#xb4;" glyph-name="null" horiz-adv-x="244" d="M125 667H180L105 539H63L125 667Z" />
<glyph unicode="&#xb5;" glyph-name="null" horiz-adv-x="528" d="M64 460H110V205Q110 161 114 134T127 90Q146 55 175 43T244 30Q287 30 319 48T371 94T402 156T412 223V460H457V97Q457 77 457 64T457 41T457 21T459 0H417Q416 11 416 20T415 39T414 63T414
96Q406 81 392 62T357 27T307 -1T238 -12Q193 -12 163 -1T110 39V-200H64V460Z" />
<glyph unicode="&#xb6;" glyph-name="null" horiz-adv-x="503" d="M282 316Q241 316 201 324T128 353T76 407T56 491Q56 541 76 574T128 628T200 658T282 667V316ZM370 667H417V-122H370V667ZM235 261Q249 259 260 259T282 258V-122H235V261Z" />
<glyph unicode="&#xb7;" glyph-name="null" horiz-adv-x="208" d="M71 360H139V290H71V360Z" />
<glyph unicode="&#xb8;" glyph-name="null" horiz-adv-x="339" d="M76 -165Q90 -171 109 -176T152 -182Q188 -182 207 -170T227 -134Q227 -114 212 -103T164 -91Q144 -91 127 -94T86 -106L92 -71Q104 -67 121 -62T176 -56Q200 -56 218 -63T247 -80T263 -105T269
-132Q269 -174 237 -195T155 -217Q118 -217 99 -211T68 -199L76 -165Z" />
<glyph unicode="&#xb9;" glyph-name="null" horiz-adv-x="360" d="M187 594L83 544L67 577L193 638H231V298H187V594Z" />
<glyph unicode="&#xba;" glyph-name="null" horiz-adv-x="387" d="M41 499Q41 530 52 557T83 604T131 636T194 648Q228 648 256 636T304 604T335 557T346 499Q346 468 335 441T304 394T256 362T194 350Q159 350 131 361T83 393T52 441T41 499ZM194 388Q222 388
243 398T277 424T297 460T304 499Q304 518 298 538T278 573T243 599T194 609Q165 609 144 599T110 574T90 538T83 499Q83 480 89 460T109 424T144 398T194 388Z" />
<glyph unicode="&#xbb;" glyph-name="null" horiz-adv-x="450" d="M335 234L230 426H279L385 234L279 42H230L335 234ZM187 234L82 426H131L237 234L131 42H82L187 234Z" />
<glyph unicode="&#xbc;" glyph-name="null" horiz-adv-x="840" d="M415 594L311 544L295 577L421 638H459V298H415V594ZM585 630H636L230 0H179L585 630ZM505 112L694 341H739V113H782V77H739V2H699V77H505V112ZM699 113V292L552 113H699Z" />
<glyph unicode="&#xbd;" glyph-name="null" horiz-adv-x="840" d="M425 594L321 544L305 577L431 638H469V298H425V594ZM556 630H607L201 0H150L556 630ZM525 39Q525 57 533 72T556 100T589 125T626 148Q644 159 661 170T691 193T713 218T722 248Q722 281 699
296T644 311Q614 311 589 297T549 262L519 289Q536 311 569 331T648 351Q679 351 702 343T740 320T762 288T769 251Q769 226 759 207T732 171T695 142T654 118Q623 100 599 83T574 41H772V1H525V39Z" />
<glyph unicode="&#xbe;" glyph-name="null" horiz-adv-x="840" d="M67 352Q84 339 105 332T153 325Q195 325 222 344T249 398Q249 418 242 431T224 453T199 465T168 469Q159 469 149 468T130 464L118 487L225 604H70V638H280V610L174 499Q178 500 182 500T192
501Q239 501 266 471T293 401Q293 351 256 320T154 288Q122 288 96 296T45 319L67 352ZM607 630H658L252 0H201L607 630ZM517 112L706 341H751V113H794V77H751V2H711V77H517V112ZM711 113V292L564 113H711Z" />
<glyph unicode="&#xbf;" glyph-name="null" horiz-adv-x="496" d="M324 256Q324 218 314 190T288 141T251 104T209 72Q191 59 175 46T146 16T126 -21T118 -68Q118 -121 161 -149T272 -178Q328 -178 368 -158T442 -97L474 -128Q443 -166 392 -194T272 -223Q223
-223 185 -211T122 -178T83 -128T69 -65Q69 -34 78 -11T103 33T142 72T192 111Q210 124 226 138T254 169T273 209T280 261V294H324V256ZM333 395H270V460H333V395Z" />
<glyph unicode="&#xc0;" glyph-name="null" horiz-adv-x="634" d="M293 667H341L614 0H559L472 215H158L72 0H20L293 667ZM454 260L315 606L176 260H454ZM222 866H283L358 725H314L222 866Z" />
<glyph unicode="&#xc1;" glyph-name="null" horiz-adv-x="634" d="M293 667H341L614 0H559L472 215H158L72 0H20L293 667ZM454 260L315 606L176 260H454ZM353 866H417L323 725H279L353 866Z" />
<glyph unicode="&#xc2;" glyph-name="null" horiz-adv-x="634" d="M293 667H341L614 0H559L472 215H158L72 0H20L293 667ZM454 260L315 606L176 260H454ZM288 866H341L454 725H402L313 833L224 725H171L288 866Z" />
<glyph unicode="&#xc3;" glyph-name="null" horiz-adv-x="634" d="M293 667H341L614 0H559L472 215H158L72 0H20L293 667ZM454 260L315 606L176 260H454ZM149 789Q169 811 195 825T251 840Q275 840 292 833T323 817T352 801T383 793Q403 793 419 801T457 830L485
800Q465 778 439 764T383 750Q359 750 343 757T312 773T283 789T251 797Q231 797 213 789T174 760L149 789Z" />
<glyph unicode="&#xc4;" glyph-name="null" horiz-adv-x="634" d="M293 667H341L614 0H559L472 215H158L72 0H20L293 667ZM454 260L315 606L176 260H454ZM367 829H433V760H367V829ZM201 829H267V760H201V829Z" />
<glyph unicode="&#xc5;" glyph-name="null" horiz-adv-x="634" d="M280 636Q250 647 231 673T212 734Q212 781 242 810T316 839Q361 839 391 810T422 736Q422 699 403 673T353 636L614 0H559L472 215H158L72 0H20L280 636ZM454 260L315 606L176 260H454ZM318 667Q344
667 363 686T383 736Q383 765 364 783T316 802Q289 802 270 783T251 734Q251 707 269 687T318 667Z" />
<glyph unicode="&#xc6;" glyph-name="null" horiz-adv-x="950" d="M455 667H879V622H527V370H802V325H527V45H905V0H479V195H194L65 0H10L455 667ZM479 240V625L224 240H479Z" />
<glyph unicode="&#xc7;" glyph-name="null" horiz-adv-x="672" d="M621 111Q615 101 599 80T553 38T480 0T378 -16Q306 -16 247 10T145 84T79 195T56 334Q56 407 79 470T144 581T246 656T378 683Q437 683 480 667T552 630T598 587T621 556L585 531Q579 539 566
556T528 592T467 624T380 638Q316 638 266 615T180 550T127 454T108 334Q108 270 127 215T181 118T267 53T383 29Q430 29 465 43T525 75T564 110T585 136L621 111ZM278 -160Q292 -166 312 -171T357 -177Q435 -177 435 -132Q435 -93 370 -93Q349 -93 330 -96T288
-108L295 -68Q313 -62 332 -58T384 -53Q410 -53 428 -60T459 -78T476 -103T482 -130Q482 -172 448 -194T363 -217Q327 -217 305 -211T270 -199L278 -160Z" />
<glyph unicode="&#xc8;" glyph-name="null" horiz-adv-x="557" d="M86 667H486V622H134V370H409V325H134V45H512V0H86V667ZM206 866H267L342 725H298L206 866Z" />
<glyph unicode="&#xc9;" glyph-name="null" horiz-adv-x="557" d="M86 667H486V622H134V370H409V325H134V45H512V0H86V667ZM325 866H389L295 725H251L325 866Z" />
<glyph unicode="&#xca;" glyph-name="null" horiz-adv-x="557" d="M86 667H486V622H134V370H409V325H134V45H512V0H86V667ZM264 866H317L430 725H378L289 833L200 725H147L264 866Z" />
<glyph unicode="&#xcb;" glyph-name="null" horiz-adv-x="557" d="M86 667H486V622H134V370H409V325H134V45H512V0H86V667ZM336 829H402V760H336V829ZM170 829H236V760H170V829Z" />
<glyph unicode="&#xcc;" glyph-name="null" horiz-adv-x="220" d="M86 667H134V0H86V667ZM263 866H324L399 725H355L263 866Z" />
<glyph unicode="&#xcd;" glyph-name="null" horiz-adv-x="220" d="M86 667H134V0H86V667ZM155 866H219L125 725H81L155 866Z" />
<glyph unicode="&#xce;" glyph-name="null" horiz-adv-x="220" d="M86 667H134V0H86V667ZM344 866H397L510 725H458L369 833L280 725H227L344 866Z" />
<glyph unicode="&#xcf;" glyph-name="null" horiz-adv-x="220" d="M86 667H134V0H86V667ZM417 829H483V760H417V829ZM251 829H317V760H251V829Z" />
<glyph unicode="&#xd0;" glyph-name="null" horiz-adv-x="711" d="M100 323H20V365H100V667H282Q364 667 432 648T550 588T627 484T655 334Q655 247 628 184T551 80T433 20T282 0H100V323ZM292 45Q363 45 420 62T519 116T582 206T604 334Q604 407 582 461T518
551T417 604T284 622H148V365H339V323H148V45H292Z" />
<glyph unicode="&#xd1;" glyph-name="null" horiz-adv-x="697" d="M86 667H136L564 72V667H611V0H561L133 587V0H86V667ZM182 789Q202 811 228 825T284 840Q308 840 325 833T356 817T385 801T416 793Q436 793 452 801T490 830L518 800Q498 778 472 764T416 750Q392
750 376 757T345 773T316 789T284 797Q264 797 246 789T207 760L182 789Z" />
<glyph unicode="&#xd2;" glyph-name="null" horiz-adv-x="774" d="M387 -16Q315 -16 255 11T150 85T81 195T56 333Q56 406 81 470T150 581T254 656T387 683Q459 683 519 656T624 582T693 470T718 333Q718 259 693 196T624 85T520 11T387 -16ZM387 29Q450 29 502
52T590 117T647 214T667 333Q667 396 647 452T591 549T502 614T387 638Q324 638 272 614T184 549T127 452T107 333Q107 270 127 215T183 118T272 53T387 29ZM299 866H360L435 725H391L299 866Z" />
<glyph unicode="&#xd3;" glyph-name="null" horiz-adv-x="774" d="M387 -16Q315 -16 255 11T150 85T81 195T56 333Q56 406 81 470T150 581T254 656T387 683Q459 683 519 656T624 582T693 470T718 333Q718 259 693 196T624 85T520 11T387 -16ZM387 29Q450 29 502
52T590 117T647 214T667 333Q667 396 647 452T591 549T502 614T387 638Q324 638 272 614T184 549T127 452T107 333Q107 270 127 215T183 118T272 53T387 29ZM433 866H497L403 725H359L433 866Z" />
<glyph unicode="&#xd4;" glyph-name="null" horiz-adv-x="774" d="M387 -16Q315 -16 255 11T150 85T81 195T56 333Q56 406 81 470T150 581T254 656T387 683Q459 683 519 656T624 582T693 470T718 333Q718 259 693 196T624 85T520 11T387 -16ZM387 29Q450 29 502
52T590 117T647 214T667 333Q667 396 647 452T591 549T502 614T387 638Q324 638 272 614T184 549T127 452T107 333Q107 270 127 215T183 118T272 53T387 29ZM358 866H411L524 725H472L383 833L294 725H241L358 866Z" />
<glyph unicode="&#xd5;" glyph-name="null" horiz-adv-x="774" d="M387 -16Q315 -16 255 11T150 85T81 195T56 333Q56 406 81 470T150 581T254 656T387 683Q459 683 519 656T624 582T693 470T718 333Q718 259 693 196T624 85T520 11T387 -16ZM387 29Q450 29 502
52T590 117T647 214T667 333Q667 396 647 452T591 549T502 614T387 638Q324 638 272 614T184 549T127 452T107 333Q107 270 127 215T183 118T272 53T387 29ZM221 789Q241 811 267 825T323 840Q347 840 364 833T395 817T424 801T455 793Q475 793 491 801T529 830L557
800Q537 778 511 764T455 750Q431 750 415 757T384 773T355 789T323 797Q303 797 285 789T246 760L221 789Z" />
<glyph unicode="&#xd6;" glyph-name="null" horiz-adv-x="774" d="M387 -16Q315 -16 255 11T150 85T81 195T56 333Q56 406 81 470T150 581T254 656T387 683Q459 683 519 656T624 582T693 470T718 333Q718 259 693 196T624 85T520 11T387 -16ZM387 29Q450 29 502
52T590 117T647 214T667 333Q667 396 647 452T591 549T502 614T387 638Q324 638 272 614T184 549T127 452T107 333Q107 270 127 215T183 118T272 53T387 29ZM436 829H502V760H436V829ZM270 829H336V760H270V829Z" />
<glyph unicode="&#xd7;" glyph-name="null" horiz-adv-x="545" d="M241 320L106 455L138 487L273 352L407 487L439 455L304 321L439 186L407 154L273 289L138 154L106 186L241 320Z" />
<glyph unicode="&#xd8;" glyph-name="null" horiz-adv-x="774" d="M167 68Q115 116 86 184T57 333Q57 406 82 470T151 581T255 656T388 683Q438 683 482 670T564 632L623 716L659 693L598 607Q655 559 687 489T719 333Q719 259 694 196T625 85T521 11T388 -16Q334
-16 287 -1T201 41L137 -49L101 -26L167 68ZM227 79Q260 55 300 42T388 29Q451 29 503 52T591 117T648 214T668 333Q668 405 643 466T571 569L227 79ZM538 595Q506 615 469 626T388 638Q325 638 273 614T185 549T128 452T108 333Q108 265 130 207T194 107L538 595Z"
/>
<glyph unicode="&#xd9;" glyph-name="null" horiz-adv-x="672" d="M81 667H129V291Q129 234 138 186T170 103T234 49T336 29Q398 29 438 48T501 103T534 186T543 291V667H591V266Q591 207 579 156T537 66T458 6T336 -16Q263 -16 214 6T136 66T94 155T81 266V667ZM255
866H316L391 725H347L255 866Z" />
<glyph unicode="&#xda;" glyph-name="null" horiz-adv-x="672" d="M81 667H129V291Q129 234 138 186T170 103T234 49T336 29Q398 29 438 48T501 103T534 186T543 291V667H591V266Q591 207 579 156T537 66T458 6T336 -16Q263 -16 214 6T136 66T94 155T81 266V667ZM361
866H425L331 725H287L361 866Z" />
<glyph unicode="&#xdb;" glyph-name="null" horiz-adv-x="672" d="M81 667H129V291Q129 234 138 186T170 103T234 49T336 29Q398 29 438 48T501 103T534 186T543 291V667H591V266Q591 207 579 156T537 66T458 6T336 -16Q263 -16 214 6T136 66T94 155T81 266V667ZM311
866H364L477 725H425L336 833L247 725H194L311 866Z" />
<glyph unicode="&#xdc;" glyph-name="null" horiz-adv-x="672" d="M81 667H129V291Q129 234 138 186T170 103T234 49T336 29Q398 29 438 48T501 103T534 186T543 291V667H591V266Q591 207 579 156T537 66T458 6T336 -16Q263 -16 214 6T136 66T94 155T81 266V667ZM386
829H452V760H386V829ZM220 829H286V760H220V829Z" />
<glyph unicode="&#xdd;" glyph-name="null" d="M246 306L16 667H74L271 353L468 667H524L294 306V0H246V306ZM314 866H378L284 725H240L314 866Z" />
<glyph unicode="&#xde;" glyph-name="null" horiz-adv-x="578" d="M86 667H134V535H291Q356 535 400 521T472 480T511 419T523 343Q523 302 511 267T472 206T401 166T291 151H134V0H86V667ZM305 196Q389 196 430 233T471 343Q471 415 430 452T305 490H134V196H305Z" />
<glyph unicode="&#xdf;" glyph-name="null" horiz-adv-x="557" d="M69 478Q69 536 83 575T123 639T182 673T255 683Q291 683 319 673T366 647T396 608T407 560Q407 516 387 488T343 438T299 393T279 339Q279 312 296 297T339 272T394 253T450 229T493 187T510
117Q510 60 470 21T352 -18Q303 -18 267 -5T202 27L227 64Q254 43 286 33T350 23Q405 23 432 48T460 115Q460 152 444 172T402 204T347 224T293 244T251 277T234 336Q234 363 243 383T267 420T297 451T328 481T351 513T361 553Q361 587 337 614T254 641Q212 641
185 629T143 594T121 540T114 472V0H69V478Z" />
<glyph unicode="&#xe0;" glyph-name="null" horiz-adv-x="492" d="M380 235Q359 240 328 243T247 247Q196 247 166 235T121 204T101 164T96 125Q96 75 129 52T215 29Q249 29 279 41T331 73T367 118T380 170V235ZM384 0Q383 9 383 20Q382 30 382 44T382 77Q364
51 343 34T298 6T252 -8T210 -12Q181 -12 152 -6T100 15T63 57T48 125Q48 158 59 187T94 238T156 272T248 285Q290 285 323 282T379 275V301Q379 339 370 364T343 404T299 425T239 431Q182 431 149 415T97 383L73 414Q92 432 134 452T238 472Q327 472 375 434T424
308V96Q424 76 424 59T425 28Q426 12 427 0H384ZM172 670H230L290 542H248L172 670Z" />
<glyph unicode="&#xe1;" glyph-name="null" horiz-adv-x="492" d="M380 235Q359 240 328 243T247 247Q196 247 166 235T121 204T101 164T96 125Q96 75 129 52T215 29Q249 29 279 41T331 73T367 118T380 170V235ZM384 0Q383 9 383 20Q382 30 382 44T382 77Q364
51 343 34T298 6T252 -8T210 -12Q181 -12 152 -6T100 15T63 57T48 125Q48 158 59 187T94 238T156 272T248 285Q290 285 323 282T379 275V301Q379 339 370 364T343 404T299 425T239 431Q182 431 149 415T97 383L73 414Q92 432 134 452T238 472Q327 472 375 434T424
308V96Q424 76 424 59T425 28Q426 12 427 0H384ZM272 667H327L252 539H210L272 667Z" />
<glyph unicode="&#xe2;" glyph-name="null" horiz-adv-x="492" d="M380 235Q359 240 328 243T247 247Q196 247 166 235T121 204T101 164T96 125Q96 75 129 52T215 29Q249 29 279 41T331 73T367 118T380 170V235ZM384 0Q383 9 383 20Q382 30 382 44T382 77Q364
51 343 34T298 6T252 -8T210 -12Q181 -12 152 -6T100 15T63 57T48 125Q48 158 59 187T94 238T156 272T248 285Q290 285 323 282T379 275V301Q379 339 370 364T343 404T299 425T239 431Q182 431 149 415T97 383L73 414Q92 432 134 452T238 472Q327 472 375 434T424
308V96Q424 76 424 59T425 28Q426 12 427 0H384ZM222 667H266L358 539H310L244 633L178 539H130L222 667Z" />
<glyph unicode="&#xe3;" glyph-name="null" horiz-adv-x="492" d="M380 235Q359 240 328 243T247 247Q196 247 166 235T121 204T101 164T96 125Q96 75 129 52T215 29Q249 29 279 41T331 73T367 118T380 170V235ZM384 0Q383 9 383 20Q382 30 382 44T382 77Q364
51 343 34T298 6T252 -8T210 -12Q181 -12 152 -6T100 15T63 57T48 125Q48 158 59 187T94 238T156 272T248 285Q290 285 323 282T379 275V301Q379 339 370 364T343 404T299 425T239 431Q182 431 149 415T97 383L73 414Q92 432 134 452T238 472Q327 472 375 434T424
308V96Q424 76 424 59T425 28Q426 12 427 0H384ZM93 592Q112 614 137 627T190 641Q213 641 229 634T259 618T286 602T316 594Q334 594 350 603T386 632L409 602Q390 580 365 567T312 554Q289 554 273 561T244 577T217 593T186 601Q168 601 152 594T116 567L93 592Z"
/>
<glyph unicode="&#xe4;" glyph-name="null" horiz-adv-x="492" d="M380 235Q359 240 328 243T247 247Q196 247 166 235T121 204T101 164T96 125Q96 75 129 52T215 29Q249 29 279 41T331 73T367 118T380 170V235ZM384 0Q383 9 383 20Q382 30 382 44T382 77Q364
51 343 34T298 6T252 -8T210 -12Q181 -12 152 -6T100 15T63 57T48 125Q48 158 59 187T94 238T156 272T248 285Q290 285 323 282T379 275V301Q379 339 370 364T343 404T299 425T239 431Q182 431 149 415T97 383L73 414Q92 432 134 452T238 472Q327 472 375 434T424
308V96Q424 76 424 59T425 28Q426 12 427 0H384ZM293 628H353V565H293V628ZM145 628H205V565H145V628Z" />
<glyph unicode="&#xe5;" glyph-name="null" horiz-adv-x="492" d="M380 235Q359 240 328 243T247 247Q196 247 166 235T121 204T101 164T96 125Q96 75 129 52T215 29Q249 29 279 41T331 73T367 118T380 170V235ZM384 0Q383 9 383 20Q382 30 382 44T382 77Q364
51 343 34T298 6T252 -8T210 -12Q181 -12 152 -6T100 15T63 57T48 125Q48 158 59 187T94 238T156 272T248 285Q290 285 323 282T379 275V301Q379 339 370 364T343 404T299 425T239 431Q182 431 149 415T97 383L73 414Q92 432 134 452T238 472Q327 472 375 434T424
308V96Q424 76 424 59T425 28Q426 12 427 0H384ZM148 636Q148 679 176 706T245 733Q287 733 315 706T343 637Q343 594 315 567T246 539Q204 539 176 566T148 636ZM246 573Q271 573 289 591T307 637Q307 664 289 681T245 699Q219 699 202 682T184 636Q184 609 202
591T246 573Z" />
<glyph unicode="&#xe6;" glyph-name="null" horiz-adv-x="863" d="M73 414Q92 432 134 452T238 472Q308 472 353 449T415 372Q444 417 490 444T597 472Q644 472 684 456T754 409T800 330T817 221H425Q426 182 440 148T478 87T535 45T610 30Q631 30 653 34T697
48T735 69T765 96L797 69Q767 31 716 10T610 -12Q541 -12 489 18T407 102Q385 69 362 47T314 12T263 -6T207 -12Q181 -12 153 -6T101 15T63 56T48 123Q48 156 59 183T95 229T157 260T248 271Q286 271 318 268T379 263V301Q379 339 370 364T343 404T299 425T239
431Q182 431 149 415T97 383L73 414ZM380 223Q347 228 315 230T247 233Q198 233 169 222T123 195T102 159T96 123Q96 73 129 51T214 29Q248 29 278 41T331 73T367 118T380 170V223ZM768 260Q759 345 714 387T597 430Q560 430 530 417T477 381T442 327T426 260H768Z"
/>
<glyph unicode="&#xe7;" glyph-name="null" horiz-adv-x="495" d="M459 68Q430 33 384 11T277 -12Q227 -12 185 6T111 57T63 134T46 230Q46 281 63 325T112 402T185 453T277 472Q338 472 380 451T453 391L419 365Q396 395 362 412T277 430Q237 430 204 414T146
371T108 308T94 230Q94 189 108 153T146 89T204 46T277 30Q327 30 365 48T427 96L459 68ZM184 -165Q198 -171 217 -176T260 -182Q296 -182 315 -170T335 -134Q335 -114 320 -103T272 -91Q252 -91 235 -94T194 -106L200 -71Q212 -67 229 -62T284 -56Q308 -56 326
-63T355 -80T371 -105T377 -132Q377 -174 345 -195T263 -217Q226 -217 207 -211T176 -199L184 -165Z" />
<glyph unicode="&#xe8;" glyph-name="null" horiz-adv-x="534" d="M468 69Q438 31 387 10T281 -12Q230 -12 187 5T112 55T64 131T46 230Q46 280 62 324T108 401T178 453T268 472Q315 472 355 456T425 407T471 328T488 218H96Q97 179 111 145T149 85T206 45T281
30Q302 30 324 34T368 48T406 69T436 96L468 69ZM439 257Q430 342 385 386T268 430Q231 430 201 417T148 380T113 325T97 257H439ZM195 670H253L313 542H271L195 670Z" />
<glyph unicode="&#xe9;" glyph-name="null" horiz-adv-x="534" d="M468 69Q438 31 387 10T281 -12Q230 -12 187 5T112 55T64 131T46 230Q46 280 62 324T108 401T178 453T268 472Q315 472 355 456T425 407T471 328T488 218H96Q97 179 111 145T149 85T206 45T281
30Q302 30 324 34T368 48T406 69T436 96L468 69ZM439 257Q430 342 385 386T268 430Q231 430 201 417T148 380T113 325T97 257H439ZM302 667H357L282 539H240L302 667Z" />
<glyph unicode="&#xea;" glyph-name="null" horiz-adv-x="534" d="M468 69Q438 31 387 10T281 -12Q230 -12 187 5T112 55T64 131T46 230Q46 280 62 324T108 401T178 453T268 472Q315 472 355 456T425 407T471 328T488 218H96Q97 179 111 145T149 85T206 45T281
30Q302 30 324 34T368 48T406 69T436 96L468 69ZM439 257Q430 342 385 386T268 430Q231 430 201 417T148 380T113 325T97 257H439ZM246 667H290L382 539H334L268 633L202 539H154L246 667Z" />
<glyph unicode="&#xeb;" glyph-name="null" horiz-adv-x="534" d="M468 69Q438 31 387 10T281 -12Q230 -12 187 5T112 55T64 131T46 230Q46 280 62 324T108 401T178 453T268 472Q315 472 355 456T425 407T471 328T488 218H96Q97 179 111 145T149 85T206 45T281
30Q302 30 324 34T368 48T406 69T436 96L468 69ZM439 257Q430 342 385 386T268 430Q231 430 201 417T148 380T113 325T97 257H439ZM310 628H370V565H310V628ZM162 628H222V565H162V628Z" />
<glyph unicode="&#xec;" glyph-name="null" horiz-adv-x="187" d="M71 460H116V0H71V460ZM260 670H318L378 542H336L260 670Z" />
<glyph unicode="&#xed;" glyph-name="null" horiz-adv-x="187" d="M71 460H116V0H71V460ZM127 667H182L107 539H65L127 667Z" />
<glyph unicode="&#xee;" glyph-name="null" horiz-adv-x="187" d="M71 460H116V0H71V460ZM328 667H372L464 539H416L350 633L284 539H236L328 667Z" />
<glyph unicode="&#xef;" glyph-name="null" horiz-adv-x="187" d="M71 460H116V0H71V460ZM394 628H454V565H394V628ZM246 628H306V565H246V628Z" />
<glyph unicode="&#xf0;" glyph-name="null" horiz-adv-x="563" d="M257 615Q203 635 150 638L155 679Q190 677 223 669T285 649L342 721L372 698L320 633Q367 607 404 570T466 485T504 384T517 271Q517 197 498 144T445 55T368 2T275 -15Q229 -15 188 0T115 44T65
117T46 217Q46 263 63 304T111 377T186 427T284 446Q344 446 384 430T452 396Q431 470 389 519T292 598L230 520L200 543L257 615ZM464 341Q453 350 437 360T399 380T349 396T284 403Q244 403 210 390T150 351T110 292T95 215Q95 173 109 139T147 80T204 43T274
29Q310 29 345 42T407 85T452 159T469 269Q469 288 468 306T464 341Z" />
<glyph unicode="&#xf1;" glyph-name="null" horiz-adv-x="534" d="M71 363Q71 382 71 395T71 419T71 439T69 460H111Q112 449 112 440T113 421T114 397T114 364Q122 379 136 398T172 433T224 461T293 472Q342 472 375 458T430 418T460 354T469 270V0H424V255Q424
306 415 340T389 394T346 422T287 430Q243 430 211 412T158 366T127 304T116 237V0H71V363ZM109 592Q128 614 153 627T206 641Q229 641 245 634T275 618T302 602T332 594Q350 594 366 603T402 632L425 602Q406 580 381 567T328 554Q305 554 289 561T260 577T233
593T202 601Q184 601 168 594T132 567L109 592Z" />
<glyph unicode="&#xf2;" glyph-name="null" horiz-adv-x="566" d="M283 -12Q234 -12 191 7T116 59T65 136T46 230Q46 280 64 324T115 401T191 453T283 472Q332 472 375 453T450 401T501 324T520 230Q520 180 502 136T451 59T375 7T283 -12ZM283 29Q323 29 358
45T418 88T458 151T473 230Q473 270 458 306T418 371T357 415T283 431Q242 431 208 415T148 372T108 309T93 230Q93 189 108 153T148 89T209 45T283 29ZM204 670H262L322 542H280L204 670Z" />
<glyph unicode="&#xf3;" glyph-name="null" horiz-adv-x="566" d="M283 -12Q234 -12 191 7T116 59T65 136T46 230Q46 280 64 324T115 401T191 453T283 472Q332 472 375 453T450 401T501 324T520 230Q520 180 502 136T451 59T375 7T283 -12ZM283 29Q323 29 358
45T418 88T458 151T473 230Q473 270 458 306T418 371T357 415T283 431Q242 431 208 415T148 372T108 309T93 230Q93 189 108 153T148 89T209 45T283 29ZM318 667H373L298 539H256L318 667Z" />
<glyph unicode="&#xf4;" glyph-name="null" horiz-adv-x="566" d="M283 -12Q234 -12 191 7T116 59T65 136T46 230Q46 280 64 324T115 401T191 453T283 472Q332 472 375 453T450 401T501 324T520 230Q520 180 502 136T451 59T375 7T283 -12ZM283 29Q323 29 358
45T418 88T458 151T473 230Q473 270 458 306T418 371T357 415T283 431Q242 431 208 415T148 372T108 309T93 230Q93 189 108 153T148 89T209 45T283 29ZM259 667H303L395 539H347L281 633L215 539H167L259 667Z" />
<glyph unicode="&#xf5;" glyph-name="null" horiz-adv-x="566" d="M283 -12Q234 -12 191 7T116 59T65 136T46 230Q46 280 64 324T115 401T191 453T283 472Q332 472 375 453T450 401T501 324T520 230Q520 180 502 136T451 59T375 7T283 -12ZM283 29Q323 29 358
45T418 88T458 151T473 230Q473 270 458 306T418 371T357 415T283 431Q242 431 208 415T148 372T108 309T93 230Q93 189 108 153T148 89T209 45T283 29ZM126 592Q145 614 170 627T223 641Q246 641 262 634T292 618T319 602T349 594Q367 594 383 603T419 632L442
602Q423 580 398 567T345 554Q322 554 306 561T277 577T250 593T219 601Q201 601 185 594T149 567L126 592Z" />
<glyph unicode="&#xf6;" glyph-name="null" horiz-adv-x="566" d="M283 -12Q234 -12 191 7T116 59T65 136T46 230Q46 280 64 324T115 401T191 453T283 472Q332 472 375 453T450 401T501 324T520 230Q520 180 502 136T451 59T375 7T283 -12ZM283 29Q323 29 358
45T418 88T458 151T473 230Q473 270 458 306T418 371T357 415T283 431Q242 431 208 415T148 372T108 309T93 230Q93 189 108 153T148 89T209 45T283 29ZM326 628H386V565H326V628ZM178 628H238V565H178V628Z" />
<glyph unicode="&#xf7;" glyph-name="null" horiz-adv-x="545" d="M242 500H303V439H242V500ZM242 200H303V139H242V200ZM72 342H473V297H72V342Z" />
<glyph unicode="&#xf8;" glyph-name="null" horiz-adv-x="566" d="M129 45Q91 79 69 126T46 230Q46 280 64 324T115 401T191 453T283 472Q316 472 347 463T405 437L455 509L488 488L436 415Q475 381 497 334T520 230Q520 180 502 136T451 59T375 7T283 -12Q215
-12 161 22L112 -47L79 -26L129 45ZM186 58Q207 44 231 37T283 29Q323 29 358 45T418 88T458 151T473 230Q473 273 456 311T410 378L186 58ZM380 402Q358 416 334 423T283 431Q242 431 208 415T148 372T108 309T93 230Q93 187 109 149T155 82L380 402Z" />
<glyph unicode="&#xf9;" glyph-name="null" horiz-adv-x="528" d="M65 460H110V205Q110 154 118 120T144 66T186 38T244 30Q287 30 319 48T371 94T402 156T412 223V460H457V97Q457 77 457 64T457 41T457 21T459 0H417Q416 11 416 20T415 39T414 63T414 96Q406
81 392 62T357 27T307 -1T238 -12Q189 -12 156 2T103 42T74 106T65 190V460ZM182 670H240L300 542H258L182 670Z" />
<glyph unicode="&#xfa;" glyph-name="null" horiz-adv-x="528" d="M65 460H110V205Q110 154 118 120T144 66T186 38T244 30Q287 30 319 48T371 94T402 156T412 223V460H457V97Q457 77 457 64T457 41T457 21T459 0H417Q416 11 416 20T415 39T414 63T414 96Q406
81 392 62T357 27T307 -1T238 -12Q189 -12 156 2T103 42T74 106T65 190V460ZM293 667H348L273 539H231L293 667Z" />
<glyph unicode="&#xfb;" glyph-name="null" horiz-adv-x="528" d="M65 460H110V205Q110 154 118 120T144 66T186 38T244 30Q287 30 319 48T371 94T402 156T412 223V460H457V97Q457 77 457 64T457 41T457 21T459 0H417Q416 11 416 20T415 39T414 63T414 96Q406
81 392 62T357 27T307 -1T238 -12Q189 -12 156 2T103 42T74 106T65 190V460ZM240 667H284L376 539H328L262 633L196 539H148L240 667Z" />
<glyph unicode="&#xfc;" glyph-name="null" horiz-adv-x="528" d="M65 460H110V205Q110 154 118 120T144 66T186 38T244 30Q287 30 319 48T371 94T402 156T412 223V460H457V97Q457 77 457 64T457 41T457 21T459 0H417Q416 11 416 20T415 39T414 63T414 96Q406
81 392 62T357 27T307 -1T238 -12Q189 -12 156 2T103 42T74 106T65 190V460ZM303 628H363V565H303V628ZM155 628H215V565H155V628Z" />
<glyph unicode="&#xfd;" glyph-name="null" horiz-adv-x="462" d="M45 -149Q54 -158 69 -165T105 -172Q135 -172 151 -151T183 -91L221 6L16 460H67L244 61L397 460H446L220 -109Q214 -124 205 -142T183 -175T150 -201T105 -212Q76 -212 57 -204T22 -181L45 -149ZM259
667H314L239 539H197L259 667Z" />
<glyph unicode="&#xfe;" glyph-name="null" horiz-adv-x="538" d="M70 666H115V375Q120 384 131 400T162 432T213 460T285 472Q338 472 377 453T441 401T479 324T492 227Q492 173 475 129T426 54T352 5T259 -12Q210 -12 175 1T115 29V-200H71L70 666ZM115 80Q122
75 134 67T164 50T205 36T259 30Q297 30 331 43T390 81T429 142T444 227Q444 267 435 304T407 369T356 413T280 430Q250 430 226 421T182 397T149 361T127 318Q120 300 118 275T115 224V80Z" />
<glyph unicode="&#xff;" glyph-name="null" horiz-adv-x="462" d="M45 -149Q54 -158 69 -165T105 -172Q135 -172 151 -151T183 -91L221 6L16 460H67L244 61L397 460H446L220 -109Q214 -124 205 -142T183 -175T150 -201T105 -212Q76 -212 57 -204T22 -181L45 -149ZM276
628H336V565H276V628ZM128 628H188V565H128V628Z" />
<glyph unicode="&#x100;" glyph-name="null" horiz-adv-x="634" d="M293 667H341L614 0H559L472 215H158L72 0H20L293 667ZM454 260L315 606L176 260H454ZM159 814H475V772H159V814Z" />
<glyph unicode="&#x101;" glyph-name="null" horiz-adv-x="492" d="M380 235Q359 240 328 243T247 247Q196 247 166 235T121 204T101 164T96 125Q96 75 129 52T215 29Q249 29 279 41T331 73T367 118T380 170V235ZM384 0Q383 9 383 20Q382 30 382 44T382 77Q364
51 343 34T298 6T252 -8T210 -12Q181 -12 152 -6T100 15T63 57T48 125Q48 158 59 187T94 238T156 272T248 285Q290 285 323 282T379 275V301Q379 339 370 364T343 404T299 425T239 431Q182 431 149 415T97 383L73 414Q92 432 134 452T238 472Q327 472 375 434T424
308V96Q424 76 424 59T425 28Q426 12 427 0H384ZM130 619H363V577H130V619Z" />
<glyph unicode="&#x102;" glyph-name="null" horiz-adv-x="634" d="M293 667H341L614 0H559L472 215H158L72 0H20L293 667ZM454 260L315 606L176 260H454ZM232 841Q234 812 256 793T318 774Q358 774 380 793T405 841H448Q447 821 439 802T415 768T374 744T318
735Q286 735 262 744T221 768T197 802T187 841H232Z" />
<glyph unicode="&#x103;" glyph-name="null" horiz-adv-x="492" d="M380 235Q359 240 328 243T247 247Q196 247 166 235T121 204T101 164T96 125Q96 75 129 52T215 29Q249 29 279 41T331 73T367 118T380 170V235ZM384 0Q383 9 383 20Q382 30 382 44T382 77Q364
51 343 34T298 6T252 -8T210 -12Q181 -12 152 -6T100 15T63 57T48 125Q48 158 59 187T94 238T156 272T248 285Q290 285 323 282T379 275V301Q379 339 370 364T343 404T299 425T239 431Q182 431 149 415T97 383L73 414Q92 432 134 452T238 472Q327 472 375 434T424
308V96Q424 76 424 59T425 28Q426 12 427 0H384ZM175 648Q175 619 196 599T252 579Q287 579 308 599T330 648H367Q367 628 360 609T338 575T302 551T252 542Q223 542 202 551T166 575T145 609T137 648H175Z" />
<glyph unicode="&#x104;" glyph-name="null" horiz-adv-x="634" d="M669 -172Q646 -189 621 -196T571 -204Q532 -204 508 -185T484 -130Q484 -112 491 -95T508 -61T532 -29T559 0L472 215H158L72 0H20L293 667H341L614 0Q580 -29 558 -61T536 -120Q536 -140 548
-150T582 -161Q601 -161 616 -154T649 -136L669 -172ZM454 260L315 606L176 260H454Z" />
<glyph unicode="&#x105;" glyph-name="null" horiz-adv-x="492" d="M489 -173Q469 -188 445 -195T398 -203Q363 -203 338 -184T312 -128Q312 -93 334 -57T384 5Q384 8 383 24T382 77Q364 51 342 34T297 6T251 -8T207 -12Q179 -12 151 -6T100 15T63 57T48 125Q48
158 59 187T94 238T156 272T248 285Q290 285 323 282T379 275V301Q379 339 370 364T343 404T299 425T239 431Q182 431 149 415T97 383L73 414Q92 432 134 452T238 472Q327 472 375 434T424 308V96Q424 57 425 32T427 0Q396 -29 377 -60T357 -118Q357 -140 370 -151T405
-162Q424 -162 440 -156T472 -139L489 -173ZM380 235Q359 240 328 243T247 247Q196 247 166 235T121 204T101 164T96 125Q96 75 129 52T212 29Q247 29 278 41T331 73T367 118T380 170V235Z" />
<glyph unicode="&#x106;" glyph-name="null" horiz-adv-x="672" d="M621 111Q615 101 599 80T553 38T480 0T378 -16Q306 -16 247 10T145 84T79 195T56 334Q56 407 79 470T144 581T246 656T378 683Q437 683 480 667T552 630T598 587T621 556L585 531Q579 539 566
556T528 592T467 624T380 638Q316 638 266 615T180 550T127 454T108 334Q108 270 127 215T181 118T267 53T383 29Q430 29 465 43T525 75T564 110T585 136L621 111ZM407 866H471L377 725H333L407 866Z" />
<glyph unicode="&#x107;" glyph-name="null" horiz-adv-x="495" d="M459 68Q430 33 384 11T277 -12Q227 -12 185 6T111 57T63 134T46 230Q46 281 63 325T112 402T185 453T277 472Q338 472 380 451T453 391L419 365Q396 395 362 412T277 430Q237 430 204 414T146
371T108 308T94 230Q94 189 108 153T146 89T204 46T277 30Q327 30 365 48T427 96L459 68ZM310 667H365L290 539H248L310 667Z" />
<glyph unicode="&#x108;" glyph-name="null" horiz-adv-x="672" d="M621 111Q615 101 599 80T553 38T480 0T378 -16Q306 -16 247 10T145 84T79 195T56 334Q56 407 79 470T144 581T246 656T378 683Q437 683 480 667T552 630T598 587T621 556L585 531Q579 539 566
556T528 592T467 624T380 638Q316 638 266 615T180 550T127 454T108 334Q108 270 127 215T181 118T267 53T383 29Q430 29 465 43T525 75T564 110T585 136L621 111ZM349 866H402L515 725H463L374 833L285 725H232L349 866Z" />
<glyph unicode="&#x109;" glyph-name="null" horiz-adv-x="495" d="M459 68Q430 33 384 11T277 -12Q227 -12 185 6T111 57T63 134T46 230Q46 281 63 325T112 402T185 453T277 472Q338 472 380 451T453 391L419 365Q396 395 362 412T277 430Q237 430 204 414T146
371T108 308T94 230Q94 189 108 153T146 89T204 46T277 30Q327 30 365 48T427 96L459 68ZM252 667H296L388 539H340L274 633L208 539H160L252 667Z" />
<glyph unicode="&#x10a;" glyph-name="null" horiz-adv-x="672" d="M621 111Q615 101 599 80T553 38T480 0T378 -16Q306 -16 247 10T145 84T79 195T56 334Q56 407 79 470T144 581T246 656T378 683Q437 683 480 667T552 630T598 587T621 556L585 531Q579 539 566
556T528 592T467 624T380 638Q316 638 266 615T180 550T127 454T108 334Q108 270 127 215T181 118T267 53T383 29Q430 29 465 43T525 75T564 110T585 136L621 111ZM336 831H408V760H336V831Z" />
<glyph unicode="&#x10b;" glyph-name="null" horiz-adv-x="495" d="M459 68Q430 33 384 11T277 -12Q227 -12 185 6T111 57T63 134T46 230Q46 281 63 325T112 402T185 453T277 472Q338 472 380 451T453 391L419 365Q396 395 362 412T277 430Q237 430 204 414T146
371T108 308T94 230Q94 189 108 153T146 89T204 46T277 30Q327 30 365 48T427 96L459 68ZM240 630H303V564H240V630Z" />
<glyph unicode="&#x10c;" glyph-name="null" horiz-adv-x="672" d="M621 111Q615 101 599 80T553 38T480 0T378 -16Q306 -16 247 10T145 84T79 195T56 334Q56 407 79 470T144 581T246 656T378 683Q437 683 480 667T552 630T598 587T621 556L585 531Q579 539 566
556T528 592T467 624T380 638Q316 638 266 615T180 550T127 454T108 334Q108 270 127 215T181 118T267 53T383 29Q430 29 465 43T525 75T564 110T585 136L621 111ZM234 866H286L375 758L464 866H517L400 725H347L234 866Z" />
<glyph unicode="&#x10d;" glyph-name="null" horiz-adv-x="495" d="M459 68Q430 33 384 11T277 -12Q227 -12 185 6T111 57T63 134T46 230Q46 281 63 325T112 402T185 453T277 472Q338 472 380 451T453 391L419 365Q396 395 362 412T277 430Q237 430 204 414T146
371T108 308T94 230Q94 189 108 153T146 89T204 46T277 30Q327 30 365 48T427 96L459 68ZM159 667H207L273 573L339 667H387L295 539H251L159 667Z" />
<glyph unicode="&#x10e;" glyph-name="null" horiz-adv-x="697" d="M86 667H268Q350 667 418 648T536 588T613 484T641 334Q641 247 614 184T537 80T419 20T268 0H86V667ZM278 45Q349 45 406 62T505 116T568 206T590 334Q590 407 568 461T504 551T403 604T270
622H134V45H278ZM155 866H207L296 758L385 866H438L321 725H268L155 866Z" />
<glyph unicode="&#x10f;" glyph-name="null" horiz-adv-x="594" d="M425 0Q424 13 424 26Q423 37 423 51T423 80Q408 54 383 34Q362 17 330 3T253 -12Q200 -12 161 6T97 57T59 132T46 226Q46 282 63 327T112 405T187 454T283 472Q312 472 336 465T381 450Q403
440 423 428V667H467V96Q467 76 467 59T468 28Q468 12 469 0H425ZM423 379Q408 393 388 404Q371 414 344 422T282 430Q246 430 213 419T153 382T110 318T94 225Q94 186 103 151T131 89T182 46T258 30Q300 30 331 45T382 84T413 132T423 178V379ZM547 667H594L583
489H547V667Z" />
<glyph unicode="&#x110;" glyph-name="null" horiz-adv-x="711" d="M100 323H20V365H100V667H282Q364 667 432 648T550 588T627 484T655 334Q655 247 628 184T551 80T433 20T282 0H100V323ZM292 45Q363 45 420 62T519 116T582 206T604 334Q604 407 582 461T518
551T417 604T284 622H148V365H339V323H148V45H292Z" />
<glyph unicode="&#x111;" glyph-name="null" horiz-adv-x="547" d="M425 0Q424 12 424 24Q423 35 423 48T423 76Q408 51 383 32Q362 15 330 2T253 -12Q200 -12 161 6T97 57T59 132T46 226Q46 282 63 327T112 405T187 454T283 472Q312 472 336 465T381 450Q403
440 423 428V540H244V580H423V667H467V580H547V540H467V96Q467 76 467 59T468 28Q468 12 469 0H425ZM423 379Q408 393 388 404Q371 414 344 422T282 430Q246 430 213 419T153 382T110 318T94 225Q94 186 103 151T131 89T182 46T258 30Q303 30 334 48T385 92T414
146T423 196V379Z" />
<glyph unicode="&#x112;" glyph-name="null" horiz-adv-x="557" d="M86 667H486V622H134V370H409V325H134V45H512V0H86V667ZM130 814H446V772H130V814Z" />
<glyph unicode="&#x113;" glyph-name="null" horiz-adv-x="534" d="M468 69Q438 31 387 10T281 -12Q230 -12 187 5T112 55T64 131T46 230Q46 280 62 324T108 401T178 453T268 472Q315 472 355 456T425 407T471 328T488 218H96Q97 179 111 145T149 85T206 45T281
30Q302 30 324 34T368 48T406 69T436 96L468 69ZM439 257Q430 342 385 386T268 430Q231 430 201 417T148 380T113 325T97 257H439ZM154 619H387V577H154V619Z" />
<glyph unicode="&#x114;" glyph-name="null" horiz-adv-x="557" d="M86 667H486V622H134V370H409V325H134V45H512V0H86V667ZM203 841Q205 812 227 793T289 774Q329 774 351 793T376 841H419Q418 821 410 802T386 768T345 744T289 735Q257 735 233 744T192 768T168
802T158 841H203Z" />
<glyph unicode="&#x115;" glyph-name="null" horiz-adv-x="534" d="M468 69Q438 31 387 10T281 -12Q230 -12 187 5T112 55T64 131T46 230Q46 280 62 324T108 401T178 453T268 472Q315 472 355 456T425 407T471 328T488 218H96Q97 179 111 145T149 85T206 45T281
30Q302 30 324 34T368 48T406 69T436 96L468 69ZM439 257Q430 342 385 386T268 430Q231 430 201 417T148 380T113 325T97 257H439ZM193 648Q193 619 214 599T270 579Q305 579 326 599T348 648H385Q385 628 378 609T356 575T320 551T270 542Q241 542 220 551T184
575T163 609T155 648H193Z" />
<glyph unicode="&#x116;" glyph-name="null" horiz-adv-x="557" d="M86 667H486V622H134V370H409V325H134V45H512V0H86V667ZM252 831H324V760H252V831Z" />
<glyph unicode="&#x117;" glyph-name="null" horiz-adv-x="534" d="M468 69Q438 31 387 10T281 -12Q230 -12 187 5T112 55T64 131T46 230Q46 280 62 324T108 401T178 453T268 472Q315 472 355 456T425 407T471 328T488 218H96Q97 179 111 145T149 85T206 45T281
30Q302 30 324 34T368 48T406 69T436 96L468 69ZM439 257Q430 342 385 386T268 430Q231 430 201 417T148 380T113 325T97 257H439ZM241 630H304V564H241V630Z" />
<glyph unicode="&#x118;" glyph-name="null" horiz-adv-x="557" d="M86 667H486V622H134V370H409V325H134V45H512V0H457Q423 -29 401 -61T379 -120Q379 -140 391 -150T425 -161Q444 -161 459 -154T492 -136L512 -172Q489 -189 464 -196T414 -204Q375 -204 351
-185T327 -130Q327 -112 334 -95T351 -61T375 -29T402 0H86V667Z" />
<glyph unicode="&#x119;" glyph-name="null" horiz-adv-x="534" d="M419 -173Q399 -188 375 -195T328 -203Q293 -203 268 -184T242 -128Q242 -96 259 -67T301 -11Q294 -12 290 -12T281 -12Q230 -12 187 5T112 55T64 131T46 230Q46 280 62 324T108 401T178 453T268
472Q315 472 355 456T425 407T471 328T488 218H96Q97 179 111 145T149 85T206 45T281 30Q302 30 324 34T368 48T406 69T436 96L468 69Q448 44 419 27T356 -1Q325 -30 306 -61T287 -118Q287 -140 300 -151T335 -162Q354 -162 370 -156T402 -139L419 -173ZM439 257Q430
342 385 386T268 430Q231 430 201 417T148 380T113 325T97 257H439Z" />
<glyph unicode="&#x11a;" glyph-name="null" horiz-adv-x="557" d="M86 667H486V622H134V370H409V325H134V45H512V0H86V667ZM149 866H201L290 758L379 866H432L315 725H262L149 866Z" />
<glyph unicode="&#x11b;" glyph-name="null" horiz-adv-x="534" d="M468 69Q438 31 387 10T281 -12Q230 -12 187 5T112 55T64 131T46 230Q46 280 62 324T108 401T178 453T268 472Q315 472 355 456T425 407T471 328T488 218H96Q97 179 111 145T149 85T206 45T281
30Q302 30 324 34T368 48T406 69T436 96L468 69ZM439 257Q430 342 385 386T268 430Q231 430 201 417T148 380T113 325T97 257H439ZM157 667H205L271 573L337 667H385L293 539H249L157 667Z" />
<glyph unicode="&#x11c;" glyph-name="null" horiz-adv-x="717" d="M588 271H410V316H636V66Q619 51 595 37T540 10T469 -9T380 -16Q308 -16 248 9T146 81T80 192T56 334Q56 407 79 470T145 581T248 656T380 683Q439 683 481 667T553 630T598 587T621 556L585
531Q579 539 565 556T527 592T467 624T385 638Q320 638 269 615T182 550T127 454T108 334Q108 270 126 215T180 118T266 53T380 29Q457 29 506 46T588 86V271ZM345 866H398L511 725H459L370 833L281 725H228L345 866Z" />
<glyph unicode="&#x11d;" glyph-name="null" horiz-adv-x="534" d="M423 409Q408 415 390 419Q374 423 352 426T300 430Q258 430 221 417T156 377T111 313T94 225Q94 186 103 151T131 89T182 46T258 30Q302 30 333 46T384 86T413 135T423 178V409ZM110 -125Q126
-138 160 -153T250 -169Q300 -169 333 -156T386 -119T414 -63T422 7V77Q406 51 381 32Q360 15 329 2T253 -12Q200 -12 161 6T97 57T59 132T46 226Q46 282 65 327T119 405T200 454T301 472Q351 472 395 462T467 440V10Q467 -41 455 -82T417 -152T349 -196T248 -212Q215
-212 188 -207T141 -193T107 -175T84 -159L110 -125ZM262 667H306L398 539H350L284 633L218 539H170L262 667Z" />
<glyph unicode="&#x11e;" glyph-name="null" horiz-adv-x="717" d="M588 271H410V316H636V66Q619 51 595 37T540 10T469 -9T380 -16Q308 -16 248 9T146 81T80 192T56 334Q56 407 79 470T145 581T248 656T380 683Q439 683 481 667T553 630T598 587T621 556L585
531Q579 539 565 556T527 592T467 624T385 638Q320 638 269 615T182 550T127 454T108 334Q108 270 126 215T180 118T266 53T380 29Q457 29 506 46T588 86V271ZM292 841Q294 812 316 793T378 774Q418 774 440 793T465 841H508Q507 821 499 802T475 768T434 744T378
735Q346 735 322 744T281 768T257 802T247 841H292Z" />
<glyph unicode="&#x11f;" glyph-name="null" horiz-adv-x="534" d="M423 409Q408 415 390 419Q374 423 352 426T300 430Q258 430 221 417T156 377T111 313T94 225Q94 186 103 151T131 89T182 46T258 30Q302 30 333 46T384 86T413 135T423 178V409ZM110 -125Q126
-138 160 -153T250 -169Q300 -169 333 -156T386 -119T414 -63T422 7V77Q406 51 381 32Q360 15 329 2T253 -12Q200 -12 161 6T97 57T59 132T46 226Q46 282 65 327T119 405T200 454T301 472Q351 472 395 462T467 440V10Q467 -41 455 -82T417 -152T349 -196T248 -212Q215
-212 188 -207T141 -193T107 -175T84 -159L110 -125ZM211 648Q211 619 232 599T288 579Q323 579 344 599T366 648H403Q403 628 396 609T374 575T338 551T288 542Q259 542 238 551T202 575T181 609T173 648H211Z" />
<glyph unicode="&#x120;" glyph-name="null" horiz-adv-x="717" d="M588 271H410V316H636V66Q619 51 595 37T540 10T469 -9T380 -16Q308 -16 248 9T146 81T80 192T56 334Q56 407 79 470T145 581T248 656T380 683Q439 683 481 667T553 630T598 587T621 556L585
531Q579 539 565 556T527 592T467 624T385 638Q320 638 269 615T182 550T127 454T108 334Q108 270 126 215T180 118T266 53T380 29Q457 29 506 46T588 86V271ZM340 831H412V760H340V831Z" />
<glyph unicode="&#x121;" glyph-name="null" horiz-adv-x="534" d="M423 409Q408 415 390 419Q374 423 352 426T300 430Q258 430 221 417T156 377T111 313T94 225Q94 186 103 151T131 89T182 46T258 30Q302 30 333 46T384 86T413 135T423 178V409ZM110 -125Q126
-138 160 -153T250 -169Q300 -169 333 -156T386 -119T414 -63T422 7V77Q406 51 381 32Q360 15 329 2T253 -12Q200 -12 161 6T97 57T59 132T46 226Q46 282 65 327T119 405T200 454T301 472Q351 472 395 462T467 440V10Q467 -41 455 -82T417 -152T349 -196T248 -212Q215
-212 188 -207T141 -193T107 -175T84 -159L110 -125ZM259 630H322V564H259V630Z" />
<glyph unicode="&#x122;" glyph-name="null" horiz-adv-x="717" d="M588 271H410V316H636V66Q619 51 595 37T540 10T469 -9T380 -16Q308 -16 248 9T146 81T80 192T56 334Q56 407 79 470T145 581T248 656T380 683Q439 683 481 667T553 630T598 587T621 556L585
531Q579 539 565 556T527 592T467 624T385 638Q320 638 269 615T182 550T127 454T108 334Q108 270 126 215T180 118T266 53T380 29Q457 29 506 46T588 86V271ZM367 -64H424L350 -202H305L367 -64Z" />
<glyph unicode="&#x123;" glyph-name="null" horiz-adv-x="534" d="M423 409Q408 415 390 419Q374 423 352 426T300 430Q258 430 221 417T156 377T111 313T94 225Q94 186 103 151T131 89T182 46T258 30Q302 30 333 46T384 86T413 135T423 178V409ZM110 -125Q126
-138 160 -153T250 -169Q300 -169 333 -156T386 -119T414 -63T422 7V77Q406 51 381 32Q360 15 329 2T253 -12Q200 -12 161 6T97 57T59 132T46 226Q46 282 65 327T119 405T200 454T301 472Q351 472 395 462T467 440V10Q467 -41 455 -82T417 -152T349 -196T248 -212Q215
-212 188 -207T141 -193T107 -175T84 -159L110 -125ZM327 667H369L309 539H251L327 667Z" />
<glyph unicode="&#x124;" glyph-name="null" horiz-adv-x="688" d="M86 667H134V370H554V667H602V0H554V325H134V0H86V667ZM319 866H372L485 725H433L344 833L255 725H202L319 866Z" />
<glyph unicode="&#x125;" glyph-name="null" horiz-adv-x="532" d="M69 667H114V368Q122 383 136 401T173 435T224 461T291 472Q340 472 373 458T428 418T458 354T467 270V0H422V255Q422 306 413 340T387 394T344 422T285 430Q241 430 209 412T156 366T125 304T114
237V0H69V667ZM184 866H237L350 725H298L209 833L120 725H67L184 866Z" />
<glyph unicode="&#x126;" glyph-name="null" horiz-adv-x="716" d="M100 501H20V542H100V667H148V542H568V667H616V542H695V501H616V0H568V325H148V0H100V501ZM568 370V501H148V370H568Z" />
<glyph unicode="&#x127;" glyph-name="null" horiz-adv-x="543" d="M80 540H0V580H80V667H125V580H303V540H125V368Q133 383 147 401T184 435T235 461T302 472Q351 472 384 458T439 418T469 354T478 270V0H433V255Q433 306 424 340T398 394T355 422T296 430Q252
430 220 412T167 366T136 304T125 237V0H80V540Z" />
<glyph unicode="&#x128;" glyph-name="null" horiz-adv-x="220" d="M86 667H134V0H86V667ZM199 789Q219 811 245 825T301 840Q325 840 342 833T373 817T402 801T433 793Q453 793 469 801T507 830L535 800Q515 778 489 764T433 750Q409 750 393 757T362 773T333
789T301 797Q281 797 263 789T224 760L199 789Z" />
<glyph unicode="&#x129;" glyph-name="null" horiz-adv-x="187" d="M71 460H116V0H71V460ZM192 592Q211 614 236 627T289 641Q312 641 328 634T358 618T385 602T415 594Q433 594 449 603T485 632L508 602Q489 580 464 567T411 554Q388 554 372 561T343 577T316
593T285 601Q267 601 251 594T215 567L192 592Z" />
<glyph unicode="&#x12a;" glyph-name="null" horiz-adv-x="220" d="M86 667H134V0H86V667ZM209 814H525V772H209V814Z" />
<glyph unicode="&#x12b;" glyph-name="null" horiz-adv-x="187" d="M71 460H116V0H71V460ZM234 619H467V577H234V619Z" />
<glyph unicode="&#x12c;" glyph-name="null" horiz-adv-x="220" d="M86 667H134V0H86V667ZM282 841Q284 812 306 793T368 774Q408 774 430 793T455 841H498Q497 821 489 802T465 768T424 744T368 735Q336 735 312 744T271 768T247 802T237 841H282Z" />
<glyph unicode="&#x12d;" glyph-name="null" horiz-adv-x="187" d="M71 460H116V0H71V460ZM273 648Q273 619 294 599T350 579Q385 579 406 599T428 648H465Q465 628 458 609T436 575T400 551T350 542Q321 542 300 551T264 575T243 609T235 648H273Z" />
<glyph unicode="&#x12e;" glyph-name="null" horiz-adv-x="220" d="M197 -172Q174 -189 149 -196T99 -204Q60 -204 36 -185T12 -130Q12 -93 35 -59T86 3V667H134V-3Q105 -33 85 -62T64 -120Q64 -140 76 -150T110 -160Q129 -160 144 -154T177 -136L197 -172Z" />
<glyph unicode="&#x12f;" glyph-name="null" horiz-adv-x="187" d="M178 -173Q158 -188 134 -195T87 -203Q52 -203 27 -184T1 -128Q1 -93 22 -59T71 5V460H116V-2Q85 -31 66 -61T46 -118Q46 -140 59 -151T94 -162Q113 -162 129 -156T161 -139L178 -173ZM65 610H122V552H65V610Z"
/>
<glyph unicode="&#x130;" glyph-name="null" horiz-adv-x="220" d="M86 667H134V0H86V667ZM75 831H147V760H75V831Z" />
<glyph unicode="&#x131;" glyph-name="null" horiz-adv-x="187" d="M71 460H116V0H71V460Z" />
<glyph unicode="&#x132;" glyph-name="null" horiz-adv-x="691" d="M86 667H134V0H86V667ZM277 101Q301 72 335 51T418 29Q451 29 477 38T523 68T552 122T562 205V667H610V197Q610 86 559 35T415 -16Q380 -16 353 -8T305 13T268 41T241 71L277 101Z" />
<glyph unicode="&#x133;" glyph-name="null" horiz-adv-x="408" d="M71 460H116V0H71V460ZM62 622H125V556H62V622ZM150 -131Q167 -146 182 -153T217 -160Q232 -160 245 -155T269 -135T286 -93T292 -21V460H337V-14Q337 -58 332 -92T314 -151T276 -187T215 -200Q186
-200 163 -189T126 -164L150 -131ZM283 622H346V556H283V622Z" />
<glyph unicode="&#x134;" glyph-name="null" horiz-adv-x="471" d="M57 101Q81 72 115 51T198 29Q231 29 257 38T303 68T332 122T342 205V667H390V197Q390 86 339 35T195 -16Q160 -16 133 -8T85 13T48 41T21 71L57 101ZM339 866H392L505 725H453L364 833L275 725H222L339
866Z" />
<glyph unicode="&#x135;" glyph-name="null" horiz-adv-x="187" d="M-71 -131Q-54 -146 -39 -153T-4 -160Q11 -160 24 -155T48 -135T65 -93T71 -21V460H116V-14Q116 -58 111 -92T93 -151T55 -187T-6 -200Q-35 -200 -58 -189T-95 -164L-71 -131ZM329 667H373L465
539H417L351 633L285 539H237L329 667Z" />
<glyph unicode="&#x136;" glyph-name="null" horiz-adv-x="575" d="M86 667H134V319L462 667H521L269 398L555 0H498L234 362L134 255V0H86V667ZM281 -64H338L264 -202H219L281 -64Z" />
<glyph unicode="&#x137;" glyph-name="null" horiz-adv-x="454" d="M69 667H114V230L350 460H409L233 289L444 0H390L201 257L114 173V0H69V667ZM227 -64H278L207 -202H166L227 -64Z" />
<glyph unicode="&#x138;" glyph-name="null" horiz-adv-x="475" d="M69 461H114V214L372 460H431L230 268L465 0H411L198 238L114 158V0H69V461Z" />
<glyph unicode="&#x139;" glyph-name="null" d="M86 667H134V45H512V0H86V667ZM165 866H229L135 725H91L165 866Z" />
<glyph unicode="&#x13a;" glyph-name="null" horiz-adv-x="183" d="M69 667H114V0H69V667ZM142 866H206L112 725H68L142 866Z" />
<glyph unicode="&#x13b;" glyph-name="null" d="M86 667H134V45H512V0H86V667ZM280 -64H337L263 -202H218L280 -64Z" />
<glyph unicode="&#x13c;" glyph-name="null" horiz-adv-x="183" d="M69 667H114V0H69V667ZM320 -64H371L300 -202H259L320 -64Z" />
<glyph unicode="&#x13d;" glyph-name="null" d="M86 667H134V45H512V0H86V667ZM263 667H310L299 489H263V667Z" />
<glyph unicode="&#x13e;" glyph-name="null" horiz-adv-x="241" d="M69 667H114V0H69V667ZM194 667H241L230 489H194V667Z" />
<glyph unicode="&#x13f;" glyph-name="null" d="M86 667H134V45H512V0H86V667ZM344 392H416V321H344V392Z" />
<glyph unicode="&#x140;" glyph-name="null" horiz-adv-x="261" d="M69 667H114V0H69V667ZM190 396H253V330H190V396Z" />
<glyph unicode="&#x141;" glyph-name="null" horiz-adv-x="560" d="M106 281L20 225V272L106 328V667H154V359L316 464V417L154 312V45H532V0H106V281Z" />
<glyph unicode="&#x142;" glyph-name="null" horiz-adv-x="233" d="M94 314L25 268V314L94 360V667H139V390L208 436V390L139 344V0H94V314Z" />
<glyph unicode="&#x143;" glyph-name="null" horiz-adv-x="697" d="M86 667H136L564 72V667H611V0H561L133 587V0H86V667ZM388 866H452L358 725H314L388 866Z" />
<glyph unicode="&#x144;" glyph-name="null" horiz-adv-x="534" d="M71 363Q71 382 71 395T71 419T71 439T69 460H111Q112 449 112 440T113 421T114 397T114 364Q122 379 136 398T172 433T224 461T293 472Q342 472 375 458T430 418T460 354T469 270V0H424V255Q424
306 415 340T389 394T346 422T287 430Q243 430 211 412T158 366T127 304T116 237V0H71V363ZM302 667H357L282 539H240L302 667Z" />
<glyph unicode="&#x145;" glyph-name="null" horiz-adv-x="697" d="M86 667H136L564 72V667H611V0H561L133 587V0H86V667ZM338 -64H395L321 -202H276L338 -64Z" />
<glyph unicode="&#x146;" glyph-name="null" horiz-adv-x="534" d="M71 363Q71 382 71 395T71 419T71 439T69 460H111Q112 449 112 440T113 421T114 397T114 364Q122 379 136 398T172 433T224 461T293 472Q342 472 375 458T430 418T460 354T469 270V0H424V255Q424
306 415 340T389 394T346 422T287 430Q243 430 211 412T158 366T127 304T116 237V0H71V363ZM264 -64H315L244 -202H203L264 -64Z" />
<glyph unicode="&#x147;" glyph-name="null" horiz-adv-x="697" d="M86 667H136L564 72V667H611V0H561L133 587V0H86V667ZM223 866H275L364 758L453 866H506L389 725H336L223 866Z" />
<glyph unicode="&#x148;" glyph-name="null" horiz-adv-x="534" d="M71 363Q71 382 71 395T71 419T71 439T69 460H111Q112 449 112 440T113 421T114 397T114 364Q122 379 136 398T172 433T224 461T293 472Q342 472 375 458T430 418T460 354T469 270V0H424V255Q424
306 415 340T389 394T346 422T287 430Q243 430 211 412T158 366T127 304T116 237V0H71V363ZM158 667H206L272 573L338 667H386L294 539H250L158 667Z" />
<glyph unicode="&#x149;" glyph-name="null" horiz-adv-x="534" d="M71 363Q71 382 71 395T71 419T71 439T69 460H111Q112 449 112 440T113 421T114 397T114 364Q122 379 136 398T172 433T224 461T293 472Q342 472 375 458T430 418T460 354T469 270V0H424V255Q424
306 415 340T389 394T346 422T287 430Q243 430 211 412T158 366T127 304T116 237V0H71V363ZM20 667H71L47 539H12L20 667Z" />
<glyph unicode="&#x14a;" glyph-name="null" horiz-adv-x="697" d="M86 667H136L564 74V667H611V5Q611 -42 604 -79T579 -144T533 -185T465 -200Q427 -200 398 -187T350 -156L378 -120Q398 -136 419 -146T466 -156Q484 -156 501 -150T533 -127T555 -81T564 -4V0L133
587V0H86V667Z" />
<glyph unicode="&#x14b;" glyph-name="null" horiz-adv-x="534" d="M71 363Q71 382 71 395T71 419T71 439T69 460H111Q112 449 112 440T113 421T114 397T114 364Q122 379 136 398T172 433T224 461T293 472Q342 472 375 458T430 418T460 354T469 270V-14Q469 -58
464 -92T446 -151T408 -187T347 -200Q318 -200 295 -189T258 -164L282 -131Q299 -146 314 -153T349 -160Q364 -160 377 -155T401 -135T418 -93T424 -21V255Q424 306 415 340T389 394T346 422T287 430Q243 430 211 412T158 366T127 304T116 237V0H71V363Z" />
<glyph unicode="&#x14c;" glyph-name="null" horiz-adv-x="774" d="M387 -16Q315 -16 255 11T150 85T81 195T56 333Q56 406 81 470T150 581T254 656T387 683Q459 683 519 656T624 582T693 470T718 333Q718 259 693 196T624 85T520 11T387 -16ZM387 29Q450 29 502
52T590 117T647 214T667 333Q667 396 647 452T591 549T502 614T387 638Q324 638 272 614T184 549T127 452T107 333Q107 270 127 215T183 118T272 53T387 29ZM228 814H544V772H228V814Z" />
<glyph unicode="&#x14d;" glyph-name="null" horiz-adv-x="566" d="M283 -12Q234 -12 191 7T116 59T65 136T46 230Q46 280 64 324T115 401T191 453T283 472Q332 472 375 453T450 401T501 324T520 230Q520 180 502 136T451 59T375 7T283 -12ZM283 29Q323 29 358
45T418 88T458 151T473 230Q473 270 458 306T418 371T357 415T283 431Q242 431 208 415T148 372T108 309T93 230Q93 189 108 153T148 89T209 45T283 29ZM164 619H397V577H164V619Z" />
<glyph unicode="&#x14e;" glyph-name="null" horiz-adv-x="774" d="M387 -16Q315 -16 255 11T150 85T81 195T56 333Q56 406 81 470T150 581T254 656T387 683Q459 683 519 656T624 582T693 470T718 333Q718 259 693 196T624 85T520 11T387 -16ZM387 29Q450 29 502
52T590 117T647 214T667 333Q667 396 647 452T591 549T502 614T387 638Q324 638 272 614T184 549T127 452T107 333Q107 270 127 215T183 118T272 53T387 29ZM301 841Q303 812 325 793T387 774Q427 774 449 793T474 841H517Q516 821 508 802T484 768T443 744T387
735Q355 735 331 744T290 768T266 802T256 841H301Z" />
<glyph unicode="&#x14f;" glyph-name="null" horiz-adv-x="566" d="M283 -12Q234 -12 191 7T116 59T65 136T46 230Q46 280 64 324T115 401T191 453T283 472Q332 472 375 453T450 401T501 324T520 230Q520 180 502 136T451 59T375 7T283 -12ZM283 29Q323 29 358
45T418 88T458 151T473 230Q473 270 458 306T418 371T357 415T283 431Q242 431 208 415T148 372T108 309T93 230Q93 189 108 153T148 89T209 45T283 29ZM206 648Q206 619 227 599T283 579Q318 579 339 599T361 648H398Q398 628 391 609T369 575T333 551T283 542Q254
542 233 551T197 575T176 609T168 648H206Z" />
<glyph unicode="&#x150;" glyph-name="null" horiz-adv-x="774" d="M387 -16Q315 -16 255 11T150 85T81 195T56 333Q56 406 81 470T150 581T254 656T387 683Q459 683 519 656T624 582T693 470T718 333Q718 259 693 196T624 85T520 11T387 -16ZM387 29Q450 29 502
52T590 117T647 214T667 333Q667 396 647 452T591 549T502 614T387 638Q324 638 272 614T184 549T127 452T107 333Q107 270 127 215T183 118T272 53T387 29ZM363 866H423L323 725H279L363 866ZM525 866H585L485 725H441L525 866Z" />
<glyph unicode="&#x151;" glyph-name="null" horiz-adv-x="566" d="M283 -12Q234 -12 191 7T116 59T65 136T46 230Q46 280 64 324T115 401T191 453T283 472Q332 472 375 453T450 401T501 324T520 230Q520 180 502 136T451 59T375 7T283 -12ZM283 29Q323 29 358
45T418 88T458 151T473 230Q473 270 458 306T418 371T357 415T283 431Q242 431 208 415T148 372T108 309T93 230Q93 189 108 153T148 89T209 45T283 29ZM248 667H304L228 539H188L248 667ZM383 667H439L363 539H323L383 667Z" />
<glyph unicode="&#x152;" glyph-name="null" horiz-adv-x="1141" d="M670 161Q654 119 625 86T559 31T477 -4T387 -16Q315 -16 255 11T150 85T81 195T56 333Q56 406 81 470T150 581T254 656T387 683Q433 683 477 671T559 636T625 580T670 504V667H1070V622H718V370H993V325H718V45H1096V0H670V161ZM387
29Q450 29 502 52T590 117T647 214T667 333Q667 396 647 452T591 549T502 614T387 638Q324 638 272 614T184 549T127 452T107 333Q107 270 127 215T183 118T272 53T387 29Z" />
<glyph unicode="&#x153;" glyph-name="null" horiz-adv-x="961" d="M895 69Q865 31 814 10T708 -12Q633 -12 578 23T495 121Q466 61 410 25T283 -12Q234 -12 191 7T116 59T65 136T46 230Q46 280 64 324T115 401T191 453T283 472Q318 472 350 463T409 435T458 393T495
338Q521 398 573 435T695 472Q742 472 782 456T852 407T898 328T915 218H523Q524 179 538 145T576 85T633 45T708 30Q729 30 751 34T795 48T833 69T863 96L895 69ZM283 29Q323 29 358 45T418 88T458 151T473 230Q473 270 458 306T418 371T357 415T283 431Q242 431
208 415T148 372T108 309T93 230Q93 189 108 153T148 89T209 45T283 29ZM866 257Q857 342 812 386T695 430Q658 430 628 417T575 380T540 325T524 257H866Z" />
<glyph unicode="&#x154;" glyph-name="null" horiz-adv-x="596" d="M86 667H287Q352 667 397 653T470 614T510 554T523 478Q523 413 490 363T383 295L542 0H487L332 289H134V0H86V667ZM307 334Q472 334 472 478Q472 550 429 586T301 622H134V334H307ZM311 866H375L281
725H237L311 866Z" />
<glyph unicode="&#x155;" glyph-name="null" horiz-adv-x="337" d="M71 363Q71 382 71 395T71 419T71 439T69 460H111Q112 449 112 439T113 418T114 392T114 359Q122 374 135 392T170 427T219 454T284 465Q306 465 322 458L309 415Q302 418 293 419T275 420Q239
420 210 404T160 362T128 303T116 235V0H71V363ZM215 667H270L195 539H153L215 667Z" />
<glyph unicode="&#x156;" glyph-name="null" horiz-adv-x="596" d="M86 667H287Q352 667 397 653T470 614T510 554T523 478Q523 413 490 363T383 295L542 0H487L332 289H134V0H86V667ZM307 334Q472 334 472 478Q472 550 429 586T301 622H134V334H307ZM288 -64H345L271
-202H226L288 -64Z" />
<glyph unicode="&#x157;" glyph-name="null" horiz-adv-x="337" d="M71 363Q71 382 71 395T71 419T71 439T69 460H111Q112 449 112 439T113 418T114 392T114 359Q122 374 135 392T170 427T219 454T284 465Q306 465 322 458L309 415Q302 418 293 419T275 420Q239
420 210 404T160 362T128 303T116 235V0H71V363ZM325 -64H376L305 -202H264L325 -64Z" />
<glyph unicode="&#x158;" glyph-name="null" horiz-adv-x="596" d="M86 667H287Q352 667 397 653T470 614T510 554T523 478Q523 413 490 363T383 295L542 0H487L332 289H134V0H86V667ZM307 334Q472 334 472 478Q472 550 429 586T301 622H134V334H307ZM126 866H178L267
758L356 866H409L292 725H239L126 866Z" />
<glyph unicode="&#x159;" glyph-name="null" horiz-adv-x="337" d="M71 363Q71 382 71 395T71 419T71 439T69 460H111Q112 449 112 439T113 418T114 392T114 359Q122 374 135 392T170 427T219 454T284 465Q306 465 322 458L309 415Q302 418 293 419T275 420Q239
420 210 404T160 362T128 303T116 235V0H71V363ZM72 667H120L186 573L252 667H300L208 539H164L72 667Z" />
<glyph unicode="&#x15a;" glyph-name="null" horiz-adv-x="564" d="M82 122Q116 81 163 55T279 29Q318 29 350 38T406 64T443 108T456 170Q456 207 442 233T403 276T349 305T287 325Q249 335 211 347T143 380T95 432T76 514Q76 548 90 579T130 633T195 669T283
683Q325 683 357 674T414 652T455 622T483 591L449 562Q440 574 426 587T392 612T345 631T281 639Q240 639 211 628T162 599T134 559T125 512Q125 476 141 453T185 414T245 388T313 369Q348 360 383 347T445 311T490 254T508 170Q508 127 490 93T442 34T369 -3T279
-16Q237 -16 201 -7T136 16T84 49T47 88L82 122ZM317 866H381L287 725H243L317 866Z" />
<glyph unicode="&#x15b;" glyph-name="null" horiz-adv-x="462" d="M70 90Q99 61 136 46T225 30Q253 30 278 35T322 51T352 78T363 116Q363 141 353 157T324 183T275 201T207 218Q175 225 149 234T103 258T73 293T62 347Q62 378 76 401T113 441T167 464T231 472Q285
472 326 452T394 401L363 373Q339 399 308 415T232 431Q210 431 188 428T148 415T119 389T108 345Q108 323 120 308T153 283T199 267T251 254Q279 248 307 239T359 216T397 179T412 122Q412 87 396 62T354 21T295 -4T229 -12Q164 -12 119 7T41 58L70 90ZM262 667H317L242
539H200L262 667Z" />
<glyph unicode="&#x15c;" glyph-name="null" horiz-adv-x="564" d="M82 122Q116 81 163 55T279 29Q318 29 350 38T406 64T443 108T456 170Q456 207 442 233T403 276T349 305T287 325Q249 335 211 347T143 380T95 432T76 514Q76 548 90 579T130 633T195 669T283
683Q325 683 357 674T414 652T455 622T483 591L449 562Q440 574 426 587T392 612T345 631T281 639Q240 639 211 628T162 599T134 559T125 512Q125 476 141 453T185 414T245 388T313 369Q348 360 383 347T445 311T490 254T508 170Q508 127 490 93T442 34T369 -3T279
-16Q237 -16 201 -7T136 16T84 49T47 88L82 122ZM257 866H310L423 725H371L282 833L193 725H140L257 866Z" />
<glyph unicode="&#x15d;" glyph-name="null" horiz-adv-x="462" d="M70 90Q99 61 136 46T225 30Q253 30 278 35T322 51T352 78T363 116Q363 141 353 157T324 183T275 201T207 218Q175 225 149 234T103 258T73 293T62 347Q62 378 76 401T113 441T167 464T231 472Q285
472 326 452T394 401L363 373Q339 399 308 415T232 431Q210 431 188 428T148 415T119 389T108 345Q108 323 120 308T153 283T199 267T251 254Q279 248 307 239T359 216T397 179T412 122Q412 87 396 62T354 21T295 -4T229 -12Q164 -12 119 7T41 58L70 90ZM209 667H253L345
539H297L231 633L165 539H117L209 667Z" />
<glyph unicode="&#x15e;" glyph-name="null" horiz-adv-x="564" d="M82 122Q116 81 163 55T279 29Q318 29 350 38T406 64T443 108T456 170Q456 207 442 233T403 276T349 305T287 325Q249 335 211 347T143 380T95 432T76 514Q76 548 90 579T130 633T195 669T283
683Q325 683 357 674T414 652T455 622T483 591L449 562Q440 574 426 587T392 612T345 631T281 639Q240 639 211 628T162 599T134 559T125 512Q125 476 141 453T185 414T245 388T313 369Q348 360 383 347T445 311T490 254T508 170Q508 127 490 93T442 34T369 -3T279
-16Q237 -16 201 -7T136 16T84 49T47 88L82 122ZM182 -160Q196 -166 216 -171T261 -177Q339 -177 339 -132Q339 -93 274 -93Q253 -93 234 -96T192 -108L199 -68Q217 -62 236 -58T288 -53Q314 -53 332 -60T363 -78T380 -103T386 -130Q386 -172 352 -194T267 -217Q231
-217 209 -211T174 -199L182 -160Z" />
<glyph unicode="&#x15f;" glyph-name="null" horiz-adv-x="462" d="M70 90Q99 61 136 46T225 30Q253 30 278 35T322 51T352 78T363 116Q363 141 353 157T324 183T275 201T207 218Q175 225 149 234T103 258T73 293T62 347Q62 378 76 401T113 441T167 464T231 472Q285
472 326 452T394 401L363 373Q339 399 308 415T232 431Q210 431 188 428T148 415T119 389T108 345Q108 323 120 308T153 283T199 267T251 254Q279 248 307 239T359 216T397 179T412 122Q412 87 396 62T354 21T295 -4T229 -12Q164 -12 119 7T41 58L70 90ZM138 -165Q152
-171 171 -176T214 -182Q250 -182 269 -170T289 -134Q289 -114 274 -103T226 -91Q206 -91 189 -94T148 -106L154 -71Q166 -67 183 -62T238 -56Q262 -56 280 -63T309 -80T325 -105T331 -132Q331 -174 299 -195T217 -217Q180 -217 161 -211T130 -199L138 -165Z" />
<glyph unicode="&#x160;" glyph-name="null" horiz-adv-x="564" d="M82 122Q116 81 163 55T279 29Q318 29 350 38T406 64T443 108T456 170Q456 207 442 233T403 276T349 305T287 325Q249 335 211 347T143 380T95 432T76 514Q76 548 90 579T130 633T195 669T283
683Q325 683 357 674T414 652T455 622T483 591L449 562Q440 574 426 587T392 612T345 631T281 639Q240 639 211 628T162 599T134 559T125 512Q125 476 141 453T185 414T245 388T313 369Q348 360 383 347T445 311T490 254T508 170Q508 127 490 93T442 34T369 -3T279
-16Q237 -16 201 -7T136 16T84 49T47 88L82 122ZM145 866H197L286 758L375 866H428L311 725H258L145 866Z" />
<glyph unicode="&#x161;" glyph-name="null" horiz-adv-x="462" d="M70 90Q99 61 136 46T225 30Q253 30 278 35T322 51T352 78T363 116Q363 141 353 157T324 183T275 201T207 218Q175 225 149 234T103 258T73 293T62 347Q62 378 76 401T113 441T167 464T231 472Q285
472 326 452T394 401L363 373Q339 399 308 415T232 431Q210 431 188 428T148 415T119 389T108 345Q108 323 120 308T153 283T199 267T251 254Q279 248 307 239T359 216T397 179T412 122Q412 87 396 62T354 21T295 -4T229 -12Q164 -12 119 7T41 58L70 90ZM117 667H165L231
573L297 667H345L253 539H209L117 667Z" />
<glyph unicode="&#x162;" glyph-name="null" horiz-adv-x="616" d="M284 624H25V667H591V624H332V0H284V624ZM209 -160Q223 -166 243 -171T288 -177Q366 -177 366 -132Q366 -93 301 -93Q280 -93 261 -96T219 -108L226 -68Q244 -62 263 -58T315 -53Q341 -53 359
-60T390 -78T407 -103T413 -130Q413 -172 379 -194T294 -217Q258 -217 236 -211T201 -199L209 -160Z" />
<glyph unicode="&#x163;" glyph-name="null" horiz-adv-x="355" d="M110 418H18V460H110V612H155V460H307V418H155V152Q155 111 161 87T178 50T205 33T238 29Q263 29 281 38T317 69L345 42Q325 16 300 2T233 -12Q206 -12 183 -6T144 18T119 65T110 141V418ZM132
-165Q146 -171 165 -176T208 -182Q244 -182 263 -170T283 -134Q283 -114 268 -103T220 -91Q200 -91 183 -94T142 -106L148 -71Q160 -67 177 -62T232 -56Q256 -56 274 -63T303 -80T319 -105T325 -132Q325 -174 293 -195T211 -217Q174 -217 155 -211T124 -199L132
-165Z" />
<glyph unicode="&#x164;" glyph-name="null" horiz-adv-x="616" d="M284 624H25V667H591V624H332V0H284V624ZM169 866H221L310 758L399 866H452L335 725H282L169 866Z" />
<glyph unicode="&#x165;" glyph-name="null" horiz-adv-x="355" d="M268 667H315L304 518H268V667ZM110 418H18V460H110V612H155V460H307V418H155V152Q155 111 161 87T178 50T205 33T238 29Q263 29 281 38T317 69L345 42Q325 16 300 2T233 -12Q206 -12 183 -6T144
18T119 65T110 141V418Z" />
<glyph unicode="&#x166;" glyph-name="null" horiz-adv-x="616" d="M284 322H144V364H284V624H25V667H591V624H332V364H472V322H332V0H284V322Z" />
<glyph unicode="&#x167;" glyph-name="null" horiz-adv-x="355" d="M110 237H18V279H110V418H18V460H110V612H155V460H307V418H155V279H307V237H155V152Q155 111 161 87T178 50T205 33T238 29Q263 29 281 38T317 69L345 42Q325 16 300 2T233 -12Q206 -12 183 -6T144
18T119 65T110 141V237Z" />
<glyph unicode="&#x168;" glyph-name="null" horiz-adv-x="672" d="M81 667H129V291Q129 234 138 186T170 103T234 49T336 29Q398 29 438 48T501 103T534 186T543 291V667H591V266Q591 207 579 156T537 66T458 6T336 -16Q263 -16 214 6T136 66T94 155T81 266V667ZM163
789Q183 811 209 825T265 840Q289 840 306 833T337 817T366 801T397 793Q417 793 433 801T471 830L499 800Q479 778 453 764T397 750Q373 750 357 757T326 773T297 789T265 797Q245 797 227 789T188 760L163 789Z" />
<glyph unicode="&#x169;" glyph-name="null" horiz-adv-x="528" d="M65 460H110V205Q110 154 118 120T144 66T186 38T244 30Q287 30 319 48T371 94T402 156T412 223V460H457V97Q457 77 457 64T457 41T457 21T459 0H417Q416 11 416 20T415 39T414 63T414 96Q406
81 392 62T357 27T307 -1T238 -12Q189 -12 156 2T103 42T74 106T65 190V460ZM102 592Q121 614 146 627T199 641Q222 641 238 634T268 618T295 602T325 594Q343 594 359 603T395 632L418 602Q399 580 374 567T321 554Q298 554 282 561T253 577T226 593T195 601Q177
601 161 594T125 567L102 592Z" />
<glyph unicode="&#x16a;" glyph-name="null" horiz-adv-x="672" d="M81 667H129V291Q129 234 138 186T170 103T234 49T336 29Q398 29 438 48T501 103T534 186T543 291V667H591V266Q591 207 579 156T537 66T458 6T336 -16Q263 -16 214 6T136 66T94 155T81 266V667ZM176
814H492V772H176V814Z" />
<glyph unicode="&#x16b;" glyph-name="null" horiz-adv-x="528" d="M65 460H110V205Q110 154 118 120T144 66T186 38T244 30Q287 30 319 48T371 94T402 156T412 223V460H457V97Q457 77 457 64T457 41T457 21T459 0H417Q416 11 416 20T415 39T414 63T414 96Q406
81 392 62T357 27T307 -1T238 -12Q189 -12 156 2T103 42T74 106T65 190V460ZM143 619H376V577H143V619Z" />
<glyph unicode="&#x16c;" glyph-name="null" horiz-adv-x="672" d="M81 667H129V291Q129 234 138 186T170 103T234 49T336 29Q398 29 438 48T501 103T534 186T543 291V667H591V266Q591 207 579 156T537 66T458 6T336 -16Q263 -16 214 6T136 66T94 155T81 266V667ZM251
841Q253 812 275 793T337 774Q377 774 399 793T424 841H467Q466 821 458 802T434 768T393 744T337 735Q305 735 281 744T240 768T216 802T206 841H251Z" />
<glyph unicode="&#x16d;" glyph-name="null" horiz-adv-x="528" d="M65 460H110V205Q110 154 118 120T144 66T186 38T244 30Q287 30 319 48T371 94T402 156T412 223V460H457V97Q457 77 457 64T457 41T457 21T459 0H417Q416 11 416 20T415 39T414 63T414 96Q406
81 392 62T357 27T307 -1T238 -12Q189 -12 156 2T103 42T74 106T65 190V460ZM184 648Q184 619 205 599T261 579Q296 579 317 599T339 648H376Q376 628 369 609T347 575T311 551T261 542Q232 542 211 551T175 575T154 609T146 648H184Z" />
<glyph unicode="&#x16e;" glyph-name="null" horiz-adv-x="672" d="M81 667H129V291Q129 234 138 186T170 103T234 49T336 29Q398 29 438 48T501 103T534 186T543 291V667H591V266Q591 207 579 156T537 66T458 6T336 -16Q263 -16 214 6T136 66T94 155T81 266V667ZM239
791Q239 838 269 867T343 896Q388 896 418 867T449 793Q449 746 419 717T345 687Q300 687 270 716T239 791ZM345 724Q371 724 390 743T410 793Q410 822 391 840T343 859Q316 859 297 840T278 791Q278 762 297 743T345 724Z" />
<glyph unicode="&#x16f;" glyph-name="null" horiz-adv-x="528" d="M65 460H110V205Q110 154 118 120T144 66T186 38T244 30Q287 30 319 48T371 94T402 156T412 223V460H457V97Q457 77 457 64T457 41T457 21T459 0H417Q416 11 416 20T415 39T414 63T414 96Q406
81 392 62T357 27T307 -1T238 -12Q189 -12 156 2T103 42T74 106T65 190V460ZM171 636Q171 679 199 706T268 733Q310 733 338 706T366 637Q366 594 338 567T269 539Q227 539 199 566T171 636ZM269 573Q294 573 312 591T330 637Q330 664 312 681T268 699Q242 699
225 682T207 636Q207 609 225 591T269 573Z" />
<glyph unicode="&#x170;" glyph-name="null" horiz-adv-x="672" d="M81 667H129V291Q129 234 138 186T170 103T234 49T336 29Q398 29 438 48T501 103T534 186T543 291V667H591V266Q591 207 579 156T537 66T458 6T336 -16Q263 -16 214 6T136 66T94 155T81 266V667ZM301
866H361L261 725H217L301 866ZM463 866H523L423 725H379L463 866Z" />
<glyph unicode="&#x171;" glyph-name="null" horiz-adv-x="528" d="M65 460H110V205Q110 154 118 120T144 66T186 38T244 30Q287 30 319 48T371 94T402 156T412 223V460H457V97Q457 77 457 64T457 41T457 21T459 0H417Q416 11 416 20T415 39T414 63T414 96Q406
81 392 62T357 27T307 -1T238 -12Q189 -12 156 2T103 42T74 106T65 190V460ZM223 667H279L203 539H163L223 667ZM358 667H414L338 539H298L358 667Z" />
<glyph unicode="&#x172;" glyph-name="null" horiz-adv-x="672" d="M473 -172Q450 -189 425 -196T375 -204Q336 -204 312 -185T288 -130Q288 -98 307 -69T355 -15Q350 -16 346 -16T336 -16Q263 -16 214 6T136 66T94 155T81 266V667H129V291Q129 234 138 186T170
103T234 49T336 29Q398 29 438 48T501 103T534 186T543 291V667H591V266Q591 215 584 175T560 102T514 45T443 -3Q398 -26 369 -57T340 -120Q340 -140 352 -150T386 -161Q405 -161 420 -154T453 -136L473 -172Z" />
<glyph unicode="&#x173;" glyph-name="null" horiz-adv-x="528" d="M65 460H110V205Q110 154 118 120T144 66T186 38T244 30Q287 30 319 48T371 94T402 156T412 223V460H457V97Q457 77 457 64T457 41T457 21T459 0Q428 -29 409 -60T389 -118Q389 -140 402 -151T437
-162Q456 -162 472 -156T504 -139L521 -173Q501 -188 477 -195T430 -203Q395 -203 370 -184T344 -128Q344 -93 366 -57T417 5Q416 16 416 24T415 42T414 64T414 96Q406 81 392 62T357 27T307 -1T238 -12Q189 -12 156 2T103 42T74 106T65 190V460Z" />
<glyph unicode="&#x174;" glyph-name="null" horiz-adv-x="874" d="M30 667H84L244 68L413 647H472L633 72L792 667H844L657 0H604L441 576L270 0H214L30 667ZM412 866H465L578 725H526L437 833L348 725H295L412 866Z" />
<glyph unicode="&#x175;" glyph-name="null" horiz-adv-x="680" d="M15 460H65L193 59L325 460H368L497 52L619 460H665L518 0H469L342 392L213 0H170L15 460ZM318 667H362L454 539H406L340 633L274 539H226L318 667Z" />
<glyph unicode="&#x176;" glyph-name="null" d="M246 306L16 667H74L271 353L468 667H524L294 306V0H246V306ZM248 866H301L414 725H362L273 833L184 725H131L248 866Z" />
<glyph unicode="&#x177;" glyph-name="null" horiz-adv-x="462" d="M45 -149Q54 -158 69 -165T105 -172Q135 -172 151 -151T183 -91L221 6L16 460H67L244 61L397 460H446L220 -109Q214 -124 205 -142T183 -175T150 -201T105 -212Q76 -212 57 -204T22 -181L45 -149ZM210
667H254L346 539H298L232 633L166 539H118L210 667Z" />
<glyph unicode="&#x178;" glyph-name="null" d="M246 306L16 667H74L271 353L468 667H524L294 306V0H246V306ZM324 829H390V760H324V829ZM158 829H224V760H158V829Z" />
<glyph unicode="&#x179;" glyph-name="null" horiz-adv-x="616" d="M49 44L498 622H71V667H560V623L111 45H567V0H49V44ZM344 866H408L314 725H270L344 866Z" />
<glyph unicode="&#x17a;" glyph-name="null" horiz-adv-x="481" d="M61 42L369 420H73V460H423V418L113 41H430V0H61V42ZM283 667H338L263 539H221L283 667Z" />
<glyph unicode="&#x17b;" glyph-name="null" horiz-adv-x="616" d="M49 44L498 622H71V667H560V623L111 45H567V0H49V44ZM279 831H351V760H279V831Z" />
<glyph unicode="&#x17c;" glyph-name="null" horiz-adv-x="481" d="M61 42L369 420H73V460H423V418L113 41H430V0H61V42ZM221 630H284V564H221V630Z" />
<glyph unicode="&#x17d;" glyph-name="null" horiz-adv-x="616" d="M49 44L498 622H71V667H560V623L111 45H567V0H49V44ZM184 866H236L325 758L414 866H467L350 725H297L184 866Z" />
<glyph unicode="&#x17e;" glyph-name="null" horiz-adv-x="481" d="M61 42L369 420H73V460H423V418L113 41H430V0H61V42ZM145 667H193L259 573L325 667H373L281 539H237L145 667Z" />
<glyph unicode="&#x17f;" glyph-name="null" horiz-adv-x="315" d="M107 513Q107 595 143 639T249 683Q294 683 323 668T373 630L344 602Q323 623 302 632T253 642Q231 642 213 636T181 614T160 569T152 495V0H107V513Z" />
<glyph unicode="&#x192;" glyph-name="null" horiz-adv-x="472" d="M-56 -121Q-53 -125 -46 -131T-29 -143T-5 -153T24 -158Q55 -158 75 -146T109 -112T130 -65T142 -11L198 320H105V364H205L219 446Q224 475 231 509T256 571T302 619T378 638Q400 638 418 631T450
615T473 596T486 581L455 553Q441 568 422 582T376 596Q343 596 324 581T293 543Q282 520 277 493T267 440L254 364H364V320H246L190 -11Q185 -38 176 -71T149 -132T100 -180T22 -200Q4 -200 -12 -195T-42 -182T-65 -166T-80 -152L-56 -121Z" />
<glyph unicode="&#x218;" glyph-name="null" horiz-adv-x="564" d="M82 122Q116 81 163 55T279 29Q318 29 350 38T406 64T443 108T456 170Q456 207 442 233T403 276T349 305T287 325Q249 335 211 347T143 380T95 432T76 514Q76 548 90 579T130 633T195 669T283
683Q325 683 357 674T414 652T455 622T483 591L449 562Q440 574 426 587T392 612T345 631T281 639Q240 639 211 628T162 599T134 559T125 512Q125 476 141 453T185 414T245 388T313 369Q348 360 383 347T445 311T490 254T508 170Q508 127 490 93T442 34T369 -3T279
-16Q237 -16 201 -7T136 16T84 49T47 88L82 122ZM277 -64H334L260 -202H215L277 -64Z" />
<glyph unicode="&#x219;" glyph-name="null" horiz-adv-x="462" d="M70 90Q99 61 136 46T225 30Q253 30 278 35T322 51T352 78T363 116Q363 141 353 157T324 183T275 201T207 218Q175 225 149 234T103 258T73 293T62 347Q62 378 76 401T113 441T167 464T231 472Q285
472 326 452T394 401L363 373Q339 399 308 415T232 431Q210 431 188 428T148 415T119 389T108 345Q108 323 120 308T153 283T199 267T251 254Q279 248 307 239T359 216T397 179T412 122Q412 87 396 62T354 21T295 -4T229 -12Q164 -12 119 7T41 58L70 90ZM223 -64H274L203
-202H162L223 -64Z" />
<glyph unicode="&#x21a;" glyph-name="null" horiz-adv-x="616" d="M284 624H25V667H591V624H332V0H284V624ZM278 -64H335L261 -202H216L278 -64Z" />
<glyph unicode="&#x21b;" glyph-name="null" horiz-adv-x="355" d="M110 418H18V460H110V612H155V460H307V418H155V152Q155 111 161 87T178 50T205 33T238 29Q263 29 281 38T317 69L345 42Q325 16 300 2T233 -12Q206 -12 183 -6T144 18T119 65T110 141V418ZM204
-64H255L184 -202H143L204 -64Z" />
<glyph unicode="&#x237;" glyph-name="null" horiz-adv-x="187" d="M-71 -131Q-54 -146 -39 -153T-4 -160Q11 -160 24 -155T48 -135T65 -93T71 -21V460H116V-14Q116 -58 111 -92T93 -151T55 -187T-6 -200Q-35 -200 -58 -189T-95 -164L-71 -131Z" />
<glyph unicode="&#x2bc;" glyph-name="null" horiz-adv-x="350" d="M153 667H204L180 539H145L153 667Z" />
<glyph unicode="&#x2c6;" glyph-name="null" horiz-adv-x="350" d="M153 667H197L289 539H241L175 633L109 539H61L153 667Z" />
<glyph unicode="&#x2c7;" glyph-name="null" horiz-adv-x="350" d="M61 667H109L175 573L241 667H289L197 539H153L61 667Z" />
<glyph unicode="&#x2c9;" glyph-name="null" horiz-adv-x="353" d="M60 619H293V577H60V619Z" />
<glyph unicode="&#x2d8;" glyph-name="null" horiz-adv-x="350" d="M98 648Q98 619 119 599T175 579Q210 579 231 599T253 648H290Q290 628 283 609T261 575T225 551T175 542Q146 542 125 551T89 575T68 609T60 648H98Z" />
<glyph unicode="&#x2d9;" glyph-name="null" horiz-adv-x="350" d="M143 630H206V564H143V630Z" />
<glyph unicode="&#x2da;" glyph-name="null" horiz-adv-x="350" d="M77 636Q77 679 105 706T174 733Q216 733 244 706T272 637Q272 594 244 567T175 539Q133 539 105 566T77 636ZM175 573Q200 573 218 591T236 637Q236 664 218 681T174 699Q148 699 131 682T113
636Q113 609 131 591T175 573Z" />
<glyph unicode="&#x2db;" glyph-name="null" horiz-adv-x="350" d="M250 -173Q230 -188 206 -195T159 -203Q124 -203 99 -184T73 -128Q73 -93 94 -61T143 0H188Q157 -29 138 -60T118 -118Q118 -140 131 -151T166 -162Q185 -162 201 -156T233 -139L250 -173Z" />
<glyph unicode="&#x2dc;" glyph-name="null" horiz-adv-x="350" d="M17 592Q36 614 61 627T114 641Q137 641 153 634T183 618T210 602T240 594Q258 594 274 603T310 632L333 602Q314 580 289 567T236 554Q213 554 197 561T168 577T141 593T110 601Q92 601 76 594T40
567L17 592Z" />
<glyph unicode="&#x2dd;" glyph-name="null" horiz-adv-x="350" d="M109 667H165L89 539H49L109 667ZM244 667H300L224 539H184L244 667Z" />
<glyph unicode="&#x384;" glyph-name="null" horiz-adv-x="221" d="M102 676H157L101 539H63L102 676Z" />
<glyph unicode="&#x385;" glyph-name="null" horiz-adv-x="404" d="M189 676H238L204 539H169L189 676ZM277 637H333V578H277V637ZM71 637H127V578H71V637Z" />
<glyph unicode="&#x386;" glyph-name="null" horiz-adv-x="634" d="M293 667H341L614 0H559L472 215H158L72 0H20L293 667ZM454 260L315 606L176 260H454ZM117 667H175L120 526H79L117 667Z" />
<glyph unicode="&#x388;" glyph-name="null" horiz-adv-x="633" d="M162 667H562V622H210V370H485V325H210V45H588V0H162V667ZM281 667H339L284 526H243L281 667Z" />
<glyph unicode="&#x389;" glyph-name="null" horiz-adv-x="764" d="M162 667H210V370H630V667H678V0H630V325H210V0H162V667ZM281 667H339L284 526H243L281 667Z" />
<glyph unicode="&#x38a;" glyph-name="null" horiz-adv-x="277" d="M143 667H191V0H143V667ZM281 667H339L284 526H243L281 667Z" />
<glyph unicode="&#x38c;" glyph-name="null" horiz-adv-x="817" d="M430 -16Q358 -16 298 11T193 85T124 195T99 333Q99 406 124 470T193 581T297 656T430 683Q502 683 562 656T667 582T736 470T761 333Q761 259 736 196T667 85T563 11T430 -16ZM430 29Q493 29
545 52T633 117T690 214T710 333Q710 396 690 452T634 549T545 614T430 638Q367 638 315 614T227 549T170 452T150 333Q150 270 170 215T226 118T315 53T430 29ZM291 667H349L294 526H253L291 667Z" />
<glyph unicode="&#x38e;" glyph-name="null" horiz-adv-x="661" d="M367 306L137 667H195L392 353L589 667H645L415 306V0H367V306ZM281 667H339L284 526H243L281 667Z" />
<glyph unicode="&#x38f;" glyph-name="null" horiz-adv-x="816" d="M88 45H250Q211 69 182 102T134 173T106 254T96 341Q96 413 120 475T189 583T293 656T427 683Q500 683 560 657T665 584T733 475T758 341Q758 256 720 177T603 45H766V0H516V42Q561 58 596 89T656
160T694 247T707 341Q707 402 688 456T632 551T543 614T427 638Q362 638 311 615T223 551T167 457T147 341Q147 294 160 248T197 161T257 89T338 42V0H88V45ZM281 667H339L284 526H243L281 667Z" />
<glyph unicode="&#x390;" glyph-name="null" horiz-adv-x="272" d="M71 460H116V123Q116 67 133 48T179 29Q202 29 218 36T247 51L262 16Q247 5 225 -3T178 -12Q161 -12 143 -9T108 8T82 44T71 109V460ZM356 676H405L371 539H336L356 676ZM444 637H500V578H444V637ZM238
637H294V578H238V637Z" />
<glyph unicode="&#x391;" glyph-name="null" horiz-adv-x="634" d="M293 667H341L614 0H559L472 215H158L72 0H20L293 667ZM454 260L315 606L176 260H454Z" />
<glyph unicode="&#x392;" glyph-name="null" horiz-adv-x="581" d="M86 667H307Q356 667 391 654T448 618T480 566T490 503Q490 475 481 450T457 405T419 370T370 351Q396 347 424 337T475 308T513 257T528 180Q528 126 508 92T454 37T374 8T277 0H86V667ZM280
370Q307 370 335 377T387 400T425 440T440 500Q440 540 426 564T388 601T337 618T280 622H134V370H280ZM265 45Q303 45 341 48T409 65T459 106T478 180Q478 225 460 253T413 297T349 319T281 325H134V45H265Z" />
<glyph unicode="&#x393;" glyph-name="null" horiz-adv-x="502" d="M86 667H477V622H134V0H86V667Z" />
<glyph unicode="&#x394;" glyph-name="null" horiz-adv-x="650" d="M28 45L301 667H349L622 45V0H28V45ZM567 45L323 607L80 45H567Z" />
<glyph unicode="&#x395;" glyph-name="null" horiz-adv-x="557" d="M86 667H486V622H134V370H409V325H134V45H512V0H86V667Z" />
<glyph unicode="&#x396;" glyph-name="null" horiz-adv-x="616" d="M49 44L498 622H71V667H560V623L111 45H567V0H49V44Z" />
<glyph unicode="&#x397;" glyph-name="null" horiz-adv-x="688" d="M86 667H134V370H554V667H602V0H554V325H134V0H86V667Z" />
<glyph unicode="&#x398;" glyph-name="null" horiz-adv-x="774" d="M200 316V361H574V316H200ZM387 -16Q315 -16 255 11T150 85T81 195T56 333Q56 406 81 470T150 581T254 656T387 683Q459 683 519 656T624 582T693 470T718 333Q718 259 693 196T624 85T520 11T387
-16ZM387 29Q450 29 502 52T590 117T647 214T667 333Q667 396 647 452T591 549T502 614T387 638Q324 638 272 614T184 549T127 452T107 333Q107 270 127 215T183 118T272 53T387 29Z" />
<glyph unicode="&#x399;" glyph-name="null" horiz-adv-x="220" d="M86 667H134V0H86V667Z" />
<glyph unicode="&#x39a;" glyph-name="null" horiz-adv-x="575" d="M86 667H134V319L462 667H521L269 398L555 0H498L234 362L134 255V0H86V667Z" />
<glyph unicode="&#x39b;" glyph-name="null" horiz-adv-x="630" d="M608 0H553L313 600L74 0H22L291 667H339L608 0Z" />
<glyph unicode="&#x39c;" glyph-name="null" horiz-adv-x="783" d="M108 667H160L392 271L629 667H675L705 0H657L634 592L404 210H373L149 591L126 0H78L108 667Z" />
<glyph unicode="&#x39d;" glyph-name="null" horiz-adv-x="697" d="M86 667H136L564 72V667H611V0H561L133 587V0H86V667Z" />
<glyph unicode="&#x39e;" glyph-name="null" horiz-adv-x="579" d="M522 44V0H57V44H522ZM107 325V369H471V325H107ZM73 623V667H506V623H73Z" />
<glyph unicode="&#x39f;" glyph-name="null" horiz-adv-x="774" d="M387 -16Q315 -16 255 11T150 85T81 195T56 333Q56 406 81 470T150 581T254 656T387 683Q459 683 519 656T624 582T693 470T718 333Q718 259 693 196T624 85T520 11T387 -16ZM387 29Q450 29 502
52T590 117T647 214T667 333Q667 396 647 452T591 549T502 614T387 638Q324 638 272 614T184 549T127 452T107 333Q107 270 127 215T183 118T272 53T387 29Z" />
<glyph unicode="&#x3a0;" glyph-name="null" horiz-adv-x="688" d="M86 667H602V0H554V622H134V0H86V667Z" />
<glyph unicode="&#x3a1;" glyph-name="null" horiz-adv-x="579" d="M86 667H291Q356 667 400 653T472 612T511 551T523 475Q523 434 511 399T472 338T401 298T291 283H134V0H86V667ZM305 328Q389 328 430 365T471 475Q471 547 430 584T305 622H134V328H305Z" />
<glyph unicode="&#x3a3;" glyph-name="null" horiz-adv-x="550" d="M27 45L298 338L32 623V667H513V622H96L360 340L87 45H520V0H27V45Z" />
<glyph unicode="&#x3a4;" glyph-name="null" horiz-adv-x="616" d="M284 624H25V667H591V624H332V0H284V624Z" />
<glyph unicode="&#x3a5;" glyph-name="null" d="M246 306L16 667H74L271 353L468 667H524L294 306V0H246V306Z" />
<glyph unicode="&#x3a6;" glyph-name="null" horiz-adv-x="774" d="M365 707H410V626Q483 623 540 599T637 537T697 447T718 337Q718 278 698 227T638 138T541 75T410 48V-40H365V48Q291 51 234 74T137 137T77 227T56 337Q56 395 76 446T136 537T233 599T365 626V707ZM107
337Q107 287 123 244T171 167T251 113T365 89V585Q300 582 252 562T171 508T123 430T107 337ZM667 337Q667 386 651 429T603 506T523 561T410 585V89Q475 92 523 113T603 167T651 243T667 337Z" />
<glyph unicode="&#x3a7;" glyph-name="null" horiz-adv-x="588" d="M266 347L37 667H95L293 387L493 667H549L321 350L571 0H513L294 310L73 0H17L266 347Z" />
<glyph unicode="&#x3a8;" glyph-name="null" horiz-adv-x="788" d="M72 667H120V492Q120 438 130 393T168 314T244 262T370 240V667H418V240Q494 243 543 262T619 314T657 392T668 492V667H716V470Q716 416 702 367T653 281T561 221T418 195V0H370V195Q284 198
227 221T136 281T87 366T72 470V667Z" />
<glyph unicode="&#x3a9;" glyph-name="null" horiz-adv-x="788" d="M55 45H217Q178 69 149 102T101 173T73 254T63 341Q63 413 87 475T156 583T260 656T394 683Q467 683 527 657T632 584T700 475T725 341Q725 256 687 177T570 45H733V0H483V42Q528 58 563 89T623
160T661 247T674 341Q674 402 655 456T599 551T510 614T394 638Q329 638 278 615T190 551T134 457T114 341Q114 294 127 248T164 161T224 89T305 42V0H55V45Z" />
<glyph unicode="&#x3aa;" glyph-name="null" horiz-adv-x="220" d="M86 667H134V0H86V667ZM417 829H483V760H417V829ZM251 829H317V760H251V829Z" />
<glyph unicode="&#x3ab;" glyph-name="null" d="M246 306L16 667H74L271 353L468 667H524L294 306V0H246V306ZM320 829H386V760H320V829ZM154 829H220V760H154V829Z" />
<glyph unicode="&#x3ac;" glyph-name="null" horiz-adv-x="600" d="M540 -12Q529 -12 515 -9T489 5T467 36T455 89Q426 42 377 15T268 -12Q221 -12 181 5T110 54T63 129T46 225Q46 278 63 323T111 402T183 453T275 472Q328 472 375 449T454 375V395Q454 403 454
423T457 460H501Q499 444 499 424T498 395V121Q498 93 501 76T511 48T527 34T548 30Q558 30 565 32T581 37L592 0Q582 -5 570 -8T540 -12ZM273 30Q314 30 347 45T404 84T441 138T454 199V258Q454 286 443 316T410 372T354 413T276 430Q234 430 201 415T143 372T106
308T93 228Q93 188 106 152T142 89T199 46T273 30ZM284 676H339L283 539H245L284 676Z" />
<glyph unicode="&#x3ad;" glyph-name="null" horiz-adv-x="461" d="M333 215H250Q180 215 136 195T92 122Q92 95 104 78T135 50T180 35T234 30Q294 30 333 47T403 97L432 67Q394 29 347 9T234 -12Q194 -12 160 -4T101 20T61 62T46 121Q46 149 55 169T81 203T116
225T156 236Q112 244 86 273T59 346Q59 373 70 396T105 436T161 462T238 472Q359 472 422 391L391 365Q361 399 328 415T240 431Q213 431 189 427T146 413T116 387T105 345Q105 297 145 277T249 257H333V215ZM249 676H304L248 539H210L249 676Z" />
<glyph unicode="&#x3ae;" glyph-name="null" horiz-adv-x="534" d="M71 0V363Q71 382 71 395T71 419T71 439T69 460H111Q112 449 112 440T113 421T114 397T114 364Q122 379 136 398T172 433T224 461T293 472Q342 472 375 458T430 418T460 354T469 270V-200H424V255Q424
306 415 340T389 394T346 422T287 430Q243 430 211 412T158 366T127 304T116 237V0H71ZM287 676H342L286 539H248L287 676Z" />
<glyph unicode="&#x3af;" glyph-name="null" horiz-adv-x="272" d="M71 460H116V123Q116 67 133 48T179 29Q202 29 218 36T247 51L262 16Q247 5 225 -3T178 -12Q161 -12 143 -9T108 8T82 44T71 109V460ZM115 676H170L114 539H76L115 676Z" />
<glyph unicode="&#x3b0;" glyph-name="null" horiz-adv-x="518" d="M259 -12Q204 -12 167 3T108 45T75 109T65 192V460H111V205Q111 155 120 122T148 68T195 39T259 30Q296 30 324 39T370 68T398 121T408 205V460H453V192Q453 148 443 111T411 46T351 4T259 -12ZM247
676H296L262 539H227L247 676ZM335 637H391V578H335V637ZM129 637H185V578H129V637Z" />
<glyph unicode="&#x3b1;" glyph-name="null" horiz-adv-x="600" d="M540 -12Q529 -12 515 -9T489 5T467 36T455 89Q426 42 377 15T268 -12Q221 -12 181 5T110 54T63 129T46 225Q46 278 63 323T111 402T183 453T275 472Q328 472 375 449T454 375V395Q454 403 454
423T457 460H501Q499 444 499 424T498 395V121Q498 93 501 76T511 48T527 34T548 30Q558 30 565 32T581 37L592 0Q582 -5 570 -8T540 -12ZM273 30Q314 30 347 45T404 84T441 138T454 199V258Q454 286 443 316T410 372T354 413T276 430Q234 430 201 415T143 372T106
308T93 228Q93 188 106 152T142 89T199 46T273 30Z" />
<glyph unicode="&#x3b2;" glyph-name="null" horiz-adv-x="531" d="M69 -200V477Q69 533 85 572T127 636T187 672T256 683Q295 683 327 671T383 636T419 583T432 516Q432 464 409 425T337 368Q405 359 448 310T491 184Q491 140 476 104T432 42T362 2T271 -12Q219
-12 181 1T114 28V-200H69ZM275 30Q352 30 398 70T444 185Q444 252 402 296T268 340H215V384H250Q275 384 299 391T342 413T373 452T385 513Q385 573 351 607T254 642Q218 642 192 630T148 595T122 543T114 475V74Q151 52 192 41T275 30Z" />
<glyph unicode="&#x3b3;" glyph-name="null" horiz-adv-x="463" d="M10 460H61L234 54L406 460H453L254 -1V-200H209V1L10 460Z" />
<glyph unicode="&#x3b4;" glyph-name="null" horiz-adv-x="557" d="M130 575Q130 621 171 652T281 683Q320 683 361 670T444 621L414 592Q401 602 388 611T359 627T324 638T281 642Q235 642 205 625T174 575Q174 545 199 525T261 485T342 446T423 395T486 321T511
212Q511 162 493 121T443 51T369 5T279 -12Q229 -12 187 5T113 51T64 121T46 208Q46 303 97 362T233 453Q211 464 193 476T160 502T138 534T130 575ZM93 211Q93 172 107 139T147 81T206 43T279 29Q317 29 350 42T409 79T449 137T464 212Q464 261 448 295T405 355T346
398T279 431Q238 419 204 401T145 356T107 293T93 211Z" />
<glyph unicode="&#x3b5;" glyph-name="null" horiz-adv-x="461" d="M333 215H250Q180 215 136 195T92 122Q92 95 104 78T135 50T180 35T234 30Q294 30 333 47T403 97L432 67Q394 29 347 9T234 -12Q194 -12 160 -4T101 20T61 62T46 121Q46 149 55 169T81 203T116
225T156 236Q112 244 86 273T59 346Q59 373 70 396T105 436T161 462T238 472Q359 472 422 391L391 365Q361 399 328 415T240 431Q213 431 189 427T146 413T116 387T105 345Q105 297 145 277T249 257H333V215Z" />
<glyph unicode="&#x3b6;" glyph-name="null" horiz-adv-x="424" d="M319 -153Q348 -139 364 -123T381 -76Q381 -46 361 -32T296 -9L272 -5Q239 1 200 12T126 47T69 113T46 220Q46 289 74 347T146 454T244 545T353 626H70V667H423V632Q358 587 299 542T193 448T120
345T92 226Q92 173 108 140T151 86T211 56T277 39L304 34Q331 29 353 22T392 3T418 -28T428 -77Q428 -119 404 -145T335 -188L319 -153Z" />
<glyph unicode="&#x3b7;" glyph-name="null" horiz-adv-x="534" d="M71 0V363Q71 382 71 395T71 419T71 439T69 460H111Q112 449 112 440T113 421T114 397T114 364Q122 379 136 398T172 433T224 461T293 472Q342 472 375 458T430 418T460 354T469 270V-200H424V255Q424
306 415 340T389 394T346 422T287 430Q243 430 211 412T158 366T127 304T116 237V0H71Z" />
<glyph unicode="&#x3b8;" glyph-name="null" horiz-adv-x="550" d="M277 683Q382 683 443 596T504 338Q504 169 443 79T273 -12Q168 -12 107 74T46 332Q46 415 61 480T106 591T179 659T277 683ZM275 29Q360 29 407 104T457 322H93Q95 179 142 104T275 29ZM275
642Q190 642 144 571T93 362H457Q453 500 407 571T275 642Z" />
<glyph unicode="&#x3b9;" glyph-name="null" horiz-adv-x="272" d="M71 460H116V123Q116 67 133 48T179 29Q202 29 218 36T247 51L262 16Q247 5 225 -3T178 -12Q161 -12 143 -9T108 8T82 44T71 109V460Z" />
<glyph unicode="&#x3ba;" glyph-name="null" horiz-adv-x="473" d="M69 460H114V214L372 460H431L236 274L465 0H411L204 244L114 158V0H69V460Z" />
<glyph unicode="&#x3bb;" glyph-name="null" horiz-adv-x="462" d="M17 645Q34 659 54 668T104 677Q132 677 151 667T184 642T205 608T220 574L446 0H395L242 399L63 0H16L220 451L181 556Q166 595 149 615T101 636Q81 636 67 629T41 612L17 645Z" />
<glyph unicode="&#x3bc;" glyph-name="null" horiz-adv-x="532" d="M69 460H114V205Q114 160 118 134T131 90Q150 55 179 43T248 30Q291 30 323 48T375 94T406 156T416 223V460H461V97Q461 77 461 64T461 41T461 21T463 0H421Q420 11 420 20T419 39T418 63T418
96Q410 81 396 62T361 27T311 -1T242 -12Q197 -12 167 -1T114 39V-200H69V460Z" />
<glyph unicode="&#x3bd;" glyph-name="null" horiz-adv-x="463" d="M10 460H61L234 55L406 460H453L253 0H211L10 460Z" />
<glyph unicode="&#x3be;" glyph-name="null" horiz-adv-x="440" d="M304 34Q366 23 396 -1T427 -77Q427 -119 402 -145T334 -188L316 -154Q347 -139 363 -123T380 -76Q380 -49 363 -34T298 -10L271 -5Q237 1 198 10T125 38T69 92T46 186Q46 235 61 268T99 322T150
355T205 371Q182 375 159 385T116 412T85 456T73 519Q73 593 121 638T258 683Q312 683 352 666T425 613L392 587Q366 616 334 629T259 642Q188 642 154 611T119 522Q119 486 132 462T168 422T225 400T299 393H375V345H299Q257 345 220 338T154 313T110 265T93 190Q93
146 108 119T148 77T207 53T276 39L304 34Z" />
<glyph unicode="&#x3bf;" glyph-name="null" horiz-adv-x="562" d="M281 -12Q233 -12 190 7T115 59T65 136T46 230Q46 280 64 324T115 401T190 453T281 472Q329 472 372 453T447 401T497 324T516 230Q516 180 498 136T447 59T372 7T281 -12ZM281 29Q321 29 355
45T414 88T454 151T469 230Q469 270 454 306T414 371T354 415T281 431Q241 431 207 415T148 372T108 309T93 230Q93 189 108 153T148 89T208 45T281 29Z" />
<glyph unicode="&#x3c0;" glyph-name="null" horiz-adv-x="608" d="M126 418H14V460H566V418H454V127Q454 100 458 83T469 55T487 41T509 37Q527 37 539 41T562 51L578 16Q562 7 545 2T506 -4Q492 -4 475 -1T444 15T419 51T409 113V418H171V0H126V418Z" />
<glyph unicode="&#x3c1;" glyph-name="null" horiz-adv-x="551" d="M68 -200V239Q68 291 84 333T129 407T198 455T288 472Q340 472 380 453T449 401T491 324T505 231Q505 175 487 130T437 54T361 5T266 -12Q182 -12 112 33V-200H68ZM112 80Q139 58 182 44T268
30Q307 30 341 43T401 81T442 143T457 231Q457 270 447 306T417 369T364 413T286 430Q240 430 207 413T153 369T122 308T112 239V80Z" />
<glyph unicode="&#x3c2;" glyph-name="null" horiz-adv-x="492" d="M46 230Q46 286 63 330T112 406T185 455T279 472Q340 472 384 450T456 391L422 365Q399 395 363 412T279 430Q236 430 202 416T143 375T107 313T94 232Q94 186 108 153T146 98T200 64T263 45L306
37Q336 31 362 24T407 5T437 -26T448 -75Q448 -117 424 -144T355 -188L337 -154Q372 -137 386 -121T401 -79Q401 -61 394 -49T375 -28T345 -16T307 -8L268 -1Q229 6 190 20T118 60T66 127T46 230Z" />
<glyph unicode="&#x3c3;" glyph-name="null" horiz-adv-x="596" d="M571 460V418H416Q438 400 456 377T486 327T504 272T511 215Q511 167 493 126T444 54T370 6T278 -12Q229 -12 187 5T114 54T64 128T46 223Q46 274 64 317T116 392T198 442T305 460H571ZM280 29Q318
29 351 42T410 80T450 140T465 217Q465 242 460 269T441 322T408 373T360 418H300Q250 418 212 404T147 363T107 302T93 225Q93 181 107 145T147 84T206 44T280 29Z" />
<glyph unicode="&#x3c4;" glyph-name="null" horiz-adv-x="422" d="M163 418H14V460H392V418H208V123Q208 67 228 48T288 29Q326 29 366 53L382 17Q359 3 336 -4T286 -12Q266 -12 245 -9T205 8T175 44T163 109V418Z" />
<glyph unicode="&#x3c5;" glyph-name="null" horiz-adv-x="518" d="M259 -12Q204 -12 167 3T108 45T75 109T65 192V460H111V205Q111 155 120 122T148 68T195 39T259 30Q296 30 324 39T370 68T398 121T408 205V460H453V192Q453 148 443 111T411 46T351 4T259 -12Z" />
<glyph unicode="&#x3c6;" glyph-name="null" horiz-adv-x="676" d="M312 667H357V469Q423 466 473 447T558 396T609 322T627 233Q627 185 611 144T560 70T476 19T357 -3V-200H312V-3Q246 0 196 19T111 70T60 143T43 233Q43 280 59 322T109 395T193 446T312 469V667ZM580
233Q580 272 566 306T525 367T455 410T357 430V35Q414 38 456 54T525 97T566 158T580 233ZM90 233Q90 194 103 160T144 98T214 55T312 35V430Q255 427 213 411T144 369T103 307T90 233Z" />
<glyph unicode="&#x3c7;" glyph-name="null" horiz-adv-x="514" d="M289 188L450 460H498L311 148L439 -102Q446 -116 453 -128T468 -150T487 -165T512 -171Q528 -171 538 -167T558 -158L574 -191Q558 -202 543 -207T508 -212Q469 -212 449 -195T412 -147L280
109L97 -200H49L258 152L142 378Q127 408 113 419T78 431Q64 431 52 426T29 416L10 450Q28 461 44 466T80 472Q105 472 122 464T152 444T174 415T191 382L289 188Z" />
<glyph unicode="&#x3c8;" glyph-name="null" horiz-adv-x="696" d="M327 612H371V33Q425 35 465 48T532 90T572 162T585 272V460H630V260Q630 204 617 157T574 74T495 18T371 -6V-200H327V-6Q251 -4 201 16T121 72T79 155T66 260V460H111V272Q111 207 124 162T164
89T231 48T327 33V612Z" />
<glyph unicode="&#x3c9;" glyph-name="null" horiz-adv-x="719" d="M498 -12Q447 -12 411 13T359 84Q345 40 309 14T221 -12Q183 -12 151 3T96 47T59 118T46 215Q46 293 73 356T153 472L184 444Q142 399 118 346T93 218Q93 128 128 79T223 30Q244 30 264 37T300
61T327 107T337 180V350H382V180Q382 135 392 106T418 60T454 37T494 30Q556 30 591 80T626 218Q626 292 602 345T534 444L566 472Q616 422 644 359T673 215Q673 162 660 120T624 49T568 4T498 -12Z" />
<glyph unicode="&#x3ca;" glyph-name="null" horiz-adv-x="272" d="M71 460H116V123Q116 67 133 48T179 29Q202 29 218 36T247 51L262 16Q247 5 225 -3T178 -12Q161 -12 143 -9T108 8T82 44T71 109V460ZM396 628H456V565H396V628ZM248 628H308V565H248V628Z" />
<glyph unicode="&#x3cb;" glyph-name="null" horiz-adv-x="518" d="M259 -12Q204 -12 167 3T108 45T75 109T65 192V460H111V205Q111 155 120 122T148 68T195 39T259 30Q296 30 324 39T370 68T398 121T408 205V460H453V192Q453 148 443 111T411 46T351 4T259 -12ZM303
628H363V565H303V628ZM155 628H215V565H155V628Z" />
<glyph unicode="&#x3cc;" glyph-name="null" horiz-adv-x="562" d="M281 -12Q233 -12 190 7T115 59T65 136T46 230Q46 280 64 324T115 401T190 453T281 472Q329 472 372 453T447 401T497 324T516 230Q516 180 498 136T447 59T372 7T281 -12ZM281 29Q321 29 355
45T414 88T454 151T469 230Q469 270 454 306T414 371T354 415T281 431Q241 431 207 415T148 372T108 309T93 230Q93 189 108 153T148 89T208 45T281 29ZM300 676H355L299 539H261L300 676Z" />
<glyph unicode="&#x3cd;" glyph-name="null" horiz-adv-x="518" d="M259 -12Q204 -12 167 3T108 45T75 109T65 192V460H111V205Q111 155 120 122T148 68T195 39T259 30Q296 30 324 39T370 68T398 121T408 205V460H453V192Q453 148 443 111T411 46T351 4T259 -12ZM276
676H331L275 539H237L276 676Z" />
<glyph unicode="&#x3ce;" glyph-name="null" horiz-adv-x="719" d="M498 -12Q447 -12 411 13T359 84Q345 40 309 14T221 -12Q183 -12 151 3T96 47T59 118T46 215Q46 293 73 356T153 472L184 444Q142 399 118 346T93 218Q93 128 128 79T223 30Q244 30 264 37T300
61T327 107T337 180V350H382V180Q382 135 392 106T418 60T454 37T494 30Q556 30 591 80T626 218Q626 292 602 345T534 444L566 472Q616 422 644 359T673 215Q673 162 660 120T624 49T568 4T498 -12ZM379 676H434L378 539H340L379 676Z" />
<glyph unicode="&#x400;" glyph-name="null" horiz-adv-x="557" d="M86 667H486V622H134V370H409V325H134V45H512V0H86V667ZM206 866H267L342 725H298L206 866Z" />
<glyph unicode="&#x401;" glyph-name="null" horiz-adv-x="557" d="M86 667H486V622H134V370H409V325H134V45H512V0H86V667ZM336 829H402V760H336V829ZM170 829H236V760H170V829Z" />
<glyph unicode="&#x402;" glyph-name="null" horiz-adv-x="788" d="M264 0V624H25V667H591V624H312V389Q347 408 392 421T494 434Q542 434 585 421T661 379T713 309T732 209Q732 170 719 131T677 61T604 11T497 -9Q464 -9 427 -3L435 41Q468 35 496 35Q542 35
577 48T636 84T672 139T684 207Q684 253 670 287T630 344T569 378T492 389Q437 389 391 376T312 343V0H264Z" />
<glyph unicode="&#x403;" glyph-name="null" horiz-adv-x="527" d="M86 667H502V624H134V0H86V667ZM325 866H389L295 725H251L325 866Z" />
<glyph unicode="&#x404;" glyph-name="null" horiz-adv-x="692" d="M636 111Q630 101 613 80T566 38T492 0T387 -16Q312 -16 251 10T147 84T80 195T56 334Q56 407 79 470T145 581T248 656T381 683Q441 683 484 667T557 630T603 587T626 556L590 531Q585 539 571
556T533 592T471 624T383 638Q323 638 274 618T190 561T133 476T107 370H495V325H105Q106 262 126 208T184 115T273 52T392 29Q441 29 477 43T539 75T579 110T600 136L636 111Z" />
<glyph unicode="&#x405;" glyph-name="null" horiz-adv-x="564" d="M82 122Q116 81 163 55T279 29Q318 29 350 38T406 64T443 108T456 170Q456 207 442 233T403 276T349 305T287 325Q249 335 211 347T143 380T95 432T76 514Q76 548 90 579T130 633T195 669T283
683Q325 683 357 674T414 652T455 622T483 591L449 562Q440 574 426 587T392 612T345 631T281 639Q240 639 211 628T162 599T134 559T125 512Q125 476 141 453T185 414T245 388T313 369Q348 360 383 347T445 311T490 254T508 170Q508 127 490 93T442 34T369 -3T279
-16Q237 -16 201 -7T136 16T84 49T47 88L82 122Z" />
<glyph unicode="&#x406;" glyph-name="null" horiz-adv-x="220" d="M86 667H134V0H86V667Z" />
<glyph unicode="&#x407;" glyph-name="null" horiz-adv-x="220" d="M86 667H134V0H86V667ZM420 829H486V760H420V829ZM254 829H320V760H254V829Z" />
<glyph unicode="&#x408;" glyph-name="null" horiz-adv-x="471" d="M57 101Q81 72 115 51T198 29Q231 29 257 38T303 68T332 122T342 205V667H390V197Q390 86 339 35T195 -16Q160 -16 133 -8T85 13T48 41T21 71L57 101Z" />
<glyph unicode="&#x409;" glyph-name="null" horiz-adv-x="1053" d="M602 667V402H757Q822 402 868 387T942 346T984 282T997 199Q997 158 984 122T943 59T869 16T758 0H554V622H284Q281 542 276 465T259 318T231 190T187 89T123 22T36 -2H25V42Q86 42 125 87T188
215T222 413T237 667H602ZM602 357V45H768Q856 45 900 84T945 199Q945 277 901 317T768 357H602Z" />
<glyph unicode="&#x40a;" glyph-name="null" horiz-adv-x="1027" d="M86 667H134V385H531V667H579V385H731Q796 385 842 371T916 331T958 270T971 191Q971 152 958 118T917 57T843 15T732 0H531V340H134V0H86V667ZM579 340V45H742Q830 45 874 82T919 191Q919 264
875 302T742 340H579Z" />
<glyph unicode="&#x40b;" glyph-name="null" horiz-adv-x="787" d="M264 0V624H25V667H591V624H312V394Q346 411 392 422T492 434Q538 434 580 423T653 386T703 319T722 218V0H674V206Q674 257 660 292T622 348T563 379T486 389Q434 389 389 377T312 348V0H264Z" />
<glyph unicode="&#x40c;" glyph-name="null" horiz-adv-x="575" d="M134 0H86V667H134V370H219Q259 370 283 384T325 428L477 667H531L368 413Q352 388 334 372T291 346Q319 338 340 320T384 266L555 0H498L339 248Q311 292 282 308T218 325H134V0ZM324 866H388L294
725H250L324 866Z" />
<glyph unicode="&#x40d;" glyph-name="null" horiz-adv-x="697" d="M611 0H564V599L139 0H86V667H133V64L561 667H611V0ZM251 866H312L387 725H343L251 866Z" />
<glyph unicode="&#x40e;" glyph-name="null" horiz-adv-x="589" d="M520 667H571L284 74Q264 32 236 8T161 -16Q128 -16 101 -5T55 24L79 60Q96 46 116 38T160 29Q190 29 209 44T244 92L284 175L18 667H73L309 228L520 667ZM222 841Q224 812 246 793T308 774Q348
774 370 793T395 841H438Q437 821 429 802T405 768T364 744T308 735Q276 735 252 744T211 768T187 802T177 841H222Z" />
<glyph unicode="&#x40f;" glyph-name="null" horiz-adv-x="689" d="M322 -154V0H86V667H134V45H555V667H603V0H368V-154H322Z" />
<glyph unicode="&#x410;" glyph-name="null" horiz-adv-x="634" d="M293 667H341L614 0H559L472 215H158L72 0H20L293 667ZM454 260L315 606L176 260H454Z" />
<glyph unicode="&#x411;" glyph-name="null" horiz-adv-x="596" d="M86 667H479V624H134V397H301Q366 397 412 383T486 342T528 278T541 197Q541 157 528 121T487 58T413 16T302 0H86V667ZM134 352V45H312Q400 45 444 84T489 197Q489 273 445 312T312 352H134Z" />
<glyph unicode="&#x412;" glyph-name="null" horiz-adv-x="581" d="M86 667H307Q356 667 391 654T448 618T480 566T490 503Q490 475 481 450T457 405T419 370T370 351Q396 347 424 337T475 308T513 257T528 180Q528 126 508 92T454 37T374 8T277 0H86V667ZM280
370Q307 370 335 377T387 400T425 440T440 500Q440 540 426 564T388 601T337 618T280 622H134V370H280ZM265 45Q303 45 341 48T409 65T459 106T478 180Q478 225 460 253T413 297T349 319T281 325H134V45H265Z" />
<glyph unicode="&#x413;" glyph-name="null" horiz-adv-x="527" d="M86 667H502V624H134V0H86V667Z" />
<glyph unicode="&#x414;" glyph-name="null" horiz-adv-x="725" d="M623 667V45H669V-154H623V0H69V-154H23V45H66Q108 90 139 145T192 275T229 446T252 667H623ZM575 622H296Q287 504 273 414T237 256T189 136T127 45H575V622Z" />
<glyph unicode="&#x415;" glyph-name="null" horiz-adv-x="557" d="M86 667H486V622H134V370H409V325H134V45H512V0H86V667Z" />
<glyph unicode="&#x416;" glyph-name="null" horiz-adv-x="828" d="M392 667H436V370H520Q553 370 578 386T621 439L735 667H784L657 418Q632 369 582 347Q609 339 629 322T669 266L808 0H756L628 248Q605 292 579 308T522 325H436V0H392V325H305Q275 325 249
309T199 248L71 0H20L159 266Q179 304 198 321T245 346Q196 369 171 418L44 667H94L208 439Q226 402 251 386T309 370H392V667Z" />
<glyph unicode="&#x417;" glyph-name="null" horiz-adv-x="559" d="M172 325V370H279Q308 370 336 377T387 401T424 443T438 503Q438 543 424 569T386 610T336 632T282 638Q240 638 210 627T158 600T122 566T99 533L60 556Q68 570 83 591T125 633T190 668T284
683Q339 683 378 668T441 627T477 571T488 506Q488 479 479 453T453 406T413 370T359 350Q383 346 409 336T456 305T492 254T506 178Q506 127 488 91T439 31T367 -4T281 -16Q223 -16 181 -1T110 35T65 77T42 111L80 135Q87 125 101 107T139 72T198 42T282 29Q314
29 345 36T401 60T441 105T456 178Q456 221 440 249T398 294T341 318T280 325H172Z" />
<glyph unicode="&#x418;" glyph-name="null" horiz-adv-x="697" d="M611 0H564V599L139 0H86V667H133V64L561 667H611V0Z" />
<glyph unicode="&#x419;" glyph-name="null" horiz-adv-x="697" d="M611 0H564V599L139 0H86V667H133V64L561 667H611V0ZM265 841Q267 812 289 793T351 774Q391 774 413 793T438 841H481Q480 821 472 802T448 768T407 744T351 735Q319 735 295 744T254 768T230
802T220 841H265Z" />
<glyph unicode="&#x41a;" glyph-name="null" horiz-adv-x="575" d="M134 0H86V667H134V370H219Q259 370 283 384T325 428L477 667H531L368 413Q352 388 334 372T291 346Q319 338 340 320T384 266L555 0H498L339 248Q311 292 282 308T218 325H134V0Z" />
<glyph unicode="&#x41b;" glyph-name="null" horiz-adv-x="702" d="M616 667V0H568V622H284Q281 542 276 465T259 318T231 190T187 89T123 22T36 -2H25V42Q86 42 125 86T188 212T222 409T237 667H616Z" />
<glyph unicode="&#x41c;" glyph-name="null" horiz-adv-x="783" d="M108 667H160L392 271L629 667H675L705 0H657L634 592L404 210H373L149 591L126 0H78L108 667Z" />
<glyph unicode="&#x41d;" glyph-name="null" horiz-adv-x="688" d="M86 667H134V370H554V667H602V0H554V325H134V0H86V667Z" />
<glyph unicode="&#x41e;" glyph-name="null" horiz-adv-x="774" d="M387 -16Q315 -16 255 11T150 85T81 195T56 333Q56 406 81 470T150 581T254 656T387 683Q459 683 519 656T624 582T693 470T718 333Q718 259 693 196T624 85T520 11T387 -16ZM387 29Q450 29 502
52T590 117T647 214T667 333Q667 396 647 452T591 549T502 614T387 638Q324 638 272 614T184 549T127 452T107 333Q107 270 127 215T183 118T272 53T387 29Z" />
<glyph unicode="&#x41f;" glyph-name="null" horiz-adv-x="693" d="M86 667H607V0H559V622H134V0H86V667Z" />
<glyph unicode="&#x420;" glyph-name="null" horiz-adv-x="579" d="M86 667H291Q356 667 400 653T472 612T511 551T523 475Q523 434 511 399T472 338T401 298T291 283H134V0H86V667ZM305 328Q389 328 430 365T471 475Q471 547 430 584T305 622H134V328H305Z" />
<glyph unicode="&#x421;" glyph-name="null" horiz-adv-x="672" d="M621 111Q615 101 599 80T553 38T480 0T378 -16Q306 -16 247 10T145 84T79 195T56 334Q56 407 79 470T144 581T246 656T378 683Q437 683 480 667T552 630T598 587T621 556L585 531Q579 539 566
556T528 592T467 624T380 638Q316 638 266 615T180 550T127 454T108 334Q108 270 127 215T181 118T267 53T383 29Q430 29 465 43T525 75T564 110T585 136L621 111Z" />
<glyph unicode="&#x422;" glyph-name="null" horiz-adv-x="616" d="M284 624H25V667H591V624H332V0H284V624Z" />
<glyph unicode="&#x423;" glyph-name="null" horiz-adv-x="589" d="M520 667H571L284 74Q264 32 236 8T161 -16Q128 -16 101 -5T55 24L79 60Q96 46 116 38T160 29Q190 29 209 44T244 92L284 175L18 667H73L309 228L520 667Z" />
<glyph unicode="&#x424;" glyph-name="null" horiz-adv-x="774" d="M365 707H410V626Q483 623 540 599T637 537T697 447T718 337Q718 278 698 227T638 138T541 75T410 48V-40H365V48Q291 51 234 74T137 137T77 227T56 337Q56 395 76 446T136 537T233 599T365 626V707ZM107
337Q107 287 123 244T171 167T251 113T365 89V585Q300 582 252 562T171 508T123 430T107 337ZM667 337Q667 386 651 429T603 506T523 561T410 585V89Q475 92 523 113T603 167T651 243T667 337Z" />
<glyph unicode="&#x425;" glyph-name="null" horiz-adv-x="588" d="M266 347L37 667H95L293 387L493 667H549L321 350L571 0H513L294 310L73 0H17L266 347Z" />
<glyph unicode="&#x426;" glyph-name="null" horiz-adv-x="705" d="M603 -154V0H86V667H134V45H555V667H603V45H649V-154H603Z" />
<glyph unicode="&#x427;" glyph-name="null" horiz-adv-x="609" d="M523 667V0H475V298Q441 281 395 270T295 258Q249 258 207 269T134 305T84 372T65 474V667H113V486Q113 435 127 400T165 344T224 313T301 303Q353 303 398 315T475 344V667H523Z" />
<glyph unicode="&#x428;" glyph-name="null" horiz-adv-x="1040" d="M954 0H86V667H134V45H496V667H544V45H906V667H954V0Z" />
<glyph unicode="&#x429;" glyph-name="null" horiz-adv-x="1056" d="M954 -154V0H86V667H134V45H496V667H544V45H906V667H954V45H1000V-154H954Z" />
<glyph unicode="&#x42a;" glyph-name="null" horiz-adv-x="689" d="M25 667H236V402H393Q458 402 504 387T578 346T620 282T633 199Q633 158 620 122T579 59T505 16T394 0H188V624H25V667ZM236 357V45H404Q492 45 536 84T581 199Q581 277 537 317T404 357H236Z" />
<glyph unicode="&#x42b;" glyph-name="null" horiz-adv-x="771" d="M86 667H134V402H286Q351 402 397 387T471 346T513 282T526 199Q526 158 513 122T472 59T398 16T287 0H86V667ZM134 357V45H297Q385 45 429 84T474 199Q474 277 430 317T297 357H134ZM637 667H685V0H637V667Z"
/>
<glyph unicode="&#x42c;" glyph-name="null" horiz-adv-x="597" d="M86 667H134V402H301Q366 402 412 387T486 346T528 282T541 199Q541 158 528 122T487 59T413 16T302 0H86V667ZM134 357V45H312Q400 45 444 84T489 199Q489 277 445 317T312 357H134Z" />
<glyph unicode="&#x42d;" glyph-name="null" horiz-adv-x="692" d="M197 370H585Q580 428 560 477T505 562T423 618T319 638Q264 638 226 624T162 592T122 556T102 530L66 556Q72 566 89 587T138 629T214 667T322 683Q392 683 450 657T549 583T613 472T636 334Q636
258 612 194T545 83T443 10T311 -16Q249 -16 205 -1T130 35T81 77T56 111L93 136Q99 128 114 111T155 75T218 43T305 29Q371 29 422 51T510 113T565 207T587 325H197V370Z" />
<glyph unicode="&#x42e;" glyph-name="null" horiz-adv-x="1018" d="M646 -16Q578 -16 521 10T422 82T356 190T330 325H134V0H86V667H134V370H331Q337 437 363 494T430 593T527 659T646 683Q714 683 772 656T872 582T938 470T962 333Q962 259 938 196T872 85T772
11T646 -16ZM646 29Q706 29 755 52T838 117T892 214T911 333Q911 396 892 452T839 549T755 614T646 638Q586 638 537 614T453 549T398 452T379 333Q379 270 398 215T452 118T537 53T646 29Z" />
<glyph unicode="&#x42f;" glyph-name="null" horiz-adv-x="596" d="M510 0H462V289H332Q311 289 295 285T266 271T242 247T220 211L107 0H54L177 228Q192 256 206 273T243 298Q155 308 114 357T73 478Q73 519 86 553T128 613T202 653T309 667H510V0ZM462 334V622H295Q210
622 167 586T124 478Q124 334 289 334H462Z" />
<glyph unicode="&#x430;" glyph-name="null" horiz-adv-x="492" d="M380 239Q359 244 328 247T247 251Q196 251 166 238T121 207T101 167T96 127Q96 76 129 53T215 29Q249 29 279 41T331 74T367 120T380 173V239ZM427 0H384Q383 5 383 10T383 20Q382 31 382 45T382
78Q364 51 342 34T298 7T252 -8T210 -12Q181 -12 152 -6T100 16T63 58T48 127Q48 161 59 190T94 242T156 276T248 289Q290 289 323 286T379 279V305Q379 344 370 369T343 410T299 431T239 437Q182 437 149 421T97 389L73 420Q92 438 134 458T238 478Q328 478 376
440T424 312V97Q424 77 424 60T425 28L427 0Z" />
<glyph unicode="&#x431;" glyph-name="null" horiz-adv-x="583" d="M307 463Q356 463 398 446T471 397T519 322T537 228Q537 180 521 137T473 60T398 8T300 -12Q260 -12 219 2T144 49T89 137T67 273Q67 372 85 440T141 553T239 621T385 652L491 662L494 621L390
612Q322 606 271 590T186 543T133 463T112 344Q142 404 192 433T307 463ZM303 29Q345 29 379 44T438 87T475 150T489 227Q489 267 476 302T439 364T381 405T303 420Q259 420 224 405T165 362T129 300T116 226Q116 187 129 152T166 89T225 45T303 29Z" />
<glyph unicode="&#x432;" glyph-name="null" horiz-adv-x="506" d="M114 40H295Q313 40 334 42T373 52T403 78T415 128Q415 154 404 172T375 201T331 216T276 221H114V40ZM114 261H279Q302 261 322 265T359 280T384 307T393 347Q393 372 385 388T362 412T330 423T293
426H114V261ZM69 0V466H293Q369 466 404 435T439 352Q439 310 416 281T354 244Q375 241 394 233T428 211T452 176T461 125Q461 90 448 67T414 28T365 7T307 0H69Z" />
<glyph unicode="&#x433;" glyph-name="null" horiz-adv-x="410" d="M380 424H114V0H69V466H380V424Z" />
<glyph unicode="&#x434;" glyph-name="null" horiz-adv-x="551" d="M468 466V42H511V-124H468V0H48V-124H5V42H46Q77 81 98 124T134 219T156 331T167 466H468ZM423 424H207Q202 349 194 293T172 192T141 111T100 42H423V424Z" />
<glyph unicode="&#x435;" glyph-name="null" horiz-adv-x="534" d="M281 30Q302 30 324 34T368 48T406 69T436 96L468 69Q438 31 387 10T281 -12Q230 -12 187 6T112 56T64 134T46 236Q46 286 62 330T108 407T178 459T268 478Q315 478 355 462T425 413T471 334T488
224H95Q97 180 112 144T151 83T209 44T281 30ZM439 263Q430 348 385 392T268 436Q235 436 206 425T153 391T114 336T96 263H439Z" />
<glyph unicode="&#x436;" glyph-name="null" horiz-adv-x="671" d="M356 0H315V218H250Q218 218 203 207T174 174L61 0H10L133 187Q149 211 161 222T191 240Q167 250 153 266T124 305L22 466H69L165 317Q183 289 201 275T248 260H315V466H356V260H425Q454 260
472 274T508 317L604 466H649L547 305Q533 283 519 267T480 240Q497 234 509 223T538 187L661 0H608L495 174Q481 196 466 207T419 218H356V0Z" />
<glyph unicode="&#x437;" glyph-name="null" horiz-adv-x="452" d="M128 218V260H204Q268 260 308 280T348 350Q348 374 339 391T312 418T273 433T223 438Q172 438 136 421T72 371L41 396Q67 434 117 456T223 478Q308 478 351 443T394 353Q394 309 368 279T297
240Q319 237 339 229T374 206T398 170T407 118Q407 87 393 63T353 23T295 -3T223 -12Q163 -12 113 9T30 68L60 94Q90 62 132 45T223 28Q251 28 276 33T320 50T350 79T361 121Q361 176 318 197T203 218H128Z" />
<glyph unicode="&#x438;" glyph-name="null" horiz-adv-x="539" d="M113 466V56L422 466H470V0H426V410L117 0H69V466H113Z" />
<glyph unicode="&#x439;" glyph-name="null" horiz-adv-x="539" d="M113 466V56L422 466H470V0H426V410L117 0H69V466H113ZM190 648Q190 619 212 599T272 579Q310 579 332 599T355 648H392Q392 628 385 609T362 575T325 551T272 542Q242 542 220 551T182 575T160
609T152 648H190Z" />
<glyph unicode="&#x43a;" glyph-name="null" horiz-adv-x="463" d="M114 0H69V466H114V260H199Q230 260 249 274T288 317L392 466H440L330 305Q316 283 300 267T258 240Q276 235 289 224T319 189L453 0H398L276 174Q261 196 245 207T195 218H114V0Z" />
<glyph unicode="&#x43b;" glyph-name="null" horiz-adv-x="556" d="M487 466V0H442V424H223Q217 333 208 255T178 120T123 31T29 -2H25V40H29Q78 40 106 76T149 171T170 307T181 466H487Z" />
<glyph unicode="&#x43c;" glyph-name="null" horiz-adv-x="615" d="M65 0L88 466H131L309 192L489 466H527L550 0H506L489 398L322 145H293L126 397L109 0H65Z" />
<glyph unicode="&#x43d;" glyph-name="null" horiz-adv-x="544" d="M475 466V0H430V218H114V0H69V466H114V260H430V466H475Z" />
<glyph unicode="&#x43e;" glyph-name="null" horiz-adv-x="566" d="M283 -12Q234 -12 191 7T116 60T65 137T46 233Q46 284 64 328T115 406T191 458T283 478Q332 478 375 459T450 406T501 329T520 233Q520 182 502 138T451 60T375 8T283 -12ZM283 29Q323 29 358
45T418 88T458 153T473 233Q473 274 458 311T418 376T357 420T283 437Q242 437 208 421T148 378T108 313T93 233Q93 192 108 155T148 90T209 46T283 29Z" />
<glyph unicode="&#x43f;" glyph-name="null" horiz-adv-x="546" d="M477 466V0H432V424H114V0H69V466H477Z" />
<glyph unicode="&#x440;" glyph-name="null" horiz-adv-x="538" d="M71 -200V368Q71 387 71 401T71 425T71 445T69 466H111Q112 455 113 447T114 429T115 409T115 381Q120 390 131 406T163 438T213 466T285 478Q338 478 377 459T441 407T479 328T492 230Q492 175
475 131T426 55T352 6T259 -12Q210 -12 175 1T115 29V-200H71ZM115 81Q122 76 134 68T164 51T205 36T259 30Q297 30 331 43T390 81T429 144T444 230Q444 271 435 308T407 374T356 419T280 436Q250 436 226 427T182 402T149 366T127 322Q120 304 118 279T115 227V81Z"
/>
<glyph unicode="&#x441;" glyph-name="null" horiz-adv-x="495" d="M459 68Q430 33 384 11T277 -12Q227 -12 185 6T111 58T63 136T46 233Q46 285 63 330T112 408T185 459T277 478Q338 478 380 457T453 397L419 371Q396 401 362 418T277 436Q237 436 204 420T146
376T108 312T94 233Q94 191 108 155T146 90T204 46T277 30Q328 30 366 48T427 96L459 68Z" />
<glyph unicode="&#x442;" glyph-name="null" horiz-adv-x="461" d="M208 0V424H25V466H436V424H253V0H208Z" />
<glyph unicode="&#x443;" glyph-name="null" horiz-adv-x="462" d="M45 -149Q54 -158 69 -165T105 -172Q135 -172 151 -151T183 -91L221 6L16 466H67L244 61L397 466H446L220 -109Q214 -124 205 -142T183 -175T150 -201T105 -212Q76 -212 57 -204T22 -181L45 -149Z" />
<glyph unicode="&#x444;" glyph-name="null" horiz-adv-x="670" d="M312 667H357V472Q423 469 473 450T558 398T609 324T627 233Q627 184 611 142T560 67T476 16T357 -6V-200H312V-6Q246 -3 196 16T111 67T60 141T43 233Q43 281 59 323T109 398T193 449T312 472V667ZM580
233Q580 273 566 308T525 370T455 413T357 433V32Q414 35 456 51T525 94T566 156T580 233ZM90 233Q90 193 103 158T144 95T214 52T312 32V433Q255 430 213 414T144 371T103 309T90 233Z" />
<glyph unicode="&#x445;" glyph-name="null" horiz-adv-x="456" d="M197 249L34 466H90L228 282L362 466H412L253 249L441 0H385L222 216L65 0H15L197 249Z" />
<glyph unicode="&#x446;" glyph-name="null" horiz-adv-x="553" d="M513 42V-124H470V0H69V466H114V42H425V466H470V42H513Z" />
<glyph unicode="&#x447;" glyph-name="null" horiz-adv-x="492" d="M423 466V0H378V205Q351 191 314 182T236 173Q200 173 166 182T107 212T66 266T50 349V466H95V366Q95 280 134 247T244 214Q282 214 318 223T378 246V466H423Z" />
<glyph unicode="&#x448;" glyph-name="null" horiz-adv-x="821" d="M69 0V466H114V42H388V466H433V42H707V466H752V0H69Z" />
<glyph unicode="&#x449;" glyph-name="null" horiz-adv-x="835" d="M795 42V-124H752V0H69V466H114V42H388V466H433V42H707V466H752V42H795Z" />
<glyph unicode="&#x44a;" glyph-name="null" horiz-adv-x="565" d="M200 466V296H360Q438 296 481 256T525 151Q525 120 515 93T484 45T432 12T357 0H155V424H25V466H200ZM200 40H355Q419 40 449 67T479 145Q479 256 355 256H200V40Z" />
<glyph unicode="&#x44b;" glyph-name="null" horiz-adv-x="643" d="M114 40H266Q330 40 360 67T390 145Q390 256 266 256H114V40ZM114 466V296H272Q350 296 393 256T436 151Q436 120 426 93T395 45T343 12T268 0H69V466H114ZM574 0H529V466H574V0Z" />
<glyph unicode="&#x44c;" glyph-name="null" horiz-adv-x="486" d="M114 40H276Q340 40 370 67T400 146Q400 256 276 256H114V40ZM114 466V296H282Q360 296 403 256T446 150Q446 119 436 92T405 45T353 12T278 0H69V466H114Z" />
<glyph unicode="&#x44d;" glyph-name="null" horiz-adv-x="500" d="M154 259H407Q404 296 391 328T354 384T299 422T227 436Q182 436 144 419T81 371L47 397Q80 438 127 458T228 478Q280 478 322 459T393 407T438 330T454 236Q454 184 438 139T391 61T317 8T222
-12Q162 -12 116 11T41 68L73 96Q98 66 138 48T223 30Q262 30 294 44T351 82T389 141T407 217H154V259Z" />
<glyph unicode="&#x44e;" glyph-name="null" horiz-adv-x="751" d="M478 -12Q431 -12 391 5T322 53T274 126T254 218H114V0H69V466H114V260H255Q259 307 277 347T325 416T394 461T478 478Q527 478 568 460T640 408T688 330T705 233Q705 180 688 136T641 58T569
7T478 -12ZM479 29Q518 29 551 44T608 86T645 150T658 231Q658 275 645 312T607 378T550 421T477 437Q438 437 405 422T349 379T312 315T299 235Q299 191 312 154T349 88T406 45T479 29Z" />
<glyph unicode="&#x44f;" glyph-name="null" horiz-adv-x="492" d="M423 0H378V192H253Q236 192 224 190T202 181T183 165T165 137L90 0H40L126 151Q138 173 147 183T171 201Q122 205 90 239T58 327Q58 388 97 427T215 466H423V0ZM378 232V426H218Q104 426 104
327Q104 232 210 232H378Z" />
<glyph unicode="&#x450;" glyph-name="null" horiz-adv-x="534" d="M281 30Q302 30 324 34T368 48T406 69T436 96L468 69Q438 31 387 10T281 -12Q230 -12 187 6T112 56T64 134T46 236Q46 286 62 330T108 407T178 459T268 478Q315 478 355 462T425 413T471 334T488
224H95Q97 180 112 144T151 83T209 44T281 30ZM439 263Q430 348 385 392T268 436Q235 436 206 425T153 391T114 336T96 263H439ZM195 676H253L313 548H271L195 676Z" />
<glyph unicode="&#x451;" glyph-name="null" horiz-adv-x="534" d="M281 30Q302 30 324 34T368 48T406 69T436 96L468 69Q438 31 387 10T281 -12Q230 -12 187 6T112 56T64 134T46 236Q46 286 62 330T108 407T178 459T268 478Q315 478 355 462T425 413T471 334T488
224H95Q97 180 112 144T151 83T209 44T281 30ZM439 263Q430 348 385 392T268 436Q235 436 206 425T153 391T114 336T96 263H439ZM310 634H370V571H310V634ZM162 634H222V571H162V634Z" />
<glyph unicode="&#x452;" glyph-name="null" horiz-adv-x="551" d="M80 540H0V580H80V667H125V580H303V540H125V368Q133 383 148 401T184 435T235 461T302 472Q358 472 394 446T452 380T481 289T490 191Q490 59 452 -37T342 -207L311 -178Q377 -106 409 -18T442
181Q442 236 435 282T411 361T366 412T296 430Q253 430 221 412T168 366T136 304T125 237V0H80V540Z" />
<glyph unicode="&#x453;" glyph-name="null" horiz-adv-x="410" d="M380 424H114V0H69V466H380V424ZM261 667H316L241 539H199L261 667Z" />
<glyph unicode="&#x454;" glyph-name="null" horiz-adv-x="500" d="M346 217H92Q95 176 110 142T150 83T208 44T281 30Q323 30 362 47T427 96L459 68Q430 33 384 11T279 -12Q228 -12 185 6T111 58T63 136T46 233Q46 285 63 330T112 408T186 459T282 478Q340 478
382 456T453 397L419 371Q398 399 364 417T281 436Q242 436 209 423T152 386T112 330T93 259H346V217Z" />
<glyph unicode="&#x455;" glyph-name="null" horiz-adv-x="462" d="M70 90Q99 61 136 46T225 30Q253 30 278 35T322 51T352 78T363 117Q363 143 353 159T324 186T275 204T207 221Q175 228 149 237T103 261T73 297T62 351Q62 383 76 407T113 446T167 470T231 478Q285
478 326 458T394 407L363 379Q339 405 308 421T232 437Q210 437 188 434T148 421T119 394T108 350Q108 327 120 312T153 287T199 271T251 258Q279 252 307 243T359 219T397 181T412 124Q412 89 396 64T354 21T295 -4T229 -12Q163 -12 118 7T41 58L70 90Z" />
<glyph unicode="&#x456;" glyph-name="null" horiz-adv-x="183" d="M60 628H123V563H60V628ZM69 466H114V0H69V466Z" />
<glyph unicode="&#x457;" glyph-name="null" horiz-adv-x="183" d="M69 466H114V0H69V466ZM136 627H196V564H136V627ZM-12 627H48V564H-12V627Z" />
<glyph unicode="&#x458;" glyph-name="null" horiz-adv-x="187" d="M-71 -131Q-54 -146 -39 -153T-4 -160Q11 -160 24 -155T48 -135T65 -93T71 -21V466H116V-14Q116 -58 111 -92T93 -151T55 -187T-6 -200Q-35 -200 -58 -189T-95 -164L-71 -131ZM62 628H125V563H62V628Z" />
<glyph unicode="&#x459;" glyph-name="null" horiz-adv-x="845" d="M480 466V296H640Q718 296 761 256T805 151Q805 120 795 93T764 45T712 12T637 0H435V424H223Q217 333 208 255T178 120T123 31T29 -2H25V40H29Q78 40 106 76T149 171T170 307T181 466H480ZM480
40H635Q699 40 729 67T759 145Q759 256 635 256H480V40Z" />
<glyph unicode="&#x45a;" glyph-name="null" horiz-adv-x="833" d="M468 466V280H631Q708 280 750 242T793 142Q793 113 783 87T753 42T701 11T627 0H423V240H114V0H69V466H114V280H423V466H468ZM468 40H625Q688 40 717 65T747 138Q747 240 625 240H468V40Z" />
<glyph unicode="&#x45b;" glyph-name="null" horiz-adv-x="543" d="M80 540H0V580H80V667H125V580H303V540H125V368Q133 383 147 401T184 435T235 461T302 472Q351 472 384 458T439 418T469 354T478 270V0H433V255Q433 306 424 340T398 394T355 422T296 430Q252
430 220 412T167 366T136 304T125 237V0H80V540Z" />
<glyph unicode="&#x45c;" glyph-name="null" horiz-adv-x="463" d="M114 0H69V466H114V260H199Q230 260 249 274T288 317L392 466H440L330 305Q316 283 300 267T258 240Q276 235 289 224T319 189L453 0H398L276 174Q261 196 245 207T195 218H114V0ZM275 673H330L255
545H213L275 673Z" />
<glyph unicode="&#x45d;" glyph-name="null" horiz-adv-x="539" d="M113 466V56L422 466H470V0H426V410L117 0H69V466H113ZM176 676H234L294 548H252L176 676Z" />
<glyph unicode="&#x45e;" glyph-name="null" horiz-adv-x="462" d="M45 -149Q54 -158 69 -165T105 -172Q135 -172 151 -151T183 -91L221 6L16 466H67L244 61L397 466H446L220 -109Q214 -124 205 -142T183 -175T150 -201T105 -212Q76 -212 57 -204T22 -181L45 -149ZM166
648Q166 619 188 599T248 579Q286 579 308 599T331 648H368Q368 628 361 609T338 575T301 551T248 542Q218 542 196 551T158 575T136 609T128 648H166Z" />
<glyph unicode="&#x45f;" glyph-name="null" horiz-adv-x="542" d="M69 0V466H114V42H428V466H473V0H293V-124H250V0H69Z" />
<glyph unicode="&#x462;" glyph-name="null" horiz-adv-x="740" d="M234 708H282V602H541V559H282V397H447Q511 397 556 383T630 342T671 278T684 197Q684 157 671 121T630 58T557 16T448 0H234V559H25V602H234V708ZM282 352V45H457Q544 45 588 84T632 197Q632
273 588 312T457 352H282Z" />
<glyph unicode="&#x463;" glyph-name="null" horiz-adv-x="605" d="M233 666V466H426V424H233V291H401Q479 291 522 252T565 147Q565 117 555 91T524 44T472 12T397 0H188V424H25V466H188V666H233ZM233 40H395Q459 40 489 67T519 144Q519 251 395 251H233V40Z" />
<glyph unicode="&#x472;" glyph-name="null" horiz-adv-x="774" d="M387 -16Q315 -16 255 11T150 85T81 195T56 333Q56 406 81 470T150 581T254 656T387 683Q459 683 519 656T624 582T693 470T718 333Q718 259 693 196T624 85T520 11T387 -16ZM387 29Q449 29 500
51T588 113T646 206T670 320H104Q106 259 127 206T185 114T273 52T387 29ZM387 638Q327 638 278 617T191 559T132 473T105 365H668Q663 423 641 472T583 559T497 617T387 638Z" />
<glyph unicode="&#x473;" glyph-name="null" horiz-adv-x="566" d="M283 -12Q234 -12 191 7T116 60T65 137T46 233Q46 284 64 328T115 406T191 458T283 478Q332 478 375 459T450 406T501 329T520 233Q520 182 502 138T451 60T375 8T283 -12ZM283 28Q322 28 355
42T414 82T456 142T475 216H90Q93 177 109 143T152 84T211 43T283 28ZM283 438Q245 438 212 424T154 386T112 328T91 257H474Q470 294 454 327T412 384T353 423T283 438Z" />
<glyph unicode="&#x474;" glyph-name="null" horiz-adv-x="711" d="M18 667H73L317 59L509 565Q530 621 565 646T651 672Q660 672 669 672T686 670V625Q678 626 671 626T658 626Q618 626 595 610T554 550L339 0H291L18 667Z" />
<glyph unicode="&#x475;" glyph-name="null" d="M16 466H67L240 55L373 385Q390 428 418 450T489 472Q495 472 501 472T515 470V430Q510 431 505 431T495 431Q464 431 446 417T413 368L259 0H217L16 466Z" />
<glyph unicode="&#x48a;" glyph-name="null" horiz-adv-x="713" d="M533 -128Q566 -107 587 -74T611 0H564V599L139 0H86V667H133V64L561 667H611V45H657V19Q657 -38 630 -87T554 -163L533 -128ZM264 841Q266 812 288 793T350 774Q390 774 412 793T437 841H480Q479
821 471 802T446 768T406 744T350 735Q318 735 294 744T254 768T229 802T219 841H264Z" />
<glyph unicode="&#x48b;" glyph-name="null" horiz-adv-x="553" d="M113 466V56L422 466H470V42H513V20Q513 -30 491 -69T426 -133L406 -102Q466 -61 470 0H426V410L117 0H69V466H113ZM189 648Q189 619 211 599T271 579Q309 579 331 599T354 648H391Q391 628 384
609T361 575T324 551T271 542Q241 542 219 551T181 575T159 609T151 648H189Z" />
<glyph unicode="&#x48c;" glyph-name="null" horiz-adv-x="608" d="M102 667H150V555H324V513H150V397H315Q379 397 424 383T498 342T539 278T552 197Q552 157 539 121T498 58T425 16T316 0H102V513H20V555H102V667ZM150 352V45H325Q412 45 456 84T500 197Q500
273 456 312T325 352H150Z" />
<glyph unicode="&#x48d;" glyph-name="null" horiz-adv-x="497" d="M125 480V404H303V364H125V286H295Q373 286 415 247T457 145Q457 115 447 89T417 43T365 12T291 0H80V364H0V404H80V480H125ZM125 40H289Q352 40 381 66T411 141Q411 246 289 246H125V40Z" />
<glyph unicode="&#x48e;" glyph-name="null" horiz-adv-x="579" d="M86 667H291Q356 667 400 653T472 612T511 551T523 475Q523 415 497 369T406 299L456 213L419 192L363 289Q331 283 291 283H134V0H86V667ZM315 458L384 338Q471 366 471 475Q471 547 431 584T305
622H134V328H305Q314 328 323 328T340 329L278 437L315 458Z" />
<glyph unicode="&#x48f;" glyph-name="null" horiz-adv-x="538" d="M71 -200V368Q71 387 71 401T71 425T71 445T69 466H111Q112 455 113 447T114 429T115 409T115 381Q120 390 131 406T163 438T213 466T285 478Q338 478 377 459T441 407T479 328T492 230Q492 165
468 116T401 34L451 -53L417 -72L367 13Q317 -12 259 -12Q210 -12 175 1T115 29V-200H71ZM310 192L380 70Q410 96 427 136T444 230Q444 271 435 308T407 374T356 419T280 436Q250 436 226 427T182 402T149 366T127 322Q120 304 118 279T115 227V81Q121 76 133 68T164
51T206 36T259 30Q306 30 347 49L276 173L310 192Z" />
<glyph unicode="&#x490;" glyph-name="null" horiz-adv-x="532" d="M86 667H461V803H507V624H134V0H86V667Z" />
<glyph unicode="&#x491;" glyph-name="null" horiz-adv-x="415" d="M385 575V424H114V0H69V466H342V575H385Z" />
<glyph unicode="&#x492;" glyph-name="null" horiz-adv-x="541" d="M20 300V342H100V667H516V624H148V342H329V300H148V0H100V300H20Z" />
<glyph unicode="&#x493;" glyph-name="null" horiz-adv-x="421" d="M0 203V243H80V466H391V424H125V243H278V203H125V0H80V203H0Z" />
<glyph unicode="&#x494;" glyph-name="null" horiz-adv-x="625" d="M86 667H482V624H134V397Q173 414 215 423T300 433Q367 433 418 409T504 342T557 241T575 117Q575 42 553 -18T493 -121T401 -187T285 -211Q237 -211 183 -195L195 -152Q215 -158 240 -162T288
-166Q334 -166 377 -149T453 -96T505 -7T525 119Q525 182 509 232T463 317T390 370T292 389Q250 389 210 379T134 352V0H86V667Z" />
<glyph unicode="&#x495;" glyph-name="null" horiz-adv-x="519" d="M405 424H114V259Q142 273 173 282T241 292Q293 292 335 274T409 223T457 146T474 50Q474 -6 455 -51T404 -127T330 -176T242 -194Q223 -194 202 -191T158 -179L170 -140Q191 -147 208 -149T242
-152Q282 -152 316 -137T375 -95T413 -31T427 51Q427 96 413 133T374 196T313 237T237 251Q203 251 172 242T114 217V0H69V466H405V424Z" />
<glyph unicode="&#x496;" glyph-name="null" horiz-adv-x="870" d="M392 667H436V370H520Q553 370 578 386T621 439L735 667H784L657 418Q632 369 582 347Q609 339 629 322T669 266L784 45H830V-154H784V0H756L628 248Q605 292 579 308T522 325H436V0H392V325H305Q275
325 249 309T199 248L71 0H20L159 266Q179 304 198 321T245 346Q196 369 171 418L44 667H94L208 439Q226 402 251 386T309 370H392V667Z" />
<glyph unicode="&#x497;" glyph-name="null" horiz-adv-x="697" d="M356 0H315V218H250Q218 218 203 207T174 174L61 0H10L133 187Q149 211 161 222T191 240Q167 250 153 266T124 305L22 466H69L165 317Q183 289 201 275T248 260H315V466H356V260H425Q454 260
472 274T508 317L604 466H649L547 305Q533 283 519 267T480 240Q497 234 509 223T538 187L633 42H677V-124H634V0H608L495 174Q481 196 466 207T419 218H356V0Z" />
<glyph unicode="&#x498;" glyph-name="null" horiz-adv-x="559" d="M172 325V370H279Q308 370 336 377T387 401T424 443T438 503Q438 543 424 569T386 610T336 632T282 638Q240 638 210 627T158 600T122 566T99 533L60 556Q68 570 83 591T125 633T190 668T284
683Q339 683 378 668T441 627T477 571T488 506Q488 479 479 453T453 406T413 370T359 350Q383 346 409 336T456 305T492 254T506 178Q506 127 488 91T439 31T367 -4T281 -16Q223 -16 181 -1T110 35T65 77T42 111L80 135Q87 125 101 107T139 72T198 42T282 29Q314
29 345 36T401 60T441 105T456 178Q456 221 440 249T398 294T341 318T280 325H172ZM189 -160Q203 -166 223 -171T268 -177Q346 -177 346 -132Q346 -93 281 -93Q260 -93 241 -96T199 -108L206 -68Q224 -62 243 -58T295 -53Q321 -53 339 -60T370 -78T387 -103T393
-130Q393 -172 359 -194T274 -217Q238 -217 216 -211T181 -199L189 -160Z" />
<glyph unicode="&#x499;" glyph-name="null" horiz-adv-x="452" d="M128 218V260H204Q268 260 308 280T348 350Q348 374 339 391T312 418T273 433T223 438Q172 438 136 421T72 371L41 396Q67 434 117 456T223 478Q308 478 351 443T394 353Q394 309 368 279T297
240Q319 237 339 229T374 206T398 170T407 118Q407 87 393 63T353 23T295 -3T223 -12Q163 -12 113 9T30 68L60 94Q90 62 132 45T223 28Q251 28 276 33T320 50T350 79T361 121Q361 176 318 197T203 218H128ZM131 -165Q145 -171 164 -176T207 -182Q243 -182 262 -170T282
-134Q282 -114 267 -103T219 -91Q199 -91 182 -94T141 -106L147 -71Q159 -67 176 -62T231 -56Q255 -56 273 -63T302 -80T318 -105T324 -132Q324 -174 292 -195T210 -217Q173 -217 154 -211T123 -199L131 -165Z" />
<glyph unicode="&#x49a;" glyph-name="null" horiz-adv-x="606" d="M134 0H86V667H134V370H219Q259 370 283 384T325 428L477 667H531L368 413Q352 388 334 372T291 346Q319 338 340 320T384 266L526 45H566V-154H520V0H498L339 248Q311 292 282 308T218 325H134V0Z" />
<glyph unicode="&#x49b;" glyph-name="null" horiz-adv-x="487" d="M114 0H69V466H114V260H199Q230 260 249 274T288 317L392 466H440L330 305Q316 283 300 267T258 240Q276 235 289 224T319 189L423 42H467V-124H424V0H398L276 174Q261 196 245 207T195 218H114V0Z" />
<glyph unicode="&#x49c;" glyph-name="null" horiz-adv-x="585" d="M134 0H86V667H134V370H200V500H242V370Q276 372 297 387T335 428L487 667H541L378 413Q362 388 344 372T301 346Q329 338 350 320T394 266L565 0H508L349 248Q323 287 298 304T242 324V183H200V325H134V0Z"
/>
<glyph unicode="&#x49d;" glyph-name="null" horiz-adv-x="473" d="M114 0H69V466H114V260H179V370H218V260Q244 262 262 276T298 317L402 466H450L340 305Q326 283 310 267T268 240Q286 235 299 224T329 189L463 0H408L286 174Q272 194 258 204T218 217V110H179V218H114V0Z"
/>
<glyph unicode="&#x49e;" glyph-name="null" horiz-adv-x="591" d="M150 0H102V526H20V568H102V667H150V568H238V526H150V370H235Q275 370 299 384T341 428L493 667H547L384 413Q368 388 350 372T307 346Q335 338 356 320T400 266L571 0H514L355 248Q327 292 298
308T234 325H150V0Z" />
<glyph unicode="&#x49f;" glyph-name="null" horiz-adv-x="474" d="M125 0H80V359H0V399H80V466H125V399H193V359H125V260H210Q241 260 260 274T299 317L403 466H451L341 305Q326 283 311 267T269 240Q287 235 300 224T330 189L464 0H409L287 174Q272 196 256
207T206 218H125V0Z" />
<glyph unicode="&#x4a0;" glyph-name="null" horiz-adv-x="667" d="M236 0H188V624H25V667H236V370H316Q355 370 378 384T420 428L569 667H623L463 413Q447 388 429 372T388 346Q415 338 436 320T479 266L647 0H590L434 248Q406 292 378 308T315 325H236V0Z" />
<glyph unicode="&#x4a1;" glyph-name="null" horiz-adv-x="543" d="M200 0H155V424H25V466H200V260H279Q310 260 329 274T368 317L472 466H520L410 305Q396 283 380 267T338 240Q356 235 369 224T399 189L533 0H478L356 174Q341 196 325 207T275 218H200V0Z" />
<glyph unicode="&#x4a2;" glyph-name="null" horiz-adv-x="704" d="M602 -154V0H554V325H134V0H86V667H134V370H554V667H602V45H648V-154H602Z" />
<glyph unicode="&#x4a3;" glyph-name="null" horiz-adv-x="558" d="M475 466V42H518V-124H475V0H430V219H114V0H69V466H114V259H430V466H475Z" />
<glyph unicode="&#x4a4;" glyph-name="null" horiz-adv-x="790" d="M86 667H134V370H554V667H765V624H602V0H554V325H134V0H86V667Z" />
<glyph unicode="&#x4a5;" glyph-name="null" horiz-adv-x="623" d="M114 466V260H423V466H598V424H468V0H423V218H114V0H69V466H114Z" />
<glyph unicode="&#x4a6;" glyph-name="null" horiz-adv-x="1074" d="M86 667H592V412Q630 429 670 438T752 448Q816 448 866 423T949 355T1000 252T1018 125Q1018 49 997 -13T939 -119T851 -187T739 -211Q693 -211 641 -195L653 -152Q673 -158 696 -162T741 -166Q785
-166 826 -148T898 -93T949 -1T968 127Q968 191 953 242T909 330T838 385T744 404Q704 404 665 394T592 367V0H544V622H134V0H86V667Z" />
<glyph unicode="&#x4a7;" glyph-name="null" horiz-adv-x="871" d="M470 466V269Q498 283 529 292T598 302Q649 302 692 283T765 230T813 151T830 52Q830 -5 811 -51T759 -128T685 -177T598 -194Q579 -194 558 -191T514 -179L526 -140Q547 -147 565 -149T598 -152Q638
-152 672 -137T731 -94T769 -28T783 56Q783 102 769 140T730 205T669 246T592 261Q559 261 528 252T470 227V0H425V424H114V0H69V466H470Z" />
<glyph unicode="&#x4a8;" glyph-name="null" horiz-adv-x="783" d="M489 623Q463 630 438 634T386 638Q324 638 273 615T185 551T128 454T108 332Q108 269 127 214T184 118T275 53T400 29Q415 29 429 30T458 34Q396 76 360 144T323 300Q323 352 337 395T376 468T438
516T519 533Q562 533 598 517T660 472T701 400T716 305Q716 218 677 145T565 29Q592 23 621 23Q654 23 680 30T729 48L743 10Q720 -2 690 -9T624 -16Q565 -16 513 4Q458 -16 391 -16Q315 -16 254 10T148 83T80 193T56 329Q56 400 79 464T145 577T251 654T390 683Q451
683 502 667L489 623ZM372 302Q372 218 409 150T512 48Q552 64 581 90T629 149T657 221T667 301Q667 392 626 441T519 490Q452 490 412 440T372 302Z" />
<glyph unicode="&#x4a9;" glyph-name="null" horiz-adv-x="572" d="M344 428Q309 439 276 439Q236 439 203 423T145 380T108 315T94 235Q94 193 107 155T147 89T210 43T296 26Q304 26 311 26T326 28Q286 56 264 100T241 200Q241 272 280 315T383 359Q446 359 484
318T523 208Q523 151 496 103T420 24Q435 21 451 21Q471 21 490 25T529 39L542 6Q504 -12 457 -12Q414 -12 375 2Q335 -12 290 -12Q237 -12 192 6T115 58T64 136T46 233Q46 282 62 326T108 404T180 458T276 478Q317 478 355 466L344 428ZM282 201Q282 144 307 103T374
40Q425 60 453 103T482 204Q482 262 454 291T381 320Q335 320 309 289T282 201Z" />
<glyph unicode="&#x4aa;" glyph-name="null" horiz-adv-x="672" d="M621 111Q615 101 599 80T553 38T480 0T378 -16Q306 -16 247 10T145 84T79 195T56 334Q56 407 79 470T144 581T246 656T378 683Q437 683 480 667T552 630T598 587T621 556L585 531Q579 539 566
556T528 592T467 624T380 638Q316 638 266 615T180 550T127 454T108 334Q108 270 127 215T181 118T267 53T383 29Q430 29 465 43T525 75T564 110T585 136L621 111ZM278 -160Q292 -166 312 -171T357 -177Q435 -177 435 -132Q435 -93 370 -93Q349 -93 330 -96T288
-108L295 -68Q313 -62 332 -58T384 -53Q410 -53 428 -60T459 -78T476 -103T482 -130Q482 -172 448 -194T363 -217Q327 -217 305 -211T270 -199L278 -160Z" />
<glyph unicode="&#x4ab;" glyph-name="null" horiz-adv-x="495" d="M459 68Q430 33 384 11T277 -12Q227 -12 185 6T111 58T63 136T46 233Q46 285 63 330T112 408T185 459T277 478Q338 478 380 457T453 397L419 371Q396 401 362 418T277 436Q237 436 204 420T146
376T108 312T94 233Q94 191 108 155T146 90T204 46T277 30Q328 30 366 48T427 96L459 68ZM184 -165Q198 -171 217 -176T260 -182Q296 -182 315 -170T335 -134Q335 -114 320 -103T272 -91Q252 -91 235 -94T194 -106L200 -71Q212 -67 229 -62T284 -56Q308 -56 326
-63T355 -80T371 -105T377 -132Q377 -174 345 -195T263 -217Q226 -217 207 -211T176 -199L184 -165Z" />
<glyph unicode="&#x4ac;" glyph-name="null" horiz-adv-x="616" d="M332 -154V0H284V624H25V667H591V624H332V45H378V-154H332Z" />
<glyph unicode="&#x4ad;" glyph-name="null" horiz-adv-x="461" d="M208 0V424H25V466H436V424H253V42H297V-124H254V0H208Z" />
<glyph unicode="&#x4ae;" glyph-name="null" d="M246 306L16 667H74L271 353L468 667H524L294 306V0H246V306Z" />
<glyph unicode="&#x4af;" glyph-name="null" horiz-adv-x="475" d="M16 466H67L240 67L412 466H459L260 17V-200H216V17L16 466Z" />
<glyph unicode="&#x4b0;" glyph-name="null" d="M81 264V306H246L16 667H74L271 353L468 667H524L294 306H459V264H294V0H246V264H81Z" />
<glyph unicode="&#x4b1;" glyph-name="null" horiz-adv-x="475" d="M86 0V40H206L16 466H67L239 60L412 466H459L270 40H390V0H260V-200H216V0H86Z" />
<glyph unicode="&#x4b2;" glyph-name="null" horiz-adv-x="632" d="M546 -154V0H513L294 310L73 0H17L266 347L37 667H95L293 387L493 667H549L321 350L539 45H592V-154H546Z" />
<glyph unicode="&#x4b3;" glyph-name="null" horiz-adv-x="493" d="M197 249L34 466H90L228 282L362 466H412L253 249L409 42H460V-124H417V0H385L222 216L65 0H15L197 249Z" />
<glyph unicode="&#x4b4;" glyph-name="null" horiz-adv-x="856" d="M754 -154V0H229V624H20V667H495V624H277V45H706V667H754V45H800V-154H754Z" />
<glyph unicode="&#x4b5;" glyph-name="null" horiz-adv-x="675" d="M183 0V424H25V466H387V424H228V42H547V466H592V42H635V-124H592V0H183Z" />
<glyph unicode="&#x4b6;" glyph-name="null" horiz-adv-x="625" d="M523 667V45H569V-154H523V0H475V298Q441 281 395 270T295 258Q249 258 207 269T134 305T84 372T65 474V667H113V486Q113 435 127 400T165 344T224 313T301 303Q353 303 398 315T475 344V667H523Z" />
<glyph unicode="&#x4b7;" glyph-name="null" horiz-adv-x="506" d="M423 466V42H466V-124H423V0H378V205Q351 191 314 182T236 173Q200 173 166 182T107 212T66 266T50 349V466H95V366Q95 280 134 247T244 214Q282 214 318 223T378 246V466H423Z" />
<glyph unicode="&#x4b8;" glyph-name="null" horiz-adv-x="615" d="M529 667V0H481V298Q449 283 407 272T317 258V141H273V259Q231 262 193 275T127 313T82 378T65 474V667H113V486Q113 439 124 406T157 350T207 316T273 301V458H317V300Q366 302 408 314T481
344V667H529Z" />
<glyph unicode="&#x4b9;" glyph-name="null" horiz-adv-x="491" d="M422 466V0H377V205Q354 193 322 184T255 173V79H212V174Q179 177 150 187T99 219T63 272T50 349V466H95V366Q95 289 125 254T212 212V339H255V211Q290 213 322 222T377 246V466H422Z" />
<glyph unicode="&#x4ba;" glyph-name="null" horiz-adv-x="614" d="M86 0V667H134V394Q169 411 215 422T316 434Q363 434 405 423T479 386T530 319T549 218V0H501V206Q501 257 487 292T448 348T388 379T310 389Q257 389 212 377T134 348V0H86Z" />
<glyph unicode="&#x4bb;" glyph-name="null" horiz-adv-x="532" d="M69 667H114V374Q122 389 136 407T173 441T224 467T291 478Q340 478 373 464T428 424T458 360T467 276V0H422V261Q422 312 413 346T387 400T344 428T285 436Q241 436 209 418T156 372T125 310T114
243V0H69V667Z" />
<glyph unicode="&#x4bc;" glyph-name="null" horiz-adv-x="850" d="M159 327Q98 327 62 360T25 451Q25 480 33 501T56 543L91 523Q81 506 75 489T69 451Q69 409 93 390T158 370H168Q174 437 199 494T265 594T361 659T484 683Q550 683 606 660T704 592T770 481T794
327H216Q218 259 239 204T298 110T386 50T495 29Q555 29 614 50T728 129L761 100Q716 46 646 15T493 -16Q424 -16 365 9T263 80T194 189T167 327H159ZM744 370Q738 440 716 490T659 574T580 622T485 638Q432 638 386 621T303 569T244 485T217 370H744Z" />
<glyph unicode="&#x4bd;" glyph-name="null" horiz-adv-x="628" d="M80 401Q71 386 66 371T60 336Q60 298 82 281T140 263H146Q150 309 168 348T214 416T281 461T367 478Q412 478 451 462T520 413T565 334T582 224H192Q194 179 209 144T249 83T306 44T376 30Q420
30 463 48T530 96L562 69Q530 29 480 9T376 -12Q327 -12 286 5T213 54T164 129T145 224H141Q86 224 53 253T20 336Q20 362 28 382T48 419L80 401ZM533 263Q524 351 478 393T368 436Q333 436 303 425T250 391T211 336T193 263H533Z" />
<glyph unicode="&#x4be;" glyph-name="null" horiz-adv-x="850" d="M456 -154V-14Q394 -7 342 20T251 93T190 197T167 327H159Q98 327 62 360T25 451Q25 480 33 501T56 543L91 523Q81 506 75 489T69 451Q69 409 93 390T158 370H168Q174 437 199 494T265 594T361
659T484 683Q550 683 606 660T704 592T770 481T794 327H216Q218 259 239 204T298 110T386 49T495 27Q555 27 614 49T728 129L761 100Q716 48 649 17T502 -16V-154H456ZM744 370Q738 440 716 490T659 574T580 622T485 638Q432 638 386 621T303 569T244 485T217 370H744Z"
/>
<glyph unicode="&#x4bf;" glyph-name="null" horiz-adv-x="628" d="M80 401Q71 386 66 371T60 336Q60 298 82 281T140 263H146Q150 309 168 348T214 416T281 461T367 478Q412 478 451 462T520 413T565 334T582 224H192Q194 179 209 143T249 82T306 42T376 28Q420
28 463 47T530 96L562 69Q533 31 487 11T391 -11V-124H348V-10Q304 -6 268 13T204 63T162 135T145 224H141Q86 224 53 253T20 336Q20 362 28 382T48 419L80 401ZM533 263Q524 351 478 393T368 436Q333 436 303 425T250 391T211 336T193 263H533Z" />
<glyph unicode="&#x4c0;" glyph-name="null" horiz-adv-x="220" d="M86 667H134V0H86V667Z" />
<glyph unicode="&#x4c1;" glyph-name="null" horiz-adv-x="828" d="M392 667H436V370H520Q553 370 578 386T621 439L735 667H784L657 418Q632 369 582 347Q609 339 629 322T669 266L808 0H756L628 248Q605 292 579 308T522 325H436V0H392V325H305Q275 325 249
309T199 248L71 0H20L159 266Q179 304 198 321T245 346Q196 369 171 418L44 667H94L208 439Q226 402 251 386T309 370H392V667ZM331 841Q333 812 355 793T417 774Q457 774 479 793T504 841H547Q546 821 538 802T514 768T473 744T417 735Q385 735 361 744T320 768T296
802T286 841H331Z" />
<glyph unicode="&#x4c2;" glyph-name="null" horiz-adv-x="671" d="M356 0H315V218H250Q218 218 203 207T174 174L61 0H10L133 187Q149 211 161 222T191 240Q167 250 153 266T124 305L22 466H69L165 317Q183 289 201 275T248 260H315V466H356V260H425Q454 260
472 274T508 317L604 466H649L547 305Q533 283 519 267T480 240Q497 234 509 223T538 187L661 0H608L495 174Q481 196 466 207T419 218H356V0ZM255 648Q255 619 277 599T337 579Q375 579 397 599T420 648H457Q457 628 450 609T427 575T390 551T337 542Q307 542
285 551T247 575T225 609T217 648H255Z" />
<glyph unicode="&#x4c3;" glyph-name="null" horiz-adv-x="605" d="M134 0H86V667H134V370H204Q254 370 284 388T340 449L473 667H531L379 428Q362 401 345 386T308 362Q364 360 409 339T487 280T537 192T555 79Q555 14 535 -39T477 -131T390 -190T281 -211Q234
-211 183 -195L195 -152Q214 -158 237 -162T283 -166Q326 -166 366 -150T437 -103T486 -25T505 82Q505 141 489 186T443 262T373 309T286 325H134V0Z" />
<glyph unicode="&#x4c4;" glyph-name="null" horiz-adv-x="500" d="M114 0H69V466H114V260H190Q224 260 246 274T288 317L392 466H440L330 305Q317 286 304 273T274 250Q315 247 348 231T406 187T443 122T456 40Q456 -10 440 -53T396 -127T330 -176T247 -194Q229
-194 208 -191T165 -179L177 -140Q194 -147 211 -149T243 -152Q279 -152 309 -139T362 -100T396 -39T409 41Q409 121 365 169T228 218H114V0Z" />
<glyph unicode="&#x4c5;" glyph-name="null" horiz-adv-x="718" d="M616 667V45H662V19Q662 -38 635 -87T559 -163L538 -128Q571 -107 592 -74T616 0H568V622H284Q281 542 276 465T259 318T231 190T187 89T123 22T36 -2H25V42Q86 42 125 87T188 215T222 413T237 667H616Z" />
<glyph unicode="&#x4c6;" glyph-name="null" horiz-adv-x="570" d="M487 466V42H530V20Q530 -30 508 -69T443 -133L423 -102Q483 -61 487 0H442V424H223Q217 333 208 255T178 120T123 31T29 -2H25V40H29Q78 40 106 76T149 171T170 307T181 466H487Z" />
<glyph unicode="&#x4c7;" glyph-name="null" horiz-adv-x="688" d="M86 666H134V369H554V666H602V-1Q602 -48 595 -85T570 -150T524 -191T456 -206Q418 -206 389 -193T341 -162L369 -126Q389 -142 410 -152T457 -162Q475 -162 492 -156T523 -133T545 -87T554 -10V324H134V-1H86V666Z"
/>
<glyph unicode="&#x4c8;" glyph-name="null" horiz-adv-x="544" d="M475 466V-14Q475 -58 470 -92T452 -151T414 -187T353 -200Q324 -200 301 -189T264 -164L288 -131Q305 -146 320 -153T355 -160Q370 -160 383 -155T407 -135T424 -93T430 -21V218H114V0H69V466H114V260H430V466H475Z"
/>
<glyph unicode="&#x4c9;" glyph-name="null" horiz-adv-x="704" d="M602 667V45H648V19Q648 -38 621 -87T545 -163L524 -128Q557 -107 578 -74T602 0H554V325H134V0H86V667H134V370H554V667H602Z" />
<glyph unicode="&#x4ca;" glyph-name="null" horiz-adv-x="558" d="M430 0V219H114V0H69V466H114V259H430V466H475V42H518V20Q518 -30 496 -69T431 -133L411 -102Q471 -61 475 0H430Z" />
<glyph unicode="&#x4cb;" glyph-name="null" horiz-adv-x="609" d="M523 667V0H475V-154H429V45H475V298Q441 281 395 270T295 258Q249 258 207 269T134 305T84 372T65 474V667H113V486Q113 435 127 400T165 344T224 313T301 303Q353 303 398 315T475 344V667H523Z" />
<glyph unicode="&#x4cc;" glyph-name="null" horiz-adv-x="492" d="M423 466V0H378V-124H335V42H378V205Q351 191 314 182T236 173Q200 173 166 182T107 212T66 266T50 349V466H95V366Q95 280 134 247T244 214Q282 214 318 223T378 246V466H423Z" />
<glyph unicode="&#x4cd;" glyph-name="null" horiz-adv-x="805" d="M657 0L634 592L404 210H373L149 591L126 0H78L108 667H160L392 271L629 667H675L703 45H749V19Q749 -38 722 -87T646 -163L625 -128Q658 -107 679 -74T703 0H657Z" />
<glyph unicode="&#x4ce;" glyph-name="null" horiz-adv-x="631" d="M65 0L88 466H131L309 192L489 466H527L548 42H591V20Q591 -30 569 -69T504 -133L484 -102Q544 -61 548 0H506L489 398L322 145H293L126 397L109 0H65Z" />
<glyph unicode="&#x4cf;" glyph-name="null" horiz-adv-x="183" d="M69 667H114V0H69V667Z" />
<glyph unicode="&#x4d0;" glyph-name="null" horiz-adv-x="634" d="M293 667H341L614 0H559L472 215H158L72 0H20L293 667ZM454 260L315 606L176 260H454ZM233 841Q235 812 257 793T319 774Q359 774 381 793T406 841H449Q448 821 440 802T416 768T375 744T319
735Q287 735 263 744T222 768T198 802T188 841H233Z" />
<glyph unicode="&#x4d1;" glyph-name="null" horiz-adv-x="492" d="M380 239Q359 244 328 247T247 251Q196 251 166 238T121 207T101 167T96 127Q96 76 129 53T215 29Q249 29 279 41T331 74T367 120T380 173V239ZM427 0H384Q383 5 383 10T383 20Q382 31 382 45T382
78Q364 51 342 34T298 7T252 -8T210 -12Q181 -12 152 -6T100 16T63 58T48 127Q48 161 59 190T94 242T156 276T248 289Q290 289 323 286T379 279V305Q379 344 370 369T343 410T299 431T239 437Q182 437 149 421T97 389L73 420Q92 438 134 458T238 478Q328 478 376
440T424 312V97Q424 77 424 60T425 28L427 0ZM170 648Q170 619 192 599T252 579Q290 579 312 599T335 648H372Q372 628 365 609T342 575T305 551T252 542Q222 542 200 551T162 575T140 609T132 648H170Z" />
<glyph unicode="&#x4d2;" glyph-name="null" horiz-adv-x="634" d="M293 667H341L614 0H559L472 215H158L72 0H20L293 667ZM454 260L315 606L176 260H454ZM367 829H433V760H367V829ZM201 829H267V760H201V829Z" />
<glyph unicode="&#x4d3;" glyph-name="null" horiz-adv-x="492" d="M380 239Q359 244 328 247T247 251Q196 251 166 238T121 207T101 167T96 127Q96 76 129 53T215 29Q249 29 279 41T331 74T367 120T380 173V239ZM427 0H384Q383 5 383 10T383 20Q382 31 382 45T382
78Q364 51 342 34T298 7T252 -8T210 -12Q181 -12 152 -6T100 16T63 58T48 127Q48 161 59 190T94 242T156 276T248 289Q290 289 323 286T379 279V305Q379 344 370 369T343 410T299 431T239 437Q182 437 149 421T97 389L73 420Q92 438 134 458T238 478Q328 478 376
440T424 312V97Q424 77 424 60T425 28L427 0ZM293 634H353V571H293V634ZM145 634H205V571H145V634Z" />
<glyph unicode="&#x4d4;" glyph-name="null" horiz-adv-x="950" d="M455 667H879V622H527V370H802V325H527V45H905V0H479V195H194L65 0H10L455 667ZM479 240V625L224 240H479Z" />
<glyph unicode="&#x4d5;" glyph-name="null" horiz-adv-x="863" d="M73 420Q92 438 134 458T238 478Q308 478 353 455T415 378Q444 423 490 450T597 478Q644 478 684 462T754 414T800 335T817 224H425Q426 184 440 149T478 88T535 46T610 30Q631 30 653 34T697
48T735 69T765 96L797 69Q767 31 716 10T610 -12Q541 -12 489 18T407 102Q362 36 314 12T207 -12Q181 -12 153 -6T101 15T63 56T48 124Q48 190 95 232T248 274Q286 274 318 271T379 266V305Q379 343 370 368T343 409T299 430T239 437Q182 437 149 421T97 389L73
420ZM380 226Q347 231 315 233T247 236Q198 236 169 225T123 197T102 161T96 124Q96 73 129 51T214 29Q248 29 278 41T331 74T367 119T380 172V226ZM768 263Q759 350 714 393T597 436Q560 436 530 423T477 386T441 332T426 263H768Z" />
<glyph unicode="&#x4d6;" glyph-name="null" horiz-adv-x="557" d="M86 667H486V622H134V370H409V325H134V45H512V0H86V667ZM204 841Q206 812 228 793T290 774Q330 774 352 793T377 841H420Q419 821 411 802T387 768T346 744T290 735Q258 735 234 744T193 768T169
802T159 841H204Z" />
<glyph unicode="&#x4d7;" glyph-name="null" horiz-adv-x="534" d="M281 30Q302 30 324 34T368 48T406 69T436 96L468 69Q438 31 387 10T281 -12Q230 -12 187 6T112 56T64 134T46 236Q46 286 62 330T108 407T178 459T268 478Q315 478 355 462T425 413T471 334T488
224H95Q97 180 112 144T151 83T209 44T281 30ZM439 263Q430 348 385 392T268 436Q235 436 206 425T153 391T114 336T96 263H439ZM189 648Q189 619 211 599T271 579Q309 579 331 599T354 648H391Q391 628 384 609T361 575T324 551T271 542Q241 542 219 551T181 575T159
609T151 648H189Z" />
<glyph unicode="&#x4d8;" glyph-name="null" horiz-adv-x="739" d="M363 638Q305 638 245 617T132 538L99 567Q144 621 214 652T365 683Q434 683 492 657T592 585T659 474T683 333Q683 259 660 195T596 84T496 11T366 -16Q300 -16 244 8T146 78T80 194T56 354H631Q627
418 606 470T549 560T466 618T363 638ZM365 29Q419 29 466 47T550 102T607 190T632 311H106Q112 237 134 184T190 97T270 46T365 29Z" />
<glyph unicode="&#x4d9;" glyph-name="null" horiz-adv-x="534" d="M260 436Q239 436 218 432T177 418T140 397T111 370L79 397Q108 435 158 456T261 478Q310 478 352 460T424 410T471 331T488 230Q488 180 472 136T426 59T356 7T266 -12Q219 -12 179 5T109 55T63
138T46 251H438Q435 293 420 327T382 385T327 423T260 436ZM266 30Q300 30 330 42T383 78T421 135T438 212H95Q104 122 149 76T266 30Z" />
<glyph unicode="&#x4da;" glyph-name="null" horiz-adv-x="739" d="M363 638Q305 638 245 617T132 538L99 567Q144 621 214 652T365 683Q434 683 492 657T592 585T659 474T683 333Q683 259 660 195T596 84T496 11T366 -16Q300 -16 244 8T146 78T80 194T56 354H631Q627
418 606 470T549 560T466 618T363 638ZM365 29Q419 29 466 47T550 102T607 190T632 311H106Q112 237 134 184T190 97T270 46T365 29ZM423 829H489V760H423V829ZM257 829H323V760H257V829Z" />
<glyph unicode="&#x4db;" glyph-name="null" horiz-adv-x="534" d="M260 436Q239 436 218 432T177 418T140 397T111 370L79 397Q108 435 158 456T261 478Q310 478 352 460T424 410T471 331T488 230Q488 180 472 136T426 59T356 7T266 -12Q219 -12 179 5T109 55T63
138T46 251H438Q435 293 420 327T382 385T327 423T260 436ZM266 30Q300 30 330 42T383 78T421 135T438 212H95Q104 122 149 76T266 30ZM319 628H379V565H319V628ZM171 628H231V565H171V628Z" />
<glyph unicode="&#x4dc;" glyph-name="null" horiz-adv-x="828" d="M392 667H436V370H520Q553 370 578 386T621 439L735 667H784L657 418Q632 369 582 347Q609 339 629 322T669 266L808 0H756L628 248Q605 292 579 308T522 325H436V0H392V325H305Q275 325 249
309T199 248L71 0H20L159 266Q179 304 198 321T245 346Q196 369 171 418L44 667H94L208 439Q226 402 251 386T309 370H392V667ZM463 829H529V760H463V829ZM297 829H363V760H297V829Z" />
<glyph unicode="&#x4dd;" glyph-name="null" horiz-adv-x="671" d="M356 0H315V218H250Q218 218 203 207T174 174L61 0H10L133 187Q149 211 161 222T191 240Q167 250 153 266T124 305L22 466H69L165 317Q183 289 201 275T248 260H315V466H356V260H425Q454 260
472 274T508 317L604 466H649L547 305Q533 283 519 267T480 240Q497 234 509 223T538 187L661 0H608L495 174Q481 196 466 207T419 218H356V0ZM380 628H440V565H380V628ZM232 628H292V565H232V628Z" />
<glyph unicode="&#x4de;" glyph-name="null" horiz-adv-x="559" d="M172 325V370H279Q308 370 336 377T387 401T424 443T438 503Q438 543 424 569T386 610T336 632T282 638Q240 638 210 627T158 600T122 566T99 533L60 556Q68 570 83 591T125 633T190 668T284
683Q339 683 378 668T441 627T477 571T488 506Q488 479 479 453T453 406T413 370T359 350Q383 346 409 336T456 305T492 254T506 178Q506 127 488 91T439 31T367 -4T281 -16Q223 -16 181 -1T110 35T65 77T42 111L80 135Q87 125 101 107T139 72T198 42T282 29Q314
29 345 36T401 60T441 105T456 178Q456 221 440 249T398 294T341 318T280 325H172ZM315 829H381V760H315V829ZM149 829H215V760H149V829Z" />
<glyph unicode="&#x4df;" glyph-name="null" horiz-adv-x="452" d="M128 218V260H204Q268 260 308 280T348 350Q348 374 339 391T312 418T273 433T223 438Q172 438 136 421T72 371L41 396Q67 434 117 456T223 478Q308 478 351 443T394 353Q394 309 368 279T297
240Q319 237 339 229T374 206T398 170T407 118Q407 87 393 63T353 23T295 -3T223 -12Q163 -12 113 9T30 68L60 94Q90 62 132 45T223 28Q251 28 276 33T320 50T350 79T361 121Q361 176 318 197T203 218H128ZM260 628H320V565H260V628ZM112 628H172V565H112V628Z"
/>
<glyph unicode="&#x4e0;" glyph-name="null" horiz-adv-x="529" d="M183 361L406 622H65V667H463V621L244 370Q251 371 256 371T268 371Q316 371 356 359T426 322T472 264T489 184Q489 132 471 94T423 32T352 -4T268 -16Q211 -16 170 -1T102 35T58 77T35 111L73
134Q80 124 93 107T130 72T187 42T270 29Q301 29 331 36T386 60T424 108T439 184Q439 252 394 292T262 332Q248 332 233 331T202 327L183 361Z" />
<glyph unicode="&#x4e1;" glyph-name="null" horiz-adv-x="418" d="M123 175L325 424H26V466H372V420L180 184H189Q228 184 264 172T329 135T375 74T393 -11Q393 -59 377 -96T332 -159T266 -198T187 -212Q147 -212 116 -202T62 -177T24 -146T0 -116L35 -91Q42
-102 54 -115T86 -141T130 -161T188 -170Q216 -170 244 -162T294 -135T331 -86T345 -11Q345 26 333 55T298 105T245 135T179 146Q160 146 141 143L123 175Z" />
<glyph unicode="&#x4e2;" glyph-name="null" horiz-adv-x="697" d="M611 0H564V599L139 0H86V667H133V64L561 667H611V0ZM190 814H506V772H190V814Z" />
<glyph unicode="&#x4e3;" glyph-name="null" horiz-adv-x="539" d="M113 466V56L422 466H470V0H426V410L117 0H69V466H113ZM152 619H385V577H152V619Z" />
<glyph unicode="&#x4e4;" glyph-name="null" horiz-adv-x="697" d="M611 0H564V599L139 0H86V667H133V64L561 667H611V0ZM399 829H465V760H399V829ZM233 829H299V760H233V829Z" />
<glyph unicode="&#x4e5;" glyph-name="null" horiz-adv-x="539" d="M113 466V56L422 466H470V0H426V410L117 0H69V466H113ZM313 628H373V565H313V628ZM165 628H225V565H165V628Z" />
<glyph unicode="&#x4e6;" glyph-name="null" horiz-adv-x="774" d="M387 -16Q315 -16 255 11T150 85T81 195T56 333Q56 406 81 470T150 581T254 656T387 683Q459 683 519 656T624 582T693 470T718 333Q718 259 693 196T624 85T520 11T387 -16ZM387 29Q450 29 502
52T590 117T647 214T667 333Q667 396 647 452T591 549T502 614T387 638Q324 638 272 614T184 549T127 452T107 333Q107 270 127 215T183 118T272 53T387 29ZM436 829H502V760H436V829ZM270 829H336V760H270V829Z" />
<glyph unicode="&#x4e7;" glyph-name="null" horiz-adv-x="566" d="M283 -12Q234 -12 191 7T116 60T65 137T46 233Q46 284 64 328T115 406T191 458T283 478Q332 478 375 459T450 406T501 329T520 233Q520 182 502 138T451 60T375 8T283 -12ZM283 29Q323 29 358
45T418 88T458 153T473 233Q473 274 458 311T418 376T357 420T283 437Q242 437 208 421T148 378T108 313T93 233Q93 192 108 155T148 90T209 46T283 29ZM326 628H386V565H326V628ZM178 628H238V565H178V628Z" />
<glyph unicode="&#x4e8;" glyph-name="null" horiz-adv-x="774" d="M387 -16Q315 -16 255 11T150 85T81 195T56 333Q56 406 81 470T150 581T254 656T387 683Q459 683 519 656T624 582T693 470T718 333Q718 259 693 196T624 85T520 11T387 -16ZM387 29Q449 29 500
51T588 113T646 206T670 320H104Q106 259 127 206T185 114T273 52T387 29ZM387 638Q327 638 278 617T191 559T132 473T105 365H668Q663 423 641 472T583 559T497 617T387 638Z" />
<glyph unicode="&#x4e9;" glyph-name="null" horiz-adv-x="566" d="M283 -12Q234 -12 191 7T116 60T65 137T46 233Q46 284 64 328T115 406T191 458T283 478Q332 478 375 459T450 406T501 329T520 233Q520 182 502 138T451 60T375 8T283 -12ZM283 28Q322 28 355
42T414 82T456 142T475 216H90Q93 177 109 143T152 84T211 43T283 28ZM283 438Q245 438 212 424T154 386T112 328T91 257H474Q470 294 454 327T412 384T353 423T283 438Z" />
<glyph unicode="&#x4ea;" glyph-name="null" horiz-adv-x="774" d="M387 -16Q315 -16 255 11T150 85T81 195T56 333Q56 406 81 470T150 581T254 656T387 683Q459 683 519 656T624 582T693 470T718 333Q718 259 693 196T624 85T520 11T387 -16ZM387 29Q449 29 500
51T588 113T646 206T670 320H104Q106 259 127 206T185 114T273 52T387 29ZM387 638Q327 638 278 617T191 559T132 473T105 365H668Q663 423 641 472T583 559T497 617T387 638ZM437 829H503V760H437V829ZM271 829H337V760H271V829Z" />
<glyph unicode="&#x4eb;" glyph-name="null" horiz-adv-x="566" d="M283 -12Q234 -12 191 7T116 60T65 137T46 233Q46 284 64 328T115 406T191 458T283 478Q332 478 375 459T450 406T501 329T520 233Q520 182 502 138T451 60T375 8T283 -12ZM283 28Q322 28 355
42T414 82T456 142T475 216H90Q93 177 109 143T152 84T211 43T283 28ZM283 438Q245 438 212 424T154 386T112 328T91 257H474Q470 294 454 327T412 384T353 423T283 438ZM327 628H387V565H327V628ZM179 628H239V565H179V628Z" />
<glyph unicode="&#x4ec;" glyph-name="null" horiz-adv-x="692" d="M197 370H585Q580 428 560 477T505 562T423 618T319 638Q264 638 226 624T162 592T122 556T102 530L66 556Q72 566 89 587T138 629T214 667T322 683Q392 683 450 657T549 583T613 472T636 334Q636
258 612 194T545 83T443 10T311 -16Q249 -16 205 -1T130 35T81 77T56 111L93 136Q99 128 114 111T155 75T218 43T305 29Q371 29 422 51T510 113T565 207T587 325H197V370ZM395 829H461V760H395V829ZM229 829H295V760H229V829Z" />
<glyph unicode="&#x4ed;" glyph-name="null" horiz-adv-x="500" d="M154 259H407Q404 296 391 328T354 384T299 422T227 436Q182 436 144 419T81 371L47 397Q80 438 127 458T228 478Q280 478 322 459T393 407T438 330T454 236Q454 184 438 139T391 61T317 8T222
-12Q162 -12 116 11T41 68L73 96Q98 66 138 48T223 30Q262 30 294 44T351 82T389 141T407 217H154V259ZM281 628H341V565H281V628ZM133 628H193V565H133V628Z" />
<glyph unicode="&#x4ee;" glyph-name="null" horiz-adv-x="589" d="M520 667H571L284 74Q264 32 236 8T161 -16Q128 -16 101 -5T55 24L79 60Q96 46 116 38T160 29Q190 29 209 44T244 92L284 175L18 667H73L309 228L520 667ZM140 814H456V772H140V814Z" />
<glyph unicode="&#x4ef;" glyph-name="null" horiz-adv-x="462" d="M45 -149Q54 -158 69 -165T105 -172Q135 -172 151 -151T183 -91L221 6L16 466H67L244 61L397 466H446L220 -109Q214 -124 205 -142T183 -175T150 -201T105 -212Q76 -212 57 -204T22 -181L45 -149ZM114
619H347V577H114V619Z" />
<glyph unicode="&#x4f0;" glyph-name="null" horiz-adv-x="589" d="M520 667H571L284 74Q264 32 236 8T161 -16Q128 -16 101 -5T55 24L79 60Q96 46 116 38T160 29Q190 29 209 44T244 92L284 175L18 667H73L309 228L520 667ZM346 829H412V760H346V829ZM180 829H246V760H180V829Z"
/>
<glyph unicode="&#x4f1;" glyph-name="null" horiz-adv-x="462" d="M45 -149Q54 -158 69 -165T105 -172Q135 -172 151 -151T183 -91L221 6L16 466H67L244 61L397 466H446L220 -109Q214 -124 205 -142T183 -175T150 -201T105 -212Q76 -212 57 -204T22 -181L45 -149ZM276
628H336V565H276V628ZM128 628H188V565H128V628Z" />
<glyph unicode="&#x4f2;" glyph-name="null" horiz-adv-x="589" d="M520 667H571L284 74Q264 32 236 8T161 -16Q128 -16 101 -5T55 24L79 60Q96 46 116 38T160 29Q190 29 209 44T244 92L284 175L18 667H73L309 228L520 667ZM265 866H325L225 725H181L265 866ZM427
866H487L387 725H343L427 866Z" />
<glyph unicode="&#x4f3;" glyph-name="null" horiz-adv-x="462" d="M45 -149Q54 -158 69 -165T105 -172Q135 -172 151 -151T183 -91L221 6L16 466H67L244 61L397 466H446L220 -109Q214 -124 205 -142T183 -175T150 -201T105 -212Q76 -212 57 -204T22 -181L45 -149ZM202
667H258L182 539H142L202 667ZM337 667H393L317 539H277L337 667Z" />
<glyph unicode="&#x4f4;" glyph-name="null" horiz-adv-x="609" d="M523 667V0H475V298Q441 281 395 270T295 258Q249 258 207 269T134 305T84 372T65 474V667H113V486Q113 435 127 400T165 344T224 313T301 303Q353 303 398 315T475 344V667H523ZM357 829H423V760H357V829ZM191
829H257V760H191V829Z" />
<glyph unicode="&#x4f5;" glyph-name="null" horiz-adv-x="492" d="M423 466V0H378V205Q351 191 314 182T236 173Q200 173 166 182T107 212T66 266T50 349V466H95V366Q95 280 134 247T244 214Q282 214 318 223T378 246V466H423ZM282 628H342V565H282V628ZM134
628H194V565H134V628Z" />
<glyph unicode="&#x4f6;" glyph-name="null" horiz-adv-x="527" d="M134 -154V0H86V667H502V624H134V45H180V-154H134Z" />
<glyph unicode="&#x4f7;" glyph-name="null" horiz-adv-x="410" d="M157 42V-124H114V0H69V466H380V424H114V42H157Z" />
<glyph unicode="&#x4f8;" glyph-name="null" horiz-adv-x="771" d="M86 667H134V402H286Q351 402 397 387T471 346T513 282T526 199Q526 158 513 122T472 59T398 16T287 0H86V667ZM134 357V45H297Q385 45 429 84T474 199Q474 277 430 317T297 357H134ZM637 667H685V0H637V667ZM434
829H500V760H434V829ZM268 829H334V760H268V829Z" />
<glyph unicode="&#x4f9;" glyph-name="null" horiz-adv-x="643" d="M114 40H266Q330 40 360 67T390 145Q390 256 266 256H114V40ZM114 466V296H272Q350 296 393 256T436 151Q436 120 426 93T395 45T343 12T268 0H69V466H114ZM574 0H529V466H574V0ZM380 628H440V565H380V628ZM232
628H292V565H232V628Z" />
<glyph unicode="&#x1e80;" glyph-name="null" horiz-adv-x="874" d="M30 667H84L244 68L413 647H472L633 72L792 667H844L657 0H604L441 576L270 0H214L30 667ZM341 866H402L477 725H433L341 866Z" />
<glyph unicode="&#x1e81;" glyph-name="null" horiz-adv-x="680" d="M15 460H65L193 59L325 460H368L497 52L619 460H665L518 0H469L342 392L213 0H170L15 460ZM262 670H320L380 542H338L262 670Z" />
<glyph unicode="&#x1e82;" glyph-name="null" horiz-adv-x="874" d="M30 667H84L244 68L413 647H472L633 72L792 667H844L657 0H604L441 576L270 0H214L30 667ZM476 866H540L446 725H402L476 866Z" />
<glyph unicode="&#x1e83;" glyph-name="null" horiz-adv-x="680" d="M15 460H65L193 59L325 460H368L497 52L619 460H665L518 0H469L342 392L213 0H170L15 460ZM381 667H436L361 539H319L381 667Z" />
<glyph unicode="&#x1e84;" glyph-name="null" horiz-adv-x="874" d="M30 667H84L244 68L413 647H472L633 72L792 667H844L657 0H604L441 576L270 0H214L30 667ZM487 829H553V760H487V829ZM321 829H387V760H321V829Z" />
<glyph unicode="&#x1e85;" glyph-name="null" horiz-adv-x="680" d="M15 460H65L193 59L325 460H368L497 52L619 460H665L518 0H469L342 392L213 0H170L15 460ZM384 628H444V565H384V628ZM236 628H296V565H236V628Z" />
<glyph unicode="&#x1ef2;" glyph-name="null" d="M246 306L16 667H74L271 353L468 667H524L294 306V0H246V306ZM172 866H233L308 725H264L172 866Z" />
<glyph unicode="&#x1ef3;" glyph-name="null" horiz-adv-x="462" d="M45 -149Q54 -158 69 -165T105 -172Q135 -172 151 -151T183 -91L221 6L16 460H67L244 61L397 460H446L220 -109Q214 -124 205 -142T183 -175T150 -201T105 -212Q76 -212 57 -204T22 -181L45
-149ZM147 670H205L265 542H223L147 670Z" />
<glyph unicode="&#x2013;" glyph-name="null" horiz-adv-x="500" d="M0 303H500V258H0V303Z" />
<glyph unicode="&#x2014;" glyph-name="null" horiz-adv-x="1000" d="M0 303H1000V258H0V303Z" />
<glyph unicode="&#x2015;" glyph-name="null" horiz-adv-x="1000" d="M0 303H1000V258H0V303Z" />
<glyph unicode="&#x2018;" glyph-name="null" horiz-adv-x="193" d="M93 667H132L114 489H64L93 667Z" />
<glyph unicode="&#x2019;" glyph-name="null" horiz-adv-x="193" d="M91 667H141L112 489H73L91 667Z" />
<glyph unicode="&#x201a;" glyph-name="null" horiz-adv-x="193" d="M90 71H140L111 -107H72L90 71Z" />
<glyph unicode="&#x201c;" glyph-name="null" horiz-adv-x="332" d="M99 667H138L120 489H70L99 667ZM238 667H277L259 489H209L238 667Z" />
<glyph unicode="&#x201d;" glyph-name="null" horiz-adv-x="332" d="M97 667H147L118 489H79L97 667ZM236 667H286L257 489H218L236 667Z" />
<glyph unicode="&#x201e;" glyph-name="null" horiz-adv-x="332" d="M90 71H140L111 -107H72L90 71ZM230 71H280L251 -107H212L230 71Z" />
<glyph unicode="&#x2020;" glyph-name="null" horiz-adv-x="495" d="M225 423H66V465H225V667H270V465H429V423H270V-121H225V423Z" />
<glyph unicode="&#x2021;" glyph-name="null" horiz-adv-x="495" d="M225 81H66V123H225V423H66V465H225V667H270V465H429V423H270V123H429V81H270V-121H225V81Z" />
<glyph unicode="&#x2022;" glyph-name="null" horiz-adv-x="340" d="M63 296Q63 318 71 337T94 371T128 394T170 403Q192 403 211 395T245 372T268 338T277 296Q277 274 269 255T246 221T212 198T170 189Q148 189 129 197T95 220T72 254T63 296Z" />
<glyph unicode="&#x2026;" glyph-name="null" horiz-adv-x="657" d="M81 70H149V0H81V70ZM311 70H379V0H311V70ZM541 70H609V0H541V70Z" />
<glyph unicode="&#x2030;" glyph-name="null" horiz-adv-x="1212" d="M597 630H648L242 0H191L597 630ZM190 326Q209 326 227 333T261 358T285 402T294 469Q294 509 285 536T261 579T228 603T190 610Q172 610 154 603T120 580T96 536T87 469Q87 429 96 402T120
358T153 334T190 326ZM190 288Q125 288 83 335T41 469Q41 556 83 602T190 648Q223 648 250 637T298 602T329 546T340 469Q340 382 298 335T190 288ZM649 32Q668 32 686 39T720 64T744 108T753 175Q753 215 744 242T720 285T687 309T649 316Q631 316 613 309T579
286T555 242T546 175Q546 135 555 108T579 64T612 40T649 32ZM649 -6Q584 -6 542 41T500 175Q500 262 542 308T649 354Q682 354 709 343T757 308T788 252T799 175Q799 88 757 41T649 -6ZM1021 32Q1040 32 1058 39T1092 64T1116 108T1125 175Q1125 215 1116 242T1092
285T1059 309T1021 316Q1003 316 985 309T951 286T927 242T918 175Q918 135 927 108T951 64T984 40T1021 32ZM1021 -6Q956 -6 914 41T872 175Q872 262 914 308T1021 354Q1054 354 1081 343T1129 308T1160 252T1171 175Q1171 88 1129 41T1021 -6Z" />
<glyph unicode="&#x2039;" glyph-name="null" horiz-adv-x="302" d="M71 234L177 426H226L121 234L226 42H177L71 234Z" />
<glyph unicode="&#x203a;" glyph-name="null" horiz-adv-x="302" d="M181 234L76 426H125L231 234L125 42H76L181 234Z" />
<glyph unicode="&#x2044;" glyph-name="null" horiz-adv-x="195" d="M276 630H327L-79 0H-130L276 630Z" />
<glyph unicode="&#x2070;" glyph-name="null" horiz-adv-x="360" d="M174 326Q193 326 211 333T245 358T269 402T278 469Q278 509 269 536T245 579T212 603T174 610Q156 610 138 603T104 580T80 536T71 469Q71 429 80 402T104 358T137 334T174 326ZM174 288Q109
288 67 335T25 469Q25 556 67 602T174 648Q207 648 234 637T282 602T313 546T324 469Q324 382 282 335T174 288Z" />
<glyph unicode="&#x2074;" glyph-name="null" horiz-adv-x="360" d="M39 409L228 638H273V410H316V374H273V299H233V374H39V409ZM233 410V589L86 410H233Z" />
<glyph unicode="&#x2075;" glyph-name="null" horiz-adv-x="360" d="M75 356Q95 342 116 335T162 327Q177 327 193 331T222 344T245 367T254 403Q254 439 231 458T166 477Q148 477 132 474T100 465Q95 469 90 473T80 482L105 638H282V599H138L123 507Q140 512
157 513T185 514Q207 514 228 507T265 485T290 450T300 404Q300 381 291 360T265 323T222 298T166 288Q137 288 108 296T54 321L75 356Z" />
<glyph unicode="&#x2076;" glyph-name="null" horiz-adv-x="360" d="M275 589Q267 596 251 602T212 609Q185 609 165 600T131 574T108 535T97 488Q113 500 139 510T196 521Q246 521 280 490T315 403Q315 374 304 353T276 317T236 296T192 288Q120 288 86 331T51
446Q51 546 94 597T214 648Q244 648 263 640T299 621L275 589ZM97 449Q96 447 96 442T96 433Q96 413 101 394T119 359T149 335T191 326Q205 326 219 331T244 345T263 369T270 403Q270 414 267 427T255 453T230 473T188 481Q162 481 138 472T97 449Z" />
<glyph unicode="&#x2077;" glyph-name="null" horiz-adv-x="360" d="M102 298Q115 333 131 372T164 450T202 528T243 601H51V638H288V600Q275 579 257 543T219 463T181 377T151 298H102Z" />
<glyph unicode="&#x2078;" glyph-name="null" horiz-adv-x="360" d="M229 480Q239 476 253 468T281 448T303 420T312 383Q312 365 305 348T283 318T242 296T180 288Q144 288 119 296T79 317T56 348T49 383Q49 403 56 418T75 445T102 465T132 480Q122 484 111 491T91
508T76 531T70 562Q70 599 98 623T180 648Q237 648 264 624T291 562Q291 545 285 532T270 508T250 491T229 480ZM175 462Q142 451 118 434T93 385Q93 367 101 356T121 337T149 327T180 324Q196 324 211 327T239 337T259 356T267 385Q267 401 259 412T238 433T209
449T175 462ZM184 498Q213 508 231 522T249 559Q249 585 231 599T180 613Q149 613 131 599T113 559Q113 533 135 520T184 498Z" />
<glyph unicode="&#x2079;" glyph-name="null" horiz-adv-x="360" d="M79 348Q87 340 107 334T147 327Q172 327 191 336T225 362T247 401T258 448Q242 436 215 426T158 415Q108 415 74 446T39 532Q39 561 50 582T78 618T118 640T162 648Q234 648 268 605T303 490Q303
390 261 339T147 288Q119 288 95 296T55 315L79 348ZM258 487Q259 489 259 494T259 503Q259 522 253 541T235 576T205 600T163 610Q149 610 135 606T109 591T91 567T84 532Q84 521 87 508T99 483T124 463T166 455Q191 455 216 464T258 487Z" />
<glyph unicode="&#x2080;" glyph-name="null" horiz-adv-x="360" d="M174 29Q193 29 211 36T245 61T269 105T278 172Q278 212 269 239T245 282T212 306T174 313Q156 313 138 306T104 283T80 239T71 172Q71 132 80 105T104 61T137 37T174 29ZM174 -9Q109 -9 67
38T25 172Q25 259 67 305T174 351Q207 351 234 340T282 305T313 249T324 172Q324 85 282 38T174 -9Z" />
<glyph unicode="&#x2081;" glyph-name="null" horiz-adv-x="360" d="M187 297L83 247L67 280L193 341H231V1H187V297Z" />
<glyph unicode="&#x2082;" glyph-name="null" horiz-adv-x="360" d="M49 39Q49 57 57 72T80 100T113 125T150 148Q168 159 185 170T215 193T237 218T246 248Q246 281 223 296T168 311Q138 311 113 297T73 262L43 289Q60 311 93 331T172 351Q203 351 226 343T264
320T286 288T293 251Q293 226 283 207T256 171T219 142T178 118Q147 100 123 83T98 41H296V1H49V39Z" />
<glyph unicode="&#x2083;" glyph-name="null" horiz-adv-x="360" d="M64 55Q81 42 102 35T150 28Q192 28 219 47T246 101Q246 121 239 134T221 156T196 168T165 172Q156 172 146 171T127 167L115 190L222 307H67V341H277V313L171 202Q175 203 179 203T189 204Q236
204 263 174T290 104Q290 54 253 23T151 -9Q119 -9 93 -1T42 22L64 55Z" />
<glyph unicode="&#x2084;" glyph-name="null" horiz-adv-x="360" d="M39 112L228 341H273V113H316V77H273V2H233V77H39V112ZM233 113V292L86 113H233Z" />
<glyph unicode="&#x2085;" glyph-name="null" horiz-adv-x="360" d="M75 59Q95 45 116 38T162 30Q177 30 193 34T222 47T245 70T254 106Q254 142 231 161T166 180Q148 180 132 177T100 168Q95 172 90 176T80 185L105 341H282V302H138L123 210Q140 215 157 216T185
217Q207 217 228 210T265 188T290 153T300 107Q300 84 291 63T265 26T222 1T166 -9Q137 -9 108 -1T54 24L75 59Z" />
<glyph unicode="&#x2086;" glyph-name="null" horiz-adv-x="360" d="M275 292Q267 299 251 305T212 312Q185 312 165 303T131 277T108 238T97 191Q113 203 139 213T196 224Q246 224 280 193T315 106Q315 77 304 56T276 20T236 -1T192 -9Q120 -9 86 34T51 149Q51
249 94 300T214 351Q244 351 263 343T299 324L275 292ZM97 152Q96 150 96 145T96 136Q96 116 101 97T119 62T149 38T191 29Q205 29 219 34T244 48T263 72T270 106Q270 117 267 130T255 156T230 176T188 184Q162 184 138 175T97 152Z" />
<glyph unicode="&#x2087;" glyph-name="null" horiz-adv-x="360" d="M102 1Q115 36 131 75T164 153T202 231T243 304H51V341H288V303Q275 282 257 246T219 166T181 80T151 1H102Z" />
<glyph unicode="&#x2088;" glyph-name="null" horiz-adv-x="360" d="M229 183Q239 179 253 171T281 151T303 123T312 86Q312 68 305 51T283 21T242 -1T180 -9Q144 -9 119 -1T79 20T56 51T49 86Q49 106 56 121T75 148T102 168T132 183Q122 187 111 194T91 211T76
234T70 265Q70 302 98 326T180 351Q237 351 264 327T291 265Q291 248 285 235T270 211T250 194T229 183ZM175 165Q142 154 118 137T93 88Q93 70 101 59T121 40T149 30T180 27Q196 27 211 30T239 40T259 59T267 88Q267 104 259 115T238 136T209 152T175 165ZM184
201Q213 211 231 225T249 262Q249 288 231 302T180 316Q149 316 131 302T113 262Q113 236 135 223T184 201Z" />
<glyph unicode="&#x2089;" glyph-name="null" horiz-adv-x="360" d="M79 51Q87 43 107 37T147 30Q172 30 191 39T225 65T247 104T258 151Q242 139 215 129T158 118Q108 118 74 149T39 235Q39 264 50 285T78 321T118 343T162 351Q234 351 268 308T303 193Q303 93
261 42T147 -9Q119 -9 95 -1T55 18L79 51ZM258 190Q259 192 259 197T259 206Q259 225 253 244T235 279T205 303T163 313Q149 313 135 309T109 294T91 270T84 235Q84 224 87 211T99 186T124 166T166 158Q191 158 216 167T258 190Z" />
<glyph unicode="&#x20ac;" glyph-name="null" horiz-adv-x="545" d="M40 264H117Q115 277 115 289T115 316Q115 328 115 340T117 365H25L40 405H122Q130 454 148 498T196 576T267 628T362 648Q394 648 420 641T467 623T502 601T525 582L495 547Q490 551 480 560T453
579T414 596T362 603Q289 603 240 552T173 405H441L426 365H168Q166 353 166 341T166 316Q166 302 166 289T168 264H441L426 224H173Q190 130 240 80T362 29Q390 29 412 36T451 52T479 70T495 85L525 50Q520 45 507 34T473 12T424 -7T362 -16Q308 -16 267 3T197
55T150 131T123 224H25L40 264Z" />
<glyph unicode="&#x20ae;" glyph-name="null" horiz-adv-x="545" d="M436 331L456 297L297 205V0H249V177L110 97L90 131L249 223V349L110 269L90 303L249 395V595H40V638H506V595H297V422L436 503L456 469L297 377V250L436 331Z" />
<glyph unicode="&#x20b4;" glyph-name="null" horiz-adv-x="545" d="M498 220L491 182L150 253Q116 219 116 160Q116 131 124 107T152 66T201 39T274 29Q309 29 336 35T384 53T422 81T454 115L488 84Q473 65 454 47T409 15T350 -7T275 -16Q178 -16 125 29T71 158Q71
192 79 217T103 263L52 274L60 313L137 296Q160 314 188 325T246 346L313 366L52 422L59 460L374 394Q397 408 407 428T418 481Q418 518 405 541T372 578T325 597T274 603Q226 603 192 586T130 532L96 558Q122 600 167 623T275 647Q308 647 341 639T402 612T445
562T462 485Q462 450 452 426T423 383L498 368L490 329L378 353Q358 342 336 335T287 319L249 307Q232 302 219 297T193 284L498 220Z" />
<glyph unicode="&#x20b8;" glyph-name="null" horiz-adv-x="545" d="M249 444H45V487H501V444H297V0H249V444ZM45 595V638H501V595H45Z" />
<glyph unicode="&#x20b9;" glyph-name="null" horiz-adv-x="545" d="M500 476L483 431H412Q410 399 397 369T358 316T291 280T190 266H171L482 0H410L84 279V309H192Q353 309 365 431H77L79 476H364Q356 535 312 564T193 593H79V638H500L483 593H341Q373 573 389
542T411 476H500Z" />
<glyph unicode="&#x20ba;" glyph-name="null" horiz-adv-x="545" d="M138 0V229L56 191L40 227L138 272V383L56 345L40 381L138 426V638H184V448L355 528L372 492L184 404V294L355 374L372 338L184 250V45H219Q272 45 312 60T381 102T430 168T462 251L508 239Q479
117 403 59T217 0H138Z" />
<glyph unicode="&#x2113;" glyph-name="null" horiz-adv-x="466" d="M128 437Q128 508 137 556T165 634T210 677T272 690Q323 690 356 653T389 546Q389 455 341 374T205 210V190Q205 149 211 124T227 84T252 65T284 59Q316 59 345 75T391 115L410 95L431 77Q404
37 366 14T275 -9Q205 -9 167 30T129 158Q116 148 105 140T80 123Q75 134 69 145T55 167Q74 180 92 194T128 225V437ZM205 289Q259 349 290 412T322 545Q322 593 306 612T268 632Q242 632 224 599T205 490V289Z" />
<glyph unicode="&#x2116;" glyph-name="null" horiz-adv-x="1069" d="M86 667H136L549 73V667H596V0H546L133 586V0H86V667ZM707 523Q707 554 718 581T749 628T797 660T860 672Q894 672 922 660T970 628T1001 581T1012 523Q1012 492 1001 465T970 418T922 386T860
374Q825 374 797 385T749 417T718 465T707 523ZM860 412Q888 412 909 422T943 448T963 483T970 523Q970 542 964 562T944 597T909 623T860 633Q831 633 810 623T776 598T756 562T749 523Q749 503 755 484T775 448T810 422T860 412ZM712 297H1007V256H712V297Z"
/>
<glyph unicode="&#x2122;" glyph-name="null" horiz-adv-x="929" d="M174 627H25V667H365V627H218V284H174V627ZM457 667H506L638 445L766 667H822L832 284H788L779 610L650 392H622L497 602L488 284H448L457 667Z" />
<glyph unicode="&#x2126;" glyph-name="null" horiz-adv-x="788" d="M55 45H217Q178 69 149 102T101 173T73 254T63 341Q63 413 87 475T156 583T260 656T394 683Q467 683 527 657T632 584T700 475T725 341Q725 256 687 177T570 45H733V0H483V42Q528 58 563 89T623
160T661 247T674 341Q674 402 655 456T599 551T510 614T394 638Q329 638 278 615T190 551T134 457T114 341Q114 294 127 248T164 161T224 89T305 42V0H55V45Z" />
<glyph unicode="&#x212e;" glyph-name="null" horiz-adv-x="887" d="M192 138Q192 125 201 116Q249 65 311 37T446 9Q525 9 591 41T705 128H762Q736 96 702 71T626 27T539 -1T445 -11Q362 -11 289 17T162 94T77 208T45 349Q45 424 76 489T162 604T289 681T445
710Q528 710 601 682T729 604T815 490T847 349V339H197Q192 339 192 335V138ZM695 358Q699 358 699 365V562Q699 575 690 586Q642 634 580 661T446 688Q375 688 312 659T202 582Q197 578 195 572T192 558V365Q192 358 197 358H695Z" />
<glyph unicode="&#x2153;" glyph-name="null" horiz-adv-x="840" d="M428 594L324 544L308 577L434 638H472V298H428V594ZM568 630H619L213 0H162L568 630ZM543 55Q560 42 581 35T629 28Q671 28 698 47T725 101Q725 121 718 134T700 156T675 168T644 172Q635 172
625 171T606 167L594 190L701 307H546V341H756V313L650 202Q654 203 658 203T668 204Q715 204 742 174T769 104Q769 54 732 23T630 -9Q598 -9 572 -1T521 22L543 55Z" />
<glyph unicode="&#x2154;" glyph-name="null" horiz-adv-x="840" d="M55 336Q55 354 63 369T86 397T119 422T156 445Q174 456 191 467T221 490T243 515T252 545Q252 578 229 593T174 608Q144 608 119 594T79 559L49 586Q66 608 99 628T178 648Q209 648 232 640T270
617T292 585T299 548Q299 523 289 504T262 468T225 439T184 415Q153 397 129 380T104 338H302V298H55V336ZM604 630H655L249 0H198L604 630ZM565 55Q582 42 603 35T651 28Q693 28 720 47T747 101Q747 121 740 134T722 156T697 168T666 172Q657 172 647 171T628
167L616 190L723 307H568V341H778V313L672 202Q676 203 680 203T690 204Q737 204 764 174T791 104Q791 54 754 23T652 -9Q620 -9 594 -1T543 22L565 55Z" />
</font>
</defs>
</svg>
