<?xml version="1.0" standalone="no"?> <!DOCTYPE svg PUBLIC "-//W3C//DTD SVG 1.0//EN" "http://www.w3.org/TR/2001/REC-SVG-20010904/DTD/svg10.dtd" > <svg xmlns="http://www.w3.org/2000/svg" width="100%" height="100%">
<defs >
<font id="Effra_W_LtIt" horiz-adv-x="522" ><font-face
    font-family="."
    units-per-em="1000"
    panose-1="2 11 4 3 2 2 3 9 2 4"
    ascent="955"
    descent="-251"
    alphabetic="0" />
<missing-glyph horiz-adv-x="500" d="M135 700H577L441 0H-1L135 700ZM388 52L503 648H186L71 52H388Z" />
<glyph unicode="&#x0;" glyph-name="null" horiz-adv-x="0" />
<glyph unicode="&#x8;" glyph-name="null" horiz-adv-x="0" />
<glyph unicode="&#x9;" glyph-name="null" horiz-adv-x="166" />
<glyph unicode="&#xd;" glyph-name="null" horiz-adv-x="166" />
<glyph unicode="&#x1d;" glyph-name="null" horiz-adv-x="0" />
<glyph unicode=" " glyph-name="null" horiz-adv-x="166" />
<glyph unicode="!" glyph-name="null" horiz-adv-x="216" d="M182 667H232L132 166H88L182 667ZM59 63H120L108 0H47L59 63Z" />
<glyph unicode="&quot;" glyph-name="null" horiz-adv-x="295" d="M142 667H187L147 463H102L142 667ZM267 667H312L272 463H227L267 667Z" />
<glyph unicode="#" glyph-name="null" horiz-adv-x="739" d="M221 187H69L76 224H238L308 396H159L166 433H325L403 621H445L367 433H547L625 621H668L590 433H731L724 396H573L503 224H640L633 187H486L408 0H366L444 187H263L185 0H143L221 187ZM460 224L531
396H350L280 224H460Z" />
<glyph unicode="$" glyph-name="null" horiz-adv-x="545" d="M56 111Q82 74 120 53T213 26L268 311Q241 323 216 338T171 372T140 418T128 477Q128 519 145 550T189 603T252 635T324 646H333L349 729H389L372 642Q417 635 449 614T511 551L477 529Q453 563 428
580T364 602L313 337Q341 324 367 310T414 276T447 232T460 173Q460 126 444 91T400 33T331 -3T244 -16L230 -92H190L205 -14Q141 -8 93 19T21 83L56 111ZM411 168Q411 192 403 211T381 245T347 272T304 295L252 25Q286 26 315 34T366 60T399 103T411 168ZM173
486Q173 459 180 440T200 406T232 379T276 355L325 606H321Q291 606 264 599T217 576T185 539T173 486Z" />
<glyph unicode="%" glyph-name="null" horiz-adv-x="806" d="M636 630H687L207 0H156L636 630ZM256 611Q235 611 212 599T170 563T139 505T127 426Q127 376 146 351T207 325Q227 325 250 337T292 373T323 431T336 510Q336 560 317 585T256 611ZM203 288Q150 288
116 321T82 424Q82 470 97 511T138 582T194 630T259 648Q313 648 347 615T381 512Q381 465 366 425T326 354T269 306T203 288ZM639 317Q618 317 595 305T553 269T522 211T510 132Q510 82 529 57T590 31Q610 31 633 43T675 79T706 137T719 216Q719 266 700 291T639
317ZM586 -6Q533 -6 499 27T465 130Q465 176 480 217T521 288T577 336T642 354Q696 354 730 321T764 218Q764 171 749 131T709 60T652 12T586 -6Z" />
<glyph unicode="&amp;" glyph-name="null" horiz-adv-x="594" d="M579 279L453 131L538 0H487L423 97Q374 43 325 14T213 -16Q174 -16 142 -4T88 29T53 78T40 140Q40 212 90 270T235 384Q213 419 200 457T187 521Q187 558 199 588T232 639T282 672T344 684Q396
684 434 660T495 577L458 560Q446 588 433 604T406 629T375 640T341 643Q290 643 261 613T231 530Q231 494 246 461T281 397L430 166L547 304L579 279ZM220 28Q278 28 319 57T401 132L257 351Q217 328 186 305T134 258T101 208T89 151Q89 128 95 106T117 67T157
39T220 28Z" />
<glyph unicode="&apos;" glyph-name="null" horiz-adv-x="170" d="M142 667H187L147 463H102L142 667Z" />
<glyph unicode="(" glyph-name="null" horiz-adv-x="269" d="M126 -93Q113 -63 98 0T82 153Q82 253 105 342T159 503T225 627T282 706H324Q301 672 268 620T205 497T153 337T131 140Q131 62 143 6T168 -93H126Z" />
<glyph unicode=")" glyph-name="null" horiz-adv-x="269" d="M201 706Q214 676 229 613T245 460Q245 360 222 271T168 110T102 -14T45 -93H3Q26 -59 59 -7T122 116T174 276T196 473Q196 551 184 607T159 706H201Z" />
<glyph unicode="*" glyph-name="null" horiz-adv-x="482" d="M126 446L271 524L126 602L147 637L286 550L281 714H321L316 550L455 637L476 602L331 524L476 446L455 411L316 498L321 334H281L286 498L147 411L126 446Z" />
<glyph unicode="+" glyph-name="null" horiz-adv-x="545" d="M98 343H268L302 516H346L312 343H483L474 299H305L272 124H227L260 299H89L98 343Z" />
<glyph unicode="," glyph-name="null" horiz-adv-x="210" d="M67 0H44L57 67H121L108 0L49 -78H20L67 0Z" />
<glyph unicode="-" glyph-name="null" horiz-adv-x="420" d="M107 304H371L362 260H98L107 304Z" />
<glyph unicode="." glyph-name="null" horiz-adv-x="210" d="M55 68H121L107 0H41L55 68Z" />
<glyph unicode="/" glyph-name="null" horiz-adv-x="360" d="M387 685H436L44 -16H-5L387 685Z" />
<glyph unicode="0" glyph-name="null" horiz-adv-x="545" d="M234 33Q278 33 313 52T375 104T421 178T452 264T471 353T477 433Q477 516 447 560T349 604Q306 604 271 585T210 533T164 459T132 373T114 286T108 206Q108 123 138 78T234 33ZM230 -12Q191 -12 160
3T106 46T71 113T59 203Q59 244 66 292T89 390T128 486T185 569T260 626T356 648Q437 648 482 592T527 435Q527 394 520 345T497 246T458 150T401 67T326 10T230 -12Z" />
<glyph unicode="1" glyph-name="null" horiz-adv-x="545" d="M120 42H234L341 588L192 512L175 546L351 638H398L281 42H394L387 0H113L120 42Z" />
<glyph unicode="2" glyph-name="null" horiz-adv-x="545" d="M54 44Q60 81 81 113T131 175T194 230T261 281Q306 314 341 339T402 389T440 440T454 504Q454 547 427 575T336 604Q292 604 253 585T182 521L148 544Q177 588 227 618T346 648Q387 648 417 636T466
604T495 560T505 511Q505 465 488 431T442 367T377 313T304 261Q260 229 225 203T165 151T124 100T102 44H427L419 0H46L54 44Z" />
<glyph unicode="3" glyph-name="null" horiz-adv-x="545" d="M73 88Q110 52 147 40T225 27Q305 27 354 72T404 205Q404 259 371 291T278 323Q246 323 215 314L195 345L445 589H172L180 632H508L500 589L263 359Q276 361 283 361T298 362Q332 362 361 350T410 316T441
268T453 211Q453 152 434 109T383 39T310 -2T224 -16Q171 -16 124 2T44 55L73 88Z" />
<glyph unicode="4" glyph-name="null" horiz-adv-x="545" d="M66 190L443 632H492L406 190H475L467 147H398L370 0H324L352 147H58L66 190ZM360 190L433 563L114 190H360Z" />
<glyph unicode="5" glyph-name="null" horiz-adv-x="545" d="M460 215Q460 156 440 113T388 41T313 -2T227 -16Q174 -16 129 2T51 55L80 88Q117 52 152 40T228 27Q268 27 301 39T359 74T397 131T411 209Q411 244 401 269T374 309T335 332T286 339Q253 339 219
330T152 302L135 319L237 632H515L507 588H264L191 358Q217 372 244 377T298 383Q331 383 360 372T411 339T447 286T460 215Z" />
<glyph unicode="6" glyph-name="null" horiz-adv-x="545" d="M502 569Q473 592 448 597T399 602Q349 602 310 582T239 525T186 441T148 338Q181 363 220 378T311 394Q342 394 372 383T424 351T461 299T475 228Q475 160 455 113T404 38T334 -3T260 -16Q214 -16
181 0T125 43T91 108T80 187Q80 229 88 279T113 380T156 479T219 564T301 623T405 646Q440 646 472 636T533 603L502 569ZM305 350Q253 350 215 335T135 283Q130 259 128 234T125 183Q125 152 133 124T158 75T201 41T266 28Q294 28 322 38T374 70T412 128T427 215Q427
285 392 317T305 350Z" />
<glyph unicode="7" glyph-name="null" horiz-adv-x="545" d="M113 0Q140 51 171 107T236 219T304 329T369 431T429 520T479 588H152L160 632H539L531 588Q511 561 481 518T417 424T347 315T277 202T214 94T166 0H113Z" />
<glyph unicode="8" glyph-name="null" horiz-adv-x="545" d="M238 343Q212 361 195 377T169 410T156 444T152 481Q152 513 166 543T207 596T270 634T351 648Q388 648 417 637T466 608T497 565T508 515Q508 459 472 415T350 337Q415 303 443 262T472 170Q472 134
457 100T412 41T338 0T237 -16Q190 -16 155 -3T97 31T63 80T51 138Q51 169 62 198T96 255T154 304T238 343ZM284 318Q189 296 144 248T99 140Q99 117 107 97T134 61T180 36T246 27Q288 27 320 38T375 69T410 114T422 169Q422 215 391 252T284 318ZM300 357Q385
378 423 419T461 511Q461 530 454 547T433 578T397 599T349 607Q313 607 285 597T237 570T207 530T196 484Q196 448 217 414T300 357Z" />
<glyph unicode="9" glyph-name="null" horiz-adv-x="545" d="M79 63Q108 40 139 34T195 28Q247 28 285 49T352 107T399 191T430 294Q397 269 358 253T267 236Q235 236 205 246T152 278T115 330T100 402Q100 470 120 517T171 592T241 633T315 646Q361 646 394 630T450
587T484 522T495 443Q495 401 489 351T468 250T430 151T373 66T294 7T189 -16Q154 -16 119 -7T54 25L79 63ZM273 280Q299 280 320 283T361 295T400 316T440 347Q445 371 447 396T450 447Q450 478 442 506T417 555T374 589T309 602Q281 602 253 592T201 560T163
502T148 415Q148 380 158 355T185 313T224 288T273 280Z" />
<glyph unicode=":" glyph-name="null" horiz-adv-x="210" d="M55 68H121L107 0H41L55 68ZM131 462H197L183 394H117L131 462Z" />
<glyph unicode=";" glyph-name="null" horiz-adv-x="210" d="M67 0H44L57 67H121L108 0L49 -78H20L67 0ZM131 462H197L183 394H117L131 462Z" />
<glyph unicode="&lt;" glyph-name="null" horiz-adv-x="545" d="M107 339L503 527L519 487L158 318L452 147L429 110L100 301L107 339Z" />
<glyph unicode="=" glyph-name="null" horiz-adv-x="545" d="M118 424H503L494 381H109L118 424ZM341 508H726L717 465H332L341 508Z" />
<glyph unicode="&gt;" glyph-name="null" horiz-adv-x="545" d="M479 301L83 113L67 153L428 322L134 493L157 530L486 339L479 301Z" />
<glyph unicode="?" glyph-name="null" horiz-adv-x="476" d="M195 204Q201 238 214 265T246 314T285 351T327 382Q352 398 374 413T414 447T440 489T450 546Q450 592 416 616T326 640Q272 640 232 622T155 562L123 587Q169 640 220 661T328 683Q364 683 395 674T448
647T483 604T496 547Q496 510 485 483T455 433T409 391T350 349Q331 336 313 322T280 291T254 251T237 199L231 166H188L195 204ZM160 63H221L209 0H148L160 63Z" />
<glyph unicode="@" glyph-name="null" horiz-adv-x="904" d="M659 24Q696 24 729 49T788 116T829 214T844 332Q844 399 821 455T756 553T653 618T517 641Q435 641 361 615T231 538T142 413T109 241Q109 194 123 135T185 9L149 -14Q95 59 79 122T62 241Q62 341
97 423T194 563T341 652T528 684Q607 684 673 658T788 585T864 475T891 337Q891 272 874 209T827 95T753 15T657 -16Q633 -16 616 -10T588 8T572 32T567 60V68Q567 72 568 77Q528 30 483 9T386 -12Q360 -12 336 -5T294 17T265 55T254 110Q254 146 269 178T313 234T384
271T480 285Q520 285 550 281T601 273L607 303Q609 311 609 320T610 337Q610 376 586 402T499 429Q470 429 450 425T413 414T385 399T360 381L336 413Q359 433 401 452T506 472Q580 472 619 438T658 343Q658 323 654 304L614 96Q613 91 613 86T612 74Q612 65 613
56T619 40T633 29T659 24ZM594 234Q569 239 540 242T473 245Q421 245 388 232T336 200T310 158T302 118Q302 74 323 53T395 31Q431 31 462 44T519 77T560 122T582 174L594 234Z" />
<glyph unicode="A" glyph-name="null" horiz-adv-x="604" d="M380 667H424L557 0H507L465 216H164L40 0H-11L380 667ZM457 260L390 608L190 260H457Z" />
<glyph unicode="B" glyph-name="null" horiz-adv-x="558" d="M182 667H373Q415 667 446 656T499 626T530 582T541 528Q541 465 506 418T390 349Q411 345 433 335T473 306T503 262T515 203Q515 143 493 104T433 42T348 10T249 0H53L182 667ZM309 370Q337 370 369
377T428 401T474 447T492 520Q492 550 483 569T457 601T418 618T368 623H221L171 370H309ZM237 44Q274 44 314 48T388 67T443 113T465 194Q465 231 452 256T417 297T365 319T302 326H163L108 44H237Z" />
<glyph unicode="C" glyph-name="null" horiz-adv-x="645" d="M633 527Q603 590 557 614T446 639Q381 639 325 612T226 535T159 419T134 271Q134 220 149 176T193 99T260 47T349 28Q424 28 476 58T566 136L600 107Q555 53 494 19T345 -16Q289 -16 242 5T159 63T104
152T84 263Q84 354 113 431T191 564T308 651T451 683Q526 683 584 649T672 547L633 527Z" />
<glyph unicode="D" glyph-name="null" horiz-adv-x="669" d="M283 44Q352 44 412 69T515 140T584 251T609 396Q609 500 553 561T389 623H220L108 44H283ZM53 0L182 667H394Q451 667 499 649T583 596T638 513T658 404Q658 313 630 239T550 111T429 29T277 0H53Z" />
<glyph unicode="E" glyph-name="null" horiz-adv-x="535" d="M182 667H566L557 623H220L171 370H434L426 326H163L108 44H470L462 0H53L182 667Z" />
<glyph unicode="F" glyph-name="null" horiz-adv-x="501" d="M182 667H566L557 623H220L171 370H434L426 326H163L100 0H53L182 667Z" />
<glyph unicode="G" glyph-name="null" horiz-adv-x="688" d="M633 526Q604 586 558 612T446 639Q381 639 325 612T226 535T159 419T134 271Q134 220 149 176T193 99T260 47T349 28Q412 28 462 45T551 95L585 272H416L425 316H642L595 77Q545 33 487 9T345 -16Q289
-16 242 5T159 63T104 152T84 263Q84 354 113 431T191 564T308 651T451 683Q526 683 584 649T672 547L633 526Z" />
<glyph unicode="H" glyph-name="null" horiz-adv-x="660" d="M182 667H229L171 370H572L630 667H677L548 0H501L564 326H163L100 0H53L182 667Z" />
<glyph unicode="I" glyph-name="null" horiz-adv-x="211" d="M182 667H229L100 0H53L182 667Z" />
<glyph unicode="J" glyph-name="null" horiz-adv-x="452" d="M43 99Q70 61 102 45T171 28Q209 28 236 36T282 65T313 119T336 201L427 667H474L382 193Q371 136 354 97T312 32T251 -4T168 -16Q121 -16 78 7T9 72L43 99Z" />
<glyph unicode="K" glyph-name="null" horiz-adv-x="546" d="M181 667H228L160 317L542 667H599L304 396L503 0H450L267 364L148 255L99 0H52L181 667Z" />
<glyph unicode="L" glyph-name="null" horiz-adv-x="518" d="M182 667H229L108 44H470L462 0H53L182 667Z" />
<glyph unicode="M" glyph-name="null" horiz-adv-x="752" d="M202 667H249L393 268L702 667H748L648 0H601L694 592L396 210H367L227 591L91 0H44L202 667Z" />
<glyph unicode="N" glyph-name="null" horiz-adv-x="669" d="M181 667H229L524 72L640 667H687L558 0H510L213 593L98 0H52L181 667Z" />
<glyph unicode="O" glyph-name="null" horiz-adv-x="743" d="M349 -16Q291 -16 243 5T159 63T104 152T84 263Q84 354 113 431T193 564T313 651T464 683Q521 683 569 662T653 604T708 515T728 404Q728 313 700 236T621 103T501 16T349 -16ZM459 639Q388 639 329
612T226 535T159 419T134 271Q134 220 148 176T190 99T259 47T353 28Q422 28 481 55T584 132T653 248T678 396Q678 448 664 492T622 569T553 620T459 639Z" />
<glyph unicode="P" glyph-name="null" horiz-adv-x="556" d="M182 667H366Q418 667 455 654T517 619T552 568T564 508Q564 458 550 417T504 347T423 301T305 284H155L100 0H53L182 667ZM324 328Q367 328 402 338T463 369T501 423T515 502Q515 556 483 589T381
623H220L163 328H324Z" />
<glyph unicode="Q" glyph-name="null" horiz-adv-x="743" d="M349 -16Q291 -16 243 5T159 63T104 152T84 263Q84 354 112 431T191 564T311 651T464 683Q521 683 569 662T653 604T708 515T728 404Q728 283 680 189T548 41L603 -54L565 -75L511 20Q474 3 434 -6T349
-16ZM459 639Q388 639 329 612T226 535T159 419T134 271Q134 220 148 176T190 99T259 47T353 28Q427 28 489 58L421 180L459 201L527 80Q596 128 637 209T678 396Q678 448 664 492T622 569T553 620T459 639Z" />
<glyph unicode="R" glyph-name="null" horiz-adv-x="572" d="M182 667H361Q413 667 451 655T515 621T552 571T564 511Q564 426 525 373T394 297L490 0H438L344 291Q336 290 329 290H156L100 0H53L182 667ZM325 334Q412 334 463 373T515 505Q515 559 480 591T376
624H220L164 334H325Z" />
<glyph unicode="S" glyph-name="null" horiz-adv-x="541" d="M66 121Q104 76 149 53T265 29Q346 29 394 64T443 181Q443 212 432 233T401 271T355 300T300 326Q270 339 242 355T191 393T155 441T141 505Q141 549 159 582T207 637T274 671T351 683Q414 683 465
656T547 580L510 557Q484 595 446 617T350 639Q319 639 291 632T240 609T204 570T190 514Q190 483 200 462T228 423T272 392T330 363Q361 348 390 333T443 296T480 248T495 181Q495 133 478 96T430 35T356 -3T262 -16Q182 -16 125 15T32 91L66 121Z" />
<glyph unicode="T" glyph-name="null" horiz-adv-x="591" d="M364 625H115L123 667H666L658 625H411L290 0H243L364 625Z" />
<glyph unicode="U" glyph-name="null" horiz-adv-x="645" d="M177 667H224L152 298Q147 273 145 250T142 204Q142 165 150 133T179 78T231 41T311 28Q370 28 409 46T475 97T516 176T543 278L619 667H666L586 258Q575 200 556 150T505 63T426 5T312 -16Q255 -16
214 0T145 45T105 113T92 198Q92 216 94 234T100 273L177 667Z" />
<glyph unicode="V" glyph-name="null" horiz-adv-x="605" d="M117 667H167L282 59L635 667H686L294 0H250L117 667Z" />
<glyph unicode="W" glyph-name="null" horiz-adv-x="839" d="M128 667H176L213 68L490 647H544L587 70L855 667H906L598 0H550L505 584L226 0H175L128 667Z" />
<glyph unicode="X" glyph-name="null" horiz-adv-x="564" d="M346 346L517 0H464L312 312L42 0H-14L292 352L138 667H190L326 387L571 667H627L346 346Z" />
<glyph unicode="Y" glyph-name="null" horiz-adv-x="511" d="M258 308L110 667H162L288 351L537 667H593L305 308L246 0H199L258 308Z" />
<glyph unicode="Z" glyph-name="null" horiz-adv-x="591" d="M25 44L568 623H158L167 667H637L629 623L85 44H522L514 0H17L25 44Z" />
<glyph unicode="[" glyph-name="null" horiz-adv-x="280" d="M190 706H359L350 664H227L89 -51H212L203 -93H34L190 706Z" />
<glyph unicode="\" glyph-name="null" horiz-adv-x="360" d="M133 685H179L297 -16H251L133 685Z" />
<glyph unicode="]" glyph-name="null" horiz-adv-x="280" d="M-11 -51H112L250 664H127L136 706H305L149 -93H-20L-11 -51Z" />
<glyph unicode="^" glyph-name="null" horiz-adv-x="507" d="M336 667H370L475 308H429L343 613L139 308H90L336 667Z" />
<glyph unicode="_" glyph-name="null" horiz-adv-x="500" d="M-38 -77H462L453 -121H-47L-38 -77Z" />
<glyph unicode="`" glyph-name="null" horiz-adv-x="348" d="M221 670H273L305 542H267L221 670Z" />
<glyph unicode="a" glyph-name="null" horiz-adv-x="472" d="M379 236Q354 241 324 244T256 248Q203 248 169 235T116 201T89 159T81 118Q81 76 104 52T178 28Q216 28 248 41T305 75T346 122T367 174L379 236ZM339 0Q340 10 341 17T343 33T347 52T351 77Q309 28
266 8T169 -12Q144 -12 121 -5T79 18T49 56T37 110Q37 146 52 178T96 234T167 271T263 285Q303 285 334 281T386 273L392 305Q395 321 395 338Q395 379 370 405T282 432Q253 432 232 428T195 416T166 401T141 383L119 413Q142 433 184 452T289 472Q363 472 401
437T440 342Q440 333 439 324T436 304L396 96Q392 76 388 55T381 0H339Z" />
<glyph unicode="b" glyph-name="null" horiz-adv-x="515" d="M167 667H211L155 378Q186 419 227 445T338 472Q377 472 406 458T454 420T483 363T493 293Q493 222 470 166T408 70T314 9T196 -12Q146 -12 110 -5T41 17L167 667ZM90 45Q118 34 146 31T204 28Q251
28 295 44T372 93T426 174T447 288Q447 317 441 343T420 389T383 420T325 432Q284 432 251 415T193 369T150 306T126 233L90 45Z" />
<glyph unicode="c" glyph-name="null" horiz-adv-x="475" d="M440 350Q421 392 390 411T311 431Q265 431 227 411T160 358T116 282T100 194Q100 154 111 124T143 72T189 40T245 29Q299 29 336 46T403 96L431 67Q394 29 350 9T238 -12Q200 -12 167 1T109 40T69
102T54 186Q54 241 73 293T128 384T211 448T318 472Q375 472 416 444T476 368L440 350Z" />
<glyph unicode="d" glyph-name="null" horiz-adv-x="516" d="M436 97Q432 78 430 65T425 41T422 21T419 0H378Q380 11 381 18T383 32T386 50T391 77Q377 60 360 45T319 16T269 -4T208 -12Q168 -12 139 2T90 40T61 96T51 167Q51 237 74 293T135 390T223 451T323
472Q375 472 407 457T457 427L504 667H547L436 97ZM448 382Q428 402 396 416T315 431Q278 431 240 415T170 367T118 286T97 172Q97 143 103 117T123 72T162 41T221 29Q254 29 285 41T342 74T385 122T409 181L448 382Z" />
<glyph unicode="e" glyph-name="null" horiz-adv-x="513" d="M101 219Q100 212 100 206V194Q100 114 142 72T249 29Q309 29 346 46T414 96L442 67Q403 29 358 9T242 -12Q202 -12 168 1T109 40T69 102T54 186Q54 241 73 293T126 384T207 448T313 472Q337 472 367
465T423 437T467 383T485 294Q485 277 484 259T477 219H101ZM308 431Q270 431 238 418T179 381T135 326T107 258H440Q443 279 443 297Q443 337 431 363T398 404T354 425T308 431Z" />
<glyph unicode="f" glyph-name="null" horiz-adv-x="302" d="M154 420H65L73 460H162L174 523Q189 601 230 642T334 683Q409 683 447 625L414 602Q394 628 375 635T332 643Q314 643 297 639T265 620T237 580T216 512L206 460H351L343 420H198L117 0H73L154 420Z" />
<glyph unicode="g" glyph-name="null" horiz-adv-x="513" d="M417 1Q397 -102 342 -157T186 -212Q135 -212 96 -199T23 -160L48 -126Q80 -151 111 -160T186 -170Q234 -170 266 -157T320 -121T354 -65T375 7L388 76Q374 59 357 44T318 16T268 -4T208 -12Q168 -12
139 2T90 40T61 96T51 167Q51 237 76 293T142 390T235 451T343 472Q431 472 502 435L417 1ZM453 409Q437 416 424 420T397 427T368 430T335 431Q294 431 252 415T176 367T119 286T97 172Q97 143 103 117T123 72T162 41T221 29Q254 29 285 41T342 74T385 122T409
181L453 409Z" />
<glyph unicode="h" glyph-name="null" horiz-adv-x="511" d="M165 667H209L151 369Q167 389 185 407T226 440T276 463T338 472Q411 472 443 432T475 328Q475 297 469 264L418 0H374L423 255Q427 275 428 292T430 324Q430 380 406 405T331 431Q291 431 257 414T195
370T151 307T126 237L80 0H36L165 667Z" />
<glyph unicode="i" glyph-name="null" horiz-adv-x="180" d="M150 621H211L199 558H138L150 621ZM127 460H171L82 0H38L127 460Z" />
<glyph unicode="j" glyph-name="null" horiz-adv-x="180" d="M-127 -134Q-111 -150 -97 -155T-66 -161Q-52 -161 -39 -158T-13 -142T11 -104T31 -34L127 460H171L73 -43Q67 -76 58 -104T33 -154T-5 -188T-62 -200Q-88 -200 -112 -191T-153 -164L-127 -134ZM150
621H211L199 558H138L150 621Z" />
<glyph unicode="k" glyph-name="null" horiz-adv-x="436" d="M164 667H208L123 230L395 460H452L250 288L395 0H346L215 260L112 173L79 0H35L164 667Z" />
<glyph unicode="l" glyph-name="null" horiz-adv-x="176" d="M165 667H209L80 0H36L165 667Z" />
<glyph unicode="m" glyph-name="null" horiz-adv-x="813" d="M401 0H357L406 255Q414 298 414 326Q414 386 388 408T321 431Q282 431 249 413T192 367T151 304T128 237L82 0H38L108 363Q112 382 114 395T119 419T122 439T125 460H166Q165 449 164 440T161 421T156
397T149 364Q160 379 176 398T214 433T264 461T329 472Q390 472 419 441T457 361Q469 378 486 397T527 433T579 461T643 472Q714 472 746 432T779 328Q779 313 777 297T772 264L721 0H677L726 255Q730 275 731 292T733 323Q733 379 709 405T636 431Q600 431 569
416T514 376T473 320T450 254L401 0Z" />
<glyph unicode="n" glyph-name="null" horiz-adv-x="513" d="M108 363Q112 382 114 395T119 419T122 439T125 460H166Q165 449 164 440T161 421T156 397T149 364Q165 384 184 403T226 438T277 462T340 472Q413 472 445 432T477 328Q477 297 471 264L420 0H376L425
255Q429 275 430 292T432 324Q432 380 408 405T333 431Q293 431 259 414T197 370T153 307T128 237L82 0H38L108 363Z" />
<glyph unicode="o" glyph-name="null" horiz-adv-x="543" d="M243 -12Q204 -12 170 1T110 40T69 102T54 186Q54 240 73 291T127 383T214 447T328 472Q367 472 401 459T461 420T502 357T517 274Q517 220 499 169T445 77T358 13T243 -12ZM321 431Q270 431 229 411T160
358T116 282T100 194Q100 114 142 72T250 29Q300 29 341 49T411 102T455 178T471 266Q471 346 431 388T321 431Z" />
<glyph unicode="p" glyph-name="null" horiz-adv-x="516" d="M108 363Q112 382 114 395T119 419T122 439T125 460H166Q164 449 163 441T160 423T156 402T151 374Q182 415 225 443T338 472Q377 472 406 458T454 420T483 363T493 293Q493 222 471 166T412 70T324
9T216 -12Q164 -12 135 3T87 32L42 -200H-1L108 363ZM96 78Q116 58 146 44T224 29Q265 29 305 45T376 93T427 174T447 288Q447 317 441 343T420 388T383 419T325 431Q284 431 251 414T192 369T150 306T126 233L96 78Z" />
<glyph unicode="q" glyph-name="null" horiz-adv-x="515" d="M379 -200H335L388 75Q361 42 318 15T208 -12Q168 -12 139 2T90 40T61 96T51 167Q51 237 76 293T142 390T235 451T343 472Q431 472 502 435L379 -200ZM453 409Q437 416 424 420T397 427T368 430T335
431Q294 431 252 415T176 367T119 286T97 172Q97 143 103 117T123 72T162 41T221 29Q254 29 285 41T342 74T385 122T409 181L453 409Z" />
<glyph unicode="r" glyph-name="null" horiz-adv-x="324" d="M108 363Q112 382 114 395T119 419T122 439T125 460H166Q165 449 164 440T161 420T156 396T149 363Q181 411 221 438T315 465Q325 465 339 463T364 456L347 413Q329 421 303 421Q269 421 240 405T188
362T149 302T127 235L82 0H38L108 363Z" />
<glyph unicode="s" glyph-name="null" horiz-adv-x="434" d="M55 85Q90 53 130 41T216 28Q277 28 304 53T331 116Q331 135 326 148T308 173T274 196T220 220Q189 232 166 244T128 271T105 304T97 348Q97 376 109 398T142 437T192 463T256 472Q354 472 414 404L383
378Q358 405 328 419T255 433Q200 433 171 410T142 351Q142 330 148 317T168 294T202 275T250 254Q287 238 312 224T351 193T372 160T378 120Q378 58 333 23T211 -12Q158 -12 112 3T28 53L55 85Z" />
<glyph unicode="t" glyph-name="null" horiz-adv-x="341" d="M158 420H69L76 460H165L194 612H238L209 460H354L347 420H202L145 131Q140 109 140 92Q140 66 154 47T209 28Q230 28 249 38T285 66L310 39Q291 18 264 3T201 -12Q147 -12 122 15T96 89Q96 101 98
114T103 141L158 420Z" />
<glyph unicode="u" glyph-name="null" horiz-adv-x="507" d="M428 97Q424 78 422 65T417 41T414 21T411 0H370Q371 11 372 19T375 38T379 61T386 93Q370 73 353 54T313 21T264 -3T203 -12Q128 -12 96 28T63 132Q63 147 65 163T70 196L121 460H165L116 205Q112
185 110 168T108 135Q108 80 133 55T210 29Q251 29 284 46T343 92T384 154T408 223L454 460H498L428 97Z" />
<glyph unicode="v" glyph-name="null" horiz-adv-x="444" d="M69 460H116L202 55L445 460H492L212 0H173L69 460Z" />
<glyph unicode="w" glyph-name="null" horiz-adv-x="653" d="M73 460H119L163 59L367 460H409L454 57L649 460H695L466 0H420L374 394L172 0H133L73 460Z" />
<glyph unicode="x" glyph-name="null" horiz-adv-x="438" d="M259 244L391 0H342L227 214L34 0H-17L209 248L95 460H144L240 277L405 460H456L259 244Z" />
<glyph unicode="y" glyph-name="null" horiz-adv-x="444" d="M36 -174Q64 -174 82 -156T121 -100L180 4L69 460H116L210 55L443 460H490L154 -117Q145 -132 134 -149T109 -180T78 -203T39 -212Q12 -212 -7 -205T-42 -181L-18 -152Q-9 -161 5 -167T36 -174Z" />
<glyph unicode="z" glyph-name="null" horiz-adv-x="462" d="M37 42L405 421H121L129 460H465L457 418L86 40H390L383 0H29L37 42Z" />
<glyph unicode="{" glyph-name="null" horiz-adv-x="255" d="M121 -93Q96 -62 96 -15Q96 -4 97 9T100 36L117 199Q117 202 117 205T118 212Q118 240 104 264T57 293L64 329Q101 334 125 359T158 415L204 585Q216 630 232 658T275 706H325Q304 688 285 662T254
596L207 416Q193 365 167 342T111 309Q133 301 149 280T166 221V210Q166 205 165 200L143 25Q142 17 142 10T141 -4Q141 -33 148 -53T168 -93H121Z" />
<glyph unicode="|" glyph-name="null" horiz-adv-x="206" d="M214 833H257L64 -164H21L214 833Z" />
<glyph unicode="}" glyph-name="null" horiz-adv-x="255" d="M193 706Q218 675 218 628Q218 617 217 604T214 577L197 414Q197 411 197 408T196 401Q196 373 210 349T257 320L250 284Q213 279 189 254T156 198L110 28Q98 -17 82 -45T39 -93H-11Q10 -75 29 -49T60
17L107 197Q121 248 147 271T203 304Q181 312 165 333T148 392V402Q148 408 149 413L171 588Q172 596 172 603T173 617Q173 646 166 666T146 706H193Z" />
<glyph unicode="~" glyph-name="null" horiz-adv-x="426" d="M258 319Q270 311 283 306T310 300Q338 300 357 311T388 339L413 314Q408 307 400 298T378 281T348 266T307 260Q284 260 267 268T235 285Q222 293 209 301T177 309Q149 309 130 298T99 270L74 295Q79
302 87 311T109 328T139 343T180 349Q203 349 222 340T258 319Z" />
<glyph unicode="&#xa0;" glyph-name="null" horiz-adv-x="166" />
<glyph unicode="&#xa1;" glyph-name="null" horiz-adv-x="216" d="M62 -207H12L112 294H156L62 -207ZM185 397H124L136 460H197L185 397Z" />
<glyph unicode="&#xa2;" glyph-name="null" horiz-adv-x="545" d="M479 437Q464 473 436 492T370 517L291 112Q342 113 378 130T442 179L470 150Q434 113 391 93T283 71L266 -19H227L245 74Q213 79 185 95T137 136T105 195T93 271Q93 324 111 374T161 464T239
529T339 558L357 649H396L378 558Q427 553 462 526T515 455L479 437ZM139 279Q139 210 171 168T253 115L331 517Q289 513 254 492T193 437T153 363T139 279Z" />
<glyph unicode="&#xa3;" glyph-name="null" horiz-adv-x="545" d="M163 315H97L105 359H171L189 448Q194 475 205 509T239 574T301 626T400 648Q442 648 475 629T530 579L496 553Q474 581 451 593T390 606Q352 606 326 593T281 557T252 503T233 436L218 359H420L412
315H210L157 44H457L449 0H102L163 315Z" />
<glyph unicode="&#xa4;" glyph-name="null" horiz-adv-x="545" d="M61 153L130 220Q88 274 88 343Q88 377 99 407T129 464L61 532L93 565L161 499Q187 520 220 532T289 544Q362 544 416 499L485 567L517 533L448 466Q490 412 490 343Q490 309 479 279T449 222L517
154L485 121L417 187Q391 166 358 154T289 142Q216 142 162 187L93 119L61 153ZM289 500Q257 500 229 488T179 455T145 405T132 343Q132 310 144 282T178 232T228 198T289 186Q321 186 349 198T399 231T433 281T446 343Q446 376 434 404T400 454T350 488T289 500Z"
/>
<glyph unicode="&#xa5;" glyph-name="null" horiz-adv-x="545" d="M60 180H233L251 275L248 283H79L87 322H232L113 631H163L279 322L515 631H568L329 322H472L464 283H298L293 276L275 180H445L437 141H267L240 0H198L225 141H52L60 180Z" />
<glyph unicode="&#xa6;" glyph-name="null" horiz-adv-x="206" d="M214 833H257L184 454H141L214 833ZM94 215H137L64 -164H21L94 215Z" />
<glyph unicode="&#xa7;" glyph-name="null" horiz-adv-x="462" d="M432 598Q408 622 381 632T328 642Q262 642 224 604T185 501Q185 476 189 457T206 418T240 376T297 322L414 217L383 185L257 298Q229 323 208 345T171 390T149 437T141 491Q141 537 156 572T196
632T255 670T327 683Q365 683 400 670T461 627L432 598ZM71 -128Q95 -152 122 -162T175 -172Q241 -172 279 -134T318 -31Q318 -6 314 13T297 52T262 94T206 148L89 253L120 285L246 172Q274 147 295 125T332 80T354 33T362 -21Q362 -67 347 -102T307 -162T247 -200T176
-213Q138 -213 103 -200T42 -157L71 -128Z" />
<glyph unicode="&#xa8;" glyph-name="null" horiz-adv-x="336" d="M302 627H360L347 565H289L302 627ZM160 627H218L205 565H147L160 627Z" />
<glyph unicode="&#xa9;" glyph-name="null" horiz-adv-x="776" d="M578 223Q553 185 513 163T424 140Q383 140 349 154T289 194T251 254T237 330Q237 370 251 405T291 465T350 505T424 520Q473 520 513 498T578 438L543 415Q521 445 491 462T424 479Q394 479 369
468T324 436T294 388T283 330Q283 300 293 273T321 226T366 194T424 182Q463 182 494 201T546 249L578 223ZM421 26Q486 26 540 50T635 116T697 214T719 333Q719 396 697 452T635 550T541 616T421 640Q356 640 301 616T207 550T145 452T122 333Q122 270 144 214T206
116T301 50T421 26ZM73 334Q73 407 100 470T174 581T284 656T422 683Q495 683 558 656T668 582T742 471T769 334Q769 261 742 198T669 87T559 12T422 -15Q348 -15 285 12T174 86T100 197T73 334Z" />
<glyph unicode="&#xaa;" glyph-name="null" horiz-adv-x="369" d="M322 501Q308 503 290 504T249 506Q203 506 173 488T143 437Q143 417 155 403T199 389Q221 389 241 395T276 411T302 435T315 463L322 501ZM297 359Q298 370 299 378T302 395Q277 373 249 363T194
352Q154 352 129 372T103 432Q103 479 143 509T253 539Q277 539 295 537T328 533L331 549Q332 554 332 564Q332 585 317 598T266 612Q232 612 209 603T171 582L151 608Q166 621 197 634T270 648Q318 648 344 626T371 565Q371 560 371 555T369 544L344 421Q338 393
335 359H297Z" />
<glyph unicode="&#xab;" glyph-name="null" horiz-adv-x="432" d="M83 234L222 426H269L131 232L193 42H148L83 234ZM225 234L364 426H411L273 232L335 42H290L225 234Z" />
<glyph unicode="&#xac;" glyph-name="null" horiz-adv-x="545" d="M101 346H486L454 182H409L432 302H92L101 346Z" />
<glyph unicode="&#xad;" glyph-name="null" horiz-adv-x="420" d="M107 304H371L362 260H98L107 304Z" />
<glyph unicode="&#xae;" glyph-name="null" horiz-adv-x="776" d="M313 515H435Q496 515 525 485T554 411Q554 372 535 344T476 302L566 150H518L431 297H355V150H313V515ZM434 333Q471 333 491 354T511 410Q511 479 424 479H355V333H434ZM421 26Q486 26 540 50T635
116T697 214T719 333Q719 396 697 452T635 550T541 616T421 640Q356 640 301 616T207 550T145 452T122 333Q122 270 144 214T206 116T301 50T421 26ZM73 334Q73 407 100 470T174 581T284 656T422 683Q495 683 558 656T668 582T742 471T769 334Q769 261 742 198T669
87T559 12T422 -15Q348 -15 285 12T174 86T100 197T73 334Z" />
<glyph unicode="&#xaf;" glyph-name="null" horiz-adv-x="336" d="M122 618H345L337 577H114L122 618Z" />
<glyph unicode="&#xb0;" glyph-name="null" horiz-adv-x="310" d="M69 519Q69 547 79 570T106 611T148 638T199 648Q226 648 250 638T291 611T319 571T329 519Q329 491 319 468T292 427T250 400T199 390Q172 390 148 399T107 426T79 467T69 519ZM111 519Q111 500
118 484T137 455T165 437T199 430Q217 430 233 436T261 455T280 483T287 519Q287 559 261 583T199 608Q181 608 165 602T137 583T118 555T111 519Z" />
<glyph unicode="&#xb1;" glyph-name="null" horiz-adv-x="545" d="M98 343H268L302 516H346L312 343H483L474 299H305L272 124H227L260 299H89L98 343ZM44 44H429L420 1H35L44 44Z" />
<glyph unicode="&#xb2;" glyph-name="null" horiz-adv-x="360" d="M79 328Q82 346 93 362T119 395T153 424T192 450Q225 470 248 484T284 512T304 537T310 565Q310 585 294 598T248 611Q222 611 197 601T146 562L120 585Q140 611 173 629T251 648Q277 648 296
641T328 623T347 598T354 569Q354 526 323 498T237 436Q192 409 162 387T123 335H315L307 298H73L79 328Z" />
<glyph unicode="&#xb3;" glyph-name="null" horiz-adv-x="360" d="M88 357Q112 334 133 329T176 323Q223 323 248 345T274 406Q274 435 256 451T202 467Q188 467 170 462L157 483L291 604H133L140 638H347L341 608L219 499Q265 497 290 471T315 409Q315 380 304
358T274 320T230 296T175 288Q141 288 115 296T64 328L88 357Z" />
<glyph unicode="&#xb4;" glyph-name="null" horiz-adv-x="234" d="M210 667H264L175 539H133L210 667Z" />
<glyph unicode="&#xb5;" glyph-name="null" horiz-adv-x="524" d="M214 29Q255 29 289 45T348 90T391 153T416 227L461 460H505L435 97Q434 94 432 83T427 57T422 28T418 0H377Q378 11 379 19T382 38T386 61T393 93Q377 72 359 53T320 20T272 -3T212 -12Q164 -12
133 6T92 55L43 -200H-1L127 460H171L122 207Q115 172 115 138Q115 87 137 58T214 29Z" />
<glyph unicode="&#xb6;" glyph-name="null" horiz-adv-x="483" d="M454 667H500L347 -122H301L454 667ZM246 261Q259 259 270 259T292 258L218 -122H172L246 261ZM303 315Q264 317 230 325T170 352T131 398T116 466Q116 516 136 554T191 617T272 654T371 667L303 315Z" />
<glyph unicode="&#xb7;" glyph-name="null" horiz-adv-x="200" d="M101 358H167L153 290H87L101 358Z" />
<glyph unicode="&#xb8;" glyph-name="null" horiz-adv-x="325" d="M10 -165Q22 -171 39 -176T80 -182Q117 -182 139 -167T162 -126Q162 -90 107 -90Q88 -90 72 -93T33 -105L44 -71Q59 -66 78 -61T126 -56Q166 -56 184 -77T203 -122Q203 -145 193 -163T166 -193T126
-211T78 -217Q52 -217 32 -211T-3 -197L10 -165Z" />
<glyph unicode="&#xb9;" glyph-name="null" horiz-adv-x="360" d="M255 592L148 545L135 576L269 638H306L239 298H197L255 592Z" />
<glyph unicode="&#xba;" glyph-name="null" horiz-adv-x="372" d="M222 350Q198 350 176 358T138 382T112 420T102 472Q102 505 114 537T149 593T204 633T274 648Q298 648 320 640T358 616T385 577T395 526Q395 492 383 461T348 405T293 365T222 350ZM268 610Q239
610 216 599T177 570T152 528T143 478Q143 433 167 410T228 387Q256 387 279 398T318 427T344 469T353 519Q353 564 330 587T268 610Z" />
<glyph unicode="&#xbb;" glyph-name="null" horiz-adv-x="432" d="M379 234L240 42H193L331 236L269 426H314L379 234ZM237 234L98 42H51L189 236L127 426H172L237 234Z" />
<glyph unicode="&#xbc;" glyph-name="null" horiz-adv-x="840" d="M472 592L365 545L352 576L486 638H523L456 298H414L472 592ZM629 630H680L200 0H149L629 630ZM499 112L723 341H765L721 112H762L755 77H714L700 2H662L676 77H492L499 112ZM683 112L718 292L545
112H683Z" />
<glyph unicode="&#xbd;" glyph-name="null" horiz-adv-x="840" d="M472 592L365 545L352 576L486 638H523L456 298H414L472 592ZM614 630H665L185 0H134L614 630ZM519 31Q522 49 533 65T559 98T593 127T632 153Q665 173 688 187T724 215T744 240T750 268Q750 288
734 301T688 314Q662 314 637 304T586 265L560 288Q580 314 613 332T691 351Q717 351 736 344T768 326T787 301T794 272Q794 229 763 201T677 139Q632 112 602 90T563 38H755L747 1H513L519 31Z" />
<glyph unicode="&#xbe;" glyph-name="null" horiz-adv-x="840" d="M108 357Q132 334 153 329T196 323Q243 323 268 345T294 406Q294 435 276 451T222 467Q208 467 190 462L177 483L311 604H153L160 638H367L361 608L239 499Q285 497 310 471T335 409Q335 380 324
358T294 320T250 296T195 288Q161 288 135 296T84 328L108 357ZM669 630H720L240 0H189L669 630ZM499 112L723 341H765L721 112H762L755 77H714L700 2H662L676 77H492L499 112ZM683 112L718 292L545 112H683Z" />
<glyph unicode="&#xbf;" glyph-name="null" horiz-adv-x="476" d="M332 256Q326 221 313 194T281 146T242 108T200 78Q174 61 152 46T113 13T87 -29T77 -86Q77 -132 111 -156T201 -180Q255 -180 295 -162T372 -102L404 -127Q358 -180 307 -201T199 -223Q163 -223
132 -214T79 -187T44 -144T31 -87Q31 -50 42 -23T72 26T118 69T177 111Q196 124 214 138T247 169T273 209T290 261L296 294H339L332 256ZM367 397H306L318 460H379L367 397Z" />
<glyph unicode="&#xc0;" glyph-name="null" horiz-adv-x="604" d="M380 667H424L557 0H507L465 216H164L40 0H-11L380 667ZM457 260L390 608L190 260H457ZM342 866H398L438 725H398L342 866Z" />
<glyph unicode="&#xc1;" glyph-name="null" horiz-adv-x="604" d="M380 667H424L557 0H507L465 216H164L40 0H-11L380 667ZM457 260L390 608L190 260H457ZM472 866H534L421 725H377L472 866Z" />
<glyph unicode="&#xc2;" glyph-name="null" horiz-adv-x="604" d="M380 667H424L557 0H507L465 216H164L40 0H-11L380 667ZM457 260L390 608L190 260H457ZM408 866H459L539 725H490L427 833L319 725H267L408 866Z" />
<glyph unicode="&#xc3;" glyph-name="null" horiz-adv-x="604" d="M380 667H424L557 0H507L465 216H164L40 0H-11L380 667ZM457 260L390 608L190 260H457ZM435 812Q448 804 459 799T487 793Q504 793 521 800T562 828L583 802Q562 779 535 765T478 751Q455 751
437 760T404 780Q381 797 352 797Q335 797 319 790T277 761L257 787Q277 810 305 824T362 838Q385 838 403 830T435 812Z" />
<glyph unicode="&#xc4;" glyph-name="null" horiz-adv-x="604" d="M380 667H424L557 0H507L465 216H164L40 0H-11L380 667ZM457 260L390 608L190 260H457ZM474 828H537L523 760H460L474 828ZM314 828H378L364 760H300L314 828Z" />
<glyph unicode="&#xc5;" glyph-name="null" horiz-adv-x="604" d="M301 734Q301 782 330 810T403 839Q448 839 477 810T507 736Q507 698 486 670T431 633L557 0H507L465 216H164L40 0H-11L363 638Q335 649 318 674T301 734ZM457 260L390 608L190 260H457ZM405
666Q431 666 450 686T469 736Q469 765 450 784T403 803Q377 803 358 784T339 734Q339 705 357 686T405 666Z" />
<glyph unicode="&#xc6;" glyph-name="null" horiz-adv-x="912" d="M535 667H943L934 623H597L548 370H811L803 326H540L485 44H847L839 0H430L467 195H193L32 0H-21L535 667ZM476 239L551 624L231 239H476Z" />
<glyph unicode="&#xc7;" glyph-name="null" horiz-adv-x="645" d="M633 527Q603 590 557 614T446 639Q381 639 325 612T226 535T159 419T134 271Q134 220 149 176T193 99T260 47T349 28Q424 28 476 58T566 136L600 107Q555 53 494 19T345 -16Q289 -16 242 5T159
63T104 152T84 263Q84 354 113 431T191 564T308 651T451 683Q526 683 584 649T672 547L633 527ZM203 -163Q216 -169 233 -174T275 -179Q310 -179 333 -165T356 -124Q356 -90 302 -90Q283 -90 266 -93T226 -104L238 -68Q255 -63 273 -58T322 -53Q365 -53 383 -73T402
-120Q402 -168 365 -192T273 -217Q246 -217 225 -211T190 -197L203 -163Z" />
<glyph unicode="&#xc8;" glyph-name="null" horiz-adv-x="535" d="M182 667H566L557 623H220L171 370H434L426 326H163L108 44H470L462 0H53L182 667ZM329 866H385L425 725H385L329 866Z" />
<glyph unicode="&#xc9;" glyph-name="null" horiz-adv-x="535" d="M182 667H566L557 623H220L171 370H434L426 326H163L108 44H470L462 0H53L182 667ZM438 866H500L387 725H343L438 866Z" />
<glyph unicode="&#xca;" glyph-name="null" horiz-adv-x="535" d="M182 667H566L557 623H220L171 370H434L426 326H163L108 44H470L462 0H53L182 667ZM387 866H438L518 725H469L406 833L298 725H246L387 866Z" />
<glyph unicode="&#xcb;" glyph-name="null" horiz-adv-x="535" d="M182 667H566L557 623H220L171 370H434L426 326H163L108 44H470L462 0H53L182 667ZM446 828H509L495 760H432L446 828ZM286 828H350L336 760H272L286 828Z" />
<glyph unicode="&#xcc;" glyph-name="null" horiz-adv-x="211" d="M182 667H229L100 0H53L182 667ZM404 866H460L500 725H460L404 866Z" />
<glyph unicode="&#xcd;" glyph-name="null" horiz-adv-x="211" d="M182 667H229L100 0H53L182 667ZM283 866H345L232 725H188L283 866Z" />
<glyph unicode="&#xce;" glyph-name="null" horiz-adv-x="211" d="M182 667H229L100 0H53L182 667ZM474 866H525L605 725H556L493 833L385 725H333L474 866Z" />
<glyph unicode="&#xcf;" glyph-name="null" horiz-adv-x="211" d="M182 667H229L100 0H53L182 667ZM537 828H600L586 760H523L537 828ZM377 828H441L427 760H363L377 828Z" />
<glyph unicode="&#xd0;" glyph-name="null" horiz-adv-x="669" d="M53 0L115 324H51L59 365H123L182 667H394Q451 667 499 649T583 596T638 513T658 404Q658 313 630 239T550 111T429 29T277 0H53ZM283 44Q352 44 412 69T515 140T584 251T609 396Q609 500 553
561T389 623H220L170 365H365L357 324H162L108 44H283Z" />
<glyph unicode="&#xd1;" glyph-name="null" horiz-adv-x="669" d="M181 667H229L524 72L640 667H687L558 0H510L213 593L98 0H52L181 667ZM460 812Q473 804 484 799T512 793Q529 793 546 800T587 828L608 802Q587 779 560 765T503 751Q480 751 462 760T429 780Q406
797 377 797Q360 797 344 790T302 761L282 787Q302 810 330 824T387 838Q410 838 428 830T460 812Z" />
<glyph unicode="&#xd2;" glyph-name="null" horiz-adv-x="743" d="M349 -16Q291 -16 243 5T159 63T104 152T84 263Q84 354 113 431T193 564T313 651T464 683Q521 683 569 662T653 604T708 515T728 404Q728 313 700 236T621 103T501 16T349 -16ZM459 639Q388 639
329 612T226 535T159 419T134 271Q134 220 148 176T190 99T259 47T353 28Q422 28 481 55T584 132T653 248T678 396Q678 448 664 492T622 569T553 620T459 639ZM419 866H475L515 725H475L419 866Z" />
<glyph unicode="&#xd3;" glyph-name="null" horiz-adv-x="743" d="M349 -16Q291 -16 243 5T159 63T104 152T84 263Q84 354 113 431T193 564T313 651T464 683Q521 683 569 662T653 604T708 515T728 404Q728 313 700 236T621 103T501 16T349 -16ZM459 639Q388 639
329 612T226 535T159 419T134 271Q134 220 148 176T190 99T259 47T353 28Q422 28 481 55T584 132T653 248T678 396Q678 448 664 492T622 569T553 620T459 639ZM540 866H602L489 725H445L540 866Z" />
<glyph unicode="&#xd4;" glyph-name="null" horiz-adv-x="743" d="M349 -16Q291 -16 243 5T159 63T104 152T84 263Q84 354 113 431T193 564T313 651T464 683Q521 683 569 662T653 604T708 515T728 404Q728 313 700 236T621 103T501 16T349 -16ZM459 639Q388 639
329 612T226 535T159 419T134 271Q134 220 148 176T190 99T259 47T353 28Q422 28 481 55T584 132T653 248T678 396Q678 448 664 492T622 569T553 620T459 639ZM467 866H518L598 725H549L486 833L378 725H326L467 866Z" />
<glyph unicode="&#xd5;" glyph-name="null" horiz-adv-x="743" d="M349 -16Q291 -16 243 5T159 63T104 152T84 263Q84 354 113 431T193 564T313 651T464 683Q521 683 569 662T653 604T708 515T728 404Q728 313 700 236T621 103T501 16T349 -16ZM459 639Q388 639
329 612T226 535T159 419T134 271Q134 220 148 176T190 99T259 47T353 28Q422 28 481 55T584 132T653 248T678 396Q678 448 664 492T622 569T553 620T459 639ZM498 812Q511 804 522 799T550 793Q567 793 584 800T625 828L646 802Q625 779 598 765T541 751Q518 751
500 760T467 780Q444 797 415 797Q398 797 382 790T340 761L320 787Q340 810 368 824T425 838Q448 838 466 830T498 812Z" />
<glyph unicode="&#xd6;" glyph-name="null" horiz-adv-x="743" d="M349 -16Q291 -16 243 5T159 63T104 152T84 263Q84 354 113 431T193 564T313 651T464 683Q521 683 569 662T653 604T708 515T728 404Q728 313 700 236T621 103T501 16T349 -16ZM459 639Q388 639
329 612T226 535T159 419T134 271Q134 220 148 176T190 99T259 47T353 28Q422 28 481 55T584 132T653 248T678 396Q678 448 664 492T622 569T553 620T459 639ZM540 828H603L589 760H526L540 828ZM380 828H444L430 760H366L380 828Z" />
<glyph unicode="&#xd7;" glyph-name="null" horiz-adv-x="523" d="M264 321L160 457L195 485L298 351L451 485L479 455L323 319L427 184L391 156L288 289L133 154L106 184L264 321Z" />
<glyph unicode="&#xd8;" glyph-name="null" horiz-adv-x="743" d="M149 74Q118 111 101 158T84 263Q84 354 113 431T193 564T313 651T464 683Q512 683 554 668T629 626L706 714L737 689L658 598Q691 561 709 512T728 404Q728 313 700 236T621 103T501 16T349 -16Q298
-16 255 0T177 46L94 -49L63 -24L149 74ZM678 396Q678 497 627 563L207 81Q234 56 270 42T353 28Q422 28 481 55T584 132T653 248T678 396ZM459 639Q388 639 329 612T226 535T159 419T134 271Q134 224 145 184T180 111L599 591Q573 614 538 626T459 639Z" />
<glyph unicode="&#xd9;" glyph-name="null" horiz-adv-x="645" d="M177 667H224L152 298Q147 273 145 250T142 204Q142 165 150 133T179 78T231 41T311 28Q370 28 409 46T475 97T516 176T543 278L619 667H666L586 258Q575 200 556 150T505 63T426 5T312 -16Q255
-16 214 0T145 45T105 113T92 198Q92 216 94 234T100 273L177 667ZM366 866H422L462 725H422L366 866Z" />
<glyph unicode="&#xda;" glyph-name="null" horiz-adv-x="645" d="M177 667H224L152 298Q147 273 145 250T142 204Q142 165 150 133T179 78T231 41T311 28Q370 28 409 46T475 97T516 176T543 278L619 667H666L586 258Q575 200 556 150T505 63T426 5T312 -16Q255
-16 214 0T145 45T105 113T92 198Q92 216 94 234T100 273L177 667ZM479 866H541L428 725H384L479 866Z" />
<glyph unicode="&#xdb;" glyph-name="null" horiz-adv-x="645" d="M177 667H224L152 298Q147 273 145 250T142 204Q142 165 150 133T179 78T231 41T311 28Q370 28 409 46T475 97T516 176T543 278L619 667H666L586 258Q575 200 556 150T505 63T426 5T312 -16Q255
-16 214 0T145 45T105 113T92 198Q92 216 94 234T100 273L177 667ZM429 866H480L560 725H511L448 833L340 725H288L429 866Z" />
<glyph unicode="&#xdc;" glyph-name="null" horiz-adv-x="645" d="M177 667H224L152 298Q147 273 145 250T142 204Q142 165 150 133T179 78T231 41T311 28Q370 28 409 46T475 97T516 176T543 278L619 667H666L586 258Q575 200 556 150T505 63T426 5T312 -16Q255
-16 214 0T145 45T105 113T92 198Q92 216 94 234T100 273L177 667ZM494 828H557L543 760H480L494 828ZM334 828H398L384 760H320L334 828Z" />
<glyph unicode="&#xdd;" glyph-name="null" horiz-adv-x="511" d="M258 308L110 667H162L288 351L537 667H593L305 308L246 0H199L258 308ZM415 866H477L364 725H320L415 866Z" />
<glyph unicode="&#xde;" glyph-name="null" horiz-adv-x="555" d="M339 535Q391 535 428 522T490 487T525 436T537 376Q537 326 523 285T477 215T396 169T278 152H128L99 0H53L182 667H228L202 535H339ZM137 196H297Q340 196 375 206T436 237T474 291T488 370Q488
424 456 457T354 491H194L137 196Z" />
<glyph unicode="&#xdf;" glyph-name="null" horiz-adv-x="520" d="M441 113Q441 136 434 152T413 180T379 201T335 221Q302 234 278 254T253 313Q253 350 276 378T333 434Q368 463 394 494T421 564Q421 605 396 624T322 643Q256 643 223 604T175 487L81 0H38L131
484Q151 588 199 635T333 683Q361 683 385 675T427 652T455 618T465 576Q465 550 459 530T442 493T414 459T376 424Q363 413 349 401T322 377T303 350T295 321Q295 305 301 295T319 276T352 259T401 237Q451 214 469 183T488 120Q488 92 477 67T446 23T396 -7T329
-18Q290 -18 254 -11T182 20L206 54Q236 34 266 28T327 22Q382 22 411 47T441 113Z" />
<glyph unicode="&#xe0;" glyph-name="null" horiz-adv-x="472" d="M379 236Q354 241 324 244T256 248Q203 248 169 235T116 201T89 159T81 118Q81 76 104 52T178 28Q216 28 248 41T305 75T346 122T367 174L379 236ZM339 0Q340 10 341 17T343 33T347 52T351 77Q309
28 266 8T169 -12Q144 -12 121 -5T79 18T49 56T37 110Q37 146 52 178T96 234T167 271T263 285Q303 285 334 281T386 273L392 305Q395 321 395 338Q395 379 370 405T282 432Q253 432 232 428T195 416T166 401T141 383L119 413Q142 433 184 452T289 472Q363 472 401
437T440 342Q440 333 439 324T436 304L396 96Q392 76 388 55T381 0H339ZM249 670H301L333 542H295L249 670Z" />
<glyph unicode="&#xe1;" glyph-name="null" horiz-adv-x="472" d="M379 236Q354 241 324 244T256 248Q203 248 169 235T116 201T89 159T81 118Q81 76 104 52T178 28Q216 28 248 41T305 75T346 122T367 174L379 236ZM339 0Q340 10 341 17T343 33T347 52T351 77Q309
28 266 8T169 -12Q144 -12 121 -5T79 18T49 56T37 110Q37 146 52 178T96 234T167 271T263 285Q303 285 334 281T386 273L392 305Q395 321 395 338Q395 379 370 405T282 432Q253 432 232 428T195 416T166 401T141 383L119 413Q142 433 184 452T289 472Q363 472 401
437T440 342Q440 333 439 324T436 304L396 96Q392 76 388 55T381 0H339ZM350 667H404L315 539H273L350 667Z" />
<glyph unicode="&#xe2;" glyph-name="null" horiz-adv-x="472" d="M379 236Q354 241 324 244T256 248Q203 248 169 235T116 201T89 159T81 118Q81 76 104 52T178 28Q216 28 248 41T305 75T346 122T367 174L379 236ZM339 0Q340 10 341 17T343 33T347 52T351 77Q309
28 266 8T169 -12Q144 -12 121 -5T79 18T49 56T37 110Q37 146 52 178T96 234T167 271T263 285Q303 285 334 281T386 273L392 305Q395 321 395 338Q395 379 370 405T282 432Q253 432 232 428T195 416T166 401T141 383L119 413Q142 433 184 452T289 472Q363 472 401
437T440 342Q440 333 439 324T436 304L396 96Q392 76 388 55T381 0H339ZM304 667H346L409 539H364L320 633L237 539H191L304 667Z" />
<glyph unicode="&#xe3;" glyph-name="null" horiz-adv-x="504" d="M379 236Q354 241 324 244T256 248Q203 248 169 235T116 201T89 159T81 118Q81 76 104 52T178 28Q216 28 248 41T305 75T346 122T367 174L379 236ZM339 0Q340 10 341 17T343 33T347 52T351 77Q309
28 266 8T169 -12Q144 -12 121 -5T79 18T49 56T37 110Q37 146 52 178T96 234T167 271T263 285Q303 285 334 281T386 273L392 305Q395 321 395 338Q395 379 370 405T282 432Q253 432 232 428T195 416T166 401T141 383L119 413Q142 433 184 452T289 472Q363 472 401
437T440 342Q440 333 439 324T436 304L396 96Q392 76 388 55T381 0H339ZM332 614Q343 606 354 601T381 596Q397 596 413 602T452 629L472 603Q451 581 425 569T372 557Q350 557 334 565T303 584Q281 600 254 600Q238 600 222 594T183 567L163 593Q184 615 210 627T263
639Q287 639 302 631T332 614Z" />
<glyph unicode="&#xe4;" glyph-name="null" horiz-adv-x="472" d="M379 236Q354 241 324 244T256 248Q203 248 169 235T116 201T89 159T81 118Q81 76 104 52T178 28Q216 28 248 41T305 75T346 122T367 174L379 236ZM339 0Q340 10 341 17T343 33T347 52T351 77Q309
28 266 8T169 -12Q144 -12 121 -5T79 18T49 56T37 110Q37 146 52 178T96 234T167 271T263 285Q303 285 334 281T386 273L392 305Q395 321 395 338Q395 379 370 405T282 432Q253 432 232 428T195 416T166 401T141 383L119 413Q142 433 184 452T289 472Q363 472 401
437T440 342Q440 333 439 324T436 304L396 96Q392 76 388 55T381 0H339ZM363 627H421L408 565H350L363 627ZM221 627H279L266 565H208L221 627Z" />
<glyph unicode="&#xe5;" glyph-name="null" horiz-adv-x="472" d="M379 236Q354 241 324 244T256 248Q203 248 169 235T116 201T89 159T81 118Q81 76 104 52T178 28Q216 28 248 41T305 75T346 122T367 174L379 236ZM339 0Q340 10 341 17T343 33T347 52T351 77Q309
28 266 8T169 -12Q144 -12 121 -5T79 18T49 56T37 110Q37 146 52 178T96 234T167 271T263 285Q303 285 334 281T386 273L392 305Q395 321 395 338Q395 379 370 405T282 432Q253 432 232 428T195 416T166 401T141 383L119 413Q142 433 184 452T289 472Q363 472 401
437T440 342Q440 333 439 324T436 304L396 96Q392 76 388 55T381 0H339ZM218 636Q218 657 226 675T247 706T277 726T313 733Q332 733 349 726T380 706T401 676T409 637Q409 616 401 598T380 567T350 547T314 539Q295 539 278 546T247 566T226 597T218 636ZM314
572Q338 572 356 590T374 637Q374 664 357 682T313 700Q287 700 270 682T253 636Q253 609 270 591T314 572Z" />
<glyph unicode="&#xe6;" glyph-name="null" horiz-adv-x="833" d="M385 110Q347 55 296 22T169 -12Q143 -12 119 -6T77 15T48 51T37 105Q37 178 94 224T260 271Q300 271 331 267T383 259L392 305Q395 321 395 338Q395 379 370 405T282 432Q253 432 232 428T195
416T166 401T141 383L119 413Q142 433 184 452T289 472Q352 472 389 445T436 372Q471 416 520 444T633 472Q657 472 687 465T743 437T787 383T805 294Q805 277 804 259T797 219H421Q420 212 420 206V194Q420 114 462 72T569 29Q629 29 666 46T734 96L762 67Q723
29 678 9T562 -12Q496 -12 451 21T385 110ZM376 222Q351 227 321 230T253 234Q200 234 167 222T114 192T88 152T81 113Q81 69 103 49T178 28Q216 28 248 41T305 75T346 122T367 174L376 222ZM628 431Q590 431 558 418T499 381T455 326T427 258H760Q763 279 763
297Q763 337 751 363T718 404T674 425T628 431Z" />
<glyph unicode="&#xe7;" glyph-name="null" horiz-adv-x="475" d="M440 350Q421 392 390 411T311 431Q265 431 227 411T160 358T116 282T100 194Q100 154 111 124T143 72T189 40T245 29Q299 29 336 46T403 96L431 67Q394 29 350 9T238 -12Q200 -12 167 1T109 40T69
102T54 186Q54 241 73 293T128 384T211 448T318 472Q375 472 416 444T476 368L440 350ZM114 -165Q126 -171 143 -176T184 -182Q221 -182 243 -167T266 -126Q266 -90 211 -90Q192 -90 176 -93T137 -105L148 -71Q163 -66 182 -61T230 -56Q270 -56 288 -77T307 -122Q307
-145 297 -163T270 -193T230 -211T182 -217Q156 -217 136 -211T101 -197L114 -165Z" />
<glyph unicode="&#xe8;" glyph-name="null" horiz-adv-x="513" d="M101 219Q100 212 100 206V194Q100 114 142 72T249 29Q309 29 346 46T414 96L442 67Q403 29 358 9T242 -12Q202 -12 168 1T109 40T69 102T54 186Q54 241 73 293T126 384T207 448T313 472Q337 472
367 465T423 437T467 383T485 294Q485 277 484 259T477 219H101ZM308 431Q270 431 238 418T179 381T135 326T107 258H440Q443 279 443 297Q443 337 431 363T398 404T354 425T308 431ZM269 670H321L353 542H315L269 670Z" />
<glyph unicode="&#xe9;" glyph-name="null" horiz-adv-x="513" d="M101 219Q100 212 100 206V194Q100 114 142 72T249 29Q309 29 346 46T414 96L442 67Q403 29 358 9T242 -12Q202 -12 168 1T109 40T69 102T54 186Q54 241 73 293T126 384T207 448T313 472Q337 472
367 465T423 437T467 383T485 294Q485 277 484 259T477 219H101ZM308 431Q270 431 238 418T179 381T135 326T107 258H440Q443 279 443 297Q443 337 431 363T398 404T354 425T308 431ZM366 667H420L331 539H289L366 667Z" />
<glyph unicode="&#xea;" glyph-name="null" horiz-adv-x="513" d="M101 219Q100 212 100 206V194Q100 114 142 72T249 29Q309 29 346 46T414 96L442 67Q403 29 358 9T242 -12Q202 -12 168 1T109 40T69 102T54 186Q54 241 73 293T126 384T207 448T313 472Q337 472
367 465T423 437T467 383T485 294Q485 277 484 259T477 219H101ZM308 431Q270 431 238 418T179 381T135 326T107 258H440Q443 279 443 297Q443 337 431 363T398 404T354 425T308 431ZM320 667H362L425 539H380L336 633L253 539H207L320 667Z" />
<glyph unicode="&#xeb;" glyph-name="null" horiz-adv-x="513" d="M101 219Q100 212 100 206V194Q100 114 142 72T249 29Q309 29 346 46T414 96L442 67Q403 29 358 9T242 -12Q202 -12 168 1T109 40T69 102T54 186Q54 241 73 293T126 384T207 448T313 472Q337 472
367 465T423 437T467 383T485 294Q485 277 484 259T477 219H101ZM308 431Q270 431 238 418T179 381T135 326T107 258H440Q443 279 443 297Q443 337 431 363T398 404T354 425T308 431ZM380 627H438L425 565H367L380 627ZM238 627H296L283 565H225L238 627Z" />
<glyph unicode="&#xec;" glyph-name="null" horiz-adv-x="180" d="M127 460H171L82 0H38L127 460ZM361 670H413L445 542H407L361 670Z" />
<glyph unicode="&#xed;" glyph-name="null" horiz-adv-x="180" d="M127 460H171L82 0H38L127 460ZM210 667H264L175 539H133L210 667Z" />
<glyph unicode="&#xee;" glyph-name="null" horiz-adv-x="180" d="M127 460H171L82 0H38L127 460ZM415 667H457L520 539H475L431 633L348 539H302L415 667Z" />
<glyph unicode="&#xef;" glyph-name="null" horiz-adv-x="180" d="M127 460H171L82 0H38L127 460ZM472 627H530L517 565H459L472 627ZM330 627H388L375 565H317L330 627Z" />
<glyph unicode="&#xf0;" glyph-name="null" horiz-adv-x="540" d="M397 629Q459 588 493 521T528 369Q528 273 503 201T437 81T346 9T244 -15Q205 -15 170 -4T109 30T66 85T50 160Q50 214 69 265T124 357T209 421T321 446Q348 446 373 441T419 427T456 409T483
390Q478 459 449 512T368 598L292 519L267 543L336 615Q291 635 239 641L250 679Q282 675 311 668T366 647L437 721L462 697L397 629ZM482 339Q474 348 459 360T423 382T374 399T313 406Q272 406 233 389T164 340T116 266T97 173Q97 107 136 67T246 27Q288 27 330
48T405 110T459 209T482 339Z" />
<glyph unicode="&#xf1;" glyph-name="null" horiz-adv-x="513" d="M108 363Q112 382 114 395T119 419T122 439T125 460H166Q165 449 164 440T161 421T156 397T149 364Q165 384 184 403T226 438T277 462T340 472Q413 472 445 432T477 328Q477 297 471 264L420 0H376L425
255Q429 275 430 292T432 324Q432 380 408 405T333 431Q293 431 259 414T197 370T153 307T128 237L82 0H38L108 363ZM352 614Q363 606 374 601T401 596Q417 596 433 602T472 629L492 603Q471 581 445 569T392 557Q370 557 354 565T323 584Q301 600 274 600Q258
600 242 594T203 567L183 593Q204 615 230 627T283 639Q307 639 322 631T352 614Z" />
<glyph unicode="&#xf2;" glyph-name="null" horiz-adv-x="543" d="M243 -12Q204 -12 170 1T110 40T69 102T54 186Q54 240 73 291T127 383T214 447T328 472Q367 472 401 459T461 420T502 357T517 274Q517 220 499 169T445 77T358 13T243 -12ZM321 431Q270 431 229
411T160 358T116 282T100 194Q100 114 142 72T250 29Q300 29 341 49T411 102T455 178T471 266Q471 346 431 388T321 431ZM281 670H333L365 542H327L281 670Z" />
<glyph unicode="&#xf3;" glyph-name="null" horiz-adv-x="543" d="M243 -12Q204 -12 170 1T110 40T69 102T54 186Q54 240 73 291T127 383T214 447T328 472Q367 472 401 459T461 420T502 357T517 274Q517 220 499 169T445 77T358 13T243 -12ZM321 431Q270 431 229
411T160 358T116 282T100 194Q100 114 142 72T250 29Q300 29 341 49T411 102T455 178T471 266Q471 346 431 388T321 431ZM391 667H445L356 539H314L391 667Z" />
<glyph unicode="&#xf4;" glyph-name="null" horiz-adv-x="543" d="M243 -12Q204 -12 170 1T110 40T69 102T54 186Q54 240 73 291T127 383T214 447T328 472Q367 472 401 459T461 420T502 357T517 274Q517 220 499 169T445 77T358 13T243 -12ZM321 431Q270 431 229
411T160 358T116 282T100 194Q100 114 142 72T250 29Q300 29 341 49T411 102T455 178T471 266Q471 346 431 388T321 431ZM341 667H383L446 539H401L357 633L274 539H228L341 667Z" />
<glyph unicode="&#xf5;" glyph-name="null" horiz-adv-x="543" d="M243 -12Q204 -12 170 1T110 40T69 102T54 186Q54 240 73 291T127 383T214 447T328 472Q367 472 401 459T461 420T502 357T517 274Q517 220 499 169T445 77T358 13T243 -12ZM321 431Q270 431 229
411T160 358T116 282T100 194Q100 114 142 72T250 29Q300 29 341 49T411 102T455 178T471 266Q471 346 431 388T321 431ZM364 614Q375 606 386 601T413 596Q429 596 445 602T484 629L504 603Q483 581 457 569T404 557Q382 557 366 565T335 584Q313 600 286 600Q270
600 254 594T215 567L195 593Q216 615 242 627T295 639Q319 639 334 631T364 614Z" />
<glyph unicode="&#xf6;" glyph-name="null" horiz-adv-x="543" d="M243 -12Q204 -12 170 1T110 40T69 102T54 186Q54 240 73 291T127 383T214 447T328 472Q367 472 401 459T461 420T502 357T517 274Q517 220 499 169T445 77T358 13T243 -12ZM321 431Q270 431 229
411T160 358T116 282T100 194Q100 114 142 72T250 29Q300 29 341 49T411 102T455 178T471 266Q471 346 431 388T321 431ZM398 627H456L443 565H385L398 627ZM256 627H314L301 565H243L256 627Z" />
<glyph unicode="&#xf7;" glyph-name="null" horiz-adv-x="545" d="M292 500H351L339 440H280L292 500ZM235 199H294L283 139H224L235 199ZM98 341H483L474 298H89L98 341Z" />
<glyph unicode="&#xf8;" glyph-name="null" horiz-adv-x="543" d="M467 412Q490 387 503 353T517 274Q517 220 499 169T445 77T358 13T243 -12Q179 -12 130 23L70 -47L41 -25L103 47Q80 72 67 107T54 186Q54 240 73 291T127 383T214 447T328 472Q360 472 388 463T440
436L503 509L532 487L467 412ZM321 431Q270 431 229 411T160 358T116 282T100 194Q100 125 133 81L412 404Q376 431 321 431ZM471 266Q471 336 438 378L159 56Q196 29 250 29Q300 29 341 49T411 102T455 178T471 266Z" />
<glyph unicode="&#xf9;" glyph-name="null" horiz-adv-x="507" d="M428 97Q424 78 422 65T417 41T414 21T411 0H370Q371 11 372 19T375 38T379 61T386 93Q370 73 353 54T313 21T264 -3T203 -12Q128 -12 96 28T63 132Q63 147 65 163T70 196L121 460H165L116 205Q112
185 110 168T108 135Q108 80 133 55T210 29Q251 29 284 46T343 92T384 154T408 223L454 460H498L428 97ZM266 670H318L350 542H312L266 670Z" />
<glyph unicode="&#xfa;" glyph-name="null" horiz-adv-x="507" d="M428 97Q424 78 422 65T417 41T414 21T411 0H370Q371 11 372 19T375 38T379 61T386 93Q370 73 353 54T313 21T264 -3T203 -12Q128 -12 96 28T63 132Q63 147 65 163T70 196L121 460H165L116 205Q112
185 110 168T108 135Q108 80 133 55T210 29Q251 29 284 46T343 92T384 154T408 223L454 460H498L428 97ZM358 667H412L323 539H281L358 667Z" />
<glyph unicode="&#xfb;" glyph-name="null" horiz-adv-x="507" d="M428 97Q424 78 422 65T417 41T414 21T411 0H370Q371 11 372 19T375 38T379 61T386 93Q370 73 353 54T313 21T264 -3T203 -12Q128 -12 96 28T63 132Q63 147 65 163T70 196L121 460H165L116 205Q112
185 110 168T108 135Q108 80 133 55T210 29Q251 29 284 46T343 92T384 154T408 223L454 460H498L428 97ZM322 667H364L427 539H382L338 633L255 539H209L322 667Z" />
<glyph unicode="&#xfc;" glyph-name="null" horiz-adv-x="507" d="M428 97Q424 78 422 65T417 41T414 21T411 0H370Q371 11 372 19T375 38T379 61T386 93Q370 73 353 54T313 21T264 -3T203 -12Q128 -12 96 28T63 132Q63 147 65 163T70 196L121 460H165L116 205Q112
185 110 168T108 135Q108 80 133 55T210 29Q251 29 284 46T343 92T384 154T408 223L454 460H498L428 97ZM373 627H431L418 565H360L373 627ZM231 627H289L276 565H218L231 627Z" />
<glyph unicode="&#xfd;" glyph-name="null" horiz-adv-x="444" d="M36 -174Q64 -174 82 -156T121 -100L180 4L69 460H116L210 55L443 460H490L154 -117Q145 -132 134 -149T109 -180T78 -203T39 -212Q12 -212 -7 -205T-42 -181L-18 -152Q-9 -161 5 -167T36 -174ZM320
667H374L285 539H243L320 667Z" />
<glyph unicode="&#xfe;" glyph-name="null" horiz-adv-x="516" d="M166 667H210L153 374Q168 394 186 412T226 443T276 464T338 472Q377 472 406 458T454 420T483 363T493 293Q493 222 471 166T412 70T324 9T216 -12Q164 -12 135 3T87 32L42 -200H-1L166 667ZM96
79Q116 59 146 44T224 29Q265 29 305 45T376 93T427 174T447 288Q447 317 441 343T420 388T383 419T325 431Q284 431 251 414T192 369T150 306T126 233L96 79Z" />
<glyph unicode="&#xff;" glyph-name="null" horiz-adv-x="444" d="M36 -174Q64 -174 82 -156T121 -100L180 4L69 460H116L210 55L443 460H490L154 -117Q145 -132 134 -149T109 -180T78 -203T39 -212Q12 -212 -7 -205T-42 -181L-18 -152Q-9 -161 5 -167T36 -174ZM344
627H402L389 565H331L344 627ZM202 627H260L247 565H189L202 627Z" />
<glyph unicode="&#x100;" glyph-name="null" horiz-adv-x="604" d="M380 667H424L557 0H507L465 216H164L40 0H-11L380 667ZM457 260L390 608L190 260H457ZM265 813H568L560 772H257L265 813Z" />
<glyph unicode="&#x101;" glyph-name="null" horiz-adv-x="472" d="M379 236Q354 241 324 244T256 248Q203 248 169 235T116 201T89 159T81 118Q81 76 104 52T178 28Q216 28 248 41T305 75T346 122T367 174L379 236ZM339 0Q340 10 341 17T343 33T347 52T351 77Q309
28 266 8T169 -12Q144 -12 121 -5T79 18T49 56T37 110Q37 146 52 178T96 234T167 271T263 285Q303 285 334 281T386 273L392 305Q395 321 395 338Q395 379 370 405T282 432Q253 432 232 428T195 416T166 401T141 383L119 413Q142 433 184 452T289 472Q363 472 401
437T440 342Q440 333 439 324T436 304L396 96Q392 76 388 55T381 0H339ZM201 618H424L416 577H193L201 618Z" />
<glyph unicode="&#x102;" glyph-name="null" horiz-adv-x="604" d="M380 667H424L557 0H507L465 216H164L40 0H-11L380 667ZM457 260L390 608L190 260H457ZM343 841Q343 805 363 789T411 773Q443 773 470 786T513 841H554Q547 814 533 794T499 761T457 742T411
735Q391 735 372 740T337 758T313 790T303 841H343Z" />
<glyph unicode="&#x103;" glyph-name="null" horiz-adv-x="472" d="M379 236Q354 241 324 244T256 248Q203 248 169 235T116 201T89 159T81 118Q81 76 104 52T178 28Q216 28 248 41T305 75T346 122T367 174L379 236ZM339 0Q340 10 341 17T343 33T347 52T351 77Q309
28 266 8T169 -12Q144 -12 121 -5T79 18T49 56T37 110Q37 146 52 178T96 234T167 271T263 285Q303 285 334 281T386 273L392 305Q395 321 395 338Q395 379 370 405T282 432Q253 432 232 428T195 416T166 401T141 383L119 413Q142 433 184 452T289 472Q363 472 401
437T440 342Q440 333 439 324T436 304L396 96Q392 76 388 55T381 0H339ZM245 648V642Q245 612 260 595T306 578Q338 578 361 594T394 648H429Q426 627 416 608T391 574T354 551T305 542Q254 542 231 569T208 631V639Q208 643 209 648H245Z" />
<glyph unicode="&#x104;" glyph-name="null" horiz-adv-x="604" d="M581 -171Q565 -185 538 -194T483 -204Q454 -204 433 -190T411 -138Q411 -105 437 -69T507 0L465 216H164L40 0H-11L380 667H424L557 0Q536 -14 518 -30T486 -63T465 -97T457 -129Q457 -148 467
-155T493 -163Q518 -163 535 -156T564 -140L581 -171ZM457 260L390 608L190 260H457Z" />
<glyph unicode="&#x105;" glyph-name="null" horiz-adv-x="472" d="M410 -172Q365 -203 314 -203Q282 -203 264 -185T245 -139Q245 -120 253 -102T274 -65T304 -31T339 0Q340 10 341 17T343 33T347 52T351 77Q309 28 266 8T169 -12Q144 -12 121 -5T79 18T49 56T37
110Q37 146 52 178T96 234T167 271T263 285Q303 285 334 281T386 273L392 305Q395 321 395 338Q395 379 370 405T282 432Q253 432 232 428T195 416T166 401T141 383L119 413Q142 433 184 452T289 472Q363 472 401 437T440 342Q440 333 439 324T436 304L396 96Q392
76 388 55T381 0Q340 -35 315 -66T289 -130Q289 -143 297 -152T328 -162Q347 -162 361 -157T395 -140L410 -172ZM379 236Q354 241 324 244T256 248Q203 248 169 235T116 201T89 159T81 118Q81 76 104 52T178 28Q216 28 248 41T305 75T346 122T367 174L379 236Z"
/>
<glyph unicode="&#x106;" glyph-name="null" horiz-adv-x="645" d="M633 527Q603 590 557 614T446 639Q381 639 325 612T226 535T159 419T134 271Q134 220 149 176T193 99T260 47T349 28Q424 28 476 58T566 136L600 107Q555 53 494 19T345 -16Q289 -16 242 5T159
63T104 152T84 263Q84 354 113 431T191 564T308 651T451 683Q526 683 584 649T672 547L633 527ZM517 866H579L466 725H422L517 866Z" />
<glyph unicode="&#x107;" glyph-name="null" horiz-adv-x="475" d="M440 350Q421 392 390 411T311 431Q265 431 227 411T160 358T116 282T100 194Q100 154 111 124T143 72T189 40T245 29Q299 29 336 46T403 96L431 67Q394 29 350 9T238 -12Q200 -12 167 1T109
40T69 102T54 186Q54 241 73 293T128 384T211 448T318 472Q375 472 416 444T476 368L440 350ZM378 667H432L343 539H301L378 667Z" />
<glyph unicode="&#x108;" glyph-name="null" horiz-adv-x="645" d="M633 527Q603 590 557 614T446 639Q381 639 325 612T226 535T159 419T134 271Q134 220 149 176T193 99T260 47T349 28Q424 28 476 58T566 136L600 107Q555 53 494 19T345 -16Q289 -16 242 5T159
63T104 152T84 263Q84 354 113 431T191 564T308 651T451 683Q526 683 584 649T672 547L633 527ZM463 866H514L594 725H545L482 833L374 725H322L463 866Z" />
<glyph unicode="&#x109;" glyph-name="null" horiz-adv-x="475" d="M440 350Q421 392 390 411T311 431Q265 431 227 411T160 358T116 282T100 194Q100 154 111 124T143 72T189 40T245 29Q299 29 336 46T403 96L431 67Q394 29 350 9T238 -12Q200 -12 167 1T109
40T69 102T54 186Q54 241 73 293T128 384T211 448T318 472Q375 472 416 444T476 368L440 350ZM331 667H373L436 539H391L347 633L264 539H218L331 667Z" />
<glyph unicode="&#x10a;" glyph-name="null" horiz-adv-x="645" d="M633 527Q603 590 557 614T446 639Q381 639 325 612T226 535T159 419T134 271Q134 220 149 176T193 99T260 47T349 28Q424 28 476 58T566 136L600 107Q555 53 494 19T345 -16Q289 -16 242 5T159
63T104 152T84 263Q84 354 113 431T191 564T308 651T451 683Q526 683 584 649T672 547L633 527ZM444 830H513L499 760H430L444 830Z" />
<glyph unicode="&#x10b;" glyph-name="null" horiz-adv-x="475" d="M440 350Q421 392 390 411T311 431Q265 431 227 411T160 358T116 282T100 194Q100 154 111 124T143 72T189 40T245 29Q299 29 336 46T403 96L431 67Q394 29 350 9T238 -12Q200 -12 167 1T109
40T69 102T54 186Q54 241 73 293T128 384T211 448T318 472Q375 472 416 444T476 368L440 350ZM313 629H374L361 564H300L313 629Z" />
<glyph unicode="&#x10c;" glyph-name="null" horiz-adv-x="645" d="M633 527Q603 590 557 614T446 639Q381 639 325 612T226 535T159 419T134 271Q134 220 149 176T193 99T260 47T349 28Q424 28 476 58T566 136L600 107Q555 53 494 19T345 -16Q289 -16 242 5T159
63T104 152T84 263Q84 354 113 431T191 564T308 651T451 683Q526 683 584 649T672 547L633 527ZM484 725H433L353 866H401L464 758L571 866H625L484 725Z" />
<glyph unicode="&#x10d;" glyph-name="null" horiz-adv-x="475" d="M440 350Q421 392 390 411T311 431Q265 431 227 411T160 358T116 282T100 194Q100 154 111 124T143 72T189 40T245 29Q299 29 336 46T403 96L431 67Q394 29 350 9T238 -12Q200 -12 167 1T109
40T69 102T54 186Q54 241 73 293T128 384T211 448T318 472Q375 472 416 444T476 368L440 350ZM347 539H305L242 667H286L331 573L413 667H460L347 539Z" />
<glyph unicode="&#x10e;" glyph-name="null" horiz-adv-x="669" d="M283 44Q352 44 412 69T515 140T584 251T609 396Q609 500 553 561T389 623H220L108 44H283ZM53 0L182 667H394Q451 667 499 649T583 596T638 513T658 404Q658 313 630 239T550 111T429 29T277
0H53ZM409 725H358L278 866H326L389 758L496 866H550L409 725Z" />
<glyph unicode="&#x10f;" glyph-name="null" horiz-adv-x="580" d="M436 97Q432 78 430 65T425 41T422 21T419 0H378Q380 11 381 18T383 32T386 50T391 77Q377 60 360 45T319 16T269 -4T208 -12Q168 -12 139 2T90 40T61 96T51 167Q51 237 74 293T135 390T223 451T323
472Q375 472 407 457T457 427L504 667H547L436 97ZM448 382Q428 402 396 416T315 431Q278 431 240 415T170 367T118 286T97 172Q97 143 103 117T123 72T162 41T221 29Q254 29 285 41T342 74T385 122T409 181L448 382ZM619 667H665L620 489H585L619 667Z" />
<glyph unicode="&#x110;" glyph-name="null" horiz-adv-x="669" d="M53 0L115 324H51L59 365H123L182 667H394Q451 667 499 649T583 596T638 513T658 404Q658 313 630 239T550 111T429 29T277 0H53ZM283 44Q352 44 412 69T515 140T584 251T609 396Q609 500 553
561T389 623H220L170 365H365L357 324H162L108 44H283Z" />
<glyph unicode="&#x111;" glyph-name="null" horiz-adv-x="516" d="M487 580L504 667H547L530 580H607L599 541H522L436 97Q432 78 430 65T425 41T422 21T419 0H378Q380 11 381 18T383 32T386 50T391 77Q377 60 360 45T319 16T269 -4T208 -12Q168 -12 139 2T90
40T61 96T51 167Q51 237 74 293T135 390T223 451T323 472Q375 472 407 457T457 427L479 541H308L316 580H487ZM448 382Q428 402 396 416T315 431Q278 431 240 415T170 367T118 286T97 172Q97 143 103 117T123 72T162 41T221 29Q254 29 285 41T342 74T385 122T409
181L448 382Z" />
<glyph unicode="&#x112;" glyph-name="null" horiz-adv-x="535" d="M182 667H566L557 623H220L171 370H434L426 326H163L108 44H470L462 0H53L182 667ZM240 813H543L535 772H232L240 813Z" />
<glyph unicode="&#x113;" glyph-name="null" horiz-adv-x="513" d="M101 219Q100 212 100 206V194Q100 114 142 72T249 29Q309 29 346 46T414 96L442 67Q403 29 358 9T242 -12Q202 -12 168 1T109 40T69 102T54 186Q54 241 73 293T126 384T207 448T313 472Q337
472 367 465T423 437T467 383T485 294Q485 277 484 259T477 219H101ZM308 431Q270 431 238 418T179 381T135 326T107 258H440Q443 279 443 297Q443 337 431 363T398 404T354 425T308 431ZM220 618H443L435 577H212L220 618Z" />
<glyph unicode="&#x114;" glyph-name="null" horiz-adv-x="535" d="M182 667H566L557 623H220L171 370H434L426 326H163L108 44H470L462 0H53L182 667ZM312 841Q312 805 332 789T380 773Q412 773 439 786T482 841H523Q516 814 502 794T468 761T426 742T380 735Q360
735 341 740T306 758T282 790T272 841H312Z" />
<glyph unicode="&#x115;" glyph-name="null" horiz-adv-x="513" d="M101 219Q100 212 100 206V194Q100 114 142 72T249 29Q309 29 346 46T414 96L442 67Q403 29 358 9T242 -12Q202 -12 168 1T109 40T69 102T54 186Q54 241 73 293T126 384T207 448T313 472Q337
472 367 465T423 437T467 383T485 294Q485 277 484 259T477 219H101ZM308 431Q270 431 238 418T179 381T135 326T107 258H440Q443 279 443 297Q443 337 431 363T398 404T354 425T308 431ZM263 648V642Q263 612 278 595T324 578Q356 578 379 594T412 648H447Q444
627 434 608T409 574T372 551T323 542Q272 542 249 569T226 631V639Q226 643 227 648H263Z" />
<glyph unicode="&#x116;" glyph-name="null" horiz-adv-x="535" d="M182 667H566L557 623H220L171 370H434L426 326H163L108 44H470L462 0H53L182 667ZM372 830H441L427 760H358L372 830Z" />
<glyph unicode="&#x117;" glyph-name="null" horiz-adv-x="513" d="M101 219Q100 212 100 206V194Q100 114 142 72T249 29Q309 29 346 46T414 96L442 67Q403 29 358 9T242 -12Q202 -12 168 1T109 40T69 102T54 186Q54 241 73 293T126 384T207 448T313 472Q337
472 367 465T423 437T467 383T485 294Q485 277 484 259T477 219H101ZM308 431Q270 431 238 418T179 381T135 326T107 258H440Q443 279 443 297Q443 337 431 363T398 404T354 425T308 431ZM303 629H364L351 564H290L303 629Z" />
<glyph unicode="&#x118;" glyph-name="null" horiz-adv-x="535" d="M182 667H566L557 623H220L171 370H434L426 326H163L108 44H470L462 0H409Q364 -33 338 -67T312 -129Q312 -148 322 -155T348 -163Q373 -163 390 -156T419 -140L436 -171Q420 -185 393 -194T338
-204Q309 -204 288 -190T266 -138Q266 -105 292 -69T362 0H53L182 667Z" />
<glyph unicode="&#x119;" glyph-name="null" horiz-adv-x="513" d="M348 -172Q303 -203 252 -203Q220 -203 202 -185T183 -139Q183 -105 207 -72T263 -11Q258 -12 252 -12H242Q202 -12 168 1T109 40T69 102T54 186Q54 241 73 293T126 384T207 448T313 472Q337
472 367 465T423 437T467 383T485 294Q485 277 484 259T477 219H101Q100 212 100 206V194Q100 114 142 72T249 29Q309 29 346 46T414 96L442 67Q413 40 383 22T313 -5Q275 -38 251 -68T227 -130Q227 -143 235 -152T266 -162Q285 -162 299 -157T333 -140L348 -172ZM308
431Q270 431 238 418T179 381T135 326T107 258H440Q443 279 443 297Q443 337 431 363T398 404T354 425T308 431Z" />
<glyph unicode="&#x11a;" glyph-name="null" horiz-adv-x="535" d="M182 667H566L557 623H220L171 370H434L426 326H163L108 44H470L462 0H53L182 667ZM405 725H354L274 866H322L385 758L492 866H546L405 725Z" />
<glyph unicode="&#x11b;" glyph-name="null" horiz-adv-x="513" d="M101 219Q100 212 100 206V194Q100 114 142 72T249 29Q309 29 346 46T414 96L442 67Q403 29 358 9T242 -12Q202 -12 168 1T109 40T69 102T54 186Q54 241 73 293T126 384T207 448T313 472Q337
472 367 465T423 437T467 383T485 294Q485 277 484 259T477 219H101ZM308 431Q270 431 238 418T179 381T135 326T107 258H440Q443 279 443 297Q443 337 431 363T398 404T354 425T308 431ZM340 539H298L235 667H279L324 573L406 667H453L340 539Z" />
<glyph unicode="&#x11c;" glyph-name="null" horiz-adv-x="688" d="M633 526Q604 586 558 612T446 639Q381 639 325 612T226 535T159 419T134 271Q134 220 149 176T193 99T260 47T349 28Q412 28 462 45T551 95L585 272H416L425 316H642L595 77Q545 33 487 9T345
-16Q289 -16 242 5T159 63T104 152T84 263Q84 354 113 431T191 564T308 651T451 683Q526 683 584 649T672 547L633 526ZM461 866H512L592 725H543L480 833L372 725H320L461 866Z" />
<glyph unicode="&#x11d;" glyph-name="null" horiz-adv-x="513" d="M417 1Q397 -102 342 -157T186 -212Q135 -212 96 -199T23 -160L48 -126Q80 -151 111 -160T186 -170Q234 -170 266 -157T320 -121T354 -65T375 7L388 76Q374 59 357 44T318 16T268 -4T208 -12Q168
-12 139 2T90 40T61 96T51 167Q51 237 76 293T142 390T235 451T343 472Q431 472 502 435L417 1ZM453 409Q437 416 424 420T397 427T368 430T335 431Q294 431 252 415T176 367T119 286T97 172Q97 143 103 117T123 72T162 41T221 29Q254 29 285 41T342 74T385 122T409
181L453 409ZM342 667H384L447 539H402L358 633L275 539H229L342 667Z" />
<glyph unicode="&#x11e;" glyph-name="null" horiz-adv-x="688" d="M633 526Q604 586 558 612T446 639Q381 639 325 612T226 535T159 419T134 271Q134 220 149 176T193 99T260 47T349 28Q412 28 462 45T551 95L585 272H416L425 316H642L595 77Q545 33 487 9T345
-16Q289 -16 242 5T159 63T104 152T84 263Q84 354 113 431T191 564T308 651T451 683Q526 683 584 649T672 547L633 526ZM393 841Q393 805 413 789T461 773Q493 773 520 786T563 841H604Q597 814 583 794T549 761T507 742T461 735Q441 735 422 740T387 758T363 790T353
841H393Z" />
<glyph unicode="&#x11f;" glyph-name="null" horiz-adv-x="513" d="M417 1Q397 -102 342 -157T186 -212Q135 -212 96 -199T23 -160L48 -126Q80 -151 111 -160T186 -170Q234 -170 266 -157T320 -121T354 -65T375 7L388 76Q374 59 357 44T318 16T268 -4T208 -12Q168
-12 139 2T90 40T61 96T51 167Q51 237 76 293T142 390T235 451T343 472Q431 472 502 435L417 1ZM453 409Q437 416 424 420T397 427T368 430T335 431Q294 431 252 415T176 367T119 286T97 172Q97 143 103 117T123 72T162 41T221 29Q254 29 285 41T342 74T385 122T409
181L453 409ZM287 648V642Q287 612 302 595T348 578Q380 578 403 594T436 648H471Q468 627 458 608T433 574T396 551T347 542Q296 542 273 569T250 631V639Q250 643 251 648H287Z" />
<glyph unicode="&#x120;" glyph-name="null" horiz-adv-x="688" d="M633 526Q604 586 558 612T446 639Q381 639 325 612T226 535T159 419T134 271Q134 220 149 176T193 99T260 47T349 28Q412 28 462 45T551 95L585 272H416L425 316H642L595 77Q545 33 487 9T345
-16Q289 -16 242 5T159 63T104 152T84 263Q84 354 113 431T191 564T308 651T451 683Q526 683 584 649T672 547L633 526ZM448 830H517L503 760H434L448 830Z" />
<glyph unicode="&#x121;" glyph-name="null" horiz-adv-x="513" d="M417 1Q397 -102 342 -157T186 -212Q135 -212 96 -199T23 -160L48 -126Q80 -151 111 -160T186 -170Q234 -170 266 -157T320 -121T354 -65T375 7L388 76Q374 59 357 44T318 16T268 -4T208 -12Q168
-12 139 2T90 40T61 96T51 167Q51 237 76 293T142 390T235 451T343 472Q431 472 502 435L417 1ZM453 409Q437 416 424 420T397 427T368 430T335 431Q294 431 252 415T176 367T119 286T97 172Q97 143 103 117T123 72T162 41T221 29Q254 29 285 41T342 74T385 122T409
181L453 409ZM332 629H393L380 564H319L332 629Z" />
<glyph unicode="&#x122;" glyph-name="null" horiz-adv-x="688" d="M633 526Q604 586 558 612T446 639Q381 639 325 612T226 535T159 419T134 271Q134 220 149 176T193 99T260 47T349 28Q412 28 462 45T551 95L585 272H416L425 316H642L595 77Q545 33 487 9T345
-16Q289 -16 242 5T159 63T104 152T84 263Q84 354 113 431T191 564T308 651T451 683Q526 683 584 649T672 547L633 526ZM309 -64H365L270 -202H227L309 -64Z" />
<glyph unicode="&#x123;" glyph-name="null" horiz-adv-x="513" d="M417 1Q397 -102 342 -157T186 -212Q135 -212 96 -199T23 -160L48 -126Q80 -151 111 -160T186 -170Q234 -170 266 -157T320 -121T354 -65T375 7L388 76Q374 59 357 44T318 16T268 -4T208 -12Q168
-12 139 2T90 40T61 96T51 167Q51 237 76 293T142 390T235 451T343 472Q431 472 502 435L417 1ZM453 409Q437 416 424 420T397 427T368 430T335 431Q294 431 252 415T176 367T119 286T97 172Q97 143 103 117T123 72T162 41T221 29Q254 29 285 41T342 74T385 122T409
181L453 409ZM363 539H310L399 667H440L363 539Z" />
<glyph unicode="&#x124;" glyph-name="null" horiz-adv-x="660" d="M182 667H229L171 370H572L630 667H677L548 0H501L564 326H163L100 0H53L182 667ZM435 866H486L566 725H517L454 833L346 725H294L435 866Z" />
<glyph unicode="&#x125;" glyph-name="null" horiz-adv-x="511" d="M165 667H209L151 369Q167 389 185 407T226 440T276 463T338 472Q411 472 443 432T475 328Q475 297 469 264L418 0H374L423 255Q427 275 428 292T430 324Q430 380 406 405T331 431Q291 431 257
414T195 370T151 307T126 237L80 0H36L165 667ZM315 866H366L446 725H397L334 833L226 725H174L315 866Z" />
<glyph unicode="&#x126;" glyph-name="null" horiz-adv-x="660" d="M150 502H73L81 542H158L182 667H229L205 542H606L630 667H677L653 542H729L721 502H645L548 0H501L564 326H163L100 0H53L150 502ZM572 370L598 502H197L171 370H572Z" />
<glyph unicode="&#x127;" glyph-name="null" horiz-adv-x="511" d="M148 580L165 667H209L192 580H363L355 540H184L151 369Q167 389 185 407T226 440T276 463T338 472Q411 472 443 432T475 328Q475 297 469 264L418 0H374L423 255Q427 275 428 292T430 324Q430
380 406 405T331 431Q291 431 257 414T195 370T151 307T126 237L80 0H36L140 540H64L72 580H148Z" />
<glyph unicode="&#x128;" glyph-name="null" horiz-adv-x="211" d="M182 667H229L100 0H53L182 667ZM495 812Q508 804 519 799T547 793Q564 793 581 800T622 828L643 802Q622 779 595 765T538 751Q515 751 497 760T464 780Q441 797 412 797Q395 797 379 790T337
761L317 787Q337 810 365 824T422 838Q445 838 463 830T495 812Z" />
<glyph unicode="&#x129;" glyph-name="null" horiz-adv-x="180" d="M127 460H171L82 0H38L127 460ZM437 614Q448 606 459 601T486 596Q502 596 518 602T557 629L577 603Q556 581 530 569T477 557Q455 557 439 565T408 584Q386 600 359 600Q343 600 327 594T288
567L268 593Q289 615 315 627T368 639Q392 639 407 631T437 614Z" />
<glyph unicode="&#x12a;" glyph-name="null" horiz-adv-x="211" d="M182 667H229L100 0H53L182 667ZM332 813H635L627 772H324L332 813Z" />
<glyph unicode="&#x12b;" glyph-name="null" horiz-adv-x="180" d="M127 460H171L82 0H38L127 460ZM313 618H536L528 577H305L313 618Z" />
<glyph unicode="&#x12c;" glyph-name="null" horiz-adv-x="211" d="M182 667H229L100 0H53L182 667ZM404 841Q404 805 424 789T472 773Q504 773 531 786T574 841H615Q608 814 594 794T560 761T518 742T472 735Q452 735 433 740T398 758T374 790T364 841H404Z" />
<glyph unicode="&#x12d;" glyph-name="null" horiz-adv-x="180" d="M127 460H171L82 0H38L127 460ZM353 648V642Q353 612 368 595T414 578Q446 578 469 594T502 648H537Q534 627 524 608T499 574T462 551T413 542Q362 542 339 569T316 631V639Q316 643 317 648H353Z" />
<glyph unicode="&#x12e;" glyph-name="null" horiz-adv-x="211" d="M127 -171Q111 -185 84 -194T29 -204Q0 -204 -21 -190T-43 -138Q-43 -105 -17 -69T53 0L182 667H229L100 0Q55 -33 29 -67T3 -129Q3 -148 13 -155T39 -163Q64 -163 81 -156T110 -140L127 -171Z" />
<glyph unicode="&#x12f;" glyph-name="null" horiz-adv-x="180" d="M111 -172Q66 -203 15 -203Q-17 -203 -35 -185T-54 -139Q-54 -120 -46 -102T-26 -65T3 -31T38 0L127 460H171L82 0Q41 -35 16 -66T-10 -130Q-10 -143 -2 -152T29 -162Q48 -162 62 -157T96 -140L111
-172ZM150 621H211L199 558H138L150 621Z" />
<glyph unicode="&#x130;" glyph-name="null" horiz-adv-x="211" d="M182 667H229L100 0H53L182 667ZM196 830H265L251 760H182L196 830Z" />
<glyph unicode="&#x131;" glyph-name="null" horiz-adv-x="180" d="M127 460H171L82 0H38L127 460Z" />
<glyph unicode="&#x132;" glyph-name="null" horiz-adv-x="663" d="M182 667H229L100 0H53L182 667ZM254 99Q281 61 313 45T382 28Q420 28 447 36T493 65T524 119T547 201L638 667H685L593 193Q582 136 565 97T523 32T462 -4T379 -16Q332 -16 289 7T220 72L254 99Z" />
<glyph unicode="&#x133;" glyph-name="null" horiz-adv-x="392" d="M150 621H211L199 558H138L150 621ZM127 460H171L82 0H38L127 460ZM85 -134Q101 -150 115 -155T146 -161Q160 -161 173 -158T199 -142T223 -104T243 -34L339 460H383L285 -43Q279 -76 270 -104T245
-154T207 -188T150 -200Q124 -200 100 -191T59 -164L85 -134ZM362 621H423L411 558H350L362 621Z" />
<glyph unicode="&#x134;" glyph-name="null" horiz-adv-x="452" d="M43 99Q70 61 102 45T171 28Q209 28 236 36T282 65T313 119T336 201L427 667H474L382 193Q371 136 354 97T312 32T251 -4T168 -16Q121 -16 78 7T9 72L43 99ZM455 866H506L586 725H537L474 833L366
725H314L455 866Z" />
<glyph unicode="&#x135;" glyph-name="null" horiz-adv-x="180" d="M-127 -134Q-111 -150 -97 -155T-66 -161Q-52 -161 -39 -158T-13 -142T11 -104T31 -34L127 460H171L73 -43Q67 -76 58 -104T33 -154T-5 -188T-62 -200Q-88 -200 -112 -191T-153 -164L-127 -134ZM419
667H461L524 539H479L435 633L352 539H306L419 667Z" />
<glyph unicode="&#x136;" glyph-name="null" horiz-adv-x="546" d="M181 667H228L160 317L542 667H599L304 396L503 0H450L267 364L148 255L99 0H52L181 667ZM229 -64H285L190 -202H147L229 -64Z" />
<glyph unicode="&#x137;" glyph-name="null" horiz-adv-x="436" d="M164 667H208L123 230L395 460H452L250 288L395 0H346L215 260L112 173L79 0H35L164 667ZM169 -64H221L127 -202H87L169 -64Z" />
<glyph unicode="&#x138;" glyph-name="null" horiz-adv-x="456" d="M124 461H167L119 215L415 460H472L240 265L415 0H364L207 239L108 158L78 0H35L124 461Z" />
<glyph unicode="&#x139;" glyph-name="null" horiz-adv-x="518" d="M182 667H229L108 44H470L462 0H53L182 667ZM286 866H348L235 725H191L286 866Z" />
<glyph unicode="&#x13a;" glyph-name="null" horiz-adv-x="176" d="M165 667H209L80 0H36L165 667ZM262 866H324L211 725H167L262 866Z" />
<glyph unicode="&#x13b;" glyph-name="null" horiz-adv-x="518" d="M182 667H229L108 44H470L462 0H53L182 667ZM237 -64H293L198 -202H155L237 -64Z" />
<glyph unicode="&#x13c;" glyph-name="null" horiz-adv-x="176" d="M165 667H209L80 0H36L165 667ZM278 -64H330L236 -202H196L278 -64Z" />
<glyph unicode="&#x13d;" glyph-name="null" horiz-adv-x="518" d="M352 667H401L356 487H318L352 667ZM182 667H229L108 44H470L462 0H53L182 667Z" />
<glyph unicode="&#x13e;" glyph-name="null" horiz-adv-x="243" d="M165 667H209L80 0H36L165 667ZM285 667H331L286 489H251L285 667Z" />
<glyph unicode="&#x13f;" glyph-name="null" horiz-adv-x="518" d="M182 667H229L108 44H470L462 0H53L182 667ZM376 391H445L431 321H362L376 391Z" />
<glyph unicode="&#x140;" glyph-name="null" horiz-adv-x="273" d="M165 667H209L80 0H36L165 667ZM234 395H295L282 330H221L234 395Z" />
<glyph unicode="&#x141;" glyph-name="null" horiz-adv-x="518" d="M108 284L13 228L22 275L117 331L182 667H229L169 360L344 464L335 417L160 312L108 44H470L462 0H53L108 284Z" />
<glyph unicode="&#x142;" glyph-name="null" horiz-adv-x="192" d="M156 344L90 0H46L107 316L32 271L41 317L116 362L175 667H219L165 390L241 436L232 390L156 344Z" />
<glyph unicode="&#x143;" glyph-name="null" horiz-adv-x="669" d="M181 667H229L524 72L640 667H687L558 0H510L213 593L98 0H52L181 667ZM498 866H560L447 725H403L498 866Z" />
<glyph unicode="&#x144;" glyph-name="null" horiz-adv-x="513" d="M108 363Q112 382 114 395T119 419T122 439T125 460H166Q165 449 164 440T161 421T156 397T149 364Q165 384 184 403T226 438T277 462T340 472Q413 472 445 432T477 328Q477 297 471 264L420
0H376L425 255Q429 275 430 292T432 324Q432 380 408 405T333 431Q293 431 259 414T197 370T153 307T128 237L82 0H38L108 363ZM373 667H427L338 539H296L373 667Z" />
<glyph unicode="&#x145;" glyph-name="null" horiz-adv-x="669" d="M181 667H229L524 72L640 667H687L558 0H510L213 593L98 0H52L181 667ZM267 -64H323L228 -202H185L267 -64Z" />
<glyph unicode="&#x146;" glyph-name="null" horiz-adv-x="513" d="M108 363Q112 382 114 395T119 419T122 439T125 460H166Q165 449 164 440T161 421T156 397T149 364Q165 384 184 403T226 438T277 462T340 472Q413 472 445 432T477 328Q477 297 471 264L420
0H376L425 255Q429 275 430 292T432 324Q432 380 408 405T333 431Q293 431 259 414T197 370T153 307T128 237L82 0H38L108 363ZM203 -64H255L161 -202H121L203 -64Z" />
<glyph unicode="&#x147;" glyph-name="null" horiz-adv-x="669" d="M181 667H229L524 72L640 667H687L558 0H510L213 593L98 0H52L181 667ZM460 725H409L329 866H377L440 758L547 866H601L460 725Z" />
<glyph unicode="&#x148;" glyph-name="null" horiz-adv-x="513" d="M108 363Q112 382 114 395T119 419T122 439T125 460H166Q165 449 164 440T161 421T156 397T149 364Q165 384 184 403T226 438T277 462T340 472Q413 472 445 432T477 328Q477 297 471 264L420
0H376L425 255Q429 275 430 292T432 324Q432 380 408 405T333 431Q293 431 259 414T197 370T153 307T128 237L82 0H38L108 363ZM356 539H314L251 667H295L340 573L422 667H469L356 539Z" />
<glyph unicode="&#x149;" glyph-name="null" horiz-adv-x="513" d="M108 363Q112 382 114 395T119 419T122 439T125 460H166Q165 449 164 440T161 421T156 397T149 364Q165 384 184 403T226 438T277 462T340 472Q413 472 445 432T477 328Q477 297 471 264L420
0H376L425 255Q429 275 430 292T432 324Q432 380 408 405T333 431Q293 431 259 414T197 370T153 307T128 237L82 0H38L108 363ZM382 667H431L383 539H349L382 667Z" />
<glyph unicode="&#x14a;" glyph-name="null" horiz-adv-x="669" d="M317 -120Q340 -143 360 -151T399 -160Q446 -160 468 -132T502 -41L510 0L213 593L98 0H52L181 667H229L524 72L640 667H687L548 -51Q534 -125 498 -162T399 -200Q374 -200 347 -190T290 -153L317 -120Z" />
<glyph unicode="&#x14b;" glyph-name="null" horiz-adv-x="513" d="M212 -134Q228 -150 242 -155T273 -161Q286 -161 299 -158T325 -143T349 -105T369 -35L425 255Q429 275 430 292T432 324Q432 380 408 405T333 431Q293 431 259 414T197 370T153 307T128 237L82
0H38L108 363Q112 382 114 395T119 419T122 439T125 460H166Q165 449 164 440T161 421T156 397T149 364Q165 384 184 403T226 438T277 462T340 472Q413 472 445 432T477 328Q477 297 471 264L411 -46Q405 -79 396 -107T371 -156T334 -188T277 -200Q251 -200 227
-191T186 -164L212 -134Z" />
<glyph unicode="&#x14c;" glyph-name="null" horiz-adv-x="743" d="M349 -16Q291 -16 243 5T159 63T104 152T84 263Q84 354 113 431T193 564T313 651T464 683Q521 683 569 662T653 604T708 515T728 404Q728 313 700 236T621 103T501 16T349 -16ZM459 639Q388 639
329 612T226 535T159 419T134 271Q134 220 148 176T190 99T259 47T353 28Q422 28 481 55T584 132T653 248T678 396Q678 448 664 492T622 569T553 620T459 639ZM338 813H641L633 772H330L338 813Z" />
<glyph unicode="&#x14d;" glyph-name="null" horiz-adv-x="543" d="M243 -12Q204 -12 170 1T110 40T69 102T54 186Q54 240 73 291T127 383T214 447T328 472Q367 472 401 459T461 420T502 357T517 274Q517 220 499 169T445 77T358 13T243 -12ZM321 431Q270 431
229 411T160 358T116 282T100 194Q100 114 142 72T250 29Q300 29 341 49T411 102T455 178T471 266Q471 346 431 388T321 431ZM232 618H455L447 577H224L232 618Z" />
<glyph unicode="&#x14e;" glyph-name="null" horiz-adv-x="743" d="M349 -16Q291 -16 243 5T159 63T104 152T84 263Q84 354 113 431T193 564T313 651T464 683Q521 683 569 662T653 604T708 515T728 404Q728 313 700 236T621 103T501 16T349 -16ZM459 639Q388 639
329 612T226 535T159 419T134 271Q134 220 148 176T190 99T259 47T353 28Q422 28 481 55T584 132T653 248T678 396Q678 448 664 492T622 569T553 620T459 639ZM409 841Q409 805 429 789T477 773Q509 773 536 786T579 841H620Q613 814 599 794T565 761T523 742T477
735Q457 735 438 740T403 758T379 790T369 841H409Z" />
<glyph unicode="&#x14f;" glyph-name="null" horiz-adv-x="543" d="M243 -12Q204 -12 170 1T110 40T69 102T54 186Q54 240 73 291T127 383T214 447T328 472Q367 472 401 459T461 420T502 357T517 274Q517 220 499 169T445 77T358 13T243 -12ZM321 431Q270 431
229 411T160 358T116 282T100 194Q100 114 142 72T250 29Q300 29 341 49T411 102T455 178T471 266Q471 346 431 388T321 431ZM282 648V642Q282 612 297 595T343 578Q375 578 398 594T431 648H466Q463 627 453 608T428 574T391 551T342 542Q291 542 268 569T245
631V639Q245 643 246 648H282Z" />
<glyph unicode="&#x150;" glyph-name="null" horiz-adv-x="743" d="M349 -16Q291 -16 243 5T159 63T104 152T84 263Q84 354 113 431T193 564T313 651T464 683Q521 683 569 662T653 604T708 515T728 404Q728 313 700 236T621 103T501 16T349 -16ZM459 639Q388 639
329 612T226 535T159 419T134 271Q134 220 148 176T190 99T259 47T353 28Q422 28 481 55T584 132T653 248T678 396Q678 448 664 492T622 569T553 620T459 639ZM464 866H525L412 725H369L464 866ZM615 866H676L563 725H520L615 866Z" />
<glyph unicode="&#x151;" glyph-name="null" horiz-adv-x="543" d="M243 -12Q204 -12 170 1T110 40T69 102T54 186Q54 240 73 291T127 383T214 447T328 472Q367 472 401 459T461 420T502 357T517 274Q517 220 499 169T445 77T358 13T243 -12ZM321 431Q270 431
229 411T160 358T116 282T100 194Q100 114 142 72T250 29Q300 29 341 49T411 102T455 178T471 266Q471 346 431 388T321 431ZM315 667H367L279 539H238L315 667ZM445 667H497L409 539H368L445 667Z" />
<glyph unicode="&#x152;" glyph-name="null" horiz-adv-x="1091" d="M349 -16Q291 -16 243 5T159 63T104 152T84 263Q84 354 113 431T193 564T313 651T464 683Q513 683 552 670T621 632T672 576T707 504L739 667H1122L1113 623H776L727 370H990L982 326H719L664
44H1026L1018 0H610L635 127Q584 62 514 23T349 -16ZM459 639Q388 639 329 612T226 535T159 419T134 271Q134 220 148 176T190 99T259 47T353 28Q411 28 463 47T556 103T626 189T668 300L671 315Q674 335 676 355T678 396Q678 448 664 492T622 569T553 620T459
639Z" />
<glyph unicode="&#x153;" glyph-name="null" horiz-adv-x="924" d="M243 -12Q204 -12 170 1T110 40T69 102T54 186Q54 240 73 291T127 383T214 447T328 472Q397 472 441 436T505 338Q521 366 542 390T591 433T651 461T724 472Q748 472 778 465T834 437T878 383T896
294Q896 277 895 259T888 219H512Q511 212 511 206V194Q511 114 553 72T660 29Q720 29 757 46T825 96L853 67Q814 29 769 9T653 -12Q581 -12 537 27T474 126Q457 97 436 72T386 29T323 -1T243 -12ZM321 431Q270 431 229 411T160 358T116 282T100 194Q100 114 142
72T250 29Q300 29 341 49T411 102T455 178T471 266Q471 346 431 388T321 431ZM719 431Q681 431 649 418T590 381T546 326T518 258H851Q854 279 854 297Q854 337 842 363T809 404T765 425T719 431Z" />
<glyph unicode="&#x154;" glyph-name="null" horiz-adv-x="572" d="M182 667H361Q413 667 451 655T515 621T552 571T564 511Q564 426 525 373T394 297L490 0H438L344 291Q336 290 329 290H156L100 0H53L182 667ZM325 334Q412 334 463 373T515 505Q515 559 480
591T376 624H220L164 334H325ZM417 866H479L366 725H322L417 866Z" />
<glyph unicode="&#x155;" glyph-name="null" horiz-adv-x="324" d="M108 363Q112 382 114 395T119 419T122 439T125 460H166Q165 449 164 440T161 420T156 396T149 363Q181 411 221 438T315 465Q325 465 339 463T364 456L347 413Q329 421 303 421Q269 421 240
405T188 362T149 302T127 235L82 0H38L108 363ZM296 667H350L261 539H219L296 667Z" />
<glyph unicode="&#x156;" glyph-name="null" horiz-adv-x="572" d="M182 667H361Q413 667 451 655T515 621T552 571T564 511Q564 426 525 373T394 297L490 0H438L344 291Q336 290 329 290H156L100 0H53L182 667ZM325 334Q412 334 463 373T515 505Q515 559 480
591T376 624H220L164 334H325ZM233 -64H289L194 -202H151L233 -64Z" />
<glyph unicode="&#x157;" glyph-name="null" horiz-adv-x="324" d="M108 363Q112 382 114 395T119 419T122 439T125 460H166Q165 449 164 440T161 420T156 396T149 363Q181 411 221 438T315 465Q325 465 339 463T364 456L347 413Q329 421 303 421Q269 421 240
405T188 362T149 302T127 235L82 0H38L108 363ZM279 -64H331L237 -202H197L279 -64Z" />
<glyph unicode="&#x158;" glyph-name="null" horiz-adv-x="572" d="M182 667H361Q413 667 451 655T515 621T552 571T564 511Q564 426 525 373T394 297L490 0H438L344 291Q336 290 329 290H156L100 0H53L182 667ZM325 334Q412 334 463 373T515 505Q515 559 480
591T376 624H220L164 334H325ZM381 725H330L250 866H298L361 758L468 866H522L381 725Z" />
<glyph unicode="&#x159;" glyph-name="null" horiz-adv-x="324" d="M108 363Q112 382 114 395T119 419T122 439T125 460H166Q165 449 164 440T161 420T156 396T149 363Q181 411 221 438T315 465Q325 465 339 463T364 456L347 413Q329 421 303 421Q269 421 240
405T188 362T149 302T127 235L82 0H38L108 363ZM269 539H227L164 667H208L253 573L335 667H382L269 539Z" />
<glyph unicode="&#x15a;" glyph-name="null" horiz-adv-x="541" d="M66 121Q104 76 149 53T265 29Q346 29 394 64T443 181Q443 212 432 233T401 271T355 300T300 326Q270 339 242 355T191 393T155 441T141 505Q141 549 159 582T207 637T274 671T351 683Q414 683
465 656T547 580L510 557Q484 595 446 617T350 639Q319 639 291 632T240 609T204 570T190 514Q190 483 200 462T228 423T272 392T330 363Q361 348 390 333T443 296T480 248T495 181Q495 133 478 96T430 35T356 -3T262 -16Q182 -16 125 15T32 91L66 121ZM432 866H494L381
725H337L432 866Z" />
<glyph unicode="&#x15b;" glyph-name="null" horiz-adv-x="434" d="M55 85Q90 53 130 41T216 28Q277 28 304 53T331 116Q331 135 326 148T308 173T274 196T220 220Q189 232 166 244T128 271T105 304T97 348Q97 376 109 398T142 437T192 463T256 472Q354 472 414
404L383 378Q358 405 328 419T255 433Q200 433 171 410T142 351Q142 330 148 317T168 294T202 275T250 254Q287 238 312 224T351 193T372 160T378 120Q378 58 333 23T211 -12Q158 -12 112 3T28 53L55 85ZM326 667H380L291 539H249L326 667Z" />
<glyph unicode="&#x15c;" glyph-name="null" horiz-adv-x="541" d="M66 121Q104 76 149 53T265 29Q346 29 394 64T443 181Q443 212 432 233T401 271T355 300T300 326Q270 339 242 355T191 393T155 441T141 505Q141 549 159 582T207 637T274 671T351 683Q414 683
465 656T547 580L510 557Q484 595 446 617T350 639Q319 639 291 632T240 609T204 570T190 514Q190 483 200 462T228 423T272 392T330 363Q361 348 390 333T443 296T480 248T495 181Q495 133 478 96T430 35T356 -3T262 -16Q182 -16 125 15T32 91L66 121ZM373 866H424L504
725H455L392 833L284 725H232L373 866Z" />
<glyph unicode="&#x15d;" glyph-name="null" horiz-adv-x="434" d="M55 85Q90 53 130 41T216 28Q277 28 304 53T331 116Q331 135 326 148T308 173T274 196T220 220Q189 232 166 244T128 271T105 304T97 348Q97 376 109 398T142 437T192 463T256 472Q354 472 414
404L383 378Q358 405 328 419T255 433Q200 433 171 410T142 351Q142 330 148 317T168 294T202 275T250 254Q287 238 312 224T351 193T372 160T378 120Q378 58 333 23T211 -12Q158 -12 112 3T28 53L55 85ZM280 667H322L385 539H340L296 633L213 539H167L280 667Z"
/>
<glyph unicode="&#x15e;" glyph-name="null" horiz-adv-x="541" d="M66 121Q104 76 149 53T265 29Q346 29 394 64T443 181Q443 212 432 233T401 271T355 300T300 326Q270 339 242 355T191 393T155 441T141 505Q141 549 159 582T207 637T274 671T351 683Q414 683
465 656T547 580L510 557Q484 595 446 617T350 639Q319 639 291 632T240 609T204 570T190 514Q190 483 200 462T228 423T272 392T330 363Q361 348 390 333T443 296T480 248T495 181Q495 133 478 96T430 35T356 -3T262 -16Q182 -16 125 15T32 91L66 121ZM121 -163Q134
-169 151 -174T193 -179Q228 -179 251 -165T274 -124Q274 -90 220 -90Q201 -90 184 -93T144 -104L156 -68Q173 -63 191 -58T240 -53Q283 -53 301 -73T320 -120Q320 -168 283 -192T191 -217Q164 -217 143 -211T108 -197L121 -163Z" />
<glyph unicode="&#x15f;" glyph-name="null" horiz-adv-x="434" d="M55 85Q90 53 130 41T216 28Q277 28 304 53T331 116Q331 135 326 148T308 173T274 196T220 220Q189 232 166 244T128 271T105 304T97 348Q97 376 109 398T142 437T192 463T256 472Q354 472 414
404L383 378Q358 405 328 419T255 433Q200 433 171 410T142 351Q142 330 148 317T168 294T202 275T250 254Q287 238 312 224T351 193T372 160T378 120Q378 58 333 23T211 -12Q158 -12 112 3T28 53L55 85ZM60 -165Q72 -171 89 -176T130 -182Q167 -182 189 -167T212
-126Q212 -90 157 -90Q138 -90 122 -93T83 -105L94 -71Q109 -66 128 -61T176 -56Q216 -56 234 -77T253 -122Q253 -145 243 -163T216 -193T176 -211T128 -217Q102 -217 82 -211T47 -197L60 -165Z" />
<glyph unicode="&#x160;" glyph-name="null" horiz-adv-x="541" d="M66 121Q104 76 149 53T265 29Q346 29 394 64T443 181Q443 212 432 233T401 271T355 300T300 326Q270 339 242 355T191 393T155 441T141 505Q141 549 159 582T207 637T274 671T351 683Q414 683
465 656T547 580L510 557Q484 595 446 617T350 639Q319 639 291 632T240 609T204 570T190 514Q190 483 200 462T228 423T272 392T330 363Q361 348 390 333T443 296T480 248T495 181Q495 133 478 96T430 35T356 -3T262 -16Q182 -16 125 15T32 91L66 121ZM399 725H348L268
866H316L379 758L486 866H540L399 725Z" />
<glyph unicode="&#x161;" glyph-name="null" horiz-adv-x="434" d="M55 85Q90 53 130 41T216 28Q277 28 304 53T331 116Q331 135 326 148T308 173T274 196T220 220Q189 232 166 244T128 271T105 304T97 348Q97 376 109 398T142 437T192 463T256 472Q354 472 414
404L383 378Q358 405 328 419T255 433Q200 433 171 410T142 351Q142 330 148 317T168 294T202 275T250 254Q287 238 312 224T351 193T372 160T378 120Q378 58 333 23T211 -12Q158 -12 112 3T28 53L55 85ZM299 539H257L194 667H238L283 573L365 667H412L299 539Z"
/>
<glyph unicode="&#x162;" glyph-name="null" horiz-adv-x="591" d="M364 625H115L123 667H666L658 625H411L290 0H243L364 625ZM146 -163Q159 -169 176 -174T218 -179Q253 -179 276 -165T299 -124Q299 -90 245 -90Q226 -90 209 -93T169 -104L181 -68Q198 -63 216
-58T265 -53Q308 -53 326 -73T345 -120Q345 -168 308 -192T216 -217Q189 -217 168 -211T133 -197L146 -163Z" />
<glyph unicode="&#x163;" glyph-name="null" horiz-adv-x="341" d="M158 420H69L76 460H165L194 612H238L209 460H354L347 420H202L145 131Q140 109 140 92Q140 66 154 47T209 28Q230 28 249 38T285 66L310 39Q291 18 264 3T201 -12Q147 -12 122 15T96 89Q96 101
98 114T103 141L158 420ZM51 -165Q63 -171 80 -176T121 -182Q158 -182 180 -167T203 -126Q203 -90 148 -90Q129 -90 113 -93T74 -105L85 -71Q100 -66 119 -61T167 -56Q207 -56 225 -77T244 -122Q244 -145 234 -163T207 -193T167 -211T119 -217Q93 -217 73 -211T38
-197L51 -165Z" />
<glyph unicode="&#x164;" glyph-name="null" horiz-adv-x="591" d="M364 625H115L123 667H666L658 625H411L290 0H243L364 625ZM425 725H374L294 866H342L405 758L512 866H566L425 725Z" />
<glyph unicode="&#x165;" glyph-name="null" horiz-adv-x="339" d="M356 667H401L362 518H327L356 667ZM157 418H68L76 460H165L194 612H237L208 460H354L346 418H200L148 152Q141 118 141 93Q141 72 146 60T159 40T178 31T203 29Q227 29 246 38T287 69L309 42Q285
16 258 2T191 -12Q170 -12 153 -8T123 6T103 35T96 80Q96 107 103 141L157 418Z" />
<glyph unicode="&#x166;" glyph-name="null" horiz-adv-x="591" d="M314 364L365 625H116L124 667H667L659 625H412L361 364H495L487 323H353L291 0H244L306 323H172L180 364H314Z" />
<glyph unicode="&#x167;" glyph-name="null" horiz-adv-x="341" d="M130 279L158 420H69L76 460H165L194 612H238L209 460H354L347 420H202L174 279H319L312 240H166L145 131Q140 109 140 92Q140 66 154 47T209 28Q230 28 249 38T285 66L310 39Q291 18 264 3T201
-12Q147 -12 122 15T96 89Q96 101 98 114T103 141L122 240H34L41 279H130Z" />
<glyph unicode="&#x168;" glyph-name="null" horiz-adv-x="645" d="M177 667H224L152 298Q147 273 145 250T142 204Q142 165 150 133T179 78T231 41T311 28Q370 28 409 46T475 97T516 176T543 278L619 667H666L586 258Q575 200 556 150T505 63T426 5T312 -16Q255
-16 214 0T145 45T105 113T92 198Q92 216 94 234T100 273L177 667ZM447 812Q460 804 471 799T499 793Q516 793 533 800T574 828L595 802Q574 779 547 765T490 751Q467 751 449 760T416 780Q393 797 364 797Q347 797 331 790T289 761L269 787Q289 810 317 824T374
838Q397 838 415 830T447 812Z" />
<glyph unicode="&#x169;" glyph-name="null" horiz-adv-x="507" d="M428 97Q424 78 422 65T417 41T414 21T411 0H370Q371 11 372 19T375 38T379 61T386 93Q370 73 353 54T313 21T264 -3T203 -12Q128 -12 96 28T63 132Q63 147 65 163T70 196L121 460H165L116 205Q112
185 110 168T108 135Q108 80 133 55T210 29Q251 29 284 46T343 92T384 154T408 223L454 460H498L428 97ZM343 614Q354 606 365 601T392 596Q408 596 424 602T463 629L483 603Q462 581 436 569T383 557Q361 557 345 565T314 584Q292 600 265 600Q249 600 233 594T194
567L174 593Q195 615 221 627T274 639Q298 639 313 631T343 614Z" />
<glyph unicode="&#x16a;" glyph-name="null" horiz-adv-x="645" d="M177 667H224L152 298Q147 273 145 250T142 204Q142 165 150 133T179 78T231 41T311 28Q370 28 409 46T475 97T516 176T543 278L619 667H666L586 258Q575 200 556 150T505 63T426 5T312 -16Q255
-16 214 0T145 45T105 113T92 198Q92 216 94 234T100 273L177 667ZM288 813H591L583 772H280L288 813Z" />
<glyph unicode="&#x16b;" glyph-name="null" horiz-adv-x="507" d="M428 97Q424 78 422 65T417 41T414 21T411 0H370Q371 11 372 19T375 38T379 61T386 93Q370 73 353 54T313 21T264 -3T203 -12Q128 -12 96 28T63 132Q63 147 65 163T70 196L121 460H165L116 205Q112
185 110 168T108 135Q108 80 133 55T210 29Q251 29 284 46T343 92T384 154T408 223L454 460H498L428 97ZM221 618H444L436 577H213L221 618Z" />
<glyph unicode="&#x16c;" glyph-name="null" horiz-adv-x="645" d="M177 667H224L152 298Q147 273 145 250T142 204Q142 165 150 133T179 78T231 41T311 28Q370 28 409 46T475 97T516 176T543 278L619 667H666L586 258Q575 200 556 150T505 63T426 5T312 -16Q255
-16 214 0T145 45T105 113T92 198Q92 216 94 234T100 273L177 667ZM359 841Q359 805 379 789T427 773Q459 773 486 786T529 841H570Q563 814 549 794T515 761T473 742T427 735Q407 735 388 740T353 758T329 790T319 841H359Z" />
<glyph unicode="&#x16d;" glyph-name="null" horiz-adv-x="507" d="M428 97Q424 78 422 65T417 41T414 21T411 0H370Q371 11 372 19T375 38T379 61T386 93Q370 73 353 54T313 21T264 -3T203 -12Q128 -12 96 28T63 132Q63 147 65 163T70 196L121 460H165L116 205Q112
185 110 168T108 135Q108 80 133 55T210 29Q251 29 284 46T343 92T384 154T408 223L454 460H498L428 97ZM262 648V642Q262 612 277 595T323 578Q355 578 378 594T411 648H446Q443 627 433 608T408 574T371 551T322 542Q271 542 248 569T225 631V639Q225 643 226
648H262Z" />
<glyph unicode="&#x16e;" glyph-name="null" horiz-adv-x="645" d="M177 667H224L152 298Q147 273 145 250T142 204Q142 165 150 133T179 78T231 41T311 28Q370 28 409 46T475 97T516 176T543 278L619 667H666L586 258Q575 200 556 150T505 63T426 5T312 -16Q255
-16 214 0T145 45T105 113T92 198Q92 216 94 234T100 273L177 667ZM318 791Q318 839 347 867T420 896Q465 896 494 867T524 793Q524 745 495 716T422 687Q400 687 381 695T348 716T326 749T318 791ZM422 723Q448 723 467 743T486 793Q486 822 467 841T420 860Q394
860 375 841T356 791Q356 762 374 743T422 723Z" />
<glyph unicode="&#x16f;" glyph-name="null" horiz-adv-x="507" d="M428 97Q424 78 422 65T417 41T414 21T411 0H370Q371 11 372 19T375 38T379 61T386 93Q370 73 353 54T313 21T264 -3T203 -12Q128 -12 96 28T63 132Q63 147 65 163T70 196L121 460H165L116 205Q112
185 110 168T108 135Q108 80 133 55T210 29Q251 29 284 46T343 92T384 154T408 223L454 460H498L428 97ZM224 636Q224 657 232 675T253 706T283 726T319 733Q338 733 355 726T386 706T407 676T415 637Q415 616 407 598T386 567T356 547T320 539Q301 539 284 546T253
566T232 597T224 636ZM320 572Q344 572 362 590T380 637Q380 664 363 682T319 700Q293 700 276 682T259 636Q259 609 276 591T320 572Z" />
<glyph unicode="&#x170;" glyph-name="null" horiz-adv-x="645" d="M177 667H224L152 298Q147 273 145 250T142 204Q142 165 150 133T179 78T231 41T311 28Q370 28 409 46T475 97T516 176T543 278L619 667H666L586 258Q575 200 556 150T505 63T426 5T312 -16Q255
-16 214 0T145 45T105 113T92 198Q92 216 94 234T100 273L177 667ZM406 866H467L354 725H311L406 866ZM557 866H618L505 725H462L557 866Z" />
<glyph unicode="&#x171;" glyph-name="null" horiz-adv-x="507" d="M428 97Q424 78 422 65T417 41T414 21T411 0H370Q371 11 372 19T375 38T379 61T386 93Q370 73 353 54T313 21T264 -3T203 -12Q128 -12 96 28T63 132Q63 147 65 163T70 196L121 460H165L116 205Q112
185 110 168T108 135Q108 80 133 55T210 29Q251 29 284 46T343 92T384 154T408 223L454 460H498L428 97ZM298 667H350L262 539H221L298 667ZM428 667H480L392 539H351L428 667Z" />
<glyph unicode="&#x172;" glyph-name="null" horiz-adv-x="645" d="M433 -171Q417 -185 390 -194T335 -204Q306 -204 285 -190T263 -138Q263 -109 284 -77T340 -15Q333 -15 326 -15T312 -16Q255 -16 214 0T145 45T105 113T92 198Q92 216 94 234T100 273L177 667H224L152
298Q147 273 145 250T142 204Q142 165 150 133T179 78T231 41T311 28Q370 28 409 46T475 97T516 176T543 278L619 667H666L586 258Q577 211 563 169T527 92T474 33T400 -4Q357 -36 333 -69T309 -129Q309 -148 319 -155T345 -163Q370 -163 387 -156T416 -140L433
-171Z" />
<glyph unicode="&#x173;" glyph-name="null" horiz-adv-x="507" d="M440 -172Q395 -203 344 -203Q312 -203 294 -185T275 -139Q275 -120 283 -102T304 -65T335 -31T370 0Q371 11 372 19T375 38T379 61T386 93Q370 73 353 54T313 21T264 -3T203 -12Q128 -12 96
28T63 132Q63 147 65 163T70 196L121 460H165L116 205Q112 185 110 168T108 135Q108 80 133 55T210 29Q251 29 284 46T343 92T384 154T408 223L454 460H498L428 97Q424 78 422 65T417 41T414 21T411 0Q370 -35 345 -66T319 -130Q319 -143 327 -152T358 -162Q377
-162 391 -157T425 -140L440 -172Z" />
<glyph unicode="&#x174;" glyph-name="null" horiz-adv-x="839" d="M128 667H176L213 68L490 647H544L587 70L855 667H906L598 0H550L505 584L226 0H175L128 667ZM526 866H577L657 725H608L545 833L437 725H385L526 866Z" />
<glyph unicode="&#x175;" glyph-name="null" horiz-adv-x="653" d="M73 460H119L163 59L367 460H409L454 57L649 460H695L466 0H420L374 394L172 0H133L73 460ZM394 667H436L499 539H454L410 633L327 539H281L394 667Z" />
<glyph unicode="&#x176;" glyph-name="null" horiz-adv-x="511" d="M258 308L110 667H162L288 351L537 667H593L305 308L246 0H199L258 308ZM353 866H404L484 725H435L372 833L264 725H212L353 866Z" />
<glyph unicode="&#x177;" glyph-name="null" horiz-adv-x="444" d="M36 -174Q64 -174 82 -156T121 -100L180 4L69 460H116L210 55L443 460H490L154 -117Q145 -132 134 -149T109 -180T78 -203T39 -212Q12 -212 -7 -205T-42 -181L-18 -152Q-9 -161 5 -167T36 -174ZM285
667H327L390 539H345L301 633L218 539H172L285 667Z" />
<glyph unicode="&#x178;" glyph-name="null" horiz-adv-x="511" d="M258 308L110 667H162L288 351L537 667H593L305 308L246 0H199L258 308ZM423 828H486L472 760H409L423 828ZM263 828H327L313 760H249L263 828Z" />
<glyph unicode="&#x179;" glyph-name="null" horiz-adv-x="591" d="M25 44L568 623H158L167 667H637L629 623L85 44H522L514 0H17L25 44ZM456 866H518L405 725H361L456 866Z" />
<glyph unicode="&#x17a;" glyph-name="null" horiz-adv-x="462" d="M37 42L405 421H121L129 460H465L457 418L86 40H390L383 0H29L37 42ZM343 667H397L308 539H266L343 667Z" />
<glyph unicode="&#x17b;" glyph-name="null" horiz-adv-x="591" d="M25 44L568 623H158L167 667H637L629 623L85 44H522L514 0H17L25 44ZM390 830H459L445 760H376L390 830Z" />
<glyph unicode="&#x17c;" glyph-name="null" horiz-adv-x="462" d="M37 42L405 421H121L129 460H465L457 418L86 40H390L383 0H29L37 42ZM283 629H344L331 564H270L283 629Z" />
<glyph unicode="&#x17d;" glyph-name="null" horiz-adv-x="591" d="M25 44L568 623H158L167 667H637L629 623L85 44H522L514 0H17L25 44ZM433 725H382L302 866H350L413 758L520 866H574L433 725Z" />
<glyph unicode="&#x17e;" glyph-name="null" horiz-adv-x="462" d="M37 42L405 421H121L129 460H465L457 418L86 40H390L383 0H29L37 42ZM319 539H277L214 667H258L303 573L385 667H432L319 539Z" />
<glyph unicode="&#x17f;" glyph-name="null" horiz-adv-x="272" d="M174 523Q189 601 230 642T334 683Q409 683 447 625L414 602Q394 628 375 635T332 643Q313 643 296 638T263 619T236 579T216 510L117 0H73L174 523Z" />
<glyph unicode="&#x192;" glyph-name="null" horiz-adv-x="453" d="M152 -48Q112 -200 -7 -200Q-45 -200 -71 -186T-116 -142L-83 -120Q-66 -146 -47 -153T-3 -160Q13 -160 28 -156T58 -139T84 -101T108 -35L201 321H102L113 361H212L242 479Q262 557 303 598T405
639Q443 639 469 625T514 581L481 559Q464 585 445 592T401 599Q384 599 368 594T338 575T310 535T286 466L260 361H364L353 321H249L152 -48Z" />
<glyph unicode="&#x218;" glyph-name="null" horiz-adv-x="541" d="M66 121Q104 76 149 53T265 29Q346 29 394 64T443 181Q443 212 432 233T401 271T355 300T300 326Q270 339 242 355T191 393T155 441T141 505Q141 549 159 582T207 637T274 671T351 683Q414 683
465 656T547 580L510 557Q484 595 446 617T350 639Q319 639 291 632T240 609T204 570T190 514Q190 483 200 462T228 423T272 392T330 363Q361 348 390 333T443 296T480 248T495 181Q495 133 478 96T430 35T356 -3T262 -16Q182 -16 125 15T32 91L66 121ZM222 -64H278L183
-202H140L222 -64Z" />
<glyph unicode="&#x219;" glyph-name="null" horiz-adv-x="434" d="M55 85Q90 53 130 41T216 28Q277 28 304 53T331 116Q331 135 326 148T308 173T274 196T220 220Q189 232 166 244T128 271T105 304T97 348Q97 376 109 398T142 437T192 463T256 472Q354 472 414
404L383 378Q358 405 328 419T255 433Q200 433 171 410T142 351Q142 330 148 317T168 294T202 275T250 254Q287 238 312 224T351 193T372 160T378 120Q378 58 333 23T211 -12Q158 -12 112 3T28 53L55 85ZM170 -64H222L128 -202H88L170 -64Z" />
<glyph unicode="&#x21a;" glyph-name="null" horiz-adv-x="591" d="M364 625H115L123 667H666L658 625H411L290 0H243L364 625ZM227 -64H283L188 -202H145L227 -64Z" />
<glyph unicode="&#x21b;" glyph-name="null" horiz-adv-x="341" d="M158 420H69L76 460H165L194 612H238L209 460H354L347 420H202L145 131Q140 109 140 92Q140 66 154 47T209 28Q230 28 249 38T285 66L310 39Q291 18 264 3T201 -12Q147 -12 122 15T96 89Q96 101
98 114T103 141L158 420ZM152 -64H204L110 -202H70L152 -64Z" />
<glyph unicode="&#x237;" glyph-name="null" horiz-adv-x="180" d="M-127 -134Q-111 -150 -97 -155T-66 -161Q-52 -161 -39 -158T-13 -142T11 -104T31 -34L127 460H171L73 -43Q67 -76 58 -104T33 -154T-5 -188T-62 -200Q-88 -200 -112 -191T-153 -164L-127 -134Z" />
<glyph unicode="&#x2bc;" glyph-name="null" horiz-adv-x="336" d="M246 667H295L247 539H213L246 667Z" />
<glyph unicode="&#x2c6;" glyph-name="null" horiz-adv-x="336" d="M246 667H288L351 539H306L262 633L179 539H133L246 667Z" />
<glyph unicode="&#x2c7;" glyph-name="null" horiz-adv-x="336" d="M263 539H221L158 667H202L247 573L329 667H376L263 539Z" />
<glyph unicode="&#x2c9;" glyph-name="null" horiz-adv-x="336" d="M147 618H370L362 577H139L147 618Z" />
<glyph unicode="&#x2d8;" glyph-name="null" horiz-adv-x="336" d="M189 648V642Q189 612 204 595T250 578Q282 578 305 594T338 648H373Q370 627 360 608T335 574T298 551T249 542Q198 542 175 569T152 631V639Q152 643 153 648H189Z" />
<glyph unicode="&#x2d9;" glyph-name="null" horiz-adv-x="336" d="M229 629H290L277 564H216L229 629Z" />
<glyph unicode="&#x2da;" glyph-name="null" horiz-adv-x="336" d="M160 636Q160 657 168 675T189 706T219 726T255 733Q274 733 291 726T322 706T343 676T351 637Q351 616 343 598T322 567T292 547T256 539Q237 539 220 546T189 566T168 597T160 636ZM256 572Q280
572 298 590T316 637Q316 664 299 682T255 700Q229 700 212 682T195 636Q195 609 212 591T256 572Z" />
<glyph unicode="&#x2db;" glyph-name="null" horiz-adv-x="336" d="M179 -172Q134 -203 83 -203Q51 -203 33 -185T14 -139Q14 -120 22 -102T43 -65T73 -31T108 0H150Q109 -35 84 -66T58 -130Q58 -143 66 -152T97 -162Q116 -162 130 -157T164 -140L179 -172Z" />
<glyph unicode="&#x2dc;" glyph-name="null" horiz-adv-x="336" d="M269 614Q280 606 291 601T318 596Q334 596 350 602T389 629L409 603Q388 581 362 569T309 557Q287 557 271 565T240 584Q218 600 191 600Q175 600 159 594T120 567L100 593Q121 615 147 627T200
639Q224 639 239 631T269 614Z" />
<glyph unicode="&#x2dd;" glyph-name="null" horiz-adv-x="336" d="M198 667H250L162 539H121L198 667ZM328 667H380L292 539H251L328 667Z" />
<glyph unicode="&#x384;" glyph-name="null" horiz-adv-x="243" d="M126 676H181L100 539H62L126 676Z" />
<glyph unicode="&#x385;" glyph-name="null" horiz-adv-x="405" d="M203 676H252L192 539H156L203 676ZM79 626H134L123 566H68L79 626ZM278 626H333L322 566H267L278 626Z" />
<glyph unicode="&#x386;" glyph-name="null" horiz-adv-x="604" d="M380 667H424L557 0H507L465 216H164L40 0H-11L380 667ZM457 260L390 608L190 260H457ZM204 667H262L182 526H141L204 667Z" />
<glyph unicode="&#x388;" glyph-name="null" horiz-adv-x="618" d="M265 667H649L640 623H303L254 370H517L509 326H246L191 44H553L545 0H136L265 667ZM127 667H185L105 526H64L127 667Z" />
<glyph unicode="&#x389;" glyph-name="null" horiz-adv-x="743" d="M265 667H312L254 370H655L713 667H760L631 0H584L647 326H246L183 0H136L265 667ZM127 667H185L105 526H64L127 667Z" />
<glyph unicode="&#x38a;" glyph-name="null" horiz-adv-x="294" d="M265 667H312L183 0H136L265 667ZM127 667H185L105 526H64L127 667Z" />
<glyph unicode="&#x38c;" glyph-name="null" horiz-adv-x="832" d="M438 -16Q380 -16 332 5T248 63T193 152T173 263Q173 354 202 431T282 564T402 651T553 683Q610 683 658 662T742 604T797 515T817 404Q817 313 789 236T710 103T590 16T438 -16ZM548 639Q477
639 418 612T315 535T248 419T223 271Q223 220 237 176T279 99T348 47T442 28Q511 28 570 55T673 132T742 248T767 396Q767 448 753 492T711 569T642 620T548 639ZM133 667H191L111 526H70L133 667Z" />
<glyph unicode="&#x38e;" glyph-name="null" horiz-adv-x="666" d="M413 308L265 667H317L443 351L692 667H748L460 308L401 0H354L413 308ZM127 667H185L105 526H64L127 667Z" />
<glyph unicode="&#x38f;" glyph-name="null" horiz-adv-x="840" d="M522 45Q637 99 697 189T757 390Q757 441 744 486T701 565T628 620T522 640Q458 640 403 618T306 553T241 450T217 315Q217 285 222 253T242 187T283 118T352 45L343 0H100L110 45H290Q224 105
196 172T167 315Q167 390 193 456T267 573T380 653T526 683Q593 683 645 662T733 602T788 510T807 392Q807 347 797 301T762 209T699 123T603 45H762L753 0H514L522 45ZM127 667H185L105 526H64L127 667Z" />
<glyph unicode="&#x390;" glyph-name="null" horiz-adv-x="241" d="M127 460H171L105 122Q103 110 101 99T99 76Q99 29 143 29Q160 29 173 34T196 45L213 10Q199 1 180 -5T137 -12Q92 -12 73 12T53 68Q53 75 54 84T58 108L127 460ZM448 676H497L437 539H401L448
676ZM324 626H379L368 566H313L324 626ZM523 626H578L567 566H512L523 626Z" />
<glyph unicode="&#x391;" glyph-name="null" horiz-adv-x="604" d="M380 667H424L557 0H507L465 216H164L40 0H-11L380 667ZM457 260L390 608L190 260H457Z" />
<glyph unicode="&#x392;" glyph-name="null" horiz-adv-x="558" d="M182 667H373Q415 667 446 656T499 626T530 582T541 528Q541 465 506 418T390 349Q411 345 433 335T473 306T503 262T515 203Q515 143 493 104T433 42T348 10T249 0H53L182 667ZM309 370Q337
370 369 377T428 401T474 447T492 520Q492 550 483 569T457 601T418 618T368 623H221L171 370H309ZM237 44Q274 44 314 48T388 67T443 113T465 194Q465 231 452 256T417 297T365 319T302 326H163L108 44H237Z" />
<glyph unicode="&#x393;" glyph-name="null" horiz-adv-x="499" d="M182 667H582L574 624H222L101 0H53L182 667Z" />
<glyph unicode="&#x394;" glyph-name="null" horiz-adv-x="624" d="M5 45L388 667H434L575 45L567 0H-3L5 45ZM525 44L400 609L56 44H525Z" />
<glyph unicode="&#x395;" glyph-name="null" horiz-adv-x="535" d="M182 667H566L557 623H220L171 370H434L426 326H163L108 44H470L462 0H53L182 667Z" />
<glyph unicode="&#x396;" glyph-name="null" horiz-adv-x="591" d="M25 44L568 623H158L167 667H637L629 623L85 44H522L514 0H17L25 44Z" />
<glyph unicode="&#x397;" glyph-name="null" horiz-adv-x="660" d="M182 667H229L171 370H572L630 667H677L548 0H501L564 326H163L100 0H53L182 667Z" />
<glyph unicode="&#x398;" glyph-name="null" horiz-adv-x="743" d="M356 -16Q295 -16 245 4T159 61T104 152T84 274Q84 357 113 431T192 562T310 650T457 683Q517 683 567 663T652 606T708 514T728 391Q728 309 700 235T622 106T504 17T356 -16ZM455 639Q386 639
327 611T226 534T159 420T134 279Q134 223 148 177T191 98T260 47T356 28Q424 28 482 56T584 133T653 248T678 390Q678 446 664 492T621 570T551 621T455 639ZM223 316L232 361H592L583 316H223Z" />
<glyph unicode="&#x399;" glyph-name="null" horiz-adv-x="211" d="M182 667H229L100 0H53L182 667Z" />
<glyph unicode="&#x39a;" glyph-name="null" horiz-adv-x="546" d="M181 667H228L160 317L542 667H599L304 396L503 0H450L267 364L148 255L99 0H52L181 667Z" />
<glyph unicode="&#x39b;" glyph-name="null" horiz-adv-x="597" d="M386 607L40 0H-11L376 667H420L549 0H499L386 607Z" />
<glyph unicode="&#x39c;" glyph-name="null" horiz-adv-x="752" d="M202 667H249L393 268L702 667H748L648 0H601L694 592L396 210H367L227 591L91 0H44L202 667Z" />
<glyph unicode="&#x39d;" glyph-name="null" horiz-adv-x="669" d="M181 667H229L524 72L640 667H687L558 0H510L213 593L98 0H52L181 667Z" />
<glyph unicode="&#x39e;" glyph-name="null" horiz-adv-x="553" d="M477 44L468 0H21L30 44H477ZM132 325L141 369H491L482 325H132ZM158 623L167 667H582L573 623H158Z" />
<glyph unicode="&#x39f;" glyph-name="null" horiz-adv-x="743" d="M349 -16Q291 -16 243 5T159 63T104 152T84 263Q84 354 113 431T193 564T313 651T464 683Q521 683 569 662T653 604T708 515T728 404Q728 313 700 236T621 103T501 16T349 -16ZM459 639Q388 639
329 612T226 535T159 419T134 271Q134 220 148 176T190 99T259 47T353 28Q422 28 481 55T584 132T653 248T678 396Q678 448 664 492T622 569T553 620T459 639Z" />
<glyph unicode="&#x3a0;" glyph-name="null" horiz-adv-x="664" d="M181 667H682L553 0H505L626 622H221L100 0H52L181 667Z" />
<glyph unicode="&#x3a1;" glyph-name="null" horiz-adv-x="556" d="M182 667H366Q418 667 455 654T517 619T552 568T564 508Q564 458 550 417T504 347T423 301T305 284H155L100 0H53L182 667ZM324 328Q367 328 402 338T463 369T501 423T515 502Q515 556 483 589T381
623H220L163 328H324Z" />
<glyph unicode="&#x3a3;" glyph-name="null" horiz-adv-x="563" d="M27 46L340 338L143 622L151 667H612L604 622H196L395 335L81 45H498L490 0H18L27 46Z" />
<glyph unicode="&#x3a4;" glyph-name="null" horiz-adv-x="591" d="M364 625H115L123 667H666L658 625H411L290 0H243L364 625Z" />
<glyph unicode="&#x3a5;" glyph-name="null" horiz-adv-x="511" d="M258 308L110 667H162L288 351L537 667H593L305 308L246 0H199L258 308Z" />
<glyph unicode="&#x3a6;" glyph-name="null" horiz-adv-x="749" d="M458 707H503L487 625Q546 620 592 599T669 545T717 469T734 374Q734 309 708 250T633 147T519 76T375 48L358 -40H313L330 50Q271 55 226 76T149 130T101 206T84 301Q84 366 110 424T184 527T298
598T442 627L458 707ZM685 371Q685 413 673 450T635 515T570 562T479 584L383 89Q450 91 505 113T601 174T663 262T685 371ZM133 304Q133 262 145 225T183 160T247 113T338 90L434 586Q367 584 312 561T217 501T155 413T133 304Z" />
<glyph unicode="&#x3a7;" glyph-name="null" horiz-adv-x="564" d="M346 346L517 0H464L312 312L42 0H-14L292 352L138 667H190L326 387L571 667H627L346 346Z" />
<glyph unicode="&#x3a8;" glyph-name="null" horiz-adv-x="762" d="M171 667H217L183 492Q174 445 174 406Q174 370 184 340T217 289T278 255T374 240L457 667H503L420 240Q501 243 552 262T634 314T682 392T709 492L743 667H789L751 470Q740 416 721 368T665
282T567 221T412 195L374 0H328L366 195Q301 198 256 215T181 259T139 323T126 403Q126 419 128 436T133 470L171 667Z" />
<glyph unicode="&#x3a9;" glyph-name="null" horiz-adv-x="766" d="M455 45Q570 99 630 189T690 390Q690 441 677 486T634 565T561 620T455 640Q391 640 336 618T239 553T174 450T150 315Q150 285 155 253T175 187T216 118T285 45L276 0H33L43 45H223Q157 105
129 172T100 315Q100 390 126 456T200 573T313 653T459 683Q526 683 578 662T666 602T721 510T740 392Q740 347 730 301T695 209T632 123T536 45H695L686 0H447L455 45Z" />
<glyph unicode="&#x3aa;" glyph-name="null" horiz-adv-x="211" d="M182 667H229L100 0H53L182 667ZM537 828H600L586 760H523L537 828ZM377 828H441L427 760H363L377 828Z" />
<glyph unicode="&#x3ab;" glyph-name="null" horiz-adv-x="511" d="M258 308L110 667H162L288 351L537 667H593L305 308L246 0H199L258 308ZM423 828H486L472 760H409L423 828ZM263 828H327L313 760H249L263 828Z" />
<glyph unicode="&#x3ac;" glyph-name="null" horiz-adv-x="573" d="M478 -12Q436 -12 420 13T406 72Q374 33 330 11T236 -12Q198 -12 165 1T107 40T68 102T54 186Q54 240 73 291T127 383T209 447T314 472Q371 472 409 447T466 378L470 400Q471 404 472 412T476
429T480 446T484 460H525Q525 458 523 452T519 437T515 419T511 400L450 90Q445 64 452 47T486 29Q497 29 505 32T520 38L535 3Q525 -2 511 -7T478 -12ZM241 29Q279 29 311 42T367 79T407 133T430 199L444 271Q445 276 445 283T446 299Q446 327 437 351T411 393T369
421T311 431Q264 431 225 411T159 358T116 281T100 192Q100 153 111 123T141 71T185 40T241 29ZM369 676H424L343 539H305L369 676Z" />
<glyph unicode="&#x3ad;" glyph-name="null" horiz-adv-x="456" d="M338 216H257Q222 216 191 211T137 195T99 164T85 115Q85 91 94 75T121 48T161 34T211 29Q270 29 309 47T380 95L409 66Q331 -12 209 -12Q134 -12 87 18T40 111Q40 142 52 165T83 203T127 227T175
239Q139 250 118 276T96 339Q96 368 110 392T150 434T210 462T284 472Q395 472 455 392L422 366Q396 399 366 415T285 431Q259 431 234 427T188 411T154 382T141 338Q141 315 151 300T177 274T216 260T264 256H346L338 216ZM322 676H377L296 539H258L322 676Z"
/>
<glyph unicode="&#x3ae;" glyph-name="null" horiz-adv-x="513" d="M38 0L108 363Q112 382 115 395T119 419T122 439T125 460H166Q165 449 164 440T161 421T156 397T149 364Q165 384 184 403T226 438T277 462T340 472Q413 472 445 432T477 326Q477 297 471 264L381
-200H337L425 255Q432 293 432 323Q432 380 408 405T336 431Q294 431 259 414T197 369T153 307T128 237L82 0H38ZM363 676H418L337 539H299L363 676Z" />
<glyph unicode="&#x3af;" glyph-name="null" horiz-adv-x="241" d="M127 460H171L105 122Q103 110 101 99T99 76Q99 29 143 29Q160 29 173 34T196 45L213 10Q199 1 180 -5T137 -12Q92 -12 73 12T53 68Q53 75 54 84T58 108L127 460ZM208 676H263L182 539H144L208 676Z" />
<glyph unicode="&#x3b0;" glyph-name="null" horiz-adv-x="502" d="M231 -12Q146 -12 107 27T67 138Q67 155 69 173T75 211L124 460H167L118 205Q112 175 112 145Q112 122 117 101T137 64T175 39T236 29Q268 29 294 37T342 66T378 120T403 205L452 460H496L444
192Q435 147 420 110T380 45T318 3T231 -12ZM327 676H376L316 539H280L327 676ZM203 626H258L247 566H192L203 626ZM402 626H457L446 566H391L402 626Z" />
<glyph unicode="&#x3b1;" glyph-name="null" horiz-adv-x="573" d="M478 -12Q436 -12 420 13T406 72Q374 33 330 11T236 -12Q198 -12 165 1T107 40T68 102T54 186Q54 240 73 291T127 383T209 447T314 472Q371 472 409 447T466 378L470 400Q471 404 472 412T476
429T480 446T484 460H525Q525 458 523 452T519 437T515 419T511 400L450 90Q445 64 452 47T486 29Q497 29 505 32T520 38L535 3Q525 -2 511 -7T478 -12ZM241 29Q279 29 311 42T367 79T407 133T430 199L444 271Q445 276 445 283T446 299Q446 327 437 351T411 393T369
421T311 431Q264 431 225 411T159 358T116 281T100 192Q100 153 111 123T141 71T185 40T241 29Z" />
<glyph unicode="&#x3b2;" glyph-name="null" horiz-adv-x="517" d="M-1 -200L130 477Q141 533 160 572T205 636T263 672T331 683Q406 683 448 643T491 534Q491 501 481 474T454 426T414 390T365 365Q419 349 451 306T483 198Q483 156 468 118T425 51T354 5T256
-12Q203 -12 162 1T88 31L43 -200H-1ZM261 29Q343 29 390 75T437 199Q437 262 400 301T276 341H245L253 384H286Q320 384 349 393T399 421T433 466T446 528Q446 582 416 612T330 642Q264 642 227 599T174 477L96 73Q108 66 125 59T165 45T211 34T261 29Z" />
<glyph unicode="&#x3b3;" glyph-name="null" horiz-adv-x="444" d="M69 460H116L202 55L445 460H492L214 4L175 -200H131L171 8L69 460Z" />
<glyph unicode="&#x3b4;" glyph-name="null" horiz-adv-x="548" d="M369 683Q407 683 445 670T522 621L491 592Q467 612 441 627T369 642Q346 642 325 638T287 624T261 600T251 565Q251 548 258 535T278 511T309 489T350 464Q382 444 411 424T462 379T497 322T510
248Q510 197 491 150T438 67T357 10T253 -12Q209 -12 173 1T110 40T69 103T54 186Q54 243 75 288T129 367T204 422T285 453Q271 462 257 472T233 496T216 526T209 562Q209 587 219 609T250 647T301 673T369 683ZM256 29Q302 29 340 46T405 93T448 162T464 245Q464
283 453 311T422 360T377 399T324 431Q277 420 236 399T165 347T118 275T100 187Q100 147 112 117T145 68T194 39T256 29Z" />
<glyph unicode="&#x3b5;" glyph-name="null" horiz-adv-x="456" d="M338 216H257Q222 216 191 211T137 195T99 164T85 115Q85 91 94 75T121 48T161 34T211 29Q270 29 309 47T380 95L409 66Q331 -12 209 -12Q134 -12 87 18T40 111Q40 142 52 165T83 203T127 227T175
239Q139 250 118 276T96 339Q96 368 110 392T150 434T210 462T284 472Q395 472 455 392L422 366Q396 399 366 415T285 431Q259 431 234 427T188 411T154 382T141 338Q141 315 151 300T177 274T216 260T264 256H346L338 216Z" />
<glyph unicode="&#x3b6;" glyph-name="null" horiz-adv-x="407" d="M235 -3Q205 3 173 14T115 48T71 106T54 196Q54 245 71 294T131 396T246 505T426 627H161L169 667H508L501 632Q441 595 371 551T241 454T140 337T99 197Q99 155 111 127T144 82T191 55T244 40L259
37Q311 26 341 3T372 -69Q372 -94 364 -113T341 -146T307 -171T266 -188L248 -153Q283 -139 304 -121T326 -71Q326 -45 309 -30T250 -6L235 -3Z" />
<glyph unicode="&#x3b7;" glyph-name="null" horiz-adv-x="513" d="M38 0L108 363Q112 382 115 395T119 419T122 439T125 460H166Q165 449 164 440T161 421T156 397T149 364Q165 384 184 403T226 438T277 462T340 472Q413 472 445 432T477 326Q477 297 471 264L381
-200H337L425 255Q432 293 432 323Q432 380 408 405T336 431Q294 431 259 414T197 369T153 307T128 237L82 0H38Z" />
<glyph unicode="&#x3b8;" glyph-name="null" horiz-adv-x="557" d="M249 -12Q171 -12 126 44T80 222Q80 273 88 327T114 432T156 529T215 609T289 663T380 683Q458 683 502 627T547 450Q547 373 528 291T471 142T378 31T249 -12ZM254 29Q333 29 394 103T486 322H136Q130
290 128 261T126 212Q126 118 159 74T254 29ZM372 642Q294 642 235 572T144 363H494Q496 375 497 389T499 418T500 443T501 462Q501 553 468 597T372 642Z" />
<glyph unicode="&#x3b9;" glyph-name="null" horiz-adv-x="241" d="M127 460H171L105 122Q103 110 101 99T99 76Q99 29 143 29Q160 29 173 34T196 45L213 10Q199 1 180 -5T137 -12Q92 -12 73 12T53 68Q53 75 54 84T58 108L127 460Z" />
<glyph unicode="&#x3ba;" glyph-name="null" horiz-adv-x="456" d="M124 460H167L119 215L415 460H472L242 267L415 0H364L209 241L109 158L78 0H35L124 460Z" />
<glyph unicode="&#x3bb;" glyph-name="null" horiz-adv-x="456" d="M125 639Q144 653 164 662T212 672Q236 672 252 664T278 643T295 610T305 569L411 0H364L296 399L46 0H0L283 453L266 551Q263 570 259 585T249 610T234 626T208 632Q188 632 174 625T147 608L125 639Z" />
<glyph unicode="&#x3bc;" glyph-name="null" horiz-adv-x="524" d="M214 29Q255 29 289 45T348 90T391 153T416 227L461 460H505L435 97Q434 94 432 83T427 57T422 28T418 0H377Q378 11 379 19T382 38T386 61T393 93Q377 72 359 53T320 20T272 -3T212 -12Q164
-12 133 6T92 55L43 -200H-1L127 460H171L122 207Q115 172 115 138Q115 87 137 58T214 29Z" />
<glyph unicode="&#x3bd;" glyph-name="null" horiz-adv-x="444" d="M69 460H116L202 55L445 460H492L212 0H173L69 460Z" />
<glyph unicode="&#x3be;" glyph-name="null" horiz-adv-x="428" d="M234 -3Q206 3 174 12T115 42T69 94T50 179Q50 230 67 266T113 325T175 361T242 375Q223 381 205 391T173 418T150 457T141 511Q141 552 156 584T199 638T263 671T342 683Q401 683 439 663T504
613L470 587Q445 614 416 628T341 642Q272 642 229 610T185 514Q185 481 197 458T230 421T278 399T337 392H410L401 346H327Q209 346 152 306T95 185Q95 148 106 123T136 82T183 56T243 40L259 37Q313 27 343 5T374 -67Q374 -93 365 -113T342 -147T308 -171T268
-188L250 -153Q285 -139 306 -121T328 -69Q328 -44 312 -30T249 -6L234 -3Z" />
<glyph unicode="&#x3bf;" glyph-name="null" horiz-adv-x="539" d="M249 -12Q207 -12 171 1T109 40T69 102T54 186Q54 240 73 291T128 383T211 447T319 472Q361 472 396 459T458 420T498 357T513 273Q513 219 494 168T440 77T357 13T249 -12ZM316 431Q267 431
227 411T159 358T116 281T100 191Q100 113 141 71T252 29Q300 29 339 49T407 102T451 179T467 270Q467 347 427 389T316 431Z" />
<glyph unicode="&#x3c0;" glyph-name="null" horiz-adv-x="589" d="M180 421H73L81 460H611L603 421H496L438 121Q432 92 432 73Q432 49 443 39T476 29Q490 29 502 33T526 44L543 10Q527 0 510 -6T467 -12Q436 -12 411 5T386 67Q386 82 391 107L452 421H224L143
0H99L180 421Z" />
<glyph unicode="&#x3c1;" glyph-name="null" horiz-adv-x="530" d="M-7 -200L79 239Q89 291 110 334T162 407T234 455T324 472Q412 472 458 420T504 278Q504 218 484 165T426 73T339 11T228 -12Q178 -12 142 1T82 30L37 -200H-7ZM91 73Q111 57 147 43T229 29Q279
29 321 48T393 100T441 178T458 276Q458 348 425 389T320 431Q278 431 245 416T188 375T147 314T123 239L91 73Z" />
<glyph unicode="&#x3c2;" glyph-name="null" horiz-adv-x="476" d="M316 472Q381 472 420 443T477 368L441 350Q422 393 391 412T315 431Q267 431 228 411T160 359T116 285T100 200Q100 163 111 136T143 89T189 59T244 41L298 30Q350 19 371 -6T393 -70Q393 -95
385 -114T361 -148T326 -172T284 -189L270 -152Q305 -139 326 -121T347 -72Q347 -43 329 -30T283 -11L235 -1Q206 5 174 17T116 52T72 109T54 193Q54 246 73 296T128 385T211 448T316 472Z" />
<glyph unicode="&#x3c3;" glyph-name="null" horiz-adv-x="567" d="M605 460L597 421H445Q473 390 490 352T508 262Q508 212 490 163T437 75T355 12T247 -12Q202 -12 167 2T106 42T68 104T54 185Q54 239 74 289T131 377T220 437T337 460H605ZM249 29Q297 29 336
48T404 101T447 176T463 264Q463 302 449 343T397 421H341Q286 421 242 403T166 354T117 281T100 190Q100 114 139 72T249 29Z" />
<glyph unicode="&#x3c4;" glyph-name="null" horiz-adv-x="407" d="M78 460H440L432 421H257L199 123Q194 100 194 83Q194 58 206 44T250 29Q273 29 287 35T312 48L329 13Q315 3 294 -4T244 -12Q193 -12 171 12T149 77Q149 92 152 109L213 421H71L78 460Z" />
<glyph unicode="&#x3c5;" glyph-name="null" horiz-adv-x="502" d="M231 -12Q146 -12 107 27T67 138Q67 155 69 173T75 211L124 460H167L118 205Q112 175 112 145Q112 122 117 101T137 64T175 39T236 29Q268 29 294 37T342 66T378 120T403 205L452 460H496L444
192Q435 147 420 110T380 45T318 3T231 -12Z" />
<glyph unicode="&#x3c6;" glyph-name="null" horiz-adv-x="653" d="M403 667H448L410 468Q461 464 501 448T570 404T612 342T627 265Q627 214 606 166T544 81T446 21T316 -4L279 -200H234L272 -2Q221 2 181 18T113 62T71 124T56 201Q56 252 77 299T139 384T236
445T365 470L403 667ZM581 259Q581 292 570 321T537 373T482 410T402 429L324 35Q381 37 428 55T509 104T562 174T581 259ZM102 207Q102 174 113 145T145 92T200 55T279 36L357 431Q300 428 254 410T173 361T121 292T102 207Z" />
<glyph unicode="&#x3c7;" glyph-name="null" horiz-adv-x="485" d="M275 192L483 460H534L289 146L364 -102Q368 -116 372 -128T383 -150T400 -165T426 -171Q440 -171 450 -167T469 -157L485 -192Q466 -203 453 -207T422 -212Q397 -212 381 -204T354 -183T337
-154T325 -122L254 108L21 -200H-30L240 155L180 362Q172 392 160 411T121 431Q107 431 96 426T73 414L53 448Q71 461 89 466T126 472Q150 472 166 464T193 442T210 412T220 382L275 192Z" />
<glyph unicode="&#x3c8;" glyph-name="null" horiz-adv-x="670" d="M403 612H445L333 33Q396 34 438 46T508 86T553 159T584 271L621 460H664L625 259Q614 202 598 154T551 70T466 15T325 -6L288 -200H246L283 -6Q176 4 126 54T76 179Q76 196 78 217T85 260L124
460H167L130 272Q125 247 123 224T120 183Q120 110 166 74T291 33L403 612Z" />
<glyph unicode="&#x3c9;" glyph-name="null" horiz-adv-x="698" d="M461 -12Q433 -12 413 -5T378 16T354 47T341 85Q317 45 281 17T192 -12Q163 -12 138 -2T94 30T65 82T54 156Q54 204 67 249T103 334T155 410T216 472L249 448Q219 422 192 391T144 322T111 244T99
159Q99 96 124 63T195 29Q215 29 236 36T277 61T312 108T336 180L369 350H412L379 180Q376 166 375 153T374 131Q374 102 381 83T400 51T429 34T463 29Q504 29 534 51T584 108T614 188T624 277Q624 330 611 372T575 449L611 472Q636 437 652 384T669 271Q669 222
656 172T618 81T553 14T461 -12Z" />
<glyph unicode="&#x3ca;" glyph-name="null" horiz-adv-x="241" d="M127 460H171L105 122Q103 110 101 99T99 76Q99 29 143 29Q160 29 173 34T196 45L213 10Q199 1 180 -5T137 -12Q92 -12 73 12T53 68Q53 75 54 84T58 108L127 460ZM472 627H530L517 565H459L472
627ZM330 627H388L375 565H317L330 627Z" />
<glyph unicode="&#x3cb;" glyph-name="null" horiz-adv-x="502" d="M231 -12Q146 -12 107 27T67 138Q67 155 69 173T75 211L124 460H167L118 205Q112 175 112 145Q112 122 117 101T137 64T175 39T236 29Q268 29 294 37T342 66T378 120T403 205L452 460H496L444
192Q435 147 420 110T380 45T318 3T231 -12ZM375 627H433L420 565H362L375 627ZM233 627H291L278 565H220L233 627Z" />
<glyph unicode="&#x3cc;" glyph-name="null" horiz-adv-x="539" d="M249 -12Q207 -12 171 1T109 40T69 102T54 186Q54 240 73 291T128 383T211 447T319 472Q361 472 396 459T458 420T498 357T513 273Q513 219 494 168T440 77T357 13T249 -12ZM316 431Q267 431
227 411T159 358T116 281T100 191Q100 113 141 71T252 29Q300 29 339 49T407 102T451 179T467 270Q467 347 427 389T316 431ZM375 676H430L349 539H311L375 676Z" />
<glyph unicode="&#x3cd;" glyph-name="null" horiz-adv-x="502" d="M231 -12Q146 -12 107 27T67 138Q67 155 69 173T75 211L124 460H167L118 205Q112 175 112 145Q112 122 117 101T137 64T175 39T236 29Q268 29 294 37T342 66T378 120T403 205L452 460H496L444
192Q435 147 420 110T380 45T318 3T231 -12ZM357 676H412L331 539H293L357 676Z" />
<glyph unicode="&#x3ce;" glyph-name="null" horiz-adv-x="698" d="M461 -12Q433 -12 413 -5T378 16T354 47T341 85Q317 45 281 17T192 -12Q163 -12 138 -2T94 30T65 82T54 156Q54 204 67 249T103 334T155 410T216 472L249 448Q219 422 192 391T144 322T111 244T99
159Q99 96 124 63T195 29Q215 29 236 36T277 61T312 108T336 180L369 350H412L379 180Q376 166 375 153T374 131Q374 102 381 83T400 51T429 34T463 29Q504 29 534 51T584 108T614 188T624 277Q624 330 611 372T575 449L611 472Q636 437 652 384T669 271Q669 222
656 172T618 81T553 14T461 -12ZM468 676H523L442 539H404L468 676Z" />
<glyph unicode="&#x400;" glyph-name="null" horiz-adv-x="535" d="M182 667H566L557 623H220L171 370H434L426 326H163L108 44H470L462 0H53L182 667ZM329 866H385L425 725H385L329 866Z" />
<glyph unicode="&#x401;" glyph-name="null" horiz-adv-x="535" d="M182 667H566L557 623H220L171 370H434L426 326H163L108 44H470L462 0H53L182 667ZM446 828H509L495 760H432L446 828ZM286 828H350L336 760H272L286 828Z" />
<glyph unicode="&#x402;" glyph-name="null" horiz-adv-x="766" d="M223 0L345 624H115L123 667H666L658 624H391L346 393Q383 411 422 422T506 434Q550 434 588 422T656 384T702 321T719 233Q719 174 696 129T635 53T548 7T447 -9Q413 -9 382 -3L393 41Q408 38
422 37T448 36Q490 36 530 48T602 84T653 144T672 230Q672 270 659 300T623 350T569 380T500 391Q452 391 411 377T337 346L269 0H223Z" />
<glyph unicode="&#x403;" glyph-name="null" horiz-adv-x="507" d="M182 667H582L574 624H222L101 0H53L182 667ZM447 866H509L396 725H352L447 866Z" />
<glyph unicode="&#x404;" glyph-name="null" horiz-adv-x="645" d="M632 527Q600 588 551 613T441 639Q381 639 331 618T243 559T180 474T143 370H522L513 325H136Q135 314 135 304T134 282Q134 224 149 177T193 97T262 46T353 28Q419 28 473 57T566 136L600 107Q556
53 494 19T351 -16Q293 -16 244 3T160 61T104 154T84 280Q84 362 110 435T184 563T297 650T441 683Q520 683 580 649T672 547L632 527Z" />
<glyph unicode="&#x405;" glyph-name="null" horiz-adv-x="541" d="M66 121Q104 76 149 53T265 29Q346 29 394 64T443 181Q443 212 432 233T401 271T355 300T300 326Q270 339 242 355T191 393T155 441T141 505Q141 549 159 582T207 637T274 671T351 683Q414 683
465 656T547 580L510 557Q484 595 446 617T350 639Q319 639 291 632T240 609T204 570T190 514Q190 483 200 462T228 423T272 392T330 363Q361 348 390 333T443 296T480 248T495 181Q495 133 478 96T430 35T356 -3T262 -16Q182 -16 125 15T32 91L66 121Z" />
<glyph unicode="&#x406;" glyph-name="null" horiz-adv-x="211" d="M182 667H229L100 0H53L182 667Z" />
<glyph unicode="&#x407;" glyph-name="null" horiz-adv-x="211" d="M182 667H229L100 0H53L182 667ZM537 828H600L586 760H523L537 828ZM377 828H441L427 760H363L377 828Z" />
<glyph unicode="&#x408;" glyph-name="null" horiz-adv-x="452" d="M43 99Q70 61 102 45T171 28Q209 28 236 36T282 65T313 119T336 201L427 667H474L382 193Q371 136 354 97T312 32T251 -4T168 -16Q121 -16 78 7T9 72L43 99Z" />
<glyph unicode="&#x409;" glyph-name="null" horiz-adv-x="1021" d="M681 667L630 402H789Q837 402 872 389T929 353T963 299T974 230Q974 185 958 143T909 70T826 19T707 0H504L624 622H367Q329 442 290 322T208 130T115 28T7 -2H-6L3 42H9Q37 42 64 52T118 87T172
157T225 271T278 438T331 667H681ZM621 357L560 45H714Q760 45 798 56T864 91T907 147T923 225Q923 357 780 357H621Z" />
<glyph unicode="&#x40a;" glyph-name="null" horiz-adv-x="991" d="M607 667H655L601 385H761Q809 385 844 373T901 338T935 286T946 220Q946 176 930 137T881 67T798 18T679 0H478L544 340H167L101 0H53L182 667H230L176 385H552L607 667ZM592 340L535 45H686Q732
45 770 56T836 88T879 142T895 215Q895 340 752 340H592Z" />
<glyph unicode="&#x40b;" glyph-name="null" horiz-adv-x="760" d="M222 0L343 624H115L123 667H666L658 624H391L343 380Q378 400 421 412T508 424Q547 424 582 413T645 380T688 322T704 238Q704 222 702 206T697 173L664 0H616L647 161Q655 204 655 236Q655
273 643 300T611 344T562 370T502 379Q455 379 409 365T334 331L270 0H222Z" />
<glyph unicode="&#x40c;" glyph-name="null" horiz-adv-x="554" d="M101 0H53L182 667H230L172 370H248Q286 370 312 384T362 428L553 667H610L405 413Q385 388 365 372T320 346Q345 338 360 320T391 266L504 0H450L348 248Q330 291 305 308T245 325H164L101 0ZM447
866H509L396 725H352L447 866Z" />
<glyph unicode="&#x40d;" glyph-name="null" horiz-adv-x="673" d="M560 0H513L628 594L105 0H53L182 667H229L112 69L639 667H689L560 0ZM378 866H434L474 725H434L378 866Z" />
<glyph unicode="&#x40e;" glyph-name="null" horiz-adv-x="562" d="M593 667H644L253 74Q225 32 197 8T125 -16Q96 -16 73 -6T30 22L56 56Q70 44 87 36T126 27Q155 27 175 44T216 92L275 181L117 667H168L305 227L593 667ZM335 841Q335 805 355 789T403 773Q435
773 462 786T505 841H546Q539 814 525 794T491 761T449 742T403 735Q383 735 364 740T329 758T305 790T295 841H335Z" />
<glyph unicode="&#x40f;" glyph-name="null" horiz-adv-x="662" d="M249 -154L278 0H53L182 667H230L109 45H510L631 667H679L550 0H324L295 -154H249Z" />
<glyph unicode="&#x410;" glyph-name="null" horiz-adv-x="604" d="M380 667H424L557 0H507L465 216H164L40 0H-11L380 667ZM457 260L390 608L190 260H457Z" />
<glyph unicode="&#x411;" glyph-name="null" horiz-adv-x="569" d="M182 667H554L546 624H221L178 397H349Q397 397 432 384T489 349T523 295T534 227Q534 182 518 141T469 69T386 19T267 0H53L182 667ZM169 352L109 45H274Q320 45 358 56T424 90T467 146T483
222Q483 352 340 352H169Z" />
<glyph unicode="&#x412;" glyph-name="null" horiz-adv-x="558" d="M182 667H373Q415 667 446 656T499 626T530 582T541 528Q541 465 506 418T390 349Q411 345 433 335T473 306T503 262T515 203Q515 143 493 104T433 42T348 10T249 0H53L182 667ZM309 370Q337
370 369 377T428 401T474 447T492 520Q492 550 483 569T457 601T418 618T368 623H221L171 370H309ZM237 44Q274 44 314 48T388 67T443 113T465 194Q465 231 452 256T417 297T365 319T302 326H163L108 44H237Z" />
<glyph unicode="&#x413;" glyph-name="null" horiz-adv-x="507" d="M182 667H582L574 624H222L101 0H53L182 667Z" />
<glyph unicode="&#x414;" glyph-name="null" horiz-adv-x="699" d="M691 667L570 45H616L578 -154H532L562 0H35L6 -154H-40L-2 45H35Q103 119 148 188T227 330T284 486T335 667H691ZM635 622H373Q346 518 318 436T258 286T185 159T94 45H522L635 622Z" />
<glyph unicode="&#x415;" glyph-name="null" horiz-adv-x="535" d="M182 667H566L557 623H220L171 370H434L426 326H163L108 44H470L462 0H53L182 667Z" />
<glyph unicode="&#x416;" glyph-name="null" horiz-adv-x="795" d="M474 667H518L460 370H536Q568 370 594 386T646 439L801 667H851L682 418Q666 395 645 377T598 347Q624 339 638 321T663 266L745 0H697L623 248Q610 291 588 308T536 325H452L389 0H345L408
325H329Q300 325 271 309T212 248L42 0H-10L173 266Q186 285 197 298T220 321T244 337T270 347Q228 369 214 418L141 667H186L253 439Q264 403 284 387T337 370H416L474 667Z" />
<glyph unicode="&#x417;" glyph-name="null" horiz-adv-x="547" d="M199 325L208 370H311Q342 370 373 379T430 407T471 454T487 522Q487 554 476 576T445 613T401 633T348 639Q311 639 282 630T231 608T192 578T165 547L128 574Q137 588 156 606T203 642T269
671T354 683Q399 683 433 672T490 639T525 590T537 529Q537 496 526 466T494 412T446 370T383 346Q402 341 421 331T457 303T484 259T495 197Q495 150 476 111T425 43T348 0T255 -16Q208 -16 170 -3T104 29T58 70T33 110L72 134Q79 119 94 101T133 66T188 39T258
28Q297 28 331 40T391 74T430 126T445 194Q445 230 432 254T399 295T354 318T303 325H199Z" />
<glyph unicode="&#x418;" glyph-name="null" horiz-adv-x="673" d="M560 0H513L628 594L105 0H53L182 667H229L112 69L639 667H689L560 0Z" />
<glyph unicode="&#x419;" glyph-name="null" horiz-adv-x="673" d="M560 0H513L628 594L105 0H53L182 667H229L112 69L639 667H689L560 0ZM384 841Q384 805 404 789T452 773Q484 773 511 786T554 841H595Q588 814 574 794T540 761T498 742T452 735Q432 735 413
740T378 758T354 790T344 841H384Z" />
<glyph unicode="&#x41a;" glyph-name="null" horiz-adv-x="554" d="M101 0H53L182 667H230L172 370H248Q286 370 312 384T362 428L553 667H610L405 413Q385 388 365 372T320 346Q345 338 360 320T391 266L504 0H450L348 248Q330 291 305 308T245 325H164L101 0Z" />
<glyph unicode="&#x41b;" glyph-name="null" horiz-adv-x="679" d="M695 667L565 0H517L638 622H367Q329 442 290 322T208 130T115 28T7 -2H-6L3 42H9Q37 42 64 52T118 87T172 157T225 271T278 438T331 667H695Z" />
<glyph unicode="&#x41c;" glyph-name="null" horiz-adv-x="752" d="M202 667H249L393 268L702 667H748L648 0H601L694 592L396 210H367L227 591L91 0H44L202 667Z" />
<glyph unicode="&#x41d;" glyph-name="null" horiz-adv-x="660" d="M182 667H229L171 370H572L630 667H677L548 0H501L564 326H163L100 0H53L182 667Z" />
<glyph unicode="&#x41e;" glyph-name="null" horiz-adv-x="743" d="M349 -16Q291 -16 243 5T159 63T104 152T84 263Q84 354 113 431T193 564T313 651T464 683Q521 683 569 662T653 604T708 515T728 404Q728 313 700 236T621 103T501 16T349 -16ZM459 639Q388 639
329 612T226 535T159 419T134 271Q134 220 148 176T190 99T259 47T353 28Q422 28 481 55T584 132T653 248T678 396Q678 448 664 492T622 569T553 620T459 639Z" />
<glyph unicode="&#x41f;" glyph-name="null" horiz-adv-x="667" d="M182 667H683L554 0H506L627 622H222L101 0H53L182 667Z" />
<glyph unicode="&#x420;" glyph-name="null" horiz-adv-x="556" d="M182 667H366Q418 667 455 654T517 619T552 568T564 508Q564 458 550 417T504 347T423 301T305 284H155L100 0H53L182 667ZM324 328Q367 328 402 338T463 369T501 423T515 502Q515 556 483 589T381
623H220L163 328H324Z" />
<glyph unicode="&#x421;" glyph-name="null" horiz-adv-x="645" d="M633 527Q603 590 557 614T446 639Q381 639 325 612T226 535T159 419T134 271Q134 220 149 176T193 99T260 47T349 28Q424 28 476 58T566 136L600 107Q555 53 494 19T345 -16Q289 -16 242 5T159
63T104 152T84 263Q84 354 113 431T191 564T308 651T451 683Q526 683 584 649T672 547L633 527Z" />
<glyph unicode="&#x422;" glyph-name="null" horiz-adv-x="591" d="M364 625H115L123 667H666L658 625H411L290 0H243L364 625Z" />
<glyph unicode="&#x423;" glyph-name="null" horiz-adv-x="562" d="M593 667H644L253 74Q225 32 197 8T125 -16Q96 -16 73 -6T30 22L56 56Q70 44 87 36T126 27Q155 27 175 44T216 92L275 181L117 667H168L305 227L593 667Z" />
<glyph unicode="&#x424;" glyph-name="null" horiz-adv-x="759" d="M464 707H509L493 625Q552 620 598 599T675 545T723 469T740 374Q740 309 714 250T639 147T525 76T381 48L364 -40H319L336 50Q277 55 232 76T155 130T107 206T90 301Q90 366 116 424T190 527T304
598T448 627L464 707ZM691 371Q691 413 679 450T641 515T576 562T485 584L389 89Q456 91 511 113T607 174T669 262T691 371ZM139 304Q139 262 151 225T189 160T253 113T344 90L440 586Q373 584 318 561T223 501T161 413T139 304Z" />
<glyph unicode="&#x425;" glyph-name="null" horiz-adv-x="564" d="M346 346L517 0H464L312 312L42 0H-14L292 352L138 667H190L326 387L571 667H627L346 346Z" />
<glyph unicode="&#x426;" glyph-name="null" horiz-adv-x="681" d="M519 -154L548 0H53L182 667H230L109 45H509L630 667H678L557 45H603L565 -154H519Z" />
<glyph unicode="&#x427;" glyph-name="null" horiz-adv-x="598" d="M614 667L485 0H437L495 301Q460 281 416 270T328 258Q288 258 252 269T188 302T144 360T127 443Q127 460 129 476T134 509L164 667H212L184 521Q176 478 176 448Q176 410 188 383T221 338T271
312T334 303Q381 303 428 317T505 351L566 667H614Z" />
<glyph unicode="&#x428;" glyph-name="null" horiz-adv-x="1000" d="M887 0H53L182 667H230L109 45H454L575 667H623L502 45H847L968 667H1016L887 0Z" />
<glyph unicode="&#x429;" glyph-name="null" horiz-adv-x="1019" d="M857 -154L886 0H53L182 667H230L109 45H454L575 667H623L502 45H847L968 667H1016L895 45H941L903 -154H857Z" />
<glyph unicode="&#x42a;" glyph-name="null" horiz-adv-x="670" d="M124 667H328L277 402H438Q486 402 521 389T578 353T612 299T623 230Q623 185 607 143T558 70T475 19T356 0H151L271 624H116L124 667ZM268 357L207 45H363Q409 45 447 56T513 91T556 147T572
225Q572 357 429 357H268Z" />
<glyph unicode="&#x42b;" glyph-name="null" horiz-adv-x="741" d="M709 667H757L628 0H580L709 667ZM182 667H230L179 402H334Q382 402 417 389T474 353T508 299T519 230Q519 185 503 143T454 70T371 19T252 0H53L182 667ZM170 357L109 45H259Q305 45 343 56T409
91T452 147T468 225Q468 357 325 357H170Z" />
<glyph unicode="&#x42c;" glyph-name="null" horiz-adv-x="581" d="M182 667H230L179 402H349Q397 402 432 389T489 353T523 299T534 230Q534 185 518 143T469 70T386 19T267 0H53L182 667ZM170 357L109 45H274Q320 45 358 56T424 91T467 147T483 225Q483 357
340 357H170Z" />
<glyph unicode="&#x42d;" glyph-name="null" horiz-adv-x="657" d="M215 370H588V385Q588 443 574 490T532 570T465 621T376 639Q308 639 251 609T156 531L122 560Q165 611 230 647T378 683Q435 683 482 664T564 606T618 513T638 387Q638 305 613 232T541 104T430
17T288 -16Q208 -16 145 19T50 120L90 140Q124 79 176 54T288 28Q351 28 402 52T491 117T552 211T584 325H206L215 370Z" />
<glyph unicode="&#x42e;" glyph-name="null" horiz-adv-x="986" d="M609 -16Q550 -16 502 4T420 61T366 152T347 274Q347 287 347 299T349 325H164L101 0H53L182 667H230L173 370H357Q371 436 403 493T482 593T585 659T708 683Q766 683 814 663T897 606T951 514T970
392Q970 309 943 235T867 106T752 17T609 -16ZM706 639Q640 639 583 611T484 534T419 420T395 279Q395 223 409 177T450 98T518 47T610 28Q675 28 731 56T830 133T896 248T920 390Q920 446 906 492T865 570T798 621T706 639Z" />
<glyph unicode="&#x42f;" glyph-name="null" horiz-adv-x="573" d="M460 0H414L470 289H349Q308 289 282 271T226 211L77 0H23L184 228Q207 260 224 277T261 301Q201 314 165 355T128 463Q128 508 144 545T192 610T269 652T372 667H589L460 0ZM479 334L535 622H364Q324
622 290 612T231 583T192 534T178 467Q178 410 213 372T323 334H479Z" />
<glyph unicode="&#x430;" glyph-name="null" horiz-adv-x="472" d="M380 240Q355 245 325 248T266 252Q207 252 171 238T115 204T88 160T81 117Q81 77 104 53T179 28Q217 28 249 41T307 76T347 124T368 177L380 240ZM339 0Q340 10 341 17T344 33T347 51T351 77Q309
28 265 8T176 -12Q147 -12 122 -5T78 18T48 57T37 113Q37 149 52 181T96 237T168 275T269 289Q303 289 334 285T387 277L393 309Q396 327 396 343Q396 386 371 412T280 438Q253 438 232 434T195 422T165 406T142 389L120 419Q143 439 185 458T287 478Q365 478 402
442T440 345Q440 333 439 322T435 298L396 97Q392 77 388 56T381 0H339Z" />
<glyph unicode="&#x431;" glyph-name="null" horiz-adv-x="548" d="M333 463Q375 463 409 450T468 411T506 349T520 266Q520 215 502 165T450 76T366 13T256 -12Q207 -12 171 4T111 49T75 115T63 195Q63 255 83 329Q104 413 132 471T203 568T304 626T448 653L548
661L551 621L444 613Q371 607 321 591T235 544T177 470T134 363Q173 412 226 437T333 463ZM259 29Q307 29 346 48T414 101T457 177T473 266Q473 338 435 379T327 420Q279 420 239 402T169 352T122 280T105 194Q105 162 114 133T141 80T189 43T259 29Z" />
<glyph unicode="&#x432;" glyph-name="null" horiz-adv-x="491" d="M90 40H256Q278 40 301 44T344 58T377 87T390 135Q390 179 359 200T273 221H125L90 40ZM133 261H284Q307 261 330 266T371 282T400 312T412 356Q412 391 391 408T329 426H165L133 261ZM37 0L128
466H335Q399 466 429 435T459 361Q459 315 430 283T354 240Q386 231 411 206T436 134Q436 97 420 72T378 30T319 7T250 0H37Z" />
<glyph unicode="&#x433;" glyph-name="null" horiz-adv-x="394" d="M419 424H165L82 0H37L128 466H427L419 424Z" />
<glyph unicode="&#x434;" glyph-name="null" horiz-adv-x="550" d="M528 466L445 42H488L456 -124H413L437 0H28L4 -124H-39L-7 42H36Q76 80 107 129T161 233T203 347T235 466H528ZM475 424H268Q253 363 234 307T193 201T144 111T90 42H400L475 424Z" />
<glyph unicode="&#x435;" glyph-name="null" horiz-adv-x="514" d="M100 195Q100 114 142 72T258 29Q347 29 414 96L442 67Q365 -12 253 -12Q159 -12 107 41T54 189Q54 245 73 297T126 389T208 454T313 478Q357 478 389 464T443 424T475 366T486 294Q486 260 478
222H101Q100 215 100 209T100 195ZM441 261Q444 280 444 300Q444 363 411 400T311 437Q272 437 239 423T179 385T135 329T108 261H441Z" />
<glyph unicode="&#x436;" glyph-name="null" horiz-adv-x="644" d="M313 218H256Q226 218 209 207T174 174L32 0H-20L134 187Q154 211 167 222T199 240Q178 250 167 266T147 305L81 466H123L186 317Q198 289 213 275T255 260H321L362 466H403L362 260H426Q453
260 473 274T516 317L638 466H684L554 305Q537 284 520 267T478 240Q493 234 502 223T523 187L604 0H556L482 174Q473 196 461 207T418 218H354L312 0H271L313 218Z" />
<glyph unicode="&#x437;" glyph-name="null" horiz-adv-x="424" d="M129 218L137 260H210Q243 260 271 265T321 282T355 311T367 354Q367 393 341 415T255 438Q211 438 174 423T102 374L74 401Q109 439 158 458T260 478Q333 478 372 445T412 359Q412 312 378 279T295
238Q330 230 354 202T379 128Q379 92 364 66T322 22T262 -4T189 -12Q129 -12 80 8T5 68L39 94Q88 28 192 28Q219 28 245 33T291 50T323 81T335 129Q335 177 301 197T201 218H129Z" />
<glyph unicode="&#x438;" glyph-name="null" horiz-adv-x="521" d="M172 466L93 64L467 466H513L422 0H378L456 402L83 0H37L128 466H172Z" />
<glyph unicode="&#x439;" glyph-name="null" horiz-adv-x="521" d="M172 466L93 64L467 466H513L422 0H378L456 402L83 0H37L128 466H172ZM271 648V642Q271 612 287 595T336 578Q371 578 395 594T430 648H465Q462 627 452 608T426 574T386 551T335 542Q282 542
258 569T234 631Q234 635 234 639T235 648H271Z" />
<glyph unicode="&#x43a;" glyph-name="null" horiz-adv-x="446" d="M82 0H37L128 466H173L133 260H209Q239 260 260 274T306 317L435 466H486L348 305Q328 282 311 267T267 241Q284 236 296 221T320 182L407 0H357L273 174Q268 185 263 193T250 206T232 215T205
218H125L82 0Z" />
<glyph unicode="&#x43b;" glyph-name="null" horiz-adv-x="544" d="M536 466L445 0H401L484 424H270Q241 308 214 227T156 95T87 21T-2 -2H-6L2 39Q42 39 72 61T130 134T182 266T236 466H536Z" />
<glyph unicode="&#x43c;" glyph-name="null" horiz-adv-x="586" d="M27 0L140 466H180L298 194L524 466H567L498 0H453L515 398L302 145H276L165 397L72 0H27Z" />
<glyph unicode="&#x43d;" glyph-name="null" horiz-adv-x="526" d="M518 466L427 0H382L425 218H125L82 0H37L128 466H173L133 260H433L473 466H518Z" />
<glyph unicode="&#x43e;" glyph-name="null" horiz-adv-x="544" d="M243 -12Q204 -12 170 1T110 41T69 104T54 188Q54 243 73 295T127 387T214 453T329 478Q368 478 402 465T462 425T503 362T518 278Q518 223 500 171T446 79T359 13T243 -12ZM322 437Q271 437
230 417T160 363T116 286T100 196Q100 115 142 72T250 29Q301 29 342 49T412 103T456 180T472 270Q472 351 432 394T322 437Z" />
<glyph unicode="&#x43f;" glyph-name="null" horiz-adv-x="528" d="M520 466L429 0H384L467 424H165L82 0H37L128 466H520Z" />
<glyph unicode="&#x440;" glyph-name="null" horiz-adv-x="517" d="M-1 -200L109 368Q113 387 116 401T120 425T123 445T126 466H167L152 380Q181 419 225 448T334 478Q416 478 455 428T494 290Q494 222 472 167T413 72T324 10T216 -12Q164 -12 135 3T87 32L42
-200H-1ZM96 78Q114 59 144 44T220 29Q263 29 304 45T377 94T428 174T448 285Q448 318 442 345T422 393T384 425T328 437Q286 437 252 420T193 374T150 310T126 236L96 78Z" />
<glyph unicode="&#x441;" glyph-name="null" horiz-adv-x="476" d="M441 356Q406 437 315 437Q267 437 228 417T160 363T116 285T100 195Q100 119 140 74T253 29Q292 29 332 45T403 96L431 67Q393 26 346 7T248 -12Q159 -12 107 41T54 189Q54 245 73 297T128 389T211
454T316 478Q378 478 418 450T477 374L441 356Z" />
<glyph unicode="&#x442;" glyph-name="null" horiz-adv-x="445" d="M169 0L252 424H77L85 466H480L472 424H297L214 0H169Z" />
<glyph unicode="&#x443;" glyph-name="null" horiz-adv-x="445" d="M-18 -152Q-9 -161 5 -167T36 -174Q64 -174 82 -156T121 -100L180 4L70 466H117L210 55L444 466H491L154 -117Q145 -132 134 -149T109 -180T78 -203T39 -212Q12 -212 -7 -205T-42 -181L-18 -152Z" />
<glyph unicode="&#x444;" glyph-name="null" horiz-adv-x="653" d="M403 667H448L410 471Q461 467 501 451T570 407T612 344T627 265Q627 213 606 165T544 79T446 18T316 -7L279 -200H234L272 -5Q221 -1 181 15T113 59T71 122T56 201Q56 253 77 301T139 386T236
447T365 473L403 667ZM581 259Q581 328 538 376T402 432L324 32Q381 34 428 52T509 101T562 172T581 259ZM102 207Q102 173 113 143T145 90T200 52T279 33L357 434Q300 431 254 413T173 364T121 294T102 207Z" />
<glyph unicode="&#x445;" glyph-name="null" horiz-adv-x="439" d="M259 247L391 0H342L227 214L34 0H-17L210 251L96 466H145L241 283L406 466H457L259 247Z" />
<glyph unicode="&#x446;" glyph-name="null" horiz-adv-x="538" d="M476 42L444 -124H401L425 0H37L128 466H173L90 42H388L471 466H516L433 42H476Z" />
<glyph unicode="&#x447;" glyph-name="null" horiz-adv-x="472" d="M464 466L373 0H328L368 205Q359 199 345 194T315 184T283 176T252 173Q171 173 126 211T81 314Q81 335 85 354L107 466H151L131 366Q129 355 128 345T126 323Q126 270 159 242T260 213Q293 213
324 223T376 246L419 466H464Z" />
<glyph unicode="&#x448;" glyph-name="null" horiz-adv-x="791" d="M37 0L128 466H173L90 42H350L433 466H478L395 42H655L738 466H783L692 0H37Z" />
<glyph unicode="&#x449;" glyph-name="null" horiz-adv-x="805" d="M743 42L711 -124H668L692 0H37L128 466H173L90 42H350L433 466H478L395 42H655L738 466H783L700 42H743Z" />
<glyph unicode="&#x44a;" glyph-name="null" horiz-adv-x="545" d="M255 466L222 296H358Q428 296 466 259T504 162Q504 128 491 99T455 47T398 13T324 0H119L202 424H77L85 466H255ZM172 40H335Q360 40 382 48T421 72T448 110T458 159Q458 200 434 228T351 256H214L172
40Z" />
<glyph unicode="&#x44b;" glyph-name="null" horiz-adv-x="626" d="M527 0H482L573 466H618L527 0ZM90 40H255Q280 40 302 48T341 72T368 110T378 159Q378 200 354 228T271 256H132L90 40ZM173 466L140 296H278Q348 296 386 259T424 162Q424 128 411 99T375 47T318
13T244 0H37L128 466H173Z" />
<glyph unicode="&#x44c;" glyph-name="null" horiz-adv-x="471" d="M90 40H261Q286 40 308 48T347 72T374 110T384 159Q384 200 360 228T277 256H132L90 40ZM173 466L140 296H284Q354 296 392 259T430 162Q430 128 417 99T381 47T324 13T250 0H37L128 466H173Z" />
<glyph unicode="&#x44d;" glyph-name="null" horiz-adv-x="476" d="M163 259H402V267Q402 309 391 341T361 394T315 426T257 437Q216 437 178 420T109 370L81 399Q115 436 164 457T265 478Q304 478 337 465T395 425T434 361T448 272Q448 217 431 166T382 75T303
12T200 -12Q140 -12 96 15T26 92L61 112Q107 29 202 29Q244 29 277 44T335 85T376 145T398 217H154L163 259Z" />
<glyph unicode="&#x44e;" glyph-name="null" horiz-adv-x="727" d="M445 -12Q404 -12 370 1T310 41T271 104T257 189Q257 196 257 203T258 218H125L82 0H37L128 466H173L133 260H265Q275 304 297 343T352 413T424 460T513 478Q554 478 588 465T648 425T687 362T701
277Q701 223 683 171T631 79T550 13T445 -12ZM511 437Q463 437 425 417T359 363T316 285T301 194Q301 114 342 72T449 29Q495 29 533 49T598 104T640 182T655 274Q655 352 617 394T511 437Z" />
<glyph unicode="&#x44f;" glyph-name="null" horiz-adv-x="475" d="M376 0H331L369 192H253Q237 192 225 190T202 181T181 165T158 137L59 0H9L121 151Q137 173 148 183T175 202Q158 206 143 215T115 237T95 270T87 317Q87 353 101 380T139 427T198 456T273 466H467L376
0ZM376 232L414 426H270Q204 426 169 398T133 318Q133 273 158 253T220 232H376Z" />
<glyph unicode="&#x450;" glyph-name="null" horiz-adv-x="514" d="M100 195Q100 114 142 72T258 29Q347 29 414 96L442 67Q365 -12 253 -12Q159 -12 107 41T54 189Q54 245 73 297T126 389T208 454T313 478Q357 478 389 464T443 424T475 366T486 294Q486 260 478
222H101Q100 215 100 209T100 195ZM441 261Q444 280 444 300Q444 363 411 400T311 437Q272 437 239 423T179 385T135 329T108 261H441ZM267 676H319L351 548H313L267 676Z" />
<glyph unicode="&#x451;" glyph-name="null" horiz-adv-x="514" d="M100 195Q100 114 142 72T258 29Q347 29 414 96L442 67Q365 -12 253 -12Q159 -12 107 41T54 189Q54 245 73 297T126 389T208 454T313 478Q357 478 389 464T443 424T475 366T486 294Q486 260 478
222H101Q100 215 100 209T100 195ZM441 261Q444 280 444 300Q444 363 411 400T311 437Q272 437 239 423T179 385T135 329T108 261H441ZM383 633H441L428 571H370L383 633ZM241 633H299L286 571H228L241 633Z" />
<glyph unicode="&#x452;" glyph-name="null" horiz-adv-x="517" d="M142 540H65L73 580H150L166 667H211L195 580H366L358 540H187L153 368Q169 389 187 407T228 440T276 463T334 472Q374 472 401 458T446 418T471 357T479 281Q479 217 463 151T416 20T344 -102T250
-207L222 -177Q269 -134 308 -80T375 35T418 157T434 280Q434 352 410 391T328 430Q289 430 255 413T195 367T152 305T128 237L82 0H37L142 540Z" />
<glyph unicode="&#x453;" glyph-name="null" horiz-adv-x="394" d="M419 424H165L82 0H37L128 466H427L419 424ZM343 667H397L308 539H266L343 667Z" />
<glyph unicode="&#x454;" glyph-name="null" horiz-adv-x="481" d="M440 357Q404 437 315 437Q275 437 241 423T180 385T135 328T107 259H351L342 217H100Q99 211 99 206T99 195Q99 119 140 74T253 29Q292 29 332 45T403 96L431 67Q393 26 346 7T248 -12Q159 -12
107 41T54 189Q54 245 73 297T128 389T211 454T316 478Q379 478 419 450T477 374L440 357Z" />
<glyph unicode="&#x455;" glyph-name="null" horiz-adv-x="435" d="M55 85Q90 53 130 41T212 28Q279 28 305 53T332 118Q332 139 326 153T306 179T271 200T220 223Q194 233 172 244T133 269T107 302T97 349Q97 379 109 403T142 443T193 469T258 478Q355 478 415
410L384 384Q359 411 329 425T256 439Q200 439 171 416T142 353Q142 332 150 318T172 294T207 275T251 256Q289 239 313 225T352 195T373 162T379 124Q379 59 334 24T208 -12Q157 -12 112 3T28 53L55 85Z" />
<glyph unicode="&#x456;" glyph-name="null" horiz-adv-x="179" d="M151 628H212L199 563H138L151 628ZM128 466H171L80 0H37L128 466Z" />
<glyph unicode="&#x457;" glyph-name="null" horiz-adv-x="179" d="M128 466H171L81 0H38L128 466ZM224 627H282L269 565H211L224 627ZM82 627H140L127 565H69L82 627Z" />
<glyph unicode="&#x458;" glyph-name="null" horiz-adv-x="180" d="M-127 -134Q-111 -150 -97 -155T-66 -161Q-52 -161 -39 -158T-13 -142T11 -104T31 -34L128 466H172L73 -43Q67 -76 58 -104T33 -154T-5 -188T-62 -200Q-88 -200 -112 -191T-153 -164L-127 -134ZM151
626H212L200 563H139L151 626Z" />
<glyph unicode="&#x459;" glyph-name="null" horiz-adv-x="824" d="M531 466L498 296H637Q707 296 745 259T783 162Q783 128 770 99T734 47T677 13T603 0H395L478 424H270Q241 308 214 227T156 95T87 21T-2 -2H-6L2 39Q42 39 72 61T130 134T182 266T236 466H531ZM490
256L448 40H614Q639 40 661 48T700 72T727 110T737 159Q737 200 713 228T630 256H490Z" />
<glyph unicode="&#x45a;" glyph-name="null" horiz-adv-x="805" d="M376 0L423 240H129L82 0H37L128 466H173L137 280H431L467 466H512L476 280H626Q692 280 728 245T764 153Q764 121 752 93T718 45T664 12T594 0H376ZM429 40H604Q627 40 648 48T684 70T709 104T718
150Q718 169 713 185T695 214T665 233T619 240H468L429 40Z" />
<glyph unicode="&#x45b;" glyph-name="null" horiz-adv-x="513" d="M150 580L167 667H211L194 580H365L357 540H186L153 369Q169 389 187 407T228 440T278 463T340 472Q413 472 445 432T477 328Q477 297 471 264L420 0H376L425 255Q432 293 432 324Q432 381 408
406T333 431Q292 431 258 414T198 370T153 307T128 237L82 0H38L142 540H66L74 580H150Z" />
<glyph unicode="&#x45c;" glyph-name="null" horiz-adv-x="446" d="M82 0H37L128 466H173L133 260H209Q239 260 260 274T306 317L435 466H486L348 305Q328 282 311 267T267 241Q284 236 296 221T320 182L407 0H357L273 174Q268 185 263 193T250 206T232 215T205
218H125L82 0ZM358 673H412L323 545H281L358 673Z" />
<glyph unicode="&#x45d;" glyph-name="null" horiz-adv-x="521" d="M172 466L93 64L467 466H513L422 0H378L456 402L83 0H37L128 466H172ZM271 676H323L355 548H317L271 676Z" />
<glyph unicode="&#x45e;" glyph-name="null" horiz-adv-x="445" d="M-18 -152Q-9 -161 5 -167T36 -174Q64 -174 82 -156T121 -100L180 4L70 466H117L210 55L444 466H491L154 -117Q145 -132 134 -149T109 -180T78 -203T39 -212Q12 -212 -7 -205T-42 -181L-18 -152ZM246
648V642Q246 612 262 595T311 578Q346 578 370 594T405 648H440Q437 627 427 608T401 574T361 551T310 542Q257 542 233 569T209 631Q209 635 209 639T210 648H246Z" />
<glyph unicode="&#x45f;" glyph-name="null" horiz-adv-x="524" d="M37 0L128 466H173L90 42H388L471 466H516L425 0H253L229 -124H186L210 0H37Z" />
<glyph unicode="&#x462;" glyph-name="null" horiz-adv-x="724" d="M333 708H381L361 602H608L599 559H352L320 397H492Q540 397 575 384T632 349T666 295T677 227Q677 182 661 141T612 69T529 19T410 0H196L304 559H103L112 602H312L333 708ZM311 352L252 45H417Q463
45 501 56T567 90T610 146T626 222Q626 352 483 352H311Z" />
<glyph unicode="&#x463;" glyph-name="null" horiz-adv-x="583" d="M278 424L252 291H399Q468 291 505 255T543 159Q543 126 531 97T495 47T439 13T366 0H150L233 424H77L85 466H241L280 666H325L286 466H470L462 424H278ZM203 40H377Q401 40 423 48T461 71T487
107T497 156Q497 196 473 223T393 251H244L203 40Z" />
<glyph unicode="&#x472;" glyph-name="null" horiz-adv-x="743" d="M349 -16Q291 -16 243 5T159 63T104 152T84 263Q84 354 113 431T193 564T313 651T464 683Q521 683 569 662T653 604T708 515T728 404Q728 313 700 236T621 103T501 16T349 -16ZM132 271Q132 220
146 176T188 99T257 47T352 28Q413 28 467 49T563 109T633 201T673 320H134Q133 308 133 296T132 271ZM460 639Q400 639 348 619T254 563T183 477T141 365H679Q679 373 679 380T680 396Q680 448 666 492T623 569T554 620T460 639Z" />
<glyph unicode="&#x473;" glyph-name="null" horiz-adv-x="544" d="M243 -12Q204 -12 170 1T110 41T69 104T54 188Q54 243 73 295T127 387T214 453T329 478Q368 478 402 465T462 425T503 362T518 278Q518 223 500 171T446 79T359 13T243 -12ZM98 216V196Q98 115
141 72T250 29Q293 29 329 44T394 84T441 144T468 216H98ZM322 437Q279 437 243 423T180 384T133 327T105 257H474V270Q474 351 433 394T322 437Z" />
<glyph unicode="&#x474;" glyph-name="null" horiz-adv-x="697" d="M117 667H167L282 59L567 572Q599 630 638 651T721 673Q738 673 758 670L750 625Q742 626 736 626T722 626Q690 626 662 612T608 551L294 0H250L117 667Z" />
<glyph unicode="&#x475;" glyph-name="null" horiz-adv-x="528" d="M69 466H116L201 55L396 388Q420 430 448 451T517 472Q532 472 549 469L541 429Q535 430 529 430T518 431Q491 431 472 417T432 369L211 0H172L69 466Z" />
<glyph unicode="&#x48a;" glyph-name="null" horiz-adv-x="694" d="M454 -125Q492 -102 519 -72T559 0H513L628 594L105 0H53L182 667H229L112 69L639 667H689L568 45H614L609 19Q598 -41 563 -88T474 -163L454 -125ZM378 841Q378 805 398 789T446 773Q478 773
505 786T548 841H589Q582 814 568 794T534 761T492 742T446 735Q426 735 407 740T372 758T348 790T338 841H378Z" />
<glyph unicode="&#x48b;" glyph-name="null" horiz-adv-x="534" d="M172 466L93 64L467 466H513L430 42H473L469 20Q459 -30 430 -70T355 -133L336 -99Q366 -80 388 -56T421 0H378L456 402L83 0H37L128 466H172ZM271 648V642Q271 612 287 595T336 578Q371 578
395 594T430 648H465Q462 627 452 608T426 574T386 551T335 542Q282 542 258 569T234 631Q234 635 234 639T235 648H271Z" />
<glyph unicode="&#x48c;" glyph-name="null" horiz-adv-x="596" d="M167 513H89L98 555H176L197 667H245L224 555H389L380 513H215L193 397H364Q412 397 447 384T504 349T538 295T549 227Q549 182 533 141T484 69T401 19T282 0H68L167 513ZM184 352L123 45H289Q335
45 373 56T439 90T482 146T498 222Q498 352 355 352H184Z" />
<glyph unicode="&#x48d;" glyph-name="null" horiz-adv-x="481" d="M140 480H185L170 404H339L332 364H162L147 286H298Q366 286 402 250T439 157Q439 124 427 96T392 46T337 12T265 0H46L117 364H41L48 404H125L140 480ZM99 40H276Q300 40 321 48T358 70T383
106T393 153Q393 192 370 219T291 246H139L99 40Z" />
<glyph unicode="&#x48e;" glyph-name="null" horiz-adv-x="556" d="M182 667H366Q418 667 455 654T517 619T552 568T564 508Q564 432 529 377T416 298L448 210L408 196L375 289Q358 286 341 285T305 284H155L100 0H53L182 667ZM361 455L402 338Q456 353 485 392T515
502Q515 556 483 589T381 623H220L163 328H324Q333 328 342 328T360 330L321 441L361 455Z" />
<glyph unicode="&#x48f;" glyph-name="null" horiz-adv-x="517" d="M-1 -200L109 368Q113 387 116 401T120 425T123 445T126 466H167L152 380Q181 419 225 448T334 478Q417 478 455 426T494 290Q494 202 458 135T361 30L392 -55L354 -69L325 11Q299 0 272 -6T215
-12Q164 -12 135 3T87 32L42 -200H-1ZM305 190L348 67Q394 99 421 154T448 285Q448 318 442 346T422 394T384 425T328 437Q286 437 252 420T193 374T150 310T126 236L96 78Q116 58 147 44T223 29Q271 29 312 47L266 176L305 190Z" />
<glyph unicode="&#x490;" glyph-name="null" horiz-adv-x="475" d="M145 667H504L531 803H577L542 624H185L63 0H15L145 667Z" />
<glyph unicode="&#x491;" glyph-name="null" horiz-adv-x="380" d="M434 575L405 424H146L64 0H19L109 466H370L391 575H434Z" />
<glyph unicode="&#x492;" glyph-name="null" horiz-adv-x="519" d="M47 300L55 342H132L195 667H594L586 624H235L180 342H352L344 300H172L114 0H66L124 300H47Z" />
<glyph unicode="&#x493;" glyph-name="null" horiz-adv-x="402" d="M9 203L16 243H93L137 466H435L427 424H174L138 243H283L276 203H130L91 0H46L85 203H9Z" />
<glyph unicode="&#x494;" glyph-name="null" horiz-adv-x="611" d="M182 667H562L553 624H221L178 400Q212 416 247 424T318 433Q366 433 408 417T483 368T533 286T552 169Q552 86 523 16T446 -104T335 -182T203 -210Q181 -210 157 -207T107 -197L119 -154Q142
-160 162 -162T202 -165Q257 -165 310 -142T407 -76T476 29T503 169Q503 231 486 273T442 341T381 378T310 390Q272 390 237 380T169 355L100 0H52L182 667Z" />
<glyph unicode="&#x495;" glyph-name="null" horiz-adv-x="496" d="M442 424H164L133 266Q160 278 188 285T247 292Q288 292 323 279T385 240T426 176T441 86Q441 24 419 -27T360 -116T274 -174T172 -195Q130 -195 91 -182L104 -142Q138 -151 171 -151Q220 -151
261 -133T333 -82T379 -8T396 84Q396 126 384 157T351 210T302 241T241 252Q211 252 182 244T125 222L82 0H37L128 466H451L442 424Z" />
<glyph unicode="&#x496;" glyph-name="null" horiz-adv-x="818" d="M474 667H518L460 370H536Q568 370 594 386T646 439L801 667H851L682 418Q666 395 645 377T598 347Q624 339 638 321T663 266L731 45H781L743 -154H697L727 0H697L623 248Q610 291 588 308T536
325H452L389 0H345L408 325H329Q300 325 271 309T212 248L42 0H-10L173 266Q186 285 197 298T220 321T244 337T270 347Q228 369 214 418L141 667H186L253 439Q264 403 284 387T337 370H416L474 667Z" />
<glyph unicode="&#x497;" glyph-name="null" horiz-adv-x="654" d="M313 218H256Q226 218 209 207T174 174L32 0H-20L134 187Q154 211 167 222T199 240Q178 250 167 266T147 305L81 466H123L186 317Q198 289 213 275T255 260H321L362 466H403L362 260H426Q453
260 473 274T516 317L638 466H684L554 305Q537 284 520 267T478 240Q493 234 502 223T523 187L585 42H629L597 -124H554L578 0H556L482 174Q473 196 461 207T418 218H354L312 0H271L313 218Z" />
<glyph unicode="&#x498;" glyph-name="null" horiz-adv-x="547" d="M199 325L208 370H311Q342 370 373 379T430 407T471 454T487 522Q487 554 476 576T445 613T401 633T348 639Q311 639 282 630T231 608T192 578T165 547L128 574Q137 588 156 606T203 642T269
671T354 683Q399 683 433 672T490 639T525 590T537 529Q537 496 526 466T494 412T446 370T383 346Q402 341 421 331T457 303T484 259T495 197Q495 150 476 111T425 43T348 0T255 -16Q208 -16 170 -3T104 29T58 70T33 110L72 134Q79 119 94 101T133 66T188 39T258
28Q297 28 331 40T391 74T430 126T445 194Q445 230 432 254T399 295T354 318T303 325H199ZM127 -163Q140 -169 157 -174T199 -179Q234 -179 257 -165T280 -124Q280 -90 226 -90Q207 -90 190 -93T150 -104L162 -68Q179 -63 197 -58T246 -53Q289 -53 307 -73T326
-120Q326 -168 289 -192T197 -217Q170 -217 149 -211T114 -197L127 -163Z" />
<glyph unicode="&#x499;" glyph-name="null" horiz-adv-x="429" d="M129 218L137 260H210Q243 260 271 265T321 282T355 311T367 354Q367 393 341 415T255 438Q211 438 174 423T102 374L74 401Q109 439 158 458T260 478Q333 478 372 445T412 359Q412 312 378 279T295
238Q330 230 354 202T379 128Q379 92 364 66T322 22T262 -4T189 -12Q129 -12 80 8T5 68L39 94Q88 28 192 28Q219 28 245 33T291 50T323 81T335 129Q335 177 301 197T201 218H129ZM62 -165Q74 -171 91 -176T132 -182Q169 -182 191 -167T214 -126Q214 -90 159 -90Q140
-90 124 -93T85 -105L96 -71Q111 -66 130 -61T178 -56Q218 -56 236 -77T255 -122Q255 -145 245 -163T218 -193T178 -211T130 -217Q104 -217 84 -211T49 -197L62 -165Z" />
<glyph unicode="&#x49a;" glyph-name="null" horiz-adv-x="574" d="M441 -154L470 0H450L348 248Q330 291 305 308T245 325H164L101 0H53L182 667H230L172 370H248Q286 370 312 384T362 428L553 667H610L405 413Q385 388 365 372T320 346Q345 338 360 320T391
266L485 45H525L487 -154H441Z" />
<glyph unicode="&#x49b;" glyph-name="null" horiz-adv-x="477" d="M83 0H38L129 466H174L134 260H210Q240 260 261 274T307 317L436 466H487L349 305Q329 282 312 267T268 241Q285 236 297 221T321 182L388 42H435L402 -124H359L383 0H358L274 174Q269 185 264
193T251 206T233 215T206 218H126L83 0Z" />
<glyph unicode="&#x49c;" glyph-name="null" horiz-adv-x="540" d="M79 0H31L160 667H208L150 370H210L236 500H278L252 371Q284 374 306 388T350 428L541 667H598L393 413Q373 388 353 372T308 346Q333 338 348 320T379 266L492 0H438L336 248Q319 287 296 304T243
324L216 183H174L202 325H142L79 0Z" />
<glyph unicode="&#x49d;" glyph-name="null" horiz-adv-x="449" d="M76 0H31L122 466H167L127 260H186L207 370H246L225 260Q250 263 268 277T309 317L438 466H489L351 305Q331 282 314 267T270 241Q287 236 299 221T323 182L410 0H360L276 174Q266 194 255 205T216
218L196 110H157L178 218H119L76 0Z" />
<glyph unicode="&#x49e;" glyph-name="null" horiz-adv-x="546" d="M93 0H45L146 526H68L76 568H154L174 667H222L203 568H285L277 526H195L164 370H240Q278 370 304 384T354 428L545 667H602L397 413Q377 388 357 372T312 346Q337 338 352 320T383 266L496 0H442L340
248Q322 291 297 308T237 325H156L93 0Z" />
<glyph unicode="&#x49f;" glyph-name="null" horiz-adv-x="449" d="M85 0H40L110 359H33L41 399H118L131 466H176L163 399H227L219 359H155L136 260H212Q242 260 263 274T309 317L438 466H489L351 305Q331 282 314 267T270 241Q287 236 299 221T323 182L410 0H360L276
174Q271 185 266 193T253 206T235 215T208 218H128L85 0Z" />
<glyph unicode="&#x4a0;" glyph-name="null" horiz-adv-x="640" d="M197 0H149L269 624H115L123 667H326L268 370H334Q372 370 398 384T448 428L639 667H696L491 413Q471 388 451 372T406 346Q431 338 446 320T477 266L590 0H536L434 248Q416 291 391 308T331
325H260L197 0Z" />
<glyph unicode="&#x4a1;" glyph-name="null" horiz-adv-x="519" d="M162 0H117L200 424H77L85 466H253L213 260H287Q316 260 335 275T379 317L508 466H559L421 305Q401 282 384 267T340 241Q357 236 369 221T393 182L480 0H430L347 174Q342 185 337 193T325 206T308
215T283 218H205L162 0Z" />
<glyph unicode="&#x4a2;" glyph-name="null" horiz-adv-x="680" d="M518 -154L547 0H501L564 326H163L100 0H53L182 667H229L171 370H572L630 667H677L556 45H602L564 -154H518Z" />
<glyph unicode="&#x4a3;" glyph-name="null" horiz-adv-x="540" d="M518 466L435 42H478L446 -124H403L427 0H382L425 218H125L82 0H37L128 466H173L133 260H433L473 466H518Z" />
<glyph unicode="&#x4a4;" glyph-name="null" horiz-adv-x="747" d="M182 667H229L171 370H562L620 667H822L814 624H658L538 0H491L554 326H163L100 0H53L182 667Z" />
<glyph unicode="&#x4a5;" glyph-name="null" horiz-adv-x="599" d="M634 466L626 424H503L420 0H375L418 218H125L82 0H37L128 466H173L133 260H426L466 466H634Z" />
<glyph unicode="&#x4a6;" glyph-name="null" horiz-adv-x="1030" d="M182 667H667L619 421Q649 434 681 441T745 448Q793 448 836 432T911 382T962 298T981 179Q981 93 952 22T875 -101T763 -181T630 -210Q607 -210 583 -207T533 -197L545 -154Q568 -160 588 -162T629
-165Q684 -165 738 -141T836 -73T905 35T932 179Q932 243 915 286T871 355T808 393T737 405Q704 405 672 397T610 376L537 0H489L610 622H221L100 0H52L182 667Z" />
<glyph unicode="&#x4a7;" glyph-name="null" horiz-adv-x="840" d="M513 466L475 274Q534 302 594 302Q634 302 669 289T730 249T771 183T786 92Q786 29 764 -24T705 -115T618 -174T515 -195Q473 -195 434 -182L447 -142Q481 -151 515 -151Q565 -151 606 -132T678
-80T724 -3T741 91Q741 134 729 166T696 219T647 251T586 262Q555 262 525 254T467 231L422 0H377L459 424H164L82 0H37L128 466H513Z" />
<glyph unicode="&#x4a8;" glyph-name="null" horiz-adv-x="750" d="M566 614Q541 625 513 631T453 638Q386 638 328 610T227 534T159 422T134 284Q134 226 150 179T196 97T272 45T376 26Q387 26 401 27T429 31Q385 66 360 125T334 259Q334 319 351 369T398 455T468
512T557 533Q594 533 625 520T678 482T713 422T725 342Q725 294 711 248T672 160T610 85T531 27Q541 25 551 24T572 23Q604 23 628 29T678 47L692 12Q668 0 635 -8T568 -16Q542 -16 520 -11T476 3Q421 -16 364 -16Q302 -16 251 5T163 65T105 159T84 281Q84 362
113 435T194 563T313 650T457 682Q489 682 521 676T584 656L566 614ZM677 337Q677 414 642 452T552 490Q516 490 485 474T431 427T395 353T382 256Q382 184 407 129T480 46Q525 65 561 95T623 164T663 247T677 337Z" />
<glyph unicode="&#x4a9;" glyph-name="null" horiz-adv-x="542" d="M393 430Q378 435 362 437T328 440Q282 440 241 421T168 369T119 292T101 198Q101 163 111 132T140 76T189 38T258 24Q275 24 293 27Q264 51 246 88T228 174Q228 214 240 247T273 306T324 345T386
359Q439 359 473 324T507 228Q507 197 498 168T471 112T430 62T378 23Q390 20 405 20Q441 20 478 37L491 7Q450 -12 405 -12Q369 -12 333 2Q293 -12 250 -12Q203 -12 167 4T106 49T67 114T54 195Q54 250 74 301T131 391T219 454T331 478Q370 478 405 466L393 430ZM267
175Q267 128 285 94T335 39Q364 51 388 71T429 115T456 168T466 226Q466 274 443 297T384 321Q360 321 339 311T301 281T276 235T267 175Z" />
<glyph unicode="&#x4aa;" glyph-name="null" horiz-adv-x="645" d="M633 527Q603 590 557 614T446 639Q381 639 325 612T226 535T159 419T134 271Q134 220 149 176T193 99T260 47T349 28Q424 28 476 58T566 136L600 107Q555 53 494 19T345 -16Q289 -16 242 5T159
63T104 152T84 263Q84 354 113 431T191 564T308 651T451 683Q526 683 584 649T672 547L633 527ZM203 -163Q216 -169 233 -174T275 -179Q310 -179 333 -165T356 -124Q356 -90 302 -90Q283 -90 266 -93T226 -104L238 -68Q255 -63 273 -58T322 -53Q365 -53 383 -73T402
-120Q402 -168 365 -192T273 -217Q246 -217 225 -211T190 -197L203 -163Z" />
<glyph unicode="&#x4ab;" glyph-name="null" horiz-adv-x="476" d="M441 356Q406 437 315 437Q267 437 228 417T160 363T116 285T100 195Q100 119 140 74T253 29Q292 29 332 45T403 96L431 67Q393 26 346 7T248 -12Q159 -12 107 41T54 189Q54 245 73 297T128 389T211
454T316 478Q378 478 418 450T477 374L441 356ZM114 -165Q126 -171 143 -176T184 -182Q221 -182 243 -167T266 -126Q266 -90 211 -90Q192 -90 176 -93T137 -105L148 -71Q163 -66 182 -61T230 -56Q270 -56 288 -77T307 -122Q307 -145 297 -163T270 -193T230 -211T182
-217Q156 -217 136 -211T101 -197L114 -165Z" />
<glyph unicode="&#x4ac;" glyph-name="null" horiz-adv-x="591" d="M260 -154L289 0H243L364 625H115L123 667H666L658 625H411L298 45H344L306 -154H260Z" />
<glyph unicode="&#x4ad;" glyph-name="null" horiz-adv-x="445" d="M169 0L252 424H77L85 466H480L472 424H297L222 42H266L233 -124H190L214 0H169Z" />
<glyph unicode="&#x4ae;" glyph-name="null" horiz-adv-x="511" d="M258 308L110 667H162L288 351L537 667H593L305 308L246 0H199L258 308Z" />
<glyph unicode="&#x4af;" glyph-name="null" horiz-adv-x="444" d="M69 466H116L202 64L445 466H492L215 16L174 -200H132L173 15L69 466Z" />
<glyph unicode="&#x4b0;" glyph-name="null" horiz-adv-x="511" d="M92 266L100 308H258L110 667H162L288 351L537 667H593L305 308H462L454 266H297L246 0H199L250 266H92Z" />
<glyph unicode="&#x4b1;" glyph-name="null" horiz-adv-x="444" d="M46 0L53 40H167L69 466H116L201 60L445 466H492L230 40H345L338 0H212L174 -200H132L170 0H46Z" />
<glyph unicode="&#x4b2;" glyph-name="null" horiz-adv-x="609" d="M463 -154L492 0H464L312 312L42 0H-14L292 352L138 667H190L326 387L571 667H627L346 346L495 45H547L509 -154H463Z" />
<glyph unicode="&#x4b3;" glyph-name="null" horiz-adv-x="474" d="M210 251L96 466H145L241 283L406 466H457L259 247L368 42H419L386 -124H343L367 0H342L227 214L34 0H-17L210 251Z" />
<glyph unicode="&#x4b4;" glyph-name="null" horiz-adv-x="831" d="M668 -154L698 0H195L316 624H115L123 667H579L571 624H364L251 45H659L780 667H828L707 45H752L714 -154H668Z" />
<glyph unicode="&#x4b5;" glyph-name="null" horiz-adv-x="651" d="M146 0L229 424H77L85 466H433L425 424H274L199 42H501L584 466H629L546 42H589L557 -124H514L538 0H146Z" />
<glyph unicode="&#x4b6;" glyph-name="null" horiz-adv-x="618" d="M456 -154L485 0H437L495 301Q460 281 416 270T327 258Q287 258 251 269T188 302T144 360T127 444Q127 460 129 476T134 509L164 667H212L184 521Q176 478 176 446Q176 409 188 382T221 338T270
312T333 303Q380 303 427 317T505 351L566 667H614L494 45H538L500 -154H456Z" />
<glyph unicode="&#x4b7;" glyph-name="null" horiz-adv-x="483" d="M461 466L378 42H422L389 -124H346L370 0H325L365 205Q356 199 342 194T313 184T281 176T250 173Q170 173 126 211T81 314Q81 335 85 354L107 466H151L131 366Q126 341 126 323Q126 270 158 242T258
213Q291 213 322 223T373 246L416 466H461Z" />
<glyph unicode="&#x4b8;" glyph-name="null" horiz-adv-x="604" d="M620 667L491 0H443L501 301Q465 281 420 270T330 258L307 141H263L286 261Q253 266 224 279T174 315T140 370T127 444Q127 460 129 476T134 509L164 667H212L184 521Q176 478 176 446Q176 382
209 347T295 303L325 458H369L338 300Q386 300 433 314T511 351L572 667H620Z" />
<glyph unicode="&#x4b9;" glyph-name="null" horiz-adv-x="474" d="M466 466L375 0H330L370 205Q351 194 317 184T253 173H247L229 79H188L207 176Q147 187 114 223T81 314Q81 335 85 354L107 466H151L131 366Q129 354 128 344T126 323Q126 279 147 252T214 215L238
339H279L254 211H261Q295 211 326 222T378 246L421 466H466Z" />
<glyph unicode="&#x4ba;" glyph-name="null" horiz-adv-x="607" d="M56 0L185 667H233L179 390Q215 410 260 422T351 434Q391 434 428 423T493 390T537 332T554 248Q554 232 552 216T547 183L512 0H464L497 171Q505 214 505 246Q505 283 493 310T460 354T409 380T346
389Q296 389 249 375T169 341L104 0H56Z" />
<glyph unicode="&#x4bb;" glyph-name="null" horiz-adv-x="513" d="M167 667H211L154 375Q170 395 188 413T229 446T279 469T341 478Q414 478 446 438T478 334Q478 303 472 270L420 0H376L426 261Q433 299 433 330Q433 387 409 412T334 437Q293 437 259 420T199
376T154 313T129 243L82 0H38L167 667Z" />
<glyph unicode="&#x4bc;" glyph-name="null" horiz-adv-x="821" d="M155 519Q138 499 128 479T117 435Q117 403 136 387T187 370H193Q206 435 237 492T314 591T417 658T542 683Q611 683 660 660T740 597T786 508T801 406Q801 386 799 367T793 327H236Q234 316
234 305T234 282Q234 157 294 93T459 28Q482 28 509 32T567 46T628 76T690 125L721 95Q670 43 602 14T457 -16Q396 -16 346 4T259 62T204 154T184 278Q184 290 184 302T186 327Q136 328 105 355T74 431Q74 464 88 492T124 544L155 519ZM752 370Q753 379 753 388T754
406Q754 451 742 493T703 567T636 618T541 638Q490 638 442 620T353 567T284 483T242 370H752Z" />
<glyph unicode="&#x4bd;" glyph-name="null" horiz-adv-x="600" d="M119 397Q105 380 96 361T86 320Q86 261 151 261Q161 306 183 345T238 414T310 461T397 478Q423 478 453 471T510 444T554 387T572 292Q572 281 571 262T564 222H190Q189 215 189 209T189 195Q189
114 231 72T348 29Q391 29 431 45T503 96L531 67Q454 -12 342 -12Q247 -12 195 42T143 189Q143 197 143 205T145 222Q100 224 73 248T46 316Q46 346 58 371T91 418L119 397ZM527 261Q530 282 530 301Q530 342 518 368T486 410T442 431T396 437Q358 437 325 423T267
385T224 329T197 261H527Z" />
<glyph unicode="&#x4be;" glyph-name="null" horiz-adv-x="821" d="M391 -154L418 -13Q365 -7 322 15T248 74T201 163T184 278Q184 290 184 302T186 327Q136 328 105 355T74 431Q74 464 88 492T124 544L155 519Q138 499 128 479T117 435Q117 403 136 387T187 370H193Q206
435 237 492T314 591T417 658T542 683Q611 683 660 660T740 597T786 508T801 406Q801 386 799 367T793 327H236Q234 316 234 305T234 282Q234 157 294 92T459 26Q482 26 509 30T567 45T628 76T690 125L721 95Q670 44 604 15T464 -16L437 -154H391ZM752 370Q753
379 753 388T754 406Q754 451 742 493T703 567T636 618T541 638Q490 638 442 620T353 567T284 483T242 370H752Z" />
<glyph unicode="&#x4bf;" glyph-name="null" horiz-adv-x="602" d="M533 67Q456 -12 344 -12H339L318 -124H275L297 -8Q224 5 185 56T145 189Q145 197 145 205T147 222Q102 224 75 248T48 316Q48 346 60 371T93 418L121 397Q107 380 98 361T88 320Q88 261 153
261Q163 306 185 345T240 414T312 461T399 478Q425 478 455 471T512 444T556 387T574 292Q574 281 573 262T566 222H192Q191 215 191 209T191 195Q191 114 233 71T350 27Q393 27 433 44T505 96L533 67ZM529 261Q532 282 532 301Q532 342 520 368T488 410T444 431T398
437Q360 437 327 423T269 385T226 329T199 261H529Z" />
<glyph unicode="&#x4c0;" glyph-name="null" horiz-adv-x="211" d="M182 667H229L100 0H53L182 667Z" />
<glyph unicode="&#x4c1;" glyph-name="null" horiz-adv-x="795" d="M474 667H518L460 370H536Q568 370 594 386T646 439L801 667H851L682 418Q666 395 645 377T598 347Q624 339 638 321T663 266L745 0H697L623 248Q610 291 588 308T536 325H452L389 0H345L408
325H329Q300 325 271 309T212 248L42 0H-10L173 266Q186 285 197 298T220 321T244 337T270 347Q228 369 214 418L141 667H186L253 439Q264 403 284 387T337 370H416L474 667ZM436 841Q436 805 456 789T504 773Q536 773 563 786T606 841H647Q640 814 626 794T592
761T550 742T504 735Q484 735 465 740T430 758T406 790T396 841H436Z" />
<glyph unicode="&#x4c2;" glyph-name="null" horiz-adv-x="644" d="M313 218H256Q226 218 209 207T174 174L32 0H-20L134 187Q154 211 167 222T199 240Q178 250 167 266T147 305L81 466H123L186 317Q198 289 213 275T255 260H321L362 466H403L362 260H426Q453
260 473 274T516 317L638 466H684L554 305Q537 284 520 267T478 240Q493 234 502 223T523 187L604 0H556L482 174Q473 196 461 207T418 218H354L312 0H271L313 218ZM333 648V642Q333 612 349 595T398 578Q433 578 457 594T492 648H527Q524 627 514 608T488 574T448
551T397 542Q344 542 320 569T296 631Q296 635 296 639T297 648H333Z" />
<glyph unicode="&#x4c3;" glyph-name="null" horiz-adv-x="583" d="M101 0H53L182 667H230L173 370H247Q285 370 312 385T362 428L549 667H610L405 413Q374 375 339 360Q378 355 412 339T472 295T512 225T527 130Q527 53 499 -9T425 -116T318 -184T193 -209Q147
-209 108 -199L120 -155Q159 -164 197 -164Q250 -164 301 -144T391 -87T455 6T479 130Q479 185 463 222T419 282T357 315T284 325H164L101 0Z" />
<glyph unicode="&#x4c4;" glyph-name="null" horiz-adv-x="497" d="M82 0H37L128 466H173L133 260H207Q237 260 258 274T304 317L433 466H486L348 305Q329 283 315 271T281 249Q350 238 391 191T433 63Q433 6 411 -41T352 -123T268 -176T170 -195Q128 -195 89
-183L101 -145Q118 -150 134 -151T163 -153Q206 -153 246 -139T318 -96T367 -28T386 62Q386 102 374 131T340 179T291 208T232 218H125L82 0Z" />
<glyph unicode="&#x4c5;" glyph-name="null" horiz-adv-x="698" d="M695 667L574 45H618L613 19Q602 -41 567 -88T478 -163L459 -127Q497 -104 524 -73T565 0H517L638 622H367Q329 442 290 322T208 130T115 28T7 -2H-6L3 42H9Q37 42 64 52T118 87T172 157T225
271T278 438T331 667H695Z" />
<glyph unicode="&#x4c6;" glyph-name="null" horiz-adv-x="557" d="M535 466L453 42H496L492 20Q482 -30 453 -70T378 -133L359 -99Q389 -80 411 -56T444 0H400L482 424H270Q241 308 214 227T156 95T87 21T-2 -2H-6L2 39Q42 39 72 61T130 134T182 266T236 466H535Z" />
<glyph unicode="&#x4c7;" glyph-name="null" horiz-adv-x="660" d="M182 667H229L171 370H572L630 667H677L538 -51Q522 -134 487 -167T392 -200Q364 -200 337 -190T280 -153L307 -120Q330 -143 350 -151T393 -160Q418 -160 434 -151T462 -127T479 -89T491 -41L564
326H163L100 0H53L182 667Z" />
<glyph unicode="&#x4c8;" glyph-name="null" horiz-adv-x="526" d="M518 466L418 -46Q412 -79 403 -107T378 -156T341 -188T285 -200Q227 -200 193 -164L219 -134Q235 -150 250 -155T285 -161Q296 -161 308 -158T333 -143T356 -105T376 -35L425 218H125L82 0H37L128
466H173L133 260H433L473 466H518Z" />
<glyph unicode="&#x4c9;" glyph-name="null" horiz-adv-x="681" d="M443 -125Q481 -102 508 -72T548 0H501L564 326H163L100 0H53L182 667H229L171 370H572L630 667H677L557 45H603L598 19Q587 -41 552 -88T463 -163L443 -125Z" />
<glyph unicode="&#x4ca;" glyph-name="null" horiz-adv-x="540" d="M518 466L435 42H478L474 20Q464 -30 435 -70T360 -133L341 -99Q371 -80 393 -56T426 0H382L425 218H125L82 0H37L128 466H173L133 260H433L473 466H518Z" />
<glyph unicode="&#x4cb;" glyph-name="null" horiz-adv-x="598" d="M614 667L485 0H437L408 -154H362L400 45H446L496 301Q460 281 416 270T327 258Q287 258 251 269T188 302T144 360T127 444Q127 460 129 476T134 509L164 667H212L184 521Q176 478 176 446Q176
409 188 382T221 338T270 312T333 303Q380 303 427 317T505 351L566 667H614Z" />
<glyph unicode="&#x4cc;" glyph-name="null" horiz-adv-x="469" d="M461 466L370 0H325L301 -124H258L291 42H333L365 205Q336 190 305 182T240 173Q207 173 178 181T128 207T94 251T81 313Q81 321 82 332T85 354L107 466H151L131 366Q129 353 128 343T126 321Q126
290 136 270T163 237T202 219T248 213Q286 213 320 223T373 246L416 466H461Z" />
<glyph unicode="&#x4cd;" glyph-name="null" horiz-adv-x="774" d="M541 -125Q579 -102 606 -72T646 0H601L694 592L396 210H367L227 591L91 0H44L202 667H249L393 268L702 667H748L655 45H701L696 19Q685 -41 650 -88T561 -163L541 -125Z" />
<glyph unicode="&#x4ce;" glyph-name="null" horiz-adv-x="603" d="M27 0L140 466H180L298 194L524 466H567L504 42H547L543 20Q533 -30 504 -70T429 -133L410 -99Q440 -80 462 -56T495 0H453L515 398L302 145H276L165 397L72 0H27Z" />
<glyph unicode="&#x4cf;" glyph-name="null" horiz-adv-x="176" d="M165 667H209L80 0H36L165 667Z" />
<glyph unicode="&#x4d0;" glyph-name="null" horiz-adv-x="604" d="M380 667H424L557 0H507L465 216H164L40 0H-11L380 667ZM457 260L390 608L190 260H457ZM345 841Q345 805 365 789T413 773Q445 773 472 786T515 841H556Q549 814 535 794T501 761T459 742T413
735Q393 735 374 740T339 758T315 790T305 841H345Z" />
<glyph unicode="&#x4d1;" glyph-name="null" horiz-adv-x="472" d="M380 240Q355 245 325 248T266 252Q207 252 171 238T115 204T88 160T81 117Q81 77 104 53T179 28Q217 28 249 41T307 76T347 124T368 177L380 240ZM339 0Q340 10 341 17T344 33T347 51T351 77Q309
28 265 8T176 -12Q147 -12 122 -5T78 18T48 57T37 113Q37 149 52 181T96 237T168 275T269 289Q303 289 334 285T387 277L393 309Q396 327 396 343Q396 386 371 412T280 438Q253 438 232 434T195 422T165 406T142 389L120 419Q143 439 185 458T287 478Q365 478 402
442T440 345Q440 333 439 322T435 298L396 97Q392 77 388 56T381 0H339ZM252 648V642Q252 612 268 595T317 578Q352 578 376 594T411 648H446Q443 627 433 608T407 574T367 551T316 542Q263 542 239 569T215 631Q215 635 215 639T216 648H252Z" />
<glyph unicode="&#x4d2;" glyph-name="null" horiz-adv-x="604" d="M380 667H424L557 0H507L465 216H164L40 0H-11L380 667ZM457 260L390 608L190 260H457ZM474 828H537L523 760H460L474 828ZM314 828H378L364 760H300L314 828Z" />
<glyph unicode="&#x4d3;" glyph-name="null" horiz-adv-x="472" d="M380 240Q355 245 325 248T266 252Q207 252 171 238T115 204T88 160T81 117Q81 77 104 53T179 28Q217 28 249 41T307 76T347 124T368 177L380 240ZM339 0Q340 10 341 17T344 33T347 51T351 77Q309
28 265 8T176 -12Q147 -12 122 -5T78 18T48 57T37 113Q37 149 52 181T96 237T168 275T269 289Q303 289 334 285T387 277L393 309Q396 327 396 343Q396 386 371 412T280 438Q253 438 232 434T195 422T165 406T142 389L120 419Q143 439 185 458T287 478Q365 478 402
442T440 345Q440 333 439 322T435 298L396 97Q392 77 388 56T381 0H339ZM364 633H422L409 571H351L364 633ZM222 633H280L267 571H209L222 633Z" />
<glyph unicode="&#x4d4;" glyph-name="null" horiz-adv-x="912" d="M535 667H943L934 623H597L548 370H811L803 326H540L485 44H847L839 0H430L467 195H193L32 0H-21L535 667ZM476 239L551 624L231 239H476Z" />
<glyph unicode="&#x4d5;" glyph-name="null" horiz-adv-x="834" d="M386 112Q369 87 348 65T300 25T242 -2T173 -12Q145 -12 120 -6T77 15T48 52T37 107Q37 144 51 174T94 227T165 262T264 275Q300 275 331 271T384 263L393 310Q396 326 396 343Q396 386 371 412T280
438Q253 438 232 434T195 422T165 406T142 389L120 419Q130 428 146 438T184 458T231 472T288 478Q355 478 391 451T437 378Q470 420 519 449T631 478Q656 478 687 471T744 444T788 387T806 292Q806 281 805 263T798 223H422Q421 216 421 210T421 197Q421 115 462
72T579 29Q622 29 662 45T734 96L762 67Q730 35 685 12T571 -12Q497 -12 454 19T386 112ZM377 226Q352 231 322 234T261 238Q203 238 168 226T114 195T88 154T81 112Q81 72 102 50T174 28Q214 28 248 41T307 76T347 124T368 177L377 226ZM629 437Q591 437 559 424T500
386T456 330T428 262H761Q764 283 764 301Q764 342 752 368T719 410T675 431T629 437Z" />
<glyph unicode="&#x4d6;" glyph-name="null" horiz-adv-x="535" d="M182 667H566L557 623H220L171 370H434L426 326H163L108 44H470L462 0H53L182 667ZM319 841Q319 805 339 789T387 773Q419 773 446 786T489 841H530Q523 814 509 794T475 761T433 742T387 735Q367
735 348 740T313 758T289 790T279 841H319Z" />
<glyph unicode="&#x4d7;" glyph-name="null" horiz-adv-x="514" d="M100 195Q100 114 142 72T258 29Q347 29 414 96L442 67Q365 -12 253 -12Q159 -12 107 41T54 189Q54 245 73 297T126 389T208 454T313 478Q357 478 389 464T443 424T475 366T486 294Q486 260 478
222H101Q100 215 100 209T100 195ZM441 261Q444 280 444 300Q444 363 411 400T311 437Q272 437 239 423T179 385T135 329T108 261H441ZM268 648V642Q268 612 284 595T333 578Q368 578 392 594T427 648H462Q459 627 449 608T423 574T383 551T332 542Q279 542 255
569T231 631Q231 635 231 639T232 648H268Z" />
<glyph unicode="&#x4d8;" glyph-name="null" horiz-adv-x="715" d="M650 385Q650 510 591 574T430 639Q407 639 380 635T324 621T265 591T204 542L173 572Q224 624 290 653T432 683Q492 683 541 663T626 605T680 513T700 389Q700 308 674 235T599 106T486 17T342
-16Q274 -16 226 8T146 73T101 165T86 271Q86 311 94 354H649Q649 362 649 369T650 385ZM343 29Q395 29 445 48T535 104T604 192T644 311H135Q134 301 134 292T133 273Q133 225 145 181T183 104T248 50T343 29Z" />
<glyph unicode="&#x4d9;" glyph-name="null" horiz-adv-x="513" d="M441 273Q441 352 401 394T290 437Q248 437 210 421T142 370L114 399Q143 430 187 454T296 478Q343 478 378 463T438 422T474 359T487 278Q487 222 468 170T415 77T333 12T231 -12Q205 -12 175
-5T119 23T75 81T57 179Q57 191 58 210T65 251H440Q440 256 440 261T441 273ZM99 170Q99 128 111 101T143 57T186 35T233 29Q272 29 305 43T364 82T408 140T434 212H102Q99 189 99 170Z" />
<glyph unicode="&#x4da;" glyph-name="null" horiz-adv-x="715" d="M650 385Q650 510 591 574T430 639Q407 639 380 635T324 621T265 591T204 542L173 572Q224 624 290 653T432 683Q492 683 541 663T626 605T680 513T700 389Q700 308 674 235T599 106T486 17T342
-16Q274 -16 226 8T146 73T101 165T86 271Q86 311 94 354H649Q649 362 649 369T650 385ZM343 29Q395 29 445 48T535 104T604 192T644 311H135Q134 301 134 292T133 273Q133 225 145 181T183 104T248 50T343 29ZM534 828H597L583 760H520L534 828ZM374 828H438L424
760H360L374 828Z" />
<glyph unicode="&#x4db;" glyph-name="null" horiz-adv-x="513" d="M441 273Q441 352 401 394T290 437Q248 437 210 421T142 370L114 399Q143 430 187 454T296 478Q343 478 378 463T438 422T474 359T487 278Q487 222 468 170T415 77T333 12T231 -12Q205 -12 175
-5T119 23T75 81T57 179Q57 191 58 210T65 251H440Q440 256 440 261T441 273ZM99 170Q99 128 111 101T143 57T186 35T233 29Q272 29 305 43T364 82T408 140T434 212H102Q99 189 99 170ZM395 627H453L440 565H382L395 627ZM253 627H311L298 565H240L253 627Z" />
<glyph unicode="&#x4dc;" glyph-name="null" horiz-adv-x="795" d="M474 667H518L460 370H536Q568 370 594 386T646 439L801 667H851L682 418Q666 395 645 377T598 347Q624 339 638 321T663 266L745 0H697L623 248Q610 291 588 308T536 325H452L389 0H345L408
325H329Q300 325 271 309T212 248L42 0H-10L173 266Q186 285 197 298T220 321T244 337T270 347Q228 369 214 418L141 667H186L253 439Q264 403 284 387T337 370H416L474 667ZM573 828H636L622 760H559L573 828ZM413 828H477L463 760H399L413 828Z" />
<glyph unicode="&#x4dd;" glyph-name="null" horiz-adv-x="644" d="M313 218H256Q226 218 209 207T174 174L32 0H-20L134 187Q154 211 167 222T199 240Q178 250 167 266T147 305L81 466H123L186 317Q198 289 213 275T255 260H321L362 466H403L362 260H426Q453
260 473 274T516 317L638 466H684L554 305Q537 284 520 267T478 240Q493 234 502 223T523 187L604 0H556L482 174Q473 196 461 207T418 218H354L312 0H271L313 218ZM454 627H512L499 565H441L454 627ZM312 627H370L357 565H299L312 627Z" />
<glyph unicode="&#x4de;" glyph-name="null" horiz-adv-x="547" d="M199 325L208 370H311Q342 370 373 379T430 407T471 454T487 522Q487 554 476 576T445 613T401 633T348 639Q311 639 282 630T231 608T192 578T165 547L128 574Q137 588 156 606T203 642T269
671T354 683Q399 683 433 672T490 639T525 590T537 529Q537 496 526 466T494 412T446 370T383 346Q402 341 421 331T457 303T484 259T495 197Q495 150 476 111T425 43T348 0T255 -16Q208 -16 170 -3T104 29T58 70T33 110L72 134Q79 119 94 101T133 66T188 39T258
28Q297 28 331 40T391 74T430 126T445 194Q445 230 432 254T399 295T354 318T303 325H199ZM431 828H494L480 760H417L431 828ZM271 828H335L321 760H257L271 828Z" />
<glyph unicode="&#x4df;" glyph-name="null" horiz-adv-x="424" d="M129 218L137 260H210Q243 260 271 265T321 282T355 311T367 354Q367 393 341 415T255 438Q211 438 174 423T102 374L74 401Q109 439 158 458T260 478Q333 478 372 445T412 359Q412 312 378 279T295
238Q330 230 354 202T379 128Q379 92 364 66T322 22T262 -4T189 -12Q129 -12 80 8T5 68L39 94Q88 28 192 28Q219 28 245 33T291 50T323 81T335 129Q335 177 301 197T201 218H129ZM329 627H387L374 565H316L329 627ZM187 627H245L232 565H174L187 627Z" />
<glyph unicode="&#x4e0;" glyph-name="null" horiz-adv-x="511" d="M215 361L475 622H138L147 667H539L530 621L281 371H290Q327 371 360 360T419 327T459 273T474 197Q474 149 456 110T406 43T332 0T242 -16Q193 -16 156 -2T93 32T51 73T28 110L67 134Q71 126
83 109T117 73T170 42T245 28Q284 28 317 40T373 75T410 127T424 195Q424 233 411 259T375 301T326 324T272 331Q259 331 249 330T227 327L215 361Z" />
<glyph unicode="&#x4e1;" glyph-name="null" horiz-adv-x="435" d="M147 175L382 424H83L91 466H437L428 420L205 181Q241 178 272 166T325 131T361 77T374 5Q374 -42 357 -82T311 -150T243 -195T160 -211Q109 -211 61 -189T-22 -116L15 -91Q70 -170 163 -170Q199
-170 229 -157T281 -120T315 -65T327 4Q327 41 314 67T281 111T234 136T181 144Q175 144 169 144T158 143L147 175Z" />
<glyph unicode="&#x4e2;" glyph-name="null" horiz-adv-x="673" d="M560 0H513L628 594L105 0H53L182 667H229L112 69L639 667H689L560 0ZM307 813H610L602 772H299L307 813Z" />
<glyph unicode="&#x4e3;" glyph-name="null" horiz-adv-x="521" d="M172 466L93 64L467 466H513L422 0H378L456 402L83 0H37L128 466H172ZM234 618H457L449 577H226L234 618Z" />
<glyph unicode="&#x4e4;" glyph-name="null" horiz-adv-x="673" d="M560 0H513L628 594L105 0H53L182 667H229L112 69L639 667H689L560 0ZM511 828H574L560 760H497L511 828ZM351 828H415L401 760H337L351 828Z" />
<glyph unicode="&#x4e5;" glyph-name="null" horiz-adv-x="521" d="M172 466L93 64L467 466H513L422 0H378L456 402L83 0H37L128 466H172ZM390 627H448L435 565H377L390 627ZM248 627H306L293 565H235L248 627Z" />
<glyph unicode="&#x4e6;" glyph-name="null" horiz-adv-x="743" d="M349 -16Q291 -16 243 5T159 63T104 152T84 263Q84 354 113 431T193 564T313 651T464 683Q521 683 569 662T653 604T708 515T728 404Q728 313 700 236T621 103T501 16T349 -16ZM459 639Q388 639
329 612T226 535T159 419T134 271Q134 220 148 176T190 99T259 47T353 28Q422 28 481 55T584 132T653 248T678 396Q678 448 664 492T622 569T553 620T459 639ZM540 828H603L589 760H526L540 828ZM380 828H444L430 760H366L380 828Z" />
<glyph unicode="&#x4e7;" glyph-name="null" horiz-adv-x="544" d="M243 -12Q204 -12 170 1T110 41T69 104T54 188Q54 243 73 295T127 387T214 453T329 478Q368 478 402 465T462 425T503 362T518 278Q518 223 500 171T446 79T359 13T243 -12ZM322 437Q271 437
230 417T160 363T116 286T100 196Q100 115 142 72T250 29Q301 29 342 49T412 103T456 180T472 270Q472 351 432 394T322 437ZM401 627H459L446 565H388L401 627ZM259 627H317L304 565H246L259 627Z" />
<glyph unicode="&#x4e8;" glyph-name="null" horiz-adv-x="743" d="M349 -16Q291 -16 243 5T159 63T104 152T84 263Q84 354 113 431T193 564T313 651T464 683Q521 683 569 662T653 604T708 515T728 404Q728 313 700 236T621 103T501 16T349 -16ZM132 271Q132 220
146 176T188 99T257 47T352 28Q413 28 467 49T563 109T633 201T673 320H134Q133 308 133 296T132 271ZM460 639Q400 639 348 619T254 563T183 477T141 365H679Q679 373 679 380T680 396Q680 448 666 492T623 569T554 620T460 639Z" />
<glyph unicode="&#x4e9;" glyph-name="null" horiz-adv-x="544" d="M243 -12Q204 -12 170 1T110 41T69 104T54 188Q54 243 73 295T127 387T214 453T329 478Q368 478 402 465T462 425T503 362T518 278Q518 223 500 171T446 79T359 13T243 -12ZM98 216V196Q98 115
141 72T250 29Q293 29 329 44T394 84T441 144T468 216H98ZM322 437Q279 437 243 423T180 384T133 327T105 257H474V270Q474 351 433 394T322 437Z" />
<glyph unicode="&#x4ea;" glyph-name="null" horiz-adv-x="743" d="M349 -16Q291 -16 243 5T159 63T104 152T84 263Q84 354 113 431T193 564T313 651T464 683Q521 683 569 662T653 604T708 515T728 404Q728 313 700 236T621 103T501 16T349 -16ZM132 271Q132 220
146 176T188 99T257 47T352 28Q413 28 467 49T563 109T633 201T673 320H134Q133 308 133 296T132 271ZM460 639Q400 639 348 619T254 563T183 477T141 365H679Q679 373 679 380T680 396Q680 448 666 492T623 569T554 620T460 639ZM546 828H609L595 760H532L546
828ZM386 828H450L436 760H372L386 828Z" />
<glyph unicode="&#x4eb;" glyph-name="null" horiz-adv-x="544" d="M243 -12Q204 -12 170 1T110 41T69 104T54 188Q54 243 73 295T127 387T214 453T329 478Q368 478 402 465T462 425T503 362T518 278Q518 223 500 171T446 79T359 13T243 -12ZM98 216V196Q98 115
141 72T250 29Q293 29 329 44T394 84T441 144T468 216H98ZM322 437Q279 437 243 423T180 384T133 327T105 257H474V270Q474 351 433 394T322 437ZM401 627H459L446 565H388L401 627ZM259 627H317L304 565H246L259 627Z" />
<glyph unicode="&#x4ec;" glyph-name="null" horiz-adv-x="657" d="M215 370H588V385Q588 443 574 490T532 570T465 621T376 639Q308 639 251 609T156 531L122 560Q165 611 230 647T378 683Q435 683 482 664T564 606T618 513T638 387Q638 305 613 232T541 104T430
17T288 -16Q208 -16 145 19T50 120L90 140Q124 79 176 54T288 28Q351 28 402 52T491 117T552 211T584 325H206L215 370ZM490 828H553L539 760H476L490 828ZM330 828H394L380 760H316L330 828Z" />
<glyph unicode="&#x4ed;" glyph-name="null" horiz-adv-x="476" d="M163 259H402V267Q402 309 391 341T361 394T315 426T257 437Q216 437 178 420T109 370L81 399Q115 436 164 457T265 478Q304 478 337 465T395 425T434 361T448 272Q448 217 431 166T382 75T303
12T200 -12Q140 -12 96 15T26 92L61 112Q107 29 202 29Q244 29 277 44T335 85T376 145T398 217H154L163 259ZM350 627H408L395 565H337L350 627ZM208 627H266L253 565H195L208 627Z" />
<glyph unicode="&#x4ee;" glyph-name="null" horiz-adv-x="562" d="M593 667H644L253 74Q225 32 197 8T125 -16Q96 -16 73 -6T30 22L56 56Q70 44 87 36T126 27Q155 27 175 44T216 92L275 181L117 667H168L305 227L593 667ZM257 813H560L552 772H249L257 813Z" />
<glyph unicode="&#x4ef;" glyph-name="null" horiz-adv-x="445" d="M-18 -152Q-9 -161 5 -167T36 -174Q64 -174 82 -156T121 -100L180 4L70 466H117L210 55L444 466H491L154 -117Q145 -132 134 -149T109 -180T78 -203T39 -212Q12 -212 -7 -205T-42 -181L-18 -152ZM193
618H416L408 577H185L193 618Z" />
<glyph unicode="&#x4f0;" glyph-name="null" horiz-adv-x="562" d="M593 667H644L253 74Q225 32 197 8T125 -16Q96 -16 73 -6T30 22L56 56Q70 44 87 36T126 27Q155 27 175 44T216 92L275 181L117 667H168L305 227L593 667ZM458 828H521L507 760H444L458 828ZM298
828H362L348 760H284L298 828Z" />
<glyph unicode="&#x4f1;" glyph-name="null" horiz-adv-x="445" d="M-18 -152Q-9 -161 5 -167T36 -174Q64 -174 82 -156T121 -100L180 4L70 466H117L210 55L444 466H491L154 -117Q145 -132 134 -149T109 -180T78 -203T39 -212Q12 -212 -7 -205T-42 -181L-18 -152ZM350
627H408L395 565H337L350 627ZM208 627H266L253 565H195L208 627Z" />
<glyph unicode="&#x4f2;" glyph-name="null" horiz-adv-x="562" d="M593 667H644L253 74Q225 32 197 8T125 -16Q96 -16 73 -6T30 22L56 56Q70 44 87 36T126 27Q155 27 175 44T216 92L275 181L117 667H168L305 227L593 667ZM384 866H445L332 725H289L384 866ZM535
866H596L483 725H440L535 866Z" />
<glyph unicode="&#x4f3;" glyph-name="null" horiz-adv-x="445" d="M-18 -152Q-9 -161 5 -167T36 -174Q64 -174 82 -156T121 -100L180 4L70 466H117L210 55L444 466H491L154 -117Q145 -132 134 -149T109 -180T78 -203T39 -212Q12 -212 -7 -205T-42 -181L-18 -152ZM285
667H337L249 539H208L285 667ZM415 667H467L379 539H338L415 667Z" />
<glyph unicode="&#x4f4;" glyph-name="null" horiz-adv-x="598" d="M614 667L485 0H437L495 301Q460 281 416 270T328 258Q288 258 252 269T188 302T144 360T127 443Q127 460 129 476T134 509L164 667H212L184 521Q176 478 176 448Q176 410 188 383T221 338T271
312T334 303Q381 303 428 317T505 351L566 667H614ZM472 828H535L521 760H458L472 828ZM312 828H376L362 760H298L312 828Z" />
<glyph unicode="&#x4f5;" glyph-name="null" horiz-adv-x="472" d="M464 466L373 0H328L368 205Q359 199 345 194T315 184T283 176T252 173Q171 173 126 211T81 314Q81 335 85 354L107 466H151L131 366Q129 355 128 345T126 323Q126 270 159 242T260 213Q293 213
324 223T376 246L419 466H464ZM357 627H415L402 565H344L357 627ZM215 627H273L260 565H202L215 627Z" />
<glyph unicode="&#x4f6;" glyph-name="null" horiz-adv-x="507" d="M71 -154L100 0H53L182 667H582L574 624H222L109 45H155L117 -154H71Z" />
<glyph unicode="&#x4f7;" glyph-name="null" horiz-adv-x="394" d="M133 42L101 -124H58L82 0H37L128 466H427L419 424H165L90 42H133Z" />
<glyph unicode="&#x4f8;" glyph-name="null" horiz-adv-x="741" d="M709 667H757L628 0H580L709 667ZM182 667H230L179 402H334Q382 402 417 389T474 353T508 299T519 230Q519 185 503 143T454 70T371 19T252 0H53L182 667ZM170 357L109 45H259Q305 45 343 56T409
91T452 147T468 225Q468 357 325 357H170ZM542 828H605L591 760H528L542 828ZM382 828H446L432 760H368L382 828Z" />
<glyph unicode="&#x4f9;" glyph-name="null" horiz-adv-x="626" d="M527 0H482L573 466H618L527 0ZM90 40H255Q280 40 302 48T341 72T368 110T378 159Q378 200 354 228T271 256H132L90 40ZM173 466L140 296H278Q348 296 386 259T424 162Q424 128 411 99T375 47T318
13T244 0H37L128 466H173ZM453 627H511L498 565H440L453 627ZM311 627H369L356 565H298L311 627Z" />
<glyph unicode="&#x1e80;" glyph-name="null" horiz-adv-x="839" d="M128 667H176L213 68L490 647H544L587 70L855 667H906L598 0H550L505 584L226 0H175L128 667ZM459 866H515L555 725H515L459 866Z" />
<glyph unicode="&#x1e81;" glyph-name="null" horiz-adv-x="653" d="M73 460H119L163 59L367 460H409L454 57L649 460H695L466 0H420L374 394L172 0H133L73 460ZM334 670H386L418 542H380L334 670Z" />
<glyph unicode="&#x1e82;" glyph-name="null" horiz-adv-x="839" d="M128 667H176L213 68L490 647H544L587 70L855 667H906L598 0H550L505 584L226 0H175L128 667ZM584 866H646L533 725H489L584 866Z" />
<glyph unicode="&#x1e83;" glyph-name="null" horiz-adv-x="653" d="M73 460H119L163 59L367 460H409L454 57L649 460H695L466 0H420L374 394L172 0H133L73 460ZM447 667H501L412 539H370L447 667Z" />
<glyph unicode="&#x1e84;" glyph-name="null" horiz-adv-x="839" d="M128 667H176L213 68L490 647H544L587 70L855 667H906L598 0H550L505 584L226 0H175L128 667ZM588 828H651L637 760H574L588 828ZM428 828H492L478 760H414L428 828Z" />
<glyph unicode="&#x1e85;" glyph-name="null" horiz-adv-x="653" d="M73 460H119L163 59L367 460H409L454 57L649 460H695L466 0H420L374 394L172 0H133L73 460ZM452 627H510L497 565H439L452 627ZM310 627H368L355 565H297L310 627Z" />
<glyph unicode="&#x1ef2;" glyph-name="null" horiz-adv-x="511" d="M258 308L110 667H162L288 351L537 667H593L305 308L246 0H199L258 308ZM280 866H336L376 725H336L280 866Z" />
<glyph unicode="&#x1ef3;" glyph-name="null" horiz-adv-x="444" d="M36 -174Q64 -174 82 -156T121 -100L180 4L69 460H116L210 55L443 460H490L154 -117Q145 -132 134 -149T109 -180T78 -203T39 -212Q12 -212 -7 -205T-42 -181L-18 -152Q-9 -161 5 -167T36 -174ZM225
670H277L309 542H271L225 670Z" />
<glyph unicode="&#x2013;" glyph-name="null" horiz-adv-x="500" d="M28 303H528L520 258H20L28 303Z" />
<glyph unicode="&#x2014;" glyph-name="null" horiz-adv-x="1000" d="M28 303H1028L1020 258H20L28 303Z" />
<glyph unicode="&#x2015;" glyph-name="null" horiz-adv-x="1000" d="M28 303H1028L1020 258H20L28 303Z" />
<glyph unicode="&#x2018;" glyph-name="null" horiz-adv-x="185" d="M191 667H230L178 489H130L191 667Z" />
<glyph unicode="&#x2019;" glyph-name="null" horiz-adv-x="185" d="M171 667H219L159 489H120L171 667Z" />
<glyph unicode="&#x201a;" glyph-name="null" horiz-adv-x="185" d="M69 71H117L57 -107H18L69 71Z" />
<glyph unicode="&#x201c;" glyph-name="null" horiz-adv-x="318" d="M191 667H230L178 489H130L191 667ZM324 667H363L311 489H263L324 667Z" />
<glyph unicode="&#x201d;" glyph-name="null" horiz-adv-x="318" d="M171 667H219L159 489H120L171 667ZM304 667H352L292 489H253L304 667Z" />
<glyph unicode="&#x201e;" glyph-name="null" horiz-adv-x="319" d="M69 71H117L57 -107H18L69 71ZM203 71H251L191 -107H152L203 71Z" />
<glyph unicode="&#x2020;" glyph-name="null" horiz-adv-x="475" d="M268 424H115L123 465H276L315 667H358L319 465H472L464 424H311L205 -121H162L268 424Z" />
<glyph unicode="&#x2021;" glyph-name="null" horiz-adv-x="475" d="M201 81H48L56 122H209L268 424H115L123 465H276L315 667H358L319 465H472L464 424H311L252 122H405L397 81H244L205 -121H162L201 81Z" />
<glyph unicode="&#x2022;" glyph-name="null" horiz-adv-x="326" d="M84 296Q84 318 92 337T114 370T148 392T189 401Q211 401 230 393T263 370T285 337T294 296Q294 274 286 255T263 222T230 199T189 191Q167 191 148 199T115 221T92 255T84 296Z" />
<glyph unicode="&#x2026;" glyph-name="null" horiz-adv-x="652" d="M55 68H121L107 0H41L55 68ZM256 68H322L308 0H242L256 68ZM456 68H522L508 0H442L456 68Z" />
<glyph unicode="&#x2030;" glyph-name="null" horiz-adv-x="1163" d="M636 630H687L207 0H156L636 630ZM256 611Q235 611 212 599T170 563T139 505T127 426Q127 376 146 351T207 325Q227 325 250 337T292 373T323 431T336 510Q336 560 317 585T256 611ZM203 288Q150
288 116 321T82 424Q82 470 97 511T138 582T194 630T259 648Q313 648 347 615T381 512Q381 465 366 425T326 354T269 306T203 288ZM639 317Q618 317 595 305T553 269T522 211T510 132Q510 82 529 57T590 31Q610 31 633 43T675 79T706 137T719 216Q719 266 700 291T639
317ZM586 -6Q533 -6 499 27T465 130Q465 176 480 217T521 288T577 336T642 354Q696 354 730 321T764 218Q764 171 749 131T709 60T652 12T586 -6ZM996 317Q975 317 952 305T910 269T879 211T867 132Q867 82 886 57T947 31Q967 31 990 43T1032 79T1063 137T1076
216Q1076 266 1057 291T996 317ZM943 -6Q890 -6 856 27T822 130Q822 176 837 217T878 288T934 336T999 354Q1053 354 1087 321T1121 218Q1121 171 1106 131T1066 60T1009 12T943 -6Z" />
<glyph unicode="&#x2039;" glyph-name="null" horiz-adv-x="290" d="M83 234L222 426H269L131 232L193 42H148L83 234Z" />
<glyph unicode="&#x203a;" glyph-name="null" horiz-adv-x="290" d="M237 234L98 42H51L189 236L127 426H172L237 234Z" />
<glyph unicode="&#x2044;" glyph-name="null" horiz-adv-x="120" d="M294 630H345L-135 0H-186L294 630Z" />
<glyph unicode="&#x2070;" glyph-name="null" horiz-adv-x="360" d="M251 611Q230 611 207 599T165 563T134 505T122 426Q122 376 141 351T202 325Q222 325 245 337T287 373T318 431T331 510Q331 560 312 585T251 611ZM198 288Q145 288 111 321T77 424Q77 470
92 511T133 582T189 630T254 648Q308 648 342 615T376 512Q376 465 361 425T321 354T264 306T198 288Z" />
<glyph unicode="&#x2074;" glyph-name="null" horiz-adv-x="360" d="M79 409L303 638H345L301 409H342L335 374H294L280 299H242L256 374H72L79 409ZM263 409L298 589L125 409H263Z" />
<glyph unicode="&#x2075;" glyph-name="null" horiz-adv-x="360" d="M325 414Q325 382 313 359T282 319T237 296T184 288Q152 288 125 297T75 327L98 358Q122 336 142 331T185 325Q225 325 253 346T281 410Q281 442 261 459T218 477Q201 477 183 475T145 462L130
478L183 638H346L340 601H209Q199 573 194 554T179 507Q190 511 200 511T225 512Q266 512 295 486T325 414Z" />
<glyph unicode="&#x2076;" glyph-name="null" horiz-adv-x="360" d="M346 588Q328 602 314 606T277 611Q228 611 198 577T150 490Q167 501 188 510T241 519Q266 519 285 511T317 490T337 459T344 422Q344 395 335 371T309 328T267 299T211 288Q158 288 129 319T99
403Q99 438 108 480T139 560T195 622T280 647Q304 647 326 640T368 616L346 588ZM237 484Q208 484 187 477T143 452Q137 431 137 410Q137 394 141 379T154 351T178 331T215 323Q237 323 253 331T281 353T297 382T303 415Q303 442 288 463T237 484Z" />
<glyph unicode="&#x2077;" glyph-name="null" horiz-adv-x="360" d="M115 298Q134 333 157 372T205 451T256 529T309 602H125L133 638H360L352 600Q336 579 311 543T259 463T206 377T162 298H115Z" />
</font>
</defs>
</svg>
